<svg width="360" height="150" viewBox="0 0 360 150" fill="none" xmlns="http://www.w3.org/2000/svg">
<mask id="mask0_402_2511" style="mask-type:alpha" maskUnits="userSpaceOnUse" x="0" y="0" width="360" height="150">
<rect x="0.5" y="0.5" width="359" height="149" rx="9.5" fill="#B2D3BE" stroke="#1B1B1B"/>
</mask>
<g mask="url(#mask0_402_2511)">
<path d="M316.331 87.8354C316.331 87.8354 330.306 81.9596 328.797 64.733C328.797 64.733 332.799 81.4255 317.446 89.972C317.381 90.0388 315.085 89.104 316.331 87.8354Z" fill="#D29F7E"/>
<path d="M316.331 87.8354C316.331 87.8354 330.306 81.9596 328.797 64.733C328.797 64.733 332.799 81.4255 317.446 89.972C317.381 90.0388 315.085 89.104 316.331 87.8354Z" fill="#F2F4D1"/>
<mask id="mask1_402_2511" style="mask-type:luminance" maskUnits="userSpaceOnUse" x="315" y="64" width="15" height="26">
<path d="M316.332 87.8354C316.332 87.8354 330.307 81.9596 328.798 64.733C328.798 64.733 332.8 81.4255 317.447 89.972C317.382 90.0388 315.085 89.104 316.332 87.8354Z" fill="white"/>
</mask>
<g mask="url(#mask1_402_2511)">
<path d="M319.416 87.5684V87.7019C319.482 87.7019 319.416 87.6351 319.416 87.5684Z" fill="#F2F4D1"/>
<path d="M321.778 86.4331L321.712 86.2996C321.712 86.3441 321.734 86.3886 321.778 86.4331Z" fill="#F2F4D1"/>
<path d="M317.055 88.2368C317.055 88.1691 316.987 88.1691 317.055 88.2368Z" fill="#F2F4D1"/>
<path d="M322.5 85.7639V85.6983C322.434 85.6327 322.5 85.6983 322.5 85.7639Z" fill="#F2F4D1"/>
<path d="M317.841 88.1024C317.972 88.5031 317.776 88.1692 317.841 88.5698C317.841 88.4363 317.907 88.3695 317.972 88.6366C317.972 88.9037 317.841 88.6366 317.972 88.9704L318.038 88.8369C318.104 88.9704 318.169 89.3043 318.169 89.2375C318.104 88.7034 318.432 89.3711 318.497 89.2375V89.3043L318.694 89.5046V89.4378C318.825 89.6382 318.957 89.7717 319.022 89.7049C318.957 89.4378 319.285 89.5046 319.219 89.2375C319.219 89.3043 319.153 89.3043 319.088 89.3043L318.957 88.9704C319.022 88.9704 319.088 89.2375 319.088 89.0372C318.891 88.5698 318.957 89.104 318.891 89.0372V88.7701C318.76 88.7701 318.628 88.7034 318.694 89.1708C318.628 89.104 318.563 88.9037 318.563 88.8369C318.563 89.104 318.432 88.5698 318.432 88.8369C318.3 88.4363 318.563 88.5698 318.497 88.3027C318.694 88.5698 318.76 88.236 318.825 88.1692C318.957 88.4363 318.957 88.7701 319.088 88.9037C319.285 89.0372 319.153 88.7034 319.153 88.5031C319.285 88.5698 319.35 88.9704 319.481 88.9704V89.1708C319.744 89.5714 319.481 88.9705 319.613 89.0372C319.547 88.9037 319.481 88.8369 319.416 88.9037C319.35 88.7701 319.35 88.6366 319.416 88.6366C319.35 88.4363 319.285 88.1692 319.416 88.236C319.481 88.5031 319.547 88.3695 319.613 88.5031V88.5698C319.613 88.4363 319.744 88.4363 319.744 88.4363V88.5031C319.744 88.3695 319.613 88.1024 319.744 88.1024C319.809 88.236 319.875 88.5698 319.941 88.5031C320.006 88.7034 319.941 88.7701 319.875 88.7034C319.941 88.7701 320.137 89.0372 320.072 89.104C320.203 89.3043 320.137 88.9705 320.203 89.0372C320.137 88.9705 320.137 88.9037 320.072 88.8369C320.203 89.1708 320.269 88.7701 320.137 88.5698V88.7701C320.006 88.5031 320.006 88.3028 319.941 88.1692C320.137 88.5698 320.072 87.9021 320.269 88.1692L320.137 87.9689C320.334 87.9689 320.269 87.5015 320.334 87.3012C320.334 87.4347 320.597 87.9021 320.4 87.7686C320.597 87.7686 320.662 88.1692 320.859 88.3695C321.056 88.4363 320.728 87.9689 320.662 87.7686L320.597 87.9021C320.4 87.368 320.925 87.8354 320.925 87.4347C320.99 87.5683 320.925 87.5015 320.925 87.5683C321.122 87.7686 320.99 87.5015 320.925 87.368C320.99 87.368 321.187 87.4347 321.318 87.7686C321.45 87.7686 321.187 87.5683 321.187 87.5015L321.253 87.5683L321.122 87.1677C321.253 87.2344 321.45 87.3012 321.646 87.5683C321.778 87.4347 321.253 86.9006 321.318 86.7003C321.45 86.8338 321.45 86.9006 321.515 87.0341L321.581 86.9674C321.778 87.3012 321.581 87.2344 321.843 87.5683C321.646 87.1009 321.909 87.368 321.843 87.0341C321.712 86.767 321.975 86.8338 321.975 86.7671C322.04 86.9674 321.975 87.0341 321.975 87.1009C322.106 87.1677 322.237 86.9006 322.04 86.5667C322.106 86.5667 322.303 86.6335 322.368 86.8338C322.565 86.767 322.04 86.3664 322.237 86.2997L322.434 86.5667C322.827 86.767 322.434 86.0326 322.827 86.2329L322.565 85.9658C322.696 86.0326 322.827 86.0993 322.893 86.1661V86.2997C323.155 86.5 322.762 86.0326 322.959 86.0994C322.893 86.0326 322.631 85.899 322.565 85.7655C322.434 86.1661 321.843 85.9658 321.843 86.4332C321.909 86.4332 321.909 86.5 321.975 86.5667C321.909 86.5 321.909 86.6335 321.778 86.5C321.778 86.6335 321.45 86.2997 321.384 86.2997C321.515 86.5 321.187 86.2997 321.45 86.6335L321.253 86.4332C321.318 86.5667 321.45 86.767 321.45 86.8338C321.384 86.8338 321.253 86.7003 321.253 86.5667C320.99 86.5667 320.794 86.767 320.662 86.9674L320.597 86.7671C320.466 86.7003 320.597 87.1677 320.4 86.7003C320.4 86.9006 320.072 86.7003 320.334 87.1677C320.006 86.767 320.006 87.1009 319.875 87.2344C320.137 87.6351 319.809 87.4347 319.875 87.6351C319.678 87.3012 319.809 87.2344 319.744 87.0341C319.875 87.6351 319.219 86.8338 319.547 87.7018L319.481 87.6351C319.481 87.6351 319.35 87.5015 319.285 87.5015C319.35 87.6351 319.416 87.7018 319.35 87.7686C319.285 87.7686 319.219 87.5015 319.153 87.4347C319.153 87.7018 319.022 87.8354 319.153 88.1692C319.088 88.1024 318.957 87.9021 318.957 87.8354C318.891 88.1692 318.76 87.8354 318.694 88.1024C318.76 88.1024 318.563 87.7018 318.694 87.8354C318.432 87.368 318.497 88.0357 318.235 87.7686L318.3 88.1024C318.235 88.1692 318.169 87.9021 318.169 87.7686C317.972 87.6351 317.972 87.8354 317.841 87.8354C317.841 87.7686 317.841 87.7018 317.841 87.7686H317.71C317.71 87.8354 317.71 88.0357 317.776 88.236C317.71 88.1024 317.71 87.9689 317.841 88.1024Z" fill="#F2F4D1"/>
<path d="M319.744 89.1708C319.679 89.104 319.679 89.0372 319.679 89.0372C319.679 89.104 319.679 89.1708 319.744 89.1708Z" fill="#F2F4D1"/>
<path d="M316.332 89.1708C316.398 89.705 316.398 89.1041 316.529 89.2376C316.464 89.3044 316.529 89.6382 316.529 89.7718C316.529 89.1041 316.66 89.9053 316.792 89.705C316.857 89.9053 316.726 89.9721 316.792 90.1724C316.857 89.9721 316.989 89.9053 316.989 89.5047C317.12 89.5047 317.251 89.5715 317.382 89.5047C317.317 89.6382 317.448 89.8385 317.382 90.1724C317.448 89.705 317.579 89.1708 317.645 88.6367C317.732 88.9037 317.798 89.1708 317.841 89.4379C318.104 89.6382 317.776 89.0373 318.038 89.1041L317.973 89.0373C318.038 88.9038 317.907 88.5031 317.907 88.2361L317.71 88.3696C317.645 88.1025 317.776 88.1025 317.776 88.0357C317.776 87.7019 317.645 87.8354 317.579 87.5684C317.579 87.7687 317.513 87.7687 317.513 87.8354L317.448 87.7019C317.317 87.5684 317.382 87.969 317.317 87.969V87.9022V88.3696H317.382C317.382 88.7034 317.251 88.9705 317.448 89.3711L317.251 89.3044C317.185 88.9037 317.185 88.3028 317.251 88.2361V88.1025C317.12 87.9022 317.054 88.4364 317.185 88.7702C317.251 89.705 316.857 88.837 316.792 89.2376C316.726 88.9705 316.792 88.9038 316.857 88.7034C316.901 88.6589 316.945 88.7034 316.989 88.837C317.185 88.6367 316.857 88.0358 317.054 88.1025C317.185 88.2361 316.989 88.5031 317.12 88.5699V87.8354C317.054 87.8354 316.989 87.969 316.923 88.1025C316.792 88.3696 316.595 88.3696 316.464 88.3696C316.332 88.3696 316.267 88.2361 316.267 88.2361C315.676 88.3696 315.086 88.4364 314.495 88.3696C314.299 88.4364 314.233 88.3696 314.036 89.0373C314.036 89.1708 314.167 89.1708 314.102 89.3711C314.167 89.1041 314.299 88.9705 314.364 89.0373C314.364 89.3044 314.233 89.1708 314.233 89.2376C314.167 89.3711 314.167 89.4379 314.102 89.4379C314.167 89.8385 314.43 89.7718 314.561 89.3044C314.627 89.5714 314.43 89.705 314.364 89.9053C314.692 90.1724 314.955 90.1056 315.348 90.1724C315.348 89.705 315.414 89.9053 315.48 89.5715V89.705C315.48 89.6382 315.545 89.3044 315.48 89.2376C315.676 89.5715 315.742 88.6367 315.808 88.4364V88.7034C315.895 88.6589 315.961 88.5922 316.004 88.5031C316.201 88.9705 315.873 88.5699 315.939 89.1708L316.004 89.1041C316.004 89.3044 315.939 89.705 315.939 89.9053C316.136 89.5047 316.201 90.0388 316.398 89.7718C316.398 90.0388 316.201 90.2391 316.201 90.3059C316.267 90.3059 316.398 90.1056 316.398 90.3727V90.0388C316.529 89.9721 316.398 90.3727 316.464 90.573C316.464 90.3727 316.136 89.3711 316.332 89.1708Z" fill="#F2F4D1"/>
<path d="M318.957 88.7701C318.913 88.7701 318.892 88.792 318.892 88.8357L318.957 88.7701Z" fill="#F2F4D1"/>
<path d="M318.629 89.5046V89.6382C318.673 89.5937 318.673 89.5492 318.629 89.5046Z" fill="#F2F4D1"/>
<path d="M318.761 89.972C318.695 89.8385 318.761 89.8385 318.695 89.6382C318.695 89.7717 318.564 89.7717 318.761 89.972Z" fill="#F2F4D1"/>
<path d="M325.977 84.2965C325.912 84.2297 325.911 84.0962 325.78 84.0962V84.2297L325.977 84.2965Z" fill="#F2F4D1"/>
<path d="M325.518 84.2966H325.387L325.715 84.6305C325.715 84.4969 325.452 84.3634 325.518 84.2966Z" fill="#F2F4D1"/>
<path d="M325.19 84.3622L325.124 84.2966C325.124 84.2966 325.124 84.3622 325.19 84.3622Z" fill="#F2F4D1"/>
<path d="M325.321 84.4968L325.517 84.6971L325.452 84.4301L325.321 84.4968C325.277 84.4523 325.233 84.4078 325.189 84.3633L325.321 84.4968Z" fill="#F2F4D1"/>
<path d="M324.599 84.4301C324.73 84.4968 324.795 84.6304 324.927 84.6971C325.058 84.6971 324.73 84.3633 324.927 84.4301C325.058 84.6971 325.124 84.4968 325.255 84.5636C324.992 84.4301 324.795 84.2965 324.599 84.4301L324.795 84.4968C324.795 84.4968 324.73 84.4301 324.599 84.4301Z" fill="#F2F4D1"/>
<path d="M324.664 85.1645L324.467 84.8975C324.599 84.9642 324.664 84.8975 324.927 85.0978C324.927 85.031 324.795 84.9642 324.795 84.8307C324.927 84.8975 325.058 84.9642 324.927 84.7639C324.664 84.7639 324.599 84.6971 324.467 84.7639C324.402 84.6971 324.467 84.6971 324.467 84.6971H324.271C324.467 84.9642 324.402 85.0978 324.664 85.1645Z" fill="#F2F4D1"/>
<path d="M324.402 85.0978C324.468 85.031 324.271 84.7639 324.074 84.6971C324.074 84.8307 324.14 84.8974 324.14 84.9642C324.14 84.9642 324.205 84.8975 324.402 85.0978Z" fill="#F2F4D1"/>
<path d="M324.271 85.2314C324.14 85.1646 323.812 84.9643 324.009 85.2314C324.074 85.0979 324.402 85.4317 324.271 85.2314Z" fill="#F2F4D1"/>
<path d="M323.615 85.4984H323.877C324.205 85.7655 323.877 85.6319 324.009 85.8322C324.14 85.7655 324.074 85.6987 323.943 85.4984C324.009 85.4984 323.877 85.2981 323.812 85.1646C323.943 85.4984 323.221 84.8307 323.615 85.4984Z" fill="#F2F4D1"/>
<path d="M324.14 85.4985L324.074 85.365V85.4985H324.14Z" fill="#F2F4D1"/>
<path d="M323.025 85.4984C322.631 85.2313 323.09 85.8323 322.828 85.7655C322.828 85.7655 322.762 85.6987 322.762 85.6319L322.696 85.6987L322.631 85.6319C322.828 85.8322 322.828 85.9658 322.959 86.1661C323.221 86.2996 322.762 85.899 323.025 86.0326C323.09 86.1661 323.221 86.2996 323.287 86.3664C323.221 86.2329 323.156 86.0993 323.025 85.9658C323.025 85.899 323.156 86.0326 323.221 86.0993C323.156 85.899 322.893 85.6319 323.025 85.6319C323.221 85.7655 323.287 85.9658 323.287 85.7655C322.959 85.4984 323.418 85.6987 323.287 85.4984C323.418 85.4984 323.615 85.6319 323.746 85.7655C323.484 85.4984 323.353 85.2313 323.353 85.1646L323.418 85.4984L323.09 85.2313C323.221 85.4316 323.156 85.4984 323.025 85.4984Z" fill="#F2F4D1"/>
<path d="M323.877 85.899L323.943 85.9658L324.008 86.0326L323.877 85.899Z" fill="#F2F4D1"/>
<path d="M323.221 86.5668L323.024 86.4332L323.156 86.5668H323.221Z" fill="#F2F4D1"/>
<path d="M321.385 87.7685C321.516 87.8353 321.385 87.635 321.254 87.4347C321.122 87.4347 321.385 87.635 321.385 87.7685Z" fill="#F2F4D1"/>
<path d="M320.335 88.7702C320.466 88.9037 320.401 88.6367 320.532 88.5699C320.401 88.5031 320.335 88.6367 320.335 88.7702Z" fill="#F2F4D1"/>
<path d="M320.203 89.8383C320.203 89.7715 320.203 89.7048 320.138 89.7048L320.006 89.2374C319.809 89.1038 320.072 89.7048 320.203 89.8383Z" fill="#F2F4D1"/>
<path d="M319.547 90.239L319.613 90.0387H319.547C319.482 89.8384 319.482 89.7716 319.482 89.5713C319.416 89.7048 319.416 89.9051 319.547 90.239Z" fill="#F2F4D1"/>
<path d="M319.481 89.4379C319.547 89.5691 319.547 89.5035 319.481 89.4379Z" fill="#F2F4D1"/>
<path d="M319.416 89.5032C319.46 89.5032 319.46 89.5032 319.416 89.5032C319.482 89.4376 319.416 89.372 319.416 89.5032Z" fill="#F2F4D1"/>
<path d="M319.35 90.0389L319.153 90.1725L319.285 90.2393C319.219 89.9054 319.481 90.306 319.35 90.0389Z" fill="#F2F4D1"/>
<path d="M318.301 90.1055L318.235 89.8384C318.104 89.7717 318.104 90.5061 317.907 90.0387C317.973 90.1723 317.907 90.3726 318.038 90.4394C318.038 90.1055 318.17 90.0388 318.301 90.1055Z" fill="#F2F4D1"/>
<path d="M317.776 89.7716C317.776 89.7048 317.71 89.6381 317.71 89.5713C317.645 89.5713 317.645 89.7048 317.71 89.8384C317.579 89.371 317.776 90.0387 317.776 89.7716Z" fill="#F2F4D1"/>
<path d="M317.186 89.9053C317.251 89.9053 317.251 89.8385 317.186 89.7717C317.055 89.8385 317.186 90.1056 317.12 90.3727C317.317 90.5062 317.317 90.0388 317.186 89.9053Z" fill="#F2F4D1"/>
<path d="M316.136 87.8354C316.201 88.1025 316.267 88.0358 316.267 87.969C316.267 87.969 316.201 87.9022 316.136 87.8354Z" fill="#F2F4D1"/>
<path d="M316.332 89.972L316.398 90.0388V89.6382L316.332 89.972Z" fill="#F2F4D1"/>
</g>
<path d="M180 149.13C180 145 336.5 142.5 345 148.5C351.626 150.236 327.025 150.065 298.748 149.998C268.699 149.998 234.276 148.998 224.5 150C205.474 151.87 180 165.537 180 149.13Z" fill="#1B1C1E"/>
<path d="M306.556 124.158C301.11 128.765 297.042 142.253 295.73 146.86C295.468 147.795 294.615 148.462 293.631 148.462H290.088C289.038 148.462 288.185 147.661 288.054 146.593C286.545 132.705 291.072 117.014 291.072 117.014C291.072 117.014 295.337 112.874 301.045 114.143C306.818 115.545 316.135 116.012 306.556 124.158Z" fill="#F2F4D1"/>
<path fill-rule="evenodd" clip-rule="evenodd" d="M290.432 142.708C290.655 142.754 290.801 142.975 290.756 143.203C290.535 144.327 290.502 145.594 290.526 146.591C290.538 147.087 290.564 147.511 290.587 147.811C290.599 147.961 290.61 148.079 290.617 148.16C290.621 148.2 290.624 148.23 290.627 148.251L290.629 148.274L290.63 148.279L290.63 148.28C290.656 148.511 290.494 148.72 290.267 148.747C290.04 148.774 289.835 148.608 289.809 148.377L290.219 148.329C289.809 148.377 289.809 148.378 289.809 148.377L289.808 148.375L289.808 148.367L289.805 148.341C289.802 148.318 289.799 148.285 289.795 148.242C289.786 148.157 289.775 148.033 289.763 147.877C289.739 147.565 289.712 147.125 289.699 146.612C289.674 145.589 289.707 144.251 289.945 143.038C289.99 142.811 290.208 142.663 290.432 142.708Z" fill="#1B1C1E"/>
<path fill-rule="evenodd" clip-rule="evenodd" d="M293.659 143.98C293.882 144.033 294.019 144.26 293.967 144.486C293.844 145.019 293.747 145.909 293.681 146.687C293.649 147.072 293.624 147.421 293.608 147.675C293.6 147.802 293.594 147.904 293.59 147.975L293.585 148.056L293.584 148.077L293.584 148.083C293.584 148.083 293.584 148.083 293.584 148.083C293.572 148.315 293.377 148.494 293.149 148.482C292.921 148.47 292.746 148.272 292.758 148.04L292.759 148.032L292.76 148.01L292.765 147.926C292.769 147.854 292.775 147.749 292.783 147.62C292.8 147.362 292.825 147.007 292.858 146.615C292.923 145.841 293.023 144.894 293.162 144.293C293.215 144.067 293.437 143.927 293.659 143.98Z" fill="#1B1C1E"/>
<mask id="mask2_402_2511" style="mask-type:luminance" maskUnits="userSpaceOnUse" x="287" y="113" width="24" height="36">
<path d="M306.555 124.158C301.109 128.765 297.041 142.253 295.729 146.86C295.467 147.795 294.614 148.462 293.63 148.462H290.087C289.037 148.462 288.184 147.661 288.053 146.593C286.544 132.705 291.071 117.014 291.071 117.014C291.071 117.014 295.336 112.874 301.044 114.143C306.817 115.545 316.134 116.012 306.555 124.158Z" fill="white"/>
</mask>
<g mask="url(#mask2_402_2511)">
<path d="M297.042 117.682V117.481C297.108 117.548 297.108 117.615 297.042 117.682Z" fill="#322015"/>
<path d="M300.322 120.219C300.322 120.219 300.322 120.284 300.257 120.284C300.257 120.219 300.322 120.219 300.322 120.219Z" fill="#322015"/>
<path d="M304.521 120.686C304.587 120.752 304.587 120.686 304.521 120.686V120.752C304.521 120.817 304.521 120.752 304.521 120.686Z" fill="#322015"/>
<path d="M303.603 123.491L303.472 123.624C303.515 123.535 303.559 123.491 303.603 123.491Z" fill="#322015"/>
<path d="M304.719 120.085C304.719 120.152 304.653 120.152 304.653 120.219C304.653 120.174 304.675 120.13 304.719 120.085Z" fill="#322015"/>
<path d="M300.978 118.216V118.281C300.934 118.281 300.934 118.259 300.978 118.216Z" fill="#322015"/>
<path d="M295.664 117.413C295.599 117.413 295.599 117.347 295.599 117.347C295.642 117.303 295.664 117.325 295.664 117.413Z" fill="#322015"/>
<path d="M303.602 119.685C303.143 120.018 303.668 119.818 303.274 120.152C303.34 120.018 303.34 119.885 303.077 120.085C302.881 120.352 303.209 120.152 302.881 120.486L302.946 120.286C302.749 120.419 302.553 120.686 302.487 120.619C302.881 120.085 302.093 120.553 302.093 120.419V120.486C301.962 120.553 301.896 120.553 301.831 120.619L301.896 120.553C301.634 120.753 301.503 120.886 301.503 120.82C301.547 120.686 301.547 120.597 301.503 120.553C301.437 120.486 301.372 120.486 301.437 120.352C301.437 120.486 301.503 120.486 301.568 120.419L301.7 120.018C301.568 120.018 301.568 120.419 301.568 120.085C301.7 119.685 301.765 119.885 301.765 120.018C301.765 120.063 301.787 120.085 301.831 120.085C301.831 120.018 301.896 119.885 301.831 119.818V119.751H301.896C302.028 119.751 302.29 119.751 302.028 120.286C302.159 120.219 302.29 120.018 302.29 119.952C302.159 120.286 302.553 119.751 302.487 120.085C302.815 119.685 302.421 119.685 302.487 119.351C302.29 119.484 302.224 119.418 302.159 119.351C302.028 119.284 302.028 119.084 301.896 119.017C301.765 119.418 301.765 119.751 301.634 119.952C301.372 120.152 301.568 119.685 301.503 119.418C301.372 119.484 301.24 120.018 301.109 120.018V120.286C300.847 120.753 301.109 120.018 300.978 120.085C301.044 119.952 301.109 119.818 301.175 119.885C301.24 119.685 301.24 119.618 301.175 119.551C301.24 119.284 301.306 119.017 301.175 119.084C301.175 119.418 300.978 119.284 300.912 119.418V119.484C300.847 119.351 300.781 119.351 300.715 119.284V119.351C300.715 119.217 300.781 118.817 300.65 118.883C300.584 119.017 300.584 119.484 300.519 119.418C300.453 119.685 300.584 119.751 300.65 119.685C300.519 119.751 300.387 120.152 300.453 120.152C300.322 120.419 300.387 120.018 300.256 120.085C300.322 120.018 300.322 119.885 300.322 119.818C300.191 120.219 300.125 119.751 300.191 119.484L300.256 119.751C300.387 119.418 300.322 119.15 300.387 119.017C300.191 119.551 300.191 118.683 299.994 119.084L300.125 118.817C299.863 118.883 299.797 118.282 299.6 118.082C299.666 118.282 299.469 118.883 299.666 118.683C299.403 118.75 299.469 119.217 299.272 119.484C299.075 119.618 299.338 118.95 299.338 118.75L299.403 118.883C299.403 118.149 298.944 118.883 298.813 118.416C298.747 118.616 298.813 118.55 298.878 118.616C298.682 118.95 298.813 118.549 298.747 118.349C298.616 118.349 298.419 118.483 298.419 118.95C298.288 119.017 298.485 118.683 298.485 118.549L298.419 118.616V118.082C298.288 118.216 298.091 118.416 297.96 118.817C297.697 118.683 298.091 117.815 297.96 117.615C297.829 117.815 297.894 117.949 297.894 118.082L297.763 118.015C297.697 118.483 297.894 118.282 297.763 118.817C297.763 118.216 297.632 118.616 297.501 118.216V118.149C297.501 117.748 297.238 117.949 297.173 117.882C297.173 118.149 297.304 118.149 297.369 118.282C297.238 118.416 296.976 118.216 296.91 117.681C296.845 117.748 296.648 117.949 296.713 118.149C296.451 118.216 296.713 117.414 296.517 117.548L296.451 117.949C296.123 118.416 296.057 117.414 295.795 117.815L295.86 117.348C295.795 117.548 295.664 117.615 295.598 117.815L295.664 118.015C295.532 118.416 295.598 117.615 295.467 117.882C295.467 117.748 295.664 117.414 295.664 117.281C296.057 117.615 296.648 117.081 297.041 117.615C297.041 117.681 296.976 117.748 296.976 117.815C297.041 117.681 297.107 117.882 297.173 117.615V117.548C297.304 117.681 297.501 117.147 297.566 117.147C297.566 117.481 297.829 117.081 297.697 117.615L297.829 117.281C297.829 117.481 297.763 117.748 297.763 117.882C297.829 117.882 297.894 117.615 297.894 117.481C298.288 117.348 298.616 117.481 298.944 117.748V117.481C299.075 117.348 299.141 118.015 299.206 117.348C299.338 117.615 299.731 117.281 299.535 117.949C299.797 117.348 299.994 117.815 300.191 117.949C299.994 118.483 300.322 118.149 300.322 118.416C300.453 118.015 300.256 117.949 300.322 117.615C300.387 118.349 301.109 117.348 300.847 118.483C300.89 118.438 300.912 118.394 300.912 118.349C300.978 118.349 301.109 118.216 301.109 118.149C301.044 118.349 300.978 118.416 301.044 118.483C301.109 118.483 301.175 118.149 301.24 118.015C301.306 118.282 301.568 118.483 301.437 118.95C301.503 118.817 301.634 118.616 301.634 118.549C301.765 119.017 301.896 118.549 302.093 118.883C301.962 118.817 302.224 118.416 302.028 118.549C302.159 118.282 302.29 118.349 302.421 118.416C302.553 118.55 302.684 118.817 302.946 118.75C302.881 118.883 302.881 119.017 302.815 119.15C302.946 119.351 303.209 119.017 303.143 118.817C303.405 118.817 303.471 118.883 303.471 119.017C303.537 119.084 303.537 119.217 303.602 119.284C303.668 119.284 303.668 119.217 303.668 119.15C303.733 119.217 303.799 119.284 303.865 119.351C303.799 119.418 303.733 119.685 303.537 119.818C303.733 119.885 303.799 119.685 303.602 119.685Z" fill="#322015"/>
<path d="M300.781 120.352C300.847 120.286 300.847 120.219 300.912 120.219C300.912 120.286 300.847 120.286 300.781 120.352Z" fill="#322015"/>
<path d="M304.456 122.355C303.931 122.689 304.456 122.155 304.259 122.155C304.259 122.289 303.931 122.489 303.8 122.556C304.39 121.955 303.603 122.556 303.603 122.222C303.406 122.355 303.406 122.489 303.209 122.689C303.275 122.489 303.275 122.222 303.603 121.955C303.472 121.754 303.275 121.754 303.275 121.621C303.209 121.821 302.947 121.955 302.685 122.222C303.013 121.754 303.341 121.087 303.669 120.486C303.275 120.82 303.209 120.82 302.881 121.154C302.488 121.154 303.209 120.82 302.947 120.686H303.078C303.144 120.486 303.472 120.152 303.669 119.952C303.734 120.018 303.8 120.152 303.8 120.219C304.062 120.018 303.931 119.885 303.931 119.751C304.194 119.417 304.259 119.685 304.456 119.417C304.259 119.618 304.456 119.685 304.39 119.818L304.522 119.685C304.784 119.685 304.456 120.018 304.522 120.152C304.587 120.152 304.587 120.085 304.653 120.085C304.522 120.219 304.325 120.419 304.325 120.553V120.486C304.062 120.82 303.997 121.22 303.537 121.354L303.8 121.487C304.194 121.154 304.718 120.686 304.653 120.486L304.784 120.352C305.112 120.285 304.718 120.886 304.325 121.087C303.472 121.888 304.587 121.487 304.325 121.955C304.587 121.754 304.653 121.621 304.784 121.421C304.784 121.354 304.784 121.287 304.522 121.487C304.522 121.154 305.375 120.953 305.046 120.753C304.85 120.753 304.784 121.22 304.587 121.02L305.178 120.352C305.243 120.486 305.243 120.686 305.178 120.82C305.112 121.688 305.768 121.754 305.768 121.754C306.227 122.622 306.621 123.424 307.015 124.292C307.08 124.626 307.146 124.692 306.424 125.226C306.227 125.226 306.227 125.093 305.965 125.293C306.227 125.093 306.359 124.893 306.227 124.826C305.965 124.959 306.162 125.026 306.096 125.026H306.031C305.899 125.093 305.834 125.226 305.834 125.226C305.375 125.293 305.309 125.026 305.703 124.626C305.375 124.692 305.309 124.959 305.178 125.16C304.718 124.893 304.587 124.559 304.325 124.225C304.784 123.891 304.587 123.958 304.85 123.758L304.653 123.824C304.718 123.758 305.046 123.49 305.178 123.557C304.653 123.557 305.637 122.89 305.703 122.556L305.44 122.756C305.375 122.622 305.375 122.556 305.44 122.355C304.85 122.422 305.506 122.622 304.85 122.956L304.915 122.823C304.718 123.023 304.325 123.29 304.194 123.49C304.456 123.023 303.866 123.29 303.997 122.89C303.734 123.09 303.669 123.424 303.669 123.49C303.603 123.424 303.669 123.157 303.472 123.357L303.8 123.09C303.734 122.956 303.472 123.29 303.275 123.424C303.209 123.223 304.39 122.756 304.456 122.355Z" fill="#322015"/>
<path d="M301.7 119.818C301.744 119.818 301.788 119.84 301.831 119.884C301.766 119.884 301.766 119.818 301.7 119.818Z" fill="#322015"/>
<path d="M301.896 120.753C301.853 120.797 301.831 120.842 301.831 120.886C301.765 120.82 301.831 120.82 301.896 120.753Z" fill="#322015"/>
<path d="M301.503 121.22C301.59 121.131 301.678 121.02 301.765 120.886C301.7 120.953 301.765 121.087 301.503 121.22Z" fill="#322015"/>
<path d="M290.941 118.883C290.941 118.75 290.875 118.616 290.875 118.55L291.006 118.683L290.941 118.883Z" fill="#322015"/>
<path d="M291.269 118.483L291.4 118.349L291.465 118.883C291.269 118.883 291.4 118.483 291.269 118.483Z" fill="#322015"/>
<path d="M291.662 118.416V118.817L291.531 118.483L291.662 118.416C291.597 118.282 291.662 118.282 291.662 118.216V118.416Z" fill="#322015"/>
<path d="M292.187 117.748C292.121 117.882 292.187 118.149 292.187 118.283C292.056 118.416 292.056 117.815 291.924 118.015C292.056 118.349 291.859 118.216 291.728 118.483C291.793 118.082 291.859 117.882 292.056 117.748V118.015C292.187 118.015 292.121 117.815 292.187 117.748Z" fill="#322015"/>
<path d="M292.843 118.416L292.778 118.015C292.712 118.216 292.581 118.149 292.515 118.55C292.45 118.483 292.45 118.349 292.45 118.216C292.384 118.416 292.318 118.55 292.318 118.282C292.581 118.015 292.515 117.949 292.778 117.882C292.778 117.837 292.756 117.815 292.712 117.815L292.909 117.615C292.843 118.082 293.04 118.149 292.843 118.416Z" fill="#322015"/>
<path d="M293.106 118.149C292.975 118.082 292.975 117.748 293.04 117.548L293.237 117.882C293.171 117.815 293.106 117.815 293.106 118.149Z" fill="#322015"/>
<path d="M293.303 118.149C293.368 117.949 293.5 117.548 293.565 117.949C293.368 117.882 293.368 118.483 293.303 118.149Z" fill="#322015"/>
<path d="M294.155 117.949L293.892 118.149C293.761 118.616 293.958 118.349 294.024 118.55C293.827 118.616 293.892 118.483 293.761 118.149C293.696 118.149 293.63 117.882 293.564 117.748C293.892 118.216 294.024 117.014 294.155 117.949Z" fill="#322015"/>
<path d="M293.631 118.349V118.149L293.762 118.349H293.631Z" fill="#322015"/>
<path d="M294.811 117.481C295.008 116.947 295.008 117.882 295.205 117.615V117.481L295.336 117.548V117.414C295.271 117.748 295.402 117.949 295.402 118.216C295.205 118.549 295.402 117.748 295.205 118.149V118.683C295.139 118.483 295.139 118.282 295.139 118.082C295.074 118.015 295.074 118.216 295.008 118.349C294.943 118.149 295.008 117.615 294.811 117.748C294.68 118.015 294.811 118.216 294.68 118.082C294.811 117.548 294.483 118.149 294.483 117.815C294.352 117.882 294.221 118.216 294.221 118.416C294.286 118.015 294.221 117.615 294.155 117.481L294.352 117.882L294.483 117.414C294.615 117.548 294.68 117.548 294.811 117.481Z" fill="#322015"/>
<path d="M294.221 118.55L294.286 118.616L294.221 118.75V118.55Z" fill="#322015"/>
<path d="M295.467 118.75L295.598 118.483V118.683L295.467 118.75Z" fill="#322015"/>
<path d="M298.354 119.017C298.223 119.15 298.288 118.817 298.354 118.55C298.485 118.55 298.288 118.883 298.354 119.017Z" fill="#322015"/>
<path d="M299.929 119.885C299.798 120.085 299.798 119.751 299.667 119.685C299.798 119.618 299.929 119.751 299.929 119.885Z" fill="#322015"/>
<path d="M300.322 121.287C300.322 121.154 300.322 121.087 300.388 121.087L300.519 120.486C300.65 120.286 300.388 121.02 300.322 121.287Z" fill="#322015"/>
<path d="M301.044 121.621L300.979 121.354H301.044C301.11 121.087 301.11 121.02 301.11 120.753C301.175 120.953 301.175 121.22 301.044 121.621Z" fill="#322015"/>
<path d="M301.044 120.619C301.088 120.664 301.088 120.664 301.044 120.619C301.044 120.82 301.044 120.753 301.044 120.619Z" fill="#322015"/>
<path d="M301.175 120.753V120.82C301.132 120.775 301.132 120.753 301.175 120.753C301.175 120.619 301.11 120.619 301.175 120.753Z" fill="#322015"/>
<path d="M301.24 121.354V121.421L301.175 121.487C301.24 121.287 301.24 121.354 301.175 121.421C301.175 121.487 301.109 121.554 301.24 121.354Z" fill="#322015"/>
<path d="M301.831 121.487L302.094 121.287C302.225 121.354 301.765 122.022 302.29 121.688C302.093 121.754 302.028 122.022 301.831 121.955C302.093 121.688 301.962 121.554 301.831 121.487Z" fill="#322015"/>
<path d="M302.619 121.554C302.685 121.487 302.75 121.421 302.882 121.421C302.947 121.421 302.882 121.621 302.75 121.688C303.013 121.287 302.422 121.821 302.619 121.554Z" fill="#322015"/>
<path d="M303.013 122.155C303.013 122.088 303.013 122.021 303.078 122.021C303.144 122.155 302.816 122.355 302.619 122.556C302.422 122.622 302.816 122.222 303.013 122.155Z" fill="#322015"/>
<path d="M305.834 121.421C305.571 121.621 305.506 121.487 305.637 121.354C305.571 121.487 305.703 121.487 305.834 121.421Z" fill="#322015"/>
<path d="M303.734 122.956H303.603L303.996 122.689L303.734 122.956Z" fill="#322015"/>
<path d="M303.93 123.824L303.733 124.025V123.891L303.93 123.824Z" fill="#322015"/>
<path d="M304.128 123.891L304.194 124.025H304.063C303.931 124.025 304.128 123.891 304.128 123.891Z" fill="#322015"/>
<path d="M304.259 124.292H304.193L304.325 124.091L304.259 124.292Z" fill="#322015"/>
<path d="M307.08 125.16C307.342 124.959 307.211 125.226 307.342 125.226C307.277 125.226 306.883 125.36 307.08 125.16Z" fill="#322015"/>
</g>
<path d="M193.971 114.209C193.971 114.209 183.473 119.351 181.308 132.037C181.112 133.105 181.046 134.24 181.112 135.375C181.112 136.11 181.636 136.778 182.358 136.911C183.08 137.045 183.998 137.178 184.72 137.312C185.507 137.445 186.295 137.111 186.754 136.444C188.066 134.507 191.215 130.435 196.464 128.231C196.464 128.231 202.041 127.83 203.615 123.758C205.19 119.685 198.957 113.208 197.382 113.208C195.873 113.275 193.971 114.209 193.971 114.209Z" fill="#F2F4D1"/>
<path fill-rule="evenodd" clip-rule="evenodd" d="M183.63 132.249C183.841 132.337 183.943 132.582 183.856 132.797C183.579 133.486 183.356 134.532 183.2 135.432C183.123 135.876 183.064 136.276 183.025 136.565C183.005 136.709 182.99 136.825 182.98 136.905C182.975 136.945 182.972 136.975 182.969 136.996L182.967 137.019L182.966 137.026C182.966 137.026 182.966 137.026 182.966 137.026M183.63 132.249C183.419 132.161 183.177 132.264 183.091 132.479ZM183.091 132.479C182.777 133.259 182.542 134.383 182.386 135.286ZM182.386 135.286C182.307 135.743 182.247 136.153 182.206 136.448ZM182.206 136.448C182.186 136.596 182.171 136.716 182.16 136.799ZM182.16 136.799C182.155 136.84 182.151 136.873 182.149 136.895ZM182.149 136.895L182.146 136.92ZM182.146 136.92L182.145 136.927ZM182.145 136.927L182.145 136.929ZM182.145 136.929L182.145 136.929ZM182.145 136.929C182.145 136.929 182.145 136.929 182.555 136.978Z" fill="#1B1C1E"/>
<path fill-rule="evenodd" clip-rule="evenodd" d="M186.799 132.557C186.952 132.73 186.938 132.996 186.768 133.151C186.191 133.68 185.678 134.714 185.301 135.681C185.117 136.153 184.973 136.59 184.875 136.908C184.826 137.067 184.788 137.196 184.763 137.285C184.751 137.329 184.741 137.364 184.735 137.387L184.728 137.412L184.726 137.418L184.726 137.42C184.667 137.644 184.441 137.778 184.221 137.719C184 137.659 183.868 137.429 183.927 137.204L184.327 137.312C183.927 137.204 183.927 137.204 183.927 137.204L183.928 137.201L183.93 137.193L183.938 137.163C183.945 137.138 183.955 137.1 183.968 137.053C183.995 136.958 184.035 136.822 184.086 136.656C184.189 136.323 184.339 135.867 184.533 135.371C184.91 134.402 185.48 133.199 186.215 132.526C186.385 132.37 186.646 132.384 186.799 132.557Z" fill="#1B1C1E"/>
<mask id="mask3_402_2511" style="mask-type:luminance" maskUnits="userSpaceOnUse" x="181" y="113" width="23" height="25">
<path d="M193.972 114.209C193.972 114.209 183.474 119.351 181.309 132.037C181.112 133.105 181.047 134.24 181.112 135.375C181.112 136.11 181.637 136.778 182.359 136.911C183.081 137.045 183.999 137.178 184.721 137.312C185.508 137.445 186.296 137.111 186.755 136.444C188.067 134.507 191.216 130.435 196.465 128.231C196.465 128.231 202.042 127.83 203.616 123.758C205.191 119.685 198.958 113.208 197.383 113.208C195.874 113.275 193.972 114.209 193.972 114.209Z" fill="white"/>
</mask>
<g mask="url(#mask3_402_2511)">
<path d="M195.546 121.755C195.481 121.755 195.481 121.82 195.415 121.82C195.415 121.755 195.481 121.755 195.546 121.755Z" fill="#322015"/>
<path d="M195.415 117.481H195.612C195.481 117.547 195.415 117.547 195.415 117.481Z" fill="#322015"/>
<path d="M194.497 122.088C194.453 122.133 194.387 122.177 194.3 122.222L194.497 122.088Z" fill="#322015"/>
<path d="M195.809 125.827V125.893C195.744 125.893 195.809 125.827 195.809 125.827Z" fill="#322015"/>
<path d="M195.612 125.694C195.568 125.738 195.568 125.738 195.612 125.694Z" fill="#322015"/>
<path d="M196.268 125.427C196.202 125.427 196.202 125.493 196.137 125.493C196.137 125.493 196.202 125.427 196.268 125.427Z" fill="#322015"/>
<path d="M195.612 121.754H195.547C195.591 121.71 195.612 121.71 195.612 121.754Z" fill="#322015"/>
<path d="M195.547 115.946C195.547 115.879 195.612 115.879 195.612 115.812C195.612 115.879 195.612 115.946 195.547 115.946Z" fill="#322015"/>
<path d="M195.677 124.492C195.153 124.492 195.677 124.626 195.218 124.626C195.349 124.559 195.415 124.492 195.153 124.425C194.89 124.492 195.153 124.559 194.759 124.626L194.89 124.492C194.693 124.425 194.365 124.559 194.365 124.492C194.956 124.359 194.168 124.158 194.234 124.025L194.168 124.092L193.906 123.891H194.037C193.775 123.825 193.578 123.691 193.644 123.557C193.972 123.491 193.775 123.09 194.037 123.023C193.972 123.09 193.972 123.157 194.037 123.224H194.431C194.431 123.09 194.103 123.224 194.3 123.09C194.825 123.09 194.3 123.29 194.365 123.357C194.496 123.29 194.562 123.29 194.628 123.224C194.628 123.424 194.825 123.624 194.3 123.758C194.431 123.825 194.628 123.758 194.693 123.758C194.365 123.891 195.021 123.825 194.693 123.958C195.153 123.891 194.956 123.691 195.218 123.557C194.825 123.357 195.218 123.157 195.284 122.957C194.956 122.957 194.628 123.09 194.431 123.023C194.168 122.823 194.628 122.823 194.825 122.689C194.693 122.556 194.234 122.689 194.234 122.489L193.972 122.623C193.447 122.489 194.168 122.489 194.037 122.422C194.168 122.422 194.3 122.422 194.3 122.556C194.496 122.556 194.562 122.489 194.562 122.422C194.825 122.356 195.087 122.356 194.956 122.222C194.628 122.289 194.759 122.088 194.562 122.088L194.496 122.155C194.628 122.022 194.562 121.955 194.628 121.888H194.562C194.693 121.821 195.087 121.755 194.956 121.688C194.825 121.688 194.431 121.821 194.496 121.688C194.3 121.688 194.234 121.821 194.365 121.955C194.3 121.821 193.906 121.755 193.906 121.955C193.644 121.888 194.037 121.821 193.906 121.755H194.168C193.775 121.755 194.168 121.488 194.431 121.488L194.234 121.621C194.562 121.621 194.759 121.488 194.89 121.554C194.431 121.488 195.153 121.22 194.693 121.154L194.956 121.22C194.825 120.953 195.349 120.753 195.481 120.486C195.349 120.553 194.825 120.553 194.956 120.753C194.825 120.486 194.431 120.686 194.168 120.553C193.972 120.352 194.693 120.486 194.825 120.419H194.693C195.284 120.286 194.562 119.885 194.956 119.618C194.825 119.618 194.89 119.685 194.825 119.685C194.496 119.551 194.89 119.551 195.021 119.484C194.956 119.351 194.825 119.217 194.431 119.284C194.365 119.151 194.693 119.284 194.759 119.217H194.693L195.153 119.084C195.021 118.95 194.825 118.817 194.431 118.75C194.496 118.483 195.284 118.683 195.481 118.483C195.284 118.349 195.153 118.483 195.021 118.483L195.087 118.283C194.628 118.349 194.89 118.483 194.365 118.483C194.89 118.349 194.496 118.283 194.89 118.082H194.956C195.284 118.016 195.087 117.815 195.153 117.682C194.956 117.748 194.89 117.882 194.825 117.949C194.693 117.815 194.825 117.481 195.284 117.348C195.218 117.281 195.021 117.081 194.825 117.214C194.759 116.947 195.481 117.148 195.349 116.88H195.021C194.562 116.613 195.481 116.413 195.087 116.146H195.481C195.284 116.079 195.218 115.946 195.087 115.946L194.956 116.079C194.628 115.946 195.284 116.012 195.087 115.812C195.218 115.812 195.481 115.946 195.612 115.946C195.349 116.48 195.874 117.014 195.415 117.481C195.349 117.481 195.284 117.415 195.218 117.415C195.284 117.481 195.218 117.548 195.415 117.548C195.284 117.682 195.809 117.815 195.809 117.949C195.546 118.016 195.94 118.216 195.415 118.149L195.743 118.283C195.546 118.283 195.349 118.283 195.218 118.349C195.284 118.416 195.415 118.483 195.546 118.416C195.743 118.817 195.677 119.217 195.481 119.551L195.743 119.484C195.874 119.551 195.349 119.818 195.94 119.752C195.677 119.952 196.071 120.219 195.481 120.219C196.071 120.352 195.743 120.686 195.612 120.887C195.087 120.82 195.481 121.087 195.218 121.154C195.612 121.22 195.612 120.953 195.874 120.953C195.218 121.22 196.334 121.688 195.284 121.755H195.415C195.415 121.821 195.612 121.888 195.612 121.955C195.415 121.955 195.349 121.888 195.284 122.022C195.349 122.088 195.612 122.088 195.743 122.088C195.481 122.289 195.415 122.556 195.021 122.623C195.153 122.689 195.349 122.756 195.415 122.689C195.087 122.956 195.481 122.957 195.284 123.29C195.284 123.157 195.743 123.224 195.546 123.09C196.137 123.224 195.415 123.557 195.743 123.758L195.349 123.891C195.284 124.025 195.612 124.025 195.743 123.958C196.005 124.225 195.743 124.292 195.743 124.492H195.874V124.759C195.809 124.759 195.612 124.893 195.349 124.893C195.677 124.693 195.809 124.626 195.677 124.492Z" fill="#322015"/>
<path d="M193.841 122.289C193.906 122.289 193.972 122.354 193.972 122.354C193.906 122.354 193.841 122.354 193.841 122.289Z" fill="#322015"/>
<path d="M194.956 127.229C194.366 127.229 195.022 127.029 194.891 126.962C194.825 127.096 194.497 127.096 194.3 127.096C195.022 126.896 194.169 126.962 194.3 126.695C194.038 126.695 194.038 126.829 193.775 126.896C193.972 126.762 194.038 126.495 194.431 126.495C194.431 126.228 194.3 126.094 194.3 125.961C194.169 126.161 193.907 126.028 193.578 126.161C194.038 125.961 194.628 125.56 195.153 125.293H194.235C193.907 125.026 194.628 125.226 194.497 124.959L194.563 125.093C194.694 124.959 195.087 124.959 195.416 124.892L195.35 125.226C195.678 125.226 195.612 125.026 195.678 124.959C196.072 124.826 195.94 125.093 196.268 125.093C196.006 125.16 196.137 125.293 196.006 125.36H196.203C196.4 125.493 195.94 125.627 196.006 125.76H196.137C195.94 125.827 195.744 125.894 195.678 125.961V125.894C195.284 126.028 195.022 126.295 194.628 126.161L194.759 126.495C195.219 126.428 195.875 126.361 195.875 126.161H196.072C196.334 126.295 195.744 126.562 195.35 126.495C194.3 126.695 195.35 126.962 194.891 127.229C195.153 127.229 195.284 127.096 195.481 127.029C195.481 126.962 195.481 126.896 195.284 126.896C195.416 126.562 196.203 126.896 196.072 126.562C195.94 126.428 195.612 126.762 195.547 126.562L196.334 126.361C196.334 126.495 196.203 126.628 196.137 126.762C195.678 127.496 196.137 127.897 196.137 127.897C196.137 128.364 196.137 128.899 196.203 129.366C196.203 129.833 196.268 130.301 196.334 130.635C196.268 130.835 196.268 130.768 195.809 131.369C195.612 131.436 195.547 131.236 195.416 131.436C195.612 131.236 195.744 131.102 195.678 130.969C195.416 131.035 195.612 131.169 195.547 131.169C195.416 131.236 195.35 131.302 195.35 131.369C194.825 131.369 194.825 130.902 195.284 130.635C194.956 130.568 194.891 130.835 194.694 131.035C194.3 130.501 194.3 130.101 194.169 129.566C194.694 129.5 194.497 129.433 194.825 129.366H194.628C194.694 129.366 195.022 129.232 195.153 129.366C194.759 129.099 195.744 128.899 195.94 128.698L195.678 128.765C195.678 128.632 195.722 128.498 195.809 128.364C195.284 128.164 195.744 128.632 195.087 128.632L195.153 128.565C194.891 128.632 194.497 128.698 194.3 128.832C194.694 128.498 194.103 128.431 194.366 128.164C194.103 128.231 193.907 128.498 193.841 128.565C193.775 128.498 193.972 128.298 193.71 128.298L194.038 128.231C194.038 128.031 193.71 128.298 193.447 128.231C193.578 127.363 194.759 127.63 194.956 127.229Z" fill="#322015"/>
<path d="M194.563 123.09V123.223C194.519 123.179 194.519 123.134 194.563 123.09Z" fill="#322015"/>
<path d="M193.382 124.025C193.579 124.025 193.579 123.958 193.775 123.958C193.644 124.025 193.644 124.158 193.382 124.025Z" fill="#322015"/>
<path d="M194.825 113.074C194.891 112.941 195.219 112.941 195.416 113.008L195.088 113.275C195.153 113.208 195.153 113.141 194.825 113.074Z" fill="#322015"/>
<path d="M194.825 113.275C195.022 113.341 195.35 113.475 195.022 113.542C195.087 113.408 194.563 113.408 194.825 113.275Z" fill="#322015"/>
<path d="M195.022 114.343L194.825 114.076C194.366 113.942 194.694 114.209 194.497 114.209C194.431 113.942 194.562 114.076 194.891 113.942C194.891 113.876 195.087 113.809 195.219 113.742C194.759 114.009 195.809 114.143 195.022 114.343Z" fill="#322015"/>
<path d="M194.628 113.742H194.825L194.628 113.808V113.742Z" fill="#322015"/>
<path d="M195.416 115.011C195.941 115.211 195.088 115.278 195.285 115.478H195.416L195.35 115.612H195.482C195.154 115.545 195.022 115.745 194.76 115.745C194.432 115.545 195.154 115.678 194.825 115.545C194.694 115.545 194.497 115.545 194.366 115.612C194.563 115.545 194.694 115.545 194.891 115.478C194.957 115.411 194.76 115.411 194.629 115.345C194.825 115.278 195.285 115.278 195.219 115.077C194.957 114.944 194.76 115.077 194.891 114.944C195.35 115.077 194.825 114.744 195.154 114.677C195.088 114.543 194.76 114.41 194.629 114.41C195.022 114.477 195.35 114.343 195.482 114.276L195.154 114.477L195.613 114.61C195.285 114.744 195.35 114.877 195.416 115.011Z" fill="#322015"/>
<path d="M194.365 115.545C194.365 115.545 194.3 115.545 194.3 115.611L194.365 115.545Z" fill="#322015"/>
<path d="M194.497 114.41L194.366 114.476L194.234 114.41H194.497Z" fill="#322015"/>
<path d="M194.038 115.678C194.038 115.612 194.169 115.678 194.169 115.678H194.038Z" fill="#322015"/>
<path d="M194.3 115.812L194.562 115.946H194.365L194.3 115.812Z" fill="#322015"/>
<path d="M194.366 119.149C194.235 119.018 194.497 119.083 194.76 119.083C194.825 119.215 194.497 119.018 194.366 119.149Z" fill="#322015"/>
<path d="M193.972 121.22C193.775 121.087 194.103 121.02 194.038 120.886C194.169 120.953 194.103 121.087 193.972 121.22Z" fill="#322015"/>
<path d="M192.856 122.088C192.988 122.088 192.988 122.021 193.053 122.088L193.578 121.955C193.841 122.088 193.119 122.088 192.856 122.088Z" fill="#322015"/>
<path d="M192.791 123.09L192.988 122.956V123.023C193.185 122.956 193.316 122.956 193.513 122.89C193.447 122.956 193.185 123.09 192.791 123.09Z" fill="#322015"/>
<path d="M193.644 122.689C193.644 122.733 193.644 122.733 193.644 122.689C193.513 122.755 193.447 122.755 193.644 122.689Z" fill="#322015"/>
<path d="M193.579 122.822C193.71 122.822 193.645 122.757 193.579 122.822Z" fill="#322015"/>
<path d="M193.12 123.224L193.054 123.491L192.923 123.357C193.251 123.357 192.726 123.224 193.12 123.224Z" fill="#322015"/>
<path d="M193.381 124.692H193.709C193.775 124.893 193.053 125.093 193.644 125.226C193.447 125.16 193.25 125.36 193.185 125.16C193.447 125.093 193.513 124.826 193.381 124.692Z" fill="#322015"/>
<path d="M193.906 125.293H194.168C194.234 125.36 194.037 125.427 193.906 125.427C194.365 125.36 193.644 125.427 193.906 125.293Z" fill="#322015"/>
<path d="M193.906 126.161C193.906 126.094 193.906 126.028 194.037 126.094C194.037 126.228 193.644 126.228 193.447 126.295C193.25 126.228 193.775 126.028 193.906 126.161Z" fill="#322015"/>
<path d="M196.464 127.163C196.202 127.163 196.202 127.029 196.333 127.029C196.268 127.096 196.333 127.163 196.464 127.163Z" fill="#322015"/>
<path d="M194.104 127.43L194.038 127.363L194.432 127.296L194.104 127.43Z" fill="#322015"/>
<path d="M193.972 128.365L193.71 128.498V128.365H193.972Z" fill="#322015"/>
<path d="M194.037 128.565V128.699L193.906 128.632C193.84 128.565 194.037 128.565 194.037 128.565Z" fill="#322015"/>
<path d="M194.037 129.032L193.972 128.966L194.169 128.765L194.037 129.032Z" fill="#322015"/>
<path d="M196.269 130.635C196.465 130.435 196.4 130.568 196.465 130.501C196.4 130.568 196.137 130.835 196.269 130.635Z" fill="#322015"/>
</g>
<path d="M195.218 37.2239C193.578 38.7596 191.544 41.6307 191.675 46.3713C191.675 46.3713 206.174 36.9568 199.81 35.8217C198.17 35.4879 196.464 36.0888 195.218 37.2239Z" fill="#1B1B1B"/>
<path d="M215.426 69.2067C215.426 69.2067 213.917 81.8929 226.054 85.365C238.192 88.837 286.283 83.3619 302.095 82.3603C315.085 81.4923 322.893 88.9038 322.171 101.79C321.843 108.401 321.908 113.141 322.236 116.48C322.761 122.489 327.42 135.509 329.519 139.449C330.569 141.452 330.175 143.855 328.666 145.458L327.944 146.126C326.829 147.194 325.189 147.394 323.877 146.526C320.531 144.256 313.904 138.38 306.556 124.292C306.425 124.025 306.228 123.691 306.097 123.357C304.719 120.686 303.472 119.418 303.472 119.418C303.472 119.418 299.733 117.682 290.876 117.548C283.987 117.481 274.08 118.349 260.368 121.821C239.307 127.163 218.312 127.363 213.785 124.759C213.785 124.759 210.636 132.104 210.636 146.526C210.636 147.795 209.652 148.796 208.406 148.863L205.256 148.997C204.272 149.063 203.354 148.462 202.894 147.594C202.632 147.06 202.304 146.326 201.91 145.458C200.467 142.186 198.433 136.711 196.53 128.699C195.612 124.759 194.759 120.219 193.972 115.078C193.906 114.61 193.84 114.21 193.775 113.742C190.757 90.7065 193.512 69.5405 193.512 69.5405C193.512 69.5405 169.368 77.7532 163.66 60.5933C163.07 58.8573 164.251 56.9878 166.022 56.8542H166.941C171.205 56.9878 183.54 57.789 188.264 48.5748C191.741 41.8978 197.58 34.0857 204.928 35.0873C205.256 35.154 205.519 35.1541 205.847 35.2208C206.109 35.2876 215.229 47.1059 215.426 69.2067Z" fill="#F2F4D1"/>
<path fill-rule="evenodd" clip-rule="evenodd" d="M193.872 114.002C194.093 113.945 194.318 114.082 194.373 114.308C194.411 114.463 194.43 114.597 194.446 114.712C194.446 114.714 194.447 114.716 194.447 114.718C194.463 114.836 194.477 114.932 194.504 115.042C194.507 115.056 194.51 115.069 194.512 115.083C195.232 120.012 196.083 124.408 196.934 128.204C196.985 128.431 196.845 128.656 196.623 128.708C196.4 128.76 196.179 128.618 196.128 128.392C195.274 124.581 194.42 120.17 193.697 115.226C193.663 115.08 193.645 114.952 193.629 114.842L193.628 114.837C193.612 114.719 193.598 114.622 193.571 114.512C193.516 114.287 193.65 114.058 193.872 114.002Z" fill="#1B1C1E"/>
<path d="M206.109 35.2876C206.109 35.2876 204.141 35.2876 205.059 39.828C205.781 43.6339 207.093 47.64 204.797 58.2564C202.172 70.3418 208.208 73.1461 214.9 70.1415C221.658 67.1368 220.477 60.4598 219.165 53.9832C217.853 47.5065 212.145 34.6867 206.109 35.2876Z" fill="#1B1B1B"/>
<path d="M163.004 58.7239C162.938 57.6556 163.791 56.7208 164.841 56.654C166.35 56.5873 168.712 56.5205 169.958 56.3869C171.861 56.1866 172.779 58.991 170.024 62.1291C167.268 65.2673 164.513 63.8652 163.397 60.4599C163.135 59.7922 163.069 59.2581 163.004 58.7239Z" fill="#1B1B1B"/>
<path fill-rule="evenodd" clip-rule="evenodd" d="M189.738 62.3105C189.966 62.3283 190.136 62.5305 190.119 62.7621C189.782 67.2201 187.984 69.5462 186.212 70.7422C185.335 71.3342 184.48 71.6388 183.844 71.7958C183.525 71.8744 183.26 71.9163 183.072 71.9386C182.978 71.9498 182.903 71.9561 182.85 71.9596C182.824 71.9614 182.803 71.9625 182.788 71.9631L182.77 71.9638L182.764 71.964L182.762 71.964L182.761 71.964C182.761 71.964 182.761 71.964 182.752 71.5435L182.761 71.964C182.533 71.9689 182.344 71.7845 182.339 71.5522C182.334 71.3203 182.515 71.1283 182.743 71.123C182.743 71.1229 182.743 71.1229 182.743 71.1229L182.743 71.1229C182.743 71.1229 182.743 71.1229 182.744 71.1229L182.744 71.1229L182.753 71.1226C182.762 71.1222 182.776 71.1215 182.796 71.1201C182.836 71.1175 182.897 71.1124 182.976 71.103C183.135 71.0841 183.367 71.0478 183.649 70.9782C184.214 70.8389 184.975 70.5676 185.755 70.0412C187.296 69.0005 188.975 66.9197 189.295 62.6976C189.312 62.466 189.511 62.2926 189.738 62.3105Z" fill="#1B1C1E"/>
<path fill-rule="evenodd" clip-rule="evenodd" d="M188.196 62.0738C188.335 61.8893 188.594 61.8541 188.776 61.9952L188.525 62.3294C188.776 61.9952 188.776 61.9951 188.776 61.9951L188.775 61.9949L188.775 61.9947L188.775 61.9944C188.775 61.9944 188.775 61.9945 188.775 61.9949L188.781 61.9991C188.787 62.0034 188.797 62.0106 188.81 62.02C188.837 62.0389 188.878 62.067 188.932 62.1004C189.041 62.1675 189.197 62.2543 189.385 62.3316C189.767 62.4887 190.242 62.5907 190.71 62.4582C190.93 62.396 191.158 62.5271 191.219 62.7509C191.28 62.9748 191.152 63.2066 190.932 63.2688C190.219 63.4702 189.546 63.3051 189.075 63.1117C188.837 63.0137 188.64 62.9044 188.503 62.8191C188.434 62.7764 188.379 62.7393 188.34 62.712C188.32 62.6984 188.305 62.6872 188.294 62.6789L188.281 62.6688L188.276 62.6655L188.275 62.6644L188.274 62.6639L188.274 62.6637C188.274 62.6636 188.274 62.6635 188.525 62.3294L188.274 62.6635C188.092 62.5224 188.058 62.2584 188.196 62.0738Z" fill="#1B1C1E"/>
<path d="M193.446 54.1167C193.315 55.0515 192.593 55.786 191.937 55.6524C191.281 55.5189 190.953 54.7177 191.084 53.7161C191.215 52.7813 191.871 52.0469 192.528 52.1804C193.184 52.3139 193.577 53.1819 193.446 54.1167Z" fill="#1B1C1E"/>
<path fill-rule="evenodd" clip-rule="evenodd" d="M217.803 118.249C217.803 118.249 217.803 118.249 217.803 118.249L217.801 118.251L217.797 118.257L217.78 118.284C217.765 118.307 217.742 118.343 217.712 118.389C217.652 118.483 217.565 118.621 217.456 118.798C217.236 119.152 216.927 119.663 216.569 120.289C215.852 121.541 214.942 123.245 214.163 125.061C214.072 125.274 213.828 125.371 213.619 125.278C213.41 125.185 213.314 124.937 213.406 124.725C214.202 122.868 215.128 121.134 215.855 119.865C216.219 119.23 216.533 118.711 216.756 118.349C216.868 118.169 216.957 118.028 217.019 117.931C217.049 117.883 217.073 117.846 217.089 117.821L217.108 117.792L217.113 117.785L217.115 117.782C217.115 117.782 217.115 117.782 217.459 118.015L217.115 117.782C217.241 117.589 217.498 117.537 217.688 117.665C217.878 117.794 217.929 118.055 217.803 118.249Z" fill="#1B1C1E"/>
<path fill-rule="evenodd" clip-rule="evenodd" d="M299.464 111.342C299.68 111.265 299.916 111.38 299.992 111.599C300.768 113.837 301.739 115.749 302.517 117.102C302.906 117.777 303.246 118.312 303.488 118.677C303.608 118.86 303.705 119 303.77 119.093C303.803 119.14 303.828 119.175 303.845 119.199L303.864 119.224L303.868 119.23L303.869 119.232C303.869 119.232 303.869 119.232 303.869 119.232C303.869 119.232 303.869 119.232 303.538 119.484L303.208 119.737C303.345 119.922 303.604 119.96 303.786 119.821C303.969 119.681 304.006 119.418 303.869 119.232M303.538 119.484C303.208 119.737 303.208 119.737 303.208 119.737L303.205 119.733L303.2 119.725L303.178 119.696C303.159 119.67 303.132 119.632 303.097 119.582C303.028 119.483 302.927 119.337 302.802 119.148C302.552 118.77 302.203 118.22 301.804 117.527C301.007 116.142 300.01 114.181 299.212 111.879C299.136 111.66 299.249 111.42 299.464 111.342" fill="#1B1C1E"/>
<path d="M216.737 77.4859C212.931 79.4222 209.192 80.5573 205.977 81.225C200.466 82.3601 196.529 82.093 196.529 82.093C197.12 81.3586 197.513 80.357 197.579 79.2219C197.579 78.621 197.513 78.0869 197.317 77.5527C197.317 77.5527 208.404 76.7515 215.49 73.413C215.753 74.6148 216.146 76.017 216.737 77.4859Z" fill="#5E6073"/>
<path fill-rule="evenodd" clip-rule="evenodd" d="M208.184 142.567C208.412 142.554 208.607 142.732 208.62 142.964C208.653 143.574 208.686 145.053 208.711 146.368C208.723 147.028 208.733 147.65 208.741 148.107C208.744 148.336 208.747 148.523 208.749 148.654L208.752 148.857L208.339 148.863L207.925 148.869L207.922 148.666C207.92 148.536 207.918 148.349 207.914 148.121C207.907 147.664 207.897 147.043 207.884 146.384C207.86 145.062 207.827 143.602 207.795 143.011C207.782 142.779 207.956 142.58 208.184 142.567ZM208.344 149.284C208.116 149.287 207.928 149.101 207.925 148.869L208.339 148.863L208.752 148.857C208.755 149.089 208.573 149.28 208.344 149.284Z" fill="#1B1C1E"/>
<path fill-rule="evenodd" clip-rule="evenodd" d="M323.859 143.479C324.027 143.322 324.288 143.333 324.443 143.504C325.139 144.277 325.985 144.977 326.663 145.487C327.001 145.741 327.295 145.945 327.503 146.086C327.608 146.156 327.69 146.211 327.747 146.247C327.775 146.265 327.797 146.279 327.811 146.288L327.827 146.298L327.83 146.301L327.831 146.301C327.831 146.301 327.831 146.301 327.615 146.66L327.399 147.018C327.594 147.14 327.848 147.078 327.968 146.88C328.087 146.682 328.026 146.423 327.831 146.301M327.615 146.66C327.399 147.018 327.399 147.018 327.399 147.018L327.397 147.017L327.392 147.014L327.373 147.002C327.357 146.992 327.333 146.977 327.303 146.957C327.243 146.918 327.155 146.861 327.046 146.787C326.828 146.64 326.523 146.427 326.172 146.164C325.473 145.638 324.58 144.902 323.833 144.073C323.679 143.902 323.69 143.636 323.859 143.479" fill="#1B1C1E"/>
<path fill-rule="evenodd" clip-rule="evenodd" d="M326.727 142.039C326.915 141.908 327.172 141.957 327.301 142.149C327.716 142.765 328.262 143.454 328.711 143.993C328.934 144.261 329.131 144.49 329.272 144.652C329.342 144.733 329.398 144.797 329.437 144.841L329.481 144.891L329.492 144.903L329.496 144.907C329.496 144.907 329.496 144.907 329.496 144.907" fill="#1B1C1E"/>
<path fill-rule="evenodd" clip-rule="evenodd" d="M204.159 143.584C204.379 143.521 204.608 143.651 204.67 143.875C205.094 145.404 205.453 146.567 205.723 147.406C205.839 147.768 205.941 148.077 206.024 148.329C206.13 148.649 206.206 148.879 206.244 149.015C206.307 149.238 206.179 149.471 205.96 149.535C205.74 149.599 205.512 149.469 205.449 149.246C205.415 149.125 205.349 148.926 205.253 148.634C205.17 148.384 205.065 148.065 204.937 147.667C204.665 146.819 204.302 145.645 203.874 144.103C203.812 143.88 203.94 143.647 204.159 143.584Z" fill="#1B1C1E"/>
<path d="M198.039 79.7562C197.973 82.3602 196.202 84.3633 194.168 84.2965C193.446 84.2965 192.79 83.9627 192.199 83.5621C191.15 82.6941 190.494 81.2251 190.559 79.5559C190.625 76.9519 192.396 74.9488 194.43 75.0155C195.677 75.0823 196.726 75.8168 197.382 77.0186C197.842 77.7531 198.104 78.7547 198.039 79.7562Z" fill="#89A3B2"/>
<path fill-rule="evenodd" clip-rule="evenodd" d="M197.24 76.5885C197.437 76.4714 197.69 76.5392 197.805 76.7399C198.311 77.6223 198.517 78.6357 198.517 79.7562L198.517 79.767C198.448 82.5235 196.557 84.7893 194.226 84.7172C193.383 84.7151 192.645 84.3256 192.036 83.9121C191.846 83.7832 191.794 83.522 191.921 83.3287C192.048 83.1354 192.304 83.0832 192.494 83.2121C193.064 83.5987 193.636 83.8759 194.233 83.8759C194.238 83.8759 194.242 83.876 194.247 83.8761C195.98 83.933 197.627 82.1969 197.691 79.7508C197.69 78.737 197.503 77.8826 197.091 77.1638C196.976 76.9631 197.043 76.7056 197.24 76.5885Z" fill="#1B1C1E"/>
<mask id="mask4_402_2511" style="mask-type:luminance" maskUnits="userSpaceOnUse" x="193" y="63" width="9" height="12">
<path d="M199.285 73.3463C196.005 76.2174 193.184 74.2143 193.184 74.2143C193.446 71.2764 193.643 69.6072 193.643 69.6072C193.643 69.6072 196.792 68.8059 199.744 65.601L201.385 63.3308C201.45 63.3308 202.566 70.4752 199.285 73.3463Z" fill="white"/>
</mask>
<g mask="url(#mask4_402_2511)">
<path d="M196.858 68.205C196.858 68.2495 196.88 68.294 196.924 68.3385C196.924 68.3385 196.924 68.2717 196.858 68.205Z" fill="#322015"/>
<path d="M198.892 66.469L198.761 66.3354C198.761 66.4022 198.826 66.469 198.892 66.469Z" fill="#322015"/>
<path d="M197.317 69.1399C197.317 69.2067 197.317 69.2734 197.383 69.3402L197.317 69.1399Z" fill="#322015"/>
<path d="M194.365 71.6771L194.431 71.8107C194.431 71.8107 194.431 71.7439 194.365 71.6771Z" fill="#322015"/>
<path d="M194.759 69.0062C194.759 69.0507 194.781 69.0952 194.824 69.1398C194.759 69.073 194.824 69.0062 194.759 69.0062Z" fill="#322015"/>
<path d="M199.416 65.5999V65.5343C199.351 65.5343 199.351 65.5999 199.416 65.5999Z" fill="#322015"/>
<path d="M195.479 69.1399C195.742 69.5405 195.414 69.2067 195.611 69.5405C195.611 69.407 195.611 69.3402 195.742 69.5405C195.807 69.7408 195.611 69.5405 195.807 69.8744V69.7408C195.939 69.8744 196.004 70.1414 196.07 70.1414C195.873 69.674 196.398 70.2082 196.398 70.0747V70.1414L196.595 70.275C196.595 70.275 196.595 70.2082 196.529 70.2082C196.726 70.4085 196.857 70.4753 196.923 70.4085C196.792 70.1414 197.12 70.1414 197.054 69.9411C197.054 70.0079 197.054 70.0747 196.923 70.0079L196.726 69.7408C196.792 69.674 196.923 70.0079 196.857 69.8076C196.595 69.407 196.726 69.8744 196.66 69.8744C196.595 69.7408 196.595 69.674 196.595 69.6073C196.464 69.674 196.267 69.6073 196.464 70.0079C196.398 69.9411 196.267 69.7408 196.267 69.7408C196.332 70.0079 196.07 69.5405 196.135 69.8076C195.939 69.407 196.136 69.5405 196.07 69.2734C196.332 69.4737 196.267 69.1399 196.332 69.0063C196.529 69.2734 196.595 69.5405 196.726 69.674C196.923 69.7408 196.726 69.4737 196.66 69.2734C196.792 69.3402 196.988 69.674 197.12 69.6073L197.185 69.8076C197.513 70.1414 197.12 69.6073 197.251 69.674C197.185 69.6073 197.12 69.4737 197.054 69.5405C196.923 69.407 196.923 69.3402 196.988 69.2734C196.857 69.0731 196.726 68.8728 196.857 68.9396C196.988 69.2067 197.054 69.0731 197.12 69.1399V69.2067C197.12 69.0731 197.185 69.0731 197.185 69.0063L197.251 69.0731C197.251 68.9396 197.054 68.6725 197.12 68.6725C197.185 68.806 197.382 69.1399 197.382 69.0063C197.513 69.1399 197.448 69.2734 197.316 69.2067C197.448 69.2067 197.644 69.4737 197.579 69.5405C197.776 69.7408 197.579 69.407 197.71 69.4737C197.645 69.407 197.579 69.3402 197.579 69.2734C197.776 69.5405 197.71 69.2067 197.579 69.0063L197.644 69.2067C197.448 69.0063 197.448 68.806 197.316 68.6725C197.644 69.0063 197.382 68.3386 197.644 68.6057L197.448 68.4722C197.644 68.4722 197.448 68.0048 197.448 67.8045C197.513 67.938 197.841 68.2719 197.644 68.2719C197.841 68.2051 198.038 68.6057 198.235 68.7393C198.432 68.7393 197.973 68.3386 197.907 68.2051V68.3386C197.579 67.8713 198.235 68.2051 198.104 67.8045C198.235 67.8713 198.169 67.8713 198.169 67.938C198.432 68.0716 198.169 67.8713 198.104 67.7377C198.169 67.7377 198.366 67.7377 198.563 68.0048C198.694 68.0048 198.432 67.8713 198.366 67.7377L198.432 67.8045L198.235 67.4706C198.366 67.4706 198.563 67.5374 198.825 67.7377C198.891 67.5374 198.301 67.2036 198.235 67.0033C198.432 67.07 198.432 67.2036 198.497 67.2703L198.563 67.1368C198.825 67.4039 198.629 67.4039 198.957 67.6709C198.694 67.2703 198.957 67.4706 198.825 67.2036H198.76C198.563 66.9365 198.825 67.0033 198.825 66.8697C198.957 67.0033 198.891 67.07 198.957 67.2036C199.153 67.2036 199.153 66.9365 198.891 66.6694C198.957 66.6694 199.153 66.6694 199.219 66.8029C199.35 66.6694 198.825 66.4023 198.957 66.3356L199.219 66.5359C199.678 66.6694 199.088 66.0017 199.482 66.1352L199.153 65.9349C199.285 66.0017 199.416 66.0017 199.547 66.0685L199.613 66.202C199.941 66.3356 199.416 66.0017 199.613 66.0017C199.547 65.9349 199.285 65.8682 199.153 65.8014C199.153 66.202 198.497 66.1352 198.629 66.6694C198.694 66.6694 198.694 66.7362 198.76 66.7362C198.694 66.7362 198.694 66.8029 198.563 66.6694C198.563 66.8029 198.169 66.5359 198.169 66.6026C198.366 66.8029 197.973 66.6694 198.366 66.9365L198.104 66.8029L198.432 67.1368C198.366 67.1368 198.235 67.07 198.169 66.9365C197.907 67.0032 197.776 67.2703 197.71 67.5374L197.579 67.3371C197.448 67.3371 197.71 67.7377 197.382 67.3371C197.448 67.5374 197.054 67.4706 197.448 67.8045C197.054 67.4706 197.12 67.8045 197.054 68.0048C197.382 68.3386 197.054 68.2051 197.185 68.4054C196.923 68.1383 197.054 68.0048 196.857 67.8713C197.12 68.4054 196.267 67.8713 196.792 68.6057C196.726 68.6057 196.726 68.539 196.726 68.539C196.726 68.539 196.595 68.4722 196.529 68.4722C196.595 68.6057 196.726 68.6057 196.726 68.7393C196.66 68.7393 196.529 68.539 196.464 68.4722C196.529 68.6725 196.398 68.8728 196.66 69.2067C196.595 69.1399 196.398 69.0063 196.398 68.9396C196.464 69.2734 196.201 69.0063 196.201 69.2734C196.267 69.2067 196.004 68.9396 196.135 69.0063C195.807 68.6057 195.939 69.2067 195.676 69.0731L195.807 69.407C195.742 69.4737 195.611 69.2067 195.545 69.0731C195.348 69.0063 195.348 69.2067 195.283 69.2734C195.283 69.2734 195.217 69.2067 195.283 69.2067L195.151 69.2734C195.151 69.3402 195.217 69.5405 195.348 69.7408C195.414 69.2067 195.348 69.0731 195.479 69.1399Z" fill="#322015"/>
<path d="M197.579 69.6728C197.514 69.6072 197.448 69.6072 197.448 69.6072C197.514 69.6072 197.514 69.6728 197.579 69.6728Z" fill="#322015"/>
<path d="M194.299 70.6088C194.496 71.0762 194.365 70.4753 194.496 70.6088C194.43 70.6756 194.561 71.0094 194.627 71.143C194.496 70.4753 194.758 71.2098 194.889 71.0094C194.955 71.2098 194.889 71.2765 195.021 71.4768C195.021 71.2765 195.152 71.143 195.021 70.8091C195.152 70.7424 195.349 70.8091 195.414 70.7424C195.349 70.9427 195.546 71.0762 195.611 71.4101C195.546 70.9427 195.546 70.4085 195.414 69.8744C195.611 70.2082 195.677 70.275 195.808 70.6088C196.136 70.7424 195.677 70.275 195.874 70.275H195.742C195.742 70.1414 195.546 69.8076 195.48 69.5405L195.349 69.674C195.217 69.407 195.349 69.407 195.349 69.3402C195.217 69.0063 195.152 69.2067 195.021 68.9396C195.086 69.1399 195.021 69.1399 195.021 69.2067L194.955 69.0731C194.824 69.0064 194.955 69.3402 194.889 69.3402C194.889 69.2734 194.824 69.2734 194.824 69.2734C194.889 69.407 194.955 69.6073 194.889 69.674C194.955 70.0079 194.889 70.275 195.217 70.6088H194.955C194.824 70.275 194.627 69.674 194.693 69.6073L194.627 69.4737C194.496 69.2734 194.561 69.8744 194.758 70.1414C195.086 71.0094 194.496 70.275 194.496 70.7424C194.365 70.4753 194.43 70.4085 194.365 70.2082C194.365 70.1414 194.43 70.1414 194.496 70.3417C194.627 70.1414 194.168 69.6073 194.365 69.6073C194.496 69.674 194.43 70.0079 194.561 70.0079L194.365 69.3402C194.299 69.407 194.299 69.5405 194.233 69.674C194.168 70.0079 193.971 70.0747 193.84 70.0747C193.708 70.0747 193.643 70.0079 193.643 70.0079C193.118 70.275 192.593 70.4753 192.003 70.6088C191.806 70.7424 191.806 70.6756 191.74 71.4101C191.806 71.5436 191.937 71.4768 191.871 71.7439C191.871 71.4768 191.937 71.3433 192.068 71.3433C192.134 71.6104 192.003 71.4768 192.003 71.5436C192.003 71.6771 192.003 71.7439 191.937 71.7439C192.068 72.1445 192.331 72.011 192.331 71.4768C192.462 71.7439 192.331 71.8775 192.265 72.0778C192.659 72.2113 192.921 72.1445 193.315 72.0778C193.184 71.6104 193.315 71.8107 193.249 71.4768L193.315 71.6104C193.249 71.5436 193.249 71.2098 193.184 71.143C193.446 71.4101 193.249 70.4753 193.315 70.275L193.38 70.4753C193.446 70.4085 193.512 70.4085 193.577 70.275C193.905 70.6756 193.446 70.4085 193.643 70.9427V70.8091C193.708 71.0094 193.774 71.4101 193.774 71.6104C193.84 71.2097 194.102 71.6771 194.168 71.3433C194.233 71.6104 194.102 71.8775 194.102 71.8775C194.168 71.8775 194.233 71.6771 194.299 71.8775L194.233 71.5436C194.365 71.4768 194.299 71.8107 194.43 72.011C194.758 71.7439 194.168 70.8759 194.299 70.6088Z" fill="#322015"/>
<path d="M196.793 69.4738C196.748 69.4738 196.748 69.4738 196.793 69.4738C196.725 69.5415 196.725 69.4738 196.793 69.4738Z" fill="#322015"/>
<path d="M196.859 70.6756C196.815 70.5866 196.771 70.4753 196.727 70.3418C196.727 70.4753 196.662 70.5421 196.859 70.6756Z" fill="#322015"/>
<path d="M201.581 63.5966L201.516 63.531C201.516 63.531 201.581 63.531 201.581 63.5966Z" fill="#322015"/>
<path d="M201.779 63.6646L202.041 63.7981L201.91 63.5978L201.779 63.6646C201.713 63.5978 201.648 63.5978 201.582 63.5978L201.779 63.6646Z" fill="#322015"/>
<path d="M201.057 63.7314C201.188 63.7314 201.319 63.8649 201.45 63.9317C201.582 63.8649 201.188 63.6646 201.319 63.6646C201.516 63.8649 201.516 63.6646 201.713 63.7314C201.45 63.6646 201.253 63.5978 201.122 63.6646L201.319 63.7314C201.253 63.8649 201.188 63.7314 201.057 63.7314Z" fill="#322015"/>
<path d="M201.32 64.4659L201.058 64.2656C201.189 64.3324 201.254 64.1988 201.517 64.3324C201.517 64.2656 201.386 64.1988 201.32 64.1321C201.451 64.1321 201.582 64.1988 201.386 64.0653C201.123 64.1321 201.058 64.0653 200.926 64.1988C200.861 64.1988 200.861 64.1321 200.926 64.1321H200.729C201.123 64.3324 201.058 64.4659 201.32 64.4659Z" fill="#322015"/>
<path d="M201.057 64.5327C201.057 64.4659 200.86 64.2656 200.663 64.1989C200.729 64.2656 200.729 64.3992 200.794 64.4659C200.794 64.4659 200.794 64.3324 201.057 64.5327Z" fill="#322015"/>
<path d="M200.991 64.6664C200.86 64.5996 200.532 64.5328 200.728 64.7332C200.728 64.5996 201.122 64.7999 200.991 64.6664Z" fill="#322015"/>
<path d="M200.401 65.0668L200.663 65C200.991 65.1335 200.729 65.1335 200.86 65.2671C200.991 65.2003 200.86 65.1335 200.729 64.9332C200.795 64.9332 200.598 64.7329 200.532 64.6661C200.729 65 199.876 64.5994 200.401 65.0668Z" fill="#322015"/>
<path d="M200.926 64.9335L200.795 64.8667L200.861 65.0002L200.926 64.9335Z" fill="#322015"/>
<path d="M199.876 65.2003C199.416 65.0668 200.007 65.5342 199.81 65.5342L199.744 65.4674V65.6009L199.679 65.5342C199.941 65.6677 199.941 65.8012 200.138 66.0015C200.466 66.0683 199.876 65.8012 200.204 65.868C200.269 65.9348 200.466 66.0683 200.532 66.1351C200.466 66.0015 200.335 65.9348 200.204 65.8012C200.204 65.7345 200.335 65.8012 200.4 65.868C200.269 65.7345 199.941 65.4674 200.072 65.4674C200.335 65.5342 200.4 65.7345 200.335 65.5342C199.941 65.3339 200.466 65.4674 200.269 65.2671C200.4 65.2003 200.663 65.3339 200.794 65.4006C200.466 65.2003 200.269 65 200.204 64.9332L200.4 65.2003L200.007 65.0668C200.007 65.1335 199.941 65.2003 199.876 65.2003Z" fill="#322015"/>
<path d="M200.795 65.4008V65.4664H200.926L200.795 65.4008Z" fill="#322015"/>
<path d="M200.598 66.2676C200.598 66.2676 200.532 66.202 200.467 66.202L200.598 66.2676Z" fill="#322015"/>
<path d="M200.27 66.202L200.073 66.1353L200.204 66.2688L200.27 66.202Z" fill="#322015"/>
<path d="M198.826 67.8713C198.957 67.9381 198.76 67.7378 198.629 67.6042C198.498 67.6042 198.76 67.7378 198.826 67.8713Z" fill="#322015"/>
<path d="M198.105 69.0731C198.301 69.1398 198.17 68.8727 198.236 68.8727C198.039 68.806 198.039 68.9395 198.105 69.0731Z" fill="#322015"/>
<path d="M198.235 70.2081C198.169 70.1413 198.169 70.0746 198.104 70.0746L197.841 69.6072C197.644 69.6072 198.104 70.0746 198.235 70.2081Z" fill="#322015"/>
<path d="M197.711 70.7422V70.5419H197.645C197.579 70.3415 197.514 70.2748 197.448 70.1412C197.448 70.2748 197.448 70.4751 197.711 70.7422Z" fill="#322015"/>
<path d="M197.448 70.0078C197.514 70.139 197.514 70.0734 197.448 70.0078Z" fill="#322015"/>
<path d="M197.383 70.0732C197.427 70.0732 197.427 70.0732 197.383 70.0732C197.383 70.0076 197.383 69.942 197.383 70.0732Z" fill="#322015"/>
<path d="M197.449 70.6089L197.317 70.7424L197.449 70.8092C197.317 70.5421 197.645 70.876 197.449 70.6089Z" fill="#322015"/>
<path d="M196.464 70.9425L196.267 70.6754C196.136 70.6754 196.333 71.3431 196.005 70.9425C196.136 71.076 196.07 71.2763 196.267 71.2763C196.202 71.0093 196.333 70.9425 196.464 70.9425Z" fill="#322015"/>
<path d="M195.808 70.8092C195.808 70.7424 195.742 70.6757 195.677 70.6089C195.611 70.6089 195.677 70.7424 195.742 70.876C195.611 70.4754 195.939 71.0095 195.808 70.8092Z" fill="#322015"/>
<path d="M195.35 71.0761C195.35 71.0761 195.416 71.0093 195.35 70.9425C195.284 71.0093 195.416 71.2764 195.481 71.4767C195.612 71.6102 195.481 71.1428 195.35 71.0761Z" fill="#322015"/>
<path d="M193.774 69.3401C193.84 69.6072 193.906 69.5404 193.906 69.4069C193.906 69.4736 193.84 69.4069 193.774 69.3401Z" fill="#322015"/>
<path d="M194.495 71.3431H194.561L194.495 71.0093V71.3431Z" fill="#322015"/>
<path d="M193.971 71.7438V72.0108L194.102 71.9441L193.971 71.7438Z" fill="#322015"/>
<path d="M193.84 71.6771L193.709 71.7439L193.775 71.8107C193.906 71.8774 193.84 71.7439 193.84 71.6771Z" fill="#322015"/>
</g>
<path fill-rule="evenodd" clip-rule="evenodd" d="M290.527 117.609C290.531 117.376 290.719 117.191 290.947 117.194C295.401 117.261 298.578 117.732 300.648 118.189C301.683 118.417 302.442 118.642 302.945 118.812C303.196 118.896 303.384 118.967 303.51 119.018C303.574 119.043 303.622 119.063 303.655 119.077C303.671 119.085 303.684 119.09 303.693 119.094L303.704 119.099L303.707 119.101L303.708 119.101C303.708 119.101 303.709 119.102 303.538 119.484C303.83 119.187 303.83 119.187 303.83 119.187L303.832 119.189L303.836 119.193L303.849 119.206C303.86 119.218 303.875 119.235 303.895 119.256C303.935 119.3 303.992 119.363 304.065 119.447C304.209 119.615 304.414 119.865 304.663 120.199C305.159 120.867 305.828 121.871 306.528 123.228C306.534 123.241 306.54 123.254 306.546 123.267C306.627 123.474 306.728 123.665 306.831 123.86C306.884 123.961 306.938 124.064 306.991 124.17C307.093 124.378 307.01 124.631 306.806 124.735C306.602 124.839 306.354 124.754 306.251 124.547C306.22 124.482 306.178 124.403 306.132 124.315C306.022 124.106 305.884 123.845 305.786 123.601C305.112 122.297 304.472 121.337 304.003 120.706C303.768 120.389 303.575 120.155 303.443 120.002C303.38 119.929 303.331 119.874 303.297 119.837C303.274 119.827 303.244 119.815 303.209 119.801C303.096 119.756 302.922 119.69 302.685 119.61C302.21 119.45 301.48 119.233 300.473 119.011C298.459 118.566 295.337 118.102 290.935 118.035C290.706 118.032 290.524 117.841 290.527 117.609ZM303.538 119.484L303.83 119.187C303.795 119.151 303.754 119.122 303.709 119.102L303.538 119.484Z" fill="#1B1C1E"/>
</g>
</svg>
