<svg width="25" height="25" viewBox="0 0 25 25" fill="none" xmlns="http://www.w3.org/2000/svg">
<path d="M3.5 3L6 1H16.5L23 1.5L24.5 5.5V20.5L21.5 24H13H3L1.5 20.5V18L3.5 17.5V3Z" fill="#B2D3BE"/>
<path d="M3.55556 17.6111V3.55556C3.55556 2.87778 3.8248 2.22776 4.30406 1.7485C4.78332 1.26925 5.43334 1 6.11111 1H21.4444C22.1222 1 22.7722 1.26925 23.2515 1.7485C23.7308 2.22776 24 2.87778 24 3.55556V20.1667C24 21.4444 23.2333 24 20.1667 24M20.1667 24H4.83333C3.55556 24 1 23.2333 1 20.1667V17.6111H16.3333V20.1667C16.3333 23.2333 18.8889 24 20.1667 24ZM8.66667 6.11111H18.8889M8.66667 11.2222H13.7778" stroke="#1B1B1B" stroke-width="2" stroke-linecap="round" stroke-linejoin="round"/>
</svg>
