<svg width="10" height="14" viewBox="0 0 10 14" fill="none" xmlns="http://www.w3.org/2000/svg">
<path d="M0.583477 13.4918L0.85 13.9149L0.583476 13.4918C0.575204 13.497 0.566039 13.4997 0.556914 13.5C0.547795 13.5002 0.538563 13.498 0.530119 13.4933C0.521644 13.4886 0.514069 13.4814 0.508581 13.472C0.503076 13.4626 0.500006 13.4515 0.5 13.44L0.5 1.12002C0.5 0.954299 0.565347 0.796161 0.680399 0.680185C0.795318 0.564345 0.950329 0.5 1.11111 0.5H8.88889C9.04967 0.5 9.20468 0.564345 9.3196 0.680186C9.43465 0.79616 9.5 0.954298 9.5 1.12002V13.4396C9.49999 13.4511 9.49691 13.4621 9.49141 13.4715L9.92296 13.7241L9.49141 13.4715C9.48593 13.4809 9.47836 13.4881 9.4699 13.4929C9.46147 13.4976 9.45225 13.4998 9.44313 13.4995C9.43408 13.4993 9.42499 13.4967 9.41676 13.4915C9.41671 13.4915 9.41665 13.4915 9.41659 13.4914L5.26649 10.8773L4.99998 10.7094L4.73348 10.8773L0.583477 13.4918Z" fill="#89A3B2" stroke="black"/>
</svg>
