<svg width="15" height="14" viewBox="0 0 15 14" fill="none" xmlns="http://www.w3.org/2000/svg">
<path d="M13.7222 9.72222C12.7889 9.72222 11.7778 9.56667 10.9222 9.25556H10.6889C10.4556 9.25556 10.3 9.33333 10.1444 9.48889L8.43333 11.2C6.25556 10.0333 4.38889 8.24444 3.3 6.06667L5.01111 4.35556C5.24444 4.12222 5.32222 3.81111 5.16667 3.57778C4.93333 2.72222 4.77778 1.71111 4.77778 0.777778C4.77778 0.388889 4.38889 0 4 0H1.27778C0.888889 0 0.5 0.388889 0.5 0.777778C0.5 8.08889 6.41111 14 13.7222 14C14.1111 14 14.5 13.6111 14.5 13.2222V10.5C14.5 10.1111 14.1111 9.72222 13.7222 9.72222ZM2.05556 1.55556H3.22222C3.3 2.25556 3.45556 2.95556 3.61111 3.57778L2.67778 4.51111C2.36667 3.57778 2.13333 2.56667 2.05556 1.55556ZM12.9444 12.4444C11.9333 12.3667 10.9222 12.1333 9.98889 11.8222L10.9222 10.8889C11.5444 11.0444 12.2444 11.2 12.9444 11.2V12.4444Z" fill="#1B1B1B"/>
</svg>
