<svg width="18" height="18" viewBox="0 0 18 18" fill="none" xmlns="http://www.w3.org/2000/svg">
<path d="M17.25 2.12493V9.68743C17.25 13.864 13.5547 17.2499 9 17.2499C4.44531 17.2499 0.75 13.864 0.75 9.68743V2.12493C0.749893 1.98888 0.790156 1.85585 0.865692 1.74269C0.941229 1.62954 1.04864 1.54133 1.17433 1.48925C1.30002 1.43717 1.43834 1.42356 1.57177 1.45013C1.70521 1.4767 1.82776 1.54227 1.92391 1.63852L3.80938 3.80931C5.31867 2.71455 7.13547 2.12503 9 2.12503C10.8645 2.12503 12.6813 2.71455 14.1906 3.80931L16.0761 1.64024C16.1721 1.54409 16.2945 1.47856 16.4278 1.45193C16.5611 1.4253 16.6993 1.43878 16.8249 1.49064C16.9505 1.54251 17.0579 1.63045 17.1336 1.74334C17.2093 1.85624 17.2498 1.98902 17.25 2.12493Z" fill="white"/>
<path d="M6.25 10.0312C6.25 10.2352 6.18952 10.4346 6.0762 10.6042C5.96289 10.7737 5.80183 10.9059 5.61339 10.984C5.42496 11.062 5.21761 11.0824 5.01756 11.0427C4.81752 11.0029 4.63377 10.9046 4.48955 10.7604C4.34532 10.6162 4.24711 10.4325 4.20731 10.2324C4.16752 10.0324 4.18795 9.82502 4.266 9.63658C4.34405 9.44814 4.47623 9.28709 4.64582 9.17377C4.81541 9.06046 5.01479 8.99997 5.21875 8.99997C5.49225 8.99997 5.75456 9.10862 5.94795 9.30202C6.14135 9.49542 6.25 9.75772 6.25 10.0312ZM12.7812 8.99997C12.5773 8.99997 12.3779 9.06046 12.2083 9.17377C12.0387 9.28709 11.9066 9.44814 11.8285 9.63658C11.7504 9.82502 11.73 10.0324 11.7698 10.2324C11.8096 10.4325 11.9078 10.6162 12.052 10.7604C12.1963 10.9046 12.38 11.0029 12.5801 11.0427C12.7801 11.0824 12.9875 11.062 13.1759 10.984C13.3643 10.9059 13.5254 10.7737 13.6387 10.6042C13.752 10.4346 13.8125 10.2352 13.8125 10.0312C13.8125 9.75772 13.7038 9.49542 13.5105 9.30202C13.3171 9.10862 13.0548 8.99997 12.7812 8.99997ZM17.9375 2.12497V9.68747C17.9375 14.2361 13.9285 17.9375 9 17.9375C4.07148 17.9375 0.0625 14.2361 0.0625 9.68747V2.12497C0.062626 1.85312 0.143337 1.5874 0.294432 1.3614C0.445528 1.1354 0.660226 0.959259 0.911396 0.855241C1.16257 0.751223 1.43893 0.723994 1.70557 0.776996C1.97221 0.829998 2.21716 0.960852 2.40945 1.15302C2.42148 1.16505 2.4318 1.17622 2.44211 1.18825L3.92969 2.89841C5.45073 1.94544 7.20938 1.44002 9.0043 1.44002C10.7992 1.44002 12.5579 1.94544 14.0789 2.89841L15.5579 1.18825C15.5682 1.17622 15.5785 1.16505 15.5905 1.15302C15.7828 0.960852 16.0278 0.829998 16.2944 0.776996C16.5611 0.723994 16.8374 0.751223 17.0886 0.855241C17.3398 0.959259 17.5545 1.1354 17.7056 1.3614C17.8567 1.5874 17.9374 1.85312 17.9375 2.12497ZM16.5625 2.12497L14.7097 4.25622C14.5964 4.38734 14.4377 4.47082 14.2654 4.48994C14.0932 4.50906 13.92 4.46242 13.7807 4.35935C13.3613 4.04919 12.9112 3.78283 12.4375 3.56443V5.56247C12.4375 5.74481 12.3651 5.91968 12.2361 6.04861C12.1072 6.17754 11.9323 6.24997 11.75 6.24997C11.5677 6.24997 11.3928 6.17754 11.2639 6.04861C11.1349 5.91968 11.0625 5.74481 11.0625 5.56247V3.07458C10.6115 2.95856 10.1515 2.88037 9.6875 2.84083V5.56247C9.6875 5.74481 9.61507 5.91968 9.48614 6.04861C9.35721 6.17754 9.18234 6.24997 9 6.24997C8.81766 6.24997 8.6428 6.17754 8.51386 6.04861C8.38493 5.91968 8.3125 5.74481 8.3125 5.56247V2.84083C7.84846 2.88037 7.38854 2.95856 6.9375 3.07458V5.56247C6.9375 5.74481 6.86507 5.91968 6.73614 6.04861C6.6072 6.17754 6.43234 6.24997 6.25 6.24997C6.06766 6.24997 5.8928 6.17754 5.76386 6.04861C5.63493 5.91968 5.5625 5.74481 5.5625 5.56247V3.56443C5.08879 3.78283 4.63871 4.04919 4.2193 4.35935C4.08027 4.46272 3.90734 4.5098 3.7351 4.49115C3.56286 4.47251 3.404 4.38953 3.29031 4.2588L1.4375 2.12497V9.68747C1.4375 13.2676 4.46336 16.2187 8.3125 16.5341V14.7844L7.13859 13.6105C7.07477 13.5466 7.02416 13.4708 6.98964 13.3874C6.95513 13.304 6.93738 13.2145 6.93742 13.1242C6.93746 13.0339 6.95529 12.9445 6.98988 12.8611C7.02447 12.7777 7.07515 12.702 7.13902 12.6381C7.26803 12.5092 7.44295 12.4369 7.6253 12.437C7.7156 12.437 7.805 12.4548 7.88841 12.4894C7.97181 12.524 8.04759 12.5747 8.11141 12.6386L9 13.5272L9.88859 12.6386C9.95241 12.5747 10.0282 12.524 10.1116 12.4894C10.195 12.4548 10.2844 12.437 10.3747 12.437C10.465 12.4369 10.5544 12.4547 10.6378 12.4892C10.7213 12.5237 10.7971 12.5743 10.861 12.6381C10.9249 12.702 10.9755 12.7777 11.0101 12.8611C11.0447 12.9445 11.0625 13.0339 11.0626 13.1242C11.0626 13.2145 11.0449 13.304 11.0104 13.3874C10.9758 13.4708 10.9252 13.5466 10.8614 13.6105L9.6875 14.7844V16.5341C13.5366 16.217 16.5625 13.2685 16.5625 9.68747V2.12497Z" fill="#1B1B1B"/>
</svg>
