<svg width="129" height="125" viewBox="0 0 129 125" fill="none" xmlns="http://www.w3.org/2000/svg">
<path d="M12.4164 123.256C12.4164 123.256 7.60603 124.743 20.7355 125.2C33.865 125.658 103.304 125.886 110.491 125.2C117.622 124.514 131.544 124.914 113.095 123.256C94.6454 121.597 75.6303 122.57 57.0679 121.597C38.5056 120.568 15.246 121.54 12.4164 123.256Z" fill="#1B1C1E"/>
<path d="M27.6963 77.3908C27.6963 77.3908 38.9016 112.333 40.0901 117.308C40.0901 117.308 34.3742 118.052 34.4308 123.427H42.8065C43.6554 123.427 45.24 118.967 45.24 118.967C45.24 118.967 44.1081 85.2256 45.24 77.9627C46.3718 70.6998 27.6963 71.5576 27.6963 77.3908Z" fill="#89A3B2"/>
<mask id="mask0_390_3398" style="mask-type:luminance" maskUnits="userSpaceOnUse" x="27" y="72" width="19" height="22">
<path d="M45.24 77.9056C44.8438 80.5363 44.7306 86.7126 44.7306 93.4608C37.4302 85.6832 30.1864 85.2257 30.1864 85.2257C28.715 80.5934 27.6963 77.3909 27.6963 77.3909C27.6963 71.5577 46.3718 70.6999 45.24 77.9056Z" fill="white"/>
</mask>
<g mask="url(#mask0_390_3398)">
<path d="M33.1289 81.9085L33.1855 81.6226C33.2421 81.7369 33.1855 81.7941 33.1289 81.9085Z" fill="#080809"/>
<path d="M38.3354 84.6538C38.392 84.711 38.392 84.8254 38.392 84.9969L38.3354 84.6538Z" fill="#080809"/>
<path d="M37.6003 85.7402C37.6003 85.7975 37.5435 85.8548 37.5435 85.8548C37.5435 85.7975 37.6003 85.7975 37.6003 85.7402Z" fill="#080809"/>
<path d="M43.146 82.9951H43.2028V83.0524C43.2028 83.1669 43.2028 83.0524 43.146 82.9951Z" fill="#080809"/>
<path d="M42.9761 83.3955L43.0323 83.4522C43.0323 83.4144 43.0135 83.3955 42.9761 83.3955Z" fill="#080809"/>
<path d="M42.8062 82.1372C42.8062 82.1944 42.8062 82.3088 42.8628 82.4231C42.8062 82.3088 42.7496 82.3088 42.8062 82.1372Z" fill="#080809"/>
<path d="M31.3754 81.1655C31.3186 81.1083 31.3186 81.051 31.2617 80.9937C31.4323 80.9365 31.4322 81.051 31.3754 81.1655Z" fill="#080809"/>
<path d="M41.5048 83.0527C41.3916 83.9105 41.6746 83.1099 41.618 83.9677C41.5614 83.7961 41.5048 83.6246 41.3916 84.0821C41.4482 84.5396 41.618 84.0821 41.5614 84.7683L41.4482 84.4824C41.335 84.8255 41.3916 85.3974 41.335 85.3402C41.335 84.3108 40.8823 85.6833 40.7125 85.5118L40.7691 85.6261L40.4862 86.0837V86.1408V85.9693C40.3164 86.4268 40.1466 86.7699 39.9768 86.6555C39.9768 86.0837 39.4109 86.3696 39.4109 85.9121C39.4675 86.0837 39.5241 86.0837 39.6373 85.9693L39.6939 85.283C39.5241 85.283 39.5807 85.9121 39.4675 85.4546C39.6373 84.5396 39.6939 85.5118 39.807 85.3974C39.807 85.1686 39.7505 84.9971 39.6939 84.8827C39.9202 84.8827 40.2032 84.5968 40.2598 85.5118C40.373 85.3402 40.373 84.9399 40.3164 84.8255C40.4296 85.3974 40.4862 84.3108 40.5993 84.8255C40.6559 83.9677 40.3164 84.368 40.2032 83.8533C39.9202 84.4824 39.6939 83.8533 39.4675 83.6818C39.3543 84.3108 39.4675 84.8827 39.2977 85.2258C39.0148 85.6262 39.1279 84.8827 39.0148 84.4824C38.7884 84.6539 38.845 85.5118 38.562 85.5118L38.6752 85.9693C38.3922 86.8271 38.562 85.569 38.4488 85.7405C38.5054 85.5118 38.562 85.283 38.6752 85.3402C38.7318 84.9971 38.6752 84.8827 38.6186 84.8255H38.6752C38.6752 84.368 38.7318 83.9105 38.562 84.1393C38.562 84.654 38.3356 84.4824 38.279 84.7111V84.8255C38.1659 84.654 38.0527 84.654 37.9961 84.5968V84.7111C37.9395 84.4824 38.0527 83.8533 37.8829 83.9677C37.8263 84.2536 37.8829 84.9399 37.7697 84.8255C37.7131 85.2258 37.8829 85.283 38.0527 85.1686C37.8829 85.283 37.7131 85.9121 37.8829 85.9693C37.7697 86.4268 37.7697 85.7405 37.6565 85.9121C37.7131 85.7405 37.7131 85.569 37.7131 85.4546C37.5999 86.1409 37.3736 85.4546 37.4868 84.9971L37.5999 85.3974C37.7131 84.8827 37.5999 84.4824 37.7131 84.1964C37.4868 84.9971 37.3736 83.6818 37.1472 84.368L37.317 83.9677C36.9208 84.1964 36.8642 83.1099 36.5813 82.8239C36.6379 83.1099 36.4115 84.0249 36.6945 83.7389C36.3549 83.8533 36.4115 84.5968 36.1851 85.0543C35.8456 85.3402 36.2417 84.1964 36.2417 83.8533L36.3549 84.0821C36.4115 82.9955 35.6758 84.1393 35.506 83.3958C35.3928 83.6818 35.506 83.5674 35.5626 83.6818C35.2796 84.1964 35.4494 83.5102 35.3928 83.2814C35.2231 83.3386 34.9401 83.5102 34.8835 84.1964C34.6571 84.3108 34.9967 83.7961 34.9967 83.5674L34.9401 83.6818L34.9967 82.8811C34.7703 83.0527 34.4874 83.3386 34.261 83.9677C33.978 83.7389 34.6005 82.4236 34.4308 82.1377C34.2044 82.4236 34.3176 82.6524 34.261 82.8811L34.0912 82.7667C33.9214 83.5102 34.2044 83.2242 33.978 84.0821C34.0346 83.1671 33.8082 83.7389 33.7516 83.1099L33.8082 83.0527C33.8648 82.4236 33.5253 82.7667 33.4121 82.5952C33.3555 82.9383 33.5253 83.0527 33.5819 83.2242C33.2989 83.453 33.0159 83.0527 33.1291 82.252C33.0159 82.3092 32.6764 82.538 32.733 82.9383C32.3934 82.9383 32.9593 81.8517 32.6198 81.9661L32.3934 82.538C31.7709 83.2242 32.0539 81.623 31.4879 82.1949L31.7709 81.5086C31.6011 81.7945 31.4314 81.8517 31.2616 82.0805L31.3182 82.3664C30.9786 82.8811 31.3748 81.7374 31.0918 82.0805C31.205 81.8517 31.4879 81.4514 31.6011 81.2227C32.0539 81.9089 33.0159 81.1083 33.3555 82.0233C33.2989 82.0805 33.2423 82.1949 33.1857 82.3092C33.2989 82.1949 33.3555 82.4236 33.4687 82.0233V81.9661C33.5819 82.1949 33.978 81.3942 34.0912 81.3942C33.978 81.9089 34.4873 81.2798 34.1478 82.0805L34.4308 81.623C34.3742 81.9089 34.2044 82.3092 34.261 82.4808C34.3742 82.4236 34.4873 82.1377 34.4873 81.9089C34.9967 81.7373 35.4494 81.9661 35.8456 82.3664V81.9661C36.0153 81.7945 36.0719 82.7667 36.1851 81.7374C36.2983 82.1949 36.8076 81.623 36.5813 82.6524C36.9774 81.6802 37.2038 82.3664 37.4302 82.538C37.2038 83.3958 37.5999 82.8239 37.5999 83.2814C37.7697 82.5952 37.4868 82.538 37.5999 82.0805C37.7131 83.2242 38.562 81.4514 38.3922 83.2814C38.4488 83.2242 38.4488 83.1671 38.4488 83.0527C38.5054 83.0527 38.6186 82.7667 38.7318 82.7096C38.7318 83.0527 38.562 83.1671 38.6752 83.2814C38.7884 83.2242 38.845 82.7096 38.9016 82.538C39.0713 82.9955 39.3543 83.2242 39.2977 83.9105C39.4109 83.7389 39.5241 83.3386 39.4675 83.1671C39.7505 83.7961 39.807 83.1099 40.09 83.5102C39.9768 83.453 40.1466 82.7667 39.9202 82.9955C40.2032 82.0233 40.4296 83.2242 40.7691 82.7667L40.8257 83.453C40.9955 83.5674 41.0521 82.9383 40.9955 82.7096C41.335 82.3664 41.4482 82.7667 41.6746 82.7667C41.6746 82.7095 41.6746 82.538 41.6746 82.5952H42.0142C42.0142 82.7667 42.1273 83.1099 42.0707 83.5102C41.7312 83.0527 41.6746 82.8239 41.5048 83.0527Z" fill="#080809"/>
<path d="M38.3921 85.8548C38.4487 85.6832 38.5053 85.626 38.5053 85.5688C38.4487 85.6832 38.4487 85.7976 38.3921 85.8548Z" fill="#080809"/>
<path d="M44.7869 84.7679C44.7303 85.7973 44.5605 84.5964 44.4474 84.8823C44.5605 85.0539 44.5039 85.6257 44.5039 85.9117C44.3908 84.5964 44.2776 86.1976 43.9946 85.9117C43.9946 86.312 44.1078 86.4264 44.1078 86.8839C43.938 86.5408 43.6551 86.3692 43.6551 85.6257C43.3721 85.5686 43.1457 85.8545 42.9759 85.6829C43.2023 85.9689 42.9759 86.4264 43.0891 87.0555C42.9194 86.1976 42.4666 85.1682 42.2402 84.1389C42.1271 84.9395 42.1271 84.9967 42.0705 85.7401C41.6743 86.2548 42.0139 84.9967 41.6743 85.2254L41.8441 85.1111C41.7309 84.8823 41.7875 84.1389 41.7875 83.567L42.1837 83.6814C42.2402 83.1095 41.9573 83.2238 41.9007 83.0523C41.8441 82.366 42.1271 82.5948 42.1271 82.0801C42.1271 82.5376 42.2968 82.366 42.41 82.5948L42.4666 82.3088C42.6364 82.0229 42.693 82.7663 42.8628 82.7663V82.5948C42.9194 82.9379 42.9194 83.3382 43.0325 83.4526L42.9759 83.3954C43.0891 84.0817 43.3721 84.5392 43.0891 85.2826L43.4853 85.1111C43.4853 84.3676 43.4853 83.1667 43.2589 83.0523V82.7092C43.4287 82.3088 43.7116 83.3382 43.5419 83.9673C43.5985 85.7973 44.1644 84.0817 44.3908 84.8251C44.4474 84.3104 44.2776 84.1389 44.221 83.7957C44.1644 83.7385 44.0512 83.7385 44.0512 84.1389C43.7116 83.8529 44.1644 82.5376 43.7682 82.7092C43.5419 82.9379 43.9946 83.5098 43.6551 83.567L43.5419 82.1945C43.7116 82.2516 43.8814 82.4804 43.9946 82.652C44.3908 83.1667 44.7303 83.1667 45.0133 83.1095C45.2397 83.0523 45.4094 82.8235 45.4094 82.8235C46.0319 82.8807 46.5979 82.9951 47.2204 83.0523L49.0313 83.1667C49.4275 83.3382 49.5407 83.281 49.8236 84.6535C49.7671 84.9395 49.4841 84.8251 49.6539 85.2826C49.5973 84.7679 49.4275 84.482 49.2011 84.5392C49.2011 85.0539 49.4275 84.7679 49.3709 84.8823L49.3143 84.9395C49.3709 85.1682 49.3709 85.3398 49.4841 85.397C49.3143 86.1404 48.8616 86.0261 48.6352 85.0539C48.4654 85.5686 48.805 85.8545 48.9182 86.1976C48.2391 86.5979 47.7863 86.5408 47.1072 86.6551C47.0506 85.7973 47.0506 86.0833 46.9374 85.5114L46.8808 85.8545C46.8808 85.6829 46.8242 85.1111 46.9374 84.8823C46.5413 85.5686 46.4847 83.6813 46.2017 83.3382V83.7957C45.9753 83.7385 45.9188 83.6814 45.749 83.4526C45.4094 84.3104 46.0319 83.567 45.9754 84.7107L45.8056 84.5392C45.8622 84.9967 45.9188 85.7401 46.0319 86.0833C45.6924 85.3398 45.5226 86.3692 45.1831 85.7973C45.2396 86.312 45.5226 86.7123 45.6358 86.7695C45.5226 86.8267 45.2962 86.4264 45.2396 86.9411V86.312C45.0133 86.2548 45.2396 86.8839 45.1831 87.3414C44.6737 87.1126 45.1831 85.1682 44.7869 84.7679Z" fill="#080809"/>
<path d="M39.5806 84.7107C39.6374 84.6535 39.6943 84.7107 39.7511 84.768C39.6943 84.768 39.6374 84.768 39.5806 84.7107Z" fill="#080809"/>
<path d="M40.4297 86.9411C40.4863 86.6552 40.4297 86.6552 40.4297 86.2549C40.4863 86.4836 40.6561 86.5408 40.4297 86.9411Z" fill="#080809"/>
<path d="M27.5828 81.2226C27.4696 81.1082 27.6394 80.5936 27.9224 80.3076L27.979 80.8795C27.9224 80.8223 27.8092 80.7079 27.5828 81.2226Z" fill="#080809"/>
<path d="M27.8092 81.3369C28.0356 81.1081 28.4317 80.5934 28.262 81.1653C28.1488 80.9937 27.7526 81.7944 27.8092 81.3369Z" fill="#080809"/>
<path d="M29.1676 81.3941L28.7149 81.5656C28.3187 82.2519 28.7715 81.8516 28.6583 82.1947C28.3187 82.1947 28.5451 82.0231 28.5451 81.5084C28.4319 81.5084 28.5451 81.1081 28.5451 80.8794C28.6017 81.68 29.5072 80.0215 29.1676 81.3941Z" fill="#080809"/>
<path d="M28.2056 81.7942L28.3188 81.5083V81.7942H28.2056Z" fill="#080809"/>
<path d="M30.186 80.9935C30.752 80.25 30.2992 81.6225 30.6954 81.3366C30.6954 81.2794 30.752 81.2222 30.752 81.1078L30.8652 81.2794L30.9784 81.1078C30.752 81.6225 30.8652 81.9085 30.752 82.3088C30.3558 82.7663 30.9218 81.6225 30.5256 82.1372C30.469 82.366 30.3558 82.7663 30.2992 82.9379C30.2992 82.6519 30.4124 82.3088 30.469 82.0229C30.3558 81.9085 30.2992 82.1944 30.186 82.4232C30.186 82.08 30.5256 81.3366 30.2426 81.451C29.9031 81.8513 30.0163 82.1944 29.8465 81.9085C30.2992 81.165 29.5635 81.9085 29.7333 81.3938C29.5069 81.451 29.1674 81.9085 29.0542 82.1944C29.3372 81.5653 29.4504 80.9935 29.4504 80.7647V81.3938L29.9031 80.7075C29.9031 81.1078 30.0163 81.1078 30.186 81.1078V80.9935Z" fill="#080809"/>
<path d="M30.2995 82.938V83.1098C30.2426 83.1098 30.2426 83.0525 30.2995 82.938Z" fill="#080809"/>
<path d="M28.9413 82.3091V82.4806L28.7715 82.6522L28.9413 82.3091Z" fill="#080809"/>
<path d="M30.1863 83.51C30.1297 83.51 30.2429 83.2812 30.2995 83.2812L30.1863 83.6244V83.51Z" fill="#080809"/>
<path d="M30.5825 83.1097L30.8655 82.7666L30.7523 83.1097H30.5825Z" fill="#080809"/>
<path d="M34.657 84.0818C34.4306 84.3105 34.6004 83.7958 34.7136 83.3955C34.8834 83.3383 34.5438 83.853 34.657 84.0818Z" fill="#080809"/>
<path d="M37.0338 85.3973C36.8075 85.7404 36.8075 85.1685 36.6377 85.1685C36.8075 84.8826 36.9772 85.1113 37.0338 85.3973Z" fill="#080809"/>
<path d="M37.8262 87.3989C37.8262 87.2273 37.7696 87.113 37.8828 87.0558V86.0836C38.1657 85.7976 37.8828 86.9986 37.8262 87.3989Z" fill="#080809"/>
<path d="M39.0711 87.7421L38.9014 87.3418H39.0146C39.0146 86.9414 39.0145 86.7699 38.958 86.4268C39.1277 86.6555 39.2409 87.0558 39.0711 87.7421Z" fill="#080809"/>
<path d="M38.8447 86.2549L38.9016 86.3121C38.8447 86.4267 38.8447 86.5412 38.8447 86.2549Z" fill="#080809"/>
<path d="M39.0151 86.3124V86.4269C38.9582 86.3697 38.9582 86.3124 38.9014 86.3124C38.9582 86.2551 38.9582 86.1406 39.0151 86.3124Z" fill="#080809"/>
<path d="M39.2979 87.2842L39.6374 87.4557L39.4676 87.6273C39.5808 87.0554 39.2979 87.9704 39.2979 87.2842Z" fill="#080809"/>
<path d="M41.2783 87.0559L41.3915 86.484C41.6179 86.3696 41.7877 87.6278 42.014 86.7127C41.9008 87.0559 42.1272 87.399 41.8442 87.5134C41.7877 86.9987 41.4481 86.8843 41.2783 87.0559Z" fill="#080809"/>
<path d="M42.1841 86.2549C42.1841 86.0834 42.2407 85.969 42.2407 85.7974C42.2973 85.7402 42.4104 86.0262 42.3539 86.2549C42.3539 85.4543 42.2407 86.7125 42.1841 86.2549Z" fill="#080809"/>
<path d="M43.2593 86.3694C43.2027 86.3694 43.0895 86.3122 43.2027 86.1406C43.3725 86.1978 43.3159 86.8269 43.3725 87.2272C43.2027 87.5703 43.0895 86.6553 43.2593 86.3694Z" fill="#080809"/>
<path d="M44.9002 82.0801C44.8436 82.5948 44.7304 82.5376 44.6738 82.3088C44.7304 82.4232 44.8436 82.3088 44.9002 82.0801Z" fill="#080809"/>
<path d="M44.8437 86.2551L44.7871 86.3694L44.7305 85.626L44.8437 86.2551Z" fill="#080809"/>
</g>
<path d="M111.227 43.3639C111.227 43.3639 119.602 35.6435 122.149 23.5196C124.696 11.3957 116.037 6.70622 109.133 9.27969C101.323 12.1391 100.983 21.7467 100.021 26.4933C99.3988 29.5815 97.3049 27.8659 97.0785 27.294C96.2862 25.178 97.2483 0.301134 116.263 3.84681C127.808 6.01996 130.015 16.4282 128.431 24.6061C126.846 32.7841 122.092 41.4195 115.697 47.5958C111.17 51.9421 111.227 43.3639 111.227 43.3639Z" fill="#89A3B2"/>
<mask id="mask1_390_3398" style="mask-type:luminance" maskUnits="userSpaceOnUse" x="111" y="37" width="13" height="12">
<path d="M123.62 37.3018C121.47 41.0762 118.753 44.6219 115.697 47.5956C111.227 51.9419 111.283 43.3637 111.283 43.3637C111.283 43.3637 113.038 41.7624 115.188 38.8458C116.773 38.9602 119.376 38.7315 123.62 37.3018Z" fill="white"/>
</mask>
<g mask="url(#mask1_390_3398)">
<path d="M112.019 43.421C112.076 43.421 112.076 43.3638 112.133 43.3638L112.019 43.421Z" fill="#080809"/>
<path d="M113.038 42.7346C113.094 42.7346 113.151 42.6774 113.265 42.6201L113.038 42.7346Z" fill="#080809"/>
<path d="M113.208 41.9331L113.264 41.8765C113.208 41.8765 113.208 41.9331 113.208 41.9331Z" fill="#080809"/>
<path d="M114.056 45.937C114.056 45.937 114 45.937 114 45.9937C114 45.9937 114.056 45.9937 114.056 45.937Z" fill="#080809"/>
<path d="M114.396 45.937C114.453 45.937 114.453 45.9943 114.396 45.937H114.453C114.51 45.937 114.453 45.937 114.396 45.937Z" fill="#080809"/>
<path d="M117.169 45.6511L117.339 45.5366C117.283 45.5939 117.226 45.6511 117.169 45.6511Z" fill="#080809"/>
<path d="M113.83 46.0514C113.887 46.0514 113.944 45.9941 113.944 45.9941C113.944 45.9941 113.887 45.9941 113.83 46.0514Z" fill="#080809"/>
<path d="M111.962 43.4776L112.019 43.4209C112.019 43.4587 112 43.4776 111.962 43.4776Z" fill="#080809"/>
<path d="M113.717 45.022C114.057 44.6217 113.83 45.0792 114.17 44.736C114.057 44.7932 113.943 44.7932 114.113 44.5645C114.34 44.3929 114.17 44.6788 114.509 44.3929L114.34 44.4501C114.453 44.2213 114.736 44.0498 114.679 44.0498C114.226 44.3929 114.623 43.6495 114.509 43.6495H114.566L114.623 43.3635L114.566 43.4207C114.736 43.192 114.792 42.906 114.623 42.906C114.34 43.1348 114.226 42.7344 114 42.906C114.075 42.906 114.113 42.9441 114.113 43.0204L113.83 43.3063C113.774 43.2491 114.057 43.0204 113.83 43.1348C113.491 43.5923 113.943 43.2491 113.943 43.3635C113.83 43.4207 113.717 43.4779 113.66 43.4779C113.774 43.5923 113.774 43.8782 114.226 43.5351C114.17 43.6495 114 43.821 113.943 43.821C114.226 43.6495 113.774 44.107 114.057 43.9926C113.66 44.3357 113.717 44.0498 113.434 44.1641C113.604 43.7638 113.208 43.9354 113.038 43.8782C113.264 43.5923 113.604 43.4207 113.66 43.192C113.717 42.906 113.378 43.2491 113.208 43.3063C113.208 43.1348 113.604 42.7916 113.491 42.6773L113.717 42.5629C114 42.0482 113.491 42.6773 113.491 42.5057C113.434 42.6201 113.321 42.7344 113.434 42.7916C113.321 42.9632 113.208 42.9632 113.151 42.9632C112.925 43.1348 112.755 43.3635 112.755 43.192C113.038 43.0204 112.812 42.9632 112.925 42.7916L112.981 42.7344C112.868 42.7344 112.812 42.6773 112.698 42.6773L112.755 42.6201C112.642 42.6773 112.359 42.9632 112.359 42.8488C112.472 42.7345 112.812 42.4485 112.698 42.4485C112.868 42.2769 112.981 42.3341 112.981 42.4485C112.981 42.3341 113.151 41.991 113.264 42.0482C113.434 41.7622 113.095 42.1054 113.151 41.9338C113.095 41.991 113.038 42.1054 112.981 42.1626C113.208 41.8194 112.812 41.991 112.642 42.2198L112.868 42.1054C112.642 42.3913 112.415 42.4485 112.359 42.6201C112.642 42.1626 111.963 42.6201 112.189 42.2198L112.076 42.4485C112.019 42.1626 111.453 42.5629 111.227 42.5057C111.397 42.3913 111.736 41.991 111.736 42.2198C111.623 41.991 112.019 41.7051 112.132 41.4763C112.132 41.1904 111.736 41.8766 111.623 41.9338H111.793C111.284 42.3913 111.51 41.5335 111.057 41.7622C111.114 41.5907 111.17 41.7051 111.227 41.6479C111.34 41.3047 111.114 41.6479 111.001 41.7051C110.944 41.5907 110.944 41.4191 111.227 41.076C111.17 40.9044 111.114 41.3047 110.944 41.3619L111.001 41.2476L110.661 41.5335C110.661 41.3619 110.661 41.076 110.831 40.7329C110.548 40.6757 110.265 41.4763 110.039 41.5335C110.095 41.3047 110.208 41.2476 110.322 41.1332L110.152 41.076C110.435 40.7329 110.435 40.9616 110.718 40.5041C110.322 40.9044 110.491 40.5613 110.152 40.7329V40.79C109.869 41.076 109.869 40.7329 109.756 40.7329C109.925 40.5613 110.039 40.6185 110.152 40.5613C110.152 40.3325 109.812 40.3325 109.473 40.6757C109.473 40.5613 109.416 40.3325 109.586 40.2182C109.416 40.0466 109.19 40.7901 109.076 40.5613L109.246 40.2754C109.303 39.7035 108.624 40.5041 108.68 39.9894L108.454 40.3897C108.511 40.2182 108.454 40.1038 108.511 39.9322L108.68 39.875C108.794 39.4747 108.397 40.161 108.454 39.875C108.397 39.9894 108.341 40.3325 108.284 40.4469C108.794 40.4469 108.907 41.1904 109.473 41.0188C109.473 40.9616 109.473 40.9044 109.529 40.8472C109.529 40.9616 109.642 40.9044 109.529 41.1332H109.473C109.642 41.1332 109.416 41.6479 109.473 41.6479C109.642 41.4191 109.586 41.8766 109.812 41.4191L109.699 41.7622C109.812 41.5907 109.925 41.4191 110.039 41.3619C110.095 41.4191 109.982 41.5907 109.869 41.7051C110.039 42.0482 110.378 42.1626 110.718 42.2198L110.491 42.3913C110.491 42.5629 110.944 42.2198 110.548 42.6773C110.831 42.5629 110.774 43.0776 111.17 42.5629C110.887 43.1348 111.284 43.0204 111.51 43.0776C111.793 42.6201 111.736 43.0776 111.963 42.906C111.736 43.2491 111.567 43.1348 111.397 43.3635C111.963 42.9632 111.567 44.107 112.302 43.3063C112.302 43.3635 112.246 43.3635 112.246 43.4207C112.302 43.4779 112.189 43.6495 112.189 43.7067C112.302 43.5923 112.302 43.4207 112.415 43.4779C112.472 43.5351 112.246 43.7638 112.189 43.8782C112.472 43.7638 112.698 43.8782 113.038 43.5351C112.981 43.6495 112.868 43.8782 112.755 43.9354C113.151 43.821 112.868 44.1641 113.208 44.1641C113.151 44.107 112.868 44.5073 112.925 44.2785C112.585 44.7932 113.264 44.4501 113.208 44.7932L113.547 44.5645C113.66 44.6217 113.434 44.8504 113.264 44.9076C113.264 45.1935 113.491 45.1364 113.604 45.2507C113.604 45.3079 113.491 45.3651 113.491 45.3079L113.66 45.4795C113.774 45.4223 113.943 45.3651 114.113 45.1364C113.83 45.1935 113.66 45.2507 113.717 45.022Z" fill="#080809"/>
<path d="M113.604 42.334C113.566 42.4103 113.547 42.4676 113.547 42.5058C113.604 42.4485 113.604 42.3912 113.604 42.334Z" fill="#080809"/>
<path d="M115.98 46.1659C116.433 45.7656 115.811 46.1087 115.867 45.9372C115.98 45.9372 116.263 45.7084 116.376 45.594C115.697 45.9944 116.433 45.3653 116.15 45.3081C116.32 45.1365 116.433 45.1937 116.659 45.0222C116.433 45.0794 116.207 44.965 115.867 45.2509C115.697 45.0794 115.754 44.9078 115.584 44.8506C115.811 44.8506 115.924 44.5647 116.263 44.3931C115.754 44.6219 115.131 44.7934 114.509 45.0794C114.848 44.7362 114.848 44.679 115.188 44.3931C115.245 43.9928 114.792 44.679 114.735 44.3931V44.5075C114.565 44.5075 114.226 44.8506 114 45.0222L114.226 45.1937C114 45.4225 113.886 45.2509 113.83 45.3081C113.49 45.5369 113.717 45.5941 113.49 45.8228C113.717 45.6512 113.717 45.8228 113.83 45.7656L113.717 45.88C113.66 46.1087 114.056 45.8228 114.113 45.9372C114.075 45.9753 114.056 46.0134 114.056 46.0516C114.226 45.9372 114.452 45.8228 114.509 45.8228H114.452C114.848 45.5941 115.188 45.594 115.414 45.1937L115.528 45.4797C115.188 45.7656 114.622 46.2231 114.452 46.1087L114.283 46.2231C114.169 46.5091 114.735 46.2231 115.018 45.88C115.924 45.2509 115.358 46.1659 115.811 45.9944C115.584 46.2231 115.414 46.1659 115.245 46.2803C115.188 46.2803 115.131 46.2231 115.358 46.0516C115.075 45.9944 114.679 46.7378 114.565 46.4519C114.565 46.2231 115.018 46.2803 114.962 46.0516L114.226 46.5091C114.339 46.5662 114.509 46.5663 114.622 46.5663C115.018 46.5663 115.188 46.795 115.245 46.9666C115.301 47.1381 115.301 47.3097 115.301 47.3097C115.867 47.8816 116.433 48.5106 116.942 49.1969C117.169 49.3685 117.169 49.4257 117.961 49.1397C118.074 49.0253 117.961 48.911 118.244 48.7966C117.961 48.911 117.791 48.911 117.735 48.7966C117.961 48.625 117.904 48.8538 117.961 48.7966V48.7394C118.074 48.6822 118.187 48.625 118.244 48.6822C118.584 48.3391 118.301 48.0531 117.735 48.2819C117.904 47.996 118.187 48.1103 118.414 48.0531C118.357 47.5384 118.131 47.2525 117.904 46.8522C117.452 47.1381 117.621 47.0238 117.282 47.1381L117.395 46.9666C117.339 47.0238 116.999 47.1953 116.942 47.3669C117.112 46.9094 116.207 47.5385 115.867 47.5385L116.093 47.3669C115.98 47.2525 115.924 47.2525 115.754 47.2525C116.037 46.7378 115.924 47.3669 116.433 46.9094H116.32C116.546 46.795 116.942 46.5091 117.169 46.5091C116.659 46.5662 117.112 46.1087 116.659 46.1087C116.942 45.9372 117.282 45.9944 117.339 45.9944C117.282 45.88 117.056 45.9372 117.225 45.7084L116.886 45.9372C116.773 45.8228 117.169 45.7084 117.339 45.5369C117.056 45.2509 116.32 46.2231 115.98 46.1659Z" fill="#080809"/>
<path d="M113.604 43.3638C113.604 43.421 113.66 43.421 113.717 43.421C113.717 43.421 113.66 43.3638 113.604 43.3638Z" fill="#080809"/>
<path d="M114.622 43.3064C114.66 43.2682 114.698 43.2301 114.736 43.1919C114.736 43.2492 114.679 43.2492 114.622 43.3064Z" fill="#080809"/>
<path d="M115.075 42.9634C114.962 43.0778 114.905 43.0778 114.735 43.1921C114.849 43.1921 114.962 43.2493 115.075 42.9634Z" fill="#080809"/>
<path d="M112.755 41.8188C112.811 41.5911 112.528 41.7619 112.472 41.7049C112.415 41.8757 112.585 41.8757 112.755 41.8188Z" fill="#080809"/>
<path d="M114.056 41.4189C113.943 41.4761 113.886 41.4761 113.943 41.5905L113.49 41.9908C113.49 42.2196 113.943 41.5905 114.056 41.4189Z" fill="#080809"/>
<path d="M114.849 41.9912L114.566 42.0484L114.622 42.1056C114.452 42.2772 114.339 42.3343 114.169 42.4487C114.339 42.3915 114.566 42.2772 114.849 41.9912Z" fill="#080809"/>
<path d="M114 42.3913H114.057C114.114 42.3341 114.171 42.2768 114 42.3913Z" fill="#080809"/>
<path d="M114.113 42.4489C114.113 42.4489 114.17 42.4489 114.17 42.3916L114.113 42.4489C114.057 42.4489 114 42.5061 114.113 42.4489Z" fill="#080809"/>
<path d="M114.735 42.2773L114.963 42.3919V42.2201C114.679 42.5064 115.02 41.991 114.735 42.2773Z" fill="#080809"/>
<path d="M115.471 43.4209L115.245 43.7068C115.301 43.8784 115.98 43.4781 115.641 43.9356C115.754 43.7068 116.037 43.764 115.98 43.5353C115.697 43.7068 115.471 43.5353 115.471 43.4209Z" fill="#080809"/>
<path d="M115.528 44.2213C115.415 44.2784 115.415 44.3356 115.358 44.45C115.358 44.5072 115.528 44.45 115.584 44.3356C115.245 44.5644 115.754 44.0497 115.528 44.2213Z" fill="#080809"/>
<path d="M116.037 44.7359C115.98 44.6787 115.924 44.6787 115.924 44.7931C116.037 44.9074 116.32 44.5643 116.546 44.5071C116.603 44.2212 116.094 44.5071 116.037 44.7359Z" fill="#080809"/>
<path d="M114.735 47.1951C114.962 46.9663 114.849 46.9663 114.792 46.9663C114.849 47.0235 114.792 47.1379 114.735 47.1951Z" fill="#080809"/>
<path d="M116.716 45.651V45.5366L116.32 45.8226L116.716 45.651Z" fill="#080809"/>
<path d="M117.396 46.1088L117.68 46.0515L117.566 45.937L117.396 46.1088Z" fill="#080809"/>
<path d="M117.452 46.3376L117.566 46.4521L117.623 46.3376C117.623 46.1658 117.452 46.3376 117.452 46.3376Z" fill="#080809"/>
<path d="M117.735 46.6232C117.679 46.6232 117.735 46.5659 117.792 46.5659H117.565L117.735 46.6232Z" fill="#080809"/>
</g>
<path d="M76.8186 84.4251C76.8186 84.4251 79.8746 94.0327 88.7596 101.982L83.2135 116.851C83.2135 116.851 73.9324 116.565 74.2153 123.37H84.402C84.402 123.37 88.42 119.482 88.7596 118.967C89.0992 118.395 98.0974 99.6372 98.0974 99.6372L91.5326 78.4775C91.5326 78.5347 75.4038 80.9938 76.8186 84.4251Z" fill="#89A3B2"/>
<path d="M77.0451 120.454C77.0451 120.454 76.0831 121.54 76.7622 123.37" stroke="#1B1C1E" stroke-miterlimit="10"/>
<path d="M38.3923 120.282C38.3923 120.282 37.3171 121.597 37.8264 123.37" stroke="#1B1C1E" stroke-miterlimit="10"/>
<path d="M4.55003 18.0865C4.55003 18.0865 -2.92019 0.930044 1.6638 0.358161C5.39891 -0.0993448 15.9251 12.1961 15.9251 12.1961C15.9251 12.1961 5.85165 18.83 4.55003 18.0865Z" fill="#89A3B2"/>
<path d="M25.1494 12.6539C25.1494 12.6539 29.7334 6.76351 35.6756 3.04627C41.6178 -0.670967 40.9387 3.50377 39.6937 8.2504C38.2223 13.6261 34.8833 19.5737 34.8833 19.5737C34.8833 19.5737 26.2813 14.7699 25.1494 12.1964" fill="#89A3B2"/>
<path d="M7.83223 36.8444C6.64379 56.6887 12.1899 77.1621 28.4319 81.1081C44.674 85.0541 77.5542 84.425 77.5542 84.425C82.7042 94.8333 90.9667 99.7515 90.9667 99.7515L85.081 117.365C77.5542 117.937 78.4597 123.427 78.4597 123.427H89.3821C89.3821 123.427 118.923 75.5609 119.263 59.7769C119.602 43.9929 110.548 36.7872 84.5151 35.3003C58.4825 33.8134 35.7889 37.7022 35.7889 37.7022L33.7516 34.3281C33.7516 34.3281 37.9395 29.1812 37.7131 24.2058C37.5999 22.147 36.9208 20.0311 35.6192 18.1439C34.6005 16.657 33.1857 15.3416 31.3747 14.2551C29.9599 13.4544 28.3753 12.8254 26.5078 12.425C22.7727 11.6244 18.981 11.4528 15.5854 11.796C14.7931 11.8532 14.0574 11.9675 13.3217 12.1391C12.303 12.3107 11.341 12.5394 10.4921 12.8254C9.30364 13.2257 8.17179 13.6832 7.20972 14.2551C2.22957 17.1717 -0.260497 23.4624 1.55046 28.7809C3.41802 34.1566 7.83223 36.8444 7.83223 36.8444Z" fill="#89A3B2"/>
<path d="M77.5542 84.4248C82.7041 94.8331 90.9666 99.7513 90.9666 99.7513L85.081 117.365" stroke="#1B1C1E" stroke-miterlimit="10"/>
<path d="M15.5289 11.7959C14.7366 11.8531 14.0009 11.9675 13.2652 12.139C12.2465 12.3106 11.2844 12.5393 10.4355 12.8253" stroke="#1B1C1E" stroke-miterlimit="10"/>
<path d="M7.83203 36.8442L8.8507 37.5305" stroke="#1B1C1E" stroke-miterlimit="10"/>
<path d="M19.7168 35.7576C19.7168 35.7576 20.5657 36.3866 22.0371 36.3295C23.5085 36.2723 24.0178 35.5288 24.0178 35.5288C24.0178 35.5288 23.1689 33.6988 21.8107 33.5272C20.4525 33.2985 19.7168 35.7576 19.7168 35.7576Z" fill="#5E6073"/>
<path d="M15.8683 27.0651C17.0568 26.7791 17.7359 25.521 17.3397 24.3772C16.9436 23.1763 16.1513 21.8038 14.5667 21.2319C12.9821 20.7172 11.5107 20.9459 10.4921 21.2891C9.47339 21.6322 8.85087 22.7188 9.13383 23.8053C9.41679 24.8347 10.1525 26.0357 11.7371 26.7791C13.1519 27.4082 14.6799 27.2938 15.8683 27.0651Z" fill="#B2D3BE"/>
<path d="M27.0171 26.4361C25.6023 26.3217 24.7534 24.7776 25.3194 23.5195C25.8853 22.2614 26.9605 20.8888 28.7149 20.4885C30.0165 20.2026 31.0352 20.2598 31.7709 20.4885C33.0159 20.8317 33.6385 22.3185 33.0159 23.4623C32.5632 24.3201 31.7709 25.2923 30.5259 25.8642C29.2808 26.4361 28.0358 26.5505 27.0171 26.4361Z" fill="#B2D3BE"/>
<path d="M77.5544 84.425C77.5544 84.425 76.3659 82.2519 76.0264 80.9365" stroke="#1B1C1E" stroke-miterlimit="10"/>
<path d="M81.459 123.37C81.459 123.37 81.3458 121.712 82.4211 120.568" stroke="#1B1C1E" stroke-miterlimit="10"/>
<path d="M86.326 120.454C86.326 120.454 85.1376 121.426 85.2508 123.37" stroke="#1B1C1E" stroke-miterlimit="10"/>
<path d="M14.0007 26.1501C14.5008 26.1501 14.9062 25.254 14.9062 24.1486C14.9062 23.0431 14.5008 22.147 14.0007 22.147C13.5006 22.147 13.0952 23.0431 13.0952 24.1486C13.0952 25.254 13.5006 26.1501 14.0007 26.1501Z" fill="#1B1C1E"/>
<path d="M28.5451 25.5212C29.0452 25.5212 29.4506 24.6251 29.4506 23.5197C29.4506 22.4142 29.0452 21.5181 28.5451 21.5181C28.045 21.5181 27.6396 22.4142 27.6396 23.5197C27.6396 24.6251 28.045 25.5212 28.5451 25.5212Z" fill="#1B1C1E"/>
<path d="M21.8558 32.4866V33.5617C21.8558 33.5617 21.7483 34.0993 20.4184 35.3403C19.5638 36.2038 16.8983 37.1188 15.8344 35.1802C14.7704 33.2415 17.0058 30.4907 19.9373 30.4907C22.8688 30.4907 21.8558 32.4866 21.8558 32.4866Z" fill="#B8BDC4"/>
<path d="M21.8556 33.5618C21.8556 33.5618 22.7611 34.6942 23.4006 35.1231C23.8816 35.449 25.2682 36.6328 26.4906 36.0381C27.7695 35.5005 28.1431 33.6133 27.5545 32.3723C26.9659 31.1313 25.2116 30.2163 23.61 30.4851C22.0084 30.7024 21.6915 31.5602 21.85 33.5561L21.8556 33.5618Z" fill="#B8BDC4"/>
<path d="M21.8671 32.6124C21.8671 32.6124 19.4902 31.4686 19.2638 30.3248C19.0374 29.1811 21.3011 28.8379 22.7725 29.1239C24.6401 29.4098 24.9796 30.8395 21.8671 32.6124Z" fill="#1B1C1E"/>
<path d="M35.4492 75.332C35.4492 75.332 36.3547 78.363 37.5431 82.6521C39.6371 90.1438 42.6365 101.353 43.259 106.214C44.2777 113.82 44.0513 117.365 44.0513 117.365C44.0513 117.365 36.2981 117.022 36.5811 123.37H47.9562C48.5787 123.37 51.1253 115.993 51.1253 115.993C51.1253 115.993 53.5022 95.4623 54.7473 84.0247C55.2 80.0787 55.483 77.2764 55.483 76.6474" fill="#89A3B2"/>
<path d="M37.5434 82.6523C39.6373 90.144 42.6367 101.353 43.2592 106.214C44.2779 113.82 44.0515 117.366 44.0515 117.366C44.0515 117.366 36.2983 117.022 36.5813 123.37" stroke="#1B1C1E" stroke-miterlimit="10"/>
<path d="M38.675 122.97C38.675 122.97 38.5618 121.254 39.9766 120.282" stroke="#1B1C1E" stroke-miterlimit="10"/>
<path d="M42.9197 121.14C42.9197 121.14 42.2971 121.483 42.3537 123.37" stroke="#1B1C1E" stroke-miterlimit="10"/>
<path d="M35.4492 75.332C35.4492 75.332 36.3547 78.363 37.5431 82.6521" stroke="#1B1C1E" stroke-miterlimit="10"/>
<path d="M54.6909 84.0819C55.1437 80.1359 55.4266 77.3337 55.4266 76.7046" stroke="#1B1C1E" stroke-miterlimit="10"/>
<mask id="mask2_390_3398" style="mask-type:luminance" maskUnits="userSpaceOnUse" x="29" y="34" width="7" height="5">
<path d="M35.8455 37.6451L29.9033 38.7317C30.5824 37.5879 33.8082 34.271 33.8082 34.271L35.8455 37.6451Z" fill="white"/>
</mask>
<g mask="url(#mask2_390_3398)">
<path d="M32.6196 35.8726C32.6765 35.8726 32.7333 35.9298 32.7333 35.9298C32.7333 35.9871 32.6765 35.9298 32.6196 35.8726Z" fill="#080809"/>
<path d="M29.9604 38.3318L29.8467 38.2173C29.9604 38.2173 29.9604 38.2745 29.9604 38.3318Z" fill="#080809"/>
<path d="M33.6387 36.5586C33.6955 36.5586 33.7524 36.6159 33.866 36.6731L33.6387 36.5586Z" fill="#080809"/>
<path d="M33.8647 37.3022L33.9209 37.3589C33.8835 37.3589 33.8647 37.34 33.8647 37.3022Z" fill="#080809"/>
<path d="M32.5635 35.8149L32.6197 35.8716C32.5822 35.8716 32.5635 35.8527 32.5635 35.8149Z" fill="#080809"/>
<path d="M33.8103 36.3301C33.7507 36.3301 33.7507 36.3899 33.8103 36.3301V36.3301Z" fill="#080809"/>
<path d="M34.2045 34.2137C34.544 34.614 34.3176 34.1565 34.6572 34.4996C34.544 34.4996 34.4308 34.4424 34.6006 34.6712C34.827 34.8427 34.6572 34.5568 34.9968 34.8427L34.827 34.7856C34.9402 34.9571 35.2797 35.1287 35.1665 35.1859C34.6572 34.8427 35.1099 35.5862 34.9968 35.5862H35.0533L35.1665 35.8721L35.1099 35.8149C35.2797 36.0437 35.3363 36.2725 35.2231 36.3296C34.9402 36.1009 34.827 36.5584 34.6006 36.3868C34.6761 36.3868 34.7138 36.3487 34.7138 36.2725L34.4308 35.9865C34.3742 36.1009 34.7138 36.2724 34.4308 36.1581C34.0347 35.7578 34.544 36.0437 34.544 35.9293C34.4308 35.8721 34.3176 35.8149 34.2611 35.8149C34.3742 35.7006 34.3176 35.4146 34.827 35.7578C34.7704 35.6434 34.6006 35.4718 34.544 35.4718C34.8836 35.5862 34.3742 35.1859 34.6572 35.3002C34.2611 34.9571 34.3176 35.3003 34.0347 35.1287C34.2045 35.529 33.8083 35.4146 33.6385 35.4718C33.9215 35.7578 34.2045 35.8721 34.3176 36.1009C34.3742 36.3868 34.0347 36.1009 33.8649 35.9865C33.8649 36.1581 34.3176 36.444 34.1479 36.6156L34.3742 36.73C34.6572 37.1875 34.1479 36.6728 34.1479 36.7871C34.0913 36.6728 33.9781 36.5584 34.0347 36.5012C33.9215 36.3296 33.8083 36.3296 33.7517 36.3296C33.5253 36.1581 33.3556 35.9865 33.3556 36.1581C33.6385 36.3296 33.4688 36.3868 33.5254 36.5012L33.5819 36.5584C33.4688 36.5584 33.4122 36.6156 33.3556 36.6156L33.4122 36.6728C33.299 36.6156 33.016 36.3296 32.9594 36.444C33.0726 36.5584 33.4688 36.7871 33.299 36.8443C33.4688 37.0159 33.5819 36.9587 33.5819 36.8443C33.5819 36.9587 33.8083 37.3018 33.9215 37.2447C34.0913 37.4734 33.7517 37.2447 33.8083 37.359C33.7517 37.3018 33.6951 37.2447 33.6385 37.1303C33.9215 37.4162 33.4688 37.3018 33.299 37.0731L33.5254 37.1875C33.299 36.9587 33.0726 36.8443 32.9594 36.6728C33.2424 37.0731 32.5633 36.6728 32.7896 37.0731L32.6765 36.8443C32.6199 37.1303 32.0539 36.7871 31.8276 36.8443C31.9974 36.9015 32.3369 37.359 32.3369 37.1303C32.2237 37.359 32.6199 37.5878 32.7331 37.8737C32.7331 38.1597 32.3369 37.5306 32.1671 37.4162H32.3369C31.8276 37.0159 32.0539 37.8165 31.6578 37.645C31.771 37.8165 31.771 37.7022 31.8276 37.7022C31.9408 38.0453 31.7144 37.7022 31.6012 37.645C31.5446 37.7593 31.5446 37.9881 31.8276 38.274C31.771 38.4456 31.7144 38.0453 31.5446 37.9881L31.6012 38.1025L31.2051 37.8165C31.2051 37.9881 31.2051 38.274 31.4314 38.6172C31.2051 38.6744 30.8089 37.9309 30.5825 37.8737C30.6391 38.1025 30.7523 38.1025 30.8655 38.274L30.6957 38.3312C30.9787 38.6744 30.9787 38.4456 31.2617 38.8459C30.8655 38.5028 31.0353 38.8459 30.6957 38.6172V38.56C30.4128 38.274 30.4128 38.6172 30.2996 38.6172C30.4694 38.7887 30.5825 38.7315 30.6957 38.7315C30.6957 38.9603 30.3562 38.9603 30.0166 38.6172C30.0166 38.7315 29.96 38.9603 30.1864 39.0747C30.0166 39.3034 29.7336 38.56 29.6205 38.7887L29.8468 39.0747C29.9034 39.6466 29.2243 38.9031 29.2809 39.4178L29.0545 39.0175C29.1111 39.189 29.0545 39.3034 29.1677 39.475L29.3375 39.5322C29.4507 39.8753 29.0545 39.3034 29.1111 39.5894C29.0545 39.475 28.998 39.189 28.8848 39.0175C29.3941 39.0175 29.4507 38.274 30.0732 38.3884C30.0732 38.4456 30.1298 38.5028 30.1864 38.56C30.1864 38.4456 30.2996 38.5028 30.1864 38.274H30.1298C30.2996 38.274 30.0732 37.7593 30.1298 37.7593C30.3562 37.9881 30.243 37.5306 30.5259 37.9881L30.4128 37.7022C30.5259 37.8737 30.6957 38.0453 30.7523 38.1025C30.8089 38.0453 30.6957 37.8737 30.5259 37.7593C30.6957 37.4162 30.9787 37.2447 31.3182 37.1875L31.0919 37.0731C31.0919 36.9587 31.5446 37.2447 31.1485 36.7871C31.4314 36.9015 31.3748 36.3868 31.771 36.9015C31.488 36.3296 31.8842 36.444 32.1105 36.3868C32.4501 36.8443 32.3369 36.3868 32.5633 36.5584C32.3369 36.2153 32.1671 36.3296 31.9408 36.1009C32.5067 36.444 32.0539 35.3574 32.8462 36.1009C32.8462 36.0437 32.7896 36.0437 32.7896 35.9865C32.8462 35.9293 32.7331 35.7578 32.7331 35.7006C32.9028 35.8149 32.8462 35.9293 33.016 35.9293C33.0726 35.8721 32.7896 35.6434 32.7331 35.529C33.016 35.5862 33.2424 35.529 33.5819 35.8149C33.5253 35.7006 33.4122 35.4718 33.299 35.4718C33.6951 35.529 33.4122 35.2431 33.7517 35.2431C33.6951 35.3003 33.4122 34.9571 33.4122 35.1859C33.0726 34.6712 33.7517 35.0143 33.6385 34.614L33.9781 34.8427C34.0913 34.7856 33.8649 34.5568 33.6951 34.4996C33.6385 34.2137 33.9215 34.2709 34.0347 34.1565C33.9781 34.0993 33.9215 34.0421 33.9215 34.0993L34.0347 33.9277C34.1479 33.9849 34.3176 34.0421 34.4874 34.2137C34.3176 34.0421 34.1479 33.9849 34.2045 34.2137Z" fill="#080809"/>
<path d="M34.2048 36.9594C34.1669 36.883 34.1479 36.8258 34.1479 36.7876C34.2048 36.8449 34.2048 36.9021 34.2048 36.9594Z" fill="#080809"/>
<path d="M36.4116 33.0131C36.8643 33.4134 36.2418 33.0703 36.2984 33.2419C36.4116 33.2419 36.6945 33.4706 36.8077 33.585C36.1286 33.1847 36.8643 33.8138 36.5813 33.8709C36.7511 34.0425 36.8643 33.9853 37.0907 34.1569C36.8643 34.1569 36.6379 34.2141 36.2984 33.9853C36.1852 34.1569 36.1852 34.3856 36.072 34.3856C36.2984 34.3856 36.4116 34.6716 36.8077 34.786C36.2984 34.5572 35.6193 34.4428 35.0533 34.2141C35.3929 34.5572 35.4495 34.6144 35.789 34.8432C35.8456 35.2435 35.3929 34.6144 35.3363 34.9003V34.786C35.1665 34.786 34.827 34.5 34.544 34.2713L34.7704 34.0997C34.544 33.871 34.4308 34.0425 34.3742 34.0425C34.0347 33.8138 34.261 33.7566 34.0347 33.585C34.261 33.7566 34.261 33.585 34.3742 33.6422L34.261 33.5278C34.2045 33.2991 34.6006 33.585 34.6572 33.4706L34.6006 33.4135C34.7704 33.5278 34.9967 33.6422 35.0533 33.6422H34.9967C35.3929 33.871 35.7324 33.8138 35.9588 34.2141L36.0154 33.9281C35.6193 33.6422 35.0533 33.2419 34.9402 33.3563L34.7704 33.2419C34.6572 33.0131 35.2231 33.2419 35.5061 33.5278C36.4682 34.1569 35.789 33.2419 36.2984 33.3563C36.072 33.1847 35.9022 33.1847 35.7324 33.0703C35.6759 33.0703 35.6193 33.1275 35.8456 33.2991C35.5627 33.4134 35.1099 32.67 35.0533 32.9559C35.1099 33.1847 35.5627 33.1275 35.4495 33.2991L34.7138 32.8988C34.827 32.8416 34.9967 32.8416 35.1099 32.7844C35.5061 32.7272 35.6759 32.5556 35.7324 32.3841C35.789 32.2125 35.7324 32.0409 35.7324 32.0409C36.2984 31.4119 36.8077 30.7828 37.2604 30.0965C37.4868 29.925 37.4868 29.8106 38.2791 30.0965C38.3923 30.2109 38.2791 30.3253 38.5621 30.4397C38.2791 30.3253 38.0527 30.3253 38.0527 30.4968C38.3357 30.6684 38.2225 30.4397 38.2791 30.4968V30.554C38.4489 30.6112 38.5055 30.6112 38.5621 30.6112C38.9016 30.9544 38.6753 31.2403 38.1093 31.0115C38.3357 31.2975 38.5621 31.1831 38.7884 31.2403C38.7319 31.755 38.5621 32.0409 38.3357 32.4984C37.883 32.2125 38.0527 32.3841 37.7132 32.2125L37.883 32.3269C37.8264 32.2697 37.4868 32.0981 37.4302 31.9837C37.6 32.4413 36.6379 31.8694 36.355 31.8694L36.5813 32.0409C36.4681 32.1553 36.4116 32.1553 36.2418 32.2125C36.5247 32.7272 36.4116 32.0981 36.9209 32.5556H36.8077C37.0341 32.67 37.4302 32.8988 37.6566 32.9559C37.1473 32.8988 37.6 33.3563 37.1473 33.3563C37.4302 33.5278 37.7698 33.4706 37.8264 33.4135C37.8264 33.5278 37.5434 33.5278 37.7698 33.6994L37.4302 33.4706C37.317 33.585 37.7132 33.6422 37.883 33.8709C37.5434 33.8709 36.7511 32.8987 36.4116 33.0131Z" fill="#080809"/>
<path d="M34.2046 35.8722C34.2046 35.8149 34.2614 35.8149 34.3183 35.8149C34.2804 35.8531 34.2425 35.8722 34.2046 35.8722Z" fill="#080809"/>
<path d="M35.2231 35.8726L35.3368 35.9871C35.2989 35.9489 35.261 35.9107 35.2231 35.8726Z" fill="#080809"/>
<path d="M35.676 36.2156C35.5628 36.1012 35.5062 36.1012 35.3364 35.9868C35.4496 36.044 35.5628 35.9296 35.676 36.2156Z" fill="#080809"/>
<path d="M31.7146 38.3316C31.7146 38.5031 31.5448 38.2744 31.375 38.0456C31.4882 37.9313 31.6014 38.2744 31.7146 38.3316Z" fill="#080809"/>
<path d="M33.4122 37.4735C33.4688 37.7012 33.1859 37.5304 33.1293 37.5873C33.0727 37.4166 33.2424 37.4166 33.4122 37.4735Z" fill="#080809"/>
<path d="M34.7139 37.817C34.6007 37.7598 34.5441 37.7598 34.6007 37.6454L34.1479 37.3023C34.0913 37.0735 34.5441 37.6454 34.7139 37.817Z" fill="#080809"/>
<path d="M35.4496 37.245L35.1667 37.1879L35.2232 37.1307C35.0535 37.0163 34.9403 36.9019 34.7705 36.8447C34.9403 36.8447 35.1667 36.9019 35.4496 37.245Z" fill="#080809"/>
<path d="M34.6006 36.8447H34.6574C34.7143 36.8447 34.7711 36.9592 34.6006 36.8447Z" fill="#080809"/>
<path d="M34.714 36.7872C34.6572 36.7299 34.6572 36.7872 34.714 36.7872V36.7872Z" fill="#080809"/>
<path d="M35.3364 36.9592L35.5638 36.8447V37.0165C35.3364 36.7302 35.6206 37.1883 35.3364 36.9592Z" fill="#080809"/>
<path d="M36.0154 35.7579L35.7891 35.472C35.8457 35.3004 36.5248 35.6435 36.1852 35.186C36.2984 35.3576 36.5814 35.3576 36.5248 35.5864C36.2418 35.472 36.072 35.5864 36.0154 35.7579Z" fill="#080809"/>
<path d="M36.0721 34.9572C35.9589 34.9001 35.9589 34.8429 35.9023 34.7285C35.9023 34.6713 36.0721 34.7285 36.1853 34.8429C35.7326 34.6141 36.2985 35.1288 36.0721 34.9572Z" fill="#080809"/>
</g>
<mask id="mask3_390_3398" style="mask-type:luminance" maskUnits="userSpaceOnUse" x="54" y="77" width="14" height="8">
<path d="M67.594 84.4251C63.8589 84.3679 59.3881 84.3107 54.6909 84.0819C55.0305 80.765 55.3134 78.1916 55.4266 77.105C57.6337 78.6491 63.4062 82.4807 67.594 84.4251Z" fill="white"/>
</mask>
<g mask="url(#mask3_390_3398)">
<path d="M56.2754 81.3369C56.3322 81.3369 56.3891 81.3942 56.5028 81.3942L56.2754 81.3369Z" fill="#080809"/>
<path d="M56.8979 80.8213C56.9354 80.8213 56.9541 80.8024 56.9541 80.7646C56.9541 80.8213 56.8979 80.8213 56.8979 80.8213Z" fill="#080809"/>
<path d="M55.5396 83.6241C56.0489 83.4525 55.5962 83.7385 56.0489 83.6241C55.9358 83.5669 55.8226 83.5669 56.1055 83.4525C56.3885 83.4525 56.1055 83.6241 56.5583 83.5097L56.3885 83.4525C56.5583 83.3381 56.9544 83.3381 56.8978 83.281C56.3319 83.3381 57.0676 82.9378 56.9544 82.8806H57.011L57.2374 82.6519H57.294H57.1808C57.4638 82.5375 57.6335 82.3659 57.5203 82.2516C57.1808 82.2516 57.3506 81.9084 57.0676 81.9084C57.1431 81.9466 57.1619 82.0038 57.1242 82.08L56.7281 82.1372C56.7281 82.0228 57.0676 82.0228 56.8412 81.9656C56.3319 82.08 56.8978 82.1372 56.8412 82.1944C56.7281 82.1944 56.6149 82.1944 56.5583 82.1372C56.5583 82.3088 56.4451 82.4803 56.9544 82.4803C56.8412 82.5375 56.6149 82.5947 56.5583 82.5375C56.8978 82.5947 56.2753 82.7091 56.5583 82.7091C56.0489 82.7663 56.2753 82.5375 55.9358 82.4803C56.2753 82.2516 55.8792 82.1372 55.766 81.9656C56.1055 81.8513 56.4451 81.9084 56.6715 81.7941C56.8978 81.5653 56.4451 81.6797 56.2187 81.6225C56.3319 81.5081 56.8412 81.5081 56.7846 81.2794L57.0676 81.3366C57.5769 81.1078 56.8412 81.2794 56.9544 81.165C56.8412 81.2222 56.6715 81.2222 56.7281 81.3366C56.5583 81.3937 56.4451 81.3366 56.4451 81.2794C56.1621 81.2794 55.9358 81.3366 56.0489 81.2222C56.3885 81.2222 56.2753 81.1078 56.3885 81.0506H56.4451C56.3319 80.9934 56.3319 80.8791 56.2753 80.8219H56.3319C56.2187 80.7647 55.8226 80.8219 55.8792 80.7075C56.0489 80.7075 56.4451 80.7075 56.3885 80.6503C56.6149 80.5931 56.6715 80.7075 56.6149 80.8219C56.6715 80.7075 57.0676 80.5931 57.0676 80.7075C57.3506 80.5931 56.8978 80.6503 57.0676 80.5359C56.9544 80.5931 56.8978 80.5931 56.7846 80.5931C57.1808 80.5359 56.7846 80.3644 56.5017 80.4215L56.7281 80.4787C56.3885 80.5359 56.1621 80.4787 55.9924 80.5359C56.5017 80.3644 55.7094 80.3072 56.1055 80.1356L55.8792 80.25C55.9924 79.964 55.3698 79.9069 55.2001 79.6781C55.3698 79.7353 55.9358 79.6209 55.766 79.7925C55.8226 79.5637 56.2753 79.6209 56.5583 79.5065C56.7281 79.2778 56.0489 79.5065 55.8792 79.5065L55.9924 79.6209C55.3132 79.5637 56.0489 79.1634 55.5962 78.9918C55.766 78.9347 55.7094 79.049 55.766 79.049C56.0489 78.8775 55.6528 78.9346 55.5396 78.9346C55.5962 78.8203 55.7094 78.6487 56.1055 78.6487C56.1621 78.5343 55.8792 78.7059 55.7094 78.6487L55.8226 78.5915L55.3698 78.5343C55.483 78.42 55.6528 78.2484 56.0489 78.134C55.9358 77.9053 55.1435 78.1912 54.9737 78.0768C55.1435 77.9624 55.2566 78.0196 55.4264 78.0196L55.3698 77.8481C55.8226 77.8481 55.5962 78.0196 56.1621 77.9053C55.5962 77.8481 55.9924 77.7337 55.5962 77.6193H55.5396C55.2001 77.6193 55.3698 77.3906 55.3132 77.2762C55.5396 77.2762 55.5962 77.3906 55.6528 77.4478C55.8226 77.2762 55.5962 77.0474 55.0869 76.9903C55.1435 76.9331 55.3132 76.7615 55.5396 76.8187C55.5962 76.5899 54.8605 76.8187 54.9737 76.5899L55.3132 76.5327C55.766 76.2468 54.8039 76.1896 55.2001 75.9037L54.7473 75.9609C54.9171 75.9037 54.9737 75.7893 55.1435 75.7321L55.3132 75.7893C55.6528 75.6177 54.9737 75.7321 55.2001 75.5605C55.0869 75.5605 54.8039 75.7321 54.6341 75.7321C54.9737 76.1324 54.4078 76.7043 54.9171 77.1046C54.9737 77.1046 55.0303 77.0474 55.0869 77.0474C54.9737 77.1046 55.1435 77.1618 54.9171 77.219H54.8605C54.9737 77.3334 54.4644 77.5049 54.4644 77.5621C54.7473 77.5621 54.4078 77.8481 54.8605 77.6765L54.5775 77.7909C54.7473 77.7909 55.0303 77.7337 55.0869 77.7909C55.0869 77.9053 54.8605 77.9053 54.7473 77.8481C54.6341 78.1912 54.7473 78.5343 54.9171 78.8775L54.6907 78.8203C54.5775 78.9347 55.1435 79.049 54.5209 79.049C54.8039 79.1634 54.4078 79.5065 55.0303 79.3922C54.4644 79.6209 54.8605 79.8497 54.9737 80.0212C55.483 79.9069 55.1435 80.1928 55.4264 80.1928C55.0303 80.3072 54.9737 80.0784 54.6907 80.1356C55.3698 80.25 54.3512 80.8791 55.4264 80.7075C55.3887 80.7456 55.351 80.7647 55.3132 80.7647C55.3132 80.8219 55.1435 80.879 55.1435 80.9362C55.3132 80.9362 55.3698 80.8219 55.483 80.8791C55.483 80.9934 55.1435 80.9934 55.0303 81.0506C55.3132 81.165 55.4264 81.3937 55.8792 81.3366C55.766 81.3937 55.5396 81.5081 55.483 81.4509C55.8792 81.6225 55.483 81.6797 55.7094 81.9084C55.6528 81.8512 55.2566 81.9656 55.4264 81.7941C54.8605 82.0228 55.5962 82.1372 55.3698 82.4231H55.766C55.8792 82.5375 55.483 82.5947 55.3698 82.5375C55.2001 82.8235 55.4264 82.8806 55.483 82.995C55.4264 82.995 55.3698 83.0522 55.3698 82.995L55.4264 83.2238C55.5396 83.2238 55.7094 83.281 55.9924 83.1666C55.5396 83.7957 55.4264 83.7385 55.5396 83.6241Z" fill="#080809"/>
<path d="M56.9552 81.3369C56.8794 81.3751 56.8226 81.4133 56.7847 81.4514C56.8984 81.3942 56.9552 81.3942 56.9552 81.3369Z" fill="#080809"/>
<path d="M56.9549 85.6829C57.5208 85.5113 56.8417 85.5685 56.9549 85.4541C57.068 85.5113 57.4076 85.3969 57.5774 85.3397C56.7851 85.3969 57.6906 85.1682 57.4642 84.9966C57.6906 84.9394 57.7472 84.9966 58.0301 84.9394C57.8038 84.8822 57.6906 84.7107 57.2378 84.825C57.1812 84.6535 57.2944 84.4247 57.1812 84.3675C57.4076 84.4819 57.5774 84.3103 57.9735 84.3103C57.4642 84.3103 56.7851 84.0816 56.1626 84.0244C56.6153 83.91 56.6719 83.8528 57.068 83.7956C57.2944 83.5097 56.6153 83.8528 56.7285 83.5669L56.6719 83.6813C56.5021 83.6241 56.106 83.6813 55.7664 83.7385L55.8796 83.9672C55.54 84.0244 55.5966 83.8528 55.4835 83.8528C55.0873 83.8528 55.2571 84.0816 54.9741 84.0816C55.2571 84.0816 55.2005 84.196 55.3137 84.2532L55.1439 84.3103C54.9741 84.4819 55.4269 84.4247 55.4835 84.5391C55.4269 84.5391 55.4269 84.5963 55.3703 84.5963C55.54 84.5963 55.823 84.5963 55.8796 84.6535L55.823 84.5963C56.2192 84.5963 56.5587 84.7678 56.9549 84.4819L56.8983 84.7678C56.4455 84.825 55.7664 84.9394 55.7098 84.825H55.54C55.3137 84.9966 55.9362 85.0538 56.3323 84.8822C57.4076 84.7107 56.5021 85.2825 56.9549 85.3969C56.6719 85.5113 56.5587 85.3969 56.3323 85.3969C56.2758 85.3397 56.2757 85.2825 56.5021 85.2254C56.2757 84.9966 55.5966 85.5113 55.6532 85.1682C55.7664 84.9966 56.1626 85.2254 56.1626 84.9966L55.3137 85.0538C55.3703 85.1682 55.54 85.2825 55.6532 85.3397C56.3323 85.7972 55.9928 86.3119 55.9928 86.3119C56.3323 87.1698 56.6153 87.9704 57.0115 88.771C57.1812 88.9998 57.1812 89.1142 58.0301 88.9426C58.1433 88.8282 58.0301 88.7138 58.3131 88.6566C58.0301 88.7138 57.8037 88.6566 57.8037 88.5423C58.0867 88.4279 57.9735 88.5995 58.0301 88.5423V88.4851C58.1999 88.4279 58.2565 88.4279 58.3131 88.4851C58.7092 88.1991 58.4829 87.9704 57.9169 88.0276C58.1433 87.7988 58.3697 87.9704 58.596 87.9704C58.6526 87.4557 58.5395 87.1697 58.4263 86.7694C57.9169 86.8838 58.0867 86.8266 57.7472 86.8838L57.9169 86.7694C57.8037 86.8266 57.4642 86.8266 57.4076 86.9982C57.7472 86.6551 56.6719 86.8838 56.3889 86.7694L56.6719 86.7122C56.5587 86.5979 56.5587 86.5407 56.3889 86.4263C56.8417 86.0832 56.5021 86.5979 57.1246 86.3691L57.0115 86.3119C57.2944 86.2547 57.6906 86.1975 57.9169 86.1975C57.4642 86.0832 57.9735 85.8544 57.634 85.6829C57.9169 85.6257 58.1999 85.7972 58.2565 85.8544C58.2565 85.74 58.0301 85.6829 58.2565 85.6257L57.8603 85.6829C57.8038 85.5685 58.1999 85.6257 58.4263 85.5113C58.3131 85.3397 57.2944 85.9116 56.9549 85.6829Z" fill="#080809"/>
<path d="M56.3887 82.1372C56.3887 82.1754 56.4076 82.2136 56.4455 82.2517C56.3887 82.2517 56.3887 82.1945 56.3887 82.1372Z" fill="#080809"/>
<path d="M57.2378 82.7093H57.3515C57.3136 82.6711 57.2757 82.6711 57.2378 82.7093Z" fill="#080809"/>
<path d="M57.7467 82.6519C57.577 82.7088 57.577 82.6519 57.3506 82.7088C57.4638 82.7088 57.5204 82.8226 57.7467 82.6519Z" fill="#080809"/>
<path d="M55.9361 78.8201C56.1059 78.7063 55.7664 78.7632 55.54 78.8201C55.4834 78.934 55.823 78.7063 55.9361 78.8201Z" fill="#080809"/>
<path d="M56.6719 80.4217C56.8417 80.3073 56.5587 80.2501 56.5021 80.1357C56.3889 80.3073 56.5021 80.4217 56.6719 80.4217Z" fill="#080809"/>
<path d="M57.8603 80.9365C57.7471 80.9365 57.6905 80.9365 57.6905 80.9935H57.1246C56.9548 81.1642 57.6339 80.9934 57.8603 80.9365Z" fill="#080809"/>
<path d="M58.1429 81.7366L57.9166 81.6797V81.7366H57.4072C57.4638 81.7935 57.7468 81.8505 58.1429 81.7366Z" fill="#080809"/>
<path d="M57.2378 81.6226C57.2378 81.6607 57.2378 81.6607 57.2378 81.6226C57.3515 81.6798 57.4083 81.6226 57.2378 81.6226Z" fill="#080809"/>
<path d="M57.2946 81.7369H57.3515C57.2946 81.7369 57.2946 81.6796 57.2946 81.7369C57.2378 81.6796 57.181 81.7369 57.2946 81.7369Z" fill="#080809"/>
<path d="M57.8604 81.9087L57.9735 82.1374L58.0867 82.0231C57.7472 82.0802 58.2565 81.8515 57.8604 81.9087Z" fill="#080809"/>
<path d="M57.8601 83.167L57.5205 83.2814C57.4639 83.4529 58.2562 83.4529 57.7469 83.6817C57.9166 83.5673 58.143 83.6817 58.1996 83.5101C57.86 83.5101 57.8035 83.2814 57.8601 83.167Z" fill="#080809"/>
<path d="M57.4642 83.853C57.351 83.853 57.2944 83.9099 57.2378 83.9668C57.2378 84.0237 57.351 84.0237 57.5208 83.9668C57.068 84.0237 57.7471 83.796 57.4642 83.853Z" fill="#080809"/>
<path d="M57.6903 84.4818C57.6903 84.4249 57.6337 84.368 57.5771 84.4818C57.6337 84.5956 57.9733 84.4818 58.2563 84.4818C58.3694 84.311 57.8035 84.368 57.6903 84.4818Z" fill="#080809"/>
</g>
<path d="M35.6189 18.1437C35.1662 17.5146 34.6568 16.8855 34.0343 16.3137C33.242 15.5702 32.3931 14.884 31.3179 14.2549" stroke="#1B1C1E" stroke-miterlimit="10"/>
<path d="M85.1378 117.365C77.611 117.937 78.5165 123.427 78.5165 123.427" stroke="#1B1C1E" stroke-miterlimit="10"/>
</svg>
