<svg width="10" height="10" viewBox="0 0 10 10" fill="none" xmlns="http://www.w3.org/2000/svg">
<path fill-rule="evenodd" clip-rule="evenodd" d="M9.81044 1.10388C9.87049 1.04391 9.91813 0.972699 9.95065 0.894313C9.98318 0.815927 9.99995 0.731903 10 0.647037C10.0001 0.562171 9.98339 0.478126 9.95096 0.3997C9.91853 0.321275 9.87098 0.250004 9.811 0.189958C9.75103 0.129912 9.67982 0.0822664 9.60144 0.0497415C9.52305 0.0172166 9.43903 0.000449384 9.35417 0.000397223C9.2693 0.000345062 9.18526 0.017009 9.10683 0.0494375C9.02841 0.081866 8.95714 0.129424 8.89709 0.189396L4.99992 4.08664L1.10386 0.189396C0.982598 0.0681278 0.818126 -1.27777e-09 0.646629 0C0.475132 1.27777e-09 0.31066 0.0681278 0.189393 0.189396C0.0681267 0.310665 1.27775e-09 0.47514 0 0.64664C-1.27775e-09 0.818139 0.0681267 0.982614 0.189393 1.10388L4.08657 5L0.189393 8.89612C0.129348 8.95616 0.0817177 9.02745 0.0492216 9.1059C0.0167255 9.18436 0 9.26844 0 9.35336C0 9.43828 0.0167255 9.52236 0.0492216 9.60082C0.0817177 9.67927 0.129348 9.75056 0.189393 9.8106C0.31066 9.93187 0.475132 10 0.646629 10C0.731545 10 0.81563 9.98327 0.894083 9.95078C0.972536 9.91828 1.04382 9.87065 1.10386 9.8106L4.99992 5.91336L8.89709 9.8106C9.01836 9.93172 9.18277 9.99971 9.35417 9.9996C9.52556 9.9995 9.68989 9.93131 9.811 9.81004C9.93212 9.68877 10.0001 9.52436 10 9.35296C9.99989 9.18157 9.93171 9.01724 9.81044 8.89612L5.91327 5L9.81044 1.10388Z" fill="#1B1B1B"/>
</svg>
