<svg width="37" height="37" viewBox="0 0 37 37" fill="none" xmlns="http://www.w3.org/2000/svg">
<path fill-rule="evenodd" clip-rule="evenodd" d="M24.7727 14.3247C24.8448 14.2527 24.902 14.1672 24.941 14.0732C24.98 13.9791 25.0001 13.8783 25.0002 13.7764C25.0003 13.6746 24.9803 13.5738 24.9413 13.4796C24.9024 13.3855 24.8454 13.3 24.7734 13.2279C24.7014 13.1559 24.616 13.0987 24.5219 13.0597C24.4279 13.0207 24.327 13.0005 24.2252 13.0005C24.1233 13.0004 24.0225 13.0204 23.9284 13.0593C23.8343 13.0982 23.7487 13.1553 23.6767 13.2273L19 17.904L14.3247 13.2273C14.1791 13.0818 13.9818 13 13.776 13C13.5702 13 13.3728 13.0818 13.2273 13.2273C13.0818 13.3728 13 13.5702 13 13.776C13 13.9818 13.0818 14.1791 13.2273 14.3247L17.904 19L13.2273 23.6753C13.1552 23.7474 13.0981 23.8329 13.0591 23.9271C13.0201 24.0212 13 24.1221 13 24.224C13 24.3259 13.0201 24.4268 13.0591 24.521C13.0981 24.6151 13.1552 24.7007 13.2273 24.7727C13.3728 24.9182 13.5702 25 13.776 25C13.8779 25 13.9788 24.9799 14.0729 24.9409C14.1671 24.9019 14.2526 24.8448 14.3247 24.7727L19 20.096L23.6767 24.7727C23.8222 24.9181 24.0195 24.9996 24.2252 24.9995C24.4309 24.9994 24.6281 24.9176 24.7734 24.772C24.9187 24.6265 25.0003 24.4292 25.0002 24.2236C25.0001 24.0179 24.9182 23.8207 24.7727 23.6753L20.096 19L24.7727 14.3247Z" fill="#1B1B1B"/>
<circle cx="18.5" cy="18.5" r="18" stroke="#1B1B1B"/>
</svg>
