<svg width="19" height="19" viewBox="0 0 19 19" fill="none" xmlns="http://www.w3.org/2000/svg">
<path d="M0.499878 9.00003L9.49943 0.500458L10.9994 1.00043L18.499 8.50006V10.5L11.9993 16.9996L8.99945 18.4996L0.999853 10.9999L0.499878 9.00003Z" fill="#89A3B2"/>
<path d="M11.6898 0.906702L18.0928 7.30974C18.6737 7.89065 19 8.6785 19 9.5C19 10.3215 18.6737 11.1093 18.0928 11.6903L11.6898 18.0923C11.1089 18.6732 10.321 18.9995 9.49952 18.9995C8.67803 18.9995 7.89017 18.6732 7.30926 18.0923L0.907182 11.6912C0.32632 11.1103 0 10.3224 0 9.50095C0 8.67945 0.32632 7.8916 0.907182 7.31069L7.30926 0.907655C7.89017 0.326793 8.67803 0.000473022 9.49952 0.000473022C10.321 0.000473022 11.1089 0.32584 11.6898 0.906702ZM8.32052 1.917L1.91748 8.32004C1.76258 8.47493 1.63971 8.65881 1.55587 8.86118C1.47204 9.06356 1.42889 9.28047 1.42889 9.49952C1.42889 9.71857 1.47204 9.93548 1.55587 10.1379C1.63971 10.3402 1.76258 10.5241 1.91748 10.679L8.32052 17.082C8.4754 17.2369 8.65929 17.3598 8.86166 17.4436C9.06404 17.5275 9.28095 17.5706 9.5 17.5706C9.71905 17.5706 9.93596 17.5275 10.1383 17.4436C10.3407 17.3598 10.5246 17.2369 10.6795 17.082L17.0816 10.679C17.2365 10.5241 17.3593 10.3402 17.4432 10.1379C17.527 9.93548 17.5702 9.71857 17.5702 9.49952C17.5702 9.28047 17.527 9.06356 17.4432 8.86118C17.3593 8.65881 17.2365 8.47493 17.0816 8.32004L10.6795 1.91796C10.5246 1.76306 10.3407 1.64018 10.1383 1.55635C9.93596 1.47251 9.71905 1.42937 9.5 1.42937C9.28095 1.42937 9.06404 1.47251 8.86166 1.55635C8.65929 1.64018 8.4754 1.7621 8.32052 1.917ZM9.93605 5.02416L10.0056 4.9441C10.1267 4.82304 10.2871 4.74943 10.4578 4.73666C10.6285 4.7239 10.7982 4.77281 10.9359 4.87452L11.0159 4.9441L12.9222 6.85033C13.0435 6.97142 13.1172 7.13207 13.13 7.303C13.1428 7.47393 13.0937 7.64376 12.9917 7.78153L12.9222 7.86159L11.0159 9.76782C10.8884 9.89572 10.7171 9.9706 10.5366 9.97738C10.3561 9.98417 10.1797 9.92237 10.043 9.80441C9.90616 9.68645 9.81909 9.52107 9.79926 9.34153C9.77942 9.16199 9.8283 8.9816 9.93605 8.83663L10.0056 8.75657L10.6909 8.07032H9.26124C8.96646 8.07042 8.68218 8.17981 8.46336 8.37733C8.24453 8.57485 8.10671 8.84648 8.07652 9.13972L8.06985 9.26172V12.3584C8.06956 12.5394 8.00058 12.7136 7.87686 12.8458C7.75314 12.9779 7.58388 13.0582 7.40326 13.0704C7.22264 13.0827 7.04411 13.0259 6.90372 12.9116C6.76332 12.7973 6.67152 12.634 6.64685 12.4547L6.64018 12.3593V9.26172C6.64016 8.59411 6.89489 7.95165 7.3524 7.46545C7.8099 6.97925 8.4357 6.68596 9.10207 6.64541L9.26124 6.6397H10.69L10.0056 5.95345C9.88457 5.83242 9.81096 5.67196 9.79819 5.50124C9.78542 5.33053 9.83434 5.16186 9.93605 5.02416Z" fill="#1B1B1B"/>
<path d="M10.0056 4.92331L9.93605 5.00415C9.8344 5.14319 9.78551 5.31351 9.79827 5.48589C9.81103 5.65826 9.88459 5.82029 10.0056 5.9425L10.6895 6.63544H9.26166L9.10259 6.64121C8.43662 6.68215 7.81122 6.97831 7.35399 7.46925C6.89677 7.96019 6.64219 8.60891 6.64221 9.28303V12.4109L6.64888 12.5071C6.67354 12.6882 6.76528 12.8531 6.90559 12.9685C7.0459 13.0839 7.22432 13.1412 7.40482 13.1289C7.58533 13.1165 7.75448 13.0355 7.87813 12.902C8.00178 12.7686 8.07071 12.5927 8.071 12.4099V9.28303L8.07767 9.15984C8.10784 8.86374 8.24557 8.58946 8.46426 8.39001C8.68295 8.19057 8.96705 8.08012 9.26166 8.08002H10.6904L10.0056 8.77295L9.93605 8.85379C9.82836 9.00018 9.77951 9.18233 9.79933 9.36362C9.81915 9.54491 9.90617 9.7119 10.0429 9.83101C10.1796 9.95012 10.3559 10.0125 10.5363 10.0057C10.7166 9.99882 10.8878 9.92321 11.0153 9.79407L12.9203 7.86925L12.9898 7.7884C13.0917 7.64929 13.1408 7.47781 13.128 7.30521C13.1153 7.13262 13.0415 6.9704 12.9203 6.84813L11.0153 4.92331L10.9352 4.85305C10.7976 4.75035 10.6281 4.70096 10.4575 4.71385C10.2869 4.72674 10.1265 4.80107 10.0056 4.92331Z" fill="white"/>
</svg>
