<svg width="20" height="19" viewBox="0 0 20 19" fill="none" xmlns="http://www.w3.org/2000/svg">
<path d="M8.67 11.21L6.60375 9.14375C6.42958 8.96958 6.21203 8.88662 5.9511 8.89485C5.68953 8.90245 5.47167 8.99333 5.2975 9.1675C5.12333 9.34167 5.03625 9.56333 5.03625 9.8325C5.03625 10.1017 5.12333 10.3233 5.2975 10.4975L8.005 13.205C8.17917 13.3792 8.40083 13.4662 8.67 13.4662C8.93917 13.4662 9.16083 13.3792 9.335 13.205L14.7263 7.81375C14.9004 7.63958 14.9837 7.42172 14.9761 7.16015C14.9679 6.89922 14.8767 6.68167 14.7025 6.5075C14.5283 6.33333 14.3067 6.24625 14.0375 6.24625C13.7683 6.24625 13.5467 6.33333 13.3725 6.5075L8.67 11.21ZM10 19C8.68583 19 7.45083 18.7505 6.295 18.2514C5.13917 17.753 4.13375 17.0763 3.27875 16.2213C2.42375 15.3663 1.74703 14.3608 1.2486 13.205C0.749533 12.0492 0.5 10.8142 0.5 9.5C0.5 8.18583 0.749533 6.95083 1.2486 5.795C1.74703 4.63917 2.42375 3.63375 3.27875 2.77875C4.13375 1.92375 5.13917 1.24672 6.295 0.74765C7.45083 0.249217 8.68583 0 10 0C11.3142 0 12.5492 0.249217 13.705 0.74765C14.8608 1.24672 15.8663 1.92375 16.7213 2.77875C17.5763 3.63375 18.253 4.63917 18.7514 5.795C19.2505 6.95083 19.5 8.18583 19.5 9.5C19.5 10.8142 19.2505 12.0492 18.7514 13.205C18.253 14.3608 17.5763 15.3663 16.7213 16.2213C15.8663 17.0763 14.8608 17.753 13.705 18.2514C12.5492 18.7505 11.3142 19 10 19ZM10 17.1C12.1058 17.1 13.8991 16.36 15.3799 14.8799C16.86 13.3991 17.6 11.6058 17.6 9.5C17.6 7.39417 16.86 5.60088 15.3799 4.12015C13.8991 2.64005 12.1058 1.9 10 1.9C7.89417 1.9 6.1012 2.64005 4.6211 4.12015C3.14037 5.60088 2.4 7.39417 2.4 9.5C2.4 11.6058 3.14037 13.3991 4.6211 14.8799C6.1012 16.36 7.89417 17.1 10 17.1Z" fill="#1B1B1B"/>
<circle cx="10.0005" cy="9.49998" r="8.02586" fill="#F2F4D1"/>
<path d="M8.66988 11.2101L6.60363 9.14384C6.42947 8.96967 6.21192 8.8867 5.95098 8.89494C5.68942 8.90254 5.47155 8.99342 5.29738 9.16759C5.12322 9.34175 5.03613 9.56342 5.03613 9.83259C5.03613 10.1018 5.12322 10.3234 5.29738 10.4976L8.00488 13.2051C8.17905 13.3793 8.40072 13.4663 8.66988 13.4663C8.93905 13.4663 9.16072 13.3793 9.33488 13.2051L14.7261 7.81384C14.9003 7.63967 14.9836 7.4218 14.976 7.16024C14.9678 6.8993 14.8766 6.68176 14.7024 6.50759C14.5282 6.33342 14.3065 6.24634 14.0374 6.24634C13.7682 6.24634 13.5466 6.33342 13.3724 6.50759L8.66988 11.2101Z" fill="#1B1B1B"/>
</svg>
