<svg width="17" height="17" viewBox="0 0 17 17" fill="none" xmlns="http://www.w3.org/2000/svg">
<path d="M13.5 1H15L16.5 2.5L16 4.5L5 15L1 15.5L2 12L13.5 1Z" fill="#B2D3BE"/>
<path d="M14.1152 0C13.737 0.000915803 13.3627 0.0767081 13.014 0.223004C12.6652 0.3693 12.3489 0.583205 12.0832 0.852378L1.02646 11.9088L0.983104 12.1277L0.218157 15.9735L0 17L1.02715 16.7818L4.87287 16.0169L5.09102 15.9728L16.1478 4.91638C16.4177 4.65117 16.632 4.33487 16.7783 3.98593C16.9246 3.63699 17 3.26241 17 2.88403C17 2.50565 16.9246 2.13107 16.7783 1.78213C16.632 1.43319 16.4177 1.11689 16.1478 0.851678C15.882 0.582548 15.5655 0.368725 15.2166 0.222547C14.8678 0.0763694 14.4934 0.000732087 14.1152 0ZM14.1152 1.33276C14.4676 1.33276 14.8228 1.49358 15.164 1.83551C15.8443 2.51518 15.8443 3.25288 15.164 3.93324L14.6619 4.41362L12.5853 2.33757L13.0663 1.83551C13.4082 1.49358 13.7628 1.33276 14.1152 1.33276ZM11.6029 3.32141L13.6781 5.39746L5.22248 13.8527C4.76599 12.9595 4.03924 12.2333 3.14579 11.7774L11.6029 3.32141ZM2.25079 12.9143C2.66462 13.0808 3.04052 13.3292 3.35594 13.6447C3.67135 13.9601 3.91976 14.336 4.08624 14.7498L1.7914 15.2085L2.25079 12.9143Z" fill="#1B1B1B"/>
</svg>
