<svg width="20" height="19" viewBox="0 0 20 19" fill="none" xmlns="http://www.w3.org/2000/svg">
<path d="M16.2758 0C15.8531 0.00102354 15.4348 0.0857326 15.045 0.24924C14.6552 0.412747 14.3017 0.651817 14.0048 0.952657L1.64721 13.3098L1.59876 13.5545L0.743822 17.8527L0.5 19L1.648 18.7562L5.94614 17.9012L6.18997 17.852L18.5475 5.49478C18.8491 5.19837 19.0887 4.84485 19.2522 4.45486C19.4158 4.06487 19.5 3.64622 19.5 3.22333C19.5 2.80043 19.4158 2.38178 19.2522 1.99179C19.0887 1.6018 18.8491 1.24828 18.5475 0.951875C18.2505 0.651083 17.8968 0.412104 17.5068 0.248729C17.1169 0.085354 16.6985 0.000818215 16.2758 0ZM16.2758 1.48955C16.6696 1.48955 17.0666 1.6693 17.448 2.05146C18.2084 2.81108 18.2084 3.63557 17.448 4.39598L16.8869 4.93287L14.5659 2.61258L15.1035 2.05146C15.4857 1.6693 15.8819 1.48955 16.2758 1.48955ZM13.4679 3.71216L15.7873 6.03245L6.33688 15.4824C5.82669 14.4842 5.01444 13.6725 4.01589 13.1629L13.4679 3.71216ZM3.01559 14.4337C3.4781 14.6197 3.89823 14.8974 4.25075 15.2499C4.60327 15.6024 4.8809 16.0226 5.06698 16.4851L2.50216 16.9978L3.01559 14.4337Z" fill="#1B1B1B"/>
</svg>
