<svg width="360" height="160" viewBox="0 0 360 160" fill="none" xmlns="http://www.w3.org/2000/svg">
<rect x="0.5" y="0.5" width="359" height="159" rx="13.5" fill="#EAF1F6" stroke="#5E6073"/>
<path d="M18.1484 51.2246L15.3242 59H14.1699L17.4219 50.4688H18.166L18.1484 51.2246ZM20.5156 59L17.6855 51.2246L17.668 50.4688H18.4121L21.6758 59H20.5156ZM20.3691 55.8418V56.7676H15.5762V55.8418H20.3691ZM26.6504 57.7695V50H27.7402V59H26.7441L26.6504 57.7695ZM22.3848 55.9004V55.7773C22.3848 55.293 22.4434 54.8535 22.5605 54.459C22.6816 54.0605 22.8516 53.7188 23.0703 53.4336C23.293 53.1484 23.5566 52.9297 23.8613 52.7773C24.1699 52.6211 24.5137 52.543 24.8926 52.543C25.291 52.543 25.6387 52.6133 25.9355 52.7539C26.2363 52.8906 26.4902 53.0918 26.6973 53.3574C26.9082 53.6191 27.0742 53.9355 27.1953 54.3066C27.3164 54.6777 27.4004 55.0977 27.4473 55.5664V56.1055C27.4043 56.5703 27.3203 56.9883 27.1953 57.3594C27.0742 57.7305 26.9082 58.0469 26.6973 58.3086C26.4902 58.5703 26.2363 58.7715 25.9355 58.9121C25.6348 59.0488 25.2832 59.1172 24.8809 59.1172C24.5098 59.1172 24.1699 59.0371 23.8613 58.877C23.5566 58.7168 23.293 58.4922 23.0703 58.2031C22.8516 57.9141 22.6816 57.5742 22.5605 57.1836C22.4434 56.7891 22.3848 56.3613 22.3848 55.9004ZM23.4746 55.7773V55.9004C23.4746 56.2168 23.5059 56.5137 23.5684 56.791C23.6348 57.0684 23.7363 57.3125 23.873 57.5234C24.0098 57.7344 24.1836 57.9004 24.3945 58.0215C24.6055 58.1387 24.8574 58.1973 25.1504 58.1973C25.5098 58.1973 25.8047 58.1211 26.0352 57.9688C26.2695 57.8164 26.457 57.6152 26.5977 57.3652C26.7383 57.1152 26.8477 56.8438 26.9258 56.5508V55.1387C26.8789 54.9238 26.8105 54.7168 26.7207 54.5176C26.6348 54.3145 26.5215 54.1348 26.3809 53.9785C26.2441 53.8184 26.0742 53.6914 25.8711 53.5977C25.6719 53.5039 25.4355 53.457 25.1621 53.457C24.8652 53.457 24.6094 53.5195 24.3945 53.6445C24.1836 53.7656 24.0098 53.9336 23.873 54.1484C23.7363 54.3594 23.6348 54.6055 23.5684 54.8867C23.5059 55.1641 23.4746 55.4609 23.4746 55.7773ZM33.4238 57.7695V50H34.5137V59H33.5176L33.4238 57.7695ZM29.1582 55.9004V55.7773C29.1582 55.293 29.2168 54.8535 29.334 54.459C29.4551 54.0605 29.625 53.7188 29.8438 53.4336C30.0664 53.1484 30.3301 52.9297 30.6348 52.7773C30.9434 52.6211 31.2871 52.543 31.666 52.543C32.0645 52.543 32.4121 52.6133 32.709 52.7539C33.0098 52.8906 33.2637 53.0918 33.4707 53.3574C33.6816 53.6191 33.8477 53.9355 33.9688 54.3066C34.0898 54.6777 34.1738 55.0977 34.2207 55.5664V56.1055C34.1777 56.5703 34.0938 56.9883 33.9688 57.3594C33.8477 57.7305 33.6816 58.0469 33.4707 58.3086C33.2637 58.5703 33.0098 58.7715 32.709 58.9121C32.4082 59.0488 32.0566 59.1172 31.6543 59.1172C31.2832 59.1172 30.9434 59.0371 30.6348 58.877C30.3301 58.7168 30.0664 58.4922 29.8438 58.2031C29.625 57.9141 29.4551 57.5742 29.334 57.1836C29.2168 56.7891 29.1582 56.3613 29.1582 55.9004ZM30.248 55.7773V55.9004C30.248 56.2168 30.2793 56.5137 30.3418 56.791C30.4082 57.0684 30.5098 57.3125 30.6465 57.5234C30.7832 57.7344 30.957 57.9004 31.168 58.0215C31.3789 58.1387 31.6309 58.1973 31.9238 58.1973C32.2832 58.1973 32.5781 58.1211 32.8086 57.9688C33.043 57.8164 33.2305 57.6152 33.3711 57.3652C33.5117 57.1152 33.6211 56.8438 33.6992 56.5508V55.1387C33.6523 54.9238 33.584 54.7168 33.4941 54.5176C33.4082 54.3145 33.2949 54.1348 33.1543 53.9785C33.0176 53.8184 32.8477 53.6914 32.6445 53.5977C32.4453 53.5039 32.209 53.457 31.9355 53.457C31.6387 53.457 31.3828 53.5195 31.168 53.6445C30.957 53.7656 30.7832 53.9336 30.6465 54.1484C30.5098 54.3594 30.4082 54.6055 30.3418 54.8867C30.2793 55.1641 30.248 55.4609 30.248 55.7773ZM42.8691 57.3184C42.8691 57.1621 42.834 57.0176 42.7637 56.8848C42.6973 56.748 42.5586 56.625 42.3477 56.5156C42.1406 56.4023 41.8281 56.3047 41.4102 56.2227C41.0586 56.1484 40.7402 56.0605 40.4551 55.959C40.1738 55.8574 39.9336 55.7344 39.7344 55.5898C39.5391 55.4453 39.3887 55.2754 39.2832 55.0801C39.1777 54.8848 39.125 54.6562 39.125 54.3945C39.125 54.1445 39.1797 53.9082 39.2891 53.6855C39.4023 53.4629 39.5605 53.2656 39.7637 53.0938C39.9707 52.9219 40.2188 52.7871 40.5078 52.6895C40.7969 52.5918 41.1191 52.543 41.4746 52.543C41.9824 52.543 42.416 52.6328 42.7754 52.8125C43.1348 52.9922 43.4102 53.2324 43.6016 53.5332C43.793 53.8301 43.8887 54.1602 43.8887 54.5234H42.8047C42.8047 54.3477 42.752 54.1777 42.6465 54.0137C42.5449 53.8457 42.3945 53.707 42.1953 53.5977C42 53.4883 41.7598 53.4336 41.4746 53.4336C41.1738 53.4336 40.9297 53.4805 40.7422 53.5742C40.5586 53.6641 40.4238 53.7793 40.3379 53.9199C40.2559 54.0605 40.2148 54.209 40.2148 54.3652C40.2148 54.4824 40.2344 54.5879 40.2734 54.6816C40.3164 54.7715 40.3906 54.8555 40.4961 54.9336C40.6016 55.0078 40.75 55.0781 40.9414 55.1445C41.1328 55.2109 41.377 55.2773 41.6738 55.3438C42.1934 55.4609 42.6211 55.6016 42.957 55.7656C43.293 55.9297 43.543 56.1309 43.707 56.3691C43.8711 56.6074 43.9531 56.8965 43.9531 57.2363C43.9531 57.5137 43.8945 57.7676 43.7773 57.998C43.6641 58.2285 43.498 58.4277 43.2793 58.5957C43.0645 58.7598 42.8066 58.8887 42.5059 58.9824C42.209 59.0723 41.875 59.1172 41.5039 59.1172C40.9453 59.1172 40.4727 59.0176 40.0859 58.8184C39.6992 58.6191 39.4062 58.3613 39.207 58.0449C39.0078 57.7285 38.9082 57.3945 38.9082 57.043H39.998C40.0137 57.3398 40.0996 57.5762 40.2559 57.752C40.4121 57.9238 40.6035 58.0469 40.8301 58.1211C41.0566 58.1914 41.2812 58.2266 41.5039 58.2266C41.8008 58.2266 42.0488 58.1875 42.248 58.1094C42.4512 58.0312 42.6055 57.9238 42.7109 57.7871C42.8164 57.6504 42.8691 57.4941 42.8691 57.3184ZM47.9141 58.2266C48.1719 58.2266 48.4102 58.1738 48.6289 58.0684C48.8477 57.9629 49.0273 57.8184 49.168 57.6348C49.3086 57.4473 49.3887 57.2344 49.4082 56.9961H50.4395C50.4199 57.3711 50.293 57.7207 50.0586 58.0449C49.8281 58.3652 49.5254 58.625 49.1504 58.8242C48.7754 59.0195 48.3633 59.1172 47.9141 59.1172C47.4375 59.1172 47.0215 59.0332 46.666 58.8652C46.3145 58.6973 46.0215 58.4668 45.7871 58.1738C45.5566 57.8809 45.3828 57.5449 45.2656 57.166C45.1523 56.7832 45.0957 56.3789 45.0957 55.9531V55.707C45.0957 55.2812 45.1523 54.8789 45.2656 54.5C45.3828 54.1172 45.5566 53.7793 45.7871 53.4863C46.0215 53.1934 46.3145 52.9629 46.666 52.7949C47.0215 52.627 47.4375 52.543 47.9141 52.543C48.4102 52.543 48.8438 52.6445 49.2148 52.8477C49.5859 53.0469 49.877 53.3203 50.0879 53.668C50.3027 54.0117 50.4199 54.4023 50.4395 54.8398H49.4082C49.3887 54.5781 49.3145 54.3418 49.1855 54.1309C49.0605 53.9199 48.8887 53.752 48.6699 53.627C48.4551 53.498 48.2031 53.4336 47.9141 53.4336C47.582 53.4336 47.3027 53.5 47.0762 53.6328C46.8535 53.7617 46.6758 53.9375 46.543 54.1602C46.4141 54.3789 46.3203 54.623 46.2617 54.8926C46.207 55.1582 46.1797 55.4297 46.1797 55.707V55.9531C46.1797 56.2305 46.207 56.5039 46.2617 56.7734C46.3164 57.043 46.4082 57.2871 46.5371 57.5059C46.6699 57.7246 46.8477 57.9004 47.0703 58.0332C47.2969 58.1621 47.5781 58.2266 47.9141 58.2266ZM52.7422 50V59H51.6582V50H52.7422ZM52.4844 55.5898L52.0332 55.5723C52.0371 55.1387 52.1016 54.7383 52.2266 54.3711C52.3516 54 52.5273 53.6777 52.7539 53.4043C52.9805 53.1309 53.25 52.9199 53.5625 52.7715C53.8789 52.6191 54.2285 52.543 54.6113 52.543C54.9238 52.543 55.2051 52.5859 55.4551 52.6719C55.7051 52.7539 55.918 52.8867 56.0938 53.0703C56.2734 53.2539 56.4102 53.4922 56.5039 53.7852C56.5977 54.0742 56.6445 54.4277 56.6445 54.8457V59H55.5547V54.834C55.5547 54.502 55.5059 54.2363 55.4082 54.0371C55.3105 53.834 55.168 53.6875 54.9805 53.5977C54.793 53.5039 54.5625 53.457 54.2891 53.457C54.0195 53.457 53.7734 53.5137 53.5508 53.627C53.332 53.7402 53.1426 53.8965 52.9824 54.0957C52.8262 54.2949 52.7031 54.5234 52.6133 54.7812C52.5273 55.0352 52.4844 55.3047 52.4844 55.5898ZM60.8984 59.1172C60.457 59.1172 60.0566 59.043 59.6973 58.8945C59.3418 58.7422 59.0352 58.5293 58.7773 58.2559C58.5234 57.9824 58.3281 57.6582 58.1914 57.2832C58.0547 56.9082 57.9863 56.498 57.9863 56.0527V55.8066C57.9863 55.291 58.0625 54.832 58.2148 54.4297C58.3672 54.0234 58.5742 53.6797 58.8359 53.3984C59.0977 53.1172 59.3945 52.9043 59.7266 52.7598C60.0586 52.6152 60.4023 52.543 60.7578 52.543C61.2109 52.543 61.6016 52.6211 61.9297 52.7773C62.2617 52.9336 62.5332 53.1523 62.7441 53.4336C62.9551 53.7109 63.1113 54.0391 63.2129 54.418C63.3145 54.793 63.3652 55.2031 63.3652 55.6484V56.1348H58.6309V55.25H62.2812V55.168C62.2656 54.8867 62.207 54.6133 62.1055 54.3477C62.0078 54.082 61.8516 53.8633 61.6367 53.6914C61.4219 53.5195 61.1289 53.4336 60.7578 53.4336C60.5117 53.4336 60.2852 53.4863 60.0781 53.5918C59.8711 53.6934 59.6934 53.8457 59.5449 54.0488C59.3965 54.252 59.2812 54.5 59.1992 54.793C59.1172 55.0859 59.0762 55.4238 59.0762 55.8066V56.0527C59.0762 56.3535 59.1172 56.6367 59.1992 56.9023C59.2852 57.1641 59.4082 57.3945 59.5684 57.5938C59.7324 57.793 59.9297 57.9492 60.1602 58.0625C60.3945 58.1758 60.6602 58.2324 60.957 58.2324C61.3398 58.2324 61.6641 58.1543 61.9297 57.998C62.1953 57.8418 62.4277 57.6328 62.627 57.3711L63.2832 57.8926C63.1465 58.0996 62.9727 58.2969 62.7617 58.4844C62.5508 58.6719 62.291 58.8242 61.9824 58.9414C61.6777 59.0586 61.3164 59.1172 60.8984 59.1172ZM68.627 57.7695V50H69.7168V59H68.7207L68.627 57.7695ZM64.3613 55.9004V55.7773C64.3613 55.293 64.4199 54.8535 64.5371 54.459C64.6582 54.0605 64.8281 53.7188 65.0469 53.4336C65.2695 53.1484 65.5332 52.9297 65.8379 52.7773C66.1465 52.6211 66.4902 52.543 66.8691 52.543C67.2676 52.543 67.6152 52.6133 67.9121 52.7539C68.2129 52.8906 68.4668 53.0918 68.6738 53.3574C68.8848 53.6191 69.0508 53.9355 69.1719 54.3066C69.293 54.6777 69.377 55.0977 69.4238 55.5664V56.1055C69.3809 56.5703 69.2969 56.9883 69.1719 57.3594C69.0508 57.7305 68.8848 58.0469 68.6738 58.3086C68.4668 58.5703 68.2129 58.7715 67.9121 58.9121C67.6113 59.0488 67.2598 59.1172 66.8574 59.1172C66.4863 59.1172 66.1465 59.0371 65.8379 58.877C65.5332 58.7168 65.2695 58.4922 65.0469 58.2031C64.8281 57.9141 64.6582 57.5742 64.5371 57.1836C64.4199 56.7891 64.3613 56.3613 64.3613 55.9004ZM65.4512 55.7773V55.9004C65.4512 56.2168 65.4824 56.5137 65.5449 56.791C65.6113 57.0684 65.7129 57.3125 65.8496 57.5234C65.9863 57.7344 66.1602 57.9004 66.3711 58.0215C66.582 58.1387 66.834 58.1973 67.127 58.1973C67.4863 58.1973 67.7812 58.1211 68.0117 57.9688C68.2461 57.8164 68.4336 57.6152 68.5742 57.3652C68.7148 57.1152 68.8242 56.8438 68.9023 56.5508V55.1387C68.8555 54.9238 68.7871 54.7168 68.6973 54.5176C68.6113 54.3145 68.498 54.1348 68.3574 53.9785C68.2207 53.8184 68.0508 53.6914 67.8477 53.5977C67.6484 53.5039 67.4121 53.457 67.1387 53.457C66.8418 53.457 66.5859 53.5195 66.3711 53.6445C66.1602 53.7656 65.9863 53.9336 65.8496 54.1484C65.7129 54.3594 65.6113 54.6055 65.5449 54.8867C65.4824 55.1641 65.4512 55.4609 65.4512 55.7773ZM75.2832 57.5352V52.6602H76.373V59H75.3359L75.2832 57.5352ZM75.4883 56.1992L75.9395 56.1875C75.9395 56.6094 75.8945 57 75.8047 57.3594C75.7188 57.7148 75.5781 58.0234 75.3828 58.2852C75.1875 58.5469 74.9316 58.752 74.6152 58.9004C74.2988 59.0449 73.9141 59.1172 73.4609 59.1172C73.1523 59.1172 72.8691 59.0723 72.6113 58.9824C72.3574 58.8926 72.1387 58.7539 71.9551 58.5664C71.7715 58.3789 71.6289 58.1348 71.5273 57.834C71.4297 57.5332 71.3809 57.1719 71.3809 56.75V52.6602H72.4648V56.7617C72.4648 57.0469 72.4961 57.2832 72.5586 57.4707C72.625 57.6543 72.7129 57.8008 72.8223 57.9102C72.9355 58.0156 73.0605 58.0898 73.1973 58.1328C73.3379 58.1758 73.4824 58.1973 73.6309 58.1973C74.0918 58.1973 74.457 58.1094 74.7266 57.9336C74.9961 57.7539 75.1895 57.5137 75.3066 57.2129C75.4277 56.9082 75.4883 56.5703 75.4883 56.1992ZM79.2031 50V59H78.1133V50H79.2031ZM83.5742 59.1172C83.1328 59.1172 82.7324 59.043 82.373 58.8945C82.0176 58.7422 81.7109 58.5293 81.4531 58.2559C81.1992 57.9824 81.0039 57.6582 80.8672 57.2832C80.7305 56.9082 80.6621 56.498 80.6621 56.0527V55.8066C80.6621 55.291 80.7383 54.832 80.8906 54.4297C81.043 54.0234 81.25 53.6797 81.5117 53.3984C81.7734 53.1172 82.0703 52.9043 82.4023 52.7598C82.7344 52.6152 83.0781 52.543 83.4336 52.543C83.8867 52.543 84.2773 52.6211 84.6055 52.7773C84.9375 52.9336 85.209 53.1523 85.4199 53.4336C85.6309 53.7109 85.7871 54.0391 85.8887 54.418C85.9902 54.793 86.041 55.2031 86.041 55.6484V56.1348H81.3066V55.25H84.957V55.168C84.9414 54.8867 84.8828 54.6133 84.7812 54.3477C84.6836 54.082 84.5273 53.8633 84.3125 53.6914C84.0977 53.5195 83.8047 53.4336 83.4336 53.4336C83.1875 53.4336 82.9609 53.4863 82.7539 53.5918C82.5469 53.6934 82.3691 53.8457 82.2207 54.0488C82.0723 54.252 81.957 54.5 81.875 54.793C81.793 55.0859 81.752 55.4238 81.752 55.8066V56.0527C81.752 56.3535 81.793 56.6367 81.875 56.9023C81.9609 57.1641 82.084 57.3945 82.2441 57.5938C82.4082 57.793 82.6055 57.9492 82.8359 58.0625C83.0703 58.1758 83.3359 58.2324 83.6328 58.2324C84.0156 58.2324 84.3398 58.1543 84.6055 57.998C84.8711 57.8418 85.1035 57.6328 85.3027 57.3711L85.959 57.8926C85.8223 58.0996 85.6484 58.2969 85.4375 58.4844C85.2266 58.6719 84.9668 58.8242 84.6582 58.9414C84.3535 59.0586 83.9922 59.1172 83.5742 59.1172ZM92.9375 52.6602V53.4922H89.5098V52.6602H92.9375ZM90.6699 51.1191H91.7539V57.4297C91.7539 57.6445 91.7871 57.8066 91.8535 57.916C91.9199 58.0254 92.0059 58.0977 92.1113 58.1328C92.2168 58.168 92.3301 58.1855 92.4512 58.1855C92.541 58.1855 92.6348 58.1777 92.7324 58.1621C92.834 58.1426 92.9102 58.127 92.9609 58.1152L92.9668 59C92.8809 59.0273 92.7676 59.0527 92.627 59.0762C92.4902 59.1035 92.3242 59.1172 92.1289 59.1172C91.8633 59.1172 91.6191 59.0645 91.3965 58.959C91.1738 58.8535 90.9961 58.6777 90.8633 58.4316C90.7344 58.1816 90.6699 57.8457 90.6699 57.4238V51.1191ZM93.8047 55.9004V55.7656C93.8047 55.3086 93.8711 54.8848 94.0039 54.4941C94.1367 54.0996 94.3281 53.7578 94.5781 53.4688C94.8281 53.1758 95.1309 52.9492 95.4863 52.7891C95.8418 52.625 96.2402 52.543 96.6816 52.543C97.127 52.543 97.5273 52.625 97.8828 52.7891C98.2422 52.9492 98.5469 53.1758 98.7969 53.4688C99.0508 53.7578 99.2441 54.0996 99.377 54.4941C99.5098 54.8848 99.5762 55.3086 99.5762 55.7656V55.9004C99.5762 56.3574 99.5098 56.7812 99.377 57.1719C99.2441 57.5625 99.0508 57.9043 98.7969 58.1973C98.5469 58.4863 98.2441 58.7129 97.8887 58.877C97.5371 59.0371 97.1387 59.1172 96.6934 59.1172C96.248 59.1172 95.8477 59.0371 95.4922 58.877C95.1367 58.7129 94.832 58.4863 94.5781 58.1973C94.3281 57.9043 94.1367 57.5625 94.0039 57.1719C93.8711 56.7812 93.8047 56.3574 93.8047 55.9004ZM94.8887 55.7656V55.9004C94.8887 56.2168 94.9258 56.5156 95 56.7969C95.0742 57.0742 95.1855 57.3203 95.334 57.5352C95.4863 57.75 95.6758 57.9199 95.9023 58.0449C96.1289 58.166 96.3926 58.2266 96.6934 58.2266C96.9902 58.2266 97.25 58.166 97.4727 58.0449C97.6992 57.9199 97.8867 57.75 98.0352 57.5352C98.1836 57.3203 98.2949 57.0742 98.3691 56.7969C98.4473 56.5156 98.4863 56.2168 98.4863 55.9004V55.7656C98.4863 55.4531 98.4473 55.1582 98.3691 54.8809C98.2949 54.5996 98.1816 54.3516 98.0293 54.1367C97.8809 53.918 97.6934 53.7461 97.4668 53.6211C97.2441 53.4961 96.9824 53.4336 96.6816 53.4336C96.3848 53.4336 96.123 53.4961 95.8965 53.6211C95.6738 53.7461 95.4863 53.918 95.334 54.1367C95.1855 54.3516 95.0742 54.5996 95 54.8809C94.9258 55.1582 94.8887 55.4531 94.8887 55.7656ZM105.002 50V59H103.912V50H105.002ZM108.875 52.6602L106.109 55.6191L104.562 57.2246L104.475 56.0703L105.582 54.7461L107.551 52.6602H108.875ZM107.885 59L105.623 55.9766L106.186 55.0098L109.162 59H107.885ZM112.508 59.1172C112.066 59.1172 111.666 59.043 111.307 58.8945C110.951 58.7422 110.645 58.5293 110.387 58.2559C110.133 57.9824 109.938 57.6582 109.801 57.2832C109.664 56.9082 109.596 56.498 109.596 56.0527V55.8066C109.596 55.291 109.672 54.832 109.824 54.4297C109.977 54.0234 110.184 53.6797 110.445 53.3984C110.707 53.1172 111.004 52.9043 111.336 52.7598C111.668 52.6152 112.012 52.543 112.367 52.543C112.82 52.543 113.211 52.6211 113.539 52.7773C113.871 52.9336 114.143 53.1523 114.354 53.4336C114.564 53.7109 114.721 54.0391 114.822 54.418C114.924 54.793 114.975 55.2031 114.975 55.6484V56.1348H110.24V55.25H113.891V55.168C113.875 54.8867 113.816 54.6133 113.715 54.3477C113.617 54.082 113.461 53.8633 113.246 53.6914C113.031 53.5195 112.738 53.4336 112.367 53.4336C112.121 53.4336 111.895 53.4863 111.688 53.5918C111.48 53.6934 111.303 53.8457 111.154 54.0488C111.006 54.252 110.891 54.5 110.809 54.793C110.727 55.0859 110.686 55.4238 110.686 55.8066V56.0527C110.686 56.3535 110.727 56.6367 110.809 56.9023C110.895 57.1641 111.018 57.3945 111.178 57.5938C111.342 57.793 111.539 57.9492 111.77 58.0625C112.004 58.1758 112.27 58.2324 112.566 58.2324C112.949 58.2324 113.273 58.1543 113.539 57.998C113.805 57.8418 114.037 57.6328 114.236 57.3711L114.893 57.8926C114.756 58.0996 114.582 58.2969 114.371 58.4844C114.16 58.6719 113.9 58.8242 113.592 58.9414C113.287 59.0586 112.926 59.1172 112.508 59.1172ZM118.871 59.1172C118.43 59.1172 118.029 59.043 117.67 58.8945C117.314 58.7422 117.008 58.5293 116.75 58.2559C116.496 57.9824 116.301 57.6582 116.164 57.2832C116.027 56.9082 115.959 56.498 115.959 56.0527V55.8066C115.959 55.291 116.035 54.832 116.188 54.4297C116.34 54.0234 116.547 53.6797 116.809 53.3984C117.07 53.1172 117.367 52.9043 117.699 52.7598C118.031 52.6152 118.375 52.543 118.73 52.543C119.184 52.543 119.574 52.6211 119.902 52.7773C120.234 52.9336 120.506 53.1523 120.717 53.4336C120.928 53.7109 121.084 54.0391 121.186 54.418C121.287 54.793 121.338 55.2031 121.338 55.6484V56.1348H116.604V55.25H120.254V55.168C120.238 54.8867 120.18 54.6133 120.078 54.3477C119.98 54.082 119.824 53.8633 119.609 53.6914C119.395 53.5195 119.102 53.4336 118.73 53.4336C118.484 53.4336 118.258 53.4863 118.051 53.5918C117.844 53.6934 117.666 53.8457 117.518 54.0488C117.369 54.252 117.254 54.5 117.172 54.793C117.09 55.0859 117.049 55.4238 117.049 55.8066V56.0527C117.049 56.3535 117.09 56.6367 117.172 56.9023C117.258 57.1641 117.381 57.3945 117.541 57.5938C117.705 57.793 117.902 57.9492 118.133 58.0625C118.367 58.1758 118.633 58.2324 118.93 58.2324C119.312 58.2324 119.637 58.1543 119.902 57.998C120.168 57.8418 120.4 57.6328 120.6 57.3711L121.256 57.8926C121.119 58.0996 120.945 58.2969 120.734 58.4844C120.523 58.6719 120.264 58.8242 119.955 58.9414C119.65 59.0586 119.289 59.1172 118.871 59.1172ZM123.688 53.8789V61.4375H122.598V52.6602H123.594L123.688 53.8789ZM127.959 55.7773V55.9004C127.959 56.3613 127.904 56.7891 127.795 57.1836C127.686 57.5742 127.525 57.9141 127.314 58.2031C127.107 58.4922 126.852 58.7168 126.547 58.877C126.242 59.0371 125.893 59.1172 125.498 59.1172C125.096 59.1172 124.74 59.0508 124.432 58.918C124.123 58.7852 123.861 58.5918 123.646 58.3379C123.432 58.084 123.26 57.7793 123.131 57.4238C123.006 57.0684 122.92 56.668 122.873 56.2227V55.5664C122.92 55.0977 123.008 54.6777 123.137 54.3066C123.266 53.9355 123.436 53.6191 123.646 53.3574C123.861 53.0918 124.121 52.8906 124.426 52.7539C124.73 52.6133 125.082 52.543 125.48 52.543C125.879 52.543 126.232 52.6211 126.541 52.7773C126.85 52.9297 127.109 53.1484 127.32 53.4336C127.531 53.7188 127.689 54.0605 127.795 54.459C127.904 54.8535 127.959 55.293 127.959 55.7773ZM126.869 55.9004V55.7773C126.869 55.4609 126.836 55.1641 126.77 54.8867C126.703 54.6055 126.6 54.3594 126.459 54.1484C126.322 53.9336 126.146 53.7656 125.932 53.6445C125.717 53.5195 125.461 53.457 125.164 53.457C124.891 53.457 124.652 53.5039 124.449 53.5977C124.25 53.6914 124.08 53.8184 123.939 53.9785C123.799 54.1348 123.684 54.3145 123.594 54.5176C123.508 54.7168 123.443 54.9238 123.4 55.1387V56.6562C123.479 56.9297 123.588 57.1875 123.729 57.4297C123.869 57.668 124.057 57.8613 124.291 58.0098C124.525 58.1543 124.82 58.2266 125.176 58.2266C125.469 58.2266 125.721 58.166 125.932 58.0449C126.146 57.9199 126.322 57.75 126.459 57.5352C126.6 57.3203 126.703 57.0742 126.77 56.7969C126.836 56.5156 126.869 56.2168 126.869 55.9004ZM17.4805 68.6602V69.4922H14.0527V68.6602H17.4805ZM15.2129 67.1191H16.2969V73.4297C16.2969 73.6445 16.3301 73.8066 16.3965 73.916C16.4629 74.0254 16.5488 74.0977 16.6543 74.1328C16.7598 74.168 16.873 74.1855 16.9941 74.1855C17.084 74.1855 17.1777 74.1777 17.2754 74.1621C17.377 74.1426 17.4531 74.127 17.5039 74.1152L17.5098 75C17.4238 75.0273 17.3105 75.0527 17.1699 75.0762C17.0332 75.1035 16.8672 75.1172 16.6719 75.1172C16.4062 75.1172 16.1621 75.0645 15.9395 74.959C15.7168 74.8535 15.5391 74.6777 15.4062 74.4316C15.2773 74.1816 15.2129 73.8457 15.2129 73.4238V67.1191ZM19.8359 69.6562V75H18.752V68.6602H19.8066L19.8359 69.6562ZM21.8164 68.625L21.8105 69.6328C21.7207 69.6133 21.6348 69.6016 21.5527 69.5977C21.4746 69.5898 21.3848 69.5859 21.2832 69.5859C21.0332 69.5859 20.8125 69.625 20.6211 69.7031C20.4297 69.7812 20.2676 69.8906 20.1348 70.0312C20.002 70.1719 19.8965 70.3398 19.8184 70.5352C19.7441 70.7266 19.6953 70.9375 19.6719 71.168L19.3672 71.3438C19.3672 70.9609 19.4043 70.6016 19.4785 70.2656C19.5566 69.9297 19.6758 69.6328 19.8359 69.375C19.9961 69.1133 20.1992 68.9102 20.4453 68.7656C20.6953 68.6172 20.9922 68.543 21.3359 68.543C21.4141 68.543 21.5039 68.5527 21.6055 68.5723C21.707 68.5879 21.7773 68.6055 21.8164 68.625ZM26.3223 73.916V70.6523C26.3223 70.4023 26.2715 70.1855 26.1699 70.002C26.0723 69.8145 25.9238 69.6699 25.7246 69.5684C25.5254 69.4668 25.2793 69.416 24.9863 69.416C24.7129 69.416 24.4727 69.4629 24.2656 69.5566C24.0625 69.6504 23.9023 69.7734 23.7852 69.9258C23.6719 70.0781 23.6152 70.2422 23.6152 70.418H22.5312C22.5312 70.1914 22.5898 69.9668 22.707 69.7441C22.8242 69.5215 22.9922 69.3203 23.2109 69.1406C23.4336 68.957 23.6992 68.8125 24.0078 68.707C24.3203 68.5977 24.668 68.543 25.0508 68.543C25.5117 68.543 25.918 68.6211 26.2695 68.7773C26.625 68.9336 26.9023 69.1699 27.1016 69.4863C27.3047 69.7988 27.4062 70.1914 27.4062 70.6641V73.6172C27.4062 73.8281 27.4238 74.0527 27.459 74.291C27.498 74.5293 27.5547 74.7344 27.6289 74.9062V75H26.498C26.4434 74.875 26.4004 74.709 26.3691 74.502C26.3379 74.291 26.3223 74.0957 26.3223 73.916ZM26.5098 71.1562L26.5215 71.918H25.4258C25.1172 71.918 24.8418 71.9434 24.5996 71.9941C24.3574 72.041 24.1543 72.1133 23.9902 72.2109C23.8262 72.3086 23.7012 72.4316 23.6152 72.5801C23.5293 72.7246 23.4863 72.8945 23.4863 73.0898C23.4863 73.2891 23.5312 73.4707 23.6211 73.6348C23.7109 73.7988 23.8457 73.9297 24.0254 74.0273C24.209 74.1211 24.4336 74.168 24.6992 74.168C25.0312 74.168 25.3242 74.0977 25.5781 73.957C25.832 73.8164 26.0332 73.6445 26.1816 73.4414C26.334 73.2383 26.416 73.041 26.4277 72.8496L26.8906 73.3711C26.8633 73.5352 26.7891 73.7168 26.668 73.916C26.5469 74.1152 26.3848 74.3066 26.1816 74.4902C25.9824 74.6699 25.7441 74.8203 25.4668 74.9414C25.1934 75.0586 24.8848 75.1172 24.541 75.1172C24.1113 75.1172 23.7344 75.0332 23.4102 74.8652C23.0898 74.6973 22.8398 74.4727 22.6602 74.1914C22.4844 73.9062 22.3965 73.5879 22.3965 73.2363C22.3965 72.8965 22.4629 72.5977 22.5957 72.3398C22.7285 72.0781 22.9199 71.8613 23.1699 71.6895C23.4199 71.5137 23.7207 71.3809 24.0723 71.291C24.4238 71.2012 24.8164 71.1562 25.25 71.1562H26.5098ZM31.6484 74.2266C31.9062 74.2266 32.1445 74.1738 32.3633 74.0684C32.582 73.9629 32.7617 73.8184 32.9023 73.6348C33.043 73.4473 33.123 73.2344 33.1426 72.9961H34.1738C34.1543 73.3711 34.0273 73.7207 33.793 74.0449C33.5625 74.3652 33.2598 74.625 32.8848 74.8242C32.5098 75.0195 32.0977 75.1172 31.6484 75.1172C31.1719 75.1172 30.7559 75.0332 30.4004 74.8652C30.0488 74.6973 29.7559 74.4668 29.5215 74.1738C29.291 73.8809 29.1172 73.5449 29 73.166C28.8867 72.7832 28.8301 72.3789 28.8301 71.9531V71.707C28.8301 71.2812 28.8867 70.8789 29 70.5C29.1172 70.1172 29.291 69.7793 29.5215 69.4863C29.7559 69.1934 30.0488 68.9629 30.4004 68.7949C30.7559 68.627 31.1719 68.543 31.6484 68.543C32.1445 68.543 32.5781 68.6445 32.9492 68.8477C33.3203 69.0469 33.6113 69.3203 33.8223 69.668C34.0371 70.0117 34.1543 70.4023 34.1738 70.8398H33.1426C33.123 70.5781 33.0488 70.3418 32.9199 70.1309C32.7949 69.9199 32.623 69.752 32.4043 69.627C32.1895 69.498 31.9375 69.4336 31.6484 69.4336C31.3164 69.4336 31.0371 69.5 30.8105 69.6328C30.5879 69.7617 30.4102 69.9375 30.2773 70.1602C30.1484 70.3789 30.0547 70.623 29.9961 70.8926C29.9414 71.1582 29.9141 71.4297 29.9141 71.707V71.9531C29.9141 72.2305 29.9414 72.5039 29.9961 72.7734C30.0508 73.043 30.1426 73.2871 30.2715 73.5059C30.4043 73.7246 30.582 73.9004 30.8047 74.0332C31.0312 74.1621 31.3125 74.2266 31.6484 74.2266ZM36.4824 66V75H35.3926V66H36.4824ZM40.3555 68.6602L37.5898 71.6191L36.043 73.2246L35.9551 72.0703L37.0625 70.7461L39.0312 68.6602H40.3555ZM39.3652 75L37.1035 71.9766L37.666 71.0098L40.6426 75H39.3652ZM44.1641 71.9004V71.7656C44.1641 71.3086 44.2305 70.8848 44.3633 70.4941C44.4961 70.0996 44.6875 69.7578 44.9375 69.4688C45.1875 69.1758 45.4902 68.9492 45.8457 68.7891C46.2012 68.625 46.5996 68.543 47.041 68.543C47.4863 68.543 47.8867 68.625 48.2422 68.7891C48.6016 68.9492 48.9062 69.1758 49.1562 69.4688C49.4102 69.7578 49.6035 70.0996 49.7363 70.4941C49.8691 70.8848 49.9355 71.3086 49.9355 71.7656V71.9004C49.9355 72.3574 49.8691 72.7812 49.7363 73.1719C49.6035 73.5625 49.4102 73.9043 49.1562 74.1973C48.9062 74.4863 48.6035 74.7129 48.248 74.877C47.8965 75.0371 47.498 75.1172 47.0527 75.1172C46.6074 75.1172 46.207 75.0371 45.8516 74.877C45.4961 74.7129 45.1914 74.4863 44.9375 74.1973C44.6875 73.9043 44.4961 73.5625 44.3633 73.1719C44.2305 72.7812 44.1641 72.3574 44.1641 71.9004ZM45.248 71.7656V71.9004C45.248 72.2168 45.2852 72.5156 45.3594 72.7969C45.4336 73.0742 45.5449 73.3203 45.6934 73.5352C45.8457 73.75 46.0352 73.9199 46.2617 74.0449C46.4883 74.166 46.752 74.2266 47.0527 74.2266C47.3496 74.2266 47.6094 74.166 47.832 74.0449C48.0586 73.9199 48.2461 73.75 48.3945 73.5352C48.543 73.3203 48.6543 73.0742 48.7285 72.7969C48.8066 72.5156 48.8457 72.2168 48.8457 71.9004V71.7656C48.8457 71.4531 48.8066 71.1582 48.7285 70.8809C48.6543 70.5996 48.541 70.3516 48.3887 70.1367C48.2402 69.918 48.0527 69.7461 47.8262 69.6211C47.6035 69.4961 47.3418 69.4336 47.041 69.4336C46.7441 69.4336 46.4824 69.4961 46.2559 69.6211C46.0332 69.7461 45.8457 69.918 45.6934 70.1367C45.5449 70.3516 45.4336 70.5996 45.3594 70.8809C45.2852 71.1582 45.248 71.4531 45.248 71.7656ZM52.9121 75H51.8281V67.9922C51.8281 67.5352 51.9102 67.1504 52.0742 66.8379C52.2422 66.5215 52.4824 66.2832 52.7949 66.123C53.1074 65.959 53.4785 65.877 53.9082 65.877C54.0332 65.877 54.1582 65.8848 54.2832 65.9004C54.4121 65.916 54.5371 65.9395 54.6582 65.9707L54.5996 66.8555C54.5176 66.8359 54.4238 66.8223 54.3184 66.8145C54.2168 66.8066 54.1152 66.8027 54.0137 66.8027C53.7832 66.8027 53.584 66.8496 53.416 66.9434C53.252 67.0332 53.127 67.166 53.041 67.3418C52.9551 67.5176 52.9121 67.7344 52.9121 67.9922V75ZM54.2598 68.6602V69.4922H50.8262V68.6602H54.2598ZM62.1816 73.916V70.6523C62.1816 70.4023 62.1309 70.1855 62.0293 70.002C61.9316 69.8145 61.7832 69.6699 61.584 69.5684C61.3848 69.4668 61.1387 69.416 60.8457 69.416C60.5723 69.416 60.332 69.4629 60.125 69.5566C59.9219 69.6504 59.7617 69.7734 59.6445 69.9258C59.5312 70.0781 59.4746 70.2422 59.4746 70.418H58.3906C58.3906 70.1914 58.4492 69.9668 58.5664 69.7441C58.6836 69.5215 58.8516 69.3203 59.0703 69.1406C59.293 68.957 59.5586 68.8125 59.8672 68.707C60.1797 68.5977 60.5273 68.543 60.9102 68.543C61.3711 68.543 61.7773 68.6211 62.1289 68.7773C62.4844 68.9336 62.7617 69.1699 62.9609 69.4863C63.1641 69.7988 63.2656 70.1914 63.2656 70.6641V73.6172C63.2656 73.8281 63.2832 74.0527 63.3184 74.291C63.3574 74.5293 63.4141 74.7344 63.4883 74.9062V75H62.3574C62.3027 74.875 62.2598 74.709 62.2285 74.502C62.1973 74.291 62.1816 74.0957 62.1816 73.916ZM62.3691 71.1562L62.3809 71.918H61.2852C60.9766 71.918 60.7012 71.9434 60.459 71.9941C60.2168 72.041 60.0137 72.1133 59.8496 72.2109C59.6855 72.3086 59.5605 72.4316 59.4746 72.5801C59.3887 72.7246 59.3457 72.8945 59.3457 73.0898C59.3457 73.2891 59.3906 73.4707 59.4805 73.6348C59.5703 73.7988 59.7051 73.9297 59.8848 74.0273C60.0684 74.1211 60.293 74.168 60.5586 74.168C60.8906 74.168 61.1836 74.0977 61.4375 73.957C61.6914 73.8164 61.8926 73.6445 62.041 73.4414C62.1934 73.2383 62.2754 73.041 62.2871 72.8496L62.75 73.3711C62.7227 73.5352 62.6484 73.7168 62.5273 73.916C62.4062 74.1152 62.2441 74.3066 62.041 74.4902C61.8418 74.6699 61.6035 74.8203 61.3262 74.9414C61.0527 75.0586 60.7441 75.1172 60.4004 75.1172C59.9707 75.1172 59.5938 75.0332 59.2695 74.8652C58.9492 74.6973 58.6992 74.4727 58.5195 74.1914C58.3438 73.9062 58.2559 73.5879 58.2559 73.2363C58.2559 72.8965 58.3223 72.5977 58.4551 72.3398C58.5879 72.0781 58.7793 71.8613 59.0293 71.6895C59.2793 71.5137 59.5801 71.3809 59.9316 71.291C60.2832 71.2012 60.6758 71.1562 61.1094 71.1562H62.3691ZM66.0547 69.8789V77.4375H64.9648V68.6602H65.9609L66.0547 69.8789ZM70.3262 71.7773V71.9004C70.3262 72.3613 70.2715 72.7891 70.1621 73.1836C70.0527 73.5742 69.8926 73.9141 69.6816 74.2031C69.4746 74.4922 69.2188 74.7168 68.9141 74.877C68.6094 75.0371 68.2598 75.1172 67.8652 75.1172C67.4629 75.1172 67.1074 75.0508 66.7988 74.918C66.4902 74.7852 66.2285 74.5918 66.0137 74.3379C65.7988 74.084 65.627 73.7793 65.498 73.4238C65.373 73.0684 65.2871 72.668 65.2402 72.2227V71.5664C65.2871 71.0977 65.375 70.6777 65.5039 70.3066C65.6328 69.9355 65.8027 69.6191 66.0137 69.3574C66.2285 69.0918 66.4883 68.8906 66.793 68.7539C67.0977 68.6133 67.4492 68.543 67.8477 68.543C68.2461 68.543 68.5996 68.6211 68.9082 68.7773C69.2168 68.9297 69.4766 69.1484 69.6875 69.4336C69.8984 69.7188 70.0566 70.0605 70.1621 70.459C70.2715 70.8535 70.3262 71.293 70.3262 71.7773ZM69.2363 71.9004V71.7773C69.2363 71.4609 69.2031 71.1641 69.1367 70.8867C69.0703 70.6055 68.9668 70.3594 68.8262 70.1484C68.6895 69.9336 68.5137 69.7656 68.2988 69.6445C68.084 69.5195 67.8281 69.457 67.5312 69.457C67.2578 69.457 67.0195 69.5039 66.8164 69.5977C66.6172 69.6914 66.4473 69.8184 66.3066 69.9785C66.166 70.1348 66.0508 70.3145 65.9609 70.5176C65.875 70.7168 65.8105 70.9238 65.7676 71.1387V72.6562C65.8457 72.9297 65.9551 73.1875 66.0957 73.4297C66.2363 73.668 66.4238 73.8613 66.6582 74.0098C66.8926 74.1543 67.1875 74.2266 67.543 74.2266C67.8359 74.2266 68.0879 74.166 68.2988 74.0449C68.5137 73.9199 68.6895 73.75 68.8262 73.5352C68.9668 73.3203 69.0703 73.0742 69.1367 72.7969C69.2031 72.5156 69.2363 72.2168 69.2363 71.9004ZM72.793 69.8789V77.4375H71.7031V68.6602H72.6992L72.793 69.8789ZM77.0645 71.7773V71.9004C77.0645 72.3613 77.0098 72.7891 76.9004 73.1836C76.791 73.5742 76.6309 73.9141 76.4199 74.2031C76.2129 74.4922 75.957 74.7168 75.6523 74.877C75.3477 75.0371 74.998 75.1172 74.6035 75.1172C74.2012 75.1172 73.8457 75.0508 73.5371 74.918C73.2285 74.7852 72.9668 74.5918 72.752 74.3379C72.5371 74.084 72.3652 73.7793 72.2363 73.4238C72.1113 73.0684 72.0254 72.668 71.9785 72.2227V71.5664C72.0254 71.0977 72.1133 70.6777 72.2422 70.3066C72.3711 69.9355 72.541 69.6191 72.752 69.3574C72.9668 69.0918 73.2266 68.8906 73.5312 68.7539C73.8359 68.6133 74.1875 68.543 74.5859 68.543C74.9844 68.543 75.3379 68.6211 75.6465 68.7773C75.9551 68.9297 76.2148 69.1484 76.4258 69.4336C76.6367 69.7188 76.7949 70.0605 76.9004 70.459C77.0098 70.8535 77.0645 71.293 77.0645 71.7773ZM75.9746 71.9004V71.7773C75.9746 71.4609 75.9414 71.1641 75.875 70.8867C75.8086 70.6055 75.7051 70.3594 75.5645 70.1484C75.4277 69.9336 75.252 69.7656 75.0371 69.6445C74.8223 69.5195 74.5664 69.457 74.2695 69.457C73.9961 69.457 73.7578 69.5039 73.5547 69.5977C73.3555 69.6914 73.1855 69.8184 73.0449 69.9785C72.9043 70.1348 72.7891 70.3145 72.6992 70.5176C72.6133 70.7168 72.5488 70.9238 72.5059 71.1387V72.6562C72.584 72.9297 72.6934 73.1875 72.834 73.4297C72.9746 73.668 73.1621 73.8613 73.3965 74.0098C73.6309 74.1543 73.9258 74.2266 74.2812 74.2266C74.5742 74.2266 74.8262 74.166 75.0371 74.0449C75.252 73.9199 75.4277 73.75 75.5645 73.5352C75.7051 73.3203 75.8086 73.0742 75.875 72.7969C75.9414 72.5156 75.9746 72.2168 75.9746 71.9004ZM78.1602 71.9004V71.7656C78.1602 71.3086 78.2266 70.8848 78.3594 70.4941C78.4922 70.0996 78.6836 69.7578 78.9336 69.4688C79.1836 69.1758 79.4863 68.9492 79.8418 68.7891C80.1973 68.625 80.5957 68.543 81.0371 68.543C81.4824 68.543 81.8828 68.625 82.2383 68.7891C82.5977 68.9492 82.9023 69.1758 83.1523 69.4688C83.4062 69.7578 83.5996 70.0996 83.7324 70.4941C83.8652 70.8848 83.9316 71.3086 83.9316 71.7656V71.9004C83.9316 72.3574 83.8652 72.7812 83.7324 73.1719C83.5996 73.5625 83.4062 73.9043 83.1523 74.1973C82.9023 74.4863 82.5996 74.7129 82.2441 74.877C81.8926 75.0371 81.4941 75.1172 81.0488 75.1172C80.6035 75.1172 80.2031 75.0371 79.8477 74.877C79.4922 74.7129 79.1875 74.4863 78.9336 74.1973C78.6836 73.9043 78.4922 73.5625 78.3594 73.1719C78.2266 72.7812 78.1602 72.3574 78.1602 71.9004ZM79.2441 71.7656V71.9004C79.2441 72.2168 79.2812 72.5156 79.3555 72.7969C79.4297 73.0742 79.541 73.3203 79.6895 73.5352C79.8418 73.75 80.0312 73.9199 80.2578 74.0449C80.4844 74.166 80.748 74.2266 81.0488 74.2266C81.3457 74.2266 81.6055 74.166 81.8281 74.0449C82.0547 73.9199 82.2422 73.75 82.3906 73.5352C82.5391 73.3203 82.6504 73.0742 82.7246 72.7969C82.8027 72.5156 82.8418 72.2168 82.8418 71.9004V71.7656C82.8418 71.4531 82.8027 71.1582 82.7246 70.8809C82.6504 70.5996 82.5371 70.3516 82.3848 70.1367C82.2363 69.918 82.0488 69.7461 81.8223 69.6211C81.5996 69.4961 81.3379 69.4336 81.0371 69.4336C80.7402 69.4336 80.4785 69.4961 80.252 69.6211C80.0293 69.7461 79.8418 69.918 79.6895 70.1367C79.541 70.3516 79.4297 70.5996 79.3555 70.8809C79.2812 71.1582 79.2441 71.4531 79.2441 71.7656ZM86.4688 68.6602V75H85.3789V68.6602H86.4688ZM85.2969 66.9785C85.2969 66.8027 85.3496 66.6543 85.4551 66.5332C85.5645 66.4121 85.7246 66.3516 85.9355 66.3516C86.1426 66.3516 86.3008 66.4121 86.4102 66.5332C86.5234 66.6543 86.5801 66.8027 86.5801 66.9785C86.5801 67.1465 86.5234 67.291 86.4102 67.4121C86.3008 67.5293 86.1426 67.5879 85.9355 67.5879C85.7246 67.5879 85.5645 67.5293 85.4551 67.4121C85.3496 67.291 85.2969 67.1465 85.2969 66.9785ZM89.293 70.0137V75H88.209V68.6602H89.2344L89.293 70.0137ZM89.0352 71.5898L88.584 71.5723C88.5879 71.1387 88.6523 70.7383 88.7773 70.3711C88.9023 70 89.0781 69.6777 89.3047 69.4043C89.5312 69.1309 89.8008 68.9199 90.1133 68.7715C90.4297 68.6191 90.7793 68.543 91.1621 68.543C91.4746 68.543 91.7559 68.5859 92.0059 68.6719C92.2559 68.7539 92.4688 68.8867 92.6445 69.0703C92.8242 69.2539 92.9609 69.4922 93.0547 69.7852C93.1484 70.0742 93.1953 70.4277 93.1953 70.8457V75H92.1055V70.834C92.1055 70.502 92.0566 70.2363 91.959 70.0371C91.8613 69.834 91.7188 69.6875 91.5312 69.5977C91.3438 69.5039 91.1133 69.457 90.8398 69.457C90.5703 69.457 90.3242 69.5137 90.1016 69.627C89.8828 69.7402 89.6934 69.8965 89.5332 70.0957C89.377 70.2949 89.2539 70.5234 89.1641 70.7812C89.0781 71.0352 89.0352 71.3047 89.0352 71.5898ZM97.4961 68.6602V69.4922H94.0684V68.6602H97.4961ZM95.2285 67.1191H96.3125V73.4297C96.3125 73.6445 96.3457 73.8066 96.4121 73.916C96.4785 74.0254 96.5645 74.0977 96.6699 74.1328C96.7754 74.168 96.8887 74.1855 97.0098 74.1855C97.0996 74.1855 97.1934 74.1777 97.291 74.1621C97.3926 74.1426 97.4688 74.127 97.5195 74.1152L97.5254 75C97.4395 75.0273 97.3262 75.0527 97.1855 75.0762C97.0488 75.1035 96.8828 75.1172 96.6875 75.1172C96.4219 75.1172 96.1777 75.0645 95.9551 74.959C95.7324 74.8535 95.5547 74.6777 95.4219 74.4316C95.293 74.1816 95.2285 73.8457 95.2285 73.4238V67.1191ZM99.8457 69.9199V75H98.7559V68.6602H99.7871L99.8457 69.9199ZM99.623 71.5898L99.1191 71.5723C99.123 71.1387 99.1797 70.7383 99.2891 70.3711C99.3984 70 99.5605 69.6777 99.7754 69.4043C99.9902 69.1309 100.258 68.9199 100.578 68.7715C100.898 68.6191 101.27 68.543 101.691 68.543C101.988 68.543 102.262 68.5859 102.512 68.6719C102.762 68.7539 102.979 68.8848 103.162 69.0645C103.346 69.2441 103.488 69.4746 103.59 69.7559C103.691 70.0371 103.742 70.377 103.742 70.7754V75H102.658V70.8281C102.658 70.4961 102.602 70.2305 102.488 70.0312C102.379 69.832 102.223 69.6875 102.02 69.5977C101.816 69.5039 101.578 69.457 101.305 69.457C100.984 69.457 100.717 69.5137 100.502 69.627C100.287 69.7402 100.115 69.8965 99.9863 70.0957C99.8574 70.2949 99.7637 70.5234 99.7051 70.7812C99.6504 71.0352 99.623 71.3047 99.623 71.5898ZM103.73 70.9922L103.004 71.2148C103.008 70.8672 103.064 70.5332 103.174 70.2129C103.287 69.8926 103.449 69.6074 103.66 69.3574C103.875 69.1074 104.139 68.9102 104.451 68.7656C104.764 68.6172 105.121 68.543 105.523 68.543C105.863 68.543 106.164 68.5879 106.426 68.6777C106.691 68.7676 106.914 68.9062 107.094 69.0938C107.277 69.2773 107.416 69.5137 107.51 69.8027C107.604 70.0918 107.65 70.4355 107.65 70.834V75H106.561V70.8223C106.561 70.4668 106.504 70.1914 106.391 69.9961C106.281 69.7969 106.125 69.6582 105.922 69.5801C105.723 69.498 105.484 69.457 105.207 69.457C104.969 69.457 104.758 69.498 104.574 69.5801C104.391 69.6621 104.236 69.7754 104.111 69.9199C103.986 70.0605 103.891 70.2227 103.824 70.4062C103.762 70.5898 103.73 70.7852 103.73 70.9922ZM111.922 75.1172C111.48 75.1172 111.08 75.043 110.721 74.8945C110.365 74.7422 110.059 74.5293 109.801 74.2559C109.547 73.9824 109.352 73.6582 109.215 73.2832C109.078 72.9082 109.01 72.498 109.01 72.0527V71.8066C109.01 71.291 109.086 70.832 109.238 70.4297C109.391 70.0234 109.598 69.6797 109.859 69.3984C110.121 69.1172 110.418 68.9043 110.75 68.7598C111.082 68.6152 111.426 68.543 111.781 68.543C112.234 68.543 112.625 68.6211 112.953 68.7773C113.285 68.9336 113.557 69.1523 113.768 69.4336C113.979 69.7109 114.135 70.0391 114.236 70.418C114.338 70.793 114.389 71.2031 114.389 71.6484V72.1348H109.654V71.25H113.305V71.168C113.289 70.8867 113.23 70.6133 113.129 70.3477C113.031 70.082 112.875 69.8633 112.66 69.6914C112.445 69.5195 112.152 69.4336 111.781 69.4336C111.535 69.4336 111.309 69.4863 111.102 69.5918C110.895 69.6934 110.717 69.8457 110.568 70.0488C110.42 70.252 110.305 70.5 110.223 70.793C110.141 71.0859 110.1 71.4238 110.1 71.8066V72.0527C110.1 72.3535 110.141 72.6367 110.223 72.9023C110.309 73.1641 110.432 73.3945 110.592 73.5938C110.756 73.793 110.953 73.9492 111.184 74.0625C111.418 74.1758 111.684 74.2324 111.98 74.2324C112.363 74.2324 112.688 74.1543 112.953 73.998C113.219 73.8418 113.451 73.6328 113.65 73.3711L114.307 73.8926C114.17 74.0996 113.996 74.2969 113.785 74.4844C113.574 74.6719 113.314 74.8242 113.006 74.9414C112.701 75.0586 112.34 75.1172 111.922 75.1172ZM116.738 70.0137V75H115.654V68.6602H116.68L116.738 70.0137ZM116.48 71.5898L116.029 71.5723C116.033 71.1387 116.098 70.7383 116.223 70.3711C116.348 70 116.523 69.6777 116.75 69.4043C116.977 69.1309 117.246 68.9199 117.559 68.7715C117.875 68.6191 118.225 68.543 118.607 68.543C118.92 68.543 119.201 68.5859 119.451 68.6719C119.701 68.7539 119.914 68.8867 120.09 69.0703C120.27 69.2539 120.406 69.4922 120.5 69.7852C120.594 70.0742 120.641 70.4277 120.641 70.8457V75H119.551V70.834C119.551 70.502 119.502 70.2363 119.404 70.0371C119.307 69.834 119.164 69.6875 118.977 69.5977C118.789 69.5039 118.559 69.457 118.285 69.457C118.016 69.457 117.77 69.5137 117.547 69.627C117.328 69.7402 117.139 69.8965 116.979 70.0957C116.822 70.2949 116.699 70.5234 116.609 70.7812C116.523 71.0352 116.48 71.3047 116.48 71.5898ZM124.941 68.6602V69.4922H121.514V68.6602H124.941ZM122.674 67.1191H123.758V73.4297C123.758 73.6445 123.791 73.8066 123.857 73.916C123.924 74.0254 124.01 74.0977 124.115 74.1328C124.221 74.168 124.334 74.1855 124.455 74.1855C124.545 74.1855 124.639 74.1777 124.736 74.1621C124.838 74.1426 124.914 74.127 124.965 74.1152L124.971 75C124.885 75.0273 124.771 75.0527 124.631 75.0762C124.494 75.1035 124.328 75.1172 124.133 75.1172C123.867 75.1172 123.623 75.0645 123.4 74.959C123.178 74.8535 123 74.6777 122.867 74.4316C122.738 74.1816 122.674 73.8457 122.674 73.4238V67.1191ZM129.904 73.3184C129.904 73.1621 129.869 73.0176 129.799 72.8848C129.732 72.748 129.594 72.625 129.383 72.5156C129.176 72.4023 128.863 72.3047 128.445 72.2227C128.094 72.1484 127.775 72.0605 127.49 71.959C127.209 71.8574 126.969 71.7344 126.77 71.5898C126.574 71.4453 126.424 71.2754 126.318 71.0801C126.213 70.8848 126.16 70.6562 126.16 70.3945C126.16 70.1445 126.215 69.9082 126.324 69.6855C126.438 69.4629 126.596 69.2656 126.799 69.0938C127.006 68.9219 127.254 68.7871 127.543 68.6895C127.832 68.5918 128.154 68.543 128.51 68.543C129.018 68.543 129.451 68.6328 129.811 68.8125C130.17 68.9922 130.445 69.2324 130.637 69.5332C130.828 69.8301 130.924 70.1602 130.924 70.5234H129.84C129.84 70.3477 129.787 70.1777 129.682 70.0137C129.58 69.8457 129.43 69.707 129.23 69.5977C129.035 69.4883 128.795 69.4336 128.51 69.4336C128.209 69.4336 127.965 69.4805 127.777 69.5742C127.594 69.6641 127.459 69.7793 127.373 69.9199C127.291 70.0605 127.25 70.209 127.25 70.3652C127.25 70.4824 127.27 70.5879 127.309 70.6816C127.352 70.7715 127.426 70.8555 127.531 70.9336C127.637 71.0078 127.785 71.0781 127.977 71.1445C128.168 71.2109 128.412 71.2773 128.709 71.3438C129.229 71.4609 129.656 71.6016 129.992 71.7656C130.328 71.9297 130.578 72.1309 130.742 72.3691C130.906 72.6074 130.988 72.8965 130.988 73.2363C130.988 73.5137 130.93 73.7676 130.812 73.998C130.699 74.2285 130.533 74.4277 130.314 74.5957C130.1 74.7598 129.842 74.8887 129.541 74.9824C129.244 75.0723 128.91 75.1172 128.539 75.1172C127.98 75.1172 127.508 75.0176 127.121 74.8184C126.734 74.6191 126.441 74.3613 126.242 74.0449C126.043 73.7285 125.943 73.3945 125.943 73.043H127.033C127.049 73.3398 127.135 73.5762 127.291 73.752C127.447 73.9238 127.639 74.0469 127.865 74.1211C128.092 74.1914 128.316 74.2266 128.539 74.2266C128.836 74.2266 129.084 74.1875 129.283 74.1094C129.486 74.0312 129.641 73.9238 129.746 73.7871C129.852 73.6504 129.904 73.4941 129.904 73.3184Z" fill="#5E6073"/>
<path d="M15.8 18.696H17.474L23.216 28.002H23.09V18.696H24.494V30H22.928L16.988 20.388H17.204V30H15.8V18.696ZM31.2367 30.216C30.4627 30.216 29.7727 30.045 29.1667 29.703C28.5667 29.361 28.0927 28.854 27.7447 28.182C27.3967 27.51 27.2227 26.682 27.2227 25.698C27.2227 24.708 27.3967 23.88 27.7447 23.214C28.0927 22.542 28.5667 22.035 29.1667 21.693C29.7727 21.351 30.4627 21.18 31.2367 21.18C32.0047 21.18 32.6887 21.351 33.2887 21.693C33.8947 22.035 34.3687 22.542 34.7107 23.214C35.0587 23.88 35.2327 24.708 35.2327 25.698C35.2327 26.682 35.0587 27.51 34.7107 28.182C34.3687 28.854 33.8947 29.361 33.2887 29.703C32.6887 30.045 32.0047 30.216 31.2367 30.216ZM31.2007 28.992C31.7587 28.992 32.2327 28.86 32.6227 28.596C33.0127 28.326 33.3067 27.945 33.5047 27.453C33.7087 26.961 33.8107 26.376 33.8107 25.698C33.8107 24.672 33.5977 23.865 33.1717 23.277C32.7457 22.683 32.1127 22.386 31.2727 22.386C30.7087 22.386 30.2317 22.521 29.8417 22.791C29.4577 23.055 29.1637 23.436 28.9597 23.934C28.7617 24.426 28.6627 25.014 28.6627 25.698C28.6627 26.712 28.8757 27.516 29.3017 28.11C29.7337 28.698 30.3667 28.992 31.2007 28.992ZM48.0879 21.378H49.4919V30H48.0879V21.378ZM41.9859 21.378H43.3899V26.742C43.3899 27.462 43.5639 28.008 43.9119 28.38C44.2659 28.752 44.7699 28.938 45.4239 28.938C45.9639 28.938 46.4319 28.794 46.8279 28.506C47.2299 28.218 47.5389 27.822 47.7549 27.318C47.9769 26.808 48.0879 26.226 48.0879 25.572H48.6099C48.6099 26.538 48.4689 27.363 48.1869 28.047C47.9109 28.731 47.5179 29.256 47.0079 29.622C46.5039 29.982 45.9099 30.162 45.2259 30.162C44.5779 30.162 44.0109 30.042 43.5249 29.802C43.0389 29.562 42.6609 29.199 42.3909 28.713C42.1209 28.221 41.9859 27.6 41.9859 26.85V21.378ZM57.0424 30.216C56.4124 30.216 55.8634 30.072 55.3954 29.784C54.9334 29.496 54.5764 29.076 54.3244 28.524C54.0724 27.966 53.9464 27.288 53.9464 26.49H54.5404C54.5404 27.024 54.6514 27.474 54.8734 27.84C55.0954 28.206 55.3834 28.485 55.7374 28.677C56.0974 28.863 56.4784 28.956 56.8804 28.956C57.3124 28.956 57.7264 28.833 58.1224 28.587C58.5184 28.335 58.8424 27.966 59.0944 27.48C59.3464 26.994 59.4724 26.394 59.4724 25.68C59.4724 24.996 59.3554 24.411 59.1214 23.925C58.8934 23.439 58.5844 23.067 58.1944 22.809C57.8044 22.551 57.3724 22.422 56.8984 22.422C56.4904 22.422 56.1064 22.521 55.7464 22.719C55.3864 22.917 55.0954 23.208 54.8734 23.592C54.6514 23.97 54.5404 24.438 54.5404 24.996H53.9464C53.9464 24.162 54.0844 23.463 54.3604 22.899C54.6364 22.329 55.0114 21.9 55.4854 21.612C55.9594 21.324 56.4904 21.18 57.0784 21.18C57.7504 21.18 58.3774 21.36 58.9594 21.72C59.5414 22.08 60.0124 22.596 60.3724 23.268C60.7324 23.94 60.9124 24.744 60.9124 25.68C60.9124 26.628 60.7294 27.441 60.3634 28.119C60.0034 28.797 59.5294 29.316 58.9414 29.676C58.3534 30.036 57.7204 30.216 57.0424 30.216ZM53.1364 34.23V21.396H54.3064L54.5404 23.412V34.23H53.1364ZM66.6897 30.216C65.9997 30.216 65.3547 30.03 64.7547 29.658C64.1607 29.286 63.6807 28.761 63.3147 28.083C62.9487 27.405 62.7657 26.604 62.7657 25.68C62.7657 24.732 62.9487 23.922 63.3147 23.25C63.6807 22.578 64.1607 22.065 64.7547 21.711C65.3547 21.357 65.9997 21.18 66.6897 21.18C67.1757 21.18 67.6107 21.255 67.9947 21.405C68.3847 21.549 68.7237 21.75 69.0117 22.008C69.2997 22.266 69.5367 22.56 69.7227 22.89C69.9147 23.214 70.0557 23.556 70.1457 23.916L68.7057 24.042C68.5557 23.544 68.3037 23.151 67.9497 22.863C67.6017 22.569 67.1757 22.422 66.6717 22.422C66.2457 22.422 65.8437 22.545 65.4657 22.791C65.0937 23.031 64.7907 23.394 64.5567 23.88C64.3227 24.36 64.2057 24.96 64.2057 25.68C64.2057 26.346 64.3107 26.925 64.5207 27.417C64.7367 27.903 65.0307 28.281 65.4027 28.551C65.7747 28.821 66.1977 28.956 66.6717 28.956C67.3377 28.956 67.8417 28.794 68.1837 28.47C68.5317 28.14 68.7057 27.684 68.7057 27.102H70.1457C70.1457 27.702 70.0047 28.236 69.7227 28.704C69.4407 29.172 69.0387 29.541 68.5167 29.811C68.0007 30.081 67.3917 30.216 66.6897 30.216ZM76.0609 30.216C75.2869 30.216 74.5969 30.045 73.9909 29.703C73.3909 29.361 72.9169 28.854 72.5689 28.182C72.2209 27.51 72.0469 26.682 72.0469 25.698C72.0469 24.708 72.2209 23.88 72.5689 23.214C72.9169 22.542 73.3909 22.035 73.9909 21.693C74.5969 21.351 75.2869 21.18 76.0609 21.18C76.8289 21.18 77.5129 21.351 78.1129 21.693C78.7189 22.035 79.1929 22.542 79.5349 23.214C79.8829 23.88 80.0569 24.708 80.0569 25.698C80.0569 26.682 79.8829 27.51 79.5349 28.182C79.1929 28.854 78.7189 29.361 78.1129 29.703C77.5129 30.045 76.8289 30.216 76.0609 30.216ZM76.0249 28.992C76.5829 28.992 77.0569 28.86 77.4469 28.596C77.8369 28.326 78.1309 27.945 78.3289 27.453C78.5329 26.961 78.6349 26.376 78.6349 25.698C78.6349 24.672 78.4219 23.865 77.9959 23.277C77.5699 22.683 76.9369 22.386 76.0969 22.386C75.5329 22.386 75.0559 22.521 74.6659 22.791C74.2819 23.055 73.9879 23.436 73.7839 23.934C73.5859 24.426 73.4869 25.014 73.4869 25.698C73.4869 26.712 73.6999 27.516 74.1259 28.11C74.5579 28.698 75.1909 28.992 76.0249 28.992ZM94.8867 30V24.942C94.8867 24.12 94.6887 23.496 94.2927 23.07C93.9027 22.638 93.3747 22.422 92.7087 22.422C91.9287 22.422 91.3317 22.725 90.9177 23.331C90.5037 23.931 90.2967 24.762 90.2967 25.824H89.6487C89.6487 25.05 89.7237 24.372 89.8737 23.79C90.0297 23.208 90.2547 22.725 90.5487 22.341C90.8427 21.951 91.1997 21.66 91.6197 21.468C92.0397 21.276 92.5167 21.18 93.0507 21.18C93.7287 21.18 94.3077 21.333 94.7877 21.639C95.2737 21.939 95.6457 22.371 95.9037 22.935C96.1617 23.499 96.2907 24.168 96.2907 24.942V30H94.8867ZM82.7907 30V21.396H83.9967L84.1587 23.124C84.4287 22.5 84.8067 22.02 85.2927 21.684C85.7847 21.348 86.3727 21.18 87.0567 21.18C87.7347 21.18 88.3137 21.333 88.7937 21.639C89.2797 21.939 89.6517 22.371 89.9097 22.935C90.1677 23.499 90.2967 24.168 90.2967 24.942V30H88.9107V24.942C88.9107 24.12 88.7127 23.496 88.3167 23.07C87.9267 22.638 87.3927 22.422 86.7147 22.422C86.1987 22.422 85.7517 22.563 85.3737 22.845C84.9957 23.127 84.7047 23.532 84.5007 24.06C84.2967 24.582 84.1947 25.206 84.1947 25.932V30H82.7907ZM100.423 19.362C100.135 19.362 99.9065 19.281 99.7385 19.119C99.5705 18.951 99.4865 18.732 99.4865 18.462C99.4865 18.198 99.5705 17.988 99.7385 17.832C99.9065 17.676 100.135 17.598 100.423 17.598C100.711 17.598 100.939 17.676 101.107 17.832C101.275 17.988 101.359 18.198 101.359 18.462C101.359 18.732 101.275 18.951 101.107 19.119C100.939 19.281 100.711 19.362 100.423 19.362ZM99.7205 30V21.378H101.125V30H99.7205ZM111.112 30V24.942C111.112 24.12 110.914 23.496 110.518 23.07C110.128 22.638 109.594 22.422 108.916 22.422C108.4 22.422 107.953 22.563 107.575 22.845C107.197 23.127 106.906 23.532 106.702 24.06C106.498 24.582 106.396 25.206 106.396 25.932H105.856C105.856 24.93 105.988 24.075 106.252 23.367C106.516 22.659 106.9 22.119 107.404 21.747C107.914 21.369 108.532 21.18 109.258 21.18C109.936 21.18 110.515 21.333 110.995 21.639C111.481 21.939 111.853 22.371 112.111 22.935C112.369 23.499 112.498 24.168 112.498 24.942V30H111.112ZM104.992 30V21.396H106.198L106.396 23.376V30H104.992ZM118.897 34.428C118.015 34.428 117.25 34.302 116.602 34.05C115.954 33.804 115.45 33.471 115.09 33.051C114.736 32.637 114.559 32.178 114.559 31.674C114.559 31.008 114.802 30.498 115.288 30.144C115.78 29.796 116.413 29.622 117.187 29.622L117.961 30.108C117.313 30.108 116.812 30.243 116.458 30.513C116.104 30.783 115.927 31.152 115.927 31.62C115.927 32.088 116.179 32.484 116.683 32.808C117.187 33.132 117.925 33.294 118.897 33.294C119.617 33.294 120.247 33.189 120.787 32.979C121.333 32.775 121.756 32.505 122.056 32.169C122.362 31.839 122.515 31.482 122.515 31.098C122.515 30.828 122.416 30.594 122.218 30.396C122.02 30.204 121.717 30.108 121.309 30.108H117.961C117.379 30.108 116.875 30.021 116.449 29.847C116.029 29.667 115.705 29.433 115.477 29.145C115.249 28.857 115.135 28.542 115.135 28.2C115.135 27.84 115.237 27.534 115.441 27.282C115.645 27.03 115.909 26.838 116.233 26.706C116.563 26.574 116.917 26.508 117.295 26.508L117.565 27.03C117.385 27.03 117.202 27.072 117.016 27.156C116.836 27.234 116.683 27.354 116.557 27.516C116.437 27.672 116.377 27.87 116.377 28.11C116.377 28.386 116.491 28.617 116.719 28.803C116.947 28.989 117.361 29.082 117.961 29.082H121.309C122.119 29.082 122.755 29.253 123.217 29.595C123.685 29.937 123.919 30.414 123.919 31.026C123.919 31.59 123.718 32.13 123.316 32.646C122.914 33.168 122.338 33.594 121.588 33.924C120.838 34.26 119.941 34.428 118.897 34.428ZM119.149 27.48C118.489 27.48 117.892 27.348 117.358 27.084C116.83 26.82 116.41 26.451 116.098 25.977C115.792 25.503 115.639 24.954 115.639 24.33C115.639 23.7 115.792 23.148 116.098 22.674C116.41 22.2 116.83 21.834 117.358 21.576C117.892 21.312 118.489 21.18 119.149 21.18C119.791 21.18 120.373 21.312 120.895 21.576C121.423 21.834 121.843 22.2 122.155 22.674C122.467 23.148 122.623 23.7 122.623 24.33C122.623 24.954 122.467 25.503 122.155 25.977C121.843 26.451 121.423 26.82 120.895 27.084C120.373 27.348 119.791 27.48 119.149 27.48ZM119.149 26.472C119.809 26.472 120.322 26.268 120.688 25.86C121.054 25.452 121.237 24.942 121.237 24.33C121.237 23.7 121.054 23.19 120.688 22.8C120.322 22.404 119.809 22.206 119.149 22.206C118.495 22.206 117.979 22.404 117.601 22.8C117.229 23.19 117.043 23.7 117.043 24.33C117.043 24.942 117.229 25.452 117.601 25.86C117.979 26.268 118.495 26.472 119.149 26.472ZM121.975 22.548L121.309 22.278C121.309 21.774 121.408 21.333 121.606 20.955C121.804 20.571 122.086 20.274 122.452 20.064C122.818 19.848 123.253 19.74 123.757 19.74L123.649 21.126C123.109 21.126 122.695 21.243 122.407 21.477C122.119 21.705 121.975 22.062 121.975 22.548ZM135.615 30L135.435 28.11V24.42C135.435 23.646 135.27 23.091 134.94 22.755C134.61 22.413 134.115 22.242 133.455 22.242C133.083 22.242 132.744 22.296 132.438 22.404C132.138 22.512 131.898 22.68 131.718 22.908C131.544 23.13 131.457 23.418 131.457 23.772H129.891C129.891 23.148 130.044 22.647 130.35 22.269C130.656 21.885 131.076 21.609 131.61 21.441C132.15 21.267 132.765 21.18 133.455 21.18C134.115 21.18 134.7 21.291 135.21 21.513C135.72 21.735 136.119 22.089 136.407 22.575C136.695 23.055 136.839 23.682 136.839 24.456V30H135.615ZM132.681 30.216C131.973 30.216 131.388 30.09 130.926 29.838C130.464 29.586 130.119 29.259 129.891 28.857C129.663 28.455 129.549 28.032 129.549 27.588C129.549 27.006 129.693 26.532 129.981 26.166C130.275 25.8 130.674 25.533 131.178 25.365C131.682 25.191 132.249 25.104 132.879 25.104C133.329 25.104 133.779 25.149 134.229 25.239C134.685 25.329 135.129 25.452 135.561 25.608V26.49C135.201 26.346 134.793 26.232 134.337 26.148C133.887 26.064 133.473 26.022 133.095 26.022C132.519 26.022 132.033 26.142 131.637 26.382C131.241 26.616 131.043 27.018 131.043 27.588C131.043 28.008 131.193 28.368 131.493 28.668C131.799 28.968 132.285 29.118 132.951 29.118C133.419 29.118 133.839 29.01 134.211 28.794C134.589 28.572 134.886 28.296 135.102 27.966C135.324 27.636 135.435 27.306 135.435 26.976H135.777C135.777 27.552 135.651 28.086 135.399 28.578C135.153 29.07 134.799 29.466 134.337 29.766C133.875 30.066 133.323 30.216 132.681 30.216ZM144.107 30.216C143.477 30.216 142.928 30.072 142.46 29.784C141.998 29.496 141.641 29.076 141.389 28.524C141.137 27.966 141.011 27.288 141.011 26.49H141.605C141.605 27.024 141.716 27.474 141.938 27.84C142.16 28.206 142.448 28.485 142.802 28.677C143.162 28.863 143.543 28.956 143.945 28.956C144.377 28.956 144.791 28.833 145.187 28.587C145.583 28.335 145.907 27.966 146.159 27.48C146.411 26.994 146.537 26.394 146.537 25.68C146.537 24.996 146.42 24.411 146.186 23.925C145.958 23.439 145.649 23.067 145.259 22.809C144.869 22.551 144.437 22.422 143.963 22.422C143.555 22.422 143.171 22.521 142.811 22.719C142.451 22.917 142.16 23.208 141.938 23.592C141.716 23.97 141.605 24.438 141.605 24.996H141.011C141.011 24.162 141.149 23.463 141.425 22.899C141.701 22.329 142.076 21.9 142.55 21.612C143.024 21.324 143.555 21.18 144.143 21.18C144.815 21.18 145.442 21.36 146.024 21.72C146.606 22.08 147.077 22.596 147.437 23.268C147.797 23.94 147.977 24.744 147.977 25.68C147.977 26.628 147.794 27.441 147.428 28.119C147.068 28.797 146.594 29.316 146.006 29.676C145.418 30.036 144.785 30.216 144.107 30.216ZM140.201 34.23V21.396H141.371L141.605 23.412V34.23H140.201ZM154.636 30.216C154.006 30.216 153.457 30.072 152.989 29.784C152.527 29.496 152.17 29.076 151.918 28.524C151.666 27.966 151.54 27.288 151.54 26.49H152.134C152.134 27.024 152.245 27.474 152.467 27.84C152.689 28.206 152.977 28.485 153.331 28.677C153.691 28.863 154.072 28.956 154.474 28.956C154.906 28.956 155.32 28.833 155.716 28.587C156.112 28.335 156.436 27.966 156.688 27.48C156.94 26.994 157.066 26.394 157.066 25.68C157.066 24.996 156.949 24.411 156.715 23.925C156.487 23.439 156.178 23.067 155.788 22.809C155.398 22.551 154.966 22.422 154.492 22.422C154.084 22.422 153.7 22.521 153.34 22.719C152.98 22.917 152.689 23.208 152.467 23.592C152.245 23.97 152.134 24.438 152.134 24.996H151.54C151.54 24.162 151.678 23.463 151.954 22.899C152.23 22.329 152.605 21.9 153.079 21.612C153.553 21.324 154.084 21.18 154.672 21.18C155.344 21.18 155.971 21.36 156.553 21.72C157.135 22.08 157.606 22.596 157.966 23.268C158.326 23.94 158.506 24.744 158.506 25.68C158.506 26.628 158.323 27.441 157.957 28.119C157.597 28.797 157.123 29.316 156.535 29.676C155.947 30.036 155.314 30.216 154.636 30.216ZM150.73 34.23V21.396H151.9L152.134 23.412V34.23H150.73ZM164.373 30.216C163.599 30.216 162.909 30.045 162.303 29.703C161.703 29.361 161.229 28.854 160.881 28.182C160.533 27.51 160.359 26.682 160.359 25.698C160.359 24.708 160.533 23.88 160.881 23.214C161.229 22.542 161.703 22.035 162.303 21.693C162.909 21.351 163.599 21.18 164.373 21.18C165.141 21.18 165.825 21.351 166.425 21.693C167.031 22.035 167.505 22.542 167.847 23.214C168.195 23.88 168.369 24.708 168.369 25.698C168.369 26.682 168.195 27.51 167.847 28.182C167.505 28.854 167.031 29.361 166.425 29.703C165.825 30.045 165.141 30.216 164.373 30.216ZM164.337 28.992C164.895 28.992 165.369 28.86 165.759 28.596C166.149 28.326 166.443 27.945 166.641 27.453C166.845 26.961 166.947 26.376 166.947 25.698C166.947 24.672 166.734 23.865 166.308 23.277C165.882 22.683 165.249 22.386 164.409 22.386C163.845 22.386 163.368 22.521 162.978 22.791C162.594 23.055 162.3 23.436 162.096 23.934C161.898 24.426 161.799 25.014 161.799 25.698C161.799 26.712 162.012 27.516 162.438 28.11C162.87 28.698 163.503 28.992 164.337 28.992ZM171.895 19.362C171.607 19.362 171.379 19.281 171.211 19.119C171.043 18.951 170.959 18.732 170.959 18.462C170.959 18.198 171.043 17.988 171.211 17.832C171.379 17.676 171.607 17.598 171.895 17.598C172.183 17.598 172.411 17.676 172.579 17.832C172.747 17.988 172.831 18.198 172.831 18.462C172.831 18.732 172.747 18.951 172.579 19.119C172.411 19.281 172.183 19.362 171.895 19.362ZM171.193 30V21.378H172.597V30H171.193ZM182.584 30V24.942C182.584 24.12 182.386 23.496 181.99 23.07C181.6 22.638 181.066 22.422 180.388 22.422C179.872 22.422 179.425 22.563 179.047 22.845C178.669 23.127 178.378 23.532 178.174 24.06C177.97 24.582 177.868 25.206 177.868 25.932H177.328C177.328 24.93 177.46 24.075 177.724 23.367C177.988 22.659 178.372 22.119 178.876 21.747C179.386 21.369 180.004 21.18 180.73 21.18C181.408 21.18 181.987 21.333 182.467 21.639C182.953 21.939 183.325 22.371 183.583 22.935C183.841 23.499 183.97 24.168 183.97 24.942V30H182.584ZM176.464 30V21.396H177.67L177.868 23.376V30H176.464ZM189.974 30.216C189.506 30.216 189.086 30.126 188.714 29.946C188.342 29.766 188.048 29.496 187.832 29.136C187.616 28.776 187.508 28.326 187.508 27.786V19.002H188.894V27.75C188.894 28.638 189.308 29.082 190.136 29.082C190.382 29.082 190.619 29.055 190.847 29.001C191.081 28.947 191.342 28.866 191.63 28.758L191.828 29.766C191.522 29.898 191.216 30.006 190.91 30.09C190.61 30.174 190.298 30.216 189.974 30.216ZM186.122 22.368V21.396H191.612V22.368H186.122ZM206.191 30V24.942C206.191 24.12 205.993 23.496 205.597 23.07C205.207 22.638 204.679 22.422 204.013 22.422C203.233 22.422 202.636 22.725 202.222 23.331C201.808 23.931 201.601 24.762 201.601 25.824H200.953C200.953 25.05 201.028 24.372 201.178 23.79C201.334 23.208 201.559 22.725 201.853 22.341C202.147 21.951 202.504 21.66 202.924 21.468C203.344 21.276 203.821 21.18 204.355 21.18C205.033 21.18 205.612 21.333 206.092 21.639C206.578 21.939 206.95 22.371 207.208 22.935C207.466 23.499 207.595 24.168 207.595 24.942V30H206.191ZM194.095 30V21.396H195.301L195.463 23.124C195.733 22.5 196.111 22.02 196.597 21.684C197.089 21.348 197.677 21.18 198.361 21.18C199.039 21.18 199.618 21.333 200.098 21.639C200.584 21.939 200.956 22.371 201.214 22.935C201.472 23.499 201.601 24.168 201.601 24.942V30H200.215V24.942C200.215 24.12 200.017 23.496 199.621 23.07C199.231 22.638 198.697 22.422 198.019 22.422C197.503 22.422 197.056 22.563 196.678 22.845C196.3 23.127 196.009 23.532 195.805 24.06C195.601 24.582 195.499 25.206 195.499 25.932V30H194.095ZM213.923 30.216C213.179 30.216 212.513 30.027 211.925 29.649C211.343 29.265 210.881 28.734 210.539 28.056C210.203 27.378 210.035 26.598 210.035 25.716C210.035 24.774 210.203 23.964 210.539 23.286C210.875 22.608 211.334 22.089 211.916 21.729C212.504 21.363 213.173 21.18 213.923 21.18C214.577 21.18 215.135 21.312 215.597 21.576C216.059 21.84 216.431 22.197 216.713 22.647C216.995 23.097 217.19 23.607 217.298 24.177C217.412 24.741 217.445 25.326 217.397 25.932H211.169V25.068H216.47L216.056 25.338C216.074 24.984 216.053 24.63 215.993 24.276C215.939 23.922 215.834 23.598 215.678 23.304C215.522 23.004 215.303 22.764 215.021 22.584C214.739 22.404 214.379 22.314 213.941 22.314C213.389 22.314 212.927 22.455 212.555 22.737C212.183 23.019 211.904 23.391 211.718 23.853C211.532 24.309 211.439 24.804 211.439 25.338V25.914C211.439 26.514 211.529 27.051 211.709 27.525C211.895 27.999 212.171 28.374 212.537 28.65C212.903 28.926 213.365 29.064 213.923 29.064C214.481 29.064 214.94 28.929 215.3 28.659C215.66 28.389 215.879 27.99 215.957 27.462H217.415C217.325 28.032 217.121 28.524 216.803 28.938C216.485 29.346 216.08 29.661 215.588 29.883C215.096 30.105 214.541 30.216 213.923 30.216ZM226.301 30V24.942C226.301 24.12 226.103 23.496 225.707 23.07C225.317 22.638 224.783 22.422 224.105 22.422C223.589 22.422 223.142 22.563 222.764 22.845C222.386 23.127 222.095 23.532 221.891 24.06C221.687 24.582 221.585 25.206 221.585 25.932H221.045C221.045 24.93 221.177 24.075 221.441 23.367C221.705 22.659 222.089 22.119 222.593 21.747C223.103 21.369 223.721 21.18 224.447 21.18C225.125 21.18 225.704 21.333 226.184 21.639C226.67 21.939 227.042 22.371 227.3 22.935C227.558 23.499 227.687 24.168 227.687 24.942V30H226.301ZM220.181 30V21.396H221.387L221.585 23.376V30H220.181ZM233.691 30.216C233.223 30.216 232.803 30.126 232.431 29.946C232.059 29.766 231.765 29.496 231.549 29.136C231.333 28.776 231.225 28.326 231.225 27.786V19.002H232.611V27.75C232.611 28.638 233.025 29.082 233.853 29.082C234.099 29.082 234.336 29.055 234.564 29.001C234.798 28.947 235.059 28.866 235.347 28.758L235.545 29.766C235.239 29.898 234.933 30.006 234.627 30.09C234.327 30.174 234.015 30.216 233.691 30.216ZM229.839 22.368V21.396H235.329V22.368H229.839ZM240.908 30.216C240.074 30.216 239.378 30.099 238.82 29.865C238.262 29.625 237.839 29.298 237.551 28.884C237.263 28.464 237.11 27.984 237.092 27.444H238.442C238.472 27.99 238.691 28.401 239.099 28.677C239.513 28.947 240.074 29.082 240.782 29.082C241.154 29.082 241.496 29.022 241.808 28.902C242.12 28.782 242.369 28.617 242.555 28.407C242.741 28.197 242.834 27.96 242.834 27.696C242.834 27.36 242.711 27.096 242.465 26.904C242.219 26.712 241.826 26.544 241.286 26.4L239.612 25.86C238.886 25.632 238.328 25.32 237.938 24.924C237.554 24.522 237.362 24.042 237.362 23.484C237.362 22.788 237.668 22.23 238.28 21.81C238.892 21.39 239.696 21.18 240.692 21.18C241.748 21.18 242.567 21.396 243.149 21.828C243.731 22.26 244.034 22.8 244.058 23.448H242.672C242.618 23.07 242.426 22.785 242.096 22.593C241.766 22.395 241.298 22.296 240.692 22.296C240.11 22.296 239.654 22.428 239.324 22.692C239 22.95 238.838 23.238 238.838 23.556C238.838 24.15 239.348 24.588 240.368 24.87L242.078 25.446C242.816 25.668 243.38 25.959 243.77 26.319C244.166 26.679 244.364 27.138 244.364 27.696C244.364 28.128 244.223 28.536 243.941 28.92C243.659 29.304 243.26 29.616 242.744 29.856C242.228 30.096 241.616 30.216 240.908 30.216Z" fill="#1B1B1B"/>
<mask id="mask0_434_6764" style="mask-type:alpha" maskUnits="userSpaceOnUse" x="0" y="0" width="360" height="160">
<rect x="0.5" y="0.5" width="359" height="159" rx="13.5" fill="#EAF1F6" stroke="#5E6073"/>
</mask>
<g mask="url(#mask0_434_6764)">
<path d="M306.901 85.8818L249.24 93.9715C238.962 95.4138 231.232 103.751 230.886 113.763L228.185 192.342H275.74C279.388 179.254 283.036 166.168 286.685 153.08C293.422 130.682 300.161 108.282 306.899 85.884L306.901 85.8818Z" fill="#ADBFC9"/>
<path d="M316.633 84.5165L306.899 85.8824C300.162 108.28 293.422 130.68 286.685 153.078C285.128 164.025 290.387 174.564 299.344 179.118C310.334 184.705 325.152 180.394 332.21 168.283C333.925 162.381 336.193 154.419 338.77 144.952C343.405 127.919 344.294 123.408 344.573 117.7C345.065 107.582 345.442 98.9886 339.682 92.303C332.356 83.7999 319.718 84.3121 316.631 84.5188L316.633 84.5165Z" fill="#ADBFC9"/>
<path d="M286.267 79.3762H282.135V44.5529H298.411V67.2293C298.411 73.9374 292.973 79.374 286.267 79.374V79.3762Z" fill="#838D94"/>
<path d="M233.786 191.271L228.536 193.198C218.216 196.988 206.779 191.693 202.989 181.375L186.012 135.146C182.889 126.643 187.252 117.217 195.755 114.094L207.581 109.751C216.084 106.629 225.51 110.991 228.633 119.495L245.61 165.723C249.4 176.044 244.104 187.481 233.786 191.271Z" fill="#ADBFC9"/>
<path d="M289.742 91.5901C287.26 93.3042 282.275 96.2224 275.419 96.8065C271.914 97.1053 268.915 96.7099 266.691 96.2179C265.388 89.7255 264.085 83.2308 262.782 76.7384L285.834 72.1105L289.745 91.5901H289.742Z" fill="#C1D7E4"/>
<path d="M264.233 83.9771L277.975 81.142C278.564 81.0207 278.887 81.8002 278.386 82.1305L265.568 90.6223L264.233 83.9771Z" fill="#838D94"/>
<path d="M285.251 46.8869C281.736 46.9543 278.222 47.0194 274.706 47.0868C270.02 47.1745 265.334 47.2643 260.648 47.3519C258.304 47.3969 255.961 47.4395 253.618 47.4845C252.446 47.5069 251.275 47.5294 250.102 47.5519C249.617 47.5609 248.71 47.3969 248.269 47.5856C247.827 47.7743 247.982 48.3494 247.97 48.8549C247.836 54.8261 247.616 60.8063 247.474 66.7843C247.44 70.6888 247.407 74.5932 247.373 78.4954C247.373 78.5246 247.373 78.5538 247.371 78.5853C247.211 83.0828 251.291 86.5492 255.703 85.6663C259.376 84.9317 263.047 84.1971 266.72 83.4625C273.592 82.0449 280.464 80.6274 287.339 79.2098C286.642 68.4355 285.946 57.6612 285.251 46.8869Z" fill="#C1D7E4"/>
<path fill-rule="evenodd" clip-rule="evenodd" d="M283.388 53.1058C283.511 53.3902 283.381 53.7211 283.097 53.8448C281.202 54.6691 279.308 55.494 277.414 56.3189L277.413 56.3193C275.519 57.1443 273.624 57.9694 271.729 58.7939C271.445 58.9177 271.114 58.7874 270.99 58.503C270.867 58.2186 270.997 57.8877 271.281 57.7639C273.176 56.9396 275.07 56.1147 276.964 55.2898L276.965 55.2893C278.859 54.4643 280.754 53.6393 282.649 52.8149C282.933 52.6911 283.264 52.8214 283.388 53.1058Z" fill="#838D94"/>
<path fill-rule="evenodd" clip-rule="evenodd" d="M285.258 63.6585C285.461 63.8931 285.436 64.2478 285.201 64.4507C283.617 65.8216 282.033 67.193 280.45 68.5645L280.448 68.5662C278.863 69.9383 277.279 71.3104 275.694 72.682C275.459 72.8849 275.104 72.8593 274.902 72.6248C274.699 72.3902 274.724 72.0356 274.959 71.8326C276.544 70.4612 278.128 69.0892 279.712 67.7171L279.713 67.7167C281.297 66.3448 282.881 64.9728 284.466 63.6013C284.701 63.3984 285.055 63.424 285.258 63.6585Z" fill="#838D94"/>
<path d="M287.339 54.2667H279.53C276.052 54.2667 273.235 51.4473 273.235 47.972V44.1282H287.339V54.2667Z" fill="#838D94"/>
<path d="M286.591 65.0724C290.343 65.0724 293.384 62.0309 293.384 58.279C293.384 54.527 290.343 51.4855 286.591 51.4855C282.839 51.4855 279.797 54.527 279.797 58.279C279.797 62.0309 282.839 65.0724 286.591 65.0724Z" fill="#C1D7E4"/>
<path fill-rule="evenodd" clip-rule="evenodd" d="M286.319 57.4479C285.424 57.4479 284.699 58.1731 284.699 59.0676C284.699 59.9622 285.424 60.6874 286.319 60.6874C287.213 60.6874 287.939 59.9622 287.939 59.0676C287.939 58.1731 287.213 57.4479 286.319 57.4479ZM283.576 59.0676C283.576 57.5527 284.804 56.3246 286.319 56.3246C287.834 56.3246 289.062 57.5527 289.062 59.0676C289.062 60.5826 287.834 61.8106 286.319 61.8106C284.804 61.8106 283.576 60.5826 283.576 59.0676Z" fill="#838D94"/>
<path d="M298.412 47.8666H248.056V43.7802C248.056 36.1712 254.225 30 261.836 30H284.634C292.243 30 298.414 36.1689 298.414 43.7802V47.8666H298.412Z" fill="#919EA5"/>
<path fill-rule="evenodd" clip-rule="evenodd" d="M289.121 55.4157C289.121 55.4157 289.121 55.4157 289.12 55.4158L289.115 55.4167C289.109 55.4175 289.1 55.419 289.087 55.421C289.061 55.4252 289.022 55.4319 288.971 55.4414C288.869 55.4604 288.72 55.4909 288.539 55.5355C288.174 55.6251 287.684 55.7701 287.18 55.9911C286.142 56.4454 285.183 57.1549 284.919 58.225C284.844 58.5261 284.54 58.7098 284.239 58.6354C283.937 58.5609 283.754 58.2565 283.828 57.9554C284.222 56.3633 285.597 55.4576 286.729 54.9621C287.309 54.7083 287.863 54.5448 288.271 54.4447C288.475 54.3944 288.645 54.3597 288.765 54.3372C288.825 54.326 288.873 54.3179 288.906 54.3124C288.923 54.3097 288.936 54.3076 288.946 54.3062L288.957 54.3044L288.961 54.3039L288.962 54.3037C288.963 54.3036 288.963 54.3036 289.042 54.8597L288.963 54.3036C289.27 54.2601 289.554 54.4738 289.598 54.7809C289.641 55.0878 289.428 55.3718 289.121 55.4157C289.121 55.4157 289.121 55.4157 289.121 55.4157L289.121 55.4157Z" fill="#838D94"/>
<path fill-rule="evenodd" clip-rule="evenodd" d="M296.453 120.676C296.75 120.765 296.918 121.079 296.829 121.376L287.225 153.24C287.135 153.537 286.822 153.705 286.525 153.616C286.228 153.526 286.06 153.213 286.149 152.916L295.753 121.051C295.843 120.754 296.156 120.586 296.453 120.676Z" fill="#838D94"/>
<path fill-rule="evenodd" clip-rule="evenodd" d="M294.933 92.4719C295.158 92.6846 295.169 93.04 294.956 93.2659C286.849 101.875 276.136 105.663 267.661 102.382L267.661 102.382C265.77 101.649 263.026 100.188 260.36 97.0766C260.159 96.841 260.186 96.4865 260.421 96.2846C260.657 96.0828 261.012 96.1102 261.213 96.3457C263.737 99.2907 266.313 100.656 268.066 101.334C275.954 104.388 286.206 100.919 294.139 92.4958C294.351 92.27 294.707 92.2593 294.933 92.4719Z" fill="#838D94"/>
<path fill-rule="evenodd" clip-rule="evenodd" d="M197.09 115.117C197.09 115.117 197.09 115.117 197.09 115.117L197.089 115.121L197.084 115.136C197.079 115.15 197.073 115.172 197.064 115.201C197.045 115.259 197.019 115.347 196.986 115.461C196.921 115.689 196.83 116.023 196.732 116.44C196.534 117.276 196.307 118.444 196.186 119.767C195.941 122.438 196.138 125.64 197.763 128.077C197.935 128.335 197.866 128.684 197.608 128.856C197.35 129.028 197.001 128.958 196.829 128.7C194.988 125.941 194.815 122.42 195.067 119.665C195.194 118.276 195.432 117.056 195.638 116.183C195.741 115.745 195.837 115.394 195.907 115.15C195.942 115.029 195.97 114.934 195.991 114.869C196.001 114.836 196.009 114.811 196.014 114.793L196.021 114.773L196.023 114.767L196.023 114.765C196.024 114.765 196.024 114.765 196.557 114.941L196.024 114.765C196.121 114.47 196.439 114.31 196.733 114.408C197.028 114.505 197.187 114.823 197.09 115.117Z" fill="#838D94"/>
<path fill-rule="evenodd" clip-rule="evenodd" d="M204.338 112.807C204.596 112.635 204.945 112.705 205.116 112.963C206.03 114.335 207.206 116.444 207.959 119.222L207.959 119.222C208.835 122.462 208.771 125.244 208.589 127.004C208.557 127.313 208.281 127.537 207.972 127.505C207.663 127.473 207.439 127.197 207.471 126.889C207.644 125.221 207.705 122.585 206.874 119.516C206.162 116.884 205.047 114.886 204.181 113.585C204.009 113.327 204.079 112.979 204.338 112.807Z" fill="#838D94"/>
<path fill-rule="evenodd" clip-rule="evenodd" d="M236.13 113.719C236.438 113.759 236.654 114.041 236.614 114.348L234.166 133.116C234.125 133.423 233.844 133.64 233.536 133.6C233.228 133.56 233.012 133.278 233.052 132.97L235.5 114.203C235.541 113.895 235.822 113.679 236.13 113.719Z" fill="#838D94"/>
<path d="M199.841 84.7096C199.055 84.6669 198.264 84.6646 197.482 84.6646C184.342 84.6489 171.203 84.6332 158.063 84.6152C156.402 84.6152 153.383 84.4961 152.395 86.1586C151.373 87.8749 152.487 90.2562 154.012 91.22C155.654 92.2556 157.703 92.3275 159.646 92.3679C162.203 92.4219 164.76 92.4758 167.318 92.5274C166.815 94.4437 168.675 96.2769 170.612 96.697C172.548 97.1171 174.55 96.6206 176.531 96.5465C178.953 96.4544 181.631 97.0677 183.367 98.8626C185.526 101.093 186.912 103.908 188.577 106.492C189.579 108.046 190.597 109.59 191.608 111.14C191.9 111.587 194.366 115.864 194.643 115.797C202.205 113.935 209.766 112.072 217.328 110.21C215.574 102.963 213.43 95.5827 208.854 89.6923C207.533 87.9917 205.967 86.3967 203.988 85.5497C202.681 84.9904 201.27 84.7837 199.843 84.7073L199.841 84.7096Z" fill="#919EA5"/>
<path fill-rule="evenodd" clip-rule="evenodd" d="M212.673 95.5037H218.649V105.229H212.673V95.5037ZM213.797 96.627V104.106H217.526V96.627H213.797Z" fill="#838D94"/>
<path d="M222.682 106.481C222.682 104.926 221.422 103.666 219.867 103.666H211.458C209.904 103.666 208.643 104.926 208.643 106.481V110.61H222.682V106.481Z" fill="#C1D7E4"/>
<path d="M222.682 110.612H208.643V142.533H222.682V110.612Z" fill="#838D94"/>
<path fill-rule="evenodd" clip-rule="evenodd" d="M215.791 114.312C215.791 114.002 216.043 113.75 216.353 113.75H222.682C222.992 113.75 223.243 114.002 223.243 114.312C223.243 114.622 222.992 114.874 222.682 114.874H216.353C216.043 114.874 215.791 114.622 215.791 114.312Z" fill="#D5F0FE"/>
<path fill-rule="evenodd" clip-rule="evenodd" d="M215.791 119.205C215.791 118.895 216.043 118.643 216.353 118.643H222.682C222.992 118.643 223.243 118.895 223.243 119.205C223.243 119.515 222.992 119.767 222.682 119.767H216.353C216.043 119.767 215.791 119.515 215.791 119.205Z" fill="#D5F0FE"/>
<path fill-rule="evenodd" clip-rule="evenodd" d="M215.791 124.423C215.791 124.113 216.043 123.862 216.353 123.862H222.682C222.992 123.862 223.243 124.113 223.243 124.423C223.243 124.734 222.992 124.985 222.682 124.985H216.353C216.043 124.985 215.791 124.734 215.791 124.423Z" fill="#D5F0FE"/>
<path fill-rule="evenodd" clip-rule="evenodd" d="M215.661 84.3769C215.971 84.3769 216.223 84.6284 216.223 84.9386V96.0656C216.223 96.3758 215.971 96.6272 215.661 96.6272C215.351 96.6272 215.1 96.3758 215.1 96.0656V84.9386C215.1 84.6284 215.351 84.3769 215.661 84.3769Z" fill="#838D94"/>
<path d="M214.913 78.6189C214.913 78.6189 214.958 78.5897 214.996 78.5403C214.996 78.5403 215.037 78.4864 215.057 78.4167C215.825 75.849 215.675 72.2073 215.675 72.2073C215.592 70.199 215.524 68.9701 214.801 67.6806C214.556 67.2448 214.268 66.9842 213.916 66.8404C212.712 66.3507 211.966 67.9345 211.806 68.869C211.382 71.3492 212.195 73.744 213.078 76.0309C213.208 76.3701 214.329 78.9918 214.913 78.6189Z" fill="#919EA5"/>
<path d="M217.007 81.9594C217.007 81.9594 217.059 81.9684 217.122 81.9594C217.122 81.9594 217.189 81.9482 217.25 81.9122C219.566 80.5666 221.952 77.8101 221.952 77.8101C223.266 76.2915 224.057 75.3457 224.414 73.9124C224.535 73.4271 224.504 73.0385 224.344 72.6925C223.803 71.5109 222.174 72.1556 221.417 72.7262C219.411 74.2426 218.362 76.5453 217.441 78.8165C217.304 79.1535 216.326 81.8314 217.007 81.9594Z" fill="#919EA5"/>
<path d="M219.516 139.392C219.516 139.392 215.102 140.05 212.464 119.753C212.464 119.753 211.77 110.951 207.268 113.719C207.268 113.719 204.934 114.914 206.455 127.559L207.682 135.29C207.682 135.29 207.612 135.415 207.495 135.642C205.48 139.63 205.467 144.334 207.414 148.355C209.326 152.307 211.24 156.256 213.152 160.208C214.082 162.129 215.291 163.906 216.785 165.427C217.748 166.406 218.934 167.404 220.379 168.293C225.058 171.176 229.637 171.205 231.398 171.124L245.012 156.832C243.329 154.556 241.649 152.28 239.966 150.004C240.227 149.11 240.512 147.854 240.595 146.329C240.69 144.595 240.75 143.487 240.103 142.386C239.333 141.079 237.998 140.515 237.237 140.275C237.19 139.749 236.9 137.148 234.662 135.341C233.263 134.211 231.778 133.939 231.09 133.859C231.066 133.041 231.023 131.852 230.956 130.421C230.592 122.77 230.093 121.123 228.882 120.02C228.597 119.762 227.608 118.861 226.168 118.825C225.905 118.818 224.811 118.791 223.973 119.479C222.996 120.281 222.891 121.986 222.83 125.369C222.751 129.797 222.852 130.136 222.785 131.298C222.684 133.066 222.565 139.765 219.516 139.396V139.392Z" fill="#919EA5"/>
<path d="M228.662 145.588C229.206 144.386 229.745 142.969 230.178 141.347C230.942 138.491 231.133 135.941 231.12 133.962" fill="#919EA5"/>
<path d="M234.708 148.167C234.708 148.167 236.507 146.577 237.237 140.275L234.708 148.167Z" fill="#919EA5"/>
<path d="M236.738 155.201C237.257 154.761 237.886 154.141 238.473 153.301C239.349 152.045 239.762 150.829 239.969 150.005" fill="#919EA5"/>
<path d="M190.076 55.1944C189.456 54.7968 187.672 53.7657 185.221 53.9004C183.251 54.0083 181.835 54.8125 181.202 55.2304C181.173 57.7375 181.143 60.2424 181.114 62.7495C184.172 62.7495 187.229 62.7495 190.287 62.7495C190.217 60.2311 190.145 57.7128 190.076 55.1944Z" fill="#919EA5"/>
<path fill-rule="evenodd" clip-rule="evenodd" d="M181.915 55.3813C181.915 55.3813 181.915 55.3806 181.916 55.3793C181.916 55.3807 181.915 55.3814 181.915 55.3813ZM181.919 55.3703C181.929 55.3503 181.959 55.3034 182.047 55.2321C182.194 55.1125 182.442 54.9799 182.798 54.8579C183.505 54.6158 184.517 54.4559 185.661 54.4559C186.806 54.4559 187.818 54.6158 188.524 54.8579C188.88 54.9799 189.128 55.1125 189.276 55.2321C189.364 55.3034 189.394 55.3503 189.403 55.3703C189.394 55.3903 189.364 55.4371 189.276 55.5084C189.128 55.628 188.88 55.7606 188.524 55.8826C187.818 56.1248 186.806 56.2846 185.661 56.2846C184.517 56.2846 183.505 56.1248 182.798 55.8826C182.442 55.7606 182.194 55.628 182.047 55.5084C181.959 55.4371 181.929 55.3903 181.919 55.3703ZM189.407 55.3813C189.407 55.3814 189.407 55.3807 189.407 55.3793C189.407 55.3806 189.407 55.3813 189.407 55.3813ZM189.407 55.3613C189.407 55.3599 189.407 55.3592 189.407 55.3592C189.407 55.3592 189.407 55.3599 189.407 55.3613ZM181.916 55.3613C181.915 55.3599 181.915 55.3592 181.915 55.3592C181.915 55.3592 181.916 55.3599 181.916 55.3613ZM182.434 53.7953C183.286 53.5033 184.427 53.3327 185.661 53.3327C186.895 53.3327 188.036 53.5033 188.889 53.7953C189.312 53.9404 189.695 54.1258 189.983 54.3594C190.267 54.5892 190.53 54.9273 190.53 55.3703C190.53 55.8132 190.267 56.1514 189.983 56.3811C189.695 56.6147 189.312 56.8001 188.889 56.9452C188.036 57.2373 186.895 57.4079 185.661 57.4079C184.427 57.4079 183.286 57.2373 182.434 56.9452C182.011 56.8001 181.628 56.6147 181.34 56.3811C181.056 56.1514 180.793 55.8132 180.793 55.3703C180.793 54.9273 181.056 54.5892 181.34 54.3594C181.628 54.1258 182.011 53.9404 182.434 53.7953Z" fill="#838D94"/>
<path fill-rule="evenodd" clip-rule="evenodd" d="M187.011 56.6299C187.321 56.6299 187.573 56.8813 187.573 57.1915V62.7472C187.573 63.0574 187.321 63.3088 187.011 63.3088C186.701 63.3088 186.45 63.0574 186.45 62.7472V57.1915C186.45 56.8813 186.701 56.6299 187.011 56.6299Z" fill="#838D94"/>
<path fill-rule="evenodd" clip-rule="evenodd" d="M183.945 56.4598C184.255 56.4598 184.507 56.7112 184.507 57.0214V62.577C184.507 62.8872 184.255 63.1387 183.945 63.1387C183.635 63.1387 183.383 62.8872 183.383 62.577V57.0214C183.383 56.7112 183.635 56.4598 183.945 56.4598Z" fill="#838D94"/>
<path d="M191.758 62.7474H179.562C178.101 62.7474 176.918 63.9312 176.918 65.3916V85.3429C176.918 86.8032 178.101 87.9871 179.562 87.9871H191.758C193.218 87.9871 194.402 86.8032 194.402 85.3429V65.3916C194.402 63.9312 193.218 62.7474 191.758 62.7474Z" fill="#ADBFC9"/>
<path d="M188.119 83.456H177.291V68.3661H188.119C188.654 68.3661 189.085 68.7997 189.085 69.3321V82.4877C189.085 83.0224 188.651 83.4537 188.119 83.4537V83.456Z" fill="#C1D7E4"/>
<path fill-rule="evenodd" clip-rule="evenodd" d="M179.326 89.055C177.028 89.0296 174.747 89.0044 172.494 89.1852L172.494 89.1852C171.327 89.2787 170.176 89.5391 169.319 90.0707C168.492 90.5835 167.928 91.35 167.877 92.5513C167.864 92.8613 167.602 93.1019 167.292 93.0887C166.983 93.0756 166.742 92.8138 166.755 92.5039C166.823 90.8903 167.62 89.8024 168.727 89.1161C169.803 88.4486 171.159 88.1653 172.405 88.0656M179.326 89.055C180.459 89.0674 181.595 89.08 182.733 89.0679L179.326 89.055ZM179.407 87.932C180.527 87.9442 181.635 87.9562 182.721 87.9447C183.032 87.9415 183.286 88.1902 183.289 88.5004C183.292 88.8106 183.043 89.0647 182.733 89.0679M179.407 87.932C177.079 87.9066 174.707 87.8807 172.405 88.0656L179.407 87.932Z" fill="#838D94"/>
<path fill-rule="evenodd" clip-rule="evenodd" d="M294.781 42.5824H251.448V41.9084H294.781V42.5824Z" fill="#ADBFC9"/>
<path d="M270.923 202.751L236.387 191.121C226.696 187.856 223.468 175.768 230.239 168.107L239.577 157.542C242.484 154.253 246.744 152.48 251.127 152.739L317.678 152.692C327.046 152.685 333.981 161.399 331.871 170.527C324.53 196.737 296.718 211.443 270.923 202.755V202.751Z" fill="#ADBFC9"/>
<path fill-rule="evenodd" clip-rule="evenodd" d="M237.479 159.733C237.517 159.425 237.798 159.206 238.106 159.244C240.071 159.488 243.24 160.133 246.639 162.058C249.398 163.62 251.314 165.46 252.515 166.813C252.721 167.045 252.7 167.4 252.468 167.606C252.236 167.812 251.881 167.791 251.675 167.559C250.532 166.271 248.709 164.521 246.086 163.036L246.085 163.036C242.853 161.205 239.839 160.591 237.967 160.359C237.66 160.321 237.441 160.04 237.479 159.733Z" fill="#838D94"/>
<path fill-rule="evenodd" clip-rule="evenodd" d="M313.01 152.702C313.014 153.012 312.766 153.267 312.456 153.271C307.26 153.345 302.062 153.419 296.864 153.493C291.591 153.568 286.319 153.643 281.047 153.718C274.443 153.812 267.591 153.869 260.887 153.752C257.406 153.691 253.925 153.576 250.447 153.412C250.447 153.412 250.447 153.412 250.447 153.412L250.392 153.409C247.772 153.286 245.336 153.171 243.622 154.97C243.408 155.195 243.052 155.204 242.827 154.99C242.603 154.776 242.594 154.42 242.808 154.196C244.881 152.019 247.8 152.16 250.254 152.278C250.337 152.282 250.419 152.286 250.5 152.29L250.5 152.29C253.968 152.454 257.437 152.568 260.907 152.629C267.593 152.745 274.431 152.689 281.031 152.595L281.032 152.595C286.305 152.52 291.577 152.445 296.847 152.37C302.044 152.296 307.241 152.222 312.44 152.148C312.75 152.144 313.005 152.391 313.01 152.702Z" fill="#838D94"/>
<path d="M271.379 57.8524L247.476 66.7846C247.398 70.1162 247.344 73.4455 247.344 76.7726C247.306 78.4732 247.277 80.23 247.917 81.8071C248.485 83.2067 249.721 84.3569 251.015 85.0713C253.841 86.6304 256.984 85.4712 259.893 84.8713C260.814 84.6804 261.735 84.4917 262.656 84.3007C263.281 84.1727 263.905 84.0424 264.53 83.9143C264.882 83.8424 265.233 83.7683 265.586 83.6964C265.797 83.6537 266.594 83.6155 266.72 83.4628C269.71 79.8279 272.703 76.193 275.693 72.5604L271.377 57.8547L271.379 57.8524Z" fill="#ADBFC9"/>
<path fill-rule="evenodd" clip-rule="evenodd" d="M266.343 65.3369C266.427 65.5706 266.305 65.8277 266.071 65.9112L247.526 72.5339C247.293 72.6174 247.035 72.4956 246.952 72.2619C246.868 72.0282 246.99 71.7711 247.224 71.6877L265.769 65.0649C266.003 64.9815 266.26 65.1032 266.343 65.3369Z" fill="#919EA5"/>
<path fill-rule="evenodd" clip-rule="evenodd" d="M263.203 72.9279C263.286 73.162 263.163 73.4185 262.929 73.5009L247.524 78.9218C247.29 79.0041 247.034 78.8812 246.951 78.6471C246.869 78.413 246.992 78.1565 247.226 78.0741L262.63 72.6533C262.864 72.5709 263.121 72.6939 263.203 72.9279Z" fill="#919EA5"/>
<path d="M98.6635 97.7561C99.2361 97.9007 99.8174 97.5536 99.9619 96.981C100.106 96.4084 99.7594 95.8271 99.1868 95.6826C98.6142 95.538 98.0329 95.8851 97.8884 96.4577C97.7438 97.0303 98.0909 97.6116 98.6635 97.7561Z" fill="#ADBFC9"/>
<path d="M105.068 100.168C105.64 100.313 106.222 99.9656 106.366 99.393C106.511 98.8204 106.164 98.239 105.591 98.0945C105.019 97.95 104.437 98.297 104.293 98.8696C104.148 99.4422 104.495 100.024 105.068 100.168Z" fill="#ADBFC9"/>
<path d="M108.033 106.733C108.605 106.877 109.187 106.53 109.331 105.958C109.476 105.385 109.129 104.804 108.556 104.659C107.984 104.515 107.402 104.862 107.258 105.434C107.113 106.007 107.46 106.588 108.033 106.733Z" fill="#ADBFC9"/>
<path d="M106.118 112.408C106.691 112.553 107.272 112.206 107.417 111.633C107.561 111.061 107.214 110.479 106.641 110.335C106.069 110.19 105.488 110.537 105.343 111.11C105.198 111.683 105.546 112.264 106.118 112.408Z" fill="#ADBFC9"/>
<path d="M99.9082 114.914C100.481 115.058 101.062 114.711 101.207 114.139C101.351 113.566 101.004 112.985 100.432 112.84C99.859 112.696 99.2776 113.043 99.1331 113.615C98.9886 114.188 99.3356 114.769 99.9082 114.914Z" fill="#ADBFC9"/>
<path d="M93.4122 112.478C93.9848 112.623 94.5661 112.276 94.7106 111.703C94.8552 111.131 94.5081 110.549 93.9355 110.405C93.3629 110.26 92.7816 110.607 92.6371 111.18C92.4926 111.753 92.8396 112.334 93.4122 112.478Z" fill="#ADBFC9"/>
<path d="M90.5115 106.328C91.0841 106.472 91.6654 106.125 91.81 105.552C91.9545 104.98 91.6074 104.399 91.0348 104.254C90.4622 104.109 89.8809 104.457 89.7364 105.029C89.5919 105.602 89.9389 106.183 90.5115 106.328Z" fill="#ADBFC9"/>
<path d="M92.9004 100.09C93.473 100.235 94.0544 99.8877 94.1989 99.3151C94.3434 98.7425 93.9964 98.1612 93.4238 98.0167C92.8511 97.8722 92.2698 98.2192 92.1253 98.7918C91.9808 99.3644 92.3278 99.9457 92.9004 100.09Z" fill="#ADBFC9"/>
<path fill-rule="evenodd" clip-rule="evenodd" d="M98.9755 97.4799C99.145 97.4686 99.2916 97.5968 99.3029 97.7663L100.306 112.8C100.317 112.97 100.189 113.117 100.019 113.128C99.8497 113.139 99.7031 113.011 99.6918 112.841L98.6891 97.8073C98.6778 97.6378 98.806 97.4912 98.9755 97.4799Z" fill="#838D94"/>
<path fill-rule="evenodd" clip-rule="evenodd" d="M104.935 99.7886C105.058 99.9067 105.061 100.101 104.943 100.224L94.6426 110.891C94.5246 111.013 94.3299 111.017 94.2076 110.899C94.0854 110.78 94.082 110.586 94.2 110.464L104.5 99.7962C104.618 99.674 104.813 99.6706 104.935 99.7886Z" fill="#838D94"/>
<path fill-rule="evenodd" clip-rule="evenodd" d="M93.6543 99.6908C93.7708 99.5671 93.9655 99.5613 94.0891 99.6777L105.678 110.591C105.802 110.708 105.807 110.903 105.691 111.026C105.574 111.15 105.38 111.156 105.256 111.039L93.6673 100.126C93.5437 100.009 93.5378 99.8145 93.6543 99.6908Z" fill="#838D94"/>
<path fill-rule="evenodd" clip-rule="evenodd" d="M107.535 105.635C107.532 105.805 107.391 105.94 107.222 105.936L91.8353 105.629C91.6655 105.626 91.5305 105.485 91.5339 105.315C91.5373 105.146 91.6777 105.011 91.8476 105.014L107.234 105.321C107.404 105.324 107.539 105.465 107.535 105.635Z" fill="#838D94"/>
<path d="M98.5125 110.372C101.283 111.071 104.095 109.392 104.794 106.622C105.493 103.852 103.814 101.04 101.044 100.341C98.2742 99.6415 95.4619 101.32 94.7627 104.09C94.0636 106.861 95.7424 109.673 98.5125 110.372Z" fill="#ADBFC9"/>
<path d="M124.852 121.388C125.705 121.388 126.396 120.697 126.396 119.844C126.396 118.991 125.705 118.299 124.852 118.299C123.999 118.299 123.307 118.991 123.307 119.844C123.307 120.697 123.999 121.388 124.852 121.388Z" fill="#ADBFC9"/>
<path d="M134.673 122.502C135.526 122.502 136.217 121.811 136.217 120.958C136.217 120.105 135.526 119.413 134.673 119.413C133.82 119.413 133.128 120.105 133.128 120.958C133.128 121.811 133.82 122.502 134.673 122.502Z" fill="#ADBFC9"/>
<path d="M141.145 130.646C141.998 130.646 142.69 129.954 142.69 129.101C142.69 128.248 141.998 127.557 141.145 127.557C140.292 127.557 139.601 128.248 139.601 129.101C139.601 129.954 140.292 130.646 141.145 130.646Z" fill="#ADBFC9"/>
<path d="M140.47 139.271C141.323 139.271 142.015 138.579 142.015 137.726C142.015 136.873 141.323 136.182 140.47 136.182C139.617 136.182 138.926 136.873 138.926 137.726C138.926 138.579 139.617 139.271 140.47 139.271Z" fill="#ADBFC9"/>
<path d="M132.659 144.975C133.512 144.975 134.203 144.284 134.203 143.431C134.203 142.578 133.512 141.887 132.659 141.887C131.806 141.887 131.115 142.578 131.115 143.431C131.115 144.284 131.806 144.975 132.659 144.975Z" fill="#ADBFC9"/>
<path d="M122.701 143.862C123.554 143.862 124.245 143.17 124.245 142.317C124.245 141.464 123.554 140.773 122.701 140.773C121.848 140.773 121.157 141.464 121.157 142.317C121.157 143.17 121.848 143.862 122.701 143.862Z" fill="#ADBFC9"/>
<path d="M116.465 136.272C117.318 136.272 118.009 135.581 118.009 134.728C118.009 133.875 117.318 133.183 116.465 133.183C115.612 133.183 114.92 133.875 114.92 134.728C114.92 135.581 115.612 136.272 116.465 136.272Z" fill="#ADBFC9"/>
<path d="M117.606 126.693C118.459 126.693 119.15 126.001 119.15 125.148C119.15 124.295 118.459 123.604 117.606 123.604C116.753 123.604 116.061 124.295 116.061 125.148C116.061 126.001 116.753 126.693 117.606 126.693Z" fill="#ADBFC9"/>
<path fill-rule="evenodd" clip-rule="evenodd" d="M125.191 120.889C125.424 120.813 125.675 120.941 125.75 121.174L132.468 141.876C132.544 142.109 132.416 142.36 132.183 142.436C131.95 142.511 131.699 142.384 131.623 142.15L124.905 121.449C124.829 121.215 124.957 120.965 125.191 120.889Z" fill="#838D94"/>
<path fill-rule="evenodd" clip-rule="evenodd" d="M134.353 122.018C134.566 122.14 134.64 122.411 134.518 122.624L123.863 141.203C123.741 141.416 123.47 141.49 123.257 141.368C123.044 141.246 122.97 140.974 123.092 140.761L133.747 122.182C133.869 121.969 134.141 121.895 134.353 122.018Z" fill="#838D94"/>
<path fill-rule="evenodd" clip-rule="evenodd" d="M118.52 125.868C118.64 125.653 118.91 125.576 119.125 125.696L139.211 136.884C139.425 137.003 139.502 137.274 139.383 137.488C139.264 137.702 138.993 137.779 138.779 137.66L118.692 126.472C118.478 126.353 118.401 126.082 118.52 125.868Z" fill="#838D94"/>
<path fill-rule="evenodd" clip-rule="evenodd" d="M140.061 129.284C140.116 129.523 139.967 129.761 139.728 129.817L118.072 134.827C117.833 134.882 117.594 134.733 117.539 134.494C117.484 134.255 117.633 134.016 117.872 133.961L139.528 128.951C139.767 128.896 140.005 129.045 140.061 129.284Z" fill="#838D94"/>
<path d="M129.099 139.109C133.226 139.109 136.571 135.764 136.571 131.637C136.571 127.511 133.226 124.166 129.099 124.166C124.973 124.166 121.628 127.511 121.628 131.637C121.628 135.764 124.973 139.109 129.099 139.109Z" fill="#ADBFC9"/>
</g>
<rect x="0.5" y="0.5" width="359" height="159" rx="13.5" stroke="#5E6073"/>
</svg>
