<svg width="258" height="262" viewBox="0 0 258 262" fill="none" xmlns="http://www.w3.org/2000/svg">
<path d="M189.662 57.9602L129.856 66.3508C119.196 67.8467 111.178 76.4936 110.82 86.8788L108.019 168.38H157.342C161.126 154.805 164.91 141.232 168.694 127.657C175.682 104.427 182.672 81.1934 189.66 57.9625L189.662 57.9602Z" fill="#ADBFC9"/>
<path d="M199.756 56.5442L189.66 57.9609C182.672 81.1917 175.682 104.425 168.694 127.656C167.079 139.01 172.534 149.941 181.824 154.664C193.223 160.459 208.592 155.987 215.913 143.426C217.691 137.305 220.044 129.047 222.717 119.228C227.524 101.561 228.446 96.8824 228.735 90.9617C229.246 80.4671 229.637 71.5545 223.663 64.6202C216.064 55.8009 202.955 56.3321 199.754 56.5465L199.756 56.5442Z" fill="#ADBFC9"/>
<path d="M168.261 51.2127H163.976V15.0942H180.857V38.614C180.857 45.5716 175.216 51.2103 168.261 51.2103V51.2127Z" fill="#838D94"/>
<path d="M113.828 167.269L108.383 169.268C97.6784 173.199 85.816 167.707 81.8851 157.005L64.2768 109.057C61.0379 100.237 65.563 90.4604 74.3823 87.2216L86.6478 82.7176C95.4671 79.4788 105.244 84.0038 108.483 92.8231L126.091 140.771C130.022 151.476 124.53 163.338 113.828 167.269Z" fill="#ADBFC9"/>
<path d="M171.866 63.8808C169.291 65.6587 164.12 68.6855 157.009 69.2913C153.374 69.6012 150.263 69.1911 147.957 68.6808C146.605 61.9469 145.254 55.2106 143.902 48.4767L167.811 43.6768L171.868 63.8808H171.866Z" fill="#C1D7E4"/>
<path d="M145.407 55.9847L159.661 53.0441C160.271 52.9183 160.607 53.7268 160.087 54.0693L146.792 62.877L145.407 55.9847Z" fill="#838D94"/>
<path d="M167.208 17.515C163.561 17.5849 159.917 17.6525 156.27 17.7224C151.41 17.8132 146.549 17.9064 141.689 17.9973C139.258 18.0439 136.828 18.0882 134.398 18.1348C133.181 18.1581 131.967 18.1814 130.751 18.2047C130.248 18.214 129.307 18.0439 128.85 18.2396C128.391 18.4354 128.552 19.0319 128.54 19.5561C128.4 25.7495 128.172 31.9521 128.025 38.1525C127.99 42.2021 127.955 46.2518 127.92 50.2991C127.92 50.3294 127.92 50.3597 127.918 50.3923C127.752 55.0572 131.984 58.6525 136.56 57.7367C140.37 56.9748 144.177 56.2129 147.987 55.4509C155.114 53.9807 162.242 52.5104 169.372 51.0401C168.65 39.8651 167.927 28.69 167.208 17.515Z" fill="#C1D7E4"/>
<path fill-rule="evenodd" clip-rule="evenodd" d="M165.274 23.9652C165.403 24.2602 165.268 24.6034 164.973 24.7317C163.008 25.5867 161.043 26.4422 159.079 27.2978L159.078 27.2982C157.113 28.1539 155.148 29.0097 153.183 29.8649C152.887 29.9932 152.544 29.8581 152.416 29.5631C152.288 29.2681 152.423 28.9249 152.718 28.7966C154.683 27.9416 156.647 27.086 158.612 26.2304L158.613 26.2299C160.578 25.3743 162.542 24.5185 164.508 23.6634C164.803 23.5351 165.146 23.6702 165.274 23.9652Z" fill="#838D94"/>
<path fill-rule="evenodd" clip-rule="evenodd" d="M167.214 34.9104C167.425 35.1536 167.398 35.5215 167.155 35.732C165.512 37.1539 163.87 38.5763 162.227 39.9988L162.225 40.0006C160.582 41.4237 158.938 42.8468 157.294 44.2694C157.051 44.4799 156.683 44.4534 156.473 44.2101C156.262 43.9668 156.289 43.599 156.532 43.3884C158.176 41.966 159.819 40.543 161.462 39.1199L161.463 39.1195C163.106 37.6966 164.749 36.2735 166.393 34.8511C166.636 34.6405 167.004 34.6671 167.214 34.9104Z" fill="#838D94"/>
<path d="M169.373 25.1693H161.273C157.666 25.1693 154.744 22.245 154.744 18.6404V14.6536H169.373V25.1693Z" fill="#838D94"/>
<path d="M168.596 36.3769C172.488 36.3769 175.643 33.2222 175.643 29.3308C175.643 25.4393 172.488 22.2846 168.596 22.2846C164.705 22.2846 161.55 25.4393 161.55 29.3308C161.55 33.2222 164.705 36.3769 168.596 36.3769Z" fill="#C1D7E4"/>
<path fill-rule="evenodd" clip-rule="evenodd" d="M168.315 28.4688C167.387 28.4688 166.635 29.2209 166.635 30.1488C166.635 31.0766 167.387 31.8288 168.315 31.8288C169.242 31.8288 169.994 31.0766 169.994 30.1488C169.994 29.2209 169.242 28.4688 168.315 28.4688ZM165.469 30.1488C165.469 28.5775 166.743 27.3037 168.315 27.3037C169.886 27.3037 171.16 28.5775 171.16 30.1488C171.16 31.72 169.886 32.9938 168.315 32.9938C166.743 32.9938 165.469 31.72 165.469 30.1488Z" fill="#838D94"/>
<path d="M180.857 18.5311H128.628V14.2927C128.628 6.40072 135.027 0 142.921 0H166.567C174.459 0 180.859 6.39839 180.859 14.2927V18.5311H180.857Z" fill="#919EA5"/>
<path fill-rule="evenodd" clip-rule="evenodd" d="M171.221 26.361C171.221 26.361 171.221 26.361 171.22 26.361L171.214 26.362C171.208 26.3629 171.199 26.3644 171.185 26.3665C171.159 26.3708 171.118 26.3777 171.066 26.3876C170.96 26.4074 170.806 26.4389 170.617 26.4852C170.239 26.5782 169.731 26.7286 169.207 26.9578C168.131 27.429 167.137 28.1649 166.862 29.2748C166.785 29.5871 166.469 29.7776 166.157 29.7004C165.845 29.6232 165.654 29.3074 165.731 28.9951C166.14 27.3439 167.566 26.4044 168.74 25.8905C169.342 25.6273 169.916 25.4577 170.339 25.3538C170.551 25.3017 170.727 25.2657 170.852 25.2424C170.914 25.2308 170.963 25.2223 170.998 25.2166C171.015 25.2138 171.029 25.2117 171.039 25.2102L171.051 25.2084L171.055 25.2078L171.057 25.2076C171.057 25.2076 171.057 25.2075 171.139 25.7843L171.057 25.2075C171.375 25.1624 171.67 25.384 171.715 25.7025C171.761 26.0209 171.539 26.3155 171.221 26.3609C171.221 26.361 171.221 26.3609 171.221 26.3609L171.221 26.361Z" fill="#838D94"/>
<path fill-rule="evenodd" clip-rule="evenodd" d="M178.826 94.0483C179.134 94.1411 179.308 94.4661 179.215 94.7741L169.254 127.824C169.162 128.132 168.837 128.306 168.529 128.213C168.221 128.121 168.046 127.796 168.139 127.488L178.1 94.4379C178.193 94.1299 178.518 93.9554 178.826 94.0483Z" fill="#838D94"/>
<path fill-rule="evenodd" clip-rule="evenodd" d="M177.249 64.7955C177.483 65.016 177.494 65.3847 177.273 65.6189C168.864 74.5486 157.753 78.4771 148.962 75.0738L148.962 75.0737C147.001 74.3143 144.156 72.7987 141.391 69.5713C141.181 69.327 141.21 68.9593 141.454 68.75C141.698 68.5406 142.066 68.569 142.275 68.8133C144.893 71.8678 147.565 73.2834 149.383 73.9873C157.565 77.1548 168.198 73.5571 176.425 64.8202C176.646 64.586 177.015 64.5749 177.249 64.7955Z" fill="#838D94"/>
<path fill-rule="evenodd" clip-rule="evenodd" d="M75.7671 88.283C75.7671 88.2831 75.7671 88.2829 75.7671 88.283L75.7659 88.2867L75.7607 88.3027C75.756 88.3173 75.7489 88.3399 75.7395 88.3701C75.7208 88.4305 75.6933 88.5212 75.6593 88.6395C75.5913 88.876 75.4973 89.2222 75.3952 89.6553C75.1907 90.5225 74.955 91.7331 74.8292 93.1062C74.5754 95.8757 74.7792 99.1974 76.4652 101.725C76.6437 101.992 76.5715 102.354 76.3039 102.533C76.0362 102.711 75.6746 102.639 75.496 102.371C73.5867 99.5091 73.4072 95.857 73.669 92.9999C73.8009 91.5597 74.0477 90.2939 74.2612 89.388C74.3681 88.9345 74.467 88.57 74.5397 88.3175C74.576 88.1912 74.6058 88.0928 74.6267 88.0251C74.6372 87.9913 74.6455 87.9652 74.6513 87.9471L74.6581 87.9261L74.66 87.9202L74.6608 87.9178C74.6609 87.9176 74.6609 87.9174 75.214 88.1002L74.6609 87.9174C74.7619 87.6119 75.0914 87.4461 75.3968 87.5471C75.7022 87.648 75.8679 87.9776 75.7671 88.283Z" fill="#838D94"/>
<path fill-rule="evenodd" clip-rule="evenodd" d="M83.2842 85.8866C83.5521 85.7083 83.9137 85.7809 84.0919 86.0487C85.0392 87.4721 86.2597 89.6592 87.0399 92.5407L87.0399 92.5408C87.9492 95.9005 87.8823 98.7862 87.6932 100.612C87.6601 100.932 87.3738 101.165 87.0538 101.132C86.7338 101.099 86.5012 100.812 86.5343 100.492C86.7134 98.7628 86.7769 96.0284 85.9154 92.8452C85.1764 90.116 84.0202 88.0437 83.1221 86.6942C82.9438 86.4264 83.0164 86.0648 83.2842 85.8866Z" fill="#838D94"/>
<path fill-rule="evenodd" clip-rule="evenodd" d="M116.259 86.8324C116.578 86.874 116.803 87.1664 116.761 87.4854L114.221 106.951C114.18 107.27 113.888 107.495 113.568 107.453C113.249 107.411 113.025 107.119 113.066 106.8L115.606 87.3347C115.648 87.0157 115.94 86.7908 116.259 86.8324Z" fill="#838D94"/>
<path d="M78.6206 56.7444C77.805 56.7001 76.9848 56.6978 76.174 56.6978C62.5454 56.6815 48.9168 56.6651 35.2881 56.6465C33.5662 56.6465 30.4346 56.523 29.4094 58.2473C28.3492 60.0274 29.5049 62.4973 31.087 63.4969C32.7903 64.5711 34.9153 64.6456 36.9309 64.6876C39.5825 64.7435 42.2341 64.7994 44.8881 64.853C44.3661 66.8406 46.2954 68.7419 48.3039 69.1776C50.3125 69.6134 52.3886 69.0984 54.4437 69.0215C56.9555 68.926 59.733 69.5621 61.5341 71.4238C63.7733 73.7376 65.211 76.6572 66.9376 79.3368C67.9768 80.9492 69.0323 82.5499 70.0808 84.1577C70.3837 84.6214 72.9422 89.0578 73.2288 88.9879C81.0718 87.0563 88.9148 85.1247 96.7579 83.193C94.9381 75.6762 92.7152 68.0219 87.9688 61.9125C86.5987 60.1486 84.9747 58.4943 82.9219 57.6158C81.5658 57.0356 80.1025 56.8213 78.6229 56.742L78.6206 56.7444Z" fill="#919EA5"/>
<path fill-rule="evenodd" clip-rule="evenodd" d="M91.9299 67.94H98.1279V78.0269H91.9299V67.94ZM93.095 69.105V76.8619H96.9629V69.105H93.095Z" fill="#838D94"/>
<path d="M102.311 79.3251C102.311 77.7127 101.003 76.4055 99.3911 76.4055H90.6696C89.0572 76.4055 87.75 77.7127 87.75 79.3251V83.6078H102.311V79.3251Z" fill="#C1D7E4"/>
<path d="M102.311 83.61H87.75V116.718H102.311V83.61Z" fill="#838D94"/>
<path fill-rule="evenodd" clip-rule="evenodd" d="M95.1641 87.4479C95.1641 87.1262 95.4249 86.8654 95.7466 86.8654H102.31C102.632 86.8654 102.893 87.1262 102.893 87.4479C102.893 87.7696 102.632 88.0304 102.31 88.0304H95.7466C95.4249 88.0304 95.1641 87.7696 95.1641 87.4479Z" fill="#D5F0FE"/>
<path fill-rule="evenodd" clip-rule="evenodd" d="M95.1641 92.5227C95.1641 92.201 95.4249 91.9402 95.7466 91.9402H102.31C102.632 91.9402 102.893 92.201 102.893 92.5227C102.893 92.8445 102.632 93.1053 102.31 93.1053H95.7466C95.4249 93.1053 95.1641 92.8445 95.1641 92.5227Z" fill="#D5F0FE"/>
<path fill-rule="evenodd" clip-rule="evenodd" d="M95.1641 97.9353C95.1641 97.6136 95.4249 97.3528 95.7466 97.3528H102.31C102.632 97.3528 102.893 97.6136 102.893 97.9353C102.893 98.257 102.632 98.5178 102.31 98.5178H95.7466C95.4249 98.5178 95.1641 98.257 95.1641 97.9353Z" fill="#D5F0FE"/>
<path fill-rule="evenodd" clip-rule="evenodd" d="M95.0291 56.3994C95.3508 56.3994 95.6116 56.6602 95.6116 56.9819V68.5228C95.6116 68.8445 95.3508 69.1053 95.0291 69.1053C94.7073 69.1053 94.4465 68.8445 94.4465 68.5228V56.9819C94.4465 56.6602 94.7073 56.3994 95.0291 56.3994Z" fill="#838D94"/>
<path d="M94.2532 50.4272C94.2532 50.4272 94.2998 50.3969 94.3394 50.3457C94.3394 50.3457 94.3813 50.2897 94.4023 50.2175C95.1992 47.5542 95.0431 43.7772 95.0431 43.7772C94.9569 41.6941 94.887 40.4195 94.1367 39.0821C93.8827 38.63 93.5845 38.3598 93.2186 38.2106C91.9697 37.7027 91.1961 39.3454 91.0307 40.3147C90.5903 42.8871 91.4338 45.371 92.3495 47.743C92.4847 48.0948 93.6474 50.814 94.2532 50.4272Z" fill="#919EA5"/>
<path d="M96.4249 53.892C96.4249 53.892 96.4785 53.9013 96.5437 53.892C96.5437 53.892 96.6136 53.8803 96.6765 53.843C99.0788 52.4473 101.553 49.5883 101.553 49.5883C102.916 48.0132 103.737 47.0322 104.107 45.5456C104.233 45.0423 104.2 44.6392 104.035 44.2804C103.473 43.0548 101.784 43.7235 100.999 44.3154C98.918 45.8882 97.8299 48.2765 96.8746 50.6322C96.7324 50.9817 95.7189 53.7591 96.4249 53.892Z" fill="#919EA5"/>
<path d="M99.0274 113.46C99.0274 113.46 94.4488 114.143 91.7133 93.0909C91.7133 93.0909 90.9933 83.9617 86.3238 86.8323C86.3238 86.8323 83.9029 88.0719 85.4804 101.188L86.7526 109.206C86.7526 109.206 86.6804 109.336 86.5592 109.572C84.4691 113.707 84.4551 118.587 86.4753 122.757C88.4582 126.856 90.4434 130.952 92.4263 135.051C93.391 137.043 94.6445 138.886 96.194 140.464C97.1937 141.48 98.4239 142.514 99.9222 143.437C104.776 146.426 109.524 146.457 111.351 146.373L125.471 131.549C123.726 129.188 121.983 126.828 120.238 124.468C120.508 123.54 120.804 122.238 120.891 120.656C120.988 118.857 121.051 117.708 120.38 116.566C119.581 115.21 118.197 114.625 117.407 114.376C117.358 113.831 117.058 111.133 114.737 109.259C113.285 108.087 111.745 107.805 111.032 107.721C111.006 106.873 110.962 105.641 110.892 104.156C110.515 96.2202 109.997 94.5123 108.741 93.3682C108.446 93.1002 107.42 92.1659 105.927 92.1286C105.654 92.1216 104.519 92.0936 103.65 92.8066C102.637 93.6385 102.527 95.407 102.464 98.9161C102.383 103.509 102.488 103.861 102.418 105.065C102.313 106.899 102.189 113.847 99.0274 113.465V113.46Z" fill="#919EA5"/>
<path d="M108.513 119.887C109.077 118.64 109.636 117.17 110.086 115.488C110.878 112.526 111.076 109.882 111.062 107.829" fill="#919EA5"/>
<path d="M114.784 122.562C114.784 122.562 116.65 120.913 117.407 114.377L114.784 122.562Z" fill="#919EA5"/>
<path d="M116.89 129.858C117.428 129.401 118.081 128.758 118.689 127.886C119.597 126.584 120.026 125.323 120.241 124.468" fill="#919EA5"/>
<path d="M68.4917 26.1315C67.8486 25.7191 65.9985 24.6496 63.4564 24.7894C61.4129 24.9012 59.945 25.7354 59.2879 26.1688C59.2576 28.7691 59.2273 31.3672 59.197 33.9675C62.3683 33.9675 65.5395 33.9675 68.7107 33.9675C68.6385 31.3555 68.5639 28.7435 68.4917 26.1315Z" fill="#919EA5"/>
<path fill-rule="evenodd" clip-rule="evenodd" d="M60.0279 26.3253C60.0279 26.3253 60.028 26.3246 60.0284 26.3232C60.0282 26.3246 60.028 26.3253 60.0279 26.3253ZM60.0322 26.3138C60.0421 26.2931 60.073 26.2445 60.1643 26.1706C60.3174 26.0465 60.5744 25.909 60.9437 25.7824C61.6765 25.5313 62.7264 25.3655 63.9133 25.3655C65.1002 25.3655 66.1501 25.5313 66.8829 25.7824C67.2521 25.909 67.5092 26.0465 67.6623 26.1706C67.7536 26.2445 67.7845 26.2931 67.7944 26.3138C67.7845 26.3346 67.7536 26.3832 67.6623 26.4571C67.5092 26.5812 67.2521 26.7187 66.8829 26.8453C66.1501 27.0964 65.1002 27.2622 63.9133 27.2622C62.7264 27.2622 61.6765 27.0964 60.9437 26.8453C60.5744 26.7187 60.3174 26.5812 60.1643 26.4571C60.073 26.3832 60.0421 26.3346 60.0322 26.3138ZM67.7986 26.3253C67.7986 26.3253 67.7984 26.3246 67.7981 26.3232C67.7986 26.3246 67.7987 26.3253 67.7986 26.3253ZM67.7981 26.3045C67.7984 26.3031 67.7986 26.3024 67.7986 26.3024C67.7987 26.3024 67.7986 26.3031 67.7981 26.3045ZM60.0284 26.3045C60.028 26.3031 60.0279 26.3024 60.0279 26.3024C60.028 26.3024 60.0282 26.3031 60.0284 26.3045ZM60.566 24.6803C61.4498 24.3774 62.6333 24.2005 63.9133 24.2005C65.1933 24.2005 66.3768 24.3774 67.2606 24.6803C67.6997 24.8308 68.0968 25.0231 68.3957 25.2654C68.6899 25.5037 68.9626 25.8544 68.9626 26.3138C68.9626 26.7733 68.6899 27.124 68.3957 27.3623C68.0968 27.6046 67.6997 27.7969 67.2606 27.9474C66.3768 28.2503 65.1933 28.4272 63.9133 28.4272C62.6333 28.4272 61.4498 28.2503 60.566 27.9474C60.1269 27.7969 59.7298 27.6046 59.4308 27.3623C59.1367 27.124 58.864 26.7733 58.864 26.3138C58.864 25.8544 59.1367 25.5037 59.4308 25.2654C59.7298 25.0231 60.1269 24.8308 60.566 24.6803Z" fill="#838D94"/>
<path fill-rule="evenodd" clip-rule="evenodd" d="M65.3135 27.6203C65.6352 27.6203 65.896 27.8811 65.896 28.2028V33.9651C65.896 34.2868 65.6352 34.5476 65.3135 34.5476C64.9918 34.5476 64.731 34.2868 64.731 33.9651V28.2028C64.731 27.8811 64.9918 27.6203 65.3135 27.6203Z" fill="#838D94"/>
<path fill-rule="evenodd" clip-rule="evenodd" d="M62.1331 27.4439C62.4548 27.4439 62.7156 27.7047 62.7156 28.0264V33.7887C62.7156 34.1104 62.4548 34.3712 62.1331 34.3712C61.8113 34.3712 61.5505 34.1104 61.5505 33.7887V28.0264C61.5505 27.7047 61.8113 27.4439 62.1331 27.4439Z" fill="#838D94"/>
<path d="M70.237 33.9654H57.587C56.0723 33.9654 54.8445 35.1932 54.8445 36.7079V57.4013C54.8445 58.9159 56.0723 60.1438 57.587 60.1438H70.237C71.7516 60.1438 72.9795 58.9159 72.9795 57.4013V36.7079C72.9795 35.1932 71.7516 33.9654 70.237 33.9654Z" fill="#ADBFC9"/>
<path d="M66.4624 55.4442H55.2314V39.7931H66.4624C67.017 39.7931 67.4643 40.2428 67.4643 40.795V54.4399C67.4643 54.9945 67.0146 55.4419 66.4624 55.4419V55.4442Z" fill="#C1D7E4"/>
<path fill-rule="evenodd" clip-rule="evenodd" d="M57.3425 61.2514C54.9593 61.2251 52.5927 61.199 50.2566 61.3865L50.2565 61.3865C49.0454 61.4835 47.8518 61.7536 46.9627 62.3049C46.105 62.8368 45.5205 63.6318 45.4677 64.8778C45.4542 65.1993 45.1826 65.4488 44.8611 65.4352C44.5397 65.4216 44.2902 65.15 44.3038 64.8286C44.3745 63.155 45.2008 62.0266 46.3487 61.3148C47.4652 60.6224 48.872 60.3286 50.1634 60.2252M57.3425 61.2514C58.5169 61.2643 59.6954 61.2774 60.8762 61.2649L57.3425 61.2514ZM57.4267 60.0866C58.5875 60.0993 59.7377 60.1118 60.8639 60.0999C61.1856 60.0965 61.4491 60.3545 61.4526 60.6762C61.456 60.9979 61.1979 61.2615 60.8762 61.2649M57.4267 60.0866C55.012 60.0603 52.5512 60.0335 50.1635 60.2252L57.4267 60.0866Z" fill="#838D94"/>
<path fill-rule="evenodd" clip-rule="evenodd" d="M177.092 13.0504H132.147V12.3513H177.092V13.0504Z" fill="#ADBFC9"/>
<path d="M152.346 179.176L116.526 167.113C106.474 163.728 103.126 151.189 110.149 143.244L119.835 132.285C122.85 128.874 127.268 127.036 131.814 127.304L200.84 127.255C210.556 127.248 217.749 136.286 215.561 145.753C207.947 172.938 179.1 188.191 152.346 179.181V179.176Z" fill="#ADBFC9"/>
<path fill-rule="evenodd" clip-rule="evenodd" d="M112.511 140.277C112.792 140.12 113.147 140.22 113.304 140.5C114.164 142.035 116.023 144.869 119.443 147.193L119.443 147.194C122.695 149.405 125.835 150.123 127.558 150.39C127.876 150.439 128.093 150.737 128.044 151.055C127.995 151.372 127.697 151.59 127.379 151.541C125.556 151.258 122.232 150.499 118.788 148.157C115.166 145.695 113.199 142.695 112.288 141.07C112.131 140.789 112.231 140.434 112.511 140.277Z" fill="#838D94"/>
<path fill-rule="evenodd" clip-rule="evenodd" d="M117.659 134.558C117.698 134.238 117.989 134.012 118.308 134.051C120.347 134.304 123.633 134.973 127.159 136.97C130.021 138.59 132.008 140.498 133.254 141.902C133.467 142.142 133.446 142.511 133.205 142.724C132.964 142.938 132.596 142.916 132.383 142.675C131.196 141.339 129.306 139.524 126.585 137.984L126.585 137.984C123.232 136.085 120.106 135.449 118.165 135.208C117.846 135.168 117.619 134.877 117.659 134.558Z" fill="#838D94"/>
<path fill-rule="evenodd" clip-rule="evenodd" d="M195.998 127.265C196.003 127.587 195.746 127.851 195.424 127.856C190.035 127.932 184.643 128.009 179.252 128.086C173.783 128.164 168.314 128.242 162.847 128.32C155.997 128.417 148.89 128.476 141.937 128.355C138.327 128.291 134.716 128.172 131.108 128.002C131.108 128.002 131.108 128.002 131.108 128.002L131.052 127.999C128.334 127.871 125.807 127.752 124.029 129.618C123.807 129.851 123.439 129.86 123.206 129.639C122.973 129.417 122.964 129.048 123.186 128.815C125.336 126.557 128.363 126.703 130.909 126.826C130.994 126.83 131.079 126.834 131.163 126.838L131.163 126.838C134.76 127.008 138.359 127.127 141.958 127.19C148.892 127.311 155.984 127.253 162.831 127.155L162.831 127.155C168.301 127.077 173.768 126.999 179.235 126.921C184.625 126.844 190.015 126.767 195.407 126.691C195.729 126.686 195.994 126.944 195.998 127.265Z" fill="#838D94"/>
<path fill-rule="evenodd" clip-rule="evenodd" d="M109.873 143.602C110.115 143.814 110.14 144.182 109.928 144.424C109.363 145.071 105.607 149.522 106.572 155.548C107.396 160.698 111.342 165.011 116.69 166.551L116.702 166.555L132.079 171.734C132.384 171.837 132.548 172.167 132.445 172.472C132.343 172.777 132.012 172.941 131.707 172.838L116.355 167.667C110.613 166.008 106.321 161.357 105.421 155.732C104.368 149.153 108.451 144.344 109.051 143.658C109.263 143.415 109.631 143.391 109.873 143.602Z" fill="#838D94"/>
<path d="M152.82 28.8884L128.028 38.1527C127.946 41.6082 127.89 45.0614 127.89 48.5123C127.85 50.2761 127.82 52.0982 128.484 53.734C129.074 55.1856 130.355 56.3786 131.697 57.1196C134.629 58.7366 137.888 57.5343 140.906 56.9122C141.861 56.7141 142.817 56.5184 143.772 56.3203C144.42 56.1875 145.067 56.0524 145.715 55.9196C146.081 55.845 146.444 55.7681 146.81 55.6935C147.029 55.6493 147.856 55.6097 147.987 55.4512C151.088 51.6812 154.192 47.9111 157.293 44.1434L152.817 28.8907L152.82 28.8884Z" fill="#ADBFC9"/>
<path fill-rule="evenodd" clip-rule="evenodd" d="M147.596 36.6512C147.683 36.8936 147.556 37.1603 147.314 37.2468L128.079 44.1159C127.837 44.2025 127.57 44.0761 127.484 43.8338C127.397 43.5914 127.523 43.3247 127.766 43.2382L147 36.3691C147.243 36.2825 147.51 36.4089 147.596 36.6512Z" fill="#919EA5"/>
<path fill-rule="evenodd" clip-rule="evenodd" d="M144.339 44.5246C144.425 44.7673 144.297 45.0334 144.054 45.1188L128.077 50.7413C127.834 50.8267 127.568 50.6992 127.483 50.4564C127.397 50.2136 127.525 49.9476 127.768 49.8621L143.745 44.2397C143.988 44.1542 144.254 44.2818 144.339 44.5246Z" fill="#919EA5"/>
<path d="M15.1484 251L12.3242 258.775H11.1699L14.4219 250.244H15.166L15.1484 251ZM17.5156 258.775L14.6855 251L14.668 250.244H15.4121L18.6758 258.775H17.5156ZM17.3691 255.617V256.543H12.5762V255.617H17.3691ZM23.6504 257.545V249.775H24.7402V258.775H23.7441L23.6504 257.545ZM19.3848 255.676V255.553C19.3848 255.068 19.4434 254.629 19.5605 254.234C19.6816 253.836 19.8516 253.494 20.0703 253.209C20.293 252.924 20.5566 252.705 20.8613 252.553C21.1699 252.396 21.5137 252.318 21.8926 252.318C22.291 252.318 22.6387 252.389 22.9355 252.529C23.2363 252.666 23.4902 252.867 23.6973 253.133C23.9082 253.394 24.0742 253.711 24.1953 254.082C24.3164 254.453 24.4004 254.873 24.4473 255.342V255.881C24.4043 256.346 24.3203 256.764 24.1953 257.135C24.0742 257.506 23.9082 257.822 23.6973 258.084C23.4902 258.346 23.2363 258.547 22.9355 258.687C22.6348 258.824 22.2832 258.892 21.8809 258.892C21.5098 258.892 21.1699 258.812 20.8613 258.652C20.5566 258.492 20.293 258.267 20.0703 257.978C19.8516 257.689 19.6816 257.35 19.5605 256.959C19.4434 256.564 19.3848 256.137 19.3848 255.676ZM20.4746 255.553V255.676C20.4746 255.992 20.5059 256.289 20.5684 256.566C20.6348 256.844 20.7363 257.088 20.873 257.299C21.0098 257.51 21.1836 257.676 21.3945 257.797C21.6055 257.914 21.8574 257.973 22.1504 257.973C22.5098 257.973 22.8047 257.896 23.0352 257.744C23.2695 257.592 23.457 257.391 23.5977 257.141C23.7383 256.891 23.8477 256.619 23.9258 256.326V254.914C23.8789 254.699 23.8105 254.492 23.7207 254.293C23.6348 254.09 23.5215 253.91 23.3809 253.754C23.2441 253.594 23.0742 253.467 22.8711 253.373C22.6719 253.279 22.4355 253.232 22.1621 253.232C21.8652 253.232 21.6094 253.295 21.3945 253.42C21.1836 253.541 21.0098 253.709 20.873 253.924C20.7363 254.135 20.6348 254.381 20.5684 254.662C20.5059 254.939 20.4746 255.236 20.4746 255.553ZM30.4238 257.545V249.775H31.5137V258.775H30.5176L30.4238 257.545ZM26.1582 255.676V255.553C26.1582 255.068 26.2168 254.629 26.334 254.234C26.4551 253.836 26.625 253.494 26.8438 253.209C27.0664 252.924 27.3301 252.705 27.6348 252.553C27.9434 252.396 28.2871 252.318 28.666 252.318C29.0645 252.318 29.4121 252.389 29.709 252.529C30.0098 252.666 30.2637 252.867 30.4707 253.133C30.6816 253.394 30.8477 253.711 30.9688 254.082C31.0898 254.453 31.1738 254.873 31.2207 255.342V255.881C31.1777 256.346 31.0938 256.764 30.9688 257.135C30.8477 257.506 30.6816 257.822 30.4707 258.084C30.2637 258.346 30.0098 258.547 29.709 258.687C29.4082 258.824 29.0566 258.892 28.6543 258.892C28.2832 258.892 27.9434 258.812 27.6348 258.652C27.3301 258.492 27.0664 258.267 26.8438 257.978C26.625 257.689 26.4551 257.35 26.334 256.959C26.2168 256.564 26.1582 256.137 26.1582 255.676ZM27.248 255.553V255.676C27.248 255.992 27.2793 256.289 27.3418 256.566C27.4082 256.844 27.5098 257.088 27.6465 257.299C27.7832 257.51 27.957 257.676 28.168 257.797C28.3789 257.914 28.6309 257.973 28.9238 257.973C29.2832 257.973 29.5781 257.896 29.8086 257.744C30.043 257.592 30.2305 257.391 30.3711 257.141C30.5117 256.891 30.6211 256.619 30.6992 256.326V254.914C30.6523 254.699 30.584 254.492 30.4941 254.293C30.4082 254.09 30.2949 253.91 30.1543 253.754C30.0176 253.594 29.8477 253.467 29.6445 253.373C29.4453 253.279 29.209 253.232 28.9355 253.232C28.6387 253.232 28.3828 253.295 28.168 253.42C27.957 253.541 27.7832 253.709 27.6465 253.924C27.5098 254.135 27.4082 254.381 27.3418 254.662C27.2793 254.939 27.248 255.236 27.248 255.553ZM39.8691 257.094C39.8691 256.937 39.834 256.793 39.7637 256.66C39.6973 256.523 39.5586 256.4 39.3477 256.291C39.1406 256.178 38.8281 256.08 38.4102 255.998C38.0586 255.924 37.7402 255.836 37.4551 255.734C37.1738 255.633 36.9336 255.51 36.7344 255.365C36.5391 255.221 36.3887 255.051 36.2832 254.855C36.1777 254.66 36.125 254.432 36.125 254.17C36.125 253.92 36.1797 253.683 36.2891 253.461C36.4023 253.238 36.5605 253.041 36.7637 252.869C36.9707 252.697 37.2188 252.562 37.5078 252.465C37.7969 252.367 38.1191 252.318 38.4746 252.318C38.9824 252.318 39.416 252.408 39.7754 252.588C40.1348 252.767 40.4102 253.008 40.6016 253.308C40.793 253.605 40.8887 253.935 40.8887 254.299H39.8047C39.8047 254.123 39.752 253.953 39.6465 253.789C39.5449 253.621 39.3945 253.482 39.1953 253.373C39 253.264 38.7598 253.209 38.4746 253.209C38.1738 253.209 37.9297 253.256 37.7422 253.35C37.5586 253.439 37.4238 253.555 37.3379 253.695C37.2559 253.836 37.2148 253.984 37.2148 254.141C37.2148 254.258 37.2344 254.363 37.2734 254.457C37.3164 254.547 37.3906 254.631 37.4961 254.709C37.6016 254.783 37.75 254.853 37.9414 254.92C38.1328 254.986 38.377 255.053 38.6738 255.119C39.1934 255.236 39.6211 255.377 39.957 255.541C40.293 255.705 40.543 255.906 40.707 256.144C40.8711 256.383 40.9531 256.672 40.9531 257.012C40.9531 257.289 40.8945 257.543 40.7773 257.773C40.6641 258.004 40.498 258.203 40.2793 258.371C40.0645 258.535 39.8066 258.664 39.5059 258.758C39.209 258.848 38.875 258.892 38.5039 258.892C37.9453 258.892 37.4727 258.793 37.0859 258.594C36.6992 258.394 36.4062 258.137 36.207 257.82C36.0078 257.504 35.9082 257.17 35.9082 256.818H36.998C37.0137 257.115 37.0996 257.351 37.2559 257.527C37.4121 257.699 37.6035 257.822 37.8301 257.896C38.0566 257.967 38.2812 258.002 38.5039 258.002C38.8008 258.002 39.0488 257.963 39.248 257.885C39.4512 257.807 39.6055 257.699 39.7109 257.562C39.8164 257.426 39.8691 257.269 39.8691 257.094ZM44.9141 258.002C45.1719 258.002 45.4102 257.949 45.6289 257.844C45.8477 257.738 46.0273 257.594 46.168 257.41C46.3086 257.223 46.3887 257.01 46.4082 256.771H47.4395C47.4199 257.146 47.293 257.496 47.0586 257.82C46.8281 258.141 46.5254 258.4 46.1504 258.6C45.7754 258.795 45.3633 258.892 44.9141 258.892C44.4375 258.892 44.0215 258.808 43.666 258.641C43.3145 258.473 43.0215 258.242 42.7871 257.949C42.5566 257.656 42.3828 257.32 42.2656 256.941C42.1523 256.558 42.0957 256.154 42.0957 255.728V255.482C42.0957 255.057 42.1523 254.654 42.2656 254.275C42.3828 253.892 42.5566 253.555 42.7871 253.262C43.0215 252.969 43.3145 252.738 43.666 252.57C44.0215 252.402 44.4375 252.318 44.9141 252.318C45.4102 252.318 45.8438 252.42 46.2148 252.623C46.5859 252.822 46.877 253.096 47.0879 253.443C47.3027 253.787 47.4199 254.178 47.4395 254.615H46.4082C46.3887 254.353 46.3145 254.117 46.1855 253.906C46.0605 253.695 45.8887 253.527 45.6699 253.402C45.4551 253.273 45.2031 253.209 44.9141 253.209C44.582 253.209 44.3027 253.275 44.0762 253.408C43.8535 253.537 43.6758 253.713 43.543 253.935C43.4141 254.154 43.3203 254.398 43.2617 254.668C43.207 254.933 43.1797 255.205 43.1797 255.482V255.728C43.1797 256.006 43.207 256.279 43.2617 256.549C43.3164 256.818 43.4082 257.062 43.5371 257.281C43.6699 257.5 43.8477 257.676 44.0703 257.808C44.2969 257.937 44.5781 258.002 44.9141 258.002ZM49.7422 249.775V258.775H48.6582V249.775H49.7422ZM49.4844 255.365L49.0332 255.348C49.0371 254.914 49.1016 254.514 49.2266 254.146C49.3516 253.775 49.5273 253.453 49.7539 253.18C49.9805 252.906 50.25 252.695 50.5625 252.547C50.8789 252.394 51.2285 252.318 51.6113 252.318C51.9238 252.318 52.2051 252.361 52.4551 252.447C52.7051 252.529 52.918 252.662 53.0938 252.846C53.2734 253.029 53.4102 253.267 53.5039 253.56C53.5977 253.85 53.6445 254.203 53.6445 254.621V258.775H52.5547V254.609C52.5547 254.277 52.5059 254.012 52.4082 253.812C52.3105 253.609 52.168 253.463 51.9805 253.373C51.793 253.279 51.5625 253.232 51.2891 253.232C51.0195 253.232 50.7734 253.289 50.5508 253.402C50.332 253.516 50.1426 253.672 49.9824 253.871C49.8262 254.07 49.7031 254.299 49.6133 254.557C49.5273 254.81 49.4844 255.08 49.4844 255.365ZM57.8984 258.892C57.457 258.892 57.0566 258.818 56.6973 258.67C56.3418 258.517 56.0352 258.305 55.7773 258.031C55.5234 257.758 55.3281 257.433 55.1914 257.058C55.0547 256.683 54.9863 256.273 54.9863 255.828V255.582C54.9863 255.066 55.0625 254.607 55.2148 254.205C55.3672 253.799 55.5742 253.455 55.8359 253.174C56.0977 252.892 56.3945 252.68 56.7266 252.535C57.0586 252.391 57.4023 252.318 57.7578 252.318C58.2109 252.318 58.6016 252.396 58.9297 252.553C59.2617 252.709 59.5332 252.928 59.7441 253.209C59.9551 253.486 60.1113 253.814 60.2129 254.193C60.3145 254.568 60.3652 254.978 60.3652 255.424V255.91H55.6309V255.025H59.2812V254.943C59.2656 254.662 59.207 254.389 59.1055 254.123C59.0078 253.857 58.8516 253.639 58.6367 253.467C58.4219 253.295 58.1289 253.209 57.7578 253.209C57.5117 253.209 57.2852 253.262 57.0781 253.367C56.8711 253.469 56.6934 253.621 56.5449 253.824C56.3965 254.027 56.2812 254.275 56.1992 254.568C56.1172 254.861 56.0762 255.199 56.0762 255.582V255.828C56.0762 256.129 56.1172 256.412 56.1992 256.678C56.2852 256.939 56.4082 257.17 56.5684 257.369C56.7324 257.568 56.9297 257.725 57.1602 257.838C57.3945 257.951 57.6602 258.008 57.957 258.008C58.3398 258.008 58.6641 257.93 58.9297 257.773C59.1953 257.617 59.4277 257.408 59.627 257.146L60.2832 257.668C60.1465 257.875 59.9727 258.072 59.7617 258.26C59.5508 258.447 59.291 258.6 58.9824 258.717C58.6777 258.834 58.3164 258.892 57.8984 258.892ZM65.627 257.545V249.775H66.7168V258.775H65.7207L65.627 257.545ZM61.3613 255.676V255.553C61.3613 255.068 61.4199 254.629 61.5371 254.234C61.6582 253.836 61.8281 253.494 62.0469 253.209C62.2695 252.924 62.5332 252.705 62.8379 252.553C63.1465 252.396 63.4902 252.318 63.8691 252.318C64.2676 252.318 64.6152 252.389 64.9121 252.529C65.2129 252.666 65.4668 252.867 65.6738 253.133C65.8848 253.394 66.0508 253.711 66.1719 254.082C66.293 254.453 66.377 254.873 66.4238 255.342V255.881C66.3809 256.346 66.2969 256.764 66.1719 257.135C66.0508 257.506 65.8848 257.822 65.6738 258.084C65.4668 258.346 65.2129 258.547 64.9121 258.687C64.6113 258.824 64.2598 258.892 63.8574 258.892C63.4863 258.892 63.1465 258.812 62.8379 258.652C62.5332 258.492 62.2695 258.267 62.0469 257.978C61.8281 257.689 61.6582 257.35 61.5371 256.959C61.4199 256.564 61.3613 256.137 61.3613 255.676ZM62.4512 255.553V255.676C62.4512 255.992 62.4824 256.289 62.5449 256.566C62.6113 256.844 62.7129 257.088 62.8496 257.299C62.9863 257.51 63.1602 257.676 63.3711 257.797C63.582 257.914 63.834 257.973 64.127 257.973C64.4863 257.973 64.7812 257.896 65.0117 257.744C65.2461 257.592 65.4336 257.391 65.5742 257.141C65.7148 256.891 65.8242 256.619 65.9023 256.326V254.914C65.8555 254.699 65.7871 254.492 65.6973 254.293C65.6113 254.09 65.498 253.91 65.3574 253.754C65.2207 253.594 65.0508 253.467 64.8477 253.373C64.6484 253.279 64.4121 253.232 64.1387 253.232C63.8418 253.232 63.5859 253.295 63.3711 253.42C63.1602 253.541 62.9863 253.709 62.8496 253.924C62.7129 254.135 62.6113 254.381 62.5449 254.662C62.4824 254.939 62.4512 255.236 62.4512 255.553ZM72.2832 257.31V252.435H73.373V258.775H72.3359L72.2832 257.31ZM72.4883 255.975L72.9395 255.963C72.9395 256.385 72.8945 256.775 72.8047 257.135C72.7188 257.49 72.5781 257.799 72.3828 258.06C72.1875 258.322 71.9316 258.527 71.6152 258.676C71.2988 258.82 70.9141 258.892 70.4609 258.892C70.1523 258.892 69.8691 258.848 69.6113 258.758C69.3574 258.668 69.1387 258.529 68.9551 258.342C68.7715 258.154 68.6289 257.91 68.5273 257.609C68.4297 257.308 68.3809 256.947 68.3809 256.525V252.435H69.4648V256.537C69.4648 256.822 69.4961 257.058 69.5586 257.246C69.625 257.43 69.7129 257.576 69.8223 257.685C69.9355 257.791 70.0605 257.865 70.1973 257.908C70.3379 257.951 70.4824 257.973 70.6309 257.973C71.0918 257.973 71.457 257.885 71.7266 257.709C71.9961 257.529 72.1895 257.289 72.3066 256.988C72.4277 256.683 72.4883 256.346 72.4883 255.975ZM76.2031 249.775V258.775H75.1133V249.775H76.2031ZM80.5742 258.892C80.1328 258.892 79.7324 258.818 79.373 258.67C79.0176 258.517 78.7109 258.305 78.4531 258.031C78.1992 257.758 78.0039 257.433 77.8672 257.058C77.7305 256.683 77.6621 256.273 77.6621 255.828V255.582C77.6621 255.066 77.7383 254.607 77.8906 254.205C78.043 253.799 78.25 253.455 78.5117 253.174C78.7734 252.892 79.0703 252.68 79.4023 252.535C79.7344 252.391 80.0781 252.318 80.4336 252.318C80.8867 252.318 81.2773 252.396 81.6055 252.553C81.9375 252.709 82.209 252.928 82.4199 253.209C82.6309 253.486 82.7871 253.814 82.8887 254.193C82.9902 254.568 83.041 254.978 83.041 255.424V255.91H78.3066V255.025H81.957V254.943C81.9414 254.662 81.8828 254.389 81.7812 254.123C81.6836 253.857 81.5273 253.639 81.3125 253.467C81.0977 253.295 80.8047 253.209 80.4336 253.209C80.1875 253.209 79.9609 253.262 79.7539 253.367C79.5469 253.469 79.3691 253.621 79.2207 253.824C79.0723 254.027 78.957 254.275 78.875 254.568C78.793 254.861 78.752 255.199 78.752 255.582V255.828C78.752 256.129 78.793 256.412 78.875 256.678C78.9609 256.939 79.084 257.17 79.2441 257.369C79.4082 257.568 79.6055 257.725 79.8359 257.838C80.0703 257.951 80.3359 258.008 80.6328 258.008C81.0156 258.008 81.3398 257.93 81.6055 257.773C81.8711 257.617 82.1035 257.408 82.3027 257.146L82.959 257.668C82.8223 257.875 82.6484 258.072 82.4375 258.26C82.2266 258.447 81.9668 258.6 81.6582 258.717C81.3535 258.834 80.9922 258.892 80.5742 258.892ZM89.9375 252.435V253.267H86.5098V252.435H89.9375ZM87.6699 250.894H88.7539V257.205C88.7539 257.42 88.7871 257.582 88.8535 257.691C88.9199 257.801 89.0059 257.873 89.1113 257.908C89.2168 257.943 89.3301 257.961 89.4512 257.961C89.541 257.961 89.6348 257.953 89.7324 257.937C89.834 257.918 89.9102 257.902 89.9609 257.891L89.9668 258.775C89.8809 258.803 89.7676 258.828 89.627 258.851C89.4902 258.879 89.3242 258.892 89.1289 258.892C88.8633 258.892 88.6191 258.84 88.3965 258.734C88.1738 258.629 87.9961 258.453 87.8633 258.207C87.7344 257.957 87.6699 257.621 87.6699 257.199V250.894ZM90.8047 255.676V255.541C90.8047 255.084 90.8711 254.66 91.0039 254.269C91.1367 253.875 91.3281 253.533 91.5781 253.244C91.8281 252.951 92.1309 252.725 92.4863 252.564C92.8418 252.4 93.2402 252.318 93.6816 252.318C94.127 252.318 94.5273 252.4 94.8828 252.564C95.2422 252.725 95.5469 252.951 95.7969 253.244C96.0508 253.533 96.2441 253.875 96.377 254.269C96.5098 254.66 96.5762 255.084 96.5762 255.541V255.676C96.5762 256.133 96.5098 256.557 96.377 256.947C96.2441 257.338 96.0508 257.68 95.7969 257.973C95.5469 258.262 95.2441 258.488 94.8887 258.652C94.5371 258.812 94.1387 258.892 93.6934 258.892C93.248 258.892 92.8477 258.812 92.4922 258.652C92.1367 258.488 91.832 258.262 91.5781 257.973C91.3281 257.68 91.1367 257.338 91.0039 256.947C90.8711 256.557 90.8047 256.133 90.8047 255.676ZM91.8887 255.541V255.676C91.8887 255.992 91.9258 256.291 92 256.572C92.0742 256.85 92.1855 257.096 92.334 257.31C92.4863 257.525 92.6758 257.695 92.9023 257.82C93.1289 257.941 93.3926 258.002 93.6934 258.002C93.9902 258.002 94.25 257.941 94.4727 257.82C94.6992 257.695 94.8867 257.525 95.0352 257.31C95.1836 257.096 95.2949 256.85 95.3691 256.572C95.4473 256.291 95.4863 255.992 95.4863 255.676V255.541C95.4863 255.228 95.4473 254.933 95.3691 254.656C95.2949 254.375 95.1816 254.127 95.0293 253.912C94.8809 253.693 94.6934 253.521 94.4668 253.396C94.2441 253.271 93.9824 253.209 93.6816 253.209C93.3848 253.209 93.123 253.271 92.8965 253.396C92.6738 253.521 92.4863 253.693 92.334 253.912C92.1855 254.127 92.0742 254.375 92 254.656C91.9258 254.933 91.8887 255.228 91.8887 255.541ZM102.002 249.775V258.775H100.912V249.775H102.002ZM105.875 252.435L103.109 255.394L101.562 257L101.475 255.846L102.582 254.521L104.551 252.435H105.875ZM104.885 258.775L102.623 255.752L103.186 254.785L106.162 258.775H104.885ZM109.508 258.892C109.066 258.892 108.666 258.818 108.307 258.67C107.951 258.517 107.645 258.305 107.387 258.031C107.133 257.758 106.938 257.433 106.801 257.058C106.664 256.683 106.596 256.273 106.596 255.828V255.582C106.596 255.066 106.672 254.607 106.824 254.205C106.977 253.799 107.184 253.455 107.445 253.174C107.707 252.892 108.004 252.68 108.336 252.535C108.668 252.391 109.012 252.318 109.367 252.318C109.82 252.318 110.211 252.396 110.539 252.553C110.871 252.709 111.143 252.928 111.354 253.209C111.564 253.486 111.721 253.814 111.822 254.193C111.924 254.568 111.975 254.978 111.975 255.424V255.91H107.24V255.025H110.891V254.943C110.875 254.662 110.816 254.389 110.715 254.123C110.617 253.857 110.461 253.639 110.246 253.467C110.031 253.295 109.738 253.209 109.367 253.209C109.121 253.209 108.895 253.262 108.688 253.367C108.48 253.469 108.303 253.621 108.154 253.824C108.006 254.027 107.891 254.275 107.809 254.568C107.727 254.861 107.686 255.199 107.686 255.582V255.828C107.686 256.129 107.727 256.412 107.809 256.678C107.895 256.939 108.018 257.17 108.178 257.369C108.342 257.568 108.539 257.725 108.77 257.838C109.004 257.951 109.27 258.008 109.566 258.008C109.949 258.008 110.273 257.93 110.539 257.773C110.805 257.617 111.037 257.408 111.236 257.146L111.893 257.668C111.756 257.875 111.582 258.072 111.371 258.26C111.16 258.447 110.9 258.6 110.592 258.717C110.287 258.834 109.926 258.892 109.508 258.892ZM115.871 258.892C115.43 258.892 115.029 258.818 114.67 258.67C114.314 258.517 114.008 258.305 113.75 258.031C113.496 257.758 113.301 257.433 113.164 257.058C113.027 256.683 112.959 256.273 112.959 255.828V255.582C112.959 255.066 113.035 254.607 113.188 254.205C113.34 253.799 113.547 253.455 113.809 253.174C114.07 252.892 114.367 252.68 114.699 252.535C115.031 252.391 115.375 252.318 115.73 252.318C116.184 252.318 116.574 252.396 116.902 252.553C117.234 252.709 117.506 252.928 117.717 253.209C117.928 253.486 118.084 253.814 118.186 254.193C118.287 254.568 118.338 254.978 118.338 255.424V255.91H113.604V255.025H117.254V254.943C117.238 254.662 117.18 254.389 117.078 254.123C116.98 253.857 116.824 253.639 116.609 253.467C116.395 253.295 116.102 253.209 115.73 253.209C115.484 253.209 115.258 253.262 115.051 253.367C114.844 253.469 114.666 253.621 114.518 253.824C114.369 254.027 114.254 254.275 114.172 254.568C114.09 254.861 114.049 255.199 114.049 255.582V255.828C114.049 256.129 114.09 256.412 114.172 256.678C114.258 256.939 114.381 257.17 114.541 257.369C114.705 257.568 114.902 257.725 115.133 257.838C115.367 257.951 115.633 258.008 115.93 258.008C116.312 258.008 116.637 257.93 116.902 257.773C117.168 257.617 117.4 257.408 117.6 257.146L118.256 257.668C118.119 257.875 117.945 258.072 117.734 258.26C117.523 258.447 117.264 258.6 116.955 258.717C116.65 258.834 116.289 258.892 115.871 258.892ZM120.688 253.654V261.213H119.598V252.435H120.594L120.688 253.654ZM124.959 255.553V255.676C124.959 256.137 124.904 256.564 124.795 256.959C124.686 257.35 124.525 257.689 124.314 257.978C124.107 258.267 123.852 258.492 123.547 258.652C123.242 258.812 122.893 258.892 122.498 258.892C122.096 258.892 121.74 258.826 121.432 258.693C121.123 258.56 120.861 258.367 120.646 258.113C120.432 257.859 120.26 257.555 120.131 257.199C120.006 256.844 119.92 256.443 119.873 255.998V255.342C119.92 254.873 120.008 254.453 120.137 254.082C120.266 253.711 120.436 253.394 120.646 253.133C120.861 252.867 121.121 252.666 121.426 252.529C121.73 252.389 122.082 252.318 122.48 252.318C122.879 252.318 123.232 252.396 123.541 252.553C123.85 252.705 124.109 252.924 124.32 253.209C124.531 253.494 124.689 253.836 124.795 254.234C124.904 254.629 124.959 255.068 124.959 255.553ZM123.869 255.676V255.553C123.869 255.236 123.836 254.939 123.77 254.662C123.703 254.381 123.6 254.135 123.459 253.924C123.322 253.709 123.146 253.541 122.932 253.42C122.717 253.295 122.461 253.232 122.164 253.232C121.891 253.232 121.652 253.279 121.449 253.373C121.25 253.467 121.08 253.594 120.939 253.754C120.799 253.91 120.684 254.09 120.594 254.293C120.508 254.492 120.443 254.699 120.4 254.914V256.432C120.479 256.705 120.588 256.963 120.729 257.205C120.869 257.443 121.057 257.637 121.291 257.785C121.525 257.93 121.82 258.002 122.176 258.002C122.469 258.002 122.721 257.941 122.932 257.82C123.146 257.695 123.322 257.525 123.459 257.31C123.6 257.096 123.703 256.85 123.77 256.572C123.836 256.291 123.869 255.992 123.869 255.676ZM131.973 252.435V253.267H128.545V252.435H131.973ZM129.705 250.894H130.789V257.205C130.789 257.42 130.822 257.582 130.889 257.691C130.955 257.801 131.041 257.873 131.146 257.908C131.252 257.943 131.365 257.961 131.486 257.961C131.576 257.961 131.67 257.953 131.768 257.937C131.869 257.918 131.945 257.902 131.996 257.891L132.002 258.775C131.916 258.803 131.803 258.828 131.662 258.851C131.525 258.879 131.359 258.892 131.164 258.892C130.898 258.892 130.654 258.84 130.432 258.734C130.209 258.629 130.031 258.453 129.898 258.207C129.77 257.957 129.705 257.621 129.705 257.199V250.894ZM134.328 253.432V258.775H133.244V252.435H134.299L134.328 253.432ZM136.309 252.4L136.303 253.408C136.213 253.389 136.127 253.377 136.045 253.373C135.967 253.365 135.877 253.361 135.775 253.361C135.525 253.361 135.305 253.4 135.113 253.478C134.922 253.557 134.76 253.666 134.627 253.807C134.494 253.947 134.389 254.115 134.311 254.31C134.236 254.502 134.188 254.713 134.164 254.943L133.859 255.119C133.859 254.736 133.896 254.377 133.971 254.041C134.049 253.705 134.168 253.408 134.328 253.15C134.488 252.889 134.691 252.685 134.938 252.541C135.188 252.392 135.484 252.318 135.828 252.318C135.906 252.318 135.996 252.328 136.098 252.348C136.199 252.363 136.27 252.381 136.309 252.4ZM140.814 257.691V254.428C140.814 254.178 140.764 253.961 140.662 253.777C140.564 253.59 140.416 253.445 140.217 253.344C140.018 253.242 139.771 253.191 139.479 253.191C139.205 253.191 138.965 253.238 138.758 253.332C138.555 253.426 138.395 253.549 138.277 253.701C138.164 253.853 138.107 254.017 138.107 254.193H137.023C137.023 253.967 137.082 253.742 137.199 253.519C137.316 253.297 137.484 253.096 137.703 252.916C137.926 252.732 138.191 252.588 138.5 252.482C138.812 252.373 139.16 252.318 139.543 252.318C140.004 252.318 140.41 252.396 140.762 252.553C141.117 252.709 141.395 252.945 141.594 253.262C141.797 253.574 141.898 253.967 141.898 254.439V257.392C141.898 257.603 141.916 257.828 141.951 258.066C141.99 258.305 142.047 258.51 142.121 258.682V258.775H140.99C140.936 258.65 140.893 258.484 140.861 258.277C140.83 258.066 140.814 257.871 140.814 257.691ZM141.002 254.932L141.014 255.693H139.918C139.609 255.693 139.334 255.719 139.092 255.769C138.85 255.816 138.646 255.889 138.482 255.986C138.318 256.084 138.193 256.207 138.107 256.355C138.021 256.5 137.979 256.67 137.979 256.865C137.979 257.064 138.023 257.246 138.113 257.41C138.203 257.574 138.338 257.705 138.518 257.803C138.701 257.896 138.926 257.943 139.191 257.943C139.523 257.943 139.816 257.873 140.07 257.732C140.324 257.592 140.525 257.42 140.674 257.217C140.826 257.014 140.908 256.816 140.92 256.625L141.383 257.146C141.355 257.31 141.281 257.492 141.16 257.691C141.039 257.891 140.877 258.082 140.674 258.266C140.475 258.445 140.236 258.596 139.959 258.717C139.686 258.834 139.377 258.892 139.033 258.892C138.604 258.892 138.227 258.808 137.902 258.641C137.582 258.473 137.332 258.248 137.152 257.967C136.977 257.682 136.889 257.363 136.889 257.012C136.889 256.672 136.955 256.373 137.088 256.115C137.221 255.853 137.412 255.637 137.662 255.465C137.912 255.289 138.213 255.156 138.564 255.066C138.916 254.976 139.309 254.932 139.742 254.932H141.002ZM146.141 258.002C146.398 258.002 146.637 257.949 146.855 257.844C147.074 257.738 147.254 257.594 147.395 257.41C147.535 257.223 147.615 257.01 147.635 256.771H148.666C148.646 257.146 148.52 257.496 148.285 257.82C148.055 258.141 147.752 258.4 147.377 258.6C147.002 258.795 146.59 258.892 146.141 258.892C145.664 258.892 145.248 258.808 144.893 258.641C144.541 258.473 144.248 258.242 144.014 257.949C143.783 257.656 143.609 257.32 143.492 256.941C143.379 256.558 143.322 256.154 143.322 255.728V255.482C143.322 255.057 143.379 254.654 143.492 254.275C143.609 253.892 143.783 253.555 144.014 253.262C144.248 252.969 144.541 252.738 144.893 252.57C145.248 252.402 145.664 252.318 146.141 252.318C146.637 252.318 147.07 252.42 147.441 252.623C147.812 252.822 148.104 253.096 148.314 253.443C148.529 253.787 148.646 254.178 148.666 254.615H147.635C147.615 254.353 147.541 254.117 147.412 253.906C147.287 253.695 147.115 253.527 146.896 253.402C146.682 253.273 146.43 253.209 146.141 253.209C145.809 253.209 145.529 253.275 145.303 253.408C145.08 253.537 144.902 253.713 144.77 253.935C144.641 254.154 144.547 254.398 144.488 254.668C144.434 254.933 144.406 255.205 144.406 255.482V255.728C144.406 256.006 144.434 256.279 144.488 256.549C144.543 256.818 144.635 257.062 144.764 257.281C144.896 257.5 145.074 257.676 145.297 257.808C145.523 257.937 145.805 258.002 146.141 258.002ZM150.975 249.775V258.775H149.885V249.775H150.975ZM154.848 252.435L152.082 255.394L150.535 257L150.447 255.846L151.555 254.521L153.523 252.435H154.848ZM153.857 258.775L151.596 255.752L152.158 254.785L155.135 258.775H153.857ZM158.656 255.676V255.541C158.656 255.084 158.723 254.66 158.855 254.269C158.988 253.875 159.18 253.533 159.43 253.244C159.68 252.951 159.982 252.725 160.338 252.564C160.693 252.4 161.092 252.318 161.533 252.318C161.979 252.318 162.379 252.4 162.734 252.564C163.094 252.725 163.398 252.951 163.648 253.244C163.902 253.533 164.096 253.875 164.229 254.269C164.361 254.66 164.428 255.084 164.428 255.541V255.676C164.428 256.133 164.361 256.557 164.229 256.947C164.096 257.338 163.902 257.68 163.648 257.973C163.398 258.262 163.096 258.488 162.74 258.652C162.389 258.812 161.99 258.892 161.545 258.892C161.1 258.892 160.699 258.812 160.344 258.652C159.988 258.488 159.684 258.262 159.43 257.973C159.18 257.68 158.988 257.338 158.855 256.947C158.723 256.557 158.656 256.133 158.656 255.676ZM159.74 255.541V255.676C159.74 255.992 159.777 256.291 159.852 256.572C159.926 256.85 160.037 257.096 160.186 257.31C160.338 257.525 160.527 257.695 160.754 257.82C160.98 257.941 161.244 258.002 161.545 258.002C161.842 258.002 162.102 257.941 162.324 257.82C162.551 257.695 162.738 257.525 162.887 257.31C163.035 257.096 163.146 256.85 163.221 256.572C163.299 256.291 163.338 255.992 163.338 255.676V255.541C163.338 255.228 163.299 254.933 163.221 254.656C163.146 254.375 163.033 254.127 162.881 253.912C162.732 253.693 162.545 253.521 162.318 253.396C162.096 253.271 161.834 253.209 161.533 253.209C161.236 253.209 160.975 253.271 160.748 253.396C160.525 253.521 160.338 253.693 160.186 253.912C160.037 254.127 159.926 254.375 159.852 254.656C159.777 254.933 159.74 255.228 159.74 255.541ZM167.404 258.775H166.32V251.767C166.32 251.31 166.402 250.926 166.566 250.613C166.734 250.297 166.975 250.058 167.287 249.898C167.6 249.734 167.971 249.652 168.4 249.652C168.525 249.652 168.65 249.66 168.775 249.676C168.904 249.691 169.029 249.715 169.15 249.746L169.092 250.631C169.01 250.611 168.916 250.598 168.811 250.59C168.709 250.582 168.607 250.578 168.506 250.578C168.275 250.578 168.076 250.625 167.908 250.719C167.744 250.808 167.619 250.941 167.533 251.117C167.447 251.293 167.404 251.51 167.404 251.767V258.775ZM168.752 252.435V253.267H165.318V252.435H168.752ZM176.674 257.691V254.428C176.674 254.178 176.623 253.961 176.521 253.777C176.424 253.59 176.275 253.445 176.076 253.344C175.877 253.242 175.631 253.191 175.338 253.191C175.064 253.191 174.824 253.238 174.617 253.332C174.414 253.426 174.254 253.549 174.137 253.701C174.023 253.853 173.967 254.017 173.967 254.193H172.883C172.883 253.967 172.941 253.742 173.059 253.519C173.176 253.297 173.344 253.096 173.562 252.916C173.785 252.732 174.051 252.588 174.359 252.482C174.672 252.373 175.02 252.318 175.402 252.318C175.863 252.318 176.27 252.396 176.621 252.553C176.977 252.709 177.254 252.945 177.453 253.262C177.656 253.574 177.758 253.967 177.758 254.439V257.392C177.758 257.603 177.775 257.828 177.811 258.066C177.85 258.305 177.906 258.51 177.98 258.682V258.775H176.85C176.795 258.65 176.752 258.484 176.721 258.277C176.689 258.066 176.674 257.871 176.674 257.691ZM176.861 254.932L176.873 255.693H175.777C175.469 255.693 175.193 255.719 174.951 255.769C174.709 255.816 174.506 255.889 174.342 255.986C174.178 256.084 174.053 256.207 173.967 256.355C173.881 256.5 173.838 256.67 173.838 256.865C173.838 257.064 173.883 257.246 173.973 257.41C174.062 257.574 174.197 257.705 174.377 257.803C174.561 257.896 174.785 257.943 175.051 257.943C175.383 257.943 175.676 257.873 175.93 257.732C176.184 257.592 176.385 257.42 176.533 257.217C176.686 257.014 176.768 256.816 176.779 256.625L177.242 257.146C177.215 257.31 177.141 257.492 177.02 257.691C176.898 257.891 176.736 258.082 176.533 258.266C176.334 258.445 176.096 258.596 175.818 258.717C175.545 258.834 175.236 258.892 174.893 258.892C174.463 258.892 174.086 258.808 173.762 258.641C173.441 258.473 173.191 258.248 173.012 257.967C172.836 257.682 172.748 257.363 172.748 257.012C172.748 256.672 172.814 256.373 172.947 256.115C173.08 255.853 173.271 255.637 173.521 255.465C173.771 255.289 174.072 255.156 174.424 255.066C174.775 254.976 175.168 254.932 175.602 254.932H176.861ZM180.547 253.654V261.213H179.457V252.435H180.453L180.547 253.654ZM184.818 255.553V255.676C184.818 256.137 184.764 256.564 184.654 256.959C184.545 257.35 184.385 257.689 184.174 257.978C183.967 258.267 183.711 258.492 183.406 258.652C183.102 258.812 182.752 258.892 182.357 258.892C181.955 258.892 181.6 258.826 181.291 258.693C180.982 258.56 180.721 258.367 180.506 258.113C180.291 257.859 180.119 257.555 179.99 257.199C179.865 256.844 179.779 256.443 179.732 255.998V255.342C179.779 254.873 179.867 254.453 179.996 254.082C180.125 253.711 180.295 253.394 180.506 253.133C180.721 252.867 180.98 252.666 181.285 252.529C181.59 252.389 181.941 252.318 182.34 252.318C182.738 252.318 183.092 252.396 183.4 252.553C183.709 252.705 183.969 252.924 184.18 253.209C184.391 253.494 184.549 253.836 184.654 254.234C184.764 254.629 184.818 255.068 184.818 255.553ZM183.729 255.676V255.553C183.729 255.236 183.695 254.939 183.629 254.662C183.562 254.381 183.459 254.135 183.318 253.924C183.182 253.709 183.006 253.541 182.791 253.42C182.576 253.295 182.32 253.232 182.023 253.232C181.75 253.232 181.512 253.279 181.309 253.373C181.109 253.467 180.939 253.594 180.799 253.754C180.658 253.91 180.543 254.09 180.453 254.293C180.367 254.492 180.303 254.699 180.26 254.914V256.432C180.338 256.705 180.447 256.963 180.588 257.205C180.729 257.443 180.916 257.637 181.15 257.785C181.385 257.93 181.68 258.002 182.035 258.002C182.328 258.002 182.58 257.941 182.791 257.82C183.006 257.695 183.182 257.525 183.318 257.31C183.459 257.096 183.562 256.85 183.629 256.572C183.695 256.291 183.729 255.992 183.729 255.676ZM187.285 253.654V261.213H186.195V252.435H187.191L187.285 253.654ZM191.557 255.553V255.676C191.557 256.137 191.502 256.564 191.393 256.959C191.283 257.35 191.123 257.689 190.912 257.978C190.705 258.267 190.449 258.492 190.145 258.652C189.84 258.812 189.49 258.892 189.096 258.892C188.693 258.892 188.338 258.826 188.029 258.693C187.721 258.56 187.459 258.367 187.244 258.113C187.029 257.859 186.857 257.555 186.729 257.199C186.604 256.844 186.518 256.443 186.471 255.998V255.342C186.518 254.873 186.605 254.453 186.734 254.082C186.863 253.711 187.033 253.394 187.244 253.133C187.459 252.867 187.719 252.666 188.023 252.529C188.328 252.389 188.68 252.318 189.078 252.318C189.477 252.318 189.83 252.396 190.139 252.553C190.447 252.705 190.707 252.924 190.918 253.209C191.129 253.494 191.287 253.836 191.393 254.234C191.502 254.629 191.557 255.068 191.557 255.553ZM190.467 255.676V255.553C190.467 255.236 190.434 254.939 190.367 254.662C190.301 254.381 190.197 254.135 190.057 253.924C189.92 253.709 189.744 253.541 189.529 253.42C189.314 253.295 189.059 253.232 188.762 253.232C188.488 253.232 188.25 253.279 188.047 253.373C187.848 253.467 187.678 253.594 187.537 253.754C187.396 253.91 187.281 254.09 187.191 254.293C187.105 254.492 187.041 254.699 186.998 254.914V256.432C187.076 256.705 187.186 256.963 187.326 257.205C187.467 257.443 187.654 257.637 187.889 257.785C188.123 257.93 188.418 258.002 188.773 258.002C189.066 258.002 189.318 257.941 189.529 257.82C189.744 257.695 189.92 257.525 190.057 257.31C190.197 257.096 190.301 256.85 190.367 256.572C190.434 256.291 190.467 255.992 190.467 255.676ZM192.652 255.676V255.541C192.652 255.084 192.719 254.66 192.852 254.269C192.984 253.875 193.176 253.533 193.426 253.244C193.676 252.951 193.979 252.725 194.334 252.564C194.689 252.4 195.088 252.318 195.529 252.318C195.975 252.318 196.375 252.4 196.73 252.564C197.09 252.725 197.395 252.951 197.645 253.244C197.898 253.533 198.092 253.875 198.225 254.269C198.357 254.66 198.424 255.084 198.424 255.541V255.676C198.424 256.133 198.357 256.557 198.225 256.947C198.092 257.338 197.898 257.68 197.645 257.973C197.395 258.262 197.092 258.488 196.736 258.652C196.385 258.812 195.986 258.892 195.541 258.892C195.096 258.892 194.695 258.812 194.34 258.652C193.984 258.488 193.68 258.262 193.426 257.973C193.176 257.68 192.984 257.338 192.852 256.947C192.719 256.557 192.652 256.133 192.652 255.676ZM193.736 255.541V255.676C193.736 255.992 193.773 256.291 193.848 256.572C193.922 256.85 194.033 257.096 194.182 257.31C194.334 257.525 194.523 257.695 194.75 257.82C194.977 257.941 195.24 258.002 195.541 258.002C195.838 258.002 196.098 257.941 196.32 257.82C196.547 257.695 196.734 257.525 196.883 257.31C197.031 257.096 197.143 256.85 197.217 256.572C197.295 256.291 197.334 255.992 197.334 255.676V255.541C197.334 255.228 197.295 254.933 197.217 254.656C197.143 254.375 197.029 254.127 196.877 253.912C196.729 253.693 196.541 253.521 196.314 253.396C196.092 253.271 195.83 253.209 195.529 253.209C195.232 253.209 194.971 253.271 194.744 253.396C194.521 253.521 194.334 253.693 194.182 253.912C194.033 254.127 193.922 254.375 193.848 254.656C193.773 254.933 193.736 255.228 193.736 255.541ZM200.961 252.435V258.775H199.871V252.435H200.961ZM199.789 250.754C199.789 250.578 199.842 250.43 199.947 250.308C200.057 250.187 200.217 250.127 200.428 250.127C200.635 250.127 200.793 250.187 200.902 250.308C201.016 250.43 201.072 250.578 201.072 250.754C201.072 250.922 201.016 251.066 200.902 251.187C200.793 251.305 200.635 251.363 200.428 251.363C200.217 251.363 200.057 251.305 199.947 251.187C199.842 251.066 199.789 250.922 199.789 250.754ZM203.785 253.789V258.775H202.701V252.435H203.727L203.785 253.789ZM203.527 255.365L203.076 255.348C203.08 254.914 203.145 254.514 203.27 254.146C203.395 253.775 203.57 253.453 203.797 253.18C204.023 252.906 204.293 252.695 204.605 252.547C204.922 252.394 205.271 252.318 205.654 252.318C205.967 252.318 206.248 252.361 206.498 252.447C206.748 252.529 206.961 252.662 207.137 252.846C207.316 253.029 207.453 253.267 207.547 253.56C207.641 253.85 207.688 254.203 207.688 254.621V258.775H206.598V254.609C206.598 254.277 206.549 254.012 206.451 253.812C206.354 253.609 206.211 253.463 206.023 253.373C205.836 253.279 205.605 253.232 205.332 253.232C205.062 253.232 204.816 253.289 204.594 253.402C204.375 253.516 204.186 253.672 204.025 253.871C203.869 254.07 203.746 254.299 203.656 254.557C203.57 254.81 203.527 255.08 203.527 255.365ZM211.988 252.435V253.267H208.561V252.435H211.988ZM209.721 250.894H210.805V257.205C210.805 257.42 210.838 257.582 210.904 257.691C210.971 257.801 211.057 257.873 211.162 257.908C211.268 257.943 211.381 257.961 211.502 257.961C211.592 257.961 211.686 257.953 211.783 257.937C211.885 257.918 211.961 257.902 212.012 257.891L212.018 258.775C211.932 258.803 211.818 258.828 211.678 258.851C211.541 258.879 211.375 258.892 211.18 258.892C210.914 258.892 210.67 258.84 210.447 258.734C210.225 258.629 210.047 258.453 209.914 258.207C209.785 257.957 209.721 257.621 209.721 257.199V250.894ZM214.338 253.695V258.775H213.248V252.435H214.279L214.338 253.695ZM214.115 255.365L213.611 255.348C213.615 254.914 213.672 254.514 213.781 254.146C213.891 253.775 214.053 253.453 214.268 253.18C214.482 252.906 214.75 252.695 215.07 252.547C215.391 252.394 215.762 252.318 216.184 252.318C216.48 252.318 216.754 252.361 217.004 252.447C217.254 252.529 217.471 252.66 217.654 252.84C217.838 253.019 217.98 253.25 218.082 253.531C218.184 253.812 218.234 254.152 218.234 254.551V258.775H217.15V254.603C217.15 254.271 217.094 254.006 216.98 253.807C216.871 253.607 216.715 253.463 216.512 253.373C216.309 253.279 216.07 253.232 215.797 253.232C215.477 253.232 215.209 253.289 214.994 253.402C214.779 253.516 214.607 253.672 214.479 253.871C214.35 254.07 214.256 254.299 214.197 254.557C214.143 254.81 214.115 255.08 214.115 255.365ZM218.223 254.767L217.496 254.99C217.5 254.642 217.557 254.308 217.666 253.988C217.779 253.668 217.941 253.383 218.152 253.133C218.367 252.883 218.631 252.685 218.943 252.541C219.256 252.392 219.613 252.318 220.016 252.318C220.355 252.318 220.656 252.363 220.918 252.453C221.184 252.543 221.406 252.682 221.586 252.869C221.77 253.053 221.908 253.289 222.002 253.578C222.096 253.867 222.143 254.211 222.143 254.609V258.775H221.053V254.598C221.053 254.242 220.996 253.967 220.883 253.771C220.773 253.572 220.617 253.433 220.414 253.355C220.215 253.273 219.977 253.232 219.699 253.232C219.461 253.232 219.25 253.273 219.066 253.355C218.883 253.437 218.729 253.551 218.604 253.695C218.479 253.836 218.383 253.998 218.316 254.182C218.254 254.365 218.223 254.56 218.223 254.767ZM226.414 258.892C225.973 258.892 225.572 258.818 225.213 258.67C224.857 258.517 224.551 258.305 224.293 258.031C224.039 257.758 223.844 257.433 223.707 257.058C223.57 256.683 223.502 256.273 223.502 255.828V255.582C223.502 255.066 223.578 254.607 223.73 254.205C223.883 253.799 224.09 253.455 224.352 253.174C224.613 252.892 224.91 252.68 225.242 252.535C225.574 252.391 225.918 252.318 226.273 252.318C226.727 252.318 227.117 252.396 227.445 252.553C227.777 252.709 228.049 252.928 228.26 253.209C228.471 253.486 228.627 253.814 228.729 254.193C228.83 254.568 228.881 254.978 228.881 255.424V255.91H224.146V255.025H227.797V254.943C227.781 254.662 227.723 254.389 227.621 254.123C227.523 253.857 227.367 253.639 227.152 253.467C226.938 253.295 226.645 253.209 226.273 253.209C226.027 253.209 225.801 253.262 225.594 253.367C225.387 253.469 225.209 253.621 225.061 253.824C224.912 254.027 224.797 254.275 224.715 254.568C224.633 254.861 224.592 255.199 224.592 255.582V255.828C224.592 256.129 224.633 256.412 224.715 256.678C224.801 256.939 224.924 257.17 225.084 257.369C225.248 257.568 225.445 257.725 225.676 257.838C225.91 257.951 226.176 258.008 226.473 258.008C226.855 258.008 227.18 257.93 227.445 257.773C227.711 257.617 227.943 257.408 228.143 257.146L228.799 257.668C228.662 257.875 228.488 258.072 228.277 258.26C228.066 258.447 227.807 258.6 227.498 258.717C227.193 258.834 226.832 258.892 226.414 258.892ZM231.23 253.789V258.775H230.146V252.435H231.172L231.23 253.789ZM230.973 255.365L230.521 255.348C230.525 254.914 230.59 254.514 230.715 254.146C230.84 253.775 231.016 253.453 231.242 253.18C231.469 252.906 231.738 252.695 232.051 252.547C232.367 252.394 232.717 252.318 233.1 252.318C233.412 252.318 233.693 252.361 233.943 252.447C234.193 252.529 234.406 252.662 234.582 252.846C234.762 253.029 234.898 253.267 234.992 253.56C235.086 253.85 235.133 254.203 235.133 254.621V258.775H234.043V254.609C234.043 254.277 233.994 254.012 233.896 253.812C233.799 253.609 233.656 253.463 233.469 253.373C233.281 253.279 233.051 253.232 232.777 253.232C232.508 253.232 232.262 253.289 232.039 253.402C231.82 253.516 231.631 253.672 231.471 253.871C231.314 254.07 231.191 254.299 231.102 254.557C231.016 254.81 230.973 255.08 230.973 255.365ZM239.434 252.435V253.267H236.006V252.435H239.434ZM237.166 250.894H238.25V257.205C238.25 257.42 238.283 257.582 238.35 257.691C238.416 257.801 238.502 257.873 238.607 257.908C238.713 257.943 238.826 257.961 238.947 257.961C239.037 257.961 239.131 257.953 239.229 257.937C239.33 257.918 239.406 257.902 239.457 257.891L239.463 258.775C239.377 258.803 239.264 258.828 239.123 258.851C238.986 258.879 238.82 258.892 238.625 258.892C238.359 258.892 238.115 258.84 237.893 258.734C237.67 258.629 237.492 258.453 237.359 258.207C237.23 257.957 237.166 257.621 237.166 257.199V250.894ZM244.396 257.094C244.396 256.937 244.361 256.793 244.291 256.66C244.225 256.523 244.086 256.4 243.875 256.291C243.668 256.178 243.355 256.08 242.938 255.998C242.586 255.924 242.268 255.836 241.982 255.734C241.701 255.633 241.461 255.51 241.262 255.365C241.066 255.221 240.916 255.051 240.811 254.855C240.705 254.66 240.652 254.432 240.652 254.17C240.652 253.92 240.707 253.683 240.816 253.461C240.93 253.238 241.088 253.041 241.291 252.869C241.498 252.697 241.746 252.562 242.035 252.465C242.324 252.367 242.646 252.318 243.002 252.318C243.51 252.318 243.943 252.408 244.303 252.588C244.662 252.767 244.938 253.008 245.129 253.308C245.32 253.605 245.416 253.935 245.416 254.299H244.332C244.332 254.123 244.279 253.953 244.174 253.789C244.072 253.621 243.922 253.482 243.723 253.373C243.527 253.264 243.287 253.209 243.002 253.209C242.701 253.209 242.457 253.256 242.27 253.35C242.086 253.439 241.951 253.555 241.865 253.695C241.783 253.836 241.742 253.984 241.742 254.141C241.742 254.258 241.762 254.363 241.801 254.457C241.844 254.547 241.918 254.631 242.023 254.709C242.129 254.783 242.277 254.853 242.469 254.92C242.66 254.986 242.904 255.053 243.201 255.119C243.721 255.236 244.148 255.377 244.484 255.541C244.82 255.705 245.07 255.906 245.234 256.144C245.398 256.383 245.48 256.672 245.48 257.012C245.48 257.289 245.422 257.543 245.305 257.773C245.191 258.004 245.025 258.203 244.807 258.371C244.592 258.535 244.334 258.664 244.033 258.758C243.736 258.848 243.402 258.892 243.031 258.892C242.473 258.892 242 258.793 241.613 258.594C241.227 258.394 240.934 258.137 240.734 257.82C240.535 257.504 240.436 257.17 240.436 256.818H241.525C241.541 257.115 241.627 257.351 241.783 257.527C241.939 257.699 242.131 257.822 242.357 257.896C242.584 257.967 242.809 258.002 243.031 258.002C243.328 258.002 243.576 257.963 243.775 257.885C243.979 257.807 244.133 257.699 244.238 257.562C244.344 257.426 244.396 257.269 244.396 257.094Z" fill="#5E6073"/>
<path d="M2 217.215H3.86L10.24 227.555H10.1V217.215H11.66V229.775H9.92L3.32 219.095H3.56V229.775H2V217.215ZM19.1519 230.015C18.2919 230.015 17.5252 229.825 16.8519 229.445C16.1852 229.065 15.6585 228.502 15.2719 227.755C14.8852 227.009 14.6919 226.089 14.6919 224.995C14.6919 223.895 14.8852 222.975 15.2719 222.235C15.6585 221.489 16.1852 220.925 16.8519 220.545C17.5252 220.165 18.2919 219.975 19.1519 219.975C20.0052 219.975 20.7652 220.165 21.4319 220.545C22.1052 220.925 22.6319 221.489 23.0119 222.235C23.3985 222.975 23.5919 223.895 23.5919 224.995C23.5919 226.089 23.3985 227.009 23.0119 227.755C22.6319 228.502 22.1052 229.065 21.4319 229.445C20.7652 229.825 20.0052 230.015 19.1519 230.015ZM19.1119 228.655C19.7319 228.655 20.2585 228.509 20.6919 228.215C21.1252 227.915 21.4519 227.492 21.6719 226.945C21.8985 226.399 22.0119 225.749 22.0119 224.995C22.0119 223.855 21.7752 222.959 21.3019 222.305C20.8285 221.645 20.1252 221.315 19.1919 221.315C18.5652 221.315 18.0352 221.465 17.6019 221.765C17.1752 222.059 16.8485 222.482 16.6219 223.035C16.4019 223.582 16.2919 224.235 16.2919 224.995C16.2919 226.122 16.5285 227.015 17.0019 227.675C17.4819 228.329 18.1852 228.655 19.1119 228.655ZM37.8755 220.195H39.4355V229.775H37.8755V220.195ZM31.0955 220.195H32.6555V226.155C32.6555 226.955 32.8488 227.562 33.2355 227.975C33.6288 228.389 34.1888 228.595 34.9155 228.595C35.5155 228.595 36.0355 228.435 36.4755 228.115C36.9221 227.795 37.2655 227.355 37.5055 226.795C37.7521 226.229 37.8755 225.582 37.8755 224.855H38.4555C38.4555 225.929 38.2988 226.845 37.9855 227.605C37.6788 228.365 37.2421 228.949 36.6755 229.355C36.1155 229.755 35.4555 229.955 34.6955 229.955C33.9755 229.955 33.3455 229.822 32.8055 229.555C32.2655 229.289 31.8455 228.885 31.5455 228.345C31.2455 227.799 31.0955 227.109 31.0955 226.275V220.195ZM47.8248 230.015C47.1248 230.015 46.5148 229.855 45.9948 229.535C45.4815 229.215 45.0848 228.749 44.8048 228.135C44.5248 227.515 44.3848 226.762 44.3848 225.875H45.0448C45.0448 226.469 45.1682 226.969 45.4148 227.375C45.6615 227.782 45.9815 228.092 46.3748 228.305C46.7748 228.512 47.1982 228.615 47.6448 228.615C48.1248 228.615 48.5848 228.479 49.0248 228.205C49.4648 227.925 49.8248 227.515 50.1048 226.975C50.3848 226.435 50.5248 225.769 50.5248 224.975C50.5248 224.215 50.3948 223.565 50.1348 223.025C49.8815 222.485 49.5382 222.072 49.1048 221.785C48.6715 221.499 48.1915 221.355 47.6648 221.355C47.2115 221.355 46.7848 221.465 46.3848 221.685C45.9848 221.905 45.6615 222.229 45.4148 222.655C45.1682 223.075 45.0448 223.595 45.0448 224.215H44.3848C44.3848 223.289 44.5382 222.512 44.8448 221.885C45.1515 221.252 45.5682 220.775 46.0948 220.455C46.6215 220.135 47.2115 219.975 47.8648 219.975C48.6115 219.975 49.3082 220.175 49.9548 220.575C50.6015 220.975 51.1248 221.549 51.5248 222.295C51.9248 223.042 52.1248 223.935 52.1248 224.975C52.1248 226.029 51.9215 226.932 51.5148 227.685C51.1148 228.439 50.5882 229.015 49.9348 229.415C49.2815 229.815 48.5782 230.015 47.8248 230.015ZM43.4848 234.475V220.215H44.7848L45.0448 222.455V234.475H43.4848ZM58.5441 230.015C57.7774 230.015 57.0607 229.809 56.3941 229.395C55.7341 228.982 55.2007 228.399 54.7941 227.645C54.3874 226.892 54.1841 226.002 54.1841 224.975C54.1841 223.922 54.3874 223.022 54.7941 222.275C55.2007 221.529 55.7341 220.959 56.3941 220.565C57.0607 220.172 57.7774 219.975 58.5441 219.975C59.0841 219.975 59.5674 220.059 59.9941 220.225C60.4274 220.385 60.8041 220.609 61.1241 220.895C61.4441 221.182 61.7074 221.509 61.9141 221.875C62.1274 222.235 62.2841 222.615 62.3841 223.015L60.7841 223.155C60.6174 222.602 60.3374 222.165 59.9441 221.845C59.5574 221.519 59.0841 221.355 58.5241 221.355C58.0507 221.355 57.6041 221.492 57.1841 221.765C56.7707 222.032 56.4341 222.435 56.1741 222.975C55.9141 223.509 55.7841 224.175 55.7841 224.975C55.7841 225.715 55.9007 226.359 56.1341 226.905C56.3741 227.445 56.7007 227.865 57.1141 228.165C57.5274 228.465 57.9974 228.615 58.5241 228.615C59.2641 228.615 59.8241 228.435 60.2041 228.075C60.5907 227.709 60.7841 227.202 60.7841 226.555H62.3841C62.3841 227.222 62.2274 227.815 61.9141 228.335C61.6007 228.855 61.1541 229.265 60.5741 229.565C60.0007 229.865 59.3241 230.015 58.5441 230.015ZM68.9566 230.015C68.0966 230.015 67.3299 229.825 66.6566 229.445C65.9899 229.065 65.4632 228.502 65.0766 227.755C64.6899 227.009 64.4966 226.089 64.4966 224.995C64.4966 223.895 64.6899 222.975 65.0766 222.235C65.4632 221.489 65.9899 220.925 66.6566 220.545C67.3299 220.165 68.0966 219.975 68.9566 219.975C69.8099 219.975 70.5699 220.165 71.2366 220.545C71.9099 220.925 72.4366 221.489 72.8166 222.235C73.2032 222.975 73.3966 223.895 73.3966 224.995C73.3966 226.089 73.2032 227.009 72.8166 227.755C72.4366 228.502 71.9099 229.065 71.2366 229.445C70.5699 229.825 69.8099 230.015 68.9566 230.015ZM68.9166 228.655C69.5366 228.655 70.0632 228.509 70.4966 228.215C70.9299 227.915 71.2566 227.492 71.4766 226.945C71.7032 226.399 71.8166 225.749 71.8166 224.995C71.8166 223.855 71.5799 222.959 71.1066 222.305C70.6332 221.645 69.9299 221.315 68.9966 221.315C68.3699 221.315 67.8399 221.465 67.4066 221.765C66.9799 222.059 66.6532 222.482 66.4266 223.035C66.2066 223.582 66.0966 224.235 66.0966 224.995C66.0966 226.122 66.3332 227.015 66.8066 227.675C67.2866 228.329 67.9899 228.655 68.9166 228.655ZM89.8741 229.775V224.155C89.8741 223.242 89.6541 222.549 89.2141 222.075C88.7807 221.595 88.1941 221.355 87.4541 221.355C86.5874 221.355 85.9241 221.692 85.4641 222.365C85.0041 223.032 84.7741 223.955 84.7741 225.135H84.0541C84.0541 224.275 84.1374 223.522 84.3041 222.875C84.4774 222.229 84.7274 221.692 85.0541 221.265C85.3807 220.832 85.7774 220.509 86.2441 220.295C86.7107 220.082 87.2407 219.975 87.8341 219.975C88.5874 219.975 89.2307 220.145 89.7641 220.485C90.3041 220.819 90.7174 221.299 91.0041 221.925C91.2907 222.552 91.4341 223.295 91.4341 224.155V229.775H89.8741ZM76.4341 229.775V220.215H77.7741L77.9541 222.135C78.2541 221.442 78.6741 220.909 79.2141 220.535C79.7607 220.162 80.4141 219.975 81.1741 219.975C81.9274 219.975 82.5707 220.145 83.1041 220.485C83.6441 220.819 84.0574 221.299 84.3441 221.925C84.6307 222.552 84.7741 223.295 84.7741 224.155V229.775H83.2341V224.155C83.2341 223.242 83.0141 222.549 82.5741 222.075C82.1407 221.595 81.5474 221.355 80.7941 221.355C80.2207 221.355 79.7241 221.512 79.3041 221.825C78.8841 222.139 78.5607 222.589 78.3341 223.175C78.1074 223.755 77.9941 224.449 77.9941 225.255V229.775H76.4341ZM96.025 217.955C95.705 217.955 95.4517 217.865 95.265 217.685C95.0783 217.499 94.985 217.255 94.985 216.955C94.985 216.662 95.0783 216.429 95.265 216.255C95.4517 216.082 95.705 215.995 96.025 215.995C96.345 215.995 96.5983 216.082 96.785 216.255C96.9717 216.429 97.065 216.662 97.065 216.955C97.065 217.255 96.9717 217.499 96.785 217.685C96.5983 217.865 96.345 217.955 96.025 217.955ZM95.245 229.775V220.195H96.805V229.775H95.245ZM107.902 229.775V224.155C107.902 223.242 107.682 222.549 107.242 222.075C106.809 221.595 106.215 221.355 105.462 221.355C104.889 221.355 104.392 221.512 103.972 221.825C103.552 222.139 103.229 222.589 103.002 223.175C102.775 223.755 102.662 224.449 102.662 225.255H102.062C102.062 224.142 102.209 223.192 102.502 222.405C102.795 221.619 103.222 221.019 103.782 220.605C104.349 220.185 105.035 219.975 105.842 219.975C106.595 219.975 107.239 220.145 107.772 220.485C108.312 220.819 108.725 221.299 109.012 221.925C109.299 222.552 109.442 223.295 109.442 224.155V229.775H107.902ZM101.102 229.775V220.215H102.442L102.662 222.415V229.775H101.102ZM116.552 234.695C115.572 234.695 114.722 234.555 114.002 234.275C113.282 234.002 112.722 233.632 112.322 233.165C111.929 232.705 111.732 232.195 111.732 231.635C111.732 230.895 112.002 230.329 112.542 229.935C113.089 229.549 113.792 229.355 114.652 229.355L115.512 229.895C114.792 229.895 114.236 230.045 113.842 230.345C113.449 230.645 113.252 231.055 113.252 231.575C113.252 232.095 113.532 232.535 114.092 232.895C114.652 233.255 115.472 233.435 116.552 233.435C117.352 233.435 118.052 233.319 118.652 233.085C119.259 232.859 119.729 232.559 120.062 232.185C120.402 231.819 120.572 231.422 120.572 230.995C120.572 230.695 120.462 230.435 120.242 230.215C120.022 230.002 119.686 229.895 119.232 229.895H115.512C114.866 229.895 114.306 229.799 113.832 229.605C113.366 229.405 113.006 229.145 112.752 228.825C112.499 228.505 112.372 228.155 112.372 227.775C112.372 227.375 112.486 227.035 112.712 226.755C112.939 226.475 113.232 226.262 113.592 226.115C113.959 225.969 114.352 225.895 114.772 225.895L115.072 226.475C114.872 226.475 114.669 226.522 114.462 226.615C114.262 226.702 114.092 226.835 113.952 227.015C113.819 227.189 113.752 227.409 113.752 227.675C113.752 227.982 113.879 228.239 114.132 228.445C114.386 228.652 114.846 228.755 115.512 228.755H119.232C120.132 228.755 120.839 228.945 121.352 229.325C121.872 229.705 122.132 230.235 122.132 230.915C122.132 231.542 121.909 232.142 121.462 232.715C121.016 233.295 120.376 233.769 119.542 234.135C118.709 234.509 117.712 234.695 116.552 234.695ZM116.832 226.975C116.099 226.975 115.436 226.829 114.842 226.535C114.256 226.242 113.789 225.832 113.442 225.305C113.102 224.779 112.932 224.169 112.932 223.475C112.932 222.775 113.102 222.162 113.442 221.635C113.789 221.109 114.256 220.702 114.842 220.415C115.436 220.122 116.099 219.975 116.832 219.975C117.546 219.975 118.192 220.122 118.772 220.415C119.359 220.702 119.826 221.109 120.172 221.635C120.519 222.162 120.692 222.775 120.692 223.475C120.692 224.169 120.519 224.779 120.172 225.305C119.826 225.832 119.359 226.242 118.772 226.535C118.192 226.829 117.546 226.975 116.832 226.975ZM116.832 225.855C117.566 225.855 118.136 225.629 118.542 225.175C118.949 224.722 119.152 224.155 119.152 223.475C119.152 222.775 118.949 222.209 118.542 221.775C118.136 221.335 117.566 221.115 116.832 221.115C116.106 221.115 115.532 221.335 115.112 221.775C114.699 222.209 114.492 222.775 114.492 223.475C114.492 224.155 114.699 224.722 115.112 225.175C115.532 225.629 116.106 225.855 116.832 225.855ZM119.972 221.495L119.232 221.195C119.232 220.635 119.342 220.145 119.562 219.725C119.782 219.299 120.096 218.969 120.502 218.735C120.909 218.495 121.392 218.375 121.952 218.375L121.832 219.915C121.232 219.915 120.772 220.045 120.452 220.305C120.132 220.559 119.972 220.955 119.972 221.495ZM135.128 229.775L134.928 227.675V223.575C134.928 222.715 134.744 222.099 134.378 221.725C134.011 221.345 133.461 221.155 132.728 221.155C132.314 221.155 131.938 221.215 131.598 221.335C131.264 221.455 130.998 221.642 130.798 221.895C130.604 222.142 130.508 222.462 130.508 222.855H128.768C128.768 222.162 128.938 221.605 129.278 221.185C129.618 220.759 130.084 220.452 130.678 220.265C131.278 220.072 131.961 219.975 132.728 219.975C133.461 219.975 134.111 220.099 134.678 220.345C135.244 220.592 135.688 220.985 136.008 221.525C136.328 222.059 136.488 222.755 136.488 223.615V229.775H135.128ZM131.868 230.015C131.081 230.015 130.431 229.875 129.918 229.595C129.404 229.315 129.021 228.952 128.768 228.505C128.514 228.059 128.388 227.589 128.388 227.095C128.388 226.449 128.548 225.922 128.868 225.515C129.194 225.109 129.638 224.812 130.198 224.625C130.758 224.432 131.388 224.335 132.088 224.335C132.588 224.335 133.088 224.385 133.588 224.485C134.094 224.585 134.588 224.722 135.068 224.895V225.875C134.668 225.715 134.214 225.589 133.708 225.495C133.208 225.402 132.748 225.355 132.327 225.355C131.688 225.355 131.148 225.489 130.708 225.755C130.268 226.015 130.048 226.462 130.048 227.095C130.048 227.562 130.214 227.962 130.548 228.295C130.888 228.629 131.428 228.795 132.168 228.795C132.688 228.795 133.154 228.675 133.568 228.435C133.988 228.189 134.318 227.882 134.558 227.515C134.804 227.149 134.928 226.782 134.928 226.415H135.308C135.308 227.055 135.168 227.649 134.888 228.195C134.614 228.742 134.221 229.182 133.708 229.515C133.194 229.849 132.581 230.015 131.868 230.015ZM144.563 230.015C143.863 230.015 143.253 229.855 142.733 229.535C142.22 229.215 141.823 228.749 141.543 228.135C141.263 227.515 141.123 226.762 141.123 225.875H141.783C141.783 226.469 141.906 226.969 142.153 227.375C142.4 227.782 142.72 228.092 143.113 228.305C143.513 228.512 143.936 228.615 144.383 228.615C144.863 228.615 145.323 228.479 145.763 228.205C146.203 227.925 146.563 227.515 146.843 226.975C147.123 226.435 147.263 225.769 147.263 224.975C147.263 224.215 147.133 223.565 146.873 223.025C146.62 222.485 146.276 222.072 145.843 221.785C145.41 221.499 144.93 221.355 144.403 221.355C143.95 221.355 143.523 221.465 143.123 221.685C142.723 221.905 142.4 222.229 142.153 222.655C141.906 223.075 141.783 223.595 141.783 224.215H141.123C141.123 223.289 141.276 222.512 141.583 221.885C141.89 221.252 142.306 220.775 142.833 220.455C143.36 220.135 143.95 219.975 144.603 219.975C145.35 219.975 146.046 220.175 146.693 220.575C147.34 220.975 147.863 221.549 148.263 222.295C148.663 223.042 148.863 223.935 148.863 224.975C148.863 226.029 148.66 226.932 148.253 227.685C147.853 228.439 147.326 229.015 146.673 229.415C146.02 229.815 145.316 230.015 144.563 230.015ZM140.223 234.475V220.215H141.523L141.783 222.455V234.475H140.223ZM156.262 230.015C155.562 230.015 154.952 229.855 154.432 229.535C153.919 229.215 153.522 228.749 153.242 228.135C152.962 227.515 152.822 226.762 152.822 225.875H153.482C153.482 226.469 153.606 226.969 153.852 227.375C154.099 227.782 154.419 228.092 154.812 228.305C155.212 228.512 155.636 228.615 156.082 228.615C156.562 228.615 157.022 228.479 157.462 228.205C157.902 227.925 158.262 227.515 158.542 226.975C158.822 226.435 158.962 225.769 158.962 224.975C158.962 224.215 158.832 223.565 158.572 223.025C158.319 222.485 157.976 222.072 157.542 221.785C157.109 221.499 156.629 221.355 156.102 221.355C155.649 221.355 155.222 221.465 154.822 221.685C154.422 221.905 154.099 222.229 153.852 222.655C153.606 223.075 153.482 223.595 153.482 224.215H152.822C152.822 223.289 152.976 222.512 153.282 221.885C153.589 221.252 154.006 220.775 154.532 220.455C155.059 220.135 155.649 219.975 156.302 219.975C157.049 219.975 157.746 220.175 158.392 220.575C159.039 220.975 159.562 221.549 159.962 222.295C160.362 223.042 160.562 223.935 160.562 224.975C160.562 226.029 160.359 226.932 159.952 227.685C159.552 228.439 159.026 229.015 158.372 229.415C157.719 229.815 157.016 230.015 156.262 230.015ZM151.922 234.475V220.215H153.222L153.482 222.455V234.475H151.922ZM167.082 230.015C166.222 230.015 165.455 229.825 164.782 229.445C164.115 229.065 163.588 228.502 163.202 227.755C162.815 227.009 162.622 226.089 162.622 224.995C162.622 223.895 162.815 222.975 163.202 222.235C163.588 221.489 164.115 220.925 164.782 220.545C165.455 220.165 166.222 219.975 167.082 219.975C167.935 219.975 168.695 220.165 169.362 220.545C170.035 220.925 170.562 221.489 170.942 222.235C171.328 222.975 171.522 223.895 171.522 224.995C171.522 226.089 171.328 227.009 170.942 227.755C170.562 228.502 170.035 229.065 169.362 229.445C168.695 229.825 167.935 230.015 167.082 230.015ZM167.042 228.655C167.662 228.655 168.188 228.509 168.622 228.215C169.055 227.915 169.382 227.492 169.602 226.945C169.828 226.399 169.942 225.749 169.942 224.995C169.942 223.855 169.705 222.959 169.232 222.305C168.758 221.645 168.055 221.315 167.122 221.315C166.495 221.315 165.965 221.465 165.532 221.765C165.105 222.059 164.778 222.482 164.552 223.035C164.332 223.582 164.222 224.235 164.222 224.995C164.222 226.122 164.458 227.015 164.932 227.675C165.412 228.329 166.115 228.655 167.042 228.655ZM175.439 217.955C175.119 217.955 174.866 217.865 174.679 217.685C174.492 217.499 174.399 217.255 174.399 216.955C174.399 216.662 174.492 216.429 174.679 216.255C174.866 216.082 175.119 215.995 175.439 215.995C175.759 215.995 176.012 216.082 176.199 216.255C176.386 216.429 176.479 216.662 176.479 216.955C176.479 217.255 176.386 217.499 176.199 217.685C176.012 217.865 175.759 217.955 175.439 217.955ZM174.659 229.775V220.195H176.219V229.775H174.659ZM187.316 229.775V224.155C187.316 223.242 187.096 222.549 186.656 222.075C186.223 221.595 185.629 221.355 184.876 221.355C184.303 221.355 183.806 221.512 183.386 221.825C182.966 222.139 182.643 222.589 182.416 223.175C182.189 223.755 182.076 224.449 182.076 225.255H181.476C181.476 224.142 181.623 223.192 181.916 222.405C182.209 221.619 182.636 221.019 183.196 220.605C183.763 220.185 184.449 219.975 185.256 219.975C186.009 219.975 186.653 220.145 187.186 220.485C187.726 220.819 188.139 221.299 188.426 221.925C188.713 222.552 188.856 223.295 188.856 224.155V229.775H187.316ZM180.516 229.775V220.215H181.856L182.076 222.415V229.775H180.516ZM195.526 230.015C195.006 230.015 194.54 229.915 194.126 229.715C193.713 229.515 193.386 229.215 193.146 228.815C192.906 228.415 192.786 227.915 192.786 227.315V217.555H194.326V227.275C194.326 228.262 194.786 228.755 195.706 228.755C195.98 228.755 196.243 228.725 196.496 228.665C196.756 228.605 197.046 228.515 197.366 228.395L197.586 229.515C197.246 229.662 196.906 229.782 196.566 229.875C196.233 229.969 195.886 230.015 195.526 230.015ZM191.246 221.295V220.215H197.346V221.295H191.246ZM213.546 229.775V224.155C213.546 223.242 213.326 222.549 212.886 222.075C212.453 221.595 211.866 221.355 211.126 221.355C210.259 221.355 209.596 221.692 209.136 222.365C208.676 223.032 208.446 223.955 208.446 225.135H207.726C207.726 224.275 207.809 223.522 207.976 222.875C208.149 222.229 208.399 221.692 208.726 221.265C209.053 220.832 209.449 220.509 209.916 220.295C210.383 220.082 210.913 219.975 211.506 219.975C212.259 219.975 212.903 220.145 213.436 220.485C213.976 220.819 214.389 221.299 214.676 221.925C214.963 222.552 215.106 223.295 215.106 224.155V229.775H213.546ZM200.106 229.775V220.215H201.446L201.626 222.135C201.926 221.442 202.346 220.909 202.886 220.535C203.433 220.162 204.086 219.975 204.846 219.975C205.599 219.975 206.243 220.145 206.776 220.485C207.316 220.819 207.729 221.299 208.016 221.925C208.303 222.552 208.446 223.295 208.446 224.155V229.775H206.906V224.155C206.906 223.242 206.686 222.549 206.246 222.075C205.813 221.595 205.219 221.355 204.466 221.355C203.893 221.355 203.396 221.512 202.976 221.825C202.556 222.139 202.233 222.589 202.006 223.175C201.779 223.755 201.666 224.449 201.666 225.255V229.775H200.106ZM222.137 230.015C221.31 230.015 220.57 229.805 219.917 229.385C219.27 228.959 218.757 228.369 218.377 227.615C218.004 226.862 217.817 225.995 217.817 225.015C217.817 223.969 218.004 223.069 218.377 222.315C218.75 221.562 219.26 220.985 219.907 220.585C220.56 220.179 221.304 219.975 222.137 219.975C222.864 219.975 223.484 220.122 223.997 220.415C224.51 220.709 224.924 221.105 225.237 221.605C225.55 222.105 225.767 222.672 225.887 223.305C226.014 223.932 226.05 224.582 225.997 225.255H219.077V224.295H224.967L224.507 224.595C224.527 224.202 224.504 223.809 224.437 223.415C224.377 223.022 224.26 222.662 224.087 222.335C223.914 222.002 223.67 221.735 223.357 221.535C223.044 221.335 222.644 221.235 222.157 221.235C221.544 221.235 221.03 221.392 220.617 221.705C220.204 222.019 219.894 222.432 219.687 222.945C219.48 223.452 219.377 224.002 219.377 224.595V225.235C219.377 225.902 219.477 226.499 219.677 227.025C219.884 227.552 220.19 227.969 220.597 228.275C221.004 228.582 221.517 228.735 222.137 228.735C222.757 228.735 223.267 228.585 223.667 228.285C224.067 227.985 224.31 227.542 224.397 226.955H226.017C225.917 227.589 225.69 228.135 225.337 228.595C224.984 229.049 224.534 229.399 223.987 229.645C223.44 229.892 222.824 230.015 222.137 230.015ZM235.89 229.775V224.155C235.89 223.242 235.67 222.549 235.23 222.075C234.797 221.595 234.204 221.355 233.45 221.355C232.877 221.355 232.38 221.512 231.96 221.825C231.54 222.139 231.217 222.589 230.99 223.175C230.764 223.755 230.65 224.449 230.65 225.255H230.05C230.05 224.142 230.197 223.192 230.49 222.405C230.784 221.619 231.21 221.019 231.77 220.605C232.337 220.185 233.024 219.975 233.83 219.975C234.584 219.975 235.227 220.145 235.76 220.485C236.3 220.819 236.714 221.299 237 221.925C237.287 222.552 237.43 223.295 237.43 224.155V229.775H235.89ZM229.09 229.775V220.215H230.43L230.65 222.415V229.775H229.09ZM244.101 230.015C243.581 230.015 243.114 229.915 242.701 229.715C242.287 229.515 241.961 229.215 241.721 228.815C241.481 228.415 241.361 227.915 241.361 227.315V217.555H242.901V227.275C242.901 228.262 243.361 228.755 244.281 228.755C244.554 228.755 244.817 228.725 245.071 228.665C245.331 228.605 245.621 228.515 245.941 228.395L246.161 229.515C245.821 229.662 245.481 229.782 245.141 229.875C244.807 229.969 244.461 230.015 244.101 230.015ZM239.821 221.295V220.215H245.921V221.295H239.821ZM252.12 230.015C251.193 230.015 250.42 229.885 249.8 229.625C249.18 229.359 248.71 228.995 248.39 228.535C248.07 228.069 247.9 227.535 247.88 226.935H249.38C249.413 227.542 249.657 227.999 250.11 228.305C250.57 228.605 251.193 228.755 251.98 228.755C252.393 228.755 252.773 228.689 253.12 228.555C253.467 228.422 253.743 228.239 253.95 228.005C254.157 227.772 254.26 227.509 254.26 227.215C254.26 226.842 254.123 226.549 253.85 226.335C253.577 226.122 253.14 225.935 252.54 225.775L250.68 225.175C249.873 224.922 249.253 224.575 248.82 224.135C248.393 223.689 248.18 223.155 248.18 222.535C248.18 221.762 248.52 221.142 249.2 220.675C249.88 220.209 250.773 219.975 251.88 219.975C253.053 219.975 253.963 220.215 254.61 220.695C255.257 221.175 255.593 221.775 255.62 222.495H254.08C254.02 222.075 253.807 221.759 253.44 221.545C253.073 221.325 252.553 221.215 251.88 221.215C251.233 221.215 250.727 221.362 250.36 221.655C250 221.942 249.82 222.262 249.82 222.615C249.82 223.275 250.387 223.762 251.52 224.075L253.42 224.715C254.24 224.962 254.867 225.285 255.3 225.685C255.74 226.085 255.96 226.595 255.96 227.215C255.96 227.695 255.803 228.149 255.49 228.575C255.177 229.002 254.733 229.349 254.16 229.615C253.587 229.882 252.907 230.015 252.12 230.015Z" fill="#1B1B1B"/>
</svg>
