<svg width="308" height="314" viewBox="0 0 308 314" fill="none" xmlns="http://www.w3.org/2000/svg">
<path d="M158.983 313.156C241.283 313.156 308 246.47 308 164.209C308 81.9473 241.283 15.2614 158.983 15.2614C76.6838 15.2614 9.9668 81.9473 9.9668 164.209C9.9668 246.47 76.6838 313.156 158.983 313.156Z" fill="#1B1B1B"/>
<path d="M151.128 300.005C233.427 300.005 300.144 233.319 300.144 151.058C300.144 68.7963 233.427 2.11035 151.128 2.11035C68.8283 2.11035 2.11133 68.7963 2.11133 151.058C2.11133 233.319 68.8283 300.005 151.128 300.005Z" fill="#B2D3BE"/>
<path fill-rule="evenodd" clip-rule="evenodd" d="M151.128 4.22071C69.9944 4.22071 4.22268 69.9618 4.22268 151.058C4.22268 232.153 69.9944 297.894 151.128 297.894C232.261 297.894 298.033 232.153 298.033 151.058C298.033 69.9618 232.261 4.22071 151.128 4.22071ZM0 151.058C0 67.6308 67.6623 0 151.128 0C234.594 0 302.256 67.6308 302.256 151.058C302.256 234.484 234.594 302.115 151.128 302.115C67.6623 302.115 0 234.484 0 151.058Z" fill="#1B1B1B"/>
<path d="M97.8193 52.834C100.565 52.6289 103.524 57.4645 109.438 67.1306C113.363 73.5447 116.045 78.8826 121.721 87.1802C125.395 92.5539 126.936 94.2093 129.374 95.3856C131.697 96.5054 133.012 96.2056 143.144 96.8129C148.174 97.1153 150.689 97.2665 152.374 97.4894C158.596 98.3171 160.255 99.3345 164.495 99.2217C164.495 99.2217 168.387 99.15 172.517 97.7303C180.496 94.9832 186.19 86.2961 190.169 80.087C205.782 55.7246 206.933 53.7693 209.548 53.5387C218.604 52.7443 227.303 73.0143 231.028 81.6911C241.547 106.202 242.18 128.064 242.26 131.797C242.503 143.052 242.734 168.132 228.064 195.08C218.704 212.275 206.931 223.52 199.178 229.875C191.305 235.592 176.545 244.63 155.973 248.013C148.979 249.163 125.864 252.2 100.427 241.35C90.9484 237.309 80.2165 232.729 71.5407 221.362C60.1037 206.373 59.9191 189.645 59.9371 183.976C59.9371 183.976 60.0012 163.386 77.2195 134.378C78.9244 131.505 80.0575 129.814 80.0575 129.814C81.7112 127.423 83.211 125.634 84.2775 124.44C86.5516 121.895 87.995 120.773 88.2052 118.649C88.2642 118.059 88.2129 117.29 88.1129 115.75C87.995 113.933 87.8078 112.598 87.7745 112.357C87.413 109.718 86.9977 102.105 86.972 95.7622C86.9438 88.3897 86.9208 82.5522 88.0821 75.6511C88.7692 71.5792 91.8381 53.2875 97.8193 52.8416V52.834Z" fill="#1B1B1B"/>
<path d="M189.551 107.23C193.53 108.836 198.258 111.117 203.252 114.387C209.051 118.182 213.53 122.2 216.83 125.614C217.993 118.321 219.039 107.332 217.447 94.1503C217.15 91.6979 214.804 72.2608 210.412 72.066C208.141 71.9635 206.756 77.0682 202.76 85.3914C198.234 94.8089 193.356 102.117 189.551 107.23Z" fill="white"/>
<path d="M113.512 99.9494C110.249 96.4259 105.888 90.9548 102.526 83.4157C98.186 73.6805 98.0066 66.0927 96.4786 66.1413C94.6762 66.2003 93.1739 76.8068 93.1457 86.4985C93.1149 96.8333 94.8685 105.344 96.4786 111.176C98.9321 109.454 101.463 107.724 104.07 105.995C107.267 103.873 110.418 101.861 113.512 99.9494Z" fill="white"/>
<path d="M165.606 154.917C164.934 156.459 158.076 152.413 149.91 155.488C143.242 158 140.886 163.307 139.786 162.622C138.189 161.628 140.088 148.505 148.841 145.866C157.558 143.239 166.434 153.013 165.606 154.917Z" fill="white"/>
<path d="M99.7473 154.625C98.5885 154.906 97.9604 151.908 93.8712 148.1C89.1564 143.708 85.3697 143.395 85.5389 142.047C85.7876 140.082 94.2967 137.122 98.9346 141.235C103.578 145.353 101.632 154.166 99.7473 154.625Z" fill="white"/>
<path d="M106.644 192.464C103.993 192.843 103.66 195.226 99.1912 199.541C95.5045 203.103 91.6948 206.783 87.4338 206.714C81.8294 206.622 76.4788 200.051 75.3071 193.619C73.9022 185.926 79.7348 179.446 82.9241 175.784C83.3856 175.253 83.7343 174.884 84.0727 174.561C84.0727 174.561 85.1264 173.526 86.4313 172.552C91.6435 168.667 97.5966 166.799 97.5966 166.799C97.5966 166.799 110.049 162.891 121.173 167.232C121.799 167.476 122.386 167.763 122.386 167.763C123.539 168.347 124.183 168.978 130.369 172.106C137.117 175.52 140.463 177.342 142.983 177.934C145.642 178.559 149.844 179.3 155.279 181.516C156.268 181.919 157.294 182.423 158.491 183.115C161.581 184.904 164.349 186.506 165.713 189.778C167.872 194.962 165.083 200.943 162.242 204.259C159.196 207.816 155.504 209 152.105 210.089C149.6 210.891 139.155 214.24 129.515 209.487C127.129 208.311 123.834 205.387 117.248 199.539C111.492 194.429 109.477 192.056 106.647 192.461L106.644 192.464Z" fill="white"/>
<path d="M100.304 207.132C100.927 205.835 103.629 206.007 108.298 206.299C112.225 206.545 116.581 206.819 118.05 209.63C118.735 210.942 118.512 212.267 118.45 212.593C117.953 215.301 115.097 217.028 113.174 217.497C106.872 219.03 98.9938 209.856 100.306 207.134L100.304 207.132Z" fill="white"/>
<path d="M98.8296 169.826C100.463 166.994 104.865 166.933 109.692 166.863C114.276 166.799 117.358 166.815 119.691 169.054C120.247 169.59 121.901 171.197 121.719 173.108C121.493 175.476 118.735 175.871 114.097 179.956C110.538 183.09 110.749 184.061 109.159 184.366C105.383 185.091 98.7193 179.625 98.2963 173.293C98.2245 172.209 98.1425 171.012 98.8296 169.823V169.826Z" fill="#1B1B1B"/>
<path d="M117.286 151.058C114.835 150.045 120.26 139.072 114.971 132.038C110.184 125.67 100.193 127.285 100.16 125.614C100.116 123.418 117.337 118.869 137.006 121.952C151.161 124.171 162.506 129.701 162.096 131.482C161.621 133.535 146.357 127.151 133.397 134.721C123.27 140.636 119.709 152.054 117.289 151.055L117.286 151.058Z" fill="white"/>
</svg>
