<svg width="28" height="23" viewBox="0 0 28 23" fill="none" xmlns="http://www.w3.org/2000/svg">
<path d="M11.1714 10.56L14.2571 9L18.3714 11.6L17.8571 13.16C19.0571 14.0267 21.56 15.76 21.9714 15.76C22.3829 15.76 22.8286 17.1467 23 17.84L21.9714 20.96L18.3714 22L13.7429 21.48L9.62857 22L7.57143 21.48L5 18.88L6.54286 16.28L9.11429 13.16L11.1714 10.56Z" fill="#B2D3BE"/>
<path d="M5 9C5 10.1046 4.10457 11 3 11C1.89543 11 1 10.1046 1 9C1 7.89543 1.89543 7 3 7C4.10457 7 5 7.89543 5 9Z" fill="#B2D3BE"/>
<path d="M12 3.5C12 4.88071 10.8807 6 9.5 6C8.11929 6 7 4.88071 7 3.5C7 2.11929 8.11929 1 9.5 1C10.8807 1 12 2.11929 12 3.5Z" fill="#B2D3BE"/>
<path d="M21 3.5C21 4.88071 19.8807 6 18.5 6C17.1193 6 16 4.88071 16 3.5C16 2.11929 17.1193 1 18.5 1C19.8807 1 21 2.11929 21 3.5Z" fill="#B2D3BE"/>
<path d="M27 9.5C27 10.8807 25.8807 12 24.5 12C23.1193 12 22 10.8807 22 9.5C22 8.11929 23.1193 7 24.5 7C25.8807 7 27 8.11929 27 9.5Z" fill="#B2D3BE"/>
<path d="M24.5 5.74435C23.8078 5.74435 23.1311 5.94087 22.5555 6.30907C21.9799 6.67727 21.5313 7.2006 21.2664 7.81289C21.0015 8.42518 20.9322 9.09893 21.0673 9.74893C21.2023 10.3989 21.5356 10.996 22.0251 11.4646C22.5146 11.9333 23.1383 12.2524 23.8172 12.3817C24.4961 12.511 25.1999 12.4446 25.8394 12.191C26.4789 11.9374 27.0256 11.5079 27.4101 10.9569C27.7947 10.4058 28 9.75795 28 9.09521C28 8.20651 27.6313 7.3542 26.9749 6.72579C26.3185 6.09738 25.4283 5.74435 24.5 5.74435ZM24.5 10.5313C24.2033 10.5313 23.9133 10.4471 23.6666 10.2893C23.42 10.1315 23.2277 9.90719 23.1142 9.64478C23.0007 9.38237 22.9709 9.09362 23.0288 8.81505C23.0867 8.53647 23.2296 8.28059 23.4393 8.07975C23.6491 7.87891 23.9164 7.74213 24.2074 7.68672C24.4983 7.63131 24.7999 7.65975 25.074 7.76844C25.3481 7.87714 25.5824 8.0612 25.7472 8.29737C25.912 8.53353 26 8.81118 26 9.09521C26 9.47609 25.842 9.84136 25.5607 10.1107C25.2794 10.38 24.8978 10.5313 24.5 10.5313ZM7 9.09521C7 8.43247 6.79473 7.78462 6.41014 7.23357C6.02556 6.68252 5.47893 6.25303 4.83939 5.99941C4.19985 5.7458 3.49612 5.67944 2.81719 5.80873C2.13825 5.93803 1.51461 6.25716 1.02513 6.72579C0.535644 7.19442 0.202301 7.79149 0.0672531 8.44149C-0.0677952 9.09149 0.00151649 9.76524 0.266423 10.3775C0.53133 10.9898 0.979934 11.5132 1.55551 11.8814C2.13108 12.2496 2.80777 12.4461 3.5 12.4461C4.42826 12.4461 5.3185 12.093 5.97487 11.4646C6.63125 10.8362 7 9.98392 7 9.09521ZM3.5 10.5313C3.20333 10.5313 2.91332 10.4471 2.66665 10.2893C2.41997 10.1315 2.22771 9.90719 2.11418 9.64478C2.00065 9.38237 1.97095 9.09362 2.02882 8.81505C2.0867 8.53647 2.22956 8.28059 2.43934 8.07975C2.64912 7.87891 2.91639 7.74213 3.20737 7.68672C3.49834 7.63131 3.79994 7.65975 4.07403 7.76844C4.34812 7.87714 4.58238 8.0612 4.74721 8.29737C4.91203 8.53353 5 8.81118 5 9.09521C5 9.47609 4.84197 9.84136 4.56066 10.1107C4.27936 10.38 3.89783 10.5313 3.5 10.5313ZM9.5 6.70174C10.1922 6.70174 10.8689 6.50521 11.4445 6.13701C12.0201 5.76882 12.4687 5.24548 12.7336 4.63319C12.9985 4.0209 13.0678 3.34715 12.9327 2.69715C12.7977 2.04714 12.4644 1.45008 11.9749 0.981448C11.4854 0.512821 10.8618 0.193681 10.1828 0.0643875C9.50388 -0.0649065 8.80015 0.00145188 8.16061 0.255071C7.52107 0.50869 6.97444 0.938179 6.58986 1.48923C6.20527 2.04027 6 2.68813 6 3.35087C6 4.23957 6.36875 5.09188 7.02513 5.72029C7.6815 6.3487 8.57174 6.70174 9.5 6.70174ZM9.5 1.91478C9.79667 1.91478 10.0867 1.99901 10.3334 2.15681C10.58 2.31461 10.7723 2.53889 10.8858 2.8013C10.9994 3.06371 11.0291 3.35246 10.9712 3.63104C10.9133 3.90961 10.7704 4.16549 10.5607 4.36634C10.3509 4.56718 10.0836 4.70395 9.79264 4.75936C9.50167 4.81477 9.20006 4.78633 8.92598 4.67764C8.65189 4.56895 8.41762 4.38488 8.2528 4.14871C8.08797 3.91255 8 3.6349 8 3.35087C8 2.97 8.15804 2.60472 8.43934 2.3354C8.72065 2.06608 9.10218 1.91478 9.5 1.91478ZM18.5 6.70174C19.1922 6.70174 19.8689 6.50521 20.4445 6.13701C21.0201 5.76882 21.4687 5.24548 21.7336 4.63319C21.9985 4.0209 22.0678 3.34715 21.9327 2.69715C21.7977 2.04714 21.4644 1.45008 20.9749 0.981448C20.4854 0.512821 19.8617 0.193681 19.1828 0.0643875C18.5039 -0.0649065 17.8001 0.00145188 17.1606 0.255071C16.5211 0.50869 15.9744 0.938179 15.5899 1.48923C15.2053 2.04027 15 2.68813 15 3.35087C15 4.23957 15.3687 5.09188 16.0251 5.72029C16.6815 6.3487 17.5717 6.70174 18.5 6.70174ZM18.5 1.91478C18.7967 1.91478 19.0867 1.99901 19.3334 2.15681C19.58 2.31461 19.7723 2.53889 19.8858 2.8013C19.9993 3.06371 20.0291 3.35246 19.9712 3.63104C19.9133 3.90961 19.7704 4.16549 19.5607 4.36634C19.3509 4.56718 19.0836 4.70395 18.7926 4.75936C18.5017 4.81477 18.2001 4.78633 17.926 4.67764C17.6519 4.56895 17.4176 4.38488 17.2528 4.14871C17.088 3.91255 17 3.6349 17 3.35087C17 2.97 17.158 2.60472 17.4393 2.3354C17.7206 2.06608 18.1022 1.91478 18.5 1.91478ZM21.39 13.9851C20.8821 13.7168 20.4344 13.3553 20.0725 12.9212C19.7107 12.487 19.4418 11.9889 19.2812 11.4552C18.9488 10.3605 18.2541 9.39863 17.3018 8.71422C16.3494 8.02981 15.1908 7.6598 14 7.6598C12.8092 7.6598 11.6506 8.02981 10.6982 8.71422C9.74586 9.39863 9.05125 10.3605 8.71875 11.4552C8.39757 12.5291 7.6446 13.4372 6.625 13.9803C5.6469 14.487 4.87316 15.2914 4.42616 16.2664C3.97916 17.2413 3.88441 18.3311 4.15691 19.3633C4.4294 20.3956 5.05358 21.3114 5.93072 21.966C6.80786 22.6205 7.88789 22.9764 9 22.9774C9.66645 22.9792 10.3264 22.8518 10.94 22.6028C12.8963 21.8304 15.0924 21.8304 17.0487 22.6028C18.2337 23.0962 19.5721 23.1312 20.7835 22.7006C21.9948 22.2699 22.985 21.407 23.5464 20.2928C24.1078 19.1785 24.1968 17.8995 23.7948 16.7238C23.3928 15.5481 22.5309 14.567 21.39 13.9863V13.9851ZM19 21.0626C18.594 21.0629 18.1921 20.9844 17.8188 20.8316C15.3695 19.8631 12.6192 19.8631 10.17 20.8316C9.45825 21.125 8.65552 21.1434 7.92996 20.8828C7.2044 20.6222 6.6123 20.103 6.27769 19.4338C5.94308 18.7646 5.89191 17.9974 6.1349 17.293C6.3779 16.5885 6.8962 16.0013 7.58125 15.6545C8.3178 15.2651 8.96695 14.7405 9.49158 14.1107C10.0162 13.4809 10.406 12.7583 10.6388 11.9841C10.8501 11.2871 11.2921 10.6747 11.8982 10.2389C12.5044 9.80303 13.2419 9.5674 14 9.5674C14.7581 9.5674 15.4956 9.80303 16.1018 10.2389C16.7079 10.6747 17.1499 11.2871 17.3612 11.9841C17.5947 12.7597 17.9858 13.4836 18.5119 14.1142C19.0381 14.7449 19.689 15.2699 20.4275 15.6593C21.0173 15.9622 21.4844 16.4451 21.7545 17.0314C22.0245 17.6177 22.0821 18.2735 21.918 18.8947C21.7539 19.5159 21.3775 20.0667 20.8488 20.4596C20.32 20.8524 19.6693 21.0646 19 21.0626Z" fill="#1B1B1B"/>
</svg>
