<svg width="1236" height="976" viewBox="0 0 1236 976" fill="none" xmlns="http://www.w3.org/2000/svg">
<path d="M937.128 367.183C972.193 417.208 970.461 486.272 938.829 557.741C907.211 629.179 845.809 702.755 762.067 761.454C678.325 820.153 588.217 852.778 510.278 858.134C432.306 863.492 366.793 841.564 331.728 791.539C296.663 741.513 298.395 672.45 330.027 600.981C361.645 529.543 423.047 455.966 506.789 397.267C590.531 338.568 680.639 305.944 758.578 300.588C836.55 295.23 902.063 317.158 937.128 367.183Z" fill="#F2F4D1" stroke="#1B1B1B" stroke-width="3"/>
<path d="M435.75 671.976C435.75 671.976 419.482 677.575 464.018 679.442C508.553 681.308 744.032 682.108 768.033 679.442C792.301 676.776 839.503 678.375 776.833 671.976C714.164 665.578 649.894 669.577 586.957 665.578C524.021 661.579 445.084 665.578 435.75 671.976Z" fill="#1B1B1B"/>
<path d="M741.898 485.346C741.898 485.346 761.633 480.281 762.699 458.418C762.699 458.418 783.5 469.35 784.3 497.877C785.1 526.405 762.966 538.669 762.966 538.669C762.966 538.669 732.831 519.74 741.898 485.346Z" fill="#B2D3BE"/>
<mask id="mask0_685_1788" style="mask-type:luminance" maskUnits="userSpaceOnUse" x="740" y="458" width="45" height="81">
<path d="M741.898 485.346C741.898 485.346 761.633 480.281 762.699 458.418C762.699 458.418 783.5 469.35 784.3 497.877C785.1 526.405 762.966 538.669 762.966 538.669C762.966 538.669 732.831 519.74 741.898 485.346Z" fill="white"/>
</mask>
<g mask="url(#mask0_685_1788)">
<g opacity="0.62">
<path d="M758.432 514.674C758.699 514.674 758.966 514.674 759.232 514.674C759.232 514.407 759.232 514.407 758.432 514.674Z" fill="#1B1B1B"/>
<path d="M755.499 503.743L754.699 504.276C754.966 504.009 755.232 504.009 755.499 503.743Z" fill="#1B1B1B"/>
<path d="M768.833 510.941C769.1 510.941 769.1 510.675 769.366 510.675C769.1 510.941 769.1 510.941 768.833 510.941Z" fill="#1B1B1B"/>
<path d="M752.566 500.277C752.299 500.277 752.299 500.277 752.032 500.277C752.032 500.543 752.299 500.543 752.566 500.277Z" fill="#1B1B1B"/>
<path d="M759.766 521.606C762.699 521.073 760.032 521.873 762.966 521.606C762.166 521.339 761.899 521.339 763.233 521.073C764.833 521.073 763.233 521.606 765.633 521.339L764.566 521.073C765.899 520.806 767.766 520.806 767.5 520.539C764.033 520.806 768.566 519.206 768.033 518.94H768.3L769.9 518.14C769.9 518.14 769.9 518.14 770.166 518.14C769.9 518.14 769.9 518.14 769.633 518.14C771.233 517.607 772.3 517.073 771.766 516.54C769.9 516.807 770.7 515.207 769.1 515.474C769.633 515.474 769.633 515.74 769.366 516.007L766.966 516.54C766.966 516.007 769.1 516.007 767.5 516.007C764.299 516.807 767.5 516.54 767.233 516.807C766.433 516.807 765.899 516.807 765.366 516.807C765.366 517.34 764.299 518.14 767.766 517.873C767.233 518.14 765.899 518.407 765.366 518.14C767.233 518.14 763.766 518.673 765.366 518.673C762.433 518.94 763.766 518.14 761.899 518.14C764.033 517.073 761.899 517.073 761.099 516.54C763.233 516.007 765.099 516.007 766.433 515.474C767.766 514.674 765.099 515.207 763.766 515.207C764.299 514.674 767.233 514.141 767.233 513.607H768.833C771.766 512.274 767.5 513.608 768.033 513.074C767.233 513.341 766.433 513.608 766.7 513.874C765.633 514.141 765.099 514.141 764.833 513.874C763.233 514.141 761.899 514.674 762.433 513.874C764.299 513.608 763.766 513.074 764.566 512.808H765.099C764.299 512.808 764.566 512.274 764.299 512.274H764.833C764.033 512.274 761.899 512.808 762.166 512.541C762.966 512.274 765.633 511.741 765.099 511.741C766.433 511.475 766.699 511.741 766.433 512.274C766.699 511.741 768.833 510.941 769.1 511.208C770.7 510.675 768.3 510.941 768.833 510.675C768.3 510.941 767.766 510.941 767.233 511.208C769.366 510.408 767.233 510.408 765.633 510.941H766.966C765.099 511.475 763.766 511.475 762.966 512.008C765.633 510.941 761.366 511.475 763.499 510.408L762.166 511.208C762.699 510.142 759.232 510.675 758.432 510.408C759.499 510.142 762.433 509.075 761.633 509.875C761.899 509.075 764.566 508.542 765.899 507.475C766.699 506.409 762.966 508.275 761.899 508.542L762.699 508.808C758.966 509.875 762.699 507.209 760.299 507.475C761.099 506.942 760.833 507.475 761.366 507.209C762.966 506.142 760.833 506.942 760.033 507.209C760.299 506.676 760.832 505.876 762.966 505.076C763.233 504.543 761.633 505.876 760.833 505.876L761.366 505.609L758.699 506.409C759.232 505.876 760.032 504.809 762.166 503.476C761.366 502.943 757.366 505.876 756.299 505.876C757.099 505.076 757.899 505.076 758.699 504.543L758.166 504.276C760.566 503.21 759.766 504.009 762.433 502.676C759.499 503.743 761.366 502.676 759.232 503.21L758.966 503.476C757.099 504.276 757.899 502.943 757.366 502.943C758.432 502.41 758.966 502.676 759.499 502.676C760.299 501.877 758.699 501.343 756.299 502.676C756.566 502.143 757.099 501.343 758.432 500.81C758.432 500.01 754.966 502.676 755.232 501.877L756.832 500.543C758.699 498.144 753.632 501.077 755.499 498.677L753.366 500.277C754.166 499.477 754.432 498.944 754.966 498.144L755.766 497.877C757.366 496.278 753.899 498.944 754.966 497.611C754.432 498.144 753.099 499.477 752.565 500.01C754.699 500.277 752.565 503.476 755.499 503.21C755.766 502.943 756.032 502.676 756.299 502.41C755.766 502.943 756.566 502.676 755.499 503.476H755.232C756.032 503.476 753.365 505.342 753.632 505.609C755.232 504.809 753.366 506.676 755.766 504.809L754.166 505.876C755.232 505.342 756.299 504.543 756.832 504.543C756.832 504.809 755.766 505.609 754.966 505.609C754.432 506.942 755.232 507.742 756.566 508.275L755.232 508.542C754.699 509.075 757.899 508.275 754.432 509.608C756.032 509.342 753.899 511.208 757.366 509.608C754.166 511.475 756.299 511.208 757.099 511.741C760.032 510.408 758.166 512.008 759.499 511.475C757.099 512.274 756.832 511.741 755.499 512.541C759.232 511.741 753.365 515.207 759.499 513.341C759.232 513.608 758.966 513.607 758.699 513.607C758.699 513.607 757.632 514.141 757.632 514.407C758.699 514.141 759.232 513.608 759.499 513.874C759.232 514.141 757.632 514.674 756.832 514.941C758.432 514.941 759.232 515.474 761.633 514.941C761.099 515.207 759.766 515.74 759.232 515.74C761.366 516.007 758.966 516.54 760.299 517.073C760.032 516.807 757.632 517.607 758.699 516.807C755.232 517.873 759.499 517.873 757.899 518.673L760.299 518.407C760.832 518.673 758.699 519.206 757.632 518.94C756.299 519.74 757.632 519.74 757.899 520.273C757.632 520.273 757.099 520.273 757.366 520.273V520.806C757.899 520.806 759.232 520.806 760.566 520.806C759.766 522.139 758.966 522.139 759.766 521.606Z" fill="#1B1B1B"/>
<path d="M769.366 513.074C768.833 513.341 768.566 513.341 768.566 513.607C768.833 513.341 769.1 513.074 769.366 513.074Z" fill="#1B1B1B"/>
<path d="M765.366 528.805C768.833 528.805 764.833 528.271 765.633 528.005C766.166 528.271 768.3 528.271 769.1 528.271C764.566 527.738 769.9 527.738 769.1 526.938C770.7 526.938 770.7 527.205 772.3 527.471C771.233 526.938 770.433 526.405 768.033 526.138C768.033 525.339 768.833 524.805 768.3 524.539C769.366 525.072 770.7 524.539 773.1 524.805C770.166 524.272 766.699 523.206 762.966 522.939C765.633 522.672 765.899 522.406 768.566 522.406C770.166 521.339 765.899 522.406 766.7 521.606L766.166 522.139C765.366 521.873 762.699 522.139 760.833 522.139L761.366 522.939C759.499 523.206 759.766 522.672 759.232 522.406C756.832 522.406 757.632 522.939 755.766 523.206C757.366 523.206 756.832 523.472 757.632 523.739H756.566C755.499 524.272 758.166 524.272 758.166 524.539C757.899 524.539 757.632 524.539 757.366 524.539C758.432 524.539 760.032 524.539 760.299 524.805V524.539C762.699 524.805 764.299 525.339 766.966 524.805L766.166 525.872C763.499 525.872 759.499 525.872 758.966 525.339H757.899C756.299 525.605 760.032 526.138 762.166 525.872C768.566 526.138 762.433 527.205 765.099 528.005C763.233 528.005 762.699 527.738 761.366 527.471C761.099 527.205 761.099 527.205 762.699 527.205C761.633 526.405 757.099 527.471 757.632 526.405C758.432 525.872 760.566 526.938 760.566 526.138L755.766 525.872C756.032 526.138 756.832 526.405 757.366 526.938C758.966 527.738 758.966 528.538 758.699 529.071C758.432 529.604 757.632 529.871 757.632 529.871C757.899 532.271 758.166 534.937 757.899 537.603C758.432 538.669 758.166 538.669 762.433 540.536C763.499 540.802 763.233 540.002 764.833 540.802C763.233 540.269 762.433 539.469 762.699 539.202C764.299 539.736 763.499 539.736 763.766 539.736H764.033C764.833 540.002 765.366 540.269 765.366 540.536C768.033 540.802 767.766 539.469 764.566 538.136C766.433 538.136 767.233 539.202 768.3 539.736C769.9 538.403 769.9 537.07 770.433 535.47C767.5 534.937 768.566 534.937 766.433 534.403H767.5C766.966 534.403 764.833 533.87 764.299 534.137C766.966 533.604 760.299 532.537 758.966 531.737L760.566 532.004C760.299 531.471 760.299 531.471 759.499 530.937C762.699 530.404 760.033 531.737 763.766 531.737L763.233 531.471C764.833 531.737 767.5 532.271 768.566 532.537C766.166 531.471 769.633 531.471 767.766 530.404C769.633 530.671 770.966 531.471 770.966 531.737C771.233 531.471 769.9 530.671 771.5 530.937L769.366 530.671C769.1 530.138 771.5 530.937 772.833 530.671C773.633 529.071 766.7 529.871 765.366 528.805Z" fill="#1B1B1B"/>
<path d="M765.633 516.54C765.366 516.807 765.633 516.807 765.9 516.807C765.9 516.807 765.9 516.54 765.633 516.54Z" fill="#1B1B1B"/>
<path d="M773.366 517.873C772.3 518.14 772.3 517.873 770.966 518.14C771.766 518.14 771.766 518.673 773.366 517.873Z" fill="#1B1B1B"/>
<path d="M749.365 481.614C748.832 482.147 748.299 482.414 748.032 482.947L748.832 482.68L749.365 481.614Z" fill="#1B1B1B"/>
<path d="M748.565 484.28L748.299 485.346L750.432 483.214C750.165 482.68 749.099 484.547 748.565 484.28Z" fill="#1B1B1B"/>
<path d="M748.565 486.413L748.032 486.946C748.299 486.679 748.565 486.413 748.565 486.413Z" fill="#1B1B1B"/>
<path d="M749.365 485.346L750.965 483.747L749.365 484.546V485.346C748.832 485.613 748.832 486.146 748.565 486.413L749.632 485.346C749.632 485.346 749.365 485.613 749.365 485.346Z" fill="#1B1B1B"/>
<path d="M749.899 485.613C749.899 485.346 750.165 485.346 750.165 485.08C750.165 485.346 749.899 485.613 749.899 485.613Z" fill="#1B1B1B"/>
<path d="M748.299 489.612C748.832 488.812 749.632 488.279 750.432 487.479C750.699 486.413 748.565 489.079 748.832 488.012C750.432 487.212 749.365 486.946 750.165 485.879C748.832 487.212 748.032 488.546 748.299 489.612L749.099 488.279C749.099 488.546 748.565 489.079 748.299 489.612Z" fill="#1B1B1B"/>
<path d="M752.299 488.546L750.699 489.879C751.232 489.079 750.965 488.813 752.299 487.213C752.032 487.213 751.232 488.013 750.699 488.279C751.232 487.479 751.766 486.68 750.699 487.746C750.432 489.346 749.899 489.612 750.165 490.679C749.899 490.945 749.899 490.945 749.899 490.679L749.632 491.745C750.965 489.879 751.766 490.146 752.299 488.546Z" fill="#1B1B1B"/>
<path d="M751.765 490.412C751.499 490.145 749.899 491.478 749.099 492.545L750.699 492.012C750.699 491.745 750.432 491.745 751.765 490.412Z" fill="#1B1B1B"/>
<path d="M752.299 490.678C751.765 491.478 750.165 493.345 751.765 492.012C751.232 492.012 753.632 489.879 752.299 490.678Z" fill="#1B1B1B"/>
<path d="M752.832 494.144L753.366 492.545C755.232 490.412 754.166 492.278 755.232 491.478C755.232 490.678 754.699 491.478 753.099 492.278C753.099 492.012 751.765 492.811 751.232 493.078C753.365 492.545 748.832 497.077 752.832 494.144Z" fill="#1B1B1B"/>
<path d="M753.632 491.212L752.832 492.012L753.632 491.479V491.212Z" fill="#1B1B1B"/>
<path d="M752.032 497.611C749.899 500.01 753.899 497.077 753.366 498.41C753.099 498.41 753.099 498.677 752.566 498.944H753.099L752.566 499.477C753.899 498.144 754.966 498.144 756.299 497.344C757.632 495.744 754.432 498.677 755.766 496.811C756.566 496.277 757.633 495.478 758.166 495.211C757.366 495.478 756.299 496.277 755.499 496.811C755.232 496.811 756.032 496.011 756.566 495.478C755.499 496.011 753.366 497.877 753.632 497.077C754.699 495.744 755.766 495.478 754.966 495.478C752.832 497.611 754.966 494.678 753.366 496.011C753.632 495.211 754.699 493.878 755.499 493.078C753.632 494.678 752.032 495.744 751.232 496.011L753.099 495.211L751.232 497.344C752.032 496.544 752.032 497.077 752.032 497.611Z" fill="#1B1B1B"/>
<path d="M757.899 495.211C758.166 495.211 758.166 494.944 758.433 494.944C758.433 494.944 758.166 494.944 757.899 495.211Z" fill="#1B1B1B"/>
<path d="M755.499 492.545L756.032 492.278L756.566 491.479L755.499 492.545Z" fill="#1B1B1B"/>
<path d="M759.766 494.145C759.766 493.878 758.966 494.678 758.966 494.678L760.033 493.878L759.766 494.145Z" fill="#1B1B1B"/>
<path d="M758.432 495.744L757.366 496.811L758.432 496.277V495.744Z" fill="#1B1B1B"/>
<path d="M762.699 504.809C763.499 504.009 761.633 505.076 760.566 505.609C760.566 506.409 762.166 504.809 762.699 504.809Z" fill="#1B1B1B"/>
<path d="M767.5 509.875C768.566 509.075 766.7 509.342 766.7 509.075C765.9 509.608 766.7 509.875 767.5 509.875Z" fill="#1B1B1B"/>
<path d="M774.7 510.675C774.166 510.675 773.633 510.675 773.633 510.941L770.166 511.475C769.1 512.541 773.366 511.208 774.7 510.675Z" fill="#1B1B1B"/>
<path d="M776.033 514.141L774.7 513.874V514.141C773.367 514.407 772.566 514.407 771.5 514.407C772.3 514.674 773.633 514.674 776.033 514.141Z" fill="#1B1B1B"/>
<path d="M770.7 514.14C771.5 514.14 771.766 513.874 770.7 514.14V514.14Z" fill="#1B1B1B"/>
<path d="M770.966 514.407C771.233 514.407 771.233 514.407 771.233 514.407C771.233 514.407 771.233 514.14 770.966 514.407C770.7 514.407 770.433 514.407 770.966 514.407Z" fill="#1B1B1B"/>
<path d="M774.433 514.941L774.967 515.74L775.5 515.207C773.633 515.474 776.833 514.407 774.433 514.941Z" fill="#1B1B1B"/>
<path d="M773.633 520.006L771.5 520.273C771.233 520.806 775.5 521.073 772.3 521.873C773.633 521.606 774.7 522.139 775.233 521.339C773.366 521.339 773.1 520.54 773.633 520.006Z" fill="#1B1B1B"/>
<path d="M770.966 522.672C770.433 522.672 769.9 522.672 769.366 522.939C769.1 523.206 770.166 523.206 770.966 523.206C768.033 523.206 772.567 522.672 770.966 522.672Z" fill="#1B1B1B"/>
<path d="M771.233 525.338C771.233 525.072 770.966 525.072 770.433 525.338C770.7 525.872 772.833 525.605 774.167 525.872C775.5 525.072 772.3 524.805 771.233 525.338Z" fill="#1B1B1B"/>
<path d="M756.032 528.538C757.899 528.538 757.633 528.271 756.832 528.271C757.366 528.271 756.833 528.538 756.032 528.538Z" fill="#1B1B1B"/>
<path d="M770.7 529.337L770.966 529.071L768.3 528.804L770.7 529.337Z" fill="#1B1B1B"/>
<path d="M771.766 532.271L773.633 532.804L773.366 532.271H771.766Z" fill="#1B1B1B"/>
<path d="M771.233 532.804V533.337H772.033C772.567 533.07 771.233 533.07 771.233 532.804Z" fill="#1B1B1B"/>
<path d="M771.5 534.403C771.233 534.403 771.766 534.403 772.033 534.403L770.966 533.87L771.5 534.403Z" fill="#1B1B1B"/>
<path d="M759.232 538.936C757.632 538.402 758.432 538.936 758.166 538.669C758.432 538.936 760.833 539.469 759.232 538.936Z" fill="#1B1B1B"/>
</g>
</g>
<path d="M453.617 380.034C453.617 380.034 449.351 494.945 459.218 623.986C459.218 623.986 442.684 644.515 452.284 671.976C452.284 671.976 511.754 671.976 519.487 671.976C519.487 671.976 535.488 641.849 538.155 600.524H590.958C590.958 600.524 610.692 628.785 624.559 652.513C628.826 659.712 630.96 669.31 634.16 671.976C634.16 671.976 748.565 671.976 750.432 671.976C752.299 671.976 772.033 605.323 767.766 547.468C767.5 544.535 767.233 541.602 766.966 538.669C765.366 526.405 762.433 516.274 758.699 507.209C754.966 498.677 750.699 491.212 745.365 484.28C733.098 467.75 717.097 455.219 701.096 439.756C677.362 416.827 658.961 370.17 658.961 370.17C658.961 370.17 666.428 354.706 586.157 350.973C505.887 347.507 457.618 358.972 453.617 380.034Z" fill="#B2D3BE"/>
<path d="M590.958 600.524L583.224 588.793" stroke="#1B1B1B" stroke-width="1.2604" stroke-miterlimit="10" stroke-linecap="round" stroke-linejoin="round"/>
<path d="M641.36 490.146C625.626 522.406 608.558 525.872 608.558 525.872C588.557 549.867 579.224 550.401 579.224 550.401C568.556 564.531 548.022 578.662 548.022 578.662C532.555 572.796 517.621 548.801 517.621 548.801C504.287 546.401 492.553 519.473 492.553 519.473C466.685 504.81 455.751 466.417 452.284 450.154C452.017 407.496 453.084 380.301 453.084 380.301C457.351 359.505 505.353 347.774 585.624 351.507C665.895 355.239 658.428 370.703 658.428 370.703C658.428 370.703 661.361 377.902 666.161 388.033C684.029 456.819 641.36 490.146 641.36 490.146Z" fill="white"/>
<path d="M658.694 370.17C663.228 381.901 660.828 395.231 652.027 404.296C630.426 426.692 586.957 462.951 536.555 455.753C510.154 452.02 490.686 441.622 477.085 430.958C461.351 418.693 452.817 399.764 453.351 379.768C457.618 358.972 505.62 347.241 585.891 350.974C666.161 354.706 658.694 370.17 658.694 370.17Z" fill="#DC7E7E"/>
<path d="M562.423 446.421C562.423 433.624 552.022 423.492 539.488 423.492C526.954 423.492 516.554 433.89 516.554 446.421C516.554 452.286 518.687 457.619 522.421 461.618C526.688 466.417 532.821 469.35 539.488 469.35C552.022 469.35 562.423 459.218 562.423 446.421Z" fill="#F2F4D1"/>
<path d="M522.154 461.618C526.421 466.417 532.555 469.35 539.222 469.35C552.022 469.35 562.156 458.952 562.156 446.421" stroke="#1B1B1B" stroke-width="1.2604" stroke-miterlimit="10" stroke-linecap="round" stroke-linejoin="round"/>
<path d="M594.158 222.732C594.158 222.732 620.559 175.808 630.426 141.415C632.293 135.016 640.027 132.883 645.094 137.416C664.294 155.279 696.563 201.136 652.294 283.52C652.561 283.52 591.224 260.591 594.158 222.732Z" fill="#B2D3BE"/>
<path d="M650.694 267.257C646.694 258.725 641.627 250.193 634.426 242.995C626.426 234.996 624.559 222.732 628.826 212.334C636.293 194.738 642.693 173.675 645.627 163.544C646.427 160.878 649.894 160.345 651.494 162.744C682.162 206.735 650.694 267.257 650.694 267.257Z" fill="white"/>
<path d="M650.694 267.257C648.027 272.855 604.025 255.259 618.425 233.397C618.692 232.863 619.226 232.064 619.759 231.53C634.96 240.062 644.293 253.393 650.694 267.257Z" fill="#F2F4D1"/>
<path d="M676.562 345.908C659.494 377.635 628.293 401.097 600.025 417.36C562.156 438.956 514.954 435.223 481.352 407.495C436.283 370.436 424.549 332.844 428.816 329.911C430.683 328.578 433.883 322.446 437.35 314.98C437.35 314.98 450.417 313.381 474.418 326.711C498.153 339.776 515.754 329.644 520.287 285.92C525.354 234.197 534.155 220.066 534.155 220.066C542.422 219.266 552.556 218.733 563.223 219.266C563.223 219.266 544.822 292.852 565.89 324.845C580.557 347.241 611.225 332.31 630.16 322.179C648.827 312.314 663.761 311.514 663.761 311.514C664.295 313.114 664.561 314.714 664.828 315.78C668.828 329.911 676.562 345.908 676.562 345.908Z" fill="white"/>
<path d="M520.287 222.199C524.021 221.132 528.554 220.599 534.155 219.799C534.155 219.799 525.354 233.93 520.287 285.653C516.02 329.111 498.42 339.509 474.418 326.445C450.684 313.114 437.35 314.714 437.35 314.714C444.284 298.984 452.284 276.855 452.284 276.855C417.616 199.803 454.151 155.279 475.752 137.149C481.352 132.617 489.886 135.816 490.953 143.015C497.353 184.873 520.287 222.199 520.287 222.199Z" fill="#B2D3BE"/>
<path d="M663.228 311.248C663.228 311.248 648.294 312.048 629.626 321.912C610.959 331.777 580.29 346.974 565.356 324.579C544.555 292.585 562.689 219 562.689 219C578.424 219.533 594.958 221.666 608.292 226.465C611.225 227.531 613.892 228.598 616.559 229.931C617.359 230.464 618.426 230.731 619.226 231.264C634.426 239.795 644.027 253.126 650.161 266.99C652.027 270.723 653.361 274.455 654.694 278.188C659.494 291.518 661.628 303.783 663.228 311.248Z" fill="#B2D3BE"/>
<path d="M545.089 349.907C539.222 354.706 530.954 354.439 525.354 349.373C520.287 344.841 514.687 338.176 514.687 330.711C514.687 322.179 553.889 321.912 554.956 330.711C556.289 338.176 550.689 345.108 545.089 349.907Z" fill="#1B1B1B"/>
<path d="M503.753 310.715C503.753 314.981 500.553 319.78 495.753 319.513C490.686 318.98 488.552 314.447 488.552 310.448C488.552 306.182 492.286 302.983 496.286 302.983C500.553 302.983 503.753 306.449 503.753 310.715Z" fill="#1B1B1B"/>
<path d="M585.624 313.114C585.624 317.38 582.157 321.646 578.157 321.379C573.89 321.379 570.423 316.847 570.69 312.581C570.69 308.315 574.424 305.116 578.424 305.116C582.424 305.382 585.624 308.848 585.624 313.114Z" fill="#1B1B1B"/>
<path d="M479.485 241.395C469.618 249.66 462.151 259.792 457.618 267.257C425.883 208.068 471.485 141.148 473.085 167.277C473.885 180.874 480.552 198.47 486.419 212.068C491.219 222.199 488.286 234.197 479.485 241.395Z" fill="white"/>
<mask id="mask1_685_1788" style="mask-type:luminance" maskUnits="userSpaceOnUse" x="493" y="575" width="46" height="64">
<path d="M538.155 600.524C537.355 614.654 534.688 627.452 532.021 638.383C502.42 619.187 495.219 584.527 493.886 575.995C511.487 602.923 538.155 600.524 538.155 600.524Z" fill="white"/>
</mask>
<g mask="url(#mask1_685_1788)">
<g opacity="0.62">
<path d="M522.154 596.524C522.154 596.791 521.887 597.057 521.887 597.324C521.887 597.324 522.154 597.057 522.154 596.524Z" fill="#1B1B1B"/>
<path d="M512.02 591.725L512.554 590.925C512.554 591.192 512.287 591.458 512.02 591.725Z" fill="#1B1B1B"/>
<path d="M520.021 603.189C520.021 603.456 520.021 603.723 519.754 604.523L520.021 603.189Z" fill="#1B1B1B"/>
<path d="M517.087 606.122C517.087 606.389 516.82 606.389 516.82 606.655C516.82 606.389 516.82 606.389 517.087 606.122Z" fill="#1B1B1B"/>
<path d="M532.021 597.592C532.021 597.324 532.021 597.324 532.021 597.324C532.289 597.324 532.021 597.324 532.021 597.592Z" fill="#1B1B1B"/>
<path d="M531.755 600.523C531.755 600.791 532.022 600.791 531.755 600.523V600.523Z" fill="#1B1B1B"/>
<path d="M532.288 596.258C532.288 596.524 532.288 596.791 532.288 597.058C532.288 596.791 532.021 596.791 532.288 596.258Z" fill="#1B1B1B"/>
<path d="M522.421 596.258C522.421 596.524 522.154 596.524 522.154 596.791C522.421 596.524 522.421 596.258 522.421 596.258Z" fill="#1B1B1B"/>
<path d="M509.353 588.259C509.353 587.993 509.353 587.993 509.353 587.726C509.62 587.726 509.62 587.993 509.353 588.259Z" fill="#1B1B1B"/>
<path d="M528.821 598.924C527.754 601.857 529.088 599.19 528.288 601.857C528.288 601.057 528.288 600.79 527.754 602.123C527.488 603.723 528.288 602.123 527.488 604.523V603.456C526.954 604.523 526.688 606.656 526.421 606.389C527.221 602.923 525.087 607.456 524.821 606.656V606.922L523.754 608.255C523.754 608.255 523.754 608.255 523.754 608.522C523.754 608.255 523.754 608.255 524.021 607.989C523.221 609.588 522.421 610.388 522.154 609.855C522.687 607.989 521.087 608.789 521.354 606.922C521.354 607.456 521.354 607.455 521.887 607.189L522.687 605.056C522.421 605.056 521.887 607.189 521.887 605.589C523.221 602.656 522.421 605.856 522.954 605.589C523.221 604.789 523.221 604.256 523.221 603.723C523.754 603.723 524.554 602.923 524.021 606.122C524.287 605.589 524.821 604.256 524.821 603.99C524.554 605.856 525.621 602.39 525.354 603.99C526.154 601.057 525.087 602.123 525.354 600.524C524.021 602.656 524.287 600.257 524.021 599.724C523.221 601.857 522.687 603.723 522.154 604.789C521.087 605.856 522.154 603.456 522.421 602.123C521.621 602.656 520.821 605.323 520.287 605.323L520.021 606.656C518.42 609.322 520.287 605.323 519.754 605.856C520.287 605.056 520.554 604.523 520.821 604.789C521.354 603.723 521.354 603.19 521.354 603.19C521.887 601.857 522.421 600.257 521.887 600.79C521.354 602.656 521.087 601.857 520.554 602.656V602.923C520.554 602.123 520.287 602.39 520.287 601.857L520.021 602.39C520.287 601.59 521.087 599.457 520.554 599.99C520.021 600.79 519.221 603.19 519.221 602.656C518.687 603.99 518.954 604.256 519.487 603.99C518.954 604.256 517.62 606.122 518.154 606.389C517.354 607.989 518.154 605.589 517.62 606.122C517.887 605.589 518.154 605.056 518.421 604.523C517.354 606.656 517.62 604.256 518.421 602.923L518.154 604.256C519.221 602.656 519.221 601.323 520.021 600.524C518.42 602.923 519.754 598.657 518.421 600.79L519.221 599.457C518.154 599.99 519.221 596.524 519.221 595.458C518.954 596.258 517.087 599.19 518.154 598.391C517.087 598.391 516.287 601.057 515.22 602.123C514.154 602.656 516.554 599.457 517.087 598.391V599.19C518.687 595.724 515.487 598.924 516.02 596.524C515.487 597.324 515.754 597.058 515.754 597.324C514.42 598.657 515.754 596.791 516.02 595.991C515.487 595.991 514.687 596.524 513.354 598.391C512.554 598.657 514.154 597.324 514.42 596.524L514.154 596.791L515.487 594.391C514.687 594.925 513.62 595.458 512.02 597.058C511.753 596.258 515.22 592.792 515.487 591.725C514.42 592.525 514.42 593.058 513.887 593.858L513.62 593.325C512.02 595.458 513.087 594.658 511.22 597.058C512.82 594.391 511.22 595.991 512.287 593.858L512.554 593.592C513.887 591.725 512.287 592.525 512.287 591.992C511.487 593.058 511.753 593.325 511.487 593.858C510.42 594.391 510.42 593.058 512.02 590.659C511.487 590.925 510.42 591.192 509.887 592.259C509.087 591.992 512.554 589.326 511.487 589.326L509.887 590.925C507.22 592.525 510.953 587.993 508.287 589.326L510.153 587.459C509.353 587.993 508.553 588.259 507.753 588.793L507.22 589.592C505.353 590.659 508.553 587.993 507.22 588.793C507.753 588.259 509.353 587.459 509.887 586.926C509.887 589.059 513.354 587.459 512.554 590.392C512.287 590.659 512.02 590.925 511.754 591.192C512.287 590.925 512.02 591.459 513.087 590.392V590.126C513.087 590.925 515.487 588.793 515.487 588.793C514.42 590.126 516.554 588.793 514.42 590.925L515.754 589.592C515.22 590.392 514.154 591.459 513.887 591.992C514.154 591.992 514.954 591.192 515.22 590.392C516.554 590.126 517.354 591.192 517.62 592.525L518.154 591.192C518.687 590.659 517.354 593.592 519.221 590.659C518.687 591.992 520.821 590.392 518.687 593.592C521.087 590.659 520.554 593.058 520.821 593.858C518.954 596.524 520.821 594.925 520.287 596.258C521.621 594.125 521.087 593.858 521.887 592.525C520.554 596.258 524.821 590.925 521.887 596.524C522.154 596.258 522.154 595.991 522.421 595.991C522.421 595.991 523.221 595.191 523.487 594.925C522.954 595.991 522.687 596.258 522.687 596.791C522.954 596.791 523.754 595.191 524.021 594.391C523.754 595.991 524.287 596.791 523.221 599.19C523.754 598.657 524.287 597.324 524.554 596.791C524.554 598.924 525.354 596.791 525.621 598.124C525.354 597.857 526.421 595.724 525.888 596.524C527.488 593.325 526.688 597.591 528.021 595.991L527.488 598.124C527.754 598.657 528.554 596.524 528.554 595.724C529.621 594.658 529.354 595.991 529.888 596.258C529.888 595.991 530.154 595.458 529.888 595.724H530.421C530.421 596.258 530.154 597.591 529.621 598.924C529.354 598.924 529.621 598.124 528.821 598.924Z" fill="#1B1B1B"/>
<path d="M518.954 606.922C519.221 606.389 519.487 606.122 519.487 606.122C519.221 606.655 518.954 606.922 518.954 606.922Z" fill="#1B1B1B"/>
<path d="M534.955 605.855C534.421 609.321 534.688 605.322 534.155 606.122C534.421 606.655 533.888 608.788 533.888 609.588C534.155 605.056 533.355 610.388 532.555 609.321C532.288 610.655 532.555 611.188 532.288 612.787C532.021 611.721 531.488 610.921 531.755 608.255C530.954 607.988 530.421 608.788 529.888 608.255C530.154 609.321 529.354 610.655 529.354 613.054C529.354 610.121 529.088 606.389 529.354 602.656C528.554 605.322 528.554 605.589 527.754 607.988C526.421 609.588 528.288 605.322 527.221 605.855L527.754 605.589C527.754 604.789 528.288 602.123 528.821 600.257L529.621 600.79C530.154 598.923 529.621 599.19 529.621 598.657C530.154 596.524 530.421 597.324 530.954 595.458C530.688 597.057 530.954 596.524 530.954 597.324L531.221 596.257C531.755 595.191 531.488 597.857 531.755 597.857C531.755 597.59 532.021 597.324 532.021 597.324C531.755 598.39 531.755 599.723 531.755 600.257V599.99C531.488 602.39 532.021 603.989 530.954 606.655L532.021 606.122C532.555 603.456 533.088 599.457 532.821 598.924L533.088 597.857C533.621 596.524 533.621 599.99 532.821 602.389C532.021 608.788 534.155 602.923 534.421 605.589C534.688 603.989 534.421 603.189 534.421 601.856C534.155 601.59 534.155 601.59 533.888 602.923C533.355 601.856 534.955 597.59 534.155 597.857C533.621 598.657 534.155 600.79 533.355 600.79L533.888 595.991C534.155 596.257 534.421 597.057 534.688 597.59C535.221 599.19 536.021 599.457 536.555 599.19C537.088 598.923 537.355 598.39 537.355 598.39C539.755 599.19 542.422 599.723 544.822 599.99C545.622 600.523 545.889 600.257 546.955 605.056C546.955 606.122 546.422 605.589 546.689 607.189C546.422 605.322 545.889 604.522 545.355 604.789C545.355 606.655 545.889 605.589 545.889 606.122C546.155 606.922 546.155 607.722 546.422 607.722C546.155 610.388 544.822 609.855 544.288 606.655C544.022 608.522 544.822 609.321 545.089 610.655C543.488 611.988 542.155 611.988 540.555 611.988C540.555 608.788 540.288 610.121 540.288 607.988L540.022 609.055C540.022 608.522 540.022 606.389 540.288 605.855C539.222 608.255 539.488 601.59 538.955 600.257V601.856C538.422 601.59 538.422 601.59 538.155 600.523C537.088 603.456 538.688 601.056 538.155 605.056L537.888 604.522C537.888 606.122 537.888 608.788 538.155 609.855C537.621 607.189 536.821 610.921 536.021 608.788C536.021 610.655 536.555 611.988 536.821 612.254C536.555 612.521 536.021 611.188 535.755 612.787L536.021 610.655C535.488 610.388 535.755 612.787 535.488 614.12C533.888 614.12 536.021 607.189 534.955 605.855Z" fill="#1B1B1B"/>
<path d="M522.954 603.989C523.222 603.989 523.222 603.989 523.222 604.257L522.954 603.989Z" fill="#1B1B1B"/>
<path d="M522.954 611.721C523.487 610.921 523.221 610.655 523.487 609.588C523.487 610.388 524.021 610.388 522.954 611.721Z" fill="#1B1B1B"/>
<path d="M494.153 581.594H495.219L492.819 583.193C492.286 582.66 494.419 582.127 494.153 581.594Z" fill="#1B1B1B"/>
<path d="M496.286 581.86L496.819 581.327C496.553 581.594 496.553 581.86 496.286 581.86Z" fill="#1B1B1B"/>
<path d="M495.219 582.66L493.353 583.993L494.419 582.66H495.219C495.753 582.127 496.019 582.127 496.286 582.127L494.953 583.193C495.219 582.66 495.486 582.394 495.219 582.66Z" fill="#1B1B1B"/>
<path d="M495.219 583.193C494.953 583.193 494.953 583.46 494.686 583.46C494.953 583.193 495.219 583.193 495.219 583.193Z" fill="#1B1B1B"/>
<path d="M499.486 582.127C498.686 582.394 497.886 583.193 497.086 583.727C496.019 583.727 498.953 582.127 497.886 582.127C496.819 583.46 496.553 582.66 495.486 582.927C497.353 582.127 498.686 581.594 499.486 581.594L498.42 582.394C498.153 582.66 498.953 582.127 499.486 582.127Z" fill="#1B1B1B"/>
<path d="M497.886 585.859L499.486 584.526C498.686 585.06 498.419 584.526 496.553 585.593C496.819 585.326 497.353 584.793 497.886 584.26C496.819 584.793 496.019 585.06 497.353 583.993C498.953 583.993 499.22 583.46 500.286 583.993C500.553 583.727 500.553 583.727 500.553 583.727L501.886 583.46C499.22 584.793 499.486 585.593 497.886 585.859Z" fill="#1B1B1B"/>
<path d="M499.486 585.859C499.22 585.326 500.82 584.26 502.153 583.727L501.353 585.326C501.086 585.06 501.086 584.526 499.486 585.859Z" fill="#1B1B1B"/>
<path d="M500.02 586.126C501.086 585.593 503.22 584.526 501.62 585.86C501.353 585.593 498.953 587.459 500.02 586.126Z" fill="#1B1B1B"/>
<path d="M503.22 587.459L501.62 587.726C499.219 589.059 501.086 588.526 500.286 589.592C499.486 589.326 500.286 589.059 501.353 587.726C501.086 587.726 502.153 586.659 502.686 586.126C501.353 587.726 506.953 583.993 503.22 587.459Z" fill="#1B1B1B"/>
<path d="M500.02 587.726L500.82 587.193L500.553 587.993L500.02 587.726Z" fill="#1B1B1B"/>
<path d="M506.687 587.192C509.353 585.593 505.886 589.059 507.22 588.526C507.22 588.259 507.487 588.259 507.753 587.992V588.526L508.287 587.992C506.687 589.325 506.42 590.125 505.62 591.192C503.753 592.258 507.22 589.592 505.353 590.658C504.82 591.192 503.753 592.258 503.22 592.791C503.753 591.992 504.553 591.192 505.353 590.392C505.353 590.125 504.553 590.925 504.02 591.192C504.553 590.125 506.953 588.526 505.886 588.526C504.286 589.325 504.02 590.392 504.02 589.325C506.687 587.726 503.22 589.059 504.82 587.726C504.02 587.726 502.42 588.792 501.62 589.325C503.486 587.992 504.82 586.393 505.353 585.859L504.286 587.726L506.687 586.126C505.62 587.192 506.153 587.192 506.687 587.192Z" fill="#1B1B1B"/>
<path d="M503.22 592.525C503.22 592.792 502.953 592.792 502.953 593.058C502.953 593.058 502.953 592.792 503.22 592.525Z" fill="#1B1B1B"/>
<path d="M501.086 589.859L500.553 590.126L500.02 590.659L501.086 589.859Z" fill="#1B1B1B"/>
<path d="M501.886 594.124C501.886 594.124 502.42 593.591 502.686 593.591L501.886 594.658V594.124Z" fill="#1B1B1B"/>
<path d="M503.753 593.325L505.087 592.525L504.287 593.325H503.753Z" fill="#1B1B1B"/>
<path d="M512.02 599.19C511.22 599.724 512.287 598.391 513.087 597.058C513.887 597.058 512.287 598.391 512.02 599.19Z" fill="#1B1B1B"/>
<path d="M516.02 604.789C514.954 605.589 515.754 603.989 515.487 603.723C516.287 602.923 516.287 603.723 516.02 604.789Z" fill="#1B1B1B"/>
<path d="M515.487 611.721C515.754 611.188 515.754 610.655 516.02 610.655L517.354 607.455C518.421 606.656 516.287 610.388 515.487 611.721Z" fill="#1B1B1B"/>
<path d="M518.687 613.854V612.521H518.954C519.487 611.188 519.487 610.655 519.754 609.588C519.754 610.122 519.754 611.455 518.687 613.854Z" fill="#1B1B1B"/>
<path d="M519.754 608.522C519.221 609.588 519.487 609.055 519.754 608.522V608.522Z" fill="#1B1B1B"/>
<path d="M520.021 609.055C520.021 609.322 520.021 609.322 520.021 609.322C519.754 609.055 519.754 609.055 520.021 609.055C520.021 608.255 519.754 608.522 520.021 609.055Z" fill="#1B1B1B"/>
<path d="M519.754 612.254L520.554 613.054L520.021 613.587C520.554 611.455 518.954 614.387 519.754 612.254Z" fill="#1B1B1B"/>
<path d="M525.087 612.254L525.887 610.388C526.421 610.121 526.154 614.654 527.221 611.454C526.687 612.521 527.221 613.854 526.154 614.12C526.421 612.521 525.621 611.988 525.087 612.254Z" fill="#1B1B1B"/>
<path d="M528.021 610.121C528.021 609.588 528.288 609.055 528.554 608.522C528.821 608.255 528.821 609.322 528.554 610.121C529.088 607.455 527.754 611.721 528.021 610.121Z" fill="#1B1B1B"/>
<path d="M530.688 610.921C530.421 610.921 530.421 610.655 530.688 610.122C531.221 610.388 530.421 612.521 530.421 614.121C529.621 615.187 530.154 611.988 530.688 610.921Z" fill="#1B1B1B"/>
<path d="M536.555 596.524C536.288 598.124 536.021 597.857 536.021 597.324C536.021 597.857 536.288 597.324 536.555 596.524Z" fill="#1B1B1B"/>
<path d="M534.688 611.188L534.421 611.455L534.688 608.789V611.188Z" fill="#1B1B1B"/>
<path d="M537.355 612.788L537.621 614.654L537.088 614.121L537.355 612.788Z" fill="#1B1B1B"/>
</g>
</g>
<path d="M470.685 671.976C470.685 671.976 466.685 650.647 476.285 641.316" stroke="#1B1B1B" stroke-width="1.2604" stroke-miterlimit="10" stroke-linecap="round" stroke-linejoin="round"/>
<path d="M493.886 671.976C493.886 671.976 490.153 661.578 498.42 643.982" stroke="#1B1B1B" stroke-width="1.2604" stroke-miterlimit="10" stroke-linecap="round" stroke-linejoin="round"/>
<path d="M538.155 600.524C538.155 600.524 505.62 603.457 488.552 566.131" stroke="#1B1B1B" stroke-width="1.2604" stroke-miterlimit="10" stroke-linecap="round" stroke-linejoin="round"/>
<path d="M695.763 671.977C695.763 671.977 701.63 658.379 698.963 635.984C696.296 613.588 676.295 523.473 678.695 519.207" stroke="#1B1B1B" stroke-width="1.2604" stroke-miterlimit="10" stroke-linecap="round" stroke-linejoin="round"/>
<path d="M492.819 519.207C492.819 519.207 487.486 506.143 485.886 494.945" stroke="#1B1B1B" stroke-width="1.2604" stroke-miterlimit="10" stroke-linecap="round" stroke-linejoin="round"/>
<path d="M518.154 548.801C518.154 548.801 513.887 541.336 512.02 532.538" stroke="#1B1B1B" stroke-width="1.2604" stroke-miterlimit="10" stroke-linecap="round" stroke-linejoin="round"/>
<path d="M579.49 550.134C579.49 550.134 588.557 539.203 590.157 532.271" stroke="#1B1B1B" stroke-width="1.2604" stroke-miterlimit="10" stroke-linecap="round" stroke-linejoin="round"/>
<path d="M608.558 525.605C608.558 525.605 624.026 506.409 626.426 485.347" stroke="#1B1B1B" stroke-width="1.2604" stroke-miterlimit="10" stroke-linecap="round" stroke-linejoin="round"/>
<path d="M641.36 490.146C641.36 490.146 648.027 477.615 649.361 465.084" stroke="#1B1B1B" stroke-width="1.2604" stroke-miterlimit="10" stroke-linecap="round" stroke-linejoin="round"/>
<path d="M654.961 671.976C654.961 671.976 648.56 662.911 649.894 646.381" stroke="#1B1B1B" stroke-width="1.2604" stroke-miterlimit="10" stroke-linecap="round" stroke-linejoin="round"/>
<path d="M674.162 671.976C674.162 671.976 671.495 657.846 674.162 646.381" stroke="#1B1B1B" stroke-width="1.2604" stroke-miterlimit="10" stroke-linecap="round" stroke-linejoin="round"/>
<path d="M709.363 671.976C709.363 671.976 703.23 658.646 710.43 644.249" stroke="#1B1B1B" stroke-width="1.2604" stroke-miterlimit="10" stroke-linecap="round" stroke-linejoin="round"/>
<path d="M729.631 671.976C729.631 671.976 726.964 656.246 736.298 646.381" stroke="#1B1B1B" stroke-width="1.2604" stroke-miterlimit="10" stroke-linecap="round" stroke-linejoin="round"/>
<path d="M536.021 366.437C536.021 366.437 562.423 379.501 576.29 366.17C580.824 361.905 581.624 350.44 572.823 342.442" stroke="#1B1B1B" stroke-width="1.2604" stroke-miterlimit="10" stroke-linecap="round" stroke-linejoin="round"/>
<path d="M534.955 353.373C534.955 353.373 534.155 357.639 536.021 366.437C536.555 368.837 508.82 378.435 498.153 366.17C494.419 361.905 492.819 353.373 500.82 343.775" stroke="#1B1B1B" stroke-width="1.2604" stroke-miterlimit="10" stroke-linecap="round" stroke-linejoin="round"/>
<path d="M525.354 371.503C525.354 371.503 529.088 373.636 536.555 374.169C544.555 374.702 547.755 371.77 547.755 371.77" stroke="#1B1B1B" stroke-width="1.2604" stroke-miterlimit="10" stroke-linecap="round" stroke-linejoin="round"/>
<path d="M692.829 600.524C692.829 600.524 703.763 600.257 710.43 588.793" stroke="#1B1B1B" stroke-width="1.2604" stroke-miterlimit="10" stroke-linecap="round" stroke-linejoin="round"/>
<path d="M766.7 538.669C765.1 526.405 762.166 516.274 758.433 507.209C754.699 498.677 750.432 491.212 745.099 484.28" stroke="#1B1B1B" stroke-width="1.2604" stroke-miterlimit="10" stroke-linecap="round" stroke-linejoin="round"/>
<mask id="mask2_685_1788" style="mask-type:luminance" maskUnits="userSpaceOnUse" x="692" y="582" width="29" height="54">
<path d="M692.829 600.524C692.829 600.524 698.43 600.524 704.83 595.458C711.23 590.392 713.897 582.394 713.897 582.394C713.897 582.394 723.498 607.456 718.697 619.72C714.164 631.984 698.963 635.717 698.963 635.717L692.829 600.524Z" fill="white"/>
</mask>
<g mask="url(#mask2_685_1788)">
<g opacity="0.62">
<path d="M697.363 599.19C697.63 599.457 697.63 599.724 697.896 599.99C697.896 599.99 697.896 599.724 697.363 599.19Z" fill="#1B1B1B"/>
<path d="M705.63 591.459L704.83 590.926C705.097 591.192 705.363 591.192 705.63 591.459Z" fill="#1B1B1B"/>
<path d="M701.363 604.79C701.363 605.056 701.63 605.323 701.897 605.856L701.363 604.79Z" fill="#1B1B1B"/>
<path d="M705.364 606.922C705.63 606.922 705.63 607.189 705.897 607.189C705.63 606.922 705.364 606.922 705.364 606.922Z" fill="#1B1B1B"/>
<path d="M697.096 598.924C697.364 599.191 697.364 599.191 697.364 599.191L697.096 598.924Z" fill="#1B1B1B"/>
<path d="M707.497 587.459C707.497 587.193 707.497 587.193 707.23 586.926C706.697 587.193 706.964 587.193 707.497 587.459Z" fill="#1B1B1B"/>
<path d="M691.763 603.456C693.629 605.856 691.496 603.723 693.096 606.122C692.829 605.589 692.829 605.056 693.629 606.122C694.429 607.722 693.096 606.122 694.429 608.255L694.163 607.189C694.963 607.989 696.03 609.855 696.03 609.588C694.163 606.656 697.63 610.122 697.63 609.322V609.588L698.963 610.655C698.963 610.655 698.963 610.655 698.963 610.922C698.963 610.655 698.696 610.655 698.696 610.388C700.03 611.721 701.096 612.255 701.096 611.721C700.03 610.122 701.897 610.122 700.83 608.789C701.096 609.322 700.83 609.322 700.296 609.055L698.696 607.189C698.963 606.922 700.03 608.789 699.496 607.455C697.363 605.056 698.963 607.722 698.696 607.722C698.43 607.189 697.896 606.389 697.896 606.122C697.363 606.389 696.296 605.856 697.896 608.522C697.363 607.989 696.563 606.922 696.563 606.656C697.363 608.522 695.23 605.323 696.03 606.922C694.43 604.523 695.763 605.056 694.963 603.723C696.83 605.323 696.03 603.19 696.03 602.39C697.363 603.99 698.43 605.589 699.496 606.656C700.83 607.456 699.23 605.323 698.696 604.256C699.496 604.523 701.096 606.922 701.896 606.656L702.43 607.989C704.83 610.122 701.897 606.922 702.43 607.189C701.897 606.656 701.363 606.122 701.096 606.389C700.296 605.589 700.296 605.056 700.296 604.789C699.496 603.723 698.163 602.39 698.963 602.656C700.03 604.256 700.03 603.456 700.83 603.99L701.096 604.256C700.83 603.723 701.363 603.456 701.096 603.19L701.363 603.456C701.097 602.656 699.496 601.057 700.03 601.323C700.563 601.857 702.163 603.989 702.163 603.456C703.23 604.523 702.963 604.789 702.43 604.789C702.963 604.789 704.83 606.389 704.563 606.656C705.897 607.722 704.297 605.856 705.097 606.122C704.563 605.856 704.297 605.323 704.03 605.056C705.63 606.656 704.83 604.523 703.497 603.456L704.03 604.789C702.697 603.456 702.163 602.39 701.096 601.59C703.497 603.456 700.83 599.99 702.697 601.323L701.363 600.524C702.697 600.524 700.296 597.857 700.296 596.791C700.83 597.591 703.497 599.724 702.163 599.457C703.23 599.19 704.83 601.323 706.163 602.123C707.497 602.39 704.03 599.99 703.23 599.19L703.497 599.99C700.83 597.324 705.097 599.19 703.763 597.324C704.563 597.857 704.03 597.857 704.297 598.124C706.163 598.924 704.297 597.591 703.763 597.058C704.297 597.058 705.097 597.058 706.963 598.657C707.763 598.657 705.63 597.857 705.363 597.324L705.897 597.591L704.03 595.724C704.83 595.991 706.163 596.258 708.03 597.324C708.03 596.258 703.763 594.125 703.23 593.058C704.563 593.325 704.83 594.125 705.363 594.658V594.125C707.497 595.724 706.163 595.458 708.83 597.058C706.43 594.925 708.297 595.991 706.963 594.391H706.697C705.097 593.058 706.697 593.325 706.43 592.792C707.497 593.592 707.497 593.858 707.763 594.391C708.83 594.658 708.564 593.058 706.163 591.459C706.697 591.459 707.763 591.459 708.83 592.525C709.63 591.992 705.363 590.392 706.43 590.126L708.297 591.192C711.23 591.725 706.43 588.793 709.364 589.326L706.963 588.259C708.03 588.526 708.563 588.526 709.63 588.793L710.164 589.592C712.297 590.126 708.563 588.526 709.897 588.793C709.097 588.526 707.497 587.993 706.697 587.726C707.497 589.592 703.497 589.326 705.097 591.725C705.363 591.725 705.63 591.992 706.163 592.259C705.63 591.992 705.897 592.792 704.83 591.992L704.563 591.725C704.83 592.259 701.896 590.925 701.896 591.192C703.23 592.258 700.83 591.459 703.497 592.792L701.896 591.992C702.697 592.525 704.03 593.325 704.563 593.858C704.297 593.858 703.23 593.325 702.697 592.792C701.097 593.058 700.83 594.125 701.096 595.458L700.03 594.391C699.23 594.125 701.63 596.524 698.696 594.125C699.496 595.458 697.096 594.391 700.03 596.791C697.096 594.658 698.163 596.791 698.163 597.591C700.563 599.724 698.43 598.657 699.496 599.724C697.63 598.124 697.896 597.591 696.83 596.524C699.23 599.457 693.629 595.991 697.896 600.524C697.63 600.524 697.363 600.257 697.363 599.99C697.363 599.99 696.296 599.457 696.03 599.457C696.83 600.257 697.363 600.524 697.363 601.057C697.096 601.057 696.03 599.724 695.229 599.19C696.03 600.524 695.763 601.59 697.363 603.456C696.83 602.923 695.763 602.123 695.496 601.59C696.296 603.456 694.696 601.857 694.963 603.19C695.229 602.923 693.363 601.057 694.429 601.59C691.763 598.924 693.896 602.923 692.296 601.857L693.629 603.723C693.629 604.256 692.296 602.656 692.029 601.857C690.696 601.057 691.229 602.39 690.963 602.656C690.696 602.39 690.429 602.123 690.696 602.123L690.163 602.39C690.429 602.923 690.963 603.99 691.763 605.056C691.229 603.723 690.963 602.923 691.763 603.456Z" fill="#1B1B1B"/>
<path d="M703.763 608.255C703.23 607.989 702.963 607.722 702.963 607.722C703.23 607.722 703.497 607.989 703.763 608.255Z" fill="#1B1B1B"/>
<path d="M688.029 611.988C689.629 615.187 688.296 611.188 688.829 611.988C688.829 612.521 689.629 614.387 690.163 615.187C688.563 610.921 690.963 615.72 691.229 614.654C692.029 615.987 691.763 616.254 692.296 617.853C692.296 616.52 692.563 615.72 691.496 613.588C692.029 613.321 693.096 613.587 693.096 613.054C693.096 614.121 694.163 615.187 694.963 617.32C694.163 614.387 693.363 610.921 692.029 607.455C693.629 609.855 693.896 609.855 694.963 612.254C696.83 613.321 693.896 609.855 694.963 610.121L694.429 609.855C694.163 609.055 692.829 606.656 691.763 605.056L691.229 605.856C690.163 604.256 690.696 604.256 690.696 603.723C689.629 601.59 689.363 602.656 688.562 601.057C689.363 602.39 688.829 602.123 689.096 602.923L688.562 602.123C687.762 601.323 688.829 603.723 688.562 603.723C688.296 603.456 688.296 603.19 688.296 603.19C688.829 604.256 689.363 605.589 689.363 605.856V605.589C690.429 607.722 690.429 609.588 692.296 611.721L690.963 611.455C689.896 609.055 688.029 605.322 688.296 604.789L687.762 603.723C686.696 602.656 688.029 606.122 689.096 607.989C691.763 613.854 688.029 608.788 688.562 611.455C687.762 609.855 687.762 609.055 687.496 607.989C687.496 607.722 687.762 607.722 688.296 609.055C688.562 607.722 685.629 604.256 686.696 604.256C687.496 604.789 687.496 606.922 688.296 606.922L686.429 602.39C686.162 602.656 686.162 603.456 686.162 604.256C686.162 606.122 685.362 606.389 684.829 606.389C684.296 606.389 683.762 605.856 683.762 605.856C681.629 607.189 679.495 608.522 677.095 609.588C676.562 610.388 676.295 610.122 676.562 614.921C676.829 615.987 677.362 615.454 677.362 617.053C677.095 615.187 677.362 614.387 677.895 614.387C678.162 615.987 677.629 615.187 677.895 615.72C677.895 616.52 678.162 617.32 677.895 617.32C678.962 619.72 680.029 618.92 679.495 615.72C680.295 617.32 679.762 618.387 679.762 619.986C681.896 620.786 682.962 620.253 684.562 619.986C683.496 617.053 684.029 618.12 683.762 615.987L684.296 617.053C684.029 616.52 683.496 614.387 682.962 613.854C684.562 615.72 682.696 609.588 682.696 608.255L683.229 609.855C683.496 609.322 683.762 609.322 683.762 608.522C685.629 610.921 683.229 609.322 685.096 612.788V611.988C685.629 613.321 686.429 615.987 686.429 617.053C686.162 614.387 688.029 617.587 688.029 615.454C688.563 617.053 688.296 618.653 688.296 618.92C688.562 618.92 688.829 617.587 689.363 619.186L688.562 617.053C688.829 616.52 689.363 618.92 690.163 620.253C691.496 619.186 687.496 613.588 688.029 611.988Z" fill="#1B1B1B"/>
<path d="M698.964 606.389C698.696 606.389 698.697 606.389 698.697 606.657C698.697 606.657 698.964 606.657 698.964 606.389Z" fill="#1B1B1B"/>
<path d="M699.496 611.188C699.763 611.455 699.763 611.721 700.03 611.988C700.03 611.721 699.763 611.455 699.496 611.188Z" fill="#1B1B1B"/>
<path d="M701.363 613.854C700.83 613.054 700.83 613.054 700.03 611.988C700.296 612.788 700.03 613.054 701.363 613.854Z" fill="#1B1B1B"/>
<path d="M715.764 582.661C714.697 582.394 712.297 582.127 714.431 582.927C713.897 582.394 716.831 583.46 715.764 582.661Z" fill="#1B1B1B"/>
<path d="M712.83 584.793L714.43 584.527C717.097 585.327 715.23 585.06 716.297 585.86C717.097 585.327 716.031 585.327 714.697 584.26C714.964 583.994 713.63 583.46 713.097 582.927C714.697 584.527 708.297 582.394 712.83 584.793Z" fill="#1B1B1B"/>
<path d="M716.031 584.26L714.964 583.727L715.764 584.527L716.031 584.26Z" fill="#1B1B1B"/>
<path d="M709.364 585.593C706.164 584.794 710.697 587.193 709.364 586.926C709.097 586.926 708.83 586.66 708.564 586.393V586.926L707.764 586.66C709.63 587.46 710.164 587.993 711.23 588.793C713.364 589.059 709.097 587.726 711.23 588.26C712.031 588.793 713.097 589.326 713.897 589.593C713.097 589.059 712.031 588.526 711.23 587.993C711.23 587.726 712.031 588.259 712.831 588.526C712.031 587.726 709.364 586.66 710.164 586.393C711.764 586.66 712.564 587.46 712.031 586.66C709.097 585.86 712.564 586.393 710.964 585.327C711.764 585.06 713.631 585.593 714.431 585.86C712.297 585.06 710.43 583.994 709.897 583.46L711.497 584.794L708.83 583.994C710.43 585.327 710.164 585.327 709.364 585.593Z" fill="#1B1B1B"/>
<path d="M714.431 589.592C714.697 589.592 714.697 589.859 714.697 589.859C714.964 590.125 714.697 589.859 714.431 589.592Z" fill="#1B1B1B"/>
<path d="M715.764 586.393L716.031 586.66L716.831 586.926L715.764 586.393Z" fill="#1B1B1B"/>
<path d="M716.031 590.926C716.031 590.926 715.23 590.393 715.23 590.659L716.297 591.192L716.031 590.926Z" fill="#1B1B1B"/>
<path d="M714.164 590.659L712.564 590.125L713.63 590.659H714.164Z" fill="#1B1B1B"/>
<path d="M708.03 598.657C709.097 598.924 707.497 597.857 706.43 597.058C705.63 597.058 707.497 597.857 708.03 598.657Z" fill="#1B1B1B"/>
<path d="M705.63 605.056C706.697 605.589 705.63 603.99 705.897 603.99C705.097 603.456 705.363 604.256 705.63 605.056Z" fill="#1B1B1B"/>
<path d="M708.297 611.722C708.03 611.188 707.763 610.922 707.497 610.922L705.363 608.256C704.297 607.722 707.23 610.655 708.297 611.722Z" fill="#1B1B1B"/>
<path d="M705.897 614.387L705.363 613.054H705.097C704.297 611.988 704.03 611.455 703.497 610.388C703.763 611.455 704.297 612.788 705.897 614.387Z" fill="#1B1B1B"/>
<path d="M703.497 609.855V610.122C703.763 610.388 704.03 610.655 703.497 609.855Z" fill="#1B1B1B"/>
<path d="M703.23 610.388C703.23 610.388 703.23 610.655 703.497 610.655C703.497 610.388 703.497 610.388 703.23 610.388C703.23 609.855 702.963 609.855 703.23 610.388Z" fill="#1B1B1B"/>
<path d="M704.563 613.588L704.03 614.388L704.83 614.654C703.497 613.055 705.897 615.454 704.563 613.588Z" fill="#1B1B1B"/>
<path d="M699.497 615.188L698.163 613.588C697.363 613.588 699.23 617.587 697.096 615.188C697.896 615.987 697.896 617.32 698.963 617.587C698.163 615.721 698.696 614.921 699.497 615.188Z" fill="#1B1B1B"/>
<path d="M696.03 613.854C695.763 613.321 695.496 613.054 694.963 612.521C694.696 612.521 694.963 613.321 695.496 614.121C694.163 611.721 696.563 615.454 696.03 613.854Z" fill="#1B1B1B"/>
<path d="M693.63 615.454C693.63 615.454 693.896 614.921 693.363 614.654C693.096 614.921 694.163 617.054 694.696 618.387C695.763 619.187 694.43 616.254 693.63 615.454Z" fill="#1B1B1B"/>
</g>
</g>
<path d="M6.336 59V18.808H19.264C23.68 18.808 27.0507 19.928 29.376 22.168C31.7227 24.3867 32.896 27.4053 32.896 31.224C32.896 35 31.7227 37.9973 29.376 40.216C27.0507 42.4133 23.68 43.512 19.264 43.512H11.392V59H6.336ZM11.392 39.16H19.264C22.0587 39.16 24.1707 38.4453 25.6 37.016C27.0507 35.5867 27.776 33.656 27.776 31.224C27.776 28.7493 27.0507 26.776 25.6 25.304C24.1707 23.832 22.0587 23.096 19.264 23.096H11.392V39.16ZM41.9015 59V15.352H46.8935V59H41.9015ZM70.463 59.768C67.8177 59.768 65.4497 59.096 63.359 57.752C61.2897 56.3867 59.647 54.4987 58.431 52.088C57.2363 49.6773 56.639 46.904 56.639 43.768C56.639 40.4187 57.2363 37.5387 58.431 35.128C59.6257 32.7173 61.2577 30.872 63.327 29.592C65.4177 28.2907 67.7963 27.64 70.463 27.64C72.7883 27.64 74.7723 28.1093 76.415 29.048C78.0577 29.9867 79.3803 31.256 80.383 32.856C81.3857 34.456 82.079 36.2693 82.463 38.296C82.8683 40.3013 82.9857 42.3813 82.815 44.536H60.671V41.464H79.519L78.047 42.424C78.111 41.1653 78.0363 39.9067 77.823 38.648C77.631 37.3893 77.2577 36.2373 76.703 35.192C76.1483 34.1253 75.3697 33.272 74.367 32.632C73.3643 31.992 72.0843 31.672 70.527 31.672C68.5643 31.672 66.9217 32.1733 65.599 33.176C64.2763 34.1787 63.2843 35.5013 62.623 37.144C61.9617 38.7653 61.631 40.5253 61.631 42.424V44.472C61.631 46.6053 61.951 48.5147 62.591 50.2C63.2523 51.8853 64.2337 53.2187 65.535 54.2C66.8363 55.1813 68.479 55.672 70.463 55.672C72.447 55.672 74.079 55.192 75.359 54.232C76.639 53.272 77.4177 51.8533 77.695 49.976H82.879C82.559 52.0027 81.8337 53.752 80.703 55.224C79.5723 56.6747 78.1323 57.7947 76.383 58.584C74.6337 59.3733 72.6603 59.768 70.463 59.768ZM111.658 59L111.018 52.28V39.16C111.018 36.408 110.431 34.4347 109.258 33.24C108.085 32.024 106.325 31.416 103.978 31.416C102.655 31.416 101.45 31.608 100.362 31.992C99.2953 32.376 98.442 32.9733 97.802 33.784C97.1833 34.5733 96.874 35.5973 96.874 36.856H91.306C91.306 34.6373 91.85 32.856 92.938 31.512C94.026 30.1467 95.5193 29.1653 97.418 28.568C99.338 27.9493 101.525 27.64 103.978 27.64C106.325 27.64 108.405 28.0347 110.218 28.824C112.031 29.6133 113.45 30.872 114.474 32.6C115.498 34.3067 116.01 36.536 116.01 39.288V59H111.658ZM101.226 59.768C98.7087 59.768 96.6287 59.32 94.986 58.424C93.3433 57.528 92.1167 56.3653 91.306 54.936C90.4953 53.5067 90.09 52.0027 90.09 50.424C90.09 48.3547 90.602 46.6693 91.626 45.368C92.6713 44.0667 94.09 43.1173 95.882 42.52C97.674 41.9013 99.69 41.592 101.93 41.592C103.53 41.592 105.13 41.752 106.73 42.072C108.351 42.392 109.93 42.8293 111.466 43.384V46.52C110.186 46.008 108.735 45.6027 107.114 45.304C105.514 45.0053 104.042 44.856 102.698 44.856C100.65 44.856 98.922 45.2827 97.514 46.136C96.106 46.968 95.402 48.3973 95.402 50.424C95.402 51.9173 95.9353 53.1973 97.002 54.264C98.09 55.3307 99.818 55.864 102.186 55.864C103.85 55.864 105.343 55.48 106.666 54.712C108.01 53.9227 109.066 52.9413 109.834 51.768C110.623 50.5947 111.018 49.4213 111.018 48.248H112.234C112.234 50.296 111.786 52.1947 110.89 53.944C110.015 55.6933 108.757 57.1013 107.114 58.168C105.471 59.2347 103.509 59.768 101.226 59.768ZM138.972 59.768C136.007 59.768 133.532 59.352 131.548 58.52C129.564 57.6667 128.06 56.504 127.036 55.032C126.012 53.5387 125.468 51.832 125.404 49.912H130.204C130.311 51.8533 131.089 53.3147 132.54 54.296C134.012 55.256 136.007 55.736 138.524 55.736C139.847 55.736 141.063 55.5227 142.172 55.096C143.281 54.6693 144.167 54.0827 144.828 53.336C145.489 52.5893 145.82 51.7467 145.82 50.808C145.82 49.6133 145.383 48.6747 144.508 47.992C143.633 47.3093 142.236 46.712 140.316 46.2L134.364 44.28C131.783 43.4693 129.799 42.36 128.412 40.952C127.047 39.5227 126.364 37.816 126.364 35.832C126.364 33.3573 127.452 31.3733 129.628 29.88C131.804 28.3867 134.663 27.64 138.204 27.64C141.959 27.64 144.871 28.408 146.94 29.944C149.009 31.48 150.087 33.4 150.172 35.704H145.244C145.052 34.36 144.369 33.3467 143.196 32.664C142.023 31.96 140.359 31.608 138.204 31.608C136.135 31.608 134.513 32.0773 133.34 33.016C132.188 33.9333 131.612 34.9573 131.612 36.088C131.612 38.2 133.425 39.7573 137.052 40.76L143.132 42.808C145.756 43.5973 147.761 44.632 149.148 45.912C150.556 47.192 151.26 48.824 151.26 50.808C151.26 52.344 150.759 53.7947 149.756 55.16C148.753 56.5253 147.335 57.6347 145.5 58.488C143.665 59.3413 141.489 59.768 138.972 59.768ZM172.213 59.768C169.568 59.768 167.2 59.096 165.109 57.752C163.04 56.3867 161.397 54.4987 160.181 52.088C158.986 49.6773 158.389 46.904 158.389 43.768C158.389 40.4187 158.986 37.5387 160.181 35.128C161.376 32.7173 163.008 30.872 165.077 29.592C167.168 28.2907 169.546 27.64 172.213 27.64C174.538 27.64 176.522 28.1093 178.165 29.048C179.808 29.9867 181.13 31.256 182.133 32.856C183.136 34.456 183.829 36.2693 184.213 38.296C184.618 40.3013 184.736 42.3813 184.565 44.536H162.421V41.464H181.269L179.797 42.424C179.861 41.1653 179.786 39.9067 179.573 38.648C179.381 37.3893 179.008 36.2373 178.453 35.192C177.898 34.1253 177.12 33.272 176.117 32.632C175.114 31.992 173.834 31.672 172.277 31.672C170.314 31.672 168.672 32.1733 167.349 33.176C166.026 34.1787 165.034 35.5013 164.373 37.144C163.712 38.7653 163.381 40.5253 163.381 42.424V44.472C163.381 46.6053 163.701 48.5147 164.341 50.2C165.002 51.8853 165.984 53.2187 167.285 54.2C168.586 55.1813 170.229 55.672 172.213 55.672C174.197 55.672 175.829 55.192 177.109 54.232C178.389 53.272 179.168 51.8533 179.445 49.976H184.629C184.309 52.0027 183.584 53.752 182.453 55.224C181.322 56.6747 179.882 57.7947 178.133 58.584C176.384 59.3733 174.41 59.768 172.213 59.768ZM230.452 28.344H235.444V59H230.452V28.344ZM208.756 28.344H213.748V47.416C213.748 49.976 214.366 51.9173 215.604 53.24C216.862 54.5627 218.654 55.224 220.98 55.224C222.9 55.224 224.564 54.712 225.972 53.688C227.401 52.664 228.5 51.256 229.268 49.464C230.057 47.6507 230.452 45.5813 230.452 43.256H232.308C232.308 46.6907 231.806 49.624 230.804 52.056C229.822 54.488 228.425 56.3547 226.612 57.656C224.82 58.936 222.708 59.576 220.276 59.576C217.972 59.576 215.956 59.1493 214.228 58.296C212.5 57.4427 211.156 56.152 210.196 54.424C209.236 52.6747 208.756 50.4667 208.756 47.8V28.344ZM259.41 59.768C256.444 59.768 253.97 59.352 251.986 58.52C250.002 57.6667 248.498 56.504 247.474 55.032C246.45 53.5387 245.906 51.832 245.842 49.912H250.642C250.748 51.8533 251.527 53.3147 252.978 54.296C254.45 55.256 256.444 55.736 258.962 55.736C260.284 55.736 261.5 55.5227 262.61 55.096C263.719 54.6693 264.604 54.0827 265.266 53.336C265.927 52.5893 266.258 51.7467 266.258 50.808C266.258 49.6133 265.82 48.6747 264.946 47.992C264.071 47.3093 262.674 46.712 260.753 46.2L254.802 44.28C252.22 43.4693 250.236 42.36 248.85 40.952C247.484 39.5227 246.802 37.816 246.802 35.832C246.802 33.3573 247.89 31.3733 250.066 29.88C252.242 28.3867 255.1 27.64 258.642 27.64C262.396 27.64 265.308 28.408 267.378 29.944C269.447 31.48 270.524 33.4 270.61 35.704H265.682C265.49 34.36 264.807 33.3467 263.634 32.664C262.46 31.96 260.796 31.608 258.642 31.608C256.572 31.608 254.951 32.0773 253.778 33.016C252.626 33.9333 252.05 34.9573 252.05 36.088C252.05 38.2 253.863 39.7573 257.49 40.76L263.57 42.808C266.194 43.5973 268.199 44.632 269.586 45.912C270.994 47.192 271.698 48.824 271.698 50.808C271.698 52.344 271.196 53.7947 270.194 55.16C269.191 56.5253 267.772 57.6347 265.938 58.488C264.103 59.3413 261.927 59.768 259.41 59.768ZM292.651 59.768C290.005 59.768 287.637 59.096 285.547 57.752C283.477 56.3867 281.835 54.4987 280.619 52.088C279.424 49.6773 278.827 46.904 278.827 43.768C278.827 40.4187 279.424 37.5387 280.619 35.128C281.813 32.7173 283.445 30.872 285.515 29.592C287.605 28.2907 289.984 27.64 292.651 27.64C294.976 27.64 296.96 28.1093 298.603 29.048C300.245 29.9867 301.568 31.256 302.571 32.856C303.573 34.456 304.267 36.2693 304.651 38.296C305.056 40.3013 305.173 42.3813 305.003 44.536H282.859V41.464H301.707L300.235 42.424C300.299 41.1653 300.224 39.9067 300.011 38.648C299.819 37.3893 299.445 36.2373 298.891 35.192C298.336 34.1253 297.557 33.272 296.555 32.632C295.552 31.992 294.272 31.672 292.715 31.672C290.752 31.672 289.109 32.1733 287.787 33.176C286.464 34.1787 285.472 35.5013 284.811 37.144C284.149 38.7653 283.819 40.5253 283.819 42.424V44.472C283.819 46.6053 284.139 48.5147 284.779 50.2C285.44 51.8853 286.421 53.2187 287.723 54.2C289.024 55.1813 290.667 55.672 292.651 55.672C294.635 55.672 296.267 55.192 297.547 54.232C298.827 53.272 299.605 51.8533 299.883 49.976H305.067C304.747 52.0027 304.021 53.752 302.891 55.224C301.76 56.6747 300.32 57.7947 298.571 58.584C296.821 59.3733 294.848 59.768 292.651 59.768ZM349.033 59L348.393 52.28V39.16C348.393 36.408 347.806 34.4347 346.633 33.24C345.46 32.024 343.7 31.416 341.353 31.416C340.03 31.416 338.825 31.608 337.737 31.992C336.67 32.376 335.817 32.9733 335.177 33.784C334.558 34.5733 334.249 35.5973 334.249 36.856H328.681C328.681 34.6373 329.225 32.856 330.313 31.512C331.401 30.1467 332.894 29.1653 334.793 28.568C336.713 27.9493 338.9 27.64 341.353 27.64C343.7 27.64 345.78 28.0347 347.593 28.824C349.406 29.6133 350.825 30.872 351.849 32.6C352.873 34.3067 353.385 36.536 353.385 39.288V59H349.033ZM338.601 59.768C336.084 59.768 334.004 59.32 332.361 58.424C330.718 57.528 329.492 56.3653 328.681 54.936C327.87 53.5067 327.465 52.0027 327.465 50.424C327.465 48.3547 327.977 46.6693 329.001 45.368C330.046 44.0667 331.465 43.1173 333.257 42.52C335.049 41.9013 337.065 41.592 339.305 41.592C340.905 41.592 342.505 41.752 344.105 42.072C345.726 42.392 347.305 42.8293 348.841 43.384V46.52C347.561 46.008 346.11 45.6027 344.489 45.304C342.889 45.0053 341.417 44.856 340.073 44.856C338.025 44.856 336.297 45.2827 334.889 46.136C333.481 46.968 332.777 48.3973 332.777 50.424C332.777 51.9173 333.31 53.1973 334.377 54.264C335.465 55.3307 337.193 55.864 339.561 55.864C341.225 55.864 342.718 55.48 344.041 54.712C345.385 53.9227 346.441 52.9413 347.209 51.768C347.998 50.5947 348.393 49.4213 348.393 48.248H349.609C349.609 50.296 349.161 52.1947 348.265 53.944C347.39 55.6933 346.132 57.1013 344.489 58.168C342.846 59.2347 340.884 59.768 338.601 59.768ZM777.247 59.768C775.583 59.768 774.09 59.448 772.767 58.808C771.444 58.168 770.399 57.208 769.631 55.928C768.863 54.648 768.479 53.048 768.479 51.128V19.896H773.407V51C773.407 54.1573 774.879 55.736 777.823 55.736C778.698 55.736 779.54 55.64 780.351 55.448C781.183 55.256 782.111 54.968 783.135 54.584L783.839 58.168C782.751 58.6373 781.663 59.0213 780.575 59.32C779.508 59.6187 778.399 59.768 777.247 59.768ZM763.551 31.864V28.408H783.071V31.864H763.551ZM802.974 59.768C800.222 59.768 797.768 59.16 795.614 57.944C793.48 56.728 791.795 54.9253 790.558 52.536C789.32 50.1467 788.702 47.2027 788.702 43.704C788.702 40.184 789.32 37.24 790.558 34.872C791.795 32.4827 793.48 30.68 795.614 29.464C797.768 28.248 800.222 27.64 802.974 27.64C805.704 27.64 808.136 28.248 810.27 29.464C812.424 30.68 814.11 32.4827 815.326 34.872C816.563 37.24 817.182 40.184 817.182 43.704C817.182 47.2027 816.563 50.1467 815.326 52.536C814.11 54.9253 812.424 56.728 810.27 57.944C808.136 59.16 805.704 59.768 802.974 59.768ZM802.846 55.416C804.83 55.416 806.515 54.9467 807.902 54.008C809.288 53.048 810.334 51.6933 811.038 49.944C811.763 48.1947 812.126 46.1147 812.126 43.704C812.126 40.056 811.368 37.1867 809.854 35.096C808.339 32.984 806.088 31.928 803.102 31.928C801.096 31.928 799.4 32.408 798.014 33.368C796.648 34.3067 795.603 35.6613 794.878 37.432C794.174 39.1813 793.822 41.272 793.822 43.704C793.822 47.3093 794.579 50.168 796.094 52.28C797.63 54.3707 799.88 55.416 802.846 55.416ZM861.033 59L860.393 52.28V39.16C860.393 36.408 859.806 34.4347 858.633 33.24C857.46 32.024 855.7 31.416 853.353 31.416C852.03 31.416 850.825 31.608 849.737 31.992C848.67 32.376 847.817 32.9733 847.177 33.784C846.558 34.5733 846.249 35.5973 846.249 36.856H840.681C840.681 34.6373 841.225 32.856 842.313 31.512C843.401 30.1467 844.894 29.1653 846.793 28.568C848.713 27.9493 850.9 27.64 853.353 27.64C855.7 27.64 857.78 28.0347 859.593 28.824C861.406 29.6133 862.825 30.872 863.849 32.6C864.873 34.3067 865.385 36.536 865.385 39.288V59H861.033ZM850.601 59.768C848.084 59.768 846.004 59.32 844.361 58.424C842.718 57.528 841.492 56.3653 840.681 54.936C839.87 53.5067 839.465 52.0027 839.465 50.424C839.465 48.3547 839.977 46.6693 841.001 45.368C842.046 44.0667 843.465 43.1173 845.257 42.52C847.049 41.9013 849.065 41.592 851.305 41.592C852.905 41.592 854.505 41.752 856.105 42.072C857.726 42.392 859.305 42.8293 860.841 43.384V46.52C859.561 46.008 858.11 45.6027 856.489 45.304C854.889 45.0053 853.417 44.856 852.073 44.856C850.025 44.856 848.297 45.2827 846.889 46.136C845.481 46.968 844.777 48.3973 844.777 50.424C844.777 51.9173 845.31 53.1973 846.377 54.264C847.465 55.3307 849.193 55.864 851.561 55.864C853.225 55.864 854.718 55.48 856.041 54.712C857.385 53.9227 858.441 52.9413 859.209 51.768C859.998 50.5947 860.393 49.4213 860.393 48.248H861.609C861.609 50.296 861.161 52.1947 860.265 53.944C859.39 55.6933 858.132 57.1013 856.489 58.168C854.846 59.2347 852.884 59.768 850.601 59.768ZM888.091 59.768C885.638 59.768 883.344 59.1067 881.211 57.784C879.099 56.4613 877.392 54.5947 876.091 52.184C874.79 49.7733 874.139 46.9253 874.139 43.64C874.139 40.2693 874.79 37.3893 876.091 35C877.392 32.6107 879.099 30.7867 881.211 29.528C883.344 28.2693 885.638 27.64 888.091 27.64C889.819 27.64 891.366 27.9067 892.731 28.44C894.118 28.952 895.323 29.6667 896.347 30.584C897.371 31.5013 898.214 32.5467 898.875 33.72C899.558 34.872 900.059 36.088 900.379 37.368L895.259 37.816C894.726 36.0453 893.83 34.648 892.571 33.624C891.334 32.5787 889.819 32.056 888.027 32.056C886.512 32.056 885.083 32.4933 883.739 33.368C882.416 34.2213 881.339 35.512 880.507 37.24C879.675 38.9467 879.259 41.08 879.259 43.64C879.259 46.008 879.632 48.0667 880.379 49.816C881.147 51.544 882.192 52.888 883.515 53.848C884.838 54.808 886.342 55.288 888.027 55.288C890.395 55.288 892.187 54.712 893.403 53.56C894.64 52.3867 895.259 50.7653 895.259 48.696H900.379C900.379 50.8293 899.878 52.728 898.875 54.392C897.872 56.056 896.443 57.368 894.587 58.328C892.752 59.288 890.587 59.768 888.091 59.768ZM921.091 59.768C918.638 59.768 916.344 59.1067 914.211 57.784C912.099 56.4613 910.392 54.5947 909.091 52.184C907.79 49.7733 907.139 46.9253 907.139 43.64C907.139 40.2693 907.79 37.3893 909.091 35C910.392 32.6107 912.099 30.7867 914.211 29.528C916.344 28.2693 918.638 27.64 921.091 27.64C922.819 27.64 924.366 27.9067 925.731 28.44C927.118 28.952 928.323 29.6667 929.347 30.584C930.371 31.5013 931.214 32.5467 931.875 33.72C932.558 34.872 933.059 36.088 933.379 37.368L928.259 37.816C927.726 36.0453 926.83 34.648 925.571 33.624C924.334 32.5787 922.819 32.056 921.027 32.056C919.512 32.056 918.083 32.4933 916.739 33.368C915.416 34.2213 914.339 35.512 913.507 37.24C912.675 38.9467 912.259 41.08 912.259 43.64C912.259 46.008 912.632 48.0667 913.379 49.816C914.147 51.544 915.192 52.888 916.515 53.848C917.838 54.808 919.342 55.288 921.027 55.288C923.395 55.288 925.187 54.712 926.403 53.56C927.64 52.3867 928.259 50.7653 928.259 48.696H933.379C933.379 50.8293 932.878 52.728 931.875 54.392C930.872 56.056 929.443 57.368 927.587 58.328C925.752 59.288 923.587 59.768 921.091 59.768ZM953.963 59.768C951.318 59.768 948.95 59.096 946.859 57.752C944.79 56.3867 943.147 54.4987 941.931 52.088C940.736 49.6773 940.139 46.904 940.139 43.768C940.139 40.4187 940.736 37.5387 941.931 35.128C943.126 32.7173 944.758 30.872 946.827 29.592C948.918 28.2907 951.296 27.64 953.963 27.64C956.288 27.64 958.272 28.1093 959.915 29.048C961.558 29.9867 962.88 31.256 963.883 32.856C964.886 34.456 965.579 36.2693 965.963 38.296C966.368 40.3013 966.486 42.3813 966.315 44.536H944.171V41.464H963.019L961.547 42.424C961.611 41.1653 961.536 39.9067 961.323 38.648C961.131 37.3893 960.758 36.2373 960.203 35.192C959.648 34.1253 958.87 33.272 957.867 32.632C956.864 31.992 955.584 31.672 954.027 31.672C952.064 31.672 950.422 32.1733 949.099 33.176C947.776 34.1787 946.784 35.5013 946.123 37.144C945.462 38.7653 945.131 40.5253 945.131 42.424V44.472C945.131 46.6053 945.451 48.5147 946.091 50.2C946.752 51.8853 947.734 53.2187 949.035 54.2C950.336 55.1813 951.979 55.672 953.963 55.672C955.947 55.672 957.579 55.192 958.859 54.232C960.139 53.272 960.918 51.8533 961.195 49.976H966.379C966.059 52.0027 965.334 53.752 964.203 55.224C963.072 56.6747 961.632 57.7947 959.883 58.584C958.134 59.3733 956.16 59.768 953.963 59.768ZM987.222 59.768C984.257 59.768 981.782 59.352 979.798 58.52C977.814 57.6667 976.31 56.504 975.286 55.032C974.262 53.5387 973.718 51.832 973.654 49.912H978.454C978.561 51.8533 979.339 53.3147 980.79 54.296C982.262 55.256 984.257 55.736 986.774 55.736C988.097 55.736 989.313 55.5227 990.422 55.096C991.531 54.6693 992.417 54.0827 993.078 53.336C993.739 52.5893 994.07 51.7467 994.07 50.808C994.07 49.6133 993.633 48.6747 992.758 47.992C991.883 47.3093 990.486 46.712 988.566 46.2L982.614 44.28C980.033 43.4693 978.049 42.36 976.662 40.952C975.297 39.5227 974.614 37.816 974.614 35.832C974.614 33.3573 975.702 31.3733 977.878 29.88C980.054 28.3867 982.913 27.64 986.454 27.64C990.209 27.64 993.121 28.408 995.19 29.944C997.259 31.48 998.337 33.4 998.422 35.704H993.494C993.302 34.36 992.619 33.3467 991.446 32.664C990.273 31.96 988.609 31.608 986.454 31.608C984.385 31.608 982.763 32.0773 981.59 33.016C980.438 33.9333 979.862 34.9573 979.862 36.088C979.862 38.2 981.675 39.7573 985.302 40.76L991.382 42.808C994.006 43.5973 996.011 44.632 997.398 45.912C998.806 47.192 999.51 48.824 999.51 50.808C999.51 52.344 999.009 53.7947 998.006 55.16C997.003 56.5253 995.585 57.6347 993.75 58.488C991.915 59.3413 989.739 59.768 987.222 59.768ZM1020.85 59.768C1017.88 59.768 1015.41 59.352 1013.42 58.52C1011.44 57.6667 1009.94 56.504 1008.91 55.032C1007.89 53.5387 1007.34 51.832 1007.28 49.912H1012.08C1012.19 51.8533 1012.96 53.3147 1014.42 54.296C1015.89 55.256 1017.88 55.736 1020.4 55.736C1021.72 55.736 1022.94 55.5227 1024.05 55.096C1025.16 54.6693 1026.04 54.0827 1026.7 53.336C1027.36 52.5893 1027.7 51.7467 1027.7 50.808C1027.7 49.6133 1027.26 48.6747 1026.38 47.992C1025.51 47.3093 1024.11 46.712 1022.19 46.2L1016.24 44.28C1013.66 43.4693 1011.67 42.36 1010.29 40.952C1008.92 39.5227 1008.24 37.816 1008.24 35.832C1008.24 33.3573 1009.33 31.3733 1011.5 29.88C1013.68 28.3867 1016.54 27.64 1020.08 27.64C1023.83 27.64 1026.75 28.408 1028.82 29.944C1030.88 31.48 1031.96 33.4 1032.05 35.704H1027.12C1026.93 34.36 1026.24 33.3467 1025.07 32.664C1023.9 31.96 1022.23 31.608 1020.08 31.608C1018.01 31.608 1016.39 32.0773 1015.22 33.016C1014.06 33.9333 1013.49 34.9573 1013.49 36.088C1013.49 38.2 1015.3 39.7573 1018.93 40.76L1025.01 42.808C1027.63 43.5973 1029.64 44.632 1031.02 45.912C1032.43 47.192 1033.14 48.824 1033.14 50.808C1033.14 52.344 1032.63 53.7947 1031.63 55.16C1030.63 56.5253 1029.21 57.6347 1027.38 58.488C1025.54 59.3413 1023.36 59.768 1020.85 59.768ZM1058.52 59V18.808H1071.45C1075.87 18.808 1079.24 19.928 1081.56 22.168C1083.91 24.3867 1085.08 27.4053 1085.08 31.224C1085.08 35 1083.91 37.9973 1081.56 40.216C1079.24 42.4133 1075.87 43.512 1071.45 43.512H1063.58V59H1058.52ZM1063.58 39.16H1071.45C1074.25 39.16 1076.36 38.4453 1077.79 37.016C1079.24 35.5867 1079.96 33.656 1079.96 31.224C1079.96 28.7493 1079.24 26.776 1077.79 25.304C1076.36 23.832 1074.25 23.096 1071.45 23.096H1063.58V39.16ZM1104.71 59.768C1102.07 59.768 1099.7 59.096 1097.61 57.752C1095.54 56.3867 1093.9 54.4987 1092.68 52.088C1091.49 49.6773 1090.89 46.904 1090.89 43.768C1090.89 40.4187 1091.49 37.5387 1092.68 35.128C1093.88 32.7173 1095.51 30.872 1097.58 29.592C1099.67 28.2907 1102.05 27.64 1104.71 27.64C1107.04 27.64 1109.02 28.1093 1110.67 29.048C1112.31 29.9867 1113.63 31.256 1114.63 32.856C1115.64 34.456 1116.33 36.2693 1116.71 38.296C1117.12 40.3013 1117.24 42.3813 1117.07 44.536H1094.92V41.464H1113.77L1112.3 42.424C1112.36 41.1653 1112.29 39.9067 1112.07 38.648C1111.88 37.3893 1111.51 36.2373 1110.95 35.192C1110.4 34.1253 1109.62 33.272 1108.62 32.632C1107.61 31.992 1106.33 31.672 1104.78 31.672C1102.81 31.672 1101.17 32.1733 1099.85 33.176C1098.53 34.1787 1097.53 35.5013 1096.87 37.144C1096.21 38.7653 1095.88 40.5253 1095.88 42.424V44.472C1095.88 46.6053 1096.2 48.5147 1096.84 50.2C1097.5 51.8853 1098.48 53.2187 1099.79 54.2C1101.09 55.1813 1102.73 55.672 1104.71 55.672C1106.7 55.672 1108.33 55.192 1109.61 54.232C1110.89 53.272 1111.67 51.8533 1111.95 49.976H1117.13C1116.81 52.0027 1116.08 53.752 1114.95 55.224C1113.82 56.6747 1112.38 57.7947 1110.63 58.584C1108.88 59.3733 1106.91 59.768 1104.71 59.768ZM1136.37 59.768C1134.71 59.768 1133.21 59.448 1131.89 58.808C1130.57 58.168 1129.52 57.208 1128.76 55.928C1127.99 54.648 1127.6 53.048 1127.6 51.128V19.896H1132.53V51C1132.53 54.1573 1134 55.736 1136.95 55.736C1137.82 55.736 1138.67 55.64 1139.48 55.448C1140.31 55.256 1141.24 54.968 1142.26 54.584L1142.96 58.168C1141.88 58.6373 1140.79 59.0213 1139.7 59.32C1138.63 59.6187 1137.52 59.768 1136.37 59.768ZM1122.68 31.864V28.408H1142.2V31.864H1122.68ZM1151.03 59V15.352H1156.02V59H1151.03ZM1155.25 41.464L1170.87 28.408H1177.84L1155.25 46.776V41.464ZM1172.4 59L1157.87 39.672L1162.93 38.776L1178.55 59H1172.4ZM1189.91 21.176C1188.88 21.176 1188.07 20.888 1187.47 20.312C1186.88 19.7147 1186.58 18.936 1186.58 17.976C1186.58 17.0373 1186.88 16.2907 1187.47 15.736C1188.07 15.1813 1188.88 14.904 1189.91 14.904C1190.93 14.904 1191.74 15.1813 1192.34 15.736C1192.93 16.2907 1193.23 17.0373 1193.23 17.976C1193.23 18.936 1192.93 19.7147 1192.34 20.312C1191.74 20.888 1190.93 21.176 1189.91 21.176ZM1187.41 59V28.344H1192.4V59H1187.41ZM1215.56 59.768C1213.9 59.768 1212.4 59.448 1211.08 58.808C1209.76 58.168 1208.71 57.208 1207.94 55.928C1207.18 54.648 1206.79 53.048 1206.79 51.128V19.896H1211.72V51C1211.72 54.1573 1213.19 55.736 1216.14 55.736C1217.01 55.736 1217.85 55.64 1218.66 55.448C1219.5 55.256 1220.42 54.968 1221.45 54.584L1222.15 58.168C1221.06 58.6373 1219.98 59.0213 1218.89 59.32C1217.82 59.6187 1216.71 59.768 1215.56 59.768ZM1201.86 31.864V28.408H1221.38V31.864H1201.86ZM1225.67 56.024C1225.67 55.0213 1226.02 54.1573 1226.73 53.432C1227.43 52.7067 1228.32 52.344 1229.38 52.344C1230.45 52.344 1231.36 52.7067 1232.1 53.432C1232.85 54.1573 1233.22 55.0213 1233.22 56.024C1233.22 57.0267 1232.85 57.8693 1232.1 58.552C1231.36 59.2347 1230.45 59.576 1229.38 59.576C1228.32 59.576 1227.43 59.2347 1226.73 58.552C1226.02 57.848 1225.67 57.0053 1225.67 56.024Z" fill="#1B1B1B"/>
<path d="M379.631 59L382.543 28.152H387.407C387.428 29.0907 387.439 30.0293 387.439 30.968C387.439 31.9067 387.449 32.856 387.471 33.816C388.601 31.6827 389.988 30.072 391.631 28.984C393.273 27.896 395.108 27.352 397.135 27.352C399.503 27.352 401.423 27.9707 402.895 29.208C404.388 30.4453 405.412 32.1733 405.967 34.392C407.097 31.96 408.537 30.1787 410.287 29.048C412.057 27.9173 414.02 27.352 416.175 27.352C418.415 27.352 420.249 27.9067 421.679 29.016C423.129 30.104 424.153 31.672 424.751 33.72C425.369 35.7467 425.551 38.1467 425.295 40.92L423.631 59H417.999L419.663 40.92C419.897 38.3387 419.513 36.3653 418.511 35C417.529 33.6347 416.1 32.952 414.223 32.952C412.687 32.952 411.343 33.4 410.191 34.296C409.039 35.192 408.111 36.4933 407.407 38.2C406.703 39.9067 406.212 42.0187 405.935 44.536L404.623 59H398.991L400.655 40.92C400.953 38.2747 400.58 36.2907 399.535 34.968C398.511 33.624 397.103 32.952 395.311 32.952C392.964 32.952 391.012 33.976 389.455 36.024C387.897 38.072 386.937 41.0053 386.575 44.824L385.263 59H379.631ZM444.249 59.8C441.731 59.8 439.523 59.192 437.625 57.976C435.726 56.76 434.318 54.9573 433.401 52.568C432.483 50.1573 432.195 47.1707 432.536 43.608C432.878 40.0027 433.742 36.9947 435.129 34.584C436.515 32.1733 438.265 30.3707 440.377 29.176C442.51 27.96 444.825 27.352 447.321 27.352C449.817 27.352 452.003 27.9707 453.881 29.208C455.758 30.424 457.166 32.2373 458.105 34.648C459.043 37.0373 459.342 40.024 459.001 43.608C458.638 47.1707 457.763 50.1573 456.377 52.568C454.99 54.9573 453.251 56.76 451.161 57.976C449.07 59.192 446.766 59.8 444.249 59.8ZM444.537 54.36C446.905 54.36 448.867 53.432 450.425 51.576C451.982 49.6987 452.942 47.0427 453.305 43.608C453.646 40.1307 453.251 37.4533 452.121 35.576C451.011 33.6987 449.283 32.76 446.937 32.76C444.59 32.76 442.649 33.6987 441.113 35.576C439.577 37.432 438.638 40.1093 438.297 43.608C438.062 45.8693 438.147 47.8107 438.553 49.432C438.979 51.032 439.694 52.2587 440.697 53.112C441.699 53.944 442.979 54.36 444.537 54.36ZM479.226 59.8C477.434 59.8 475.845 59.288 474.458 58.264C473.093 57.2187 472.079 55.672 471.418 53.624L469.626 59H465.85L469.946 15.256H475.61L473.946 32.408C474.97 30.7867 476.229 29.5387 477.722 28.664C479.215 27.7893 480.847 27.352 482.618 27.352C484.666 27.352 486.501 27.9173 488.122 29.048C489.743 30.1573 491.023 31.7467 491.962 33.816C492.901 35.864 493.37 38.2853 493.37 41.08C493.37 43.0213 493.082 45.08 492.506 47.256C491.93 49.432 491.055 51.4693 489.882 53.368C488.73 55.2667 487.258 56.8133 485.466 58.008C483.695 59.2027 481.615 59.8 479.226 59.8ZM478.938 54.168C480.431 54.168 481.722 53.784 482.81 53.016C483.898 52.2267 484.794 51.2027 485.498 49.944C486.223 48.6853 486.757 47.3307 487.098 45.88C487.439 44.408 487.61 43 487.61 41.656C487.61 38.9893 486.981 36.8773 485.722 35.32C484.485 33.7413 482.895 32.952 480.954 32.952C479.738 32.952 478.554 33.2827 477.402 33.944C476.25 34.584 475.279 35.5333 474.49 36.792C473.701 38.0293 473.231 39.5333 473.082 41.304L472.73 45.208C472.581 46.936 472.741 48.472 473.21 49.816C473.701 51.16 474.437 52.2267 475.418 53.016C476.421 53.784 477.594 54.168 478.938 54.168ZM507.102 21.72C505.993 21.72 505.15 21.3787 504.574 20.696C504.019 20.0133 503.774 19.096 503.838 17.944C503.945 16.856 504.339 15.96 505.022 15.256C505.726 14.5307 506.643 14.168 507.774 14.168C508.905 14.168 509.747 14.52 510.302 15.224C510.878 15.9067 511.123 16.8133 511.038 17.944C510.931 19.1173 510.515 20.0453 509.79 20.728C509.086 21.3893 508.19 21.72 507.102 21.72ZM500.766 59L503.678 28.088H509.31L506.398 59H500.766ZM518.35 59L522.446 15.256H528.11L523.982 59H518.35ZM545.083 59.8C542.672 59.8 540.56 59.1387 538.747 57.816C536.933 56.4933 535.568 54.6267 534.651 52.216C533.755 49.784 533.467 46.9147 533.786 43.608C534.106 40.2373 534.939 37.336 536.283 34.904C537.648 32.472 539.355 30.6053 541.403 29.304C543.451 28.0027 545.68 27.352 548.091 27.352C549.989 27.352 551.611 27.7253 552.955 28.472C554.32 29.2187 555.419 30.2427 556.251 31.544C557.083 32.824 557.669 34.296 558.011 35.96C558.373 37.6027 558.48 39.3413 558.331 41.176C558.288 41.7733 558.213 42.4027 558.107 43.064C558.021 43.704 557.904 44.3653 557.755 45.048H537.786L539.355 43.928C539.099 45.9547 539.131 47.7893 539.451 49.432C539.792 51.0747 540.464 52.376 541.467 53.336C542.469 54.2747 543.845 54.744 545.595 54.744C547.088 54.744 548.389 54.3387 549.499 53.528C550.608 52.696 551.355 51.48 551.739 49.88H557.499C557.008 51.9067 556.165 53.6667 554.971 55.16C553.797 56.632 552.357 57.7733 550.651 58.584C548.965 59.3947 547.109 59.8 545.083 59.8ZM539.515 42.008L538.267 41.112H554.523L552.955 41.88C553.189 40.2587 553.2 38.7227 552.987 37.272C552.795 35.8213 552.283 34.6373 551.451 33.72C550.64 32.8027 549.392 32.344 547.707 32.344C546.149 32.344 544.795 32.7813 543.643 33.656C542.491 34.5093 541.563 35.672 540.859 37.144C540.176 38.5947 539.728 40.216 539.515 42.008ZM589.366 59.8C587.233 59.8 585.323 59.224 583.638 58.072C581.974 56.8987 580.651 55.2667 579.67 53.176C578.71 51.0853 578.23 48.6533 578.23 45.88C578.23 43.64 578.539 41.432 579.158 39.256C579.777 37.0587 580.673 35.064 581.846 33.272C583.041 31.48 584.481 30.0507 586.166 28.984C587.873 27.896 589.803 27.352 591.958 27.352C593.793 27.352 595.361 27.7787 596.662 28.632C597.963 29.464 598.987 30.7013 599.734 32.344L601.366 15.256H607.03L602.902 59H598.294L598.038 53.976C596.993 55.9173 595.702 57.3787 594.166 58.36C592.63 59.32 591.03 59.8 589.366 59.8ZM590.646 54.168C591.777 54.168 592.907 53.848 594.038 53.208C595.169 52.5467 596.139 51.608 596.95 50.392C597.782 49.1547 598.273 47.6827 598.422 45.976L598.902 40.856C598.945 40.664 598.966 40.5147 598.966 40.408C598.966 40.3013 598.966 40.1627 598.966 39.992C598.987 38.456 598.699 37.1653 598.102 36.12C597.505 35.0747 596.726 34.2853 595.766 33.752C594.806 33.2187 593.761 32.952 592.63 32.952C591.115 32.952 589.803 33.3467 588.694 34.136C587.606 34.904 586.721 35.9173 586.038 37.176C585.355 38.4133 584.843 39.7467 584.502 41.176C584.182 42.6053 584.022 43.96 584.022 45.24C584.022 47.9493 584.641 50.1147 585.878 51.736C587.115 53.3573 588.705 54.168 590.646 54.168ZM624.083 59.8C621.672 59.8 619.56 59.1387 617.747 57.816C615.933 56.4933 614.568 54.6267 613.651 52.216C612.755 49.784 612.467 46.9147 612.786 43.608C613.106 40.2373 613.939 37.336 615.283 34.904C616.648 32.472 618.355 30.6053 620.403 29.304C622.451 28.0027 624.68 27.352 627.091 27.352C628.989 27.352 630.611 27.7253 631.955 28.472C633.32 29.2187 634.419 30.2427 635.251 31.544C636.083 32.824 636.669 34.296 637.011 35.96C637.373 37.6027 637.48 39.3413 637.331 41.176C637.288 41.7733 637.213 42.4027 637.107 43.064C637.021 43.704 636.904 44.3653 636.755 45.048H616.786L618.355 43.928C618.099 45.9547 618.131 47.7893 618.451 49.432C618.792 51.0747 619.464 52.376 620.467 53.336C621.469 54.2747 622.845 54.744 624.595 54.744C626.088 54.744 627.389 54.3387 628.499 53.528C629.608 52.696 630.355 51.48 630.739 49.88H636.499C636.008 51.9067 635.165 53.6667 633.971 55.16C632.797 56.632 631.357 57.7733 629.651 58.584C627.965 59.3947 626.109 59.8 624.083 59.8ZM618.515 42.008L617.267 41.112H633.523L631.955 41.88C632.189 40.2587 632.2 38.7227 631.987 37.272C631.795 35.8213 631.283 34.6373 630.451 33.72C629.64 32.8027 628.392 32.344 626.707 32.344C625.149 32.344 623.795 32.7813 622.643 33.656C621.491 34.5093 620.563 35.672 619.859 37.144C619.176 38.5947 618.728 40.216 618.515 42.008ZM642.401 28.152H648.833L653.921 52.6L663.617 28.152H670.081L656.449 59H650.177L642.401 28.152ZM680.415 21.72C679.305 21.72 678.463 21.3787 677.887 20.696C677.332 20.0133 677.087 19.096 677.151 17.944C677.257 16.856 677.652 15.96 678.335 15.256C679.039 14.5307 679.956 14.168 681.087 14.168C682.217 14.168 683.06 14.52 683.615 15.224C684.191 15.9067 684.436 16.8133 684.351 17.944C684.244 19.1173 683.828 20.0453 683.103 20.728C682.399 21.3893 681.503 21.72 680.415 21.72ZM674.079 59L676.991 28.088H682.623L679.711 59H674.079ZM701.743 59.8C699.439 59.8 697.359 59.1387 695.503 57.816C693.647 56.4933 692.239 54.616 691.279 52.184C690.319 49.752 689.988 46.872 690.286 43.544C690.606 40.088 691.471 37.1653 692.879 34.776C694.308 32.3653 696.068 30.5307 698.159 29.272C700.249 27.992 702.457 27.352 704.783 27.352C706.425 27.352 707.865 27.6507 709.103 28.248C710.361 28.824 711.417 29.6133 712.271 30.616C713.145 31.5973 713.807 32.7173 714.255 33.976C714.724 35.2347 715.001 36.5253 715.087 37.848L709.391 38.2C709.113 36.6427 708.537 35.384 707.663 34.424C706.788 33.4427 705.625 32.952 704.175 32.952C702.916 32.952 701.7 33.3467 700.527 34.136C699.375 34.904 698.393 36.0773 697.583 37.656C696.772 39.2133 696.249 41.176 696.015 43.544C695.823 45.784 695.951 47.704 696.399 49.304C696.868 50.8827 697.604 52.088 698.607 52.92C699.631 53.752 700.847 54.168 702.255 54.168C704.068 54.168 705.508 53.656 706.575 52.632C707.641 51.5867 708.26 50.1467 708.431 48.312H714.127C713.956 50.4667 713.327 52.4187 712.239 54.168C711.172 55.896 709.732 57.272 707.919 58.296C706.127 59.2987 704.068 59.8 701.743 59.8ZM731.645 59.8C729.234 59.8 727.122 59.1387 725.309 57.816C723.496 56.4933 722.13 54.6267 721.213 52.216C720.317 49.784 720.029 46.9147 720.349 43.608C720.669 40.2373 721.501 37.336 722.845 34.904C724.21 32.472 725.917 30.6053 727.965 29.304C730.013 28.0027 732.242 27.352 734.653 27.352C736.552 27.352 738.173 27.7253 739.517 28.472C740.882 29.2187 741.981 30.2427 742.813 31.544C743.645 32.824 744.232 34.296 744.573 35.96C744.936 37.6027 745.042 39.3413 744.893 41.176C744.85 41.7733 744.776 42.4027 744.669 43.064C744.584 43.704 744.466 44.3653 744.317 45.048H724.349L725.917 43.928C725.661 45.9547 725.693 47.7893 726.013 49.432C726.354 51.0747 727.026 52.376 728.029 53.336C729.032 54.2747 730.408 54.744 732.157 54.744C733.65 54.744 734.952 54.3387 736.061 53.528C737.17 52.696 737.917 51.48 738.301 49.88H744.061C743.57 51.9067 742.728 53.6667 741.533 55.16C740.36 56.632 738.92 57.7733 737.213 58.584C735.528 59.3947 733.672 59.8 731.645 59.8ZM726.077 42.008L724.829 41.112H741.085L739.517 41.88C739.752 40.2587 739.762 38.7227 739.549 37.272C739.357 35.8213 738.845 34.6373 738.013 33.72C737.202 32.8027 735.954 32.344 734.269 32.344C732.712 32.344 731.357 32.7813 730.205 33.656C729.053 34.5093 728.125 35.672 727.421 37.144C726.738 38.5947 726.29 40.216 726.077 42.008Z" fill="white"/>
</svg>
