<svg width="195" height="92" viewBox="0 0 195 92" fill="none" xmlns="http://www.w3.org/2000/svg">
<path d="M27.9096 55C42.3572 55 54.0694 43.2878 54.0694 28.8402C54.0694 14.3925 42.3572 2.68036 27.9096 2.68036C13.4619 2.68036 1.74976 14.3925 1.74976 28.8402C1.74976 43.2878 13.4619 55 27.9096 55Z" fill="#1B1B1B"/>
<path d="M26.5304 52.6902C40.9781 52.6902 52.6902 40.9781 52.6902 26.5304C52.6902 12.0827 40.9781 0.370605 26.5304 0.370605C12.0827 0.370605 0.370605 12.0827 0.370605 26.5304C0.370605 40.9781 12.0827 52.6902 26.5304 52.6902Z" fill="#B2D3BE"/>
<path fill-rule="evenodd" clip-rule="evenodd" d="M26.5304 0.74129C12.2875 0.74129 0.74129 12.2875 0.74129 26.5304C0.74129 40.7734 12.2875 52.3196 26.5304 52.3196C40.7734 52.3196 52.3196 40.7734 52.3196 26.5304C52.3196 12.2875 40.7734 0.74129 26.5304 0.74129ZM0 26.5304C0 11.8781 11.8781 0 26.5304 0C41.1828 0 53.0609 11.8781 53.0609 26.5304C53.0609 41.1828 41.1828 53.0609 26.5304 53.0609C11.8781 53.0609 0 41.1828 0 26.5304Z" fill="#1B1B1B"/>
<path d="M17.1721 9.2793C17.6541 9.24329 18.1735 10.0926 19.2118 11.7902C19.9009 12.9168 20.3716 13.8542 21.3681 15.3116C22.013 16.2554 22.2835 16.5461 22.7115 16.7527C23.1193 16.9494 23.3502 16.8967 25.1288 17.0034C26.0119 17.0565 26.4534 17.083 26.7491 17.1222C27.8414 17.2676 28.1326 17.4462 28.877 17.4264C28.877 17.4264 29.5602 17.4138 30.2853 17.1645C31.6859 16.682 32.6855 15.1563 33.384 14.0658C36.1249 9.78698 36.327 9.44357 36.7861 9.40307C38.3757 9.26354 39.9028 12.8236 40.5568 14.3475C42.4034 18.6524 42.5146 22.492 42.5285 23.1477C42.5713 25.1244 42.6118 29.5292 40.0365 34.2622C38.3933 37.2821 36.3266 39.257 34.9656 40.3732C33.5834 41.3773 30.9923 42.9647 27.381 43.5588C26.1532 43.7609 22.0954 44.2942 17.6298 42.3886C15.9659 41.6788 14.0819 40.8746 12.5589 38.8781C10.5511 36.2456 10.5187 33.3076 10.5219 32.312C10.5219 32.312 10.5331 28.6957 13.5558 23.6009C13.8551 23.0964 14.054 22.7994 14.054 22.7994C14.3443 22.3795 14.6076 22.0653 14.7948 21.8556C15.194 21.4087 15.4474 21.2115 15.4843 20.8384C15.4947 20.7349 15.4857 20.5999 15.4681 20.3294C15.4474 20.0103 15.4146 19.7758 15.4087 19.7335C15.3453 19.2699 15.2723 17.9328 15.2678 16.8189C15.2629 15.524 15.2588 14.4987 15.4627 13.2867C15.5833 12.5716 16.1221 9.35896 17.1721 9.28065V9.2793Z" fill="#1B1B1B"/>
<path d="M33.2756 18.8329C33.9741 19.1151 34.8041 19.5157 35.6808 20.09C36.6989 20.7565 37.4851 21.4622 38.0644 22.0617C38.2687 20.7808 38.4523 18.8509 38.1728 16.5358C38.1206 16.105 37.7088 12.6913 36.9378 12.6571C36.5391 12.6391 36.296 13.5356 35.5944 14.9974C34.8 16.6514 33.9435 17.935 33.2756 18.8329Z" fill="white"/>
<path d="M19.927 17.5543C19.354 16.9354 18.5885 15.9745 17.9984 14.6504C17.2365 12.9406 17.205 11.6079 16.9367 11.6165C16.6203 11.6268 16.3566 13.4897 16.3516 15.1918C16.3462 17.007 16.6541 18.5017 16.9367 19.526C17.3674 19.2236 17.8117 18.9198 18.2694 18.616C18.8306 18.2433 19.3837 17.89 19.927 17.5543Z" fill="white"/>
<path d="M29.0718 27.2082C28.9539 27.4792 27.75 26.7685 26.3165 27.3086C25.1459 27.7497 24.7323 28.6818 24.5392 28.5616C24.2588 28.387 24.5923 26.0822 26.1288 25.6186C27.6591 25.1573 29.2172 26.8738 29.0718 27.2082Z" fill="white"/>
<path d="M17.5106 27.1569C17.3072 27.2064 17.1969 26.6799 16.4791 26.0111C15.6514 25.2396 14.9866 25.1847 15.0163 24.948C15.06 24.6028 16.5538 24.083 17.3679 24.8053C18.183 25.5286 17.8414 27.0764 17.5106 27.1569Z" fill="white"/>
<path d="M18.7212 33.8027C18.2559 33.8693 18.1974 34.2879 17.4129 35.0458C16.7657 35.6714 16.0969 36.3177 15.3489 36.3055C14.365 36.2893 13.4257 35.1353 13.22 34.0057C12.9734 32.6546 13.9973 31.5163 14.5572 30.8732C14.6382 30.78 14.6994 30.7152 14.7588 30.6585C14.7588 30.6585 14.9438 30.4767 15.1729 30.3056C16.0879 29.6233 17.1329 29.2952 17.1329 29.2952C17.1329 29.2952 19.3189 28.6089 21.2718 29.3713C21.3816 29.4141 21.4847 29.4645 21.4847 29.4645C21.6872 29.5671 21.8002 29.6778 22.8862 30.2273C24.0708 30.8268 24.6581 31.1468 25.1005 31.2508C25.5672 31.3606 26.3049 31.4907 27.259 31.88C27.4328 31.9506 27.6128 32.0393 27.823 32.1608C28.3653 32.475 28.8514 32.7563 29.0908 33.331C29.4698 34.2415 28.9801 35.292 28.4814 35.8743C27.9468 36.499 27.2987 36.707 26.7019 36.8982C26.2621 37.0391 24.4286 37.6274 22.7363 36.7925C22.3173 36.5859 21.739 36.0724 20.5827 35.0453C19.5723 34.1479 19.2186 33.7311 18.7217 33.8022L18.7212 33.8027Z" fill="white"/>
<path d="M17.6082 36.3788C17.7176 36.1511 18.192 36.1813 19.0115 36.2326C19.701 36.2758 20.4657 36.3239 20.7236 36.8177C20.8438 37.0481 20.8046 37.2808 20.7938 37.3379C20.7065 37.8137 20.2051 38.117 19.8676 38.1994C18.7613 38.4685 17.3782 36.8573 17.6087 36.3793L17.6082 36.3788Z" fill="white"/>
<path d="M17.3496 29.8267C17.6363 29.3294 18.409 29.3186 19.2565 29.3065C20.0613 29.2952 20.6022 29.2979 21.0118 29.6913C21.1095 29.7853 21.3998 30.0675 21.3678 30.4033C21.3282 30.8191 20.8439 30.8885 20.0297 31.6059C19.4051 32.1563 19.442 32.3269 19.1629 32.3804C18.5 32.5078 17.3302 31.5478 17.256 30.4357C17.2434 30.2453 17.229 30.0351 17.3496 29.8263V29.8267Z" fill="#1B1B1B"/>
<path d="M20.5895 26.5304C20.1592 26.3527 21.1116 24.4255 20.1831 23.19C19.3428 22.0716 17.5889 22.3551 17.583 22.0617C17.5754 21.676 20.5985 20.8771 24.0514 21.4186C26.5362 21.8083 28.5278 22.7796 28.4558 23.0924C28.3725 23.4529 25.6928 22.3317 23.4177 23.6612C21.6399 24.7 21.0148 26.7055 20.5899 26.53L20.5895 26.5304Z" fill="white"/>
<path d="M85.0679 18.0586C83.441 17.1691 81.5537 16.7247 79.4068 16.7247C77.9313 16.7247 76.5444 17.0639 75.2476 17.7422C73.9501 18.4205 72.8531 19.3592 71.9575 20.5576C71.062 21.7567 70.4624 23.1065 70.1596 24.6085H70.0014L70.4162 17.3765H66.0693V45H70.2383V36.4636C70.2383 35.6074 70.1596 34.4151 70.0014 32.8874L69.9226 32.038H70.0809C70.423 33.2107 71.0559 34.2675 71.978 35.2092C72.9001 36.151 74.0167 36.8921 75.3271 37.4319C76.6375 37.9717 78.0176 38.2419 79.4666 38.2419C81.6529 38.2419 83.553 37.8104 85.167 36.9474C86.7803 36.0844 88.0226 34.8466 88.8916 33.2326C89.7607 31.6194 90.196 29.7124 90.196 27.5125C90.196 25.3125 89.7479 23.4585 88.8523 21.8317C87.9567 20.2048 86.6955 18.9466 85.0686 18.0579L85.0679 18.0586ZM85.0679 31.0009C84.4161 31.982 83.4902 32.7368 82.2918 33.2637C81.0927 33.7906 79.7096 34.054 78.1425 34.054C76.5755 34.054 75.0992 33.7875 73.9137 33.2538C72.7282 32.7201 71.822 31.9593 71.1967 30.9714C70.5707 29.9834 70.258 28.8108 70.258 27.4542C70.258 26.0976 70.5744 24.9484 71.2066 23.9665C71.8387 22.9854 72.7479 22.2314 73.9334 21.7037C75.1189 21.1768 76.5346 20.9134 78.1819 20.9134C79.8292 20.9134 81.126 21.1799 82.3115 21.7136C83.497 22.2473 84.4161 23.0111 85.0679 24.0059C85.7197 25.0006 86.046 26.1763 86.046 27.5329C86.046 28.8895 85.7197 30.0198 85.0679 31.0009Z" fill="#1B1B1B"/>
<path d="M113.902 24.6487C113.902 23.0945 113.454 21.7144 112.558 20.5092C111.662 19.304 110.444 18.3683 108.902 17.7036C107.361 17.0382 105.661 16.7059 103.804 16.7059C101.605 16.7059 99.6317 17.1306 97.8867 17.9807C96.141 18.8301 94.7715 20.0557 93.7768 21.6561C92.782 23.2565 92.2847 25.1506 92.2847 27.3369C92.2847 29.5232 92.7389 31.4567 93.6481 33.0964C94.5573 34.7362 95.8677 36.0042 97.5801 36.8998C99.2925 37.7953 101.327 38.2435 103.686 38.2435C105.543 38.2435 107.186 37.9437 108.615 37.3441C110.045 36.7446 111.171 35.9186 111.994 34.8641C112.817 33.8103 113.295 32.6248 113.426 31.3075L110.482 30.1614C110.285 31.5445 109.59 32.5983 108.397 33.3228C107.205 34.0473 105.687 34.4099 103.843 34.4099C102.275 34.4099 100.922 34.1298 99.7823 33.5703C98.643 33.0109 97.7633 32.2205 97.1448 31.1993C96.5256 30.1788 96.1834 28.9834 96.1175 27.6132H113.367C113.723 26.6253 113.901 25.6374 113.901 24.6494L113.902 24.6487ZM109.89 26.4269H96.1183C96.2235 25.1892 96.599 24.1119 97.2448 23.1959C97.8897 22.2807 98.7724 21.5789 99.8929 21.0914C101.013 20.6038 102.317 20.3601 103.805 20.3601C105.043 20.3601 106.14 20.5607 107.095 20.9627C108.05 21.3647 108.791 21.9211 109.318 22.6327C109.845 23.3443 110.108 24.1415 110.108 25.0234C110.108 25.4579 110.036 25.9258 109.891 26.4262L109.89 26.4269Z" fill="#1B1B1B"/>
<path d="M131.354 30.5762C131.552 33.132 130.314 34.4098 127.64 34.4098C126.362 34.4098 125.397 34.0147 124.745 33.2243C124.093 32.434 123.767 31.1629 123.767 29.4104V21.2889H131.532V17.3766H122.839V17.1199C123.129 16.9095 123.336 16.6256 123.461 16.2705C123.586 15.9147 123.668 15.3515 123.708 14.5808C123.747 13.8102 123.767 12.5883 123.767 10.9153H120.309V14.9662C120.309 15.8095 120.141 16.4219 119.804 16.8035C119.468 17.1858 118.873 17.3766 118.016 17.3766H115.27V21.2889H119.617V29.6276C119.617 32.4332 120.203 34.5673 121.375 36.0299C122.548 37.4917 124.444 38.223 127.066 38.223C128.686 38.223 130.046 37.9429 131.146 37.3835C132.246 36.824 133.066 36.0693 133.607 35.1207C134.146 34.1721 134.417 33.0986 134.417 31.9003C134.417 31.4657 134.39 31.0706 134.338 30.7147L131.354 30.5762Z" fill="#1B1B1B"/>
<path d="M157.015 17.3773H151.285C148.69 19.8279 146.704 21.7606 145.328 23.177C143.951 24.5934 142.97 25.6964 142.384 26.4867C141.798 27.2771 141.412 27.9758 141.228 28.5814H141.03V9H136.861V37.572H141.03V30.3007L145.555 26.9811L152.767 37.572H157.549L147.906 25.143L157.016 17.3773H157.015Z" fill="#1B1B1B"/>
<path d="M159.782 17.3773V37.5712H163.97V17.3773C163.272 17.5355 162.574 17.6143 161.876 17.6143C161.178 17.6143 160.493 17.5355 159.781 17.3773H159.782Z" fill="#1B1B1B"/>
<path d="M161.876 10.0856C160.875 10.0856 160.104 10.3066 159.564 10.7472C159.024 11.1886 158.754 11.8177 158.754 12.6345C158.754 13.4513 159.024 14.1032 159.564 14.5513C160.104 14.9995 160.875 15.2228 161.876 15.2228C162.878 15.2228 163.648 14.9987 164.188 14.5513C164.728 14.1039 164.998 13.4642 164.998 12.6345C164.998 11.8048 164.728 11.1886 164.188 10.7472C163.648 10.3059 162.877 10.0856 161.876 10.0856Z" fill="#1B1B1B"/>
<path d="M182.323 30.5762C182.521 33.132 181.283 34.4098 178.609 34.4098C177.331 34.4098 176.366 34.0147 175.714 33.2243C175.062 32.434 174.736 31.1629 174.736 29.4104V21.2889H182.501V17.3766H173.808V17.1199C174.098 16.9095 174.305 16.6256 174.43 16.2705C174.555 15.9147 174.637 15.3515 174.677 14.5808C174.716 13.8102 174.736 12.5883 174.736 10.9153H171.278V14.9662C171.278 15.8095 171.11 16.4219 170.773 16.8035C170.437 17.1858 169.841 17.3766 168.985 17.3766H166.239V21.2889H170.586V29.6276C170.586 32.4332 171.172 34.5673 172.344 36.0299C173.517 37.4917 175.413 38.223 178.035 38.223C179.655 38.223 181.015 37.9429 182.115 37.3835C183.215 36.824 184.035 36.0693 184.576 35.1207C185.115 34.1721 185.386 33.0986 185.386 31.9003C185.386 31.4657 185.359 31.0706 185.307 30.7147L182.323 30.5762Z" fill="#1B1B1B"/>
<path d="M193.47 33.708C192.929 33.2667 192.159 33.0464 191.158 33.0464C190.157 33.0464 189.39 33.2674 188.856 33.708C188.322 34.1494 188.056 34.7785 188.056 35.5953C188.056 36.4122 188.322 37.0806 188.856 37.522C189.39 37.9633 190.156 38.1836 191.158 38.1836C192.16 38.1836 192.946 37.9626 193.48 37.522C194.014 37.0806 194.28 36.4387 194.28 35.5953C194.28 34.752 194.01 34.1494 193.47 33.708Z" fill="#1B1B1B"/>
<path d="M22.414 88V79.208H25.704C26.348 79.208 26.8823 79.3153 27.307 79.53C27.7317 79.74 28.049 80.02 28.259 80.37C28.469 80.7153 28.574 81.0933 28.574 81.504C28.574 82.008 28.434 82.4467 28.154 82.82C27.8787 83.1887 27.4633 83.4407 26.908 83.576C27.2673 83.632 27.5823 83.7603 27.853 83.961C28.1283 84.157 28.343 84.3997 28.497 84.689C28.651 84.9737 28.728 85.2793 28.728 85.606C28.728 85.9047 28.6767 86.1963 28.574 86.481C28.476 86.7657 28.3103 87.0223 28.077 87.251C27.8437 87.4797 27.5333 87.6617 27.146 87.797C26.7587 87.9323 26.278 88 25.704 88H22.414ZM23.506 87.048H25.69C26.3573 87.048 26.8357 86.908 27.125 86.628C27.419 86.348 27.566 85.9887 27.566 85.55C27.566 85.1067 27.4073 84.752 27.09 84.486C26.7727 84.2153 26.306 84.08 25.69 84.08H23.506V87.048ZM23.506 80.146V83.142H25.662C26.208 83.142 26.642 83.009 26.964 82.743C27.2907 82.4723 27.454 82.092 27.454 81.602C27.454 81.1447 27.2953 80.7877 26.978 80.531C26.6653 80.2743 26.2313 80.146 25.676 80.146H23.506ZM33.4333 88.168C32.8546 88.168 32.3366 88.021 31.8793 87.727C31.4266 87.4283 31.0673 87.0153 30.8013 86.488C30.54 85.9607 30.4093 85.354 30.4093 84.668C30.4093 83.9353 30.54 83.3053 30.8013 82.778C31.0626 82.2507 31.4196 81.847 31.8723 81.567C32.3296 81.2823 32.85 81.14 33.4333 81.14C33.942 81.14 34.376 81.2427 34.7353 81.448C35.0946 81.6533 35.384 81.931 35.6033 82.281C35.8226 82.631 35.9743 83.0277 36.0583 83.471C36.147 83.9097 36.1726 84.3647 36.1353 84.836H31.2913V84.164H35.4143L35.0923 84.374C35.1063 84.0987 35.09 83.8233 35.0433 83.548C35.0013 83.2727 34.9196 83.0207 34.7983 82.792C34.677 82.5587 34.5066 82.372 34.2873 82.232C34.068 82.092 33.788 82.022 33.4473 82.022C33.018 82.022 32.6586 82.1317 32.3693 82.351C32.08 82.5703 31.863 82.8597 31.7183 83.219C31.5736 83.5737 31.5013 83.9587 31.5013 84.374V84.822C31.5013 85.2887 31.5713 85.7063 31.7113 86.075C31.856 86.4437 32.0706 86.7353 32.3553 86.95C32.64 87.1647 32.9993 87.272 33.4333 87.272C33.8673 87.272 34.2243 87.167 34.5043 86.957C34.7843 86.747 34.9546 86.4367 35.0153 86.026H36.1493C36.0793 86.4693 35.9206 86.852 35.6733 87.174C35.426 87.4913 35.111 87.7363 34.7283 87.909C34.3456 88.0817 33.914 88.168 33.4333 88.168ZM40.3587 88.168C39.9947 88.168 39.6681 88.098 39.3787 87.958C39.0894 87.818 38.8607 87.608 38.6927 87.328C38.5247 87.048 38.4407 86.698 38.4407 86.278V79.446H39.5187V86.25C39.5187 86.9407 39.8407 87.286 40.4847 87.286C40.6761 87.286 40.8604 87.265 41.0377 87.223C41.2197 87.181 41.4227 87.118 41.6467 87.034L41.8007 87.818C41.5627 87.9207 41.3247 88.0047 41.0867 88.07C40.8534 88.1353 40.6107 88.168 40.3587 88.168ZM37.3627 82.064V81.308H41.6327V82.064H37.3627ZM45.6224 88.168C45.2584 88.168 44.9317 88.098 44.6424 87.958C44.3531 87.818 44.1244 87.608 43.9564 87.328C43.7884 87.048 43.7044 86.698 43.7044 86.278V79.446H44.7824V86.25C44.7824 86.9407 45.1044 87.286 45.7484 87.286C45.9397 87.286 46.1241 87.265 46.3014 87.223C46.4834 87.181 46.6864 87.118 46.9104 87.034L47.0644 87.818C46.8264 87.9207 46.5884 88.0047 46.3504 88.07C46.1171 88.1353 45.8744 88.168 45.6224 88.168ZM42.6264 82.064V81.308H46.8964V82.064H42.6264ZM51.1521 88.168C50.5734 88.168 50.0554 88.021 49.5981 87.727C49.1454 87.4283 48.7861 87.0153 48.5201 86.488C48.2587 85.9607 48.1281 85.354 48.1281 84.668C48.1281 83.9353 48.2587 83.3053 48.5201 82.778C48.7814 82.2507 49.1384 81.847 49.5911 81.567C50.0484 81.2823 50.5687 81.14 51.1521 81.14C51.6607 81.14 52.0947 81.2427 52.4541 81.448C52.8134 81.6533 53.1027 81.931 53.3221 82.281C53.5414 82.631 53.6931 83.0277 53.7771 83.471C53.8657 83.9097 53.8914 84.3647 53.8541 84.836H49.0101V84.164H53.1331L52.8111 84.374C52.8251 84.0987 52.8087 83.8233 52.7621 83.548C52.7201 83.2727 52.6384 83.0207 52.5171 82.792C52.3957 82.5587 52.2254 82.372 52.0061 82.232C51.7867 82.092 51.5067 82.022 51.1661 82.022C50.7367 82.022 50.3774 82.1317 50.0881 82.351C49.7987 82.5703 49.5817 82.8597 49.4371 83.219C49.2924 83.5737 49.2201 83.9587 49.2201 84.374V84.822C49.2201 85.2887 49.2901 85.7063 49.4301 86.075C49.5747 86.4437 49.7894 86.7353 50.0741 86.95C50.3587 87.1647 50.7181 87.272 51.1521 87.272C51.5861 87.272 51.9431 87.167 52.2231 86.957C52.5031 86.747 52.6734 86.4367 52.7341 86.026H53.8681C53.7981 86.4693 53.6394 86.852 53.3921 87.174C53.1447 87.4913 52.8297 87.7363 52.4471 87.909C52.0644 88.0817 51.6327 88.168 51.1521 88.168ZM56.0195 88V81.294H57.1115V88H56.0195ZM56.7755 84.976C56.7755 84.1267 56.8571 83.422 57.0205 82.862C57.1838 82.2973 57.4218 81.8773 57.7345 81.602C58.0518 81.322 58.4368 81.182 58.8895 81.182C59.0388 81.182 59.1741 81.1937 59.2955 81.217C59.4215 81.2357 59.5475 81.266 59.6735 81.308L59.6035 82.386C59.4728 82.344 59.3305 82.309 59.1765 82.281C59.0225 82.2483 58.8848 82.232 58.7635 82.232C58.3668 82.232 58.0471 82.3463 57.8045 82.575C57.5618 82.799 57.3845 83.1163 57.2725 83.527C57.1651 83.9377 57.1115 84.4207 57.1115 84.976H56.7755ZM66.7523 88.168C66.2157 88.168 65.714 88.0233 65.2473 87.734C64.7853 87.4447 64.412 87.0363 64.1273 86.509C63.8427 85.9817 63.7003 85.3587 63.7003 84.64C63.7003 83.9027 63.8427 83.2727 64.1273 82.75C64.412 82.2273 64.7853 81.8283 65.2473 81.553C65.714 81.2777 66.2157 81.14 66.7523 81.14C67.1303 81.14 67.4687 81.1983 67.7673 81.315C68.0707 81.427 68.3343 81.5833 68.5583 81.784C68.7823 81.9847 68.9667 82.2133 69.1113 82.47C69.2607 82.722 69.3703 82.988 69.4403 83.268L68.3203 83.366C68.2037 82.9787 68.0077 82.673 67.7323 82.449C67.4617 82.2203 67.1303 82.106 66.7383 82.106C66.407 82.106 66.0943 82.2017 65.8003 82.393C65.511 82.5797 65.2753 82.862 65.0933 83.24C64.9113 83.6133 64.8203 84.08 64.8203 84.64C64.8203 85.158 64.902 85.6083 65.0653 85.991C65.2333 86.369 65.462 86.663 65.7513 86.873C66.0407 87.083 66.3697 87.188 66.7383 87.188C67.2563 87.188 67.6483 87.062 67.9143 86.81C68.185 86.5533 68.3203 86.1987 68.3203 85.746H69.4403C69.4403 86.2127 69.3307 86.628 69.1113 86.992C68.892 87.356 68.5793 87.643 68.1733 87.853C67.772 88.063 67.2983 88.168 66.7523 88.168ZM75.7631 88L75.6231 86.53V83.66C75.6231 83.058 75.4947 82.6263 75.2381 82.365C74.9814 82.099 74.5964 81.966 74.0831 81.966C73.7937 81.966 73.5301 82.008 73.2921 82.092C73.0587 82.176 72.8721 82.3067 72.7321 82.484C72.5967 82.6567 72.5291 82.8807 72.5291 83.156H71.3111C71.3111 82.6707 71.4301 82.281 71.6681 81.987C71.9061 81.6883 72.2327 81.4737 72.6481 81.343C73.0681 81.2077 73.5464 81.14 74.0831 81.14C74.5964 81.14 75.0514 81.2263 75.4481 81.399C75.8447 81.5717 76.1551 81.847 76.3791 82.225C76.6031 82.5983 76.7151 83.086 76.7151 83.688V88H75.7631ZM73.4811 88.168C72.9304 88.168 72.4754 88.07 72.1161 87.874C71.7567 87.678 71.4884 87.4237 71.3111 87.111C71.1337 86.7983 71.0451 86.4693 71.0451 86.124C71.0451 85.6713 71.1571 85.3027 71.3811 85.018C71.6097 84.7333 71.9201 84.5257 72.3121 84.395C72.7041 84.2597 73.1451 84.192 73.6351 84.192C73.9851 84.192 74.3351 84.227 74.6851 84.297C75.0397 84.367 75.3851 84.4627 75.7211 84.584V85.27C75.4411 85.158 75.1237 85.0693 74.7691 85.004C74.4191 84.9387 74.0971 84.906 73.8031 84.906C73.3551 84.906 72.9771 84.9993 72.6691 85.186C72.3611 85.368 72.2071 85.6807 72.2071 86.124C72.2071 86.4507 72.3237 86.7307 72.5571 86.964C72.7951 87.1973 73.1731 87.314 73.6911 87.314C74.0551 87.314 74.3817 87.23 74.6711 87.062C74.9651 86.8893 75.1961 86.6747 75.3641 86.418C75.5367 86.1613 75.6231 85.9047 75.6231 85.648H75.8891C75.8891 86.096 75.7911 86.5113 75.5951 86.894C75.4037 87.2767 75.1284 87.5847 74.7691 87.818C74.4097 88.0513 73.9804 88.168 73.4811 88.168ZM79.33 88V81.294H80.422V88H79.33ZM80.086 84.976C80.086 84.1267 80.1677 83.422 80.331 82.862C80.4943 82.2973 80.7323 81.8773 81.045 81.602C81.3623 81.322 81.7473 81.182 82.2 81.182C82.3493 81.182 82.4847 81.1937 82.606 81.217C82.732 81.2357 82.858 81.266 82.984 81.308L82.914 82.386C82.7833 82.344 82.641 82.309 82.487 82.281C82.333 82.2483 82.1953 82.232 82.074 82.232C81.6773 82.232 81.3577 82.3463 81.115 82.575C80.8723 82.799 80.695 83.1163 80.583 83.527C80.4757 83.9377 80.422 84.4207 80.422 84.976H80.086ZM86.7126 88.168C86.1339 88.168 85.6159 88.021 85.1586 87.727C84.7059 87.4283 84.3466 87.0153 84.0806 86.488C83.8193 85.9607 83.6886 85.354 83.6886 84.668C83.6886 83.9353 83.8193 83.3053 84.0806 82.778C84.3419 82.2507 84.6989 81.847 85.1516 81.567C85.6089 81.2823 86.1293 81.14 86.7126 81.14C87.2213 81.14 87.6553 81.2427 88.0146 81.448C88.3739 81.6533 88.6633 81.931 88.8826 82.281C89.1019 82.631 89.2536 83.0277 89.3376 83.471C89.4263 83.9097 89.4519 84.3647 89.4146 84.836H84.5706V84.164H88.6936L88.3716 84.374C88.3856 84.0987 88.3693 83.8233 88.3226 83.548C88.2806 83.2727 88.1989 83.0207 88.0776 82.792C87.9563 82.5587 87.7859 82.372 87.5666 82.232C87.3473 82.092 87.0673 82.022 86.7266 82.022C86.2973 82.022 85.9379 82.1317 85.6486 82.351C85.3593 82.5703 85.1423 82.8597 84.9976 83.219C84.8529 83.5737 84.7806 83.9587 84.7806 84.374V84.822C84.7806 85.2887 84.8506 85.7063 84.9906 86.075C85.1353 86.4437 85.3499 86.7353 85.6346 86.95C85.9193 87.1647 86.2786 87.272 86.7126 87.272C87.1466 87.272 87.5036 87.167 87.7836 86.957C88.0636 86.747 88.2339 86.4367 88.2946 86.026H89.4286C89.3586 86.4693 89.1999 86.852 88.9526 87.174C88.7053 87.4913 88.3903 87.7363 88.0076 87.909C87.6249 88.0817 87.1933 88.168 86.7126 88.168ZM95.2663 88V80.272C95.2663 79.8287 95.3503 79.467 95.5183 79.187C95.6909 78.9023 95.9196 78.6923 96.2043 78.557C96.4936 78.4217 96.8156 78.354 97.1703 78.354C97.3616 78.354 97.5553 78.368 97.7513 78.396C97.9519 78.424 98.1503 78.466 98.3463 78.522L98.1363 79.39C97.9963 79.334 97.8563 79.292 97.7163 79.264C97.5809 79.236 97.4503 79.222 97.3243 79.222C97.1749 79.222 97.0256 79.25 96.8763 79.306C96.7269 79.362 96.6033 79.467 96.5053 79.621C96.4073 79.775 96.3583 79.9967 96.3583 80.286V88H95.2663ZM94.1743 82.064V81.308H97.7443V82.064H94.1743ZM102.123 88.168C101.521 88.168 100.984 88.035 100.513 87.769C100.046 87.503 99.6778 87.1087 99.4071 86.586C99.1364 86.0633 99.0011 85.4193 99.0011 84.654C99.0011 83.884 99.1364 83.24 99.4071 82.722C99.6778 82.1993 100.046 81.805 100.513 81.539C100.984 81.273 101.521 81.14 102.123 81.14C102.72 81.14 103.252 81.273 103.719 81.539C104.19 81.805 104.559 82.1993 104.825 82.722C105.096 83.24 105.231 83.884 105.231 84.654C105.231 85.4193 105.096 86.0633 104.825 86.586C104.559 87.1087 104.19 87.503 103.719 87.769C103.252 88.035 102.72 88.168 102.123 88.168ZM102.095 87.216C102.529 87.216 102.898 87.1133 103.201 86.908C103.504 86.698 103.733 86.4017 103.887 86.019C104.046 85.6363 104.125 85.1813 104.125 84.654C104.125 83.856 103.959 83.2283 103.628 82.771C103.297 82.309 102.804 82.078 102.151 82.078C101.712 82.078 101.341 82.183 101.038 82.393C100.739 82.5983 100.511 82.8947 100.352 83.282C100.198 83.6647 100.121 84.122 100.121 84.654C100.121 85.4427 100.287 86.068 100.618 86.53C100.954 86.9873 101.446 87.216 102.095 87.216ZM107.357 88V81.294H108.449V88H107.357ZM108.113 84.976C108.113 84.1267 108.195 83.422 108.358 82.862C108.522 82.2973 108.76 81.8773 109.072 81.602C109.39 81.322 109.775 81.182 110.227 81.182C110.377 81.182 110.512 81.1937 110.633 81.217C110.759 81.2357 110.885 81.266 111.011 81.308L110.941 82.386C110.811 82.344 110.668 82.309 110.514 82.281C110.36 82.2483 110.223 82.232 110.101 82.232C109.705 82.232 109.385 82.3463 109.142 82.575C108.9 82.799 108.722 83.1163 108.61 83.527C108.503 83.9377 108.449 84.4207 108.449 84.976H108.113ZM114.632 81.308H115.85L118.034 87.048H117.782L119.476 81.308H120.596L118.076 89.344C117.866 90.016 117.586 90.534 117.236 90.898C116.886 91.262 116.438 91.444 115.892 91.444C115.598 91.444 115.318 91.402 115.052 91.318C114.791 91.234 114.52 91.1127 114.24 90.954V89.946C114.488 90.142 114.726 90.282 114.954 90.366C115.188 90.45 115.43 90.492 115.682 90.492C115.962 90.492 116.196 90.4033 116.382 90.226C116.574 90.0487 116.732 89.82 116.858 89.54C116.984 89.2647 117.092 88.9753 117.18 88.672L117.376 88L114.632 81.308ZM124.682 88.168C124.08 88.168 123.543 88.035 123.072 87.769C122.605 87.503 122.236 87.1087 121.966 86.586C121.695 86.0633 121.56 85.4193 121.56 84.654C121.56 83.884 121.695 83.24 121.966 82.722C122.236 82.1993 122.605 81.805 123.072 81.539C123.543 81.273 124.08 81.14 124.682 81.14C125.279 81.14 125.811 81.273 126.278 81.539C126.749 81.805 127.118 82.1993 127.384 82.722C127.654 83.24 127.79 83.884 127.79 84.654C127.79 85.4193 127.654 86.0633 127.384 86.586C127.118 87.1087 126.749 87.503 126.278 87.769C125.811 88.035 125.279 88.168 124.682 88.168ZM124.654 87.216C125.088 87.216 125.456 87.1133 125.76 86.908C126.063 86.698 126.292 86.4017 126.446 86.019C126.604 85.6363 126.684 85.1813 126.684 84.654C126.684 83.856 126.518 83.2283 126.187 82.771C125.855 82.309 125.363 82.078 124.71 82.078C124.271 82.078 123.9 82.183 123.597 82.393C123.298 82.5983 123.069 82.8947 122.911 83.282C122.757 83.6647 122.68 84.122 122.68 84.654C122.68 85.4427 122.845 86.068 123.177 86.53C123.513 86.9873 124.005 87.216 124.654 87.216ZM134.466 81.294H135.558V88H134.466V81.294ZM129.72 81.294H130.812V85.466C130.812 86.026 130.947 86.4507 131.218 86.74C131.493 87.0293 131.885 87.174 132.394 87.174C132.814 87.174 133.178 87.062 133.486 86.838C133.799 86.614 134.039 86.306 134.207 85.914C134.38 85.5173 134.466 85.0647 134.466 84.556H134.872C134.872 85.3073 134.762 85.949 134.543 86.481C134.328 87.013 134.023 87.4213 133.626 87.706C133.234 87.986 132.772 88.126 132.24 88.126C131.736 88.126 131.295 88.0327 130.917 87.846C130.539 87.6593 130.245 87.377 130.035 86.999C129.825 86.6163 129.72 86.1333 129.72 85.55V81.294ZM138.393 88V81.294H139.485V88H138.393ZM139.149 84.976C139.149 84.1267 139.23 83.422 139.394 82.862C139.557 82.2973 139.795 81.8773 140.108 81.602C140.425 81.322 140.81 81.182 141.263 81.182C141.412 81.182 141.547 81.1937 141.669 81.217C141.795 81.2357 141.921 81.266 142.047 81.308L141.977 82.386C141.846 82.344 141.704 82.309 141.55 82.281C141.396 82.2483 141.258 82.232 141.137 82.232C140.74 82.232 140.42 82.3463 140.178 82.575C139.935 82.799 139.758 83.1163 139.646 83.527C139.538 83.9377 139.485 84.4207 139.485 84.976H139.149ZM149.811 88.168C149.321 88.168 148.894 88.056 148.53 87.832C148.171 87.608 147.893 87.2813 147.697 86.852C147.501 86.418 147.403 85.8907 147.403 85.27H147.865C147.865 85.6853 147.952 86.0353 148.124 86.32C148.297 86.6047 148.521 86.8217 148.796 86.971C149.076 87.1157 149.373 87.188 149.685 87.188C150.021 87.188 150.343 87.0923 150.651 86.901C150.959 86.705 151.211 86.418 151.407 86.04C151.603 85.662 151.701 85.1953 151.701 84.64C151.701 84.108 151.61 83.653 151.428 83.275C151.251 82.897 151.011 82.6077 150.707 82.407C150.404 82.2063 150.068 82.106 149.699 82.106C149.382 82.106 149.083 82.183 148.803 82.337C148.523 82.491 148.297 82.7173 148.124 83.016C147.952 83.31 147.865 83.674 147.865 84.108H147.403C147.403 83.4593 147.511 82.9157 147.725 82.477C147.94 82.0337 148.232 81.7 148.6 81.476C148.969 81.252 149.382 81.14 149.839 81.14C150.362 81.14 150.85 81.28 151.302 81.56C151.755 81.84 152.121 82.2413 152.401 82.764C152.681 83.2867 152.821 83.912 152.821 84.64C152.821 85.3773 152.679 86.0097 152.394 86.537C152.114 87.0643 151.746 87.468 151.288 87.748C150.831 88.028 150.339 88.168 149.811 88.168ZM146.773 91.29V81.308H147.683L147.865 82.876V91.29H146.773ZM157.287 88.168C156.708 88.168 156.19 88.021 155.733 87.727C155.28 87.4283 154.921 87.0153 154.655 86.488C154.393 85.9607 154.263 85.354 154.263 84.668C154.263 83.9353 154.393 83.3053 154.655 82.778C154.916 82.2507 155.273 81.847 155.726 81.567C156.183 81.2823 156.703 81.14 157.287 81.14C157.795 81.14 158.229 81.2427 158.589 81.448C158.948 81.6533 159.237 81.931 159.457 82.281C159.676 82.631 159.828 83.0277 159.912 83.471C160 83.9097 160.026 84.3647 159.989 84.836H155.145V84.164H159.268L158.946 84.374C158.96 84.0987 158.943 83.8233 158.897 83.548C158.855 83.2727 158.773 83.0207 158.652 82.792C158.53 82.5587 158.36 82.372 158.141 82.232C157.921 82.092 157.641 82.022 157.301 82.022C156.871 82.022 156.512 82.1317 156.223 82.351C155.933 82.5703 155.716 82.8597 155.572 83.219C155.427 83.5737 155.355 83.9587 155.355 84.374V84.822C155.355 85.2887 155.425 85.7063 155.565 86.075C155.709 86.4437 155.924 86.7353 156.209 86.95C156.493 87.1647 156.853 87.272 157.287 87.272C157.721 87.272 158.078 87.167 158.358 86.957C158.638 86.747 158.808 86.4367 158.869 86.026H160.003C159.933 86.4693 159.774 86.852 159.527 87.174C159.279 87.4913 158.964 87.7363 158.582 87.909C158.199 88.0817 157.767 88.168 157.287 88.168ZM164.212 88.168C163.848 88.168 163.522 88.098 163.232 87.958C162.943 87.818 162.714 87.608 162.546 87.328C162.378 87.048 162.294 86.698 162.294 86.278V79.446H163.372V86.25C163.372 86.9407 163.694 87.286 164.338 87.286C164.53 87.286 164.714 87.265 164.891 87.223C165.073 87.181 165.276 87.118 165.5 87.034L165.654 87.818C165.416 87.9207 165.178 88.0047 164.94 88.07C164.707 88.1353 164.464 88.168 164.212 88.168ZM161.216 82.064V81.308H165.486V82.064H161.216ZM169.826 88.168C169.177 88.168 168.636 88.077 168.202 87.895C167.768 87.7083 167.439 87.454 167.215 87.132C166.991 86.8053 166.872 86.432 166.858 86.012H167.908C167.931 86.4367 168.102 86.7563 168.419 86.971C168.741 87.181 169.177 87.286 169.728 87.286C170.017 87.286 170.283 87.2393 170.526 87.146C170.769 87.0527 170.962 86.9243 171.107 86.761C171.252 86.5977 171.324 86.4133 171.324 86.208C171.324 85.9467 171.228 85.7413 171.037 85.592C170.846 85.4427 170.54 85.312 170.12 85.2L168.818 84.78C168.253 84.6027 167.819 84.36 167.516 84.052C167.217 83.7393 167.068 83.366 167.068 82.932C167.068 82.3907 167.306 81.9567 167.782 81.63C168.258 81.3033 168.883 81.14 169.658 81.14C170.479 81.14 171.116 81.308 171.569 81.644C172.022 81.98 172.257 82.4 172.276 82.904H171.198C171.156 82.61 171.007 82.3883 170.75 82.239C170.493 82.085 170.129 82.008 169.658 82.008C169.205 82.008 168.851 82.1107 168.594 82.316C168.342 82.5167 168.216 82.7407 168.216 82.988C168.216 83.45 168.613 83.7907 169.406 84.01L170.736 84.458C171.31 84.6307 171.749 84.857 172.052 85.137C172.36 85.417 172.514 85.774 172.514 86.208C172.514 86.544 172.404 86.8613 172.185 87.16C171.966 87.4587 171.655 87.7013 171.254 87.888C170.853 88.0747 170.377 88.168 169.826 88.168Z" fill="#1B1B1B"/>
</svg>
