<svg width="384" height="108" viewBox="0 0 384 108" fill="none" xmlns="http://www.w3.org/2000/svg">
<path d="M57.1844 27.3873C52.3278 24.7331 46.6938 23.4072 40.2846 23.4072C35.88 23.4072 31.7398 24.4191 27.8685 26.4431C23.995 28.4671 20.7203 31.2681 18.0468 34.8439C15.3733 38.422 13.5834 42.4496 12.6795 46.9312H12.2071L13.4456 25.3521H0.469025V107.777H12.9145V82.3053C12.9145 79.7505 12.6795 76.1928 12.2071 71.6344L11.9721 69.0999H12.4444C13.4659 72.5989 15.3552 75.7523 18.1078 78.5623C20.8604 81.3724 24.1938 83.5839 28.1058 85.1944C32.0177 86.805 36.1376 87.6114 40.4631 87.6114C46.9898 87.6114 52.6623 86.3239 57.4804 83.7488C62.2964 81.1736 66.0049 77.4803 68.5993 72.6644C71.1937 67.8507 72.4932 62.1606 72.4932 55.5963C72.4932 49.032 71.1553 43.4999 68.4818 38.6456C65.8083 33.7912 62.0433 30.037 57.1866 27.3851L57.1844 27.3873ZM57.1844 66.0052C55.2386 68.9327 52.4747 71.1848 48.8972 72.757C45.3175 74.3292 41.1886 75.1153 36.5105 75.1153C31.8324 75.1153 27.4255 74.3202 23.8865 72.7276C20.3474 71.1351 17.6423 68.8649 15.7756 65.9171C13.9066 62.9693 12.9733 59.4703 12.9733 55.4223C12.9733 51.3744 13.9179 47.9454 15.805 45.0156C17.692 42.0881 20.4062 39.8383 23.9452 38.2638C27.4843 36.6917 31.7104 35.9056 36.628 35.9056C41.5456 35.9056 45.4169 36.7007 48.956 38.2932C52.495 39.8857 55.2386 42.1649 57.1844 45.1331C59.1302 48.1013 60.1042 51.6093 60.1042 55.6573C60.1042 59.7052 59.1302 63.0777 57.1844 66.0052Z" fill="black"/>
<path d="M143.261 47.051C143.261 42.4135 141.923 38.2955 139.249 34.6994C136.576 31.1033 132.937 28.3113 128.336 26.328C123.735 24.3424 118.661 23.3508 113.118 23.3508C106.55 23.3508 100.661 24.618 95.4518 27.1547C90.2404 29.6892 86.1522 33.3463 83.1826 38.1216C80.2131 42.8969 78.7283 48.5486 78.7283 55.0723C78.7283 61.5959 80.0843 67.3651 82.7984 72.2579C85.5126 77.1506 89.4246 80.9343 94.5366 83.6065C99.6485 86.2788 105.723 87.616 112.763 87.616C118.309 87.616 123.213 86.7215 127.48 84.9325C131.746 83.1435 135.109 80.679 137.566 77.5324C140.022 74.388 141.448 70.8506 141.842 66.9201L133.053 63.5002C132.463 67.6272 130.388 70.7715 126.829 72.9333C123.269 75.095 118.738 76.177 113.233 76.177C108.553 76.177 104.512 75.3413 101.111 73.672C97.7095 72.0026 95.0835 69.6443 93.2371 66.5971C91.3885 63.5521 90.367 59.9854 90.1704 55.8968H141.665C142.727 52.9489 143.259 50.0011 143.259 47.0532L143.261 47.051ZM131.285 52.3571H90.1726C90.4868 48.6638 91.6077 45.4494 93.5354 42.7162C95.4609 39.9852 98.096 37.8912 101.441 36.4365C104.783 34.9818 108.677 34.2544 113.12 34.2544C116.815 34.2544 120.09 34.853 122.942 36.0525C125.791 37.2519 128.004 38.9122 129.577 41.0356C131.15 43.1589 131.936 45.5375 131.936 48.1691C131.936 49.4657 131.719 50.8617 131.288 52.3548L131.285 52.3571Z" fill="black"/>
<path d="M195.361 64.738C195.951 72.364 192.254 76.177 184.272 76.177C180.457 76.177 177.578 74.9979 175.63 72.6396C173.684 70.2813 172.71 66.4887 172.71 61.2594V37.0261H195.892V25.3521H169.939V24.5864C170.805 23.9584 171.424 23.1113 171.797 22.0519C172.17 20.9902 172.416 19.3096 172.534 17.0101C172.651 14.7105 172.71 11.0647 172.71 6.07257H162.387V18.1599C162.387 20.6762 161.885 22.5037 160.881 23.6422C159.878 24.7829 158.099 25.3521 155.544 25.3521H147.344V37.0261H160.321V61.9077C160.321 70.2791 162.07 76.6469 165.571 81.0111C169.071 85.373 174.733 87.555 182.559 87.555C187.395 87.555 191.456 86.7193 194.74 85.0499C198.024 83.3806 200.471 81.1285 202.085 78.2981C203.696 75.4678 204.503 72.2646 204.503 68.6888C204.503 67.3922 204.424 66.2131 204.268 65.1514L195.361 64.738Z" fill="black"/>
<path d="M271.964 25.3544H254.859C247.112 32.6664 241.184 38.4333 237.075 42.6597C232.967 46.8861 230.036 50.1772 228.287 52.5355C226.537 54.8938 225.387 56.9787 224.836 58.7859H224.246V0.357544H211.8V85.6124H224.246V63.9158L237.753 54.0106L259.284 85.6124H273.558L244.773 48.526L271.967 25.3544H271.964Z" fill="black"/>
<path d="M280.224 25.3544V85.6102H292.729V25.3544C290.645 25.8265 288.559 26.0615 286.475 26.0615C284.392 26.0615 282.346 25.8265 280.222 25.3544H280.224Z" fill="black"/>
<path d="M286.478 3.59668C283.488 3.59668 281.187 4.25627 279.576 5.57094C277.962 6.88787 277.158 8.765 277.158 11.2023C277.158 13.6397 277.962 15.5846 279.576 16.9218C281.187 18.2591 283.488 18.9255 286.478 18.9255C289.467 18.9255 291.766 18.2568 293.379 16.9218C294.991 15.5868 295.797 13.6781 295.797 11.2023C295.797 8.7266 294.991 6.88787 293.379 5.57094C291.766 4.25401 289.465 3.59668 286.478 3.59668Z" fill="black"/>
<path d="M347.516 64.738C348.106 72.364 344.409 76.177 336.427 76.177C332.612 76.177 329.733 74.9979 327.785 72.6396C325.839 70.2813 324.865 66.4887 324.865 61.2594V37.0261H348.047V25.3521H322.094V24.5864C322.96 23.9584 323.579 23.1113 323.952 22.0519C324.325 20.9902 324.571 19.3096 324.689 17.0101C324.806 14.7105 324.865 11.0647 324.865 6.07257H314.542V18.1599C314.542 20.6762 314.04 22.5037 313.036 23.6422C312.033 24.7829 310.254 25.3521 307.699 25.3521H299.499V37.0261H312.476V61.9077C312.476 70.2791 314.225 76.6469 317.726 81.0111C321.226 85.373 326.888 87.555 334.714 87.555C339.55 87.555 343.611 86.7193 346.895 85.0499C350.179 83.3806 352.626 81.1285 354.24 78.2981C355.851 75.4678 356.658 72.2646 356.658 68.6888C356.658 67.3922 356.579 66.2131 356.423 65.1514L347.516 64.738Z" fill="black"/>
<path d="M380.791 74.083C379.178 72.766 376.877 72.1087 373.89 72.1087C370.902 72.1087 368.61 72.7683 367.017 74.083C365.424 75.3999 364.628 77.277 364.628 79.7144C364.628 82.1517 365.424 84.1463 367.017 85.4632C368.61 86.7802 370.9 87.4375 373.89 87.4375C376.879 87.4375 379.228 86.7779 380.821 85.4632C382.414 84.1463 383.21 82.2308 383.21 79.7144C383.21 77.198 382.403 75.3999 380.791 74.083Z" fill="black"/>
</svg>
