<svg width="360" height="160" viewBox="0 0 360 160" fill="none" xmlns="http://www.w3.org/2000/svg">
<rect x="0.5" y="0.5" width="359" height="159" rx="13.5" fill="#EAF1F6" stroke="#5E6073"/>
<path d="M19.5371 56.8438C19.5371 56.6445 19.5059 56.4688 19.4434 56.3164C19.3848 56.1602 19.2793 56.0195 19.127 55.8945C18.9785 55.7695 18.7715 55.6504 18.5059 55.5371C18.2441 55.4238 17.9121 55.3086 17.5098 55.1914C17.0879 55.0664 16.707 54.9277 16.3672 54.7754C16.0273 54.6191 15.7363 54.4414 15.4941 54.2422C15.252 54.043 15.0664 53.8145 14.9375 53.5566C14.8086 53.2988 14.7441 53.0039 14.7441 52.6719C14.7441 52.3398 14.8125 52.0332 14.9492 51.752C15.0859 51.4707 15.2812 51.2266 15.5352 51.0195C15.793 50.8086 16.0996 50.6445 16.4551 50.5273C16.8105 50.4102 17.207 50.3516 17.6445 50.3516C18.2852 50.3516 18.8281 50.4746 19.2734 50.7207C19.7227 50.9629 20.0645 51.2812 20.2988 51.6758C20.5332 52.0664 20.6504 52.4844 20.6504 52.9297H19.5254C19.5254 52.6094 19.457 52.3262 19.3203 52.0801C19.1836 51.8301 18.9766 51.6348 18.6992 51.4941C18.4219 51.3496 18.0703 51.2773 17.6445 51.2773C17.2422 51.2773 16.9102 51.3379 16.6484 51.459C16.3867 51.5801 16.1914 51.7441 16.0625 51.9512C15.9375 52.1582 15.875 52.3945 15.875 52.6602C15.875 52.8398 15.9121 53.0039 15.9863 53.1523C16.0645 53.2969 16.1836 53.4316 16.3438 53.5566C16.5078 53.6816 16.7148 53.7969 16.9648 53.9023C17.2188 54.0078 17.5215 54.1094 17.873 54.207C18.3574 54.3438 18.7754 54.4961 19.127 54.6641C19.4785 54.832 19.7676 55.0215 19.9941 55.2324C20.2246 55.4395 20.3945 55.6758 20.5039 55.9414C20.6172 56.2031 20.6738 56.5 20.6738 56.832C20.6738 57.1797 20.6035 57.4941 20.4629 57.7754C20.3223 58.0566 20.1211 58.2969 19.8594 58.4961C19.5977 58.6953 19.2832 58.8496 18.916 58.959C18.5527 59.0645 18.1465 59.1172 17.6973 59.1172C17.3027 59.1172 16.9141 59.0625 16.5312 58.9531C16.1523 58.8438 15.8066 58.6797 15.4941 58.4609C15.1855 58.2422 14.9375 57.9727 14.75 57.6523C14.5664 57.3281 14.4746 56.9531 14.4746 56.5273H15.5996C15.5996 56.8203 15.6562 57.0723 15.7695 57.2832C15.8828 57.4902 16.0371 57.6621 16.2324 57.7988C16.4316 57.9355 16.6562 58.0371 16.9062 58.1035C17.1602 58.166 17.4238 58.1973 17.6973 58.1973C18.0918 58.1973 18.4258 58.1426 18.6992 58.0332C18.9727 57.9238 19.1797 57.7676 19.3203 57.5645C19.4648 57.3613 19.5371 57.1211 19.5371 56.8438ZM25.8301 57.5352V52.6602H26.9199V59H25.8828L25.8301 57.5352ZM26.0352 56.1992L26.4863 56.1875C26.4863 56.6094 26.4414 57 26.3516 57.3594C26.2656 57.7148 26.125 58.0234 25.9297 58.2852C25.7344 58.5469 25.4785 58.752 25.1621 58.9004C24.8457 59.0449 24.4609 59.1172 24.0078 59.1172C23.6992 59.1172 23.416 59.0723 23.1582 58.9824C22.9043 58.8926 22.6855 58.7539 22.502 58.5664C22.3184 58.3789 22.1758 58.1348 22.0742 57.834C21.9766 57.5332 21.9277 57.1719 21.9277 56.75V52.6602H23.0117V56.7617C23.0117 57.0469 23.043 57.2832 23.1055 57.4707C23.1719 57.6543 23.2598 57.8008 23.3691 57.9102C23.4824 58.0156 23.6074 58.0898 23.7441 58.1328C23.8848 58.1758 24.0293 58.1973 24.1777 58.1973C24.6387 58.1973 25.0039 58.1094 25.2734 57.9336C25.543 57.7539 25.7363 57.5137 25.8535 57.2129C25.9746 56.9082 26.0352 56.5703 26.0352 56.1992ZM28.5664 50H29.6562V57.7695L29.5625 59H28.5664V50ZM33.9395 55.7773V55.9004C33.9395 56.3613 33.8848 56.7891 33.7754 57.1836C33.666 57.5742 33.5059 57.9141 33.2949 58.2031C33.084 58.4922 32.8262 58.7168 32.5215 58.877C32.2168 59.0371 31.8672 59.1172 31.4727 59.1172C31.0703 59.1172 30.7168 59.0488 30.4121 58.9121C30.1113 58.7715 29.8574 58.5703 29.6504 58.3086C29.4434 58.0469 29.2773 57.7305 29.1523 57.3594C29.0312 56.9883 28.9473 56.5703 28.9004 56.1055V55.5664C28.9473 55.0977 29.0312 54.6777 29.1523 54.3066C29.2773 53.9355 29.4434 53.6191 29.6504 53.3574C29.8574 53.0918 30.1113 52.8906 30.4121 52.7539C30.7129 52.6133 31.0625 52.543 31.4609 52.543C31.8594 52.543 32.2129 52.6211 32.5215 52.7773C32.8301 52.9297 33.0879 53.1484 33.2949 53.4336C33.5059 53.7188 33.666 54.0605 33.7754 54.459C33.8848 54.8535 33.9395 55.293 33.9395 55.7773ZM32.8496 55.9004V55.7773C32.8496 55.4609 32.8203 55.1641 32.7617 54.8867C32.7031 54.6055 32.6094 54.3594 32.4805 54.1484C32.3516 53.9336 32.1816 53.7656 31.9707 53.6445C31.7598 53.5195 31.5 53.457 31.1914 53.457C30.918 53.457 30.6797 53.5039 30.4766 53.5977C30.2773 53.6914 30.1074 53.8184 29.9668 53.9785C29.8262 54.1348 29.7109 54.3145 29.6211 54.5176C29.5352 54.7168 29.4707 54.9238 29.4277 55.1387V56.5508C29.4902 56.8242 29.5918 57.0879 29.7324 57.3418C29.877 57.5918 30.0684 57.7969 30.3066 57.957C30.5488 58.1172 30.8477 58.1973 31.2031 58.1973C31.4961 58.1973 31.7461 58.1387 31.9531 58.0215C32.1641 57.9004 32.334 57.7344 32.4629 57.5234C32.5957 57.3125 32.6934 57.0684 32.7559 56.791C32.8184 56.5137 32.8496 56.2168 32.8496 55.9004ZM36.3887 53.9199V59H35.2988V52.6602H36.3301L36.3887 53.9199ZM36.166 55.5898L35.6621 55.5723C35.666 55.1387 35.7227 54.7383 35.832 54.3711C35.9414 54 36.1035 53.6777 36.3184 53.4043C36.5332 53.1309 36.8008 52.9199 37.1211 52.7715C37.4414 52.6191 37.8125 52.543 38.2344 52.543C38.5312 52.543 38.8047 52.5859 39.0547 52.6719C39.3047 52.7539 39.5215 52.8848 39.7051 53.0645C39.8887 53.2441 40.0312 53.4746 40.1328 53.7559C40.2344 54.0371 40.2852 54.377 40.2852 54.7754V59H39.2012V54.8281C39.2012 54.4961 39.1445 54.2305 39.0312 54.0312C38.9219 53.832 38.7656 53.6875 38.5625 53.5977C38.3594 53.5039 38.1211 53.457 37.8477 53.457C37.5273 53.457 37.2598 53.5137 37.0449 53.627C36.8301 53.7402 36.6582 53.8965 36.5293 54.0957C36.4004 54.2949 36.3066 54.5234 36.248 54.7812C36.1934 55.0352 36.166 55.3047 36.166 55.5898ZM40.2734 54.9922L39.5469 55.2148C39.5508 54.8672 39.6074 54.5332 39.7168 54.2129C39.8301 53.8926 39.9922 53.6074 40.2031 53.3574C40.418 53.1074 40.6816 52.9102 40.9941 52.7656C41.3066 52.6172 41.6641 52.543 42.0664 52.543C42.4062 52.543 42.707 52.5879 42.9688 52.6777C43.2344 52.7676 43.457 52.9062 43.6367 53.0938C43.8203 53.2773 43.959 53.5137 44.0527 53.8027C44.1465 54.0918 44.1934 54.4355 44.1934 54.834V59H43.1035V54.8223C43.1035 54.4668 43.0469 54.1914 42.9336 53.9961C42.8242 53.7969 42.668 53.6582 42.4648 53.5801C42.2656 53.498 42.0273 53.457 41.75 53.457C41.5117 53.457 41.3008 53.498 41.1172 53.5801C40.9336 53.6621 40.7793 53.7754 40.6543 53.9199C40.5293 54.0605 40.4336 54.2227 40.3672 54.4062C40.3047 54.5898 40.2734 54.7852 40.2734 54.9922ZM47.0117 52.6602V59H45.9219V52.6602H47.0117ZM45.8398 50.9785C45.8398 50.8027 45.8926 50.6543 45.998 50.5332C46.1074 50.4121 46.2676 50.3516 46.4785 50.3516C46.6855 50.3516 46.8438 50.4121 46.9531 50.5332C47.0664 50.6543 47.123 50.8027 47.123 50.9785C47.123 51.1465 47.0664 51.291 46.9531 51.4121C46.8438 51.5293 46.6855 51.5879 46.4785 51.5879C46.2676 51.5879 46.1074 51.5293 45.998 51.4121C45.8926 51.291 45.8398 51.1465 45.8398 50.9785ZM51.4062 52.6602V53.4922H47.9785V52.6602H51.4062ZM49.1387 51.1191H50.2227V57.4297C50.2227 57.6445 50.2559 57.8066 50.3223 57.916C50.3887 58.0254 50.4746 58.0977 50.5801 58.1328C50.6855 58.168 50.7988 58.1855 50.9199 58.1855C51.0098 58.1855 51.1035 58.1777 51.2012 58.1621C51.3027 58.1426 51.3789 58.127 51.4297 58.1152L51.4355 59C51.3496 59.0273 51.2363 59.0527 51.0957 59.0762C50.959 59.1035 50.793 59.1172 50.5977 59.1172C50.332 59.1172 50.0879 59.0645 49.8652 58.959C49.6426 58.8535 49.4648 58.6777 49.332 58.4316C49.2031 58.1816 49.1387 57.8457 49.1387 57.4238V51.1191ZM59.3926 57.916V54.6523C59.3926 54.4023 59.3418 54.1855 59.2402 54.002C59.1426 53.8145 58.9941 53.6699 58.7949 53.5684C58.5957 53.4668 58.3496 53.416 58.0566 53.416C57.7832 53.416 57.543 53.4629 57.3359 53.5566C57.1328 53.6504 56.9727 53.7734 56.8555 53.9258C56.7422 54.0781 56.6855 54.2422 56.6855 54.418H55.6016C55.6016 54.1914 55.6602 53.9668 55.7773 53.7441C55.8945 53.5215 56.0625 53.3203 56.2812 53.1406C56.5039 52.957 56.7695 52.8125 57.0781 52.707C57.3906 52.5977 57.7383 52.543 58.1211 52.543C58.582 52.543 58.9883 52.6211 59.3398 52.7773C59.6953 52.9336 59.9727 53.1699 60.1719 53.4863C60.375 53.7988 60.4766 54.1914 60.4766 54.6641V57.6172C60.4766 57.8281 60.4941 58.0527 60.5293 58.291C60.5684 58.5293 60.625 58.7344 60.6992 58.9062V59H59.5684C59.5137 58.875 59.4707 58.709 59.4395 58.502C59.4082 58.291 59.3926 58.0957 59.3926 57.916ZM59.5801 55.1562L59.5918 55.918H58.4961C58.1875 55.918 57.9121 55.9434 57.6699 55.9941C57.4277 56.041 57.2246 56.1133 57.0605 56.2109C56.8965 56.3086 56.7715 56.4316 56.6855 56.5801C56.5996 56.7246 56.5566 56.8945 56.5566 57.0898C56.5566 57.2891 56.6016 57.4707 56.6914 57.6348C56.7812 57.7988 56.916 57.9297 57.0957 58.0273C57.2793 58.1211 57.5039 58.168 57.7695 58.168C58.1016 58.168 58.3945 58.0977 58.6484 57.957C58.9023 57.8164 59.1035 57.6445 59.252 57.4414C59.4043 57.2383 59.4863 57.041 59.498 56.8496L59.9609 57.3711C59.9336 57.5352 59.8594 57.7168 59.7383 57.916C59.6172 58.1152 59.4551 58.3066 59.252 58.4902C59.0527 58.6699 58.8145 58.8203 58.5371 58.9414C58.2637 59.0586 57.9551 59.1172 57.6113 59.1172C57.1816 59.1172 56.8047 59.0332 56.4805 58.8652C56.1602 58.6973 55.9102 58.4727 55.7305 58.1914C55.5547 57.9062 55.4668 57.5879 55.4668 57.2363C55.4668 56.8965 55.5332 56.5977 55.666 56.3398C55.7988 56.0781 55.9902 55.8613 56.2402 55.6895C56.4902 55.5137 56.791 55.3809 57.1426 55.291C57.4941 55.2012 57.8867 55.1562 58.3203 55.1562H59.5801ZM66.2422 53.6562V59H65.1582V52.6602H66.2129L66.2422 53.6562ZM68.2227 52.625L68.2168 53.6328C68.127 53.6133 68.041 53.6016 67.959 53.5977C67.8809 53.5898 67.791 53.5859 67.6895 53.5859C67.4395 53.5859 67.2188 53.625 67.0273 53.7031C66.8359 53.7812 66.6738 53.8906 66.541 54.0312C66.4082 54.1719 66.3027 54.3398 66.2246 54.5352C66.1504 54.7266 66.1016 54.9375 66.0781 55.168L65.7734 55.3438C65.7734 54.9609 65.8105 54.6016 65.8848 54.2656C65.9629 53.9297 66.082 53.6328 66.2422 53.375C66.4023 53.1133 66.6055 52.9102 66.8516 52.7656C67.1016 52.6172 67.3984 52.543 67.7422 52.543C67.8203 52.543 67.9102 52.5527 68.0117 52.5723C68.1133 52.5879 68.1836 52.6055 68.2227 52.625ZM71.7383 59.1172C71.2969 59.1172 70.8965 59.043 70.5371 58.8945C70.1816 58.7422 69.875 58.5293 69.6172 58.2559C69.3633 57.9824 69.168 57.6582 69.0312 57.2832C68.8945 56.9082 68.8262 56.498 68.8262 56.0527V55.8066C68.8262 55.291 68.9023 54.832 69.0547 54.4297C69.207 54.0234 69.4141 53.6797 69.6758 53.3984C69.9375 53.1172 70.2344 52.9043 70.5664 52.7598C70.8984 52.6152 71.2422 52.543 71.5977 52.543C72.0508 52.543 72.4414 52.6211 72.7695 52.7773C73.1016 52.9336 73.373 53.1523 73.584 53.4336C73.7949 53.7109 73.9512 54.0391 74.0527 54.418C74.1543 54.793 74.2051 55.2031 74.2051 55.6484V56.1348H69.4707V55.25H73.1211V55.168C73.1055 54.8867 73.0469 54.6133 72.9453 54.3477C72.8477 54.082 72.6914 53.8633 72.4766 53.6914C72.2617 53.5195 71.9688 53.4336 71.5977 53.4336C71.3516 53.4336 71.125 53.4863 70.918 53.5918C70.7109 53.6934 70.5332 53.8457 70.3848 54.0488C70.2363 54.252 70.1211 54.5 70.0391 54.793C69.957 55.0859 69.916 55.4238 69.916 55.8066V56.0527C69.916 56.3535 69.957 56.6367 70.0391 56.9023C70.125 57.1641 70.248 57.3945 70.4082 57.5938C70.5723 57.793 70.7695 57.9492 71 58.0625C71.2344 58.1758 71.5 58.2324 71.7969 58.2324C72.1797 58.2324 72.5039 58.1543 72.7695 57.998C73.0352 57.8418 73.2676 57.6328 73.4668 57.3711L74.123 57.8926C73.9863 58.0996 73.8125 58.2969 73.6016 58.4844C73.3906 58.6719 73.1309 58.8242 72.8223 58.9414C72.5176 59.0586 72.1562 59.1172 71.7383 59.1172ZM79.4609 61.4375V53.8789L79.5547 52.6602H80.5508V61.4375H79.4609ZM75.2012 55.9004V55.7773C75.2012 55.293 75.2578 54.8535 75.3711 54.459C75.4844 54.0605 75.6504 53.7188 75.8691 53.4336C76.0879 53.1484 76.3516 52.9297 76.6602 52.7773C76.9727 52.6211 77.3281 52.543 77.7266 52.543C78.125 52.543 78.4746 52.6133 78.7754 52.7539C79.0801 52.8906 79.3379 53.0918 79.5488 53.3574C79.7637 53.6191 79.9336 53.9355 80.0586 54.3066C80.1836 54.6777 80.2695 55.0977 80.3164 55.5664V56.1055C80.2734 56.5703 80.1895 56.9883 80.0645 57.3594C79.9395 57.7305 79.7695 58.0469 79.5547 58.3086C79.3438 58.5703 79.084 58.7715 78.7754 58.9121C78.4707 59.0488 78.1172 59.1172 77.7148 59.1172C77.3242 59.1172 76.9727 59.0371 76.6602 58.877C76.3516 58.7168 76.0879 58.4922 75.8691 58.2031C75.6543 57.9141 75.4883 57.5742 75.3711 57.1836C75.2578 56.7891 75.2012 56.3613 75.2012 55.9004ZM76.291 55.7773V55.9004C76.291 56.2168 76.3242 56.5156 76.3906 56.7969C76.457 57.0742 76.5586 57.3203 76.6953 57.5352C76.8359 57.75 77.0117 57.9199 77.2227 58.0449C77.4375 58.166 77.6914 58.2266 77.9844 58.2266C78.3438 58.2266 78.6426 58.1484 78.8809 57.9922C79.123 57.8359 79.3164 57.6309 79.4609 57.377C79.6055 57.1191 79.7168 56.8438 79.7949 56.5508V55.1387C79.752 54.9238 79.6836 54.7148 79.5898 54.5117C79.5 54.3086 79.3828 54.127 79.2383 53.9668C79.0938 53.8027 78.918 53.6738 78.7109 53.5801C78.5078 53.4824 78.2695 53.4336 77.9961 53.4336C77.6992 53.4336 77.4434 53.4961 77.2285 53.6211C77.0137 53.7461 76.8359 53.918 76.6953 54.1367C76.5586 54.3516 76.457 54.5996 76.3906 54.8809C76.3242 55.1621 76.291 55.4609 76.291 55.7773ZM86.1699 57.5352V52.6602H87.2598V59H86.2227L86.1699 57.5352ZM86.375 56.1992L86.8262 56.1875C86.8262 56.6094 86.7812 57 86.6914 57.3594C86.6055 57.7148 86.4648 58.0234 86.2695 58.2852C86.0742 58.5469 85.8184 58.752 85.502 58.9004C85.1855 59.0449 84.8008 59.1172 84.3477 59.1172C84.0391 59.1172 83.7559 59.0723 83.498 58.9824C83.2441 58.8926 83.0254 58.7539 82.8418 58.5664C82.6582 58.3789 82.5156 58.1348 82.4141 57.834C82.3164 57.5332 82.2676 57.1719 82.2676 56.75V52.6602H83.3516V56.7617C83.3516 57.0469 83.3828 57.2832 83.4453 57.4707C83.5117 57.6543 83.5996 57.8008 83.709 57.9102C83.8223 58.0156 83.9473 58.0898 84.084 58.1328C84.2246 58.1758 84.3691 58.1973 84.5176 58.1973C84.9785 58.1973 85.3438 58.1094 85.6133 57.9336C85.8828 57.7539 86.0762 57.5137 86.1934 57.2129C86.3145 56.9082 86.375 56.5703 86.375 56.1992ZM91.543 59.1172C91.1016 59.1172 90.7012 59.043 90.3418 58.8945C89.9863 58.7422 89.6797 58.5293 89.4219 58.2559C89.168 57.9824 88.9727 57.6582 88.8359 57.2832C88.6992 56.9082 88.6309 56.498 88.6309 56.0527V55.8066C88.6309 55.291 88.707 54.832 88.8594 54.4297C89.0117 54.0234 89.2188 53.6797 89.4805 53.3984C89.7422 53.1172 90.0391 52.9043 90.3711 52.7598C90.7031 52.6152 91.0469 52.543 91.4023 52.543C91.8555 52.543 92.2461 52.6211 92.5742 52.7773C92.9062 52.9336 93.1777 53.1523 93.3887 53.4336C93.5996 53.7109 93.7559 54.0391 93.8574 54.418C93.959 54.793 94.0098 55.2031 94.0098 55.6484V56.1348H89.2754V55.25H92.9258V55.168C92.9102 54.8867 92.8516 54.6133 92.75 54.3477C92.6523 54.082 92.4961 53.8633 92.2812 53.6914C92.0664 53.5195 91.7734 53.4336 91.4023 53.4336C91.1562 53.4336 90.9297 53.4863 90.7227 53.5918C90.5156 53.6934 90.3379 53.8457 90.1895 54.0488C90.041 54.252 89.9258 54.5 89.8438 54.793C89.7617 55.0859 89.7207 55.4238 89.7207 55.8066V56.0527C89.7207 56.3535 89.7617 56.6367 89.8438 56.9023C89.9297 57.1641 90.0527 57.3945 90.2129 57.5938C90.377 57.793 90.5742 57.9492 90.8047 58.0625C91.0391 58.1758 91.3047 58.2324 91.6016 58.2324C91.9844 58.2324 92.3086 58.1543 92.5742 57.998C92.8398 57.8418 93.0723 57.6328 93.2715 57.3711L93.9277 57.8926C93.791 58.0996 93.6172 58.2969 93.4062 58.4844C93.1953 58.6719 92.9355 58.8242 92.627 58.9414C92.3223 59.0586 91.9609 59.1172 91.543 59.1172ZM98.9668 57.3184C98.9668 57.1621 98.9316 57.0176 98.8613 56.8848C98.7949 56.748 98.6562 56.625 98.4453 56.5156C98.2383 56.4023 97.9258 56.3047 97.5078 56.2227C97.1562 56.1484 96.8379 56.0605 96.5527 55.959C96.2715 55.8574 96.0312 55.7344 95.832 55.5898C95.6367 55.4453 95.4863 55.2754 95.3809 55.0801C95.2754 54.8848 95.2227 54.6562 95.2227 54.3945C95.2227 54.1445 95.2773 53.9082 95.3867 53.6855C95.5 53.4629 95.6582 53.2656 95.8613 53.0938C96.0684 52.9219 96.3164 52.7871 96.6055 52.6895C96.8945 52.5918 97.2168 52.543 97.5723 52.543C98.0801 52.543 98.5137 52.6328 98.873 52.8125C99.2324 52.9922 99.5078 53.2324 99.6992 53.5332C99.8906 53.8301 99.9863 54.1602 99.9863 54.5234H98.9023C98.9023 54.3477 98.8496 54.1777 98.7441 54.0137C98.6426 53.8457 98.4922 53.707 98.293 53.5977C98.0977 53.4883 97.8574 53.4336 97.5723 53.4336C97.2715 53.4336 97.0273 53.4805 96.8398 53.5742C96.6562 53.6641 96.5215 53.7793 96.4355 53.9199C96.3535 54.0605 96.3125 54.209 96.3125 54.3652C96.3125 54.4824 96.332 54.5879 96.3711 54.6816C96.4141 54.7715 96.4883 54.8555 96.5938 54.9336C96.6992 55.0078 96.8477 55.0781 97.0391 55.1445C97.2305 55.2109 97.4746 55.2773 97.7715 55.3438C98.291 55.4609 98.7188 55.6016 99.0547 55.7656C99.3906 55.9297 99.6406 56.1309 99.8047 56.3691C99.9688 56.6074 100.051 56.8965 100.051 57.2363C100.051 57.5137 99.9922 57.7676 99.875 57.998C99.7617 58.2285 99.5957 58.4277 99.377 58.5957C99.1621 58.7598 98.9043 58.8887 98.6035 58.9824C98.3066 59.0723 97.9727 59.1172 97.6016 59.1172C97.043 59.1172 96.5703 59.0176 96.1836 58.8184C95.7969 58.6191 95.5039 58.3613 95.3047 58.0449C95.1055 57.7285 95.0059 57.3945 95.0059 57.043H96.0957C96.1113 57.3398 96.1973 57.5762 96.3535 57.752C96.5098 57.9238 96.7012 58.0469 96.9277 58.1211C97.1543 58.1914 97.3789 58.2266 97.6016 58.2266C97.8984 58.2266 98.1465 58.1875 98.3457 58.1094C98.5488 58.0312 98.7031 57.9238 98.8086 57.7871C98.9141 57.6504 98.9668 57.4941 98.9668 57.3184ZM104.129 52.6602V53.4922H100.701V52.6602H104.129ZM101.861 51.1191H102.945V57.4297C102.945 57.6445 102.979 57.8066 103.045 57.916C103.111 58.0254 103.197 58.0977 103.303 58.1328C103.408 58.168 103.521 58.1855 103.643 58.1855C103.732 58.1855 103.826 58.1777 103.924 58.1621C104.025 58.1426 104.102 58.127 104.152 58.1152L104.158 59C104.072 59.0273 103.959 59.0527 103.818 59.0762C103.682 59.1035 103.516 59.1172 103.32 59.1172C103.055 59.1172 102.811 59.0645 102.588 58.959C102.365 58.8535 102.188 58.6777 102.055 58.4316C101.926 58.1816 101.861 57.8457 101.861 57.4238V51.1191ZM111.031 52.6602V53.4922H107.604V52.6602H111.031ZM108.764 51.1191H109.848V57.4297C109.848 57.6445 109.881 57.8066 109.947 57.916C110.014 58.0254 110.1 58.0977 110.205 58.1328C110.311 58.168 110.424 58.1855 110.545 58.1855C110.635 58.1855 110.729 58.1777 110.826 58.1621C110.928 58.1426 111.004 58.127 111.055 58.1152L111.061 59C110.975 59.0273 110.861 59.0527 110.721 59.0762C110.584 59.1035 110.418 59.1172 110.223 59.1172C109.957 59.1172 109.713 59.0645 109.49 58.959C109.268 58.8535 109.09 58.6777 108.957 58.4316C108.828 58.1816 108.764 57.8457 108.764 57.4238V51.1191ZM111.898 55.9004V55.7656C111.898 55.3086 111.965 54.8848 112.098 54.4941C112.23 54.0996 112.422 53.7578 112.672 53.4688C112.922 53.1758 113.225 52.9492 113.58 52.7891C113.936 52.625 114.334 52.543 114.775 52.543C115.221 52.543 115.621 52.625 115.977 52.7891C116.336 52.9492 116.641 53.1758 116.891 53.4688C117.145 53.7578 117.338 54.0996 117.471 54.4941C117.604 54.8848 117.67 55.3086 117.67 55.7656V55.9004C117.67 56.3574 117.604 56.7812 117.471 57.1719C117.338 57.5625 117.145 57.9043 116.891 58.1973C116.641 58.4863 116.338 58.7129 115.982 58.877C115.631 59.0371 115.232 59.1172 114.787 59.1172C114.342 59.1172 113.941 59.0371 113.586 58.877C113.23 58.7129 112.926 58.4863 112.672 58.1973C112.422 57.9043 112.23 57.5625 112.098 57.1719C111.965 56.7812 111.898 56.3574 111.898 55.9004ZM112.982 55.7656V55.9004C112.982 56.2168 113.02 56.5156 113.094 56.7969C113.168 57.0742 113.279 57.3203 113.428 57.5352C113.58 57.75 113.77 57.9199 113.996 58.0449C114.223 58.166 114.486 58.2266 114.787 58.2266C115.084 58.2266 115.344 58.166 115.566 58.0449C115.793 57.9199 115.98 57.75 116.129 57.5352C116.277 57.3203 116.389 57.0742 116.463 56.7969C116.541 56.5156 116.58 56.2168 116.58 55.9004V55.7656C116.58 55.4531 116.541 55.1582 116.463 54.8809C116.389 54.5996 116.275 54.3516 116.123 54.1367C115.975 53.918 115.787 53.7461 115.561 53.6211C115.338 53.4961 115.076 53.4336 114.775 53.4336C114.479 53.4336 114.217 53.4961 113.99 53.6211C113.768 53.7461 113.58 53.918 113.428 54.1367C113.279 54.3516 113.168 54.5996 113.094 54.8809C113.02 55.1582 112.982 55.4531 112.982 55.7656ZM16.0039 66V75H14.9141V66H16.0039ZM17.457 71.9004V71.7656C17.457 71.3086 17.5234 70.8848 17.6562 70.4941C17.7891 70.0996 17.9805 69.7578 18.2305 69.4688C18.4805 69.1758 18.7832 68.9492 19.1387 68.7891C19.4941 68.625 19.8926 68.543 20.334 68.543C20.7793 68.543 21.1797 68.625 21.5352 68.7891C21.8945 68.9492 22.1992 69.1758 22.4492 69.4688C22.7031 69.7578 22.8965 70.0996 23.0293 70.4941C23.1621 70.8848 23.2285 71.3086 23.2285 71.7656V71.9004C23.2285 72.3574 23.1621 72.7812 23.0293 73.1719C22.8965 73.5625 22.7031 73.9043 22.4492 74.1973C22.1992 74.4863 21.8965 74.7129 21.541 74.877C21.1895 75.0371 20.791 75.1172 20.3457 75.1172C19.9004 75.1172 19.5 75.0371 19.1445 74.877C18.7891 74.7129 18.4844 74.4863 18.2305 74.1973C17.9805 73.9043 17.7891 73.5625 17.6562 73.1719C17.5234 72.7812 17.457 72.3574 17.457 71.9004ZM18.541 71.7656V71.9004C18.541 72.2168 18.5781 72.5156 18.6523 72.7969C18.7266 73.0742 18.8379 73.3203 18.9863 73.5352C19.1387 73.75 19.3281 73.9199 19.5547 74.0449C19.7812 74.166 20.0449 74.2266 20.3457 74.2266C20.6426 74.2266 20.9023 74.166 21.125 74.0449C21.3516 73.9199 21.5391 73.75 21.6875 73.5352C21.8359 73.3203 21.9473 73.0742 22.0215 72.7969C22.0996 72.5156 22.1387 72.2168 22.1387 71.9004V71.7656C22.1387 71.4531 22.0996 71.1582 22.0215 70.8809C21.9473 70.5996 21.834 70.3516 21.6816 70.1367C21.5332 69.918 21.3457 69.7461 21.1191 69.6211C20.8965 69.4961 20.6348 69.4336 20.334 69.4336C20.0371 69.4336 19.7754 69.4961 19.5488 69.6211C19.3262 69.7461 19.1387 69.918 18.9863 70.1367C18.8379 70.3516 18.7266 70.5996 18.6523 70.8809C18.5781 71.1582 18.541 71.4531 18.541 71.7656ZM24.3008 71.9004V71.7656C24.3008 71.3086 24.3672 70.8848 24.5 70.4941C24.6328 70.0996 24.8242 69.7578 25.0742 69.4688C25.3242 69.1758 25.627 68.9492 25.9824 68.7891C26.3379 68.625 26.7363 68.543 27.1777 68.543C27.623 68.543 28.0234 68.625 28.3789 68.7891C28.7383 68.9492 29.043 69.1758 29.293 69.4688C29.5469 69.7578 29.7402 70.0996 29.873 70.4941C30.0059 70.8848 30.0723 71.3086 30.0723 71.7656V71.9004C30.0723 72.3574 30.0059 72.7812 29.873 73.1719C29.7402 73.5625 29.5469 73.9043 29.293 74.1973C29.043 74.4863 28.7402 74.7129 28.3848 74.877C28.0332 75.0371 27.6348 75.1172 27.1895 75.1172C26.7441 75.1172 26.3438 75.0371 25.9883 74.877C25.6328 74.7129 25.3281 74.4863 25.0742 74.1973C24.8242 73.9043 24.6328 73.5625 24.5 73.1719C24.3672 72.7812 24.3008 72.3574 24.3008 71.9004ZM25.3848 71.7656V71.9004C25.3848 72.2168 25.4219 72.5156 25.4961 72.7969C25.5703 73.0742 25.6816 73.3203 25.8301 73.5352C25.9824 73.75 26.1719 73.9199 26.3984 74.0449C26.625 74.166 26.8887 74.2266 27.1895 74.2266C27.4863 74.2266 27.7461 74.166 27.9688 74.0449C28.1953 73.9199 28.3828 73.75 28.5312 73.5352C28.6797 73.3203 28.791 73.0742 28.8652 72.7969C28.9434 72.5156 28.9824 72.2168 28.9824 71.9004V71.7656C28.9824 71.4531 28.9434 71.1582 28.8652 70.8809C28.791 70.5996 28.6777 70.3516 28.5254 70.1367C28.377 69.918 28.1895 69.7461 27.9629 69.6211C27.7402 69.4961 27.4785 69.4336 27.1777 69.4336C26.8809 69.4336 26.6191 69.4961 26.3926 69.6211C26.1699 69.7461 25.9824 69.918 25.8301 70.1367C25.6816 70.3516 25.5703 70.5996 25.4961 70.8809C25.4219 71.1582 25.3848 71.4531 25.3848 71.7656ZM32.5215 66V75H31.4316V66H32.5215ZM36.3945 68.6602L33.6289 71.6191L32.082 73.2246L31.9941 72.0703L33.1016 70.7461L35.0703 68.6602H36.3945ZM35.4043 75L33.1426 71.9766L33.7051 71.0098L36.6816 75H35.4043ZM42.1074 75H41.0234V67.9922C41.0234 67.5352 41.1055 67.1504 41.2695 66.8379C41.4375 66.5215 41.6777 66.2832 41.9902 66.123C42.3027 65.959 42.6738 65.877 43.1035 65.877C43.2285 65.877 43.3535 65.8848 43.4785 65.9004C43.6074 65.916 43.7324 65.9395 43.8535 65.9707L43.7949 66.8555C43.7129 66.8359 43.6191 66.8223 43.5137 66.8145C43.4121 66.8066 43.3105 66.8027 43.209 66.8027C42.9785 66.8027 42.7793 66.8496 42.6113 66.9434C42.4473 67.0332 42.3223 67.166 42.2363 67.3418C42.1504 67.5176 42.1074 67.7344 42.1074 67.9922V75ZM43.4551 68.6602V69.4922H40.0215V68.6602H43.4551ZM44.375 71.9004V71.7656C44.375 71.3086 44.4414 70.8848 44.5742 70.4941C44.707 70.0996 44.8984 69.7578 45.1484 69.4688C45.3984 69.1758 45.7012 68.9492 46.0566 68.7891C46.4121 68.625 46.8105 68.543 47.252 68.543C47.6973 68.543 48.0977 68.625 48.4531 68.7891C48.8125 68.9492 49.1172 69.1758 49.3672 69.4688C49.6211 69.7578 49.8145 70.0996 49.9473 70.4941C50.0801 70.8848 50.1465 71.3086 50.1465 71.7656V71.9004C50.1465 72.3574 50.0801 72.7812 49.9473 73.1719C49.8145 73.5625 49.6211 73.9043 49.3672 74.1973C49.1172 74.4863 48.8145 74.7129 48.459 74.877C48.1074 75.0371 47.709 75.1172 47.2637 75.1172C46.8184 75.1172 46.418 75.0371 46.0625 74.877C45.707 74.7129 45.4023 74.4863 45.1484 74.1973C44.8984 73.9043 44.707 73.5625 44.5742 73.1719C44.4414 72.7812 44.375 72.3574 44.375 71.9004ZM45.459 71.7656V71.9004C45.459 72.2168 45.4961 72.5156 45.5703 72.7969C45.6445 73.0742 45.7559 73.3203 45.9043 73.5352C46.0566 73.75 46.2461 73.9199 46.4727 74.0449C46.6992 74.166 46.9629 74.2266 47.2637 74.2266C47.5605 74.2266 47.8203 74.166 48.043 74.0449C48.2695 73.9199 48.457 73.75 48.6055 73.5352C48.7539 73.3203 48.8652 73.0742 48.9395 72.7969C49.0176 72.5156 49.0566 72.2168 49.0566 71.9004V71.7656C49.0566 71.4531 49.0176 71.1582 48.9395 70.8809C48.8652 70.5996 48.752 70.3516 48.5996 70.1367C48.4512 69.918 48.2637 69.7461 48.0371 69.6211C47.8145 69.4961 47.5527 69.4336 47.252 69.4336C46.9551 69.4336 46.6934 69.4961 46.4668 69.6211C46.2441 69.7461 46.0566 69.918 45.9043 70.1367C45.7559 70.3516 45.6445 70.5996 45.5703 70.8809C45.4961 71.1582 45.459 71.4531 45.459 71.7656ZM52.5898 69.6562V75H51.5059V68.6602H52.5605L52.5898 69.6562ZM54.5703 68.625L54.5645 69.6328C54.4746 69.6133 54.3887 69.6016 54.3066 69.5977C54.2285 69.5898 54.1387 69.5859 54.0371 69.5859C53.7871 69.5859 53.5664 69.625 53.375 69.7031C53.1836 69.7812 53.0215 69.8906 52.8887 70.0312C52.7559 70.1719 52.6504 70.3398 52.5723 70.5352C52.498 70.7266 52.4492 70.9375 52.4258 71.168L52.1211 71.3438C52.1211 70.9609 52.1582 70.6016 52.2324 70.2656C52.3105 69.9297 52.4297 69.6328 52.5898 69.375C52.75 69.1133 52.9531 68.9102 53.1992 68.7656C53.4492 68.6172 53.7461 68.543 54.0898 68.543C54.168 68.543 54.2578 68.5527 54.3594 68.5723C54.4609 68.5879 54.5312 68.6055 54.5703 68.625ZM60.3301 74.3438L62.0938 68.6602H63.2539L60.7109 75.9785C60.6523 76.1348 60.5742 76.3027 60.4766 76.4824C60.3828 76.666 60.2617 76.8398 60.1133 77.0039C59.9648 77.168 59.7852 77.3008 59.5742 77.4023C59.3672 77.5078 59.1191 77.5605 58.8301 77.5605C58.7441 77.5605 58.6348 77.5488 58.502 77.5254C58.3691 77.502 58.2754 77.4824 58.2207 77.4668L58.2148 76.5879C58.2461 76.5918 58.2949 76.5957 58.3613 76.5996C58.4316 76.6074 58.4805 76.6113 58.5078 76.6113C58.7539 76.6113 58.9629 76.5781 59.1348 76.5117C59.3066 76.4492 59.4512 76.3418 59.5684 76.1895C59.6895 76.041 59.793 75.8359 59.8789 75.5742L60.3301 74.3438ZM59.0352 68.6602L60.6816 73.582L60.9629 74.7246L60.1836 75.123L57.8516 68.6602H59.0352ZM63.8516 71.9004V71.7656C63.8516 71.3086 63.918 70.8848 64.0508 70.4941C64.1836 70.0996 64.375 69.7578 64.625 69.4688C64.875 69.1758 65.1777 68.9492 65.5332 68.7891C65.8887 68.625 66.2871 68.543 66.7285 68.543C67.1738 68.543 67.5742 68.625 67.9297 68.7891C68.2891 68.9492 68.5938 69.1758 68.8438 69.4688C69.0977 69.7578 69.291 70.0996 69.4238 70.4941C69.5566 70.8848 69.623 71.3086 69.623 71.7656V71.9004C69.623 72.3574 69.5566 72.7812 69.4238 73.1719C69.291 73.5625 69.0977 73.9043 68.8438 74.1973C68.5938 74.4863 68.291 74.7129 67.9355 74.877C67.584 75.0371 67.1855 75.1172 66.7402 75.1172C66.2949 75.1172 65.8945 75.0371 65.5391 74.877C65.1836 74.7129 64.8789 74.4863 64.625 74.1973C64.375 73.9043 64.1836 73.5625 64.0508 73.1719C63.918 72.7812 63.8516 72.3574 63.8516 71.9004ZM64.9355 71.7656V71.9004C64.9355 72.2168 64.9727 72.5156 65.0469 72.7969C65.1211 73.0742 65.2324 73.3203 65.3809 73.5352C65.5332 73.75 65.7227 73.9199 65.9492 74.0449C66.1758 74.166 66.4395 74.2266 66.7402 74.2266C67.0371 74.2266 67.2969 74.166 67.5195 74.0449C67.7461 73.9199 67.9336 73.75 68.082 73.5352C68.2305 73.3203 68.3418 73.0742 68.416 72.7969C68.4941 72.5156 68.5332 72.2168 68.5332 71.9004V71.7656C68.5332 71.4531 68.4941 71.1582 68.416 70.8809C68.3418 70.5996 68.2285 70.3516 68.0762 70.1367C67.9277 69.918 67.7402 69.7461 67.5137 69.6211C67.291 69.4961 67.0293 69.4336 66.7285 69.4336C66.4316 69.4336 66.1699 69.4961 65.9434 69.6211C65.7207 69.7461 65.5332 69.918 65.3809 70.1367C65.2324 70.3516 65.1211 70.5996 65.0469 70.8809C64.9727 71.1582 64.9355 71.4531 64.9355 71.7656ZM74.8613 73.5352V68.6602H75.9512V75H74.9141L74.8613 73.5352ZM75.0664 72.1992L75.5176 72.1875C75.5176 72.6094 75.4727 73 75.3828 73.3594C75.2969 73.7148 75.1562 74.0234 74.9609 74.2852C74.7656 74.5469 74.5098 74.752 74.1934 74.9004C73.877 75.0449 73.4922 75.1172 73.0391 75.1172C72.7305 75.1172 72.4473 75.0723 72.1895 74.9824C71.9355 74.8926 71.7168 74.7539 71.5332 74.5664C71.3496 74.3789 71.207 74.1348 71.1055 73.834C71.0078 73.5332 70.959 73.1719 70.959 72.75V68.6602H72.043V72.7617C72.043 73.0469 72.0742 73.2832 72.1367 73.4707C72.2031 73.6543 72.291 73.8008 72.4004 73.9102C72.5137 74.0156 72.6387 74.0898 72.7754 74.1328C72.916 74.1758 73.0605 74.1973 73.209 74.1973C73.6699 74.1973 74.0352 74.1094 74.3047 73.9336C74.5742 73.7539 74.7676 73.5137 74.8848 73.2129C75.0059 72.9082 75.0664 72.5703 75.0664 72.1992ZM78.6875 69.6562V75H77.6035V68.6602H78.6582L78.6875 69.6562ZM80.668 68.625L80.6621 69.6328C80.5723 69.6133 80.4863 69.6016 80.4043 69.5977C80.3262 69.5898 80.2363 69.5859 80.1348 69.5859C79.8848 69.5859 79.6641 69.625 79.4727 69.7031C79.2812 69.7812 79.1191 69.8906 78.9863 70.0312C78.8535 70.1719 78.748 70.3398 78.6699 70.5352C78.5957 70.7266 78.5469 70.9375 78.5234 71.168L78.2188 71.3438C78.2188 70.9609 78.2559 70.6016 78.3301 70.2656C78.4082 69.9297 78.5273 69.6328 78.6875 69.375C78.8477 69.1133 79.0508 68.9102 79.2969 68.7656C79.5469 68.6172 79.8438 68.543 80.1875 68.543C80.2656 68.543 80.3555 68.5527 80.457 68.5723C80.5586 68.5879 80.6289 68.6055 80.668 68.625ZM85.7305 69.8789V77.4375H84.6406V68.6602H85.6367L85.7305 69.8789ZM90.002 71.7773V71.9004C90.002 72.3613 89.9473 72.7891 89.8379 73.1836C89.7285 73.5742 89.5684 73.9141 89.3574 74.2031C89.1504 74.4922 88.8945 74.7168 88.5898 74.877C88.2852 75.0371 87.9355 75.1172 87.541 75.1172C87.1387 75.1172 86.7832 75.0508 86.4746 74.918C86.166 74.7852 85.9043 74.5918 85.6895 74.3379C85.4746 74.084 85.3027 73.7793 85.1738 73.4238C85.0488 73.0684 84.9629 72.668 84.916 72.2227V71.5664C84.9629 71.0977 85.0508 70.6777 85.1797 70.3066C85.3086 69.9355 85.4785 69.6191 85.6895 69.3574C85.9043 69.0918 86.1641 68.8906 86.4688 68.7539C86.7734 68.6133 87.125 68.543 87.5234 68.543C87.9219 68.543 88.2754 68.6211 88.584 68.7773C88.8926 68.9297 89.1523 69.1484 89.3633 69.4336C89.5742 69.7188 89.7324 70.0605 89.8379 70.459C89.9473 70.8535 90.002 71.293 90.002 71.7773ZM88.9121 71.9004V71.7773C88.9121 71.4609 88.8789 71.1641 88.8125 70.8867C88.7461 70.6055 88.6426 70.3594 88.502 70.1484C88.3652 69.9336 88.1895 69.7656 87.9746 69.6445C87.7598 69.5195 87.5039 69.457 87.207 69.457C86.9336 69.457 86.6953 69.5039 86.4922 69.5977C86.293 69.6914 86.123 69.8184 85.9824 69.9785C85.8418 70.1348 85.7266 70.3145 85.6367 70.5176C85.5508 70.7168 85.4863 70.9238 85.4434 71.1387V72.6562C85.5215 72.9297 85.6309 73.1875 85.7715 73.4297C85.9121 73.668 86.0996 73.8613 86.334 74.0098C86.5684 74.1543 86.8633 74.2266 87.2188 74.2266C87.5117 74.2266 87.7637 74.166 87.9746 74.0449C88.1895 73.9199 88.3652 73.75 88.502 73.5352C88.6426 73.3203 88.7461 73.0742 88.8125 72.7969C88.8789 72.5156 88.9121 72.2168 88.9121 71.9004ZM94.0156 75.1172C93.5742 75.1172 93.1738 75.043 92.8145 74.8945C92.459 74.7422 92.1523 74.5293 91.8945 74.2559C91.6406 73.9824 91.4453 73.6582 91.3086 73.2832C91.1719 72.9082 91.1035 72.498 91.1035 72.0527V71.8066C91.1035 71.291 91.1797 70.832 91.332 70.4297C91.4844 70.0234 91.6914 69.6797 91.9531 69.3984C92.2148 69.1172 92.5117 68.9043 92.8438 68.7598C93.1758 68.6152 93.5195 68.543 93.875 68.543C94.3281 68.543 94.7188 68.6211 95.0469 68.7773C95.3789 68.9336 95.6504 69.1523 95.8613 69.4336C96.0723 69.7109 96.2285 70.0391 96.3301 70.418C96.4316 70.793 96.4824 71.2031 96.4824 71.6484V72.1348H91.748V71.25H95.3984V71.168C95.3828 70.8867 95.3242 70.6133 95.2227 70.3477C95.125 70.082 94.9688 69.8633 94.7539 69.6914C94.5391 69.5195 94.2461 69.4336 93.875 69.4336C93.6289 69.4336 93.4023 69.4863 93.1953 69.5918C92.9883 69.6934 92.8105 69.8457 92.6621 70.0488C92.5137 70.252 92.3984 70.5 92.3164 70.793C92.2344 71.0859 92.1934 71.4238 92.1934 71.8066V72.0527C92.1934 72.3535 92.2344 72.6367 92.3164 72.9023C92.4023 73.1641 92.5254 73.3945 92.6855 73.5938C92.8496 73.793 93.0469 73.9492 93.2773 74.0625C93.5117 74.1758 93.7773 74.2324 94.0742 74.2324C94.457 74.2324 94.7812 74.1543 95.0469 73.998C95.3125 73.8418 95.5449 73.6328 95.7441 73.3711L96.4004 73.8926C96.2637 74.0996 96.0898 74.2969 95.8789 74.4844C95.668 74.6719 95.4082 74.8242 95.0996 74.9414C94.7949 75.0586 94.4336 75.1172 94.0156 75.1172ZM100.402 68.6602V69.4922H96.9746V68.6602H100.402ZM98.1348 67.1191H99.2188V73.4297C99.2188 73.6445 99.252 73.8066 99.3184 73.916C99.3848 74.0254 99.4707 74.0977 99.5762 74.1328C99.6816 74.168 99.7949 74.1855 99.916 74.1855C100.006 74.1855 100.1 74.1777 100.197 74.1621C100.299 74.1426 100.375 74.127 100.426 74.1152L100.432 75C100.346 75.0273 100.232 75.0527 100.092 75.0762C99.9551 75.1035 99.7891 75.1172 99.5938 75.1172C99.3281 75.1172 99.084 75.0645 98.8613 74.959C98.6387 74.8535 98.4609 74.6777 98.3281 74.4316C98.1992 74.1816 98.1348 73.8457 98.1348 73.4238V67.1191Z" fill="#5E6073"/>
<path d="M15.8 18.696H17.474L23.216 28.002H23.09V18.696H24.494V30H22.928L16.988 20.388H17.204V30H15.8V18.696ZM31.2367 30.216C30.4627 30.216 29.7727 30.045 29.1667 29.703C28.5667 29.361 28.0927 28.854 27.7447 28.182C27.3967 27.51 27.2227 26.682 27.2227 25.698C27.2227 24.708 27.3967 23.88 27.7447 23.214C28.0927 22.542 28.5667 22.035 29.1667 21.693C29.7727 21.351 30.4627 21.18 31.2367 21.18C32.0047 21.18 32.6887 21.351 33.2887 21.693C33.8947 22.035 34.3687 22.542 34.7107 23.214C35.0587 23.88 35.2327 24.708 35.2327 25.698C35.2327 26.682 35.0587 27.51 34.7107 28.182C34.3687 28.854 33.8947 29.361 33.2887 29.703C32.6887 30.045 32.0047 30.216 31.2367 30.216ZM31.2007 28.992C31.7587 28.992 32.2327 28.86 32.6227 28.596C33.0127 28.326 33.3067 27.945 33.5047 27.453C33.7087 26.961 33.8107 26.376 33.8107 25.698C33.8107 24.672 33.5977 23.865 33.1717 23.277C32.7457 22.683 32.1127 22.386 31.2727 22.386C30.7087 22.386 30.2317 22.521 29.8417 22.791C29.4577 23.055 29.1637 23.436 28.9597 23.934C28.7617 24.426 28.6627 25.014 28.6627 25.698C28.6627 26.712 28.8757 27.516 29.3017 28.11C29.7337 28.698 30.3667 28.992 31.2007 28.992ZM42.2379 30V17.724H43.6419V30H42.2379ZM50.3968 30.216C49.6228 30.216 48.9328 30.045 48.3268 29.703C47.7268 29.361 47.2528 28.854 46.9048 28.182C46.5568 27.51 46.3828 26.682 46.3828 25.698C46.3828 24.708 46.5568 23.88 46.9048 23.214C47.2528 22.542 47.7268 22.035 48.3268 21.693C48.9328 21.351 49.6228 21.18 50.3968 21.18C51.1648 21.18 51.8488 21.351 52.4488 21.693C53.0548 22.035 53.5288 22.542 53.8708 23.214C54.2188 23.88 54.3928 24.708 54.3928 25.698C54.3928 26.682 54.2188 27.51 53.8708 28.182C53.5288 28.854 53.0548 29.361 52.4488 29.703C51.8488 30.045 51.1648 30.216 50.3968 30.216ZM50.3608 28.992C50.9188 28.992 51.3928 28.86 51.7828 28.596C52.1728 28.326 52.4668 27.945 52.6648 27.453C52.8688 26.961 52.9708 26.376 52.9708 25.698C52.9708 24.672 52.7578 23.865 52.3318 23.277C51.9058 22.683 51.2728 22.386 50.4328 22.386C49.8688 22.386 49.3918 22.521 49.0018 22.791C48.6178 23.055 48.3238 23.436 48.1198 23.934C47.9218 24.426 47.8228 25.014 47.8228 25.698C47.8228 26.712 48.0358 27.516 48.4618 28.11C48.8938 28.698 49.5268 28.992 50.3608 28.992ZM60.2226 30.216C59.3886 30.216 58.6926 30.099 58.1346 29.865C57.5766 29.625 57.1536 29.298 56.8656 28.884C56.5776 28.464 56.4246 27.984 56.4066 27.444H57.7566C57.7866 27.99 58.0056 28.401 58.4136 28.677C58.8276 28.947 59.3886 29.082 60.0966 29.082C60.4686 29.082 60.8106 29.022 61.1226 28.902C61.4346 28.782 61.6836 28.617 61.8696 28.407C62.0556 28.197 62.1486 27.96 62.1486 27.696C62.1486 27.36 62.0256 27.096 61.7796 26.904C61.5336 26.712 61.1406 26.544 60.6006 26.4L58.9266 25.86C58.2006 25.632 57.6426 25.32 57.2526 24.924C56.8686 24.522 56.6766 24.042 56.6766 23.484C56.6766 22.788 56.9826 22.23 57.5946 21.81C58.2066 21.39 59.0106 21.18 60.0066 21.18C61.0626 21.18 61.8816 21.396 62.4636 21.828C63.0456 22.26 63.3486 22.8 63.3726 23.448H61.9866C61.9326 23.07 61.7406 22.785 61.4106 22.593C61.0806 22.395 60.6126 22.296 60.0066 22.296C59.4246 22.296 58.9686 22.428 58.6386 22.692C58.3146 22.95 58.1526 23.238 58.1526 23.556C58.1526 24.15 58.6626 24.588 59.6826 24.87L61.3926 25.446C62.1306 25.668 62.6946 25.959 63.0846 26.319C63.4806 26.679 63.6786 27.138 63.6786 27.696C63.6786 28.128 63.5376 28.536 63.2556 28.92C62.9736 29.304 62.5746 29.616 62.0586 29.856C61.5426 30.096 60.9306 30.216 60.2226 30.216ZM69.2296 30.216C68.7616 30.216 68.3416 30.126 67.9696 29.946C67.5976 29.766 67.3036 29.496 67.0876 29.136C66.8716 28.776 66.7636 28.326 66.7636 27.786V19.002H68.1496V27.75C68.1496 28.638 68.5636 29.082 69.3916 29.082C69.6376 29.082 69.8746 29.055 70.1026 29.001C70.3366 28.947 70.5976 28.866 70.8856 28.758L71.0836 29.766C70.7776 29.898 70.4716 30.006 70.1656 30.09C69.8656 30.174 69.5536 30.216 69.2296 30.216ZM65.3776 22.368V21.396H70.8676V22.368H65.3776ZM81.5287 30.216C80.8987 30.216 80.3497 30.072 79.8817 29.784C79.4197 29.496 79.0627 29.076 78.8107 28.524C78.5587 27.966 78.4327 27.288 78.4327 26.49H79.0267C79.0267 27.024 79.1377 27.474 79.3597 27.84C79.5817 28.206 79.8697 28.485 80.2237 28.677C80.5837 28.863 80.9647 28.956 81.3667 28.956C81.7987 28.956 82.2127 28.833 82.6087 28.587C83.0047 28.335 83.3287 27.966 83.5807 27.48C83.8327 26.994 83.9587 26.394 83.9587 25.68C83.9587 24.996 83.8417 24.411 83.6077 23.925C83.3797 23.439 83.0707 23.067 82.6807 22.809C82.2907 22.551 81.8587 22.422 81.3847 22.422C80.9767 22.422 80.5927 22.521 80.2327 22.719C79.8727 22.917 79.5817 23.208 79.3597 23.592C79.1377 23.97 79.0267 24.438 79.0267 24.996H78.4327C78.4327 24.162 78.5707 23.463 78.8467 22.899C79.1227 22.329 79.4977 21.9 79.9717 21.612C80.4457 21.324 80.9767 21.18 81.5647 21.18C82.2367 21.18 82.8637 21.36 83.4457 21.72C84.0277 22.08 84.4987 22.596 84.8587 23.268C85.2187 23.94 85.3987 24.744 85.3987 25.68C85.3987 26.628 85.2157 27.441 84.8497 28.119C84.4897 28.797 84.0157 29.316 83.4277 29.676C82.8397 30.036 82.2067 30.216 81.5287 30.216ZM77.6227 34.23V21.396H78.7927L79.0267 23.412V34.23H77.6227ZM91.14 30.216C90.396 30.216 89.73 30.027 89.142 29.649C88.56 29.265 88.098 28.734 87.756 28.056C87.42 27.378 87.252 26.598 87.252 25.716C87.252 24.774 87.42 23.964 87.756 23.286C88.092 22.608 88.551 22.089 89.133 21.729C89.721 21.363 90.39 21.18 91.14 21.18C91.794 21.18 92.352 21.312 92.814 21.576C93.276 21.84 93.648 22.197 93.93 22.647C94.212 23.097 94.407 23.607 94.515 24.177C94.629 24.741 94.662 25.326 94.614 25.932H88.386V25.068H93.687L93.273 25.338C93.291 24.984 93.27 24.63 93.21 24.276C93.156 23.922 93.051 23.598 92.895 23.304C92.739 23.004 92.52 22.764 92.238 22.584C91.956 22.404 91.596 22.314 91.158 22.314C90.606 22.314 90.144 22.455 89.772 22.737C89.4 23.019 89.121 23.391 88.935 23.853C88.749 24.309 88.656 24.804 88.656 25.338V25.914C88.656 26.514 88.746 27.051 88.926 27.525C89.112 27.999 89.388 28.374 89.754 28.65C90.12 28.926 90.582 29.064 91.14 29.064C91.698 29.064 92.157 28.929 92.517 28.659C92.877 28.389 93.096 27.99 93.174 27.462H94.632C94.542 28.032 94.338 28.524 94.02 28.938C93.702 29.346 93.297 29.661 92.805 29.883C92.313 30.105 91.758 30.216 91.14 30.216ZM100.044 30.216C99.5761 30.216 99.1561 30.126 98.7841 29.946C98.4121 29.766 98.1181 29.496 97.9021 29.136C97.6861 28.776 97.5781 28.326 97.5781 27.786V19.002H98.9641V27.75C98.9641 28.638 99.3781 29.082 100.206 29.082C100.452 29.082 100.689 29.055 100.917 29.001C101.151 28.947 101.412 28.866 101.7 28.758L101.898 29.766C101.592 29.898 101.286 30.006 100.98 30.09C100.68 30.174 100.368 30.216 100.044 30.216ZM96.1921 22.368V21.396H101.682V22.368H96.1921ZM108.437 30V21.378H109.841V30H108.437ZM109.409 26.112C109.409 25.02 109.514 24.114 109.724 23.394C109.934 22.668 110.24 22.128 110.642 21.774C111.05 21.414 111.545 21.234 112.127 21.234C112.319 21.234 112.493 21.249 112.649 21.279C112.811 21.303 112.973 21.342 113.135 21.396L113.045 22.782C112.877 22.728 112.694 22.683 112.496 22.647C112.298 22.605 112.121 22.584 111.965 22.584C111.455 22.584 111.044 22.731 110.732 23.025C110.42 23.313 110.192 23.721 110.048 24.249C109.91 24.777 109.841 25.398 109.841 26.112H109.409ZM117.929 30.216C117.185 30.216 116.519 30.027 115.931 29.649C115.349 29.265 114.887 28.734 114.545 28.056C114.209 27.378 114.041 26.598 114.041 25.716C114.041 24.774 114.209 23.964 114.545 23.286C114.881 22.608 115.34 22.089 115.922 21.729C116.51 21.363 117.179 21.18 117.929 21.18C118.583 21.18 119.141 21.312 119.603 21.576C120.065 21.84 120.437 22.197 120.719 22.647C121.001 23.097 121.196 23.607 121.304 24.177C121.418 24.741 121.451 25.326 121.403 25.932H115.175V25.068H120.476L120.062 25.338C120.08 24.984 120.059 24.63 119.999 24.276C119.945 23.922 119.84 23.598 119.684 23.304C119.528 23.004 119.309 22.764 119.027 22.584C118.745 22.404 118.385 22.314 117.947 22.314C117.395 22.314 116.933 22.455 116.561 22.737C116.189 23.019 115.91 23.391 115.724 23.853C115.538 24.309 115.445 24.804 115.445 25.338V25.914C115.445 26.514 115.535 27.051 115.715 27.525C115.901 27.999 116.177 28.374 116.543 28.65C116.909 28.926 117.371 29.064 117.929 29.064C118.487 29.064 118.946 28.929 119.306 28.659C119.666 28.389 119.885 27.99 119.963 27.462H121.421C121.331 28.032 121.127 28.524 120.809 28.938C120.491 29.346 120.086 29.661 119.594 29.883C119.102 30.105 118.547 30.216 117.929 30.216ZM127.175 30.216C126.491 30.216 125.852 30.036 125.258 29.676C124.67 29.316 124.193 28.797 123.827 28.119C123.467 27.441 123.287 26.628 123.287 25.68C123.287 24.744 123.467 23.94 123.827 23.268C124.187 22.596 124.658 22.08 125.24 21.72C125.828 21.36 126.455 21.18 127.121 21.18C127.709 21.18 128.24 21.324 128.714 21.612C129.194 21.9 129.572 22.329 129.848 22.899C130.13 23.463 130.271 24.162 130.271 24.996H129.659C129.659 24.438 129.548 23.97 129.326 23.592C129.104 23.208 128.813 22.917 128.453 22.719C128.093 22.521 127.709 22.422 127.301 22.422C126.833 22.422 126.404 22.551 126.014 22.809C125.624 23.067 125.312 23.439 125.078 23.925C124.844 24.411 124.727 24.996 124.727 25.68C124.727 26.394 124.85 26.994 125.096 27.48C125.348 27.966 125.672 28.335 126.068 28.587C126.464 28.833 126.881 28.956 127.319 28.956C127.715 28.956 128.09 28.863 128.444 28.677C128.804 28.491 129.095 28.215 129.317 27.849C129.545 27.483 129.659 27.03 129.659 26.49H130.073C130.073 27.234 129.962 27.885 129.74 28.443C129.518 29.001 129.191 29.436 128.759 29.748C128.327 30.06 127.799 30.216 127.175 30.216ZM131.891 34.428C131.075 34.2 130.499 33.849 130.163 33.375C129.827 32.901 129.659 32.232 129.659 31.368V23.412L130.091 21.396H131.045V31.458C131.045 31.866 131.084 32.187 131.162 32.421C131.24 32.655 131.375 32.838 131.567 32.97C131.759 33.108 132.023 33.234 132.359 33.348L131.891 34.428ZM140.566 21.378H141.97V30H140.566V21.378ZM134.464 21.378H135.868V26.742C135.868 27.462 136.042 28.008 136.39 28.38C136.744 28.752 137.248 28.938 137.902 28.938C138.442 28.938 138.91 28.794 139.306 28.506C139.708 28.218 140.017 27.822 140.233 27.318C140.455 26.808 140.566 26.226 140.566 25.572H141.088C141.088 26.538 140.947 27.363 140.665 28.047C140.389 28.731 139.996 29.256 139.486 29.622C138.982 29.982 138.388 30.162 137.704 30.162C137.056 30.162 136.489 30.042 136.003 29.802C135.517 29.562 135.139 29.199 134.869 28.713C134.599 28.221 134.464 27.6 134.464 26.85V21.378ZM148.603 30.216C147.859 30.216 147.193 30.027 146.605 29.649C146.023 29.265 145.561 28.734 145.219 28.056C144.883 27.378 144.715 26.598 144.715 25.716C144.715 24.774 144.883 23.964 145.219 23.286C145.555 22.608 146.014 22.089 146.596 21.729C147.184 21.363 147.853 21.18 148.603 21.18C149.257 21.18 149.815 21.312 150.277 21.576C150.739 21.84 151.111 22.197 151.393 22.647C151.675 23.097 151.87 23.607 151.978 24.177C152.092 24.741 152.125 25.326 152.077 25.932H145.849V25.068H151.15L150.736 25.338C150.754 24.984 150.733 24.63 150.673 24.276C150.619 23.922 150.514 23.598 150.358 23.304C150.202 23.004 149.983 22.764 149.701 22.584C149.419 22.404 149.059 22.314 148.621 22.314C148.069 22.314 147.607 22.455 147.235 22.737C146.863 23.019 146.584 23.391 146.398 23.853C146.212 24.309 146.119 24.804 146.119 25.338V25.914C146.119 26.514 146.209 27.051 146.389 27.525C146.575 27.999 146.851 28.374 147.217 28.65C147.583 28.926 148.045 29.064 148.603 29.064C149.161 29.064 149.62 28.929 149.98 28.659C150.34 28.389 150.559 27.99 150.637 27.462H152.095C152.005 28.032 151.801 28.524 151.483 28.938C151.165 29.346 150.76 29.661 150.268 29.883C149.776 30.105 149.221 30.216 148.603 30.216ZM157.957 30.216C157.123 30.216 156.427 30.099 155.869 29.865C155.311 29.625 154.888 29.298 154.6 28.884C154.312 28.464 154.159 27.984 154.141 27.444H155.491C155.521 27.99 155.74 28.401 156.148 28.677C156.562 28.947 157.123 29.082 157.831 29.082C158.203 29.082 158.545 29.022 158.857 28.902C159.169 28.782 159.418 28.617 159.604 28.407C159.79 28.197 159.883 27.96 159.883 27.696C159.883 27.36 159.76 27.096 159.514 26.904C159.268 26.712 158.875 26.544 158.335 26.4L156.661 25.86C155.935 25.632 155.377 25.32 154.987 24.924C154.603 24.522 154.411 24.042 154.411 23.484C154.411 22.788 154.717 22.23 155.329 21.81C155.941 21.39 156.745 21.18 157.741 21.18C158.797 21.18 159.616 21.396 160.198 21.828C160.78 22.26 161.083 22.8 161.107 23.448H159.721C159.667 23.07 159.475 22.785 159.145 22.593C158.815 22.395 158.347 22.296 157.741 22.296C157.159 22.296 156.703 22.428 156.373 22.692C156.049 22.95 155.887 23.238 155.887 23.556C155.887 24.15 156.397 24.588 157.417 24.87L159.127 25.446C159.865 25.668 160.429 25.959 160.819 26.319C161.215 26.679 161.413 27.138 161.413 27.696C161.413 28.128 161.272 28.536 160.99 28.92C160.708 29.304 160.309 29.616 159.793 29.856C159.277 30.096 158.665 30.216 157.957 30.216ZM166.964 30.216C166.496 30.216 166.076 30.126 165.704 29.946C165.332 29.766 165.038 29.496 164.822 29.136C164.606 28.776 164.498 28.326 164.498 27.786V19.002H165.884V27.75C165.884 28.638 166.298 29.082 167.126 29.082C167.372 29.082 167.609 29.055 167.837 29.001C168.071 28.947 168.332 28.866 168.62 28.758L168.818 29.766C168.512 29.898 168.206 30.006 167.9 30.09C167.6 30.174 167.288 30.216 166.964 30.216ZM163.112 22.368V21.396H168.602V22.368H163.112ZM174.182 30.216C173.348 30.216 172.652 30.099 172.094 29.865C171.536 29.625 171.113 29.298 170.825 28.884C170.537 28.464 170.384 27.984 170.366 27.444H171.716C171.746 27.99 171.965 28.401 172.373 28.677C172.787 28.947 173.348 29.082 174.056 29.082C174.428 29.082 174.77 29.022 175.082 28.902C175.394 28.782 175.643 28.617 175.829 28.407C176.015 28.197 176.108 27.96 176.108 27.696C176.108 27.36 175.985 27.096 175.739 26.904C175.493 26.712 175.1 26.544 174.56 26.4L172.886 25.86C172.16 25.632 171.602 25.32 171.212 24.924C170.828 24.522 170.636 24.042 170.636 23.484C170.636 22.788 170.942 22.23 171.554 21.81C172.166 21.39 172.97 21.18 173.966 21.18C175.022 21.18 175.841 21.396 176.423 21.828C177.005 22.26 177.308 22.8 177.332 23.448H175.946C175.892 23.07 175.7 22.785 175.37 22.593C175.04 22.395 174.572 22.296 173.966 22.296C173.384 22.296 172.928 22.428 172.598 22.692C172.274 22.95 172.112 23.238 172.112 23.556C172.112 24.15 172.622 24.588 173.642 24.87L175.352 25.446C176.09 25.668 176.654 25.959 177.044 26.319C177.44 26.679 177.638 27.138 177.638 27.696C177.638 28.128 177.497 28.536 177.215 28.92C176.933 29.304 176.534 29.616 176.018 29.856C175.502 30.096 174.89 30.216 174.182 30.216Z" fill="#1B1B1B"/>
<mask id="mask0_434_3724" style="mask-type:alpha" maskUnits="userSpaceOnUse" x="0" y="0" width="360" height="160">
<rect x="0.5" y="0.5" width="359" height="159" rx="13.5" fill="#EAF1F6" stroke="#5E6073"/>
</mask>
<g mask="url(#mask0_434_3724)">
<path d="M224.679 157.317C224.679 157.317 219.696 158.857 233.297 159.331C246.897 159.805 318.826 160.042 326.271 159.331C333.657 158.62 348.078 159.035 328.967 157.317C309.857 155.599 290.16 156.606 270.932 155.599C251.704 154.533 227.61 155.54 224.679 157.317Z" fill="#838D94"/>
<path d="M240.507 109.808C240.507 109.808 252.114 146.003 253.345 151.156C253.345 151.156 247.425 151.926 247.483 157.495H256.159C257.039 157.495 258.68 152.874 258.68 152.874C258.68 152.874 257.508 117.923 258.68 110.4C259.853 102.877 240.507 103.765 240.507 109.808Z" fill="#ADBFC9"/>
<mask id="mask1_434_3724" style="mask-type:luminance" maskUnits="userSpaceOnUse" x="240" y="105" width="19" height="22">
<path d="M258.68 110.341C258.27 113.066 258.152 119.464 258.152 126.454C250.59 118.397 243.087 117.923 243.087 117.923C241.563 113.125 240.507 109.808 240.507 109.808C240.507 103.765 259.853 102.877 258.68 110.341Z" fill="white"/>
</mask>
<g mask="url(#mask1_434_3724)">
<path d="M246.135 114.488L246.193 114.191C246.252 114.31 246.193 114.369 246.135 114.488Z" fill="#838D94"/>
<path d="M251.528 117.331C251.587 117.39 251.587 117.509 251.587 117.687L251.528 117.331Z" fill="#838D94"/>
<path d="M250.767 118.456C250.767 118.516 250.708 118.575 250.708 118.575C250.708 118.516 250.767 118.516 250.767 118.456Z" fill="#838D94"/>
<path d="M256.511 115.613H256.57V115.672C256.57 115.791 256.57 115.672 256.511 115.613Z" fill="#838D94"/>
<path d="M256.335 116.028L256.394 116.086C256.394 116.047 256.374 116.028 256.335 116.028Z" fill="#838D94"/>
<path d="M256.16 114.725C256.16 114.784 256.16 114.902 256.218 115.021C256.16 114.902 256.101 114.902 256.16 114.725Z" fill="#838D94"/>
<path d="M244.318 113.718C244.26 113.658 244.26 113.599 244.201 113.54C244.377 113.48 244.377 113.599 244.318 113.718Z" fill="#838D94"/>
<path d="M254.811 115.672C254.694 116.561 254.987 115.732 254.929 116.62C254.87 116.442 254.811 116.265 254.694 116.739C254.753 117.213 254.929 116.739 254.87 117.449L254.753 117.153C254.635 117.509 254.694 118.101 254.635 118.042C254.635 116.976 254.166 118.397 253.991 118.22L254.049 118.338L253.756 118.812V118.871V118.693C253.58 119.167 253.404 119.523 253.229 119.404C253.229 118.812 252.642 119.108 252.642 118.634C252.701 118.812 252.76 118.812 252.877 118.693L252.935 117.983C252.76 117.983 252.818 118.634 252.701 118.16C252.877 117.213 252.935 118.22 253.053 118.101C253.053 117.864 252.994 117.686 252.935 117.568C253.17 117.568 253.463 117.272 253.522 118.22C253.639 118.042 253.639 117.627 253.58 117.509C253.697 118.101 253.756 116.976 253.873 117.509C253.932 116.62 253.58 117.035 253.463 116.502C253.17 117.153 252.935 116.502 252.701 116.324C252.584 116.976 252.701 117.568 252.525 117.923C252.232 118.338 252.349 117.568 252.232 117.153C251.997 117.331 252.056 118.22 251.763 118.22L251.88 118.693C251.587 119.582 251.763 118.279 251.646 118.457C251.704 118.22 251.763 117.983 251.88 118.042C251.939 117.686 251.88 117.568 251.822 117.509H251.88C251.88 117.035 251.939 116.561 251.763 116.798C251.763 117.331 251.528 117.153 251.47 117.39V117.509C251.353 117.331 251.235 117.331 251.177 117.272V117.39C251.118 117.153 251.235 116.502 251.06 116.62C251.001 116.916 251.06 117.627 250.942 117.509C250.884 117.923 251.06 117.983 251.235 117.864C251.06 117.983 250.884 118.634 251.06 118.693C250.942 119.167 250.942 118.457 250.825 118.634C250.884 118.457 250.884 118.279 250.884 118.16C250.766 118.871 250.532 118.16 250.649 117.686L250.766 118.101C250.884 117.568 250.766 117.153 250.884 116.857C250.649 117.686 250.532 116.324 250.297 117.035L250.473 116.62C250.063 116.857 250.004 115.732 249.711 115.435C249.77 115.732 249.535 116.679 249.828 116.383C249.477 116.502 249.535 117.272 249.301 117.746C248.949 118.042 249.359 116.857 249.359 116.502L249.477 116.739C249.535 115.613 248.773 116.798 248.597 116.028C248.48 116.324 248.597 116.205 248.656 116.324C248.363 116.857 248.539 116.146 248.48 115.909C248.304 115.969 248.011 116.146 247.953 116.857C247.718 116.976 248.07 116.442 248.07 116.205L248.011 116.324L248.07 115.495C247.835 115.672 247.542 115.969 247.308 116.62C247.015 116.383 247.659 115.021 247.484 114.724C247.249 115.021 247.366 115.258 247.308 115.495L247.132 115.376C246.956 116.146 247.249 115.85 247.015 116.739C247.073 115.791 246.839 116.383 246.78 115.732L246.839 115.672C246.897 115.021 246.546 115.376 246.428 115.198C246.37 115.554 246.546 115.672 246.604 115.85C246.311 116.087 246.018 115.672 246.135 114.843C246.018 114.902 245.666 115.139 245.725 115.554C245.373 115.554 245.959 114.428 245.608 114.547L245.373 115.139C244.728 115.85 245.021 114.191 244.435 114.784L244.728 114.073C244.552 114.369 244.377 114.428 244.201 114.665L244.259 114.961C243.908 115.495 244.318 114.31 244.025 114.665C244.142 114.428 244.435 114.014 244.552 113.777C245.021 114.488 246.018 113.658 246.37 114.606C246.311 114.665 246.253 114.784 246.194 114.902C246.311 114.784 246.37 115.021 246.487 114.606V114.547C246.604 114.784 247.015 113.954 247.132 113.954C247.015 114.488 247.542 113.836 247.19 114.665L247.484 114.191C247.425 114.488 247.249 114.902 247.308 115.08C247.425 115.021 247.542 114.724 247.542 114.488C248.07 114.31 248.539 114.547 248.949 114.961V114.547C249.125 114.369 249.184 115.376 249.301 114.31C249.418 114.784 249.946 114.191 249.711 115.258C250.122 114.251 250.356 114.961 250.591 115.139C250.356 116.028 250.766 115.435 250.766 115.909C250.942 115.198 250.649 115.139 250.766 114.665C250.884 115.85 251.763 114.014 251.587 115.909C251.646 115.85 251.646 115.791 251.646 115.672C251.704 115.672 251.822 115.376 251.939 115.317C251.939 115.672 251.763 115.791 251.88 115.909C251.997 115.85 252.056 115.317 252.115 115.139C252.291 115.613 252.584 115.85 252.525 116.561C252.642 116.383 252.76 115.969 252.701 115.791C252.994 116.442 253.053 115.732 253.346 116.146C253.229 116.087 253.404 115.376 253.17 115.613C253.463 114.606 253.697 115.85 254.049 115.376L254.108 116.087C254.284 116.205 254.342 115.554 254.284 115.317C254.635 114.961 254.753 115.376 254.987 115.376C254.987 115.317 254.987 115.139 254.987 115.198H255.339C255.339 115.376 255.456 115.732 255.398 116.146C255.046 115.672 254.987 115.435 254.811 115.672Z" fill="#838D94"/>
<path d="M251.587 118.575C251.646 118.397 251.704 118.338 251.704 118.279C251.646 118.397 251.646 118.516 251.587 118.575Z" fill="#838D94"/>
<path d="M258.212 117.45C258.153 118.516 257.977 117.272 257.86 117.568C257.977 117.746 257.918 118.338 257.918 118.634C257.801 117.272 257.684 118.931 257.391 118.634C257.391 119.049 257.508 119.167 257.508 119.641C257.332 119.286 257.039 119.108 257.039 118.338C256.746 118.279 256.511 118.575 256.336 118.397C256.57 118.694 256.336 119.167 256.453 119.819C256.277 118.931 255.808 117.864 255.574 116.798C255.456 117.627 255.456 117.687 255.398 118.457C254.987 118.99 255.339 117.687 254.987 117.923L255.163 117.805C255.046 117.568 255.105 116.798 255.105 116.206L255.515 116.324C255.574 115.732 255.28 115.85 255.222 115.672C255.163 114.962 255.456 115.198 255.456 114.665C255.456 115.139 255.632 114.962 255.749 115.198L255.808 114.902C255.984 114.606 256.042 115.376 256.218 115.376V115.198C256.277 115.554 256.277 115.969 256.394 116.087L256.336 116.028C256.453 116.739 256.746 117.213 256.453 117.983L256.863 117.805C256.863 117.035 256.863 115.791 256.629 115.672V115.317C256.805 114.902 257.098 115.969 256.922 116.62C256.98 118.516 257.567 116.739 257.801 117.509C257.86 116.976 257.684 116.798 257.625 116.442C257.567 116.383 257.449 116.383 257.449 116.798C257.098 116.502 257.567 115.139 257.156 115.317C256.922 115.554 257.391 116.146 257.039 116.206L256.922 114.784C257.098 114.843 257.274 115.08 257.391 115.258C257.801 115.791 258.153 115.791 258.446 115.732C258.68 115.672 258.856 115.435 258.856 115.435C259.501 115.495 260.087 115.613 260.732 115.672L262.608 115.791C263.018 115.969 263.136 115.909 263.429 117.331C263.37 117.627 263.077 117.509 263.253 117.983C263.194 117.45 263.018 117.153 262.784 117.213C262.784 117.746 263.018 117.45 262.96 117.568L262.901 117.627C262.96 117.864 262.96 118.042 263.077 118.101C262.901 118.871 262.432 118.753 262.198 117.746C262.022 118.279 262.374 118.575 262.491 118.931C261.787 119.345 261.318 119.286 260.615 119.404C260.556 118.516 260.556 118.812 260.439 118.22L260.381 118.575C260.381 118.397 260.322 117.805 260.439 117.568C260.029 118.279 259.97 116.324 259.677 115.969V116.442C259.443 116.383 259.384 116.324 259.208 116.087C258.856 116.976 259.501 116.206 259.443 117.39L259.267 117.213C259.325 117.687 259.384 118.457 259.501 118.812C259.149 118.042 258.974 119.108 258.622 118.516C258.68 119.049 258.974 119.464 259.091 119.523C258.974 119.582 258.739 119.167 258.68 119.701V119.049C258.446 118.99 258.68 119.641 258.622 120.115C258.094 119.878 258.622 117.864 258.212 117.45Z" fill="#838D94"/>
<path d="M252.818 117.39C252.877 117.331 252.936 117.39 252.995 117.45C252.936 117.45 252.877 117.45 252.818 117.39Z" fill="#838D94"/>
<path d="M253.696 119.7C253.755 119.404 253.696 119.404 253.696 118.99C253.755 119.227 253.931 119.286 253.696 119.7Z" fill="#838D94"/>
<path d="M240.39 113.777C240.273 113.658 240.448 113.125 240.741 112.829L240.8 113.421C240.741 113.362 240.624 113.243 240.39 113.777Z" fill="#838D94"/>
<path d="M240.625 113.895C240.859 113.658 241.27 113.125 241.094 113.718C240.977 113.54 240.566 114.369 240.625 113.895Z" fill="#838D94"/>
<path d="M242.031 113.954L241.562 114.132C241.152 114.843 241.621 114.428 241.504 114.784C241.152 114.784 241.387 114.606 241.387 114.073C241.269 114.073 241.387 113.658 241.387 113.421C241.445 114.251 242.383 112.533 242.031 113.954Z" fill="#838D94"/>
<path d="M241.035 114.369L241.152 114.073V114.369H241.035Z" fill="#838D94"/>
<path d="M243.087 113.54C243.673 112.77 243.204 114.191 243.615 113.895C243.615 113.836 243.673 113.777 243.673 113.658L243.79 113.836L243.908 113.658C243.673 114.191 243.79 114.488 243.673 114.902C243.263 115.376 243.849 114.191 243.439 114.725C243.38 114.961 243.263 115.376 243.204 115.554C243.204 115.258 243.321 114.902 243.38 114.606C243.263 114.488 243.204 114.784 243.087 115.021C243.087 114.665 243.439 113.895 243.146 114.014C242.794 114.428 242.911 114.784 242.735 114.488C243.204 113.717 242.442 114.488 242.618 113.954C242.384 114.014 242.032 114.488 241.915 114.784C242.208 114.132 242.325 113.54 242.325 113.303V113.954L242.794 113.244C242.794 113.658 242.911 113.658 243.087 113.658V113.54Z" fill="#838D94"/>
<path d="M243.204 115.554V115.732C243.145 115.732 243.145 115.672 243.204 115.554Z" fill="#838D94"/>
<path d="M241.797 114.902V115.08L241.621 115.258L241.797 114.902Z" fill="#838D94"/>
<path d="M243.087 116.146C243.028 116.146 243.146 115.909 243.205 115.909L243.087 116.265V116.146Z" fill="#838D94"/>
<path d="M243.497 115.732L243.79 115.376L243.673 115.732H243.497Z" fill="#838D94"/>
<path d="M247.718 116.739C247.484 116.976 247.659 116.442 247.777 116.028C247.953 115.968 247.601 116.502 247.718 116.739Z" fill="#838D94"/>
<path d="M250.18 118.101C249.945 118.457 249.945 117.864 249.77 117.864C249.945 117.568 250.121 117.805 250.18 118.101Z" fill="#838D94"/>
<path d="M251.001 120.174C251.001 119.997 250.942 119.878 251.06 119.819V118.812C251.353 118.516 251.06 119.76 251.001 120.174Z" fill="#838D94"/>
<path d="M252.29 120.53L252.114 120.115H252.231C252.231 119.701 252.231 119.523 252.173 119.167C252.349 119.404 252.466 119.819 252.29 120.53Z" fill="#838D94"/>
<path d="M252.056 118.99L252.115 119.049C252.056 119.168 252.056 119.286 252.056 118.99Z" fill="#838D94"/>
<path d="M252.232 119.049V119.168C252.173 119.108 252.173 119.049 252.114 119.049C252.173 118.99 252.173 118.871 252.232 119.049Z" fill="#838D94"/>
<path d="M252.524 120.056L252.876 120.234L252.7 120.411C252.818 119.819 252.524 120.767 252.524 120.056Z" fill="#838D94"/>
<path d="M254.577 119.819L254.694 119.227C254.928 119.108 255.104 120.411 255.339 119.464C255.222 119.819 255.456 120.174 255.163 120.293C255.104 119.76 254.753 119.641 254.577 119.819Z" fill="#838D94"/>
<path d="M255.515 118.99C255.515 118.812 255.573 118.693 255.573 118.516C255.632 118.456 255.749 118.753 255.691 118.99C255.691 118.16 255.573 119.464 255.515 118.99Z" fill="#838D94"/>
<path d="M256.628 119.108C256.57 119.108 256.452 119.049 256.57 118.871C256.746 118.93 256.687 119.582 256.746 119.997C256.57 120.352 256.452 119.404 256.628 119.108Z" fill="#838D94"/>
<path d="M258.329 114.665C258.27 115.198 258.153 115.139 258.094 114.902C258.153 115.021 258.27 114.902 258.329 114.665Z" fill="#838D94"/>
<path d="M258.27 118.99L258.211 119.108L258.152 118.338L258.27 118.99Z" fill="#838D94"/>
</g>
<path d="M327.033 74.5607C327.033 74.5607 335.709 66.5634 338.347 54.0048C340.985 41.4462 332.016 36.5886 324.864 39.2543C316.774 42.2163 316.423 52.1684 315.426 57.0852C314.781 60.2841 312.612 58.5069 312.378 57.9145C311.557 55.7227 312.553 29.9538 332.25 33.6266C344.209 35.8777 346.495 46.6592 344.854 55.1303C343.213 63.6015 338.288 72.5465 331.664 78.9443C326.974 83.4465 327.033 74.5607 327.033 74.5607Z" fill="#ADBFC9"/>
<mask id="mask2_434_3724" style="mask-type:luminance" maskUnits="userSpaceOnUse" x="327" y="68" width="13" height="13">
<path d="M339.871 68.2812C337.643 72.1909 334.829 75.8637 331.664 78.9442C327.033 83.4463 327.091 74.5605 327.091 74.5605C327.091 74.5605 328.909 72.9018 331.136 69.8806C332.778 69.9991 335.474 69.7621 339.871 68.2812Z" fill="white"/>
</mask>
<g mask="url(#mask2_434_3724)">
<path d="M327.854 74.6199C327.912 74.6199 327.912 74.5606 327.971 74.5606L327.854 74.6199Z" fill="#838D94"/>
<path d="M328.908 73.9091C328.967 73.9091 329.026 73.8498 329.144 73.7905L328.908 73.9091Z" fill="#838D94"/>
<path d="M329.084 73.0791L329.143 73.0205C329.084 73.0205 329.084 73.0791 329.084 73.0791Z" fill="#838D94"/>
<path d="M329.964 77.2263C329.964 77.2263 329.906 77.2263 329.906 77.285C329.906 77.285 329.964 77.285 329.964 77.2263Z" fill="#838D94"/>
<path d="M330.315 77.2263C330.374 77.2857 330.374 77.2263 330.315 77.2263H330.374C330.433 77.2263 330.374 77.2263 330.315 77.2263Z" fill="#838D94"/>
<path d="M333.188 76.9302L333.365 76.8116C333.306 76.8709 333.247 76.9302 333.188 76.9302Z" fill="#838D94"/>
<path d="M329.729 77.3448C329.788 77.3448 329.847 77.2855 329.847 77.2855C329.847 77.2855 329.788 77.2855 329.729 77.3448Z" fill="#838D94"/>
<path d="M327.794 74.6784L327.853 74.6198C327.853 74.6589 327.833 74.6784 327.794 74.6784Z" fill="#838D94"/>
<path d="M329.612 76.2785C329.964 75.8638 329.729 76.3377 330.081 75.9823C329.964 76.0415 329.847 76.0415 330.022 75.8046C330.257 75.6269 330.081 75.9231 330.433 75.6269L330.257 75.6861C330.374 75.4491 330.667 75.2714 330.609 75.2714C330.14 75.6269 330.55 74.8568 330.433 74.8568H330.491L330.55 74.5606L330.491 74.6198C330.667 74.3829 330.726 74.0867 330.55 74.0867C330.257 74.3236 330.14 73.9089 329.905 74.0867C329.983 74.0867 330.022 74.1261 330.022 74.2051L329.729 74.5013C329.671 74.4421 329.964 74.2051 329.729 74.3236C329.378 74.7975 329.847 74.4421 329.847 74.5606C329.729 74.6198 329.612 74.679 329.553 74.679C329.671 74.7975 329.671 75.0937 330.14 74.7383C330.081 74.8568 329.905 75.0345 329.847 75.0345C330.14 74.8568 329.671 75.3307 329.964 75.2122C329.553 75.5676 329.612 75.2714 329.319 75.3899C329.495 74.9752 329.084 75.153 328.909 75.0937C329.143 74.7975 329.495 74.6198 329.553 74.3829C329.612 74.0867 329.26 74.4421 329.084 74.5013C329.084 74.3236 329.495 73.9682 329.378 73.8497L329.612 73.7312C329.905 73.1981 329.378 73.8497 329.378 73.672C329.319 73.7905 329.202 73.9089 329.319 73.9682C329.202 74.1459 329.084 74.1459 329.026 74.1459C328.791 74.3236 328.615 74.5606 328.615 74.3829C328.909 74.2051 328.674 74.1459 328.791 73.9682L328.85 73.9089C328.733 73.9089 328.674 73.8497 328.557 73.8497L328.615 73.7905C328.498 73.8497 328.205 74.1459 328.205 74.0274C328.322 73.9089 328.674 73.6127 328.557 73.6127C328.733 73.435 328.85 73.4943 328.85 73.6127C328.85 73.4943 329.026 73.1388 329.143 73.1981C329.319 72.9019 328.967 73.2573 329.026 73.0796C328.967 73.1388 328.909 73.2573 328.85 73.3166C329.084 72.9611 328.674 73.1388 328.498 73.3758L328.733 73.2573C328.498 73.5535 328.264 73.6127 328.205 73.7905C328.498 73.3166 327.795 73.7905 328.029 73.3758L327.912 73.6127C327.853 73.3166 327.267 73.7312 327.033 73.672C327.209 73.5535 327.56 73.1388 327.56 73.3758C327.443 73.1388 327.853 72.8426 327.971 72.6057C327.971 72.3095 327.56 73.0204 327.443 73.0796H327.619C327.091 73.5535 327.326 72.6649 326.857 72.9019C326.915 72.7242 326.974 72.8426 327.033 72.7834C327.15 72.428 326.915 72.7834 326.798 72.8426C326.74 72.7242 326.74 72.5465 327.033 72.191C326.974 72.0133 326.915 72.428 326.74 72.4872L326.798 72.3687L326.446 72.6649C326.446 72.4872 326.446 72.191 326.622 71.8356C326.329 71.7763 326.036 72.6057 325.802 72.6649C325.86 72.428 325.978 72.3687 326.095 72.2503L325.919 72.191C326.212 71.8356 326.212 72.0725 326.505 71.5986C326.095 72.0133 326.271 71.6579 325.919 71.8356V71.8948C325.626 72.191 325.626 71.8356 325.509 71.8356C325.684 71.6579 325.802 71.7171 325.919 71.6579C325.919 71.4209 325.567 71.4209 325.215 71.7763C325.215 71.6579 325.157 71.4209 325.333 71.3024C325.157 71.1247 324.922 71.8948 324.805 71.6579L324.981 71.3617C325.04 70.7693 324.336 71.5986 324.395 71.0655L324.16 71.4802C324.219 71.3024 324.16 71.184 324.219 71.0062L324.395 70.947C324.512 70.5323 324.102 71.2432 324.16 70.947C324.102 71.0655 324.043 71.4209 323.984 71.5394C324.512 71.5394 324.629 72.3095 325.215 72.1318C325.215 72.0725 325.215 72.0133 325.274 71.9541C325.274 72.0725 325.391 72.0133 325.274 72.2503H325.215C325.391 72.2503 325.157 72.7834 325.215 72.7834C325.391 72.5465 325.333 73.0204 325.567 72.5465L325.45 72.9019C325.567 72.7242 325.684 72.5465 325.802 72.4872C325.86 72.5465 325.743 72.7242 325.626 72.8426C325.802 73.1981 326.153 73.3166 326.505 73.3758L326.271 73.5535C326.271 73.7312 326.74 73.3758 326.329 73.8497C326.622 73.7312 326.564 74.2644 326.974 73.7312C326.681 74.3236 327.091 74.2051 327.326 74.2644C327.619 73.7905 327.56 74.2644 327.795 74.0867C327.56 74.4421 327.384 74.3236 327.209 74.5606C327.795 74.1459 327.384 75.3307 328.147 74.5013C328.147 74.5606 328.088 74.5606 328.088 74.6198C328.147 74.6791 328.029 74.8568 328.029 74.916C328.147 74.7975 328.147 74.6198 328.264 74.679C328.322 74.7383 328.088 74.9752 328.029 75.0937C328.322 74.9752 328.557 75.0937 328.909 74.7383C328.85 74.8568 328.733 75.0937 328.615 75.153C329.026 75.0345 328.733 75.3899 329.084 75.3899C329.026 75.3307 328.733 75.7454 328.791 75.5084C328.44 76.0415 329.143 75.6861 329.084 76.0415L329.436 75.8046C329.553 75.8638 329.319 76.1008 329.143 76.16C329.143 76.4562 329.378 76.397 329.495 76.5155C329.495 76.5747 329.378 76.6339 329.378 76.5747L329.553 76.7524C329.671 76.6932 329.847 76.6339 330.022 76.397C329.729 76.4562 329.553 76.5154 329.612 76.2785Z" fill="#838D94"/>
<path d="M329.495 73.4944C329.456 73.5735 329.436 73.6328 329.436 73.6723C329.495 73.613 329.495 73.5537 329.495 73.4944Z" fill="#838D94"/>
<path d="M331.957 77.4632C332.426 77.0485 331.781 77.404 331.84 77.2263C331.957 77.2263 332.25 76.9893 332.367 76.8708C331.664 77.2855 332.426 76.6339 332.133 76.5746C332.309 76.3969 332.426 76.4562 332.66 76.2784C332.426 76.3377 332.191 76.2192 331.84 76.5154C331.664 76.3377 331.722 76.16 331.546 76.1007C331.781 76.1007 331.898 75.8045 332.25 75.6268C331.722 75.8638 331.077 76.0415 330.433 76.3377C330.784 75.9822 330.784 75.923 331.136 75.6268C331.195 75.2121 330.726 75.923 330.667 75.6268V75.7453C330.491 75.7453 330.14 76.1007 329.905 76.2784L330.14 76.4562C329.905 76.6931 329.788 76.5154 329.729 76.5746C329.377 76.8116 329.612 76.8708 329.377 77.1078C329.612 76.9301 329.612 77.1078 329.729 77.0485L329.612 77.167C329.553 77.404 329.964 77.1078 330.022 77.2263C329.983 77.2658 329.964 77.3052 329.964 77.3447C330.14 77.2263 330.374 77.1078 330.433 77.1078H330.374C330.784 76.8708 331.136 76.8708 331.371 76.4562L331.488 76.7524C331.136 77.0485 330.55 77.5225 330.374 77.404L330.198 77.5225C330.081 77.8187 330.667 77.5225 330.96 77.167C331.898 76.5154 331.312 77.4632 331.781 77.2855C331.546 77.5225 331.371 77.4632 331.195 77.5817C331.136 77.5817 331.077 77.5225 331.312 77.3447C331.019 77.2855 330.608 78.0556 330.491 77.7594C330.491 77.5225 330.96 77.5817 330.902 77.3447L330.14 77.8187C330.257 77.8779 330.433 77.8779 330.55 77.8779C330.96 77.8779 331.136 78.1148 331.195 78.2926C331.253 78.4703 331.253 78.648 331.253 78.648C331.84 79.2404 332.426 79.892 332.953 80.6029C333.188 80.7806 333.188 80.8398 334.009 80.5436C334.126 80.4252 334.009 80.3067 334.302 80.1882C334.009 80.3067 333.833 80.3067 333.774 80.1882C334.009 80.0105 333.95 80.2474 334.009 80.1882V80.129C334.126 80.0697 334.243 80.0105 334.302 80.0697C334.653 79.7143 334.36 79.4181 333.774 79.6551C333.95 79.3589 334.243 79.4773 334.478 79.4181C334.419 78.8849 334.184 78.5888 333.95 78.1741C333.481 78.4703 333.657 78.3518 333.305 78.4703L333.422 78.2926C333.364 78.3518 333.012 78.5295 332.953 78.7072C333.129 78.2333 332.191 78.885 331.84 78.885L332.074 78.7072C331.957 78.5888 331.898 78.5888 331.722 78.5888C332.015 78.0556 331.898 78.7072 332.426 78.2333H332.309C332.543 78.1148 332.953 77.8187 333.188 77.8187C332.66 77.8779 333.129 77.404 332.66 77.404C332.953 77.2263 333.305 77.2855 333.364 77.2855C333.305 77.167 333.071 77.2263 333.246 76.9893L332.895 77.2263C332.778 77.1078 333.188 76.9893 333.364 76.8116C333.071 76.5154 332.309 77.5225 331.957 77.4632Z" fill="#838D94"/>
<path d="M329.495 74.5606C329.495 74.6199 329.554 74.6199 329.612 74.6199C329.612 74.6199 329.554 74.5606 329.495 74.5606Z" fill="#838D94"/>
<path d="M330.55 74.5014C330.589 74.4619 330.628 74.4223 330.668 74.3828C330.668 74.4421 330.609 74.4421 330.55 74.5014Z" fill="#838D94"/>
<path d="M331.019 74.1461C330.902 74.2646 330.843 74.2646 330.667 74.383C330.785 74.383 330.902 74.4423 331.019 74.1461Z" fill="#838D94"/>
<path d="M328.615 72.9607C328.674 72.7248 328.381 72.9017 328.322 72.8428C328.263 73.0197 328.439 73.0197 328.615 72.9607Z" fill="#838D94"/>
<path d="M329.964 72.5465C329.846 72.6058 329.788 72.6058 329.846 72.7242L329.377 73.1389C329.377 73.3759 329.846 72.7242 329.964 72.5465Z" fill="#838D94"/>
<path d="M330.785 73.1388L330.491 73.198L330.55 73.2573C330.374 73.435 330.257 73.4942 330.081 73.6127C330.257 73.5535 330.491 73.435 330.785 73.1388Z" fill="#838D94"/>
<path d="M329.906 73.5538H329.965C330.024 73.4945 330.082 73.4351 329.906 73.5538Z" fill="#838D94"/>
<path d="M330.023 73.6129C330.023 73.6129 330.082 73.6129 330.082 73.5536L330.023 73.6129C329.964 73.6129 329.905 73.6722 330.023 73.6129Z" fill="#838D94"/>
<path d="M330.667 73.4352L330.903 73.5538V73.3759C330.609 73.6724 330.962 73.1386 330.667 73.4352Z" fill="#838D94"/>
<path d="M331.429 74.6198L331.195 74.916C331.253 75.0937 331.957 74.679 331.605 75.1529C331.722 74.9159 332.016 74.9752 331.957 74.7382C331.664 74.916 331.429 74.7382 331.429 74.6198Z" fill="#838D94"/>
<path d="M331.488 75.4493C331.371 75.5086 331.371 75.5678 331.312 75.6863C331.312 75.7455 331.488 75.6863 331.546 75.5678C331.195 75.8048 331.722 75.2716 331.488 75.4493Z" fill="#838D94"/>
<path d="M332.016 75.9824C331.957 75.9232 331.898 75.9232 331.898 76.0416C332.016 76.1601 332.309 75.8047 332.543 75.7454C332.602 75.4493 332.074 75.7454 332.016 75.9824Z" fill="#838D94"/>
<path d="M330.667 78.5298C330.902 78.2928 330.785 78.2928 330.726 78.2928C330.785 78.352 330.726 78.4705 330.667 78.5298Z" fill="#838D94"/>
<path d="M332.719 76.9301V76.8116L332.309 77.1078L332.719 76.9301Z" fill="#838D94"/>
<path d="M333.422 77.4043L333.717 77.345L333.599 77.2263L333.422 77.4043Z" fill="#838D94"/>
<path d="M333.481 77.6413L333.599 77.7599L333.658 77.6413C333.658 77.4633 333.481 77.6413 333.481 77.6413Z" fill="#838D94"/>
<path d="M333.775 77.9374C333.716 77.9374 333.775 77.8781 333.834 77.8781H333.598L333.775 77.9374Z" fill="#838D94"/>
</g>
<path d="M291.391 117.094C291.391 117.094 294.557 127.046 303.76 135.281L298.015 150.683C298.015 150.683 288.401 150.386 288.695 157.436H299.246C299.246 157.436 303.409 153.408 303.76 152.874C304.112 152.282 313.433 132.852 313.433 132.852L306.633 110.933C306.633 110.993 289.926 113.54 291.391 117.094Z" fill="#ADBFC9"/>
<path d="M291.625 154.415C291.625 154.415 290.629 155.54 291.332 157.436" stroke="#838D94" stroke-miterlimit="10"/>
<path d="M251.586 154.237C251.586 154.237 250.473 155.599 251 157.435" stroke="#838D94" stroke-miterlimit="10"/>
<path d="M216.531 48.3769C216.531 48.3769 208.793 30.6053 213.541 30.0129C217.41 29.539 228.314 42.2753 228.314 42.2753C228.314 42.2753 217.879 49.147 216.531 48.3769Z" fill="#ADBFC9"/>
<path d="M237.869 42.7495C237.869 42.7495 242.618 36.6479 248.773 32.7974C254.928 28.9469 254.225 33.2713 252.935 38.1881C251.411 43.7566 247.952 49.9174 247.952 49.9174C247.952 49.9174 239.042 44.9414 237.869 42.2756" fill="#ADBFC9"/>
<path d="M219.931 67.8074C218.7 88.3633 224.445 109.571 241.269 113.658C258.094 117.746 292.153 117.094 292.153 117.094C297.488 127.876 306.047 132.97 306.047 132.97L299.95 151.216C292.153 151.808 293.091 157.495 293.091 157.495H304.405C304.405 157.495 335.006 107.912 335.357 91.5622C335.709 75.2123 326.33 67.7482 299.364 66.208C272.398 64.6678 248.89 68.696 248.89 68.696L246.78 65.2009C246.78 65.2009 251.118 59.8694 250.883 54.7157C250.766 52.5831 250.063 50.3912 248.714 48.4363C247.659 46.8961 246.194 45.5336 244.318 44.4081C242.852 43.5788 241.211 42.9271 239.276 42.5125C235.407 41.6831 231.48 41.5054 227.962 41.8608C227.142 41.9201 226.38 42.0385 225.617 42.2163C224.562 42.394 223.566 42.6309 222.686 42.9271C221.455 43.3418 220.283 43.8157 219.286 44.4081C214.128 47.4293 211.548 53.9455 213.424 59.4548C215.359 65.0232 219.931 67.8074 219.931 67.8074Z" fill="#ADBFC9"/>
<path d="M292.153 117.094C297.487 127.875 306.046 132.97 306.046 132.97L299.95 151.215" stroke="#838D94" stroke-miterlimit="10"/>
<path d="M227.903 41.8608C227.083 41.92 226.321 42.0385 225.559 42.2162C224.503 42.3939 223.507 42.6309 222.627 42.9271" stroke="#838D94" stroke-miterlimit="10"/>
<path d="M219.931 67.8072L220.986 68.5181" stroke="#838D94" stroke-miterlimit="10"/>
<path d="M232.242 66.6816C232.242 66.6816 233.121 67.3332 234.645 67.274C236.169 67.2148 236.697 66.4447 236.697 66.4447C236.697 66.4447 235.818 64.549 234.411 64.3713C233.004 64.1343 232.242 66.6816 232.242 66.6816Z" fill="#838D94"/>
<path d="M228.255 57.6774C229.486 57.3812 230.19 56.078 229.78 54.8932C229.369 53.6492 228.548 52.2275 226.907 51.6351C225.266 51.1019 223.741 51.3389 222.686 51.6943C221.631 52.0497 220.986 53.1753 221.279 54.3008C221.572 55.3671 222.335 56.6111 223.976 57.3812C225.441 58.0329 227.024 57.9144 228.255 57.6774Z" fill="#D5F0FE"/>
<path d="M239.804 57.0259C238.339 56.9074 237.459 55.308 238.045 54.0047C238.632 52.7015 239.745 51.2797 241.563 50.8651C242.911 50.5689 243.966 50.6281 244.728 50.8651C246.018 51.2205 246.663 52.7607 246.018 53.9455C245.549 54.8341 244.728 55.8411 243.439 56.4335C242.149 57.0259 240.859 57.1444 239.804 57.0259Z" fill="#D5F0FE"/>
<path d="M292.153 117.094C292.153 117.094 290.922 114.843 290.57 113.481" stroke="#838D94" stroke-miterlimit="10"/>
<path d="M296.198 157.436C296.198 157.436 296.081 155.718 297.194 154.533" stroke="#838D94" stroke-miterlimit="10"/>
<path d="M301.239 154.415C301.239 154.415 300.008 155.422 300.126 157.436" stroke="#838D94" stroke-miterlimit="10"/>
<path d="M226.32 56.7297C226.838 56.7297 227.258 55.8014 227.258 54.6563C227.258 53.5113 226.838 52.583 226.32 52.583C225.802 52.583 225.382 53.5113 225.382 54.6563C225.382 55.8014 225.802 56.7297 226.32 56.7297Z" fill="#838D94"/>
<path d="M241.387 56.0782C241.905 56.0782 242.325 55.15 242.325 54.0049C242.325 52.8598 241.905 51.9315 241.387 51.9315C240.869 51.9315 240.449 52.8598 240.449 54.0049C240.449 55.15 240.869 56.0782 241.387 56.0782Z" fill="#838D94"/>
<path d="M234.457 63.2933V64.407C234.457 64.407 234.346 64.9639 232.968 66.2494C232.083 67.1439 229.322 68.0917 228.22 66.0835C227.118 64.0753 229.433 61.2259 232.47 61.2259C235.507 61.2259 234.457 63.2933 234.457 63.2933Z" fill="#C1D7E4"/>
<path d="M234.457 64.4071C234.457 64.4071 235.395 65.5801 236.058 66.0244C236.556 66.362 237.992 67.5883 239.258 66.9722C240.583 66.4153 240.97 64.4605 240.36 63.175C239.751 61.8895 237.934 60.9417 236.275 61.2201C234.616 61.4452 234.287 62.3338 234.451 64.4012L234.457 64.4071Z" fill="#C1D7E4"/>
<path d="M234.469 63.4236C234.469 63.4236 232.007 62.2388 231.772 61.0541C231.538 59.8693 233.883 59.5139 235.407 59.8101C237.341 60.1062 237.693 61.5872 234.469 63.4236Z" fill="#838D94"/>
<path d="M248.538 107.675C248.538 107.675 249.476 110.815 250.707 115.258C252.876 123.018 255.983 134.629 256.628 139.664C257.683 147.543 257.449 151.216 257.449 151.216C257.449 151.216 249.417 150.86 249.711 157.436H261.493C262.138 157.436 264.776 149.794 264.776 149.794C264.776 149.794 267.238 128.527 268.528 116.679C268.997 112.592 269.29 109.689 269.29 109.038" fill="#ADBFC9"/>
<path d="M250.708 115.258C252.877 123.018 255.983 134.629 256.628 139.664C257.684 147.543 257.449 151.216 257.449 151.216C257.449 151.216 249.418 150.86 249.711 157.436" stroke="#838D94" stroke-miterlimit="10"/>
<path d="M251.88 157.021C251.88 157.021 251.762 155.244 253.228 154.237" stroke="#838D94" stroke-miterlimit="10"/>
<path d="M256.277 155.125C256.277 155.125 255.632 155.481 255.69 157.436" stroke="#838D94" stroke-miterlimit="10"/>
<path d="M248.538 107.675C248.538 107.675 249.476 110.815 250.707 115.258" stroke="#838D94" stroke-miterlimit="10"/>
<path d="M268.47 116.739C268.939 112.651 269.232 109.748 269.232 109.097" stroke="#838D94" stroke-miterlimit="10"/>
<mask id="mask3_434_3724" style="mask-type:luminance" maskUnits="userSpaceOnUse" x="242" y="65" width="7" height="5">
<path d="M248.949 68.6368L242.794 69.7624C243.497 68.5776 246.839 65.1417 246.839 65.1417L248.949 68.6368Z" fill="white"/>
</mask>
<g mask="url(#mask3_434_3724)">
<path d="M245.607 66.8006C245.666 66.8006 245.725 66.8599 245.725 66.8599C245.725 66.9192 245.666 66.8599 245.607 66.8006Z" fill="#838D94"/>
<path d="M242.853 69.348L242.735 69.2294C242.853 69.2294 242.853 69.2887 242.853 69.348Z" fill="#838D94"/>
<path d="M246.663 67.5115C246.722 67.5115 246.781 67.5708 246.899 67.6301L246.663 67.5115Z" fill="#838D94"/>
<path d="M246.897 68.2816L246.955 68.3403C246.916 68.3403 246.897 68.3207 246.897 68.2816Z" fill="#838D94"/>
<path d="M245.549 66.7414L245.608 66.8001C245.569 66.8001 245.549 66.7806 245.549 66.7414Z" fill="#838D94"/>
<path d="M246.841 67.2745C246.779 67.3365 246.779 67.2745 246.841 67.2745Z" fill="#838D94"/>
<path d="M247.249 65.0828C247.6 65.4974 247.366 65.0235 247.718 65.3789C247.6 65.3789 247.483 65.3197 247.659 65.5567C247.894 65.7344 247.718 65.4382 248.069 65.7344L247.894 65.6751C248.011 65.8529 248.363 66.0306 248.245 66.0898C247.718 65.7344 248.187 66.5045 248.069 66.5045H248.128L248.245 66.8007L248.187 66.7414C248.363 66.9784 248.421 67.2153 248.304 67.2746C248.011 67.0376 247.894 67.5115 247.659 67.3338C247.737 67.3338 247.776 67.2943 247.776 67.2154L247.483 66.9192C247.425 67.0376 247.776 67.2153 247.483 67.0969C247.073 66.6822 247.6 66.9784 247.6 66.8599C247.483 66.8007 247.366 66.7414 247.307 66.7414C247.425 66.623 247.366 66.3268 247.894 66.6822C247.835 66.5637 247.659 66.386 247.6 66.386C247.952 66.5045 247.425 66.0898 247.718 66.2083C247.307 65.8529 247.366 66.2083 247.073 66.0306C247.249 66.4453 246.838 66.3268 246.663 66.386C246.956 66.6822 247.249 66.8007 247.366 67.0376C247.425 67.3338 247.073 67.0376 246.897 66.9192C246.897 67.0969 247.366 67.3931 247.19 67.5708L247.425 67.6893C247.718 68.1632 247.19 67.63 247.19 67.7485C247.131 67.63 247.014 67.5115 247.073 67.4523C246.956 67.2746 246.838 67.2746 246.78 67.2746C246.545 67.0969 246.369 66.9192 246.369 67.0969C246.663 67.2746 246.487 67.3338 246.545 67.4523L246.604 67.5115C246.487 67.5115 246.428 67.5708 246.369 67.5708L246.428 67.63C246.311 67.5708 246.018 67.2746 245.959 67.3931C246.076 67.5115 246.487 67.7485 246.311 67.8077C246.487 67.9855 246.604 67.9262 246.604 67.8077C246.604 67.9262 246.838 68.2817 246.956 68.2224C247.131 68.4594 246.78 68.2224 246.838 68.3409C246.78 68.2817 246.721 68.2224 246.663 68.1039C246.956 68.4001 246.487 68.2817 246.311 68.0447L246.545 68.1632C246.311 67.9262 246.076 67.8077 245.959 67.63C246.252 68.0447 245.549 67.63 245.783 68.0447L245.666 67.8077C245.607 68.1039 245.021 67.7485 244.787 67.8077C244.962 67.867 245.314 68.3409 245.314 68.1039C245.197 68.3409 245.607 68.5778 245.725 68.874C245.725 69.1702 245.314 68.5186 245.138 68.4001H245.314C244.787 67.9855 245.021 68.8148 244.611 68.6371C244.728 68.8148 244.728 68.6963 244.787 68.6963C244.904 69.0518 244.669 68.6963 244.552 68.6371C244.493 68.7556 244.494 68.9925 244.787 69.2887C244.728 69.4664 244.669 69.0518 244.494 68.9925L244.552 69.111L244.142 68.8148C244.142 68.9925 244.142 69.2887 244.376 69.6441C244.142 69.7034 243.731 68.9333 243.497 68.874C243.556 69.111 243.673 69.111 243.79 69.2887L243.614 69.3479C243.907 69.7034 243.907 69.4664 244.2 69.8811C243.79 69.5257 243.966 69.8811 243.614 69.6441V69.5849C243.321 69.2887 243.321 69.6441 243.204 69.6441C243.38 69.8219 243.497 69.7626 243.614 69.7626C243.614 69.9996 243.262 69.9996 242.911 69.6441C242.911 69.7626 242.852 69.9996 243.087 70.1181C242.911 70.355 242.618 69.5849 242.5 69.8219L242.735 70.1181C242.793 70.7104 242.09 69.9403 242.149 70.4735L241.914 70.0588C241.973 70.2365 241.914 70.355 242.031 70.5327L242.207 70.592C242.324 70.9474 241.914 70.355 241.973 70.6512C241.914 70.5327 241.856 70.2365 241.738 70.0588C242.266 70.0588 242.324 69.2887 242.969 69.4072C242.969 69.4664 243.028 69.5257 243.087 69.5849C243.087 69.4664 243.204 69.5257 243.087 69.2887H243.028C243.204 69.2887 242.969 68.7556 243.028 68.7556C243.262 68.9925 243.145 68.5186 243.438 68.9925L243.321 68.6963C243.438 68.874 243.614 69.0518 243.673 69.111C243.731 69.0518 243.614 68.874 243.438 68.7556C243.614 68.4001 243.907 68.2224 244.259 68.1632L244.025 68.0447C244.025 67.9262 244.494 68.2224 244.083 67.7485C244.376 67.867 244.318 67.3338 244.728 67.867C244.435 67.2746 244.845 67.3931 245.08 67.3338C245.431 67.8077 245.314 67.3338 245.549 67.5115C245.314 67.1561 245.138 67.2746 244.904 67.0376C245.49 67.3931 245.021 66.2675 245.842 67.0376C245.842 66.9784 245.783 66.9784 245.783 66.9192C245.842 66.8599 245.725 66.6822 245.725 66.623C245.9 66.7414 245.842 66.8599 246.018 66.8599C246.076 66.8007 245.783 66.5637 245.725 66.4452C246.018 66.5045 246.252 66.4452 246.604 66.7414C246.545 66.623 246.428 66.386 246.311 66.386C246.721 66.4452 246.428 66.1491 246.78 66.1491C246.721 66.2083 246.428 65.8529 246.428 66.0898C246.076 65.5567 246.78 65.9121 246.663 65.4974L247.014 65.7344C247.131 65.6751 246.897 65.4382 246.721 65.3789C246.663 65.0828 246.956 65.142 247.073 65.0235C247.014 64.9643 246.956 64.905 246.956 64.9643L247.073 64.7866C247.19 64.8458 247.366 64.905 247.542 65.0828C247.366 64.905 247.19 64.8458 247.249 65.0828Z" fill="#838D94"/>
<path d="M247.249 67.9264C247.21 67.8473 247.19 67.788 247.19 67.7485C247.249 67.8078 247.249 67.8671 247.249 67.9264Z" fill="#838D94"/>
<path d="M249.536 63.8387C250.005 64.2533 249.36 63.8979 249.419 64.0756C249.536 64.0756 249.829 64.3126 249.946 64.431C249.243 64.0164 250.005 64.668 249.712 64.7272C249.888 64.905 250.005 64.8457 250.239 65.0234C250.005 65.0234 249.77 65.0827 249.419 64.8457C249.301 65.0234 249.301 65.2604 249.184 65.2604C249.419 65.2604 249.536 65.5566 249.946 65.6751C249.419 65.4381 248.715 65.3196 248.129 65.0827C248.481 65.4381 248.539 65.4973 248.891 65.7343C248.95 66.149 248.481 65.4973 248.422 65.7935V65.6751C248.246 65.6751 247.894 65.3789 247.601 65.1419L247.836 64.9642C247.601 64.7272 247.484 64.905 247.425 64.905C247.074 64.668 247.308 64.6088 247.074 64.431C247.308 64.6088 247.308 64.431 247.425 64.4903L247.308 64.3718C247.25 64.1349 247.66 64.431 247.719 64.3126L247.66 64.2533C247.836 64.3718 248.07 64.4903 248.129 64.4903H248.07C248.481 64.7272 248.832 64.668 249.067 65.0827L249.125 64.7865C248.715 64.4903 248.129 64.0756 248.012 64.1941L247.836 64.0756C247.719 63.8387 248.305 64.0756 248.598 64.3718C249.594 65.0234 248.891 64.0756 249.419 64.1941C249.184 64.0164 249.008 64.0164 248.832 63.8979C248.774 63.8979 248.715 63.9571 248.95 64.1348C248.657 64.2533 248.188 63.4832 248.129 63.7794C248.188 64.0164 248.657 63.9571 248.539 64.1348L247.777 63.7202C247.894 63.6609 248.07 63.6609 248.188 63.6017C248.598 63.5425 248.774 63.3647 248.832 63.187C248.891 63.0093 248.832 62.8316 248.832 62.8316C249.419 62.18 249.946 61.5283 250.415 60.8175C250.65 60.6398 250.65 60.5213 251.47 60.8175C251.588 60.936 251.47 61.0544 251.763 61.1729C251.47 61.0544 251.236 61.0544 251.236 61.2321C251.529 61.4099 251.412 61.1729 251.47 61.2321V61.2914C251.646 61.3506 251.705 61.3506 251.763 61.3506C252.115 61.7061 251.881 62.0022 251.294 61.7653C251.529 62.0615 251.763 61.943 251.998 62.0023C251.939 62.5354 251.763 62.8316 251.529 63.3055C251.06 63.0093 251.236 63.187 250.884 63.0093L251.06 63.1278C251.001 63.0685 250.65 62.8908 250.591 62.7724C250.767 63.2463 249.77 62.6539 249.477 62.6539L249.712 62.8316C249.594 62.9501 249.536 62.9501 249.36 63.0093C249.653 63.5425 249.536 62.8908 250.063 63.3647H249.946C250.181 63.4832 250.591 63.7202 250.826 63.7794C250.298 63.7202 250.767 64.1941 250.298 64.1941C250.591 64.3718 250.943 64.3126 251.001 64.2533C251.001 64.3718 250.708 64.3718 250.943 64.5495L250.591 64.3126C250.474 64.431 250.884 64.4903 251.06 64.7272C250.708 64.7272 249.888 63.7202 249.536 63.8387Z" fill="#838D94"/>
<path d="M247.25 66.8007C247.25 66.7414 247.308 66.7414 247.367 66.7414C247.328 66.781 247.289 66.8007 247.25 66.8007Z" fill="#838D94"/>
<path d="M248.304 66.8006L248.421 66.9193C248.382 66.8797 248.343 66.8402 248.304 66.8006Z" fill="#838D94"/>
<path d="M248.773 67.1562C248.656 67.0377 248.597 67.0377 248.421 66.9192C248.539 66.9785 248.656 66.86 248.773 67.1562Z" fill="#838D94"/>
<path d="M244.67 69.3481C244.67 69.5258 244.494 69.2888 244.318 69.0519C244.436 68.9334 244.553 69.2888 244.67 69.3481Z" fill="#838D94"/>
<path d="M246.429 68.4592C246.487 68.6951 246.194 68.5182 246.136 68.5771C246.077 68.4002 246.253 68.4002 246.429 68.4592Z" fill="#838D94"/>
<path d="M247.777 68.8147C247.66 68.7555 247.601 68.7555 247.66 68.637L247.191 68.2816C247.132 68.0446 247.601 68.637 247.777 68.8147Z" fill="#838D94"/>
<path d="M248.539 68.2223L248.246 68.1631L248.304 68.1038C248.129 67.9854 248.011 67.8669 247.835 67.8076C248.011 67.8076 248.246 67.8669 248.539 68.2223Z" fill="#838D94"/>
<path d="M247.659 67.8076H247.718C247.777 67.8076 247.836 67.9263 247.659 67.8076Z" fill="#838D94"/>
<path d="M247.777 67.7485C247.718 67.7485 247.718 67.6892 247.777 67.7485Z" fill="#838D94"/>
<path d="M248.421 67.9263L248.657 67.8076V67.9856C248.421 67.689 248.716 68.1635 248.421 67.9263Z" fill="#838D94"/>
<path d="M249.125 66.6821L248.891 66.3859C248.949 66.2082 249.653 66.5636 249.301 66.0897C249.418 66.2674 249.711 66.2674 249.653 66.5044C249.36 66.3859 249.184 66.5044 249.125 66.6821Z" fill="#838D94"/>
<path d="M249.184 65.8527C249.066 65.7935 249.066 65.7342 249.008 65.6158C249.008 65.5565 249.184 65.6158 249.301 65.7343C248.832 65.4973 249.418 66.0304 249.184 65.8527Z" fill="#838D94"/>
</g>
<mask id="mask4_434_3724" style="mask-type:luminance" maskUnits="userSpaceOnUse" x="268" y="109" width="14" height="9">
<path d="M281.836 117.094C277.967 117.035 273.336 116.976 268.47 116.739C268.822 113.303 269.115 110.637 269.232 109.512C271.519 111.111 277.498 115.08 281.836 117.094Z" fill="white"/>
</mask>
<g mask="url(#mask4_434_3724)">
<path d="M270.111 113.895C270.17 113.895 270.229 113.955 270.347 113.955L270.111 113.895Z" fill="#838D94"/>
<path d="M270.756 113.362C270.795 113.362 270.815 113.342 270.815 113.303C270.815 113.362 270.756 113.362 270.756 113.362Z" fill="#838D94"/>
<path d="M269.349 116.265C269.877 116.087 269.408 116.383 269.877 116.265C269.76 116.206 269.642 116.206 269.935 116.087C270.228 116.087 269.935 116.265 270.404 116.147L270.228 116.087C270.404 115.969 270.815 115.969 270.756 115.91C270.17 115.969 270.932 115.554 270.815 115.495H270.873L271.108 115.258H271.166H271.049C271.342 115.139 271.518 114.962 271.401 114.843C271.049 114.843 271.225 114.488 270.932 114.488C271.01 114.527 271.03 114.587 270.991 114.666L270.58 114.725C270.58 114.606 270.932 114.606 270.697 114.547C270.17 114.666 270.756 114.725 270.697 114.784C270.58 114.784 270.463 114.784 270.404 114.725C270.404 114.902 270.287 115.08 270.815 115.08C270.697 115.139 270.463 115.199 270.404 115.139C270.756 115.199 270.111 115.317 270.404 115.317C269.877 115.376 270.111 115.139 269.76 115.08C270.111 114.843 269.701 114.725 269.584 114.547C269.935 114.429 270.287 114.488 270.522 114.369C270.756 114.132 270.287 114.251 270.053 114.192C270.17 114.073 270.697 114.073 270.639 113.836L270.932 113.895C271.46 113.658 270.697 113.836 270.815 113.718C270.697 113.777 270.522 113.777 270.58 113.895C270.404 113.955 270.287 113.895 270.287 113.836C269.994 113.836 269.76 113.895 269.877 113.777C270.228 113.777 270.111 113.658 270.228 113.599H270.287C270.17 113.54 270.17 113.422 270.111 113.362H270.17C270.053 113.303 269.642 113.362 269.701 113.244C269.877 113.244 270.287 113.244 270.228 113.185C270.463 113.125 270.522 113.244 270.463 113.362C270.522 113.244 270.932 113.125 270.932 113.244C271.225 113.125 270.756 113.185 270.932 113.066C270.815 113.125 270.756 113.125 270.639 113.125C271.049 113.066 270.639 112.888 270.346 112.948L270.58 113.007C270.228 113.066 269.994 113.007 269.818 113.066C270.346 112.888 269.525 112.829 269.935 112.651L269.701 112.77C269.818 112.474 269.173 112.414 268.997 112.178C269.173 112.237 269.76 112.118 269.584 112.296C269.642 112.059 270.111 112.118 270.404 112C270.58 111.763 269.877 112 269.701 112L269.818 112.118C269.115 112.059 269.877 111.644 269.408 111.467C269.584 111.407 269.525 111.526 269.584 111.526C269.877 111.348 269.466 111.407 269.349 111.407C269.408 111.289 269.525 111.111 269.935 111.111C269.994 110.993 269.701 111.17 269.525 111.111L269.642 111.052L269.173 110.993C269.291 110.874 269.466 110.697 269.877 110.578C269.76 110.341 268.939 110.637 268.763 110.519C268.939 110.4 269.056 110.46 269.232 110.46L269.173 110.282C269.642 110.282 269.408 110.46 269.994 110.341C269.408 110.282 269.818 110.163 269.408 110.045H269.349C268.997 110.045 269.173 109.808 269.115 109.689C269.349 109.689 269.408 109.808 269.466 109.867C269.642 109.689 269.408 109.453 268.88 109.393C268.939 109.334 269.115 109.156 269.349 109.216C269.408 108.979 268.646 109.216 268.763 108.979L269.115 108.919C269.584 108.623 268.587 108.564 268.997 108.268L268.528 108.327C268.704 108.268 268.763 108.149 268.939 108.09L269.115 108.149C269.466 107.972 268.763 108.09 268.997 107.912C268.88 107.912 268.587 108.09 268.411 108.09C268.763 108.505 268.177 109.097 268.704 109.512C268.763 109.512 268.822 109.453 268.88 109.453C268.763 109.512 268.939 109.571 268.704 109.63H268.646C268.763 109.749 268.235 109.926 268.235 109.986C268.528 109.986 268.177 110.282 268.646 110.104L268.353 110.223C268.528 110.223 268.822 110.163 268.88 110.223C268.88 110.341 268.646 110.341 268.528 110.282C268.411 110.637 268.528 110.993 268.704 111.348L268.47 111.289C268.353 111.407 268.939 111.526 268.294 111.526C268.587 111.644 268.177 112 268.822 111.881C268.235 112.118 268.646 112.355 268.763 112.533C269.291 112.414 268.939 112.711 269.232 112.711C268.822 112.829 268.763 112.592 268.47 112.651C269.173 112.77 268.118 113.422 269.232 113.244C269.193 113.283 269.154 113.303 269.115 113.303C269.115 113.362 268.939 113.422 268.939 113.481C269.115 113.481 269.173 113.362 269.291 113.422C269.291 113.54 268.939 113.54 268.822 113.599C269.115 113.718 269.232 113.955 269.701 113.895C269.584 113.955 269.349 114.073 269.291 114.014C269.701 114.192 269.291 114.251 269.525 114.488C269.466 114.429 269.056 114.547 269.232 114.369C268.646 114.606 269.408 114.725 269.173 115.021H269.584C269.701 115.139 269.291 115.199 269.173 115.139C268.997 115.436 269.232 115.495 269.291 115.613C269.232 115.613 269.173 115.673 269.173 115.613L269.232 115.85C269.349 115.85 269.525 115.91 269.818 115.791C269.349 116.443 269.232 116.383 269.349 116.265Z" fill="#838D94"/>
<path d="M270.816 113.895C270.737 113.935 270.678 113.974 270.639 114.014C270.757 113.955 270.816 113.955 270.816 113.895Z" fill="#838D94"/>
<path d="M270.815 118.398C271.401 118.22 270.698 118.279 270.815 118.161C270.932 118.22 271.284 118.101 271.46 118.042C270.639 118.101 271.577 117.864 271.343 117.687C271.577 117.627 271.636 117.687 271.929 117.627C271.694 117.568 271.577 117.391 271.108 117.509C271.049 117.331 271.167 117.094 271.049 117.035C271.284 117.154 271.46 116.976 271.87 116.976C271.343 116.976 270.639 116.739 269.994 116.68C270.463 116.561 270.522 116.502 270.932 116.443C271.167 116.146 270.463 116.502 270.58 116.206L270.522 116.324C270.346 116.265 269.936 116.324 269.584 116.383L269.701 116.62C269.349 116.68 269.408 116.502 269.291 116.502C268.88 116.502 269.056 116.739 268.763 116.739C269.056 116.739 268.998 116.857 269.115 116.917L268.939 116.976C268.763 117.154 269.232 117.094 269.291 117.213C269.232 117.213 269.232 117.272 269.174 117.272C269.349 117.272 269.643 117.272 269.701 117.331L269.643 117.272C270.053 117.272 270.405 117.45 270.815 117.154L270.756 117.45C270.287 117.509 269.584 117.627 269.525 117.509H269.349C269.115 117.687 269.76 117.746 270.17 117.568C271.284 117.391 270.346 117.983 270.815 118.101C270.522 118.22 270.405 118.101 270.17 118.101C270.111 118.042 270.111 117.983 270.346 117.924C270.111 117.687 269.408 118.22 269.467 117.864C269.584 117.687 269.994 117.924 269.994 117.687L269.115 117.746C269.174 117.864 269.349 117.983 269.467 118.042C270.17 118.516 269.818 119.049 269.818 119.049C270.17 119.938 270.463 120.767 270.874 121.596C271.049 121.833 271.049 121.952 271.929 121.774C272.046 121.656 271.929 121.537 272.222 121.478C271.929 121.537 271.694 121.478 271.694 121.36C271.987 121.241 271.87 121.419 271.929 121.36V121.3C272.105 121.241 272.163 121.241 272.222 121.3C272.632 121.004 272.398 120.767 271.812 120.826C272.046 120.589 272.28 120.767 272.515 120.767C272.574 120.234 272.456 119.938 272.339 119.523C271.812 119.642 271.987 119.582 271.636 119.642L271.812 119.523C271.694 119.582 271.343 119.582 271.284 119.76C271.636 119.405 270.522 119.642 270.229 119.523L270.522 119.464C270.405 119.345 270.405 119.286 270.229 119.168C270.698 118.812 270.346 119.345 270.991 119.108L270.874 119.049C271.167 118.99 271.577 118.931 271.812 118.931C271.343 118.812 271.87 118.575 271.518 118.398C271.812 118.338 272.105 118.516 272.163 118.575C272.163 118.457 271.929 118.398 272.163 118.338L271.753 118.398C271.694 118.279 272.105 118.338 272.339 118.22C272.222 118.042 271.167 118.635 270.815 118.398Z" fill="#838D94"/>
<path d="M270.229 114.725C270.229 114.764 270.248 114.804 270.287 114.843C270.229 114.843 270.229 114.784 270.229 114.725Z" fill="#838D94"/>
<path d="M271.109 115.317H271.227C271.187 115.278 271.148 115.278 271.109 115.317Z" fill="#838D94"/>
<path d="M271.635 115.258C271.46 115.317 271.46 115.258 271.225 115.317C271.342 115.317 271.401 115.435 271.635 115.258Z" fill="#838D94"/>
<path d="M269.76 111.289C269.936 111.171 269.584 111.23 269.35 111.289C269.291 111.406 269.643 111.171 269.76 111.289Z" fill="#838D94"/>
<path d="M270.522 112.948C270.698 112.829 270.405 112.77 270.346 112.651C270.229 112.829 270.346 112.948 270.522 112.948Z" fill="#838D94"/>
<path d="M271.753 113.481C271.636 113.481 271.577 113.481 271.577 113.54H270.991C270.815 113.717 271.518 113.54 271.753 113.481Z" fill="#838D94"/>
<path d="M272.046 114.31L271.811 114.251V114.31H271.284C271.342 114.369 271.635 114.428 272.046 114.31Z" fill="#838D94"/>
<path d="M271.109 114.192C271.109 114.231 271.109 114.231 271.109 114.192C271.286 114.192 271.227 114.251 271.109 114.192Z" fill="#838D94"/>
<path d="M271.168 114.31H271.226C271.168 114.31 271.168 114.251 271.168 114.31C271.109 114.251 271.05 114.31 271.168 114.31Z" fill="#838D94"/>
<path d="M271.753 114.488L271.871 114.725L271.988 114.606C271.636 114.666 272.164 114.429 271.753 114.488Z" fill="#838D94"/>
<path d="M271.753 115.791L271.401 115.909C271.343 116.087 272.164 116.087 271.636 116.324C271.812 116.206 272.046 116.324 272.105 116.146C271.753 116.146 271.695 115.909 271.753 115.791Z" fill="#838D94"/>
<path d="M271.343 116.502C271.226 116.502 271.168 116.561 271.109 116.62C271.109 116.679 271.226 116.679 271.402 116.62C270.933 116.679 271.636 116.443 271.343 116.502Z" fill="#838D94"/>
<path d="M271.577 117.153C271.577 117.094 271.518 117.035 271.459 117.153C271.518 117.271 271.87 117.153 272.163 117.153C272.28 116.976 271.694 117.035 271.577 117.153Z" fill="#838D94"/>
</g>
<path d="M248.714 48.4362C248.245 47.7845 247.717 47.1329 247.072 46.5405C246.251 45.7704 245.372 45.0595 244.258 44.4079" stroke="#838D94" stroke-miterlimit="10"/>
<path d="M300.008 151.215C292.212 151.808 293.15 157.495 293.15 157.495" stroke="#838D94" stroke-miterlimit="10"/>
</g>
<rect x="0.5" y="0.5" width="359" height="159" rx="13.5" stroke="#5E6073"/>
</svg>
