<svg width="360" height="160" viewBox="0 0 360 160" fill="none" xmlns="http://www.w3.org/2000/svg">
<rect x="0.5" y="0.5" width="359" height="159" rx="13.5" fill="#EAF1F6" stroke="#5E6073"/>
<mask id="mask0_434_4844" style="mask-type:alpha" maskUnits="userSpaceOnUse" x="0" y="0" width="360" height="160">
<rect x="0.5" y="0.5" width="359" height="159" rx="13.5" fill="#EAF1F6" stroke="#5E6073"/>
</mask>
<g mask="url(#mask0_434_4844)">
<path d="M315.331 96.8354C315.331 96.8354 329.306 90.9596 327.797 73.733C327.797 73.733 331.799 90.4255 316.446 98.972C316.381 99.0388 314.085 98.104 315.331 96.8354Z" fill="#D5F0FE"/>
<path d="M315.331 96.8354C315.331 96.8354 329.306 90.9596 327.797 73.733C327.797 73.733 331.799 90.4255 316.446 98.972C316.381 99.0388 314.085 98.104 315.331 96.8354Z" fill="#ADBFC9"/>
<mask id="mask1_434_4844" style="mask-type:luminance" maskUnits="userSpaceOnUse" x="314" y="73" width="15" height="26">
<path d="M315.332 96.8354C315.332 96.8354 329.307 90.9596 327.798 73.733C327.798 73.733 331.8 90.4255 316.447 98.972C316.382 99.0388 314.085 98.104 315.332 96.8354Z" fill="white"/>
</mask>
<g mask="url(#mask1_434_4844)">
<path d="M318.416 96.5684V96.7019C318.482 96.7019 318.416 96.6351 318.416 96.5684Z" fill="#ADBFC9"/>
<path d="M320.778 95.4332L320.712 95.2996C320.712 95.3442 320.734 95.3887 320.778 95.4332Z" fill="#ADBFC9"/>
<path d="M316.055 97.2368C316.055 97.1691 315.987 97.1691 316.055 97.2368Z" fill="#ADBFC9"/>
<path d="M321.5 94.7639V94.6983C321.434 94.6327 321.5 94.6983 321.5 94.7639Z" fill="#ADBFC9"/>
<path d="M316.841 97.1025C316.972 97.5031 316.776 97.1693 316.841 97.5699C316.841 97.4364 316.907 97.3696 316.972 97.6367C316.972 97.9038 316.841 97.6367 316.972 97.9705L317.038 97.837C317.104 97.9705 317.169 98.3044 317.169 98.2376C317.104 97.7035 317.432 98.3711 317.497 98.2376V98.3044L317.694 98.5047V98.4379C317.825 98.6382 317.957 98.7718 318.022 98.705C317.957 98.4379 318.285 98.5047 318.219 98.2376C318.219 98.3044 318.153 98.3044 318.088 98.3044L317.957 97.9705C318.022 97.9705 318.088 98.2376 318.088 98.0373C317.891 97.5699 317.957 98.1041 317.891 98.0373V97.7702C317.76 97.7702 317.628 97.7034 317.694 98.1708C317.628 98.1041 317.563 97.9038 317.563 97.837C317.563 98.1041 317.432 97.5699 317.432 97.837C317.3 97.4364 317.563 97.5699 317.497 97.3028C317.694 97.5699 317.76 97.2361 317.825 97.1693C317.957 97.4364 317.957 97.7702 318.088 97.9038C318.285 98.0373 318.153 97.7034 318.153 97.5031C318.285 97.5699 318.35 97.9705 318.481 97.9705V98.1708C318.744 98.5715 318.481 97.9705 318.613 98.0373C318.547 97.9038 318.481 97.837 318.416 97.9038C318.35 97.7702 318.35 97.6367 318.416 97.6367C318.35 97.4364 318.285 97.1693 318.416 97.2361C318.481 97.5031 318.547 97.3696 318.613 97.5031V97.5699C318.613 97.4364 318.744 97.4364 318.744 97.4364V97.5031C318.744 97.3696 318.613 97.1025 318.744 97.1025C318.809 97.2361 318.875 97.5699 318.941 97.5031C319.006 97.7034 318.941 97.7702 318.875 97.7034C318.941 97.7702 319.137 98.0373 319.072 98.1041C319.203 98.3044 319.137 97.9705 319.203 98.0373C319.137 97.9705 319.137 97.9038 319.072 97.837C319.203 98.1708 319.269 97.7702 319.137 97.5699V97.7702C319.006 97.5031 319.006 97.3028 318.941 97.1693C319.137 97.5699 319.072 96.9022 319.269 97.1693L319.137 96.969C319.334 96.969 319.269 96.5016 319.334 96.3013C319.334 96.4348 319.597 96.9022 319.4 96.7687C319.597 96.7687 319.662 97.1693 319.859 97.3696C320.056 97.4364 319.728 96.969 319.662 96.7687L319.597 96.9022C319.4 96.3681 319.925 96.8354 319.925 96.4348C319.99 96.5684 319.925 96.5016 319.925 96.5684C320.122 96.7687 319.99 96.5016 319.925 96.3681C319.99 96.3681 320.187 96.4348 320.318 96.7687C320.45 96.7687 320.187 96.5684 320.187 96.5016L320.253 96.5684L320.122 96.1677C320.253 96.2345 320.45 96.3013 320.646 96.5684C320.778 96.4348 320.253 95.9007 320.318 95.7004C320.45 95.8339 320.45 95.9007 320.515 96.0342L320.581 95.9674C320.778 96.3013 320.581 96.2345 320.843 96.5684C320.646 96.101 320.909 96.3681 320.843 96.0342C320.712 95.7671 320.975 95.8339 320.975 95.7671C321.04 95.9674 320.975 96.0342 320.975 96.101C321.106 96.1677 321.237 95.9007 321.04 95.5668C321.106 95.5668 321.303 95.6336 321.368 95.8339C321.565 95.7671 321.04 95.3665 321.237 95.2997L321.434 95.5668C321.827 95.7671 321.434 95.0327 321.827 95.233L321.565 94.9659C321.696 95.0327 321.827 95.0994 321.893 95.1662V95.2997C322.155 95.5 321.762 95.0327 321.959 95.0994C321.893 95.0327 321.631 94.8991 321.565 94.7656C321.434 95.1662 320.843 94.9659 320.843 95.4333C320.909 95.4333 320.909 95.5 320.975 95.5668C320.909 95.5 320.909 95.6336 320.778 95.5C320.778 95.6336 320.45 95.2997 320.384 95.2997C320.515 95.5 320.187 95.2997 320.45 95.6336L320.253 95.4333C320.318 95.5668 320.45 95.7671 320.45 95.8339C320.384 95.8339 320.253 95.7004 320.253 95.5668C319.99 95.5668 319.794 95.7671 319.662 95.9674L319.597 95.7671C319.466 95.7004 319.597 96.1677 319.4 95.7004C319.4 95.9007 319.072 95.7004 319.334 96.1677C319.006 95.7671 319.006 96.101 318.875 96.2345C319.137 96.6351 318.809 96.4348 318.875 96.6351C318.678 96.3013 318.809 96.2345 318.744 96.0342C318.875 96.6351 318.219 95.8339 318.547 96.7019L318.481 96.6351C318.481 96.6351 318.35 96.5016 318.285 96.5016C318.35 96.6351 318.416 96.7019 318.35 96.7687C318.285 96.7687 318.219 96.5016 318.153 96.4348C318.153 96.7019 318.022 96.8354 318.153 97.1693C318.088 97.1025 317.957 96.9022 317.957 96.8354C317.891 97.1693 317.76 96.8354 317.694 97.1025C317.76 97.1025 317.563 96.7019 317.694 96.8354C317.432 96.368 317.497 97.0358 317.235 96.7687L317.3 97.1025C317.235 97.1693 317.169 96.9022 317.169 96.7687C316.972 96.6351 316.972 96.8354 316.841 96.8354C316.841 96.7687 316.841 96.7019 316.841 96.7687H316.71C316.71 96.8354 316.71 97.0358 316.776 97.2361C316.71 97.1025 316.71 96.969 316.841 97.1025Z" fill="#ADBFC9"/>
<path d="M318.744 98.1709C318.679 98.1041 318.679 98.0373 318.679 98.0373C318.679 98.1041 318.679 98.1709 318.744 98.1709Z" fill="#ADBFC9"/>
<path d="M315.332 98.1708C315.398 98.705 315.398 98.1041 315.529 98.2376C315.464 98.3044 315.529 98.6382 315.529 98.7718C315.529 98.1041 315.66 98.9053 315.792 98.705C315.857 98.9053 315.726 98.9721 315.792 99.1724C315.857 98.9721 315.989 98.9053 315.989 98.5047C316.12 98.5047 316.251 98.5715 316.382 98.5047C316.317 98.6382 316.448 98.8385 316.382 99.1724C316.448 98.705 316.579 98.1708 316.645 97.6367C316.732 97.9038 316.798 98.1708 316.841 98.4379C317.104 98.6382 316.776 98.0373 317.038 98.1041L316.973 98.0373C317.038 97.9038 316.907 97.5031 316.907 97.2361L316.71 97.3696C316.645 97.1025 316.776 97.1025 316.776 97.0358C316.776 96.7019 316.645 96.8354 316.579 96.5684C316.579 96.7687 316.513 96.7687 316.513 96.8354L316.448 96.7019C316.317 96.5684 316.382 96.969 316.317 96.969V96.9022V97.3696H316.382C316.382 97.7035 316.251 97.9705 316.448 98.3712L316.251 98.3044C316.185 97.9038 316.185 97.3028 316.251 97.2361V97.1025C316.12 96.9022 316.054 97.4364 316.185 97.7702C316.251 98.705 315.857 97.837 315.792 98.2376C315.726 97.9705 315.792 97.9038 315.857 97.7035C315.901 97.6589 315.945 97.7035 315.989 97.837C316.185 97.6367 315.857 97.0358 316.054 97.1025C316.185 97.2361 315.989 97.5031 316.12 97.5699V96.8354C316.054 96.8354 315.989 96.969 315.923 97.1025C315.792 97.3696 315.595 97.3696 315.464 97.3696C315.332 97.3696 315.267 97.2361 315.267 97.2361C314.676 97.3696 314.086 97.4364 313.495 97.3696C313.299 97.4364 313.233 97.3696 313.036 98.0373C313.036 98.1708 313.167 98.1708 313.102 98.3712C313.167 98.1041 313.299 97.9705 313.364 98.0373C313.364 98.3044 313.233 98.1708 313.233 98.2376C313.167 98.3712 313.167 98.4379 313.102 98.4379C313.167 98.8385 313.43 98.7718 313.561 98.3044C313.627 98.5715 313.43 98.705 313.364 98.9053C313.692 99.1724 313.955 99.1056 314.348 99.1724C314.348 98.705 314.414 98.9053 314.48 98.5715V98.705C314.48 98.6382 314.545 98.3044 314.48 98.2376C314.676 98.5715 314.742 97.6367 314.808 97.4364V97.7035C314.895 97.6589 314.961 97.5922 315.004 97.5031C315.201 97.9705 314.873 97.5699 314.939 98.1708L315.004 98.1041C315.004 98.3044 314.939 98.705 314.939 98.9053C315.136 98.5047 315.201 99.0389 315.398 98.7718C315.398 99.0389 315.201 99.2392 315.201 99.3059C315.267 99.3059 315.398 99.1056 315.398 99.3727V99.0388C315.529 98.9721 315.398 99.3727 315.464 99.573C315.464 99.3727 315.136 98.3711 315.332 98.1708Z" fill="#ADBFC9"/>
<path d="M317.957 97.7702C317.913 97.7702 317.892 97.7921 317.892 97.8358L317.957 97.7702Z" fill="#ADBFC9"/>
<path d="M317.629 98.5046V98.6382C317.673 98.5937 317.673 98.5492 317.629 98.5046Z" fill="#ADBFC9"/>
<path d="M317.761 98.9721C317.695 98.8386 317.761 98.8386 317.695 98.6382C317.695 98.7718 317.564 98.7718 317.761 98.9721Z" fill="#ADBFC9"/>
<path d="M324.977 93.2965C324.912 93.2298 324.911 93.0962 324.78 93.0962V93.2298L324.977 93.2965Z" fill="#ADBFC9"/>
<path d="M324.518 93.2966H324.387L324.715 93.6305C324.715 93.4969 324.452 93.3634 324.518 93.2966Z" fill="#ADBFC9"/>
<path d="M324.19 93.3622L324.124 93.2966C324.124 93.2966 324.124 93.3622 324.19 93.3622Z" fill="#ADBFC9"/>
<path d="M324.321 93.4969L324.517 93.6972L324.452 93.4301L324.321 93.4969C324.277 93.4524 324.233 93.4079 324.189 93.3634L324.321 93.4969Z" fill="#ADBFC9"/>
<path d="M323.599 93.4301C323.73 93.4969 323.795 93.6304 323.927 93.6972C324.058 93.6972 323.73 93.3634 323.927 93.4301C324.058 93.6972 324.124 93.4969 324.255 93.5637C323.992 93.4301 323.795 93.2966 323.599 93.4301L323.795 93.4969C323.795 93.4969 323.73 93.4301 323.599 93.4301Z" fill="#ADBFC9"/>
<path d="M323.664 94.1646L323.467 93.8975C323.599 93.9643 323.664 93.8975 323.927 94.0978C323.927 94.0311 323.795 93.9643 323.795 93.8307C323.927 93.8975 324.058 93.9643 323.927 93.764C323.664 93.764 323.599 93.6972 323.467 93.764C323.402 93.6972 323.467 93.6972 323.467 93.6972H323.271C323.467 93.9643 323.402 94.0978 323.664 94.1646Z" fill="#ADBFC9"/>
<path d="M323.402 94.0978C323.468 94.0311 323.271 93.764 323.074 93.6972C323.074 93.8308 323.14 93.8975 323.14 93.9643C323.14 93.9643 323.205 93.8975 323.402 94.0978Z" fill="#ADBFC9"/>
<path d="M323.271 94.2314C323.14 94.1646 322.812 93.9643 323.009 94.2314C323.074 94.0979 323.402 94.4317 323.271 94.2314Z" fill="#ADBFC9"/>
<path d="M322.615 94.4985H322.877C323.205 94.7656 322.877 94.632 323.009 94.8323C323.14 94.7656 323.074 94.6988 322.943 94.4985C323.009 94.4985 322.877 94.2982 322.812 94.1646C322.943 94.4985 322.221 93.8308 322.615 94.4985Z" fill="#ADBFC9"/>
<path d="M323.14 94.4985L323.074 94.365V94.4985H323.14Z" fill="#ADBFC9"/>
<path d="M322.025 94.4985C321.631 94.2314 322.09 94.8324 321.828 94.7656C321.828 94.7656 321.762 94.6988 321.762 94.632L321.696 94.6988L321.631 94.632C321.828 94.8323 321.828 94.9659 321.959 95.1662C322.221 95.2997 321.762 94.8991 322.025 95.0327C322.09 95.1662 322.221 95.2997 322.287 95.3665C322.221 95.233 322.156 95.0994 322.025 94.9659C322.025 94.8991 322.156 95.0327 322.221 95.0994C322.156 94.8991 321.893 94.632 322.025 94.632C322.221 94.7656 322.287 94.9659 322.287 94.7656C321.959 94.4985 322.418 94.6988 322.287 94.4985C322.418 94.4985 322.615 94.632 322.746 94.7656C322.484 94.4985 322.353 94.2314 322.353 94.1646L322.418 94.4985L322.09 94.2314C322.221 94.4317 322.156 94.4985 322.025 94.4985Z" fill="#ADBFC9"/>
<path d="M322.877 94.8991L322.943 94.9658L323.008 95.0326L322.877 94.8991Z" fill="#ADBFC9"/>
<path d="M322.221 95.5668L322.024 95.4333L322.156 95.5668H322.221Z" fill="#ADBFC9"/>
<path d="M320.385 96.7686C320.516 96.8354 320.385 96.6351 320.254 96.4348C320.122 96.4348 320.385 96.6351 320.385 96.7686Z" fill="#ADBFC9"/>
<path d="M319.335 97.7702C319.466 97.9038 319.401 97.6367 319.532 97.5699C319.401 97.5031 319.335 97.6367 319.335 97.7702Z" fill="#ADBFC9"/>
<path d="M319.203 98.8384C319.203 98.7716 319.203 98.7048 319.138 98.7048L319.006 98.2374C318.809 98.1039 319.072 98.7048 319.203 98.8384Z" fill="#ADBFC9"/>
<path d="M318.547 99.2391L318.613 99.0388H318.547C318.482 98.8385 318.482 98.7717 318.482 98.5714C318.416 98.7049 318.416 98.9052 318.547 99.2391Z" fill="#ADBFC9"/>
<path d="M318.481 98.4379C318.547 98.5691 318.547 98.5035 318.481 98.4379Z" fill="#ADBFC9"/>
<path d="M318.416 98.5033C318.46 98.5033 318.46 98.5033 318.416 98.5033C318.482 98.4377 318.416 98.3721 318.416 98.5033Z" fill="#ADBFC9"/>
<path d="M318.35 99.0389L318.153 99.1725L318.285 99.2393C318.219 98.9054 318.481 99.306 318.35 99.0389Z" fill="#ADBFC9"/>
<path d="M317.301 99.1056L317.235 98.8385C317.104 98.7717 317.104 99.5062 316.907 99.0388C316.973 99.1723 316.907 99.3727 317.038 99.4394C317.038 99.1056 317.17 99.0388 317.301 99.1056Z" fill="#ADBFC9"/>
<path d="M316.776 98.7717C316.776 98.7049 316.71 98.6382 316.71 98.5714C316.645 98.5714 316.645 98.7049 316.71 98.8385C316.579 98.3711 316.776 99.0388 316.776 98.7717Z" fill="#ADBFC9"/>
<path d="M316.186 98.9053C316.251 98.9053 316.251 98.8385 316.186 98.7717C316.055 98.8385 316.186 99.1056 316.12 99.3727C316.317 99.5062 316.317 99.0388 316.186 98.9053Z" fill="#ADBFC9"/>
<path d="M315.136 96.8355C315.201 97.1025 315.267 97.0358 315.267 96.969C315.267 96.969 315.201 96.9022 315.136 96.8355Z" fill="#ADBFC9"/>
<path d="M315.332 98.9721L315.398 99.0389V98.6382L315.332 98.9721Z" fill="#ADBFC9"/>
</g>
<path d="M179 158.13C179 154 335.5 151.5 344 157.5C350.626 159.236 326.025 159.065 297.748 158.998C267.699 158.998 233.276 157.998 223.5 159C204.474 160.87 179 174.537 179 158.13Z" fill="#838D94"/>
<path d="M305.556 133.158C300.11 137.765 296.042 151.253 294.73 155.86C294.468 156.795 293.615 157.463 292.631 157.463H289.088C288.038 157.463 287.185 156.661 287.054 155.593C285.545 141.705 290.072 126.014 290.072 126.014C290.072 126.014 294.337 121.874 300.045 123.143C305.818 124.545 315.135 125.012 305.556 133.158Z" fill="#ADBFC9"/>
<path fill-rule="evenodd" clip-rule="evenodd" d="M289.432 151.708C289.655 151.754 289.801 151.975 289.756 152.203C289.535 153.327 289.502 154.594 289.526 155.591C289.538 156.087 289.564 156.511 289.587 156.811C289.599 156.961 289.61 157.079 289.617 157.16C289.621 157.2 289.624 157.23 289.627 157.251L289.629 157.274L289.63 157.279L289.63 157.28C289.656 157.511 289.494 157.72 289.267 157.747C289.04 157.774 288.835 157.608 288.809 157.377L289.219 157.329C288.809 157.377 288.809 157.378 288.809 157.377L288.808 157.375L288.808 157.367L288.805 157.341C288.802 157.318 288.799 157.285 288.795 157.242C288.786 157.157 288.775 157.033 288.763 156.877C288.739 156.565 288.712 156.125 288.699 155.612C288.674 154.589 288.707 153.251 288.945 152.038C288.99 151.811 289.208 151.663 289.432 151.708Z" fill="#838D94"/>
<path fill-rule="evenodd" clip-rule="evenodd" d="M292.659 152.98C292.882 153.033 293.019 153.26 292.967 153.486C292.844 154.019 292.747 154.909 292.681 155.687C292.649 156.072 292.624 156.421 292.608 156.675C292.6 156.802 292.594 156.904 292.59 156.975L292.585 157.056L292.584 157.077L292.584 157.084C292.584 157.084 292.584 157.084 292.584 157.084C292.572 157.316 292.377 157.494 292.149 157.482C291.921 157.47 291.746 157.272 291.758 157.04L291.759 157.032L291.76 157.01L291.765 156.926C291.769 156.854 291.775 156.749 291.783 156.62C291.8 156.363 291.825 156.007 291.858 155.615C291.923 154.841 292.023 153.894 292.162 153.293C292.215 153.067 292.437 152.927 292.659 152.98Z" fill="#838D94"/>
<mask id="mask2_434_4844" style="mask-type:luminance" maskUnits="userSpaceOnUse" x="286" y="122" width="24" height="36">
<path d="M305.555 133.158C300.109 137.765 296.041 151.253 294.729 155.86C294.467 156.795 293.614 157.462 292.63 157.462H289.087C288.037 157.462 287.184 156.661 287.053 155.593C285.544 141.705 290.071 126.014 290.071 126.014C290.071 126.014 294.336 121.874 300.044 123.143C305.817 124.545 315.134 125.012 305.555 133.158Z" fill="white"/>
</mask>
<g mask="url(#mask2_434_4844)">
<path d="M296.042 126.682V126.481C296.108 126.548 296.108 126.615 296.042 126.682Z" fill="#838D94"/>
<path d="M299.322 129.219C299.322 129.219 299.322 129.284 299.257 129.284C299.257 129.219 299.322 129.219 299.322 129.219Z" fill="#838D94"/>
<path d="M303.521 129.686C303.587 129.752 303.587 129.686 303.521 129.686V129.752C303.521 129.817 303.521 129.752 303.521 129.686Z" fill="#838D94"/>
<path d="M302.603 132.491L302.472 132.624C302.515 132.535 302.559 132.491 302.603 132.491Z" fill="#838D94"/>
<path d="M303.719 129.085C303.719 129.152 303.653 129.152 303.653 129.219C303.653 129.174 303.675 129.13 303.719 129.085Z" fill="#838D94"/>
<path d="M299.978 127.216V127.281C299.934 127.281 299.934 127.259 299.978 127.216Z" fill="#838D94"/>
<path d="M294.664 126.413C294.599 126.413 294.599 126.347 294.599 126.347C294.642 126.304 294.664 126.325 294.664 126.413Z" fill="#838D94"/>
<path d="M302.602 128.685C302.143 129.018 302.668 128.818 302.274 129.152C302.34 129.018 302.34 128.885 302.077 129.085C301.881 129.352 302.209 129.152 301.881 129.486L301.946 129.286C301.749 129.419 301.553 129.686 301.487 129.619C301.881 129.085 301.093 129.553 301.093 129.419V129.486C300.962 129.553 300.896 129.553 300.831 129.619L300.896 129.553C300.634 129.753 300.503 129.886 300.503 129.82C300.547 129.686 300.547 129.597 300.503 129.553C300.437 129.486 300.372 129.486 300.437 129.352C300.437 129.486 300.503 129.486 300.568 129.419L300.7 129.018C300.568 129.018 300.568 129.419 300.568 129.085C300.7 128.685 300.765 128.885 300.765 129.018C300.765 129.063 300.787 129.085 300.831 129.085C300.831 129.018 300.896 128.885 300.831 128.818V128.751H300.896C301.028 128.751 301.29 128.751 301.028 129.286C301.159 129.219 301.29 129.018 301.29 128.952C301.159 129.286 301.553 128.751 301.487 129.085C301.815 128.685 301.421 128.685 301.487 128.351C301.29 128.484 301.224 128.418 301.159 128.351C301.028 128.284 301.028 128.084 300.896 128.017C300.765 128.418 300.765 128.751 300.634 128.952C300.372 129.152 300.568 128.685 300.503 128.418C300.372 128.484 300.24 129.018 300.109 129.018V129.286C299.847 129.753 300.109 129.018 299.978 129.085C300.044 128.952 300.109 128.818 300.175 128.885C300.24 128.685 300.24 128.618 300.175 128.551C300.24 128.284 300.306 128.017 300.175 128.084C300.175 128.418 299.978 128.284 299.912 128.418V128.484C299.847 128.351 299.781 128.351 299.715 128.284V128.351C299.715 128.217 299.781 127.817 299.65 127.883C299.584 128.017 299.584 128.484 299.519 128.418C299.453 128.685 299.584 128.751 299.65 128.685C299.519 128.751 299.387 129.152 299.453 129.152C299.322 129.419 299.387 129.018 299.256 129.085C299.322 129.018 299.322 128.885 299.322 128.818C299.191 129.219 299.125 128.751 299.191 128.484L299.256 128.751C299.387 128.418 299.322 128.15 299.387 128.017C299.191 128.551 299.191 127.683 298.994 128.084L299.125 127.817C298.863 127.883 298.797 127.282 298.6 127.082C298.666 127.282 298.469 127.883 298.666 127.683C298.403 127.75 298.469 128.217 298.272 128.484C298.075 128.618 298.338 127.95 298.338 127.75L298.403 127.883C298.403 127.149 297.944 127.883 297.813 127.416C297.747 127.616 297.813 127.55 297.878 127.616C297.682 127.95 297.813 127.549 297.747 127.349C297.616 127.349 297.419 127.483 297.419 127.95C297.288 128.017 297.485 127.683 297.485 127.549L297.419 127.616V127.082C297.288 127.216 297.091 127.416 296.96 127.817C296.697 127.683 297.091 126.815 296.96 126.615C296.829 126.815 296.894 126.949 296.894 127.082L296.763 127.015C296.697 127.483 296.894 127.282 296.763 127.817C296.763 127.216 296.632 127.616 296.501 127.216V127.149C296.501 126.748 296.238 126.949 296.173 126.882C296.173 127.149 296.304 127.149 296.369 127.282C296.238 127.416 295.976 127.216 295.91 126.681C295.845 126.748 295.648 126.949 295.713 127.149C295.451 127.216 295.713 126.414 295.517 126.548L295.451 126.949C295.123 127.416 295.057 126.414 294.795 126.815L294.86 126.348C294.795 126.548 294.664 126.615 294.598 126.815L294.664 127.015C294.532 127.416 294.598 126.615 294.467 126.882C294.467 126.748 294.664 126.414 294.664 126.281C295.057 126.615 295.648 126.081 296.041 126.615C296.041 126.681 295.976 126.748 295.976 126.815C296.041 126.681 296.107 126.882 296.173 126.615V126.548C296.304 126.681 296.501 126.147 296.566 126.147C296.566 126.481 296.829 126.081 296.697 126.615L296.829 126.281C296.829 126.481 296.763 126.748 296.763 126.882C296.829 126.882 296.894 126.615 296.894 126.481C297.288 126.348 297.616 126.481 297.944 126.748V126.481C298.075 126.348 298.141 127.015 298.206 126.348C298.338 126.615 298.731 126.281 298.535 126.949C298.797 126.348 298.994 126.815 299.191 126.949C298.994 127.483 299.322 127.149 299.322 127.416C299.453 127.015 299.256 126.949 299.322 126.615C299.387 127.349 300.109 126.348 299.847 127.483C299.89 127.438 299.912 127.394 299.912 127.349C299.978 127.349 300.109 127.216 300.109 127.149C300.044 127.349 299.978 127.416 300.044 127.483C300.109 127.483 300.175 127.149 300.24 127.015C300.306 127.282 300.568 127.483 300.437 127.95C300.503 127.817 300.634 127.616 300.634 127.549C300.765 128.017 300.896 127.549 301.093 127.883C300.962 127.817 301.224 127.416 301.028 127.549C301.159 127.282 301.29 127.349 301.421 127.416C301.553 127.55 301.684 127.817 301.946 127.75C301.881 127.883 301.881 128.017 301.815 128.15C301.946 128.351 302.209 128.017 302.143 127.817C302.405 127.817 302.471 127.883 302.471 128.017C302.537 128.084 302.537 128.217 302.602 128.284C302.668 128.284 302.668 128.217 302.668 128.15C302.733 128.217 302.799 128.284 302.865 128.351C302.799 128.418 302.733 128.685 302.537 128.818C302.733 128.885 302.799 128.685 302.602 128.685Z" fill="#838D94"/>
<path d="M299.781 129.352C299.847 129.286 299.847 129.219 299.912 129.219C299.912 129.286 299.847 129.286 299.781 129.352Z" fill="#838D94"/>
<path d="M303.456 131.355C302.931 131.689 303.456 131.155 303.259 131.155C303.259 131.289 302.931 131.489 302.8 131.556C303.39 130.955 302.603 131.556 302.603 131.222C302.406 131.355 302.406 131.489 302.209 131.689C302.275 131.489 302.275 131.222 302.603 130.955C302.472 130.755 302.275 130.755 302.275 130.621C302.209 130.821 301.947 130.955 301.685 131.222C302.013 130.755 302.341 130.087 302.669 129.486C302.275 129.82 302.209 129.82 301.881 130.154C301.488 130.154 302.209 129.82 301.947 129.686H302.078C302.144 129.486 302.472 129.152 302.669 128.952C302.734 129.018 302.8 129.152 302.8 129.219C303.062 129.018 302.931 128.885 302.931 128.751C303.194 128.418 303.259 128.685 303.456 128.418C303.259 128.618 303.456 128.685 303.39 128.818L303.522 128.685C303.784 128.685 303.456 129.018 303.522 129.152C303.587 129.152 303.587 129.085 303.653 129.085C303.522 129.219 303.325 129.419 303.325 129.553V129.486C303.062 129.82 302.997 130.22 302.537 130.354L302.8 130.487C303.194 130.154 303.718 129.686 303.653 129.486L303.784 129.352C304.112 129.286 303.718 129.887 303.325 130.087C302.472 130.888 303.587 130.487 303.325 130.955C303.587 130.755 303.653 130.621 303.784 130.421C303.784 130.354 303.784 130.287 303.522 130.487C303.522 130.154 304.375 129.953 304.046 129.753C303.85 129.753 303.784 130.22 303.587 130.02L304.178 129.352C304.243 129.486 304.243 129.686 304.178 129.82C304.112 130.688 304.768 130.755 304.768 130.755C305.227 131.623 305.621 132.424 306.015 133.292C306.08 133.626 306.146 133.692 305.424 134.227C305.227 134.227 305.227 134.093 304.965 134.293C305.227 134.093 305.359 133.893 305.227 133.826C304.965 133.959 305.162 134.026 305.096 134.026H305.031C304.899 134.093 304.834 134.227 304.834 134.227C304.375 134.293 304.309 134.026 304.703 133.626C304.375 133.692 304.309 133.959 304.178 134.16C303.718 133.893 303.587 133.559 303.325 133.225C303.784 132.891 303.587 132.958 303.85 132.758L303.653 132.824C303.718 132.758 304.046 132.491 304.178 132.557C303.653 132.557 304.637 131.89 304.703 131.556L304.44 131.756C304.375 131.623 304.375 131.556 304.44 131.355C303.85 131.422 304.506 131.623 303.85 131.956L303.915 131.823C303.718 132.023 303.325 132.29 303.194 132.491C303.456 132.023 302.866 132.29 302.997 131.89C302.734 132.09 302.669 132.424 302.669 132.491C302.603 132.424 302.669 132.157 302.472 132.357L302.8 132.09C302.734 131.956 302.472 132.29 302.275 132.424C302.209 132.223 303.39 131.756 303.456 131.355Z" fill="#838D94"/>
<path d="M300.7 128.818C300.744 128.818 300.788 128.84 300.831 128.884C300.766 128.884 300.766 128.818 300.7 128.818Z" fill="#838D94"/>
<path d="M300.896 129.753C300.853 129.797 300.831 129.842 300.831 129.886C300.765 129.82 300.831 129.82 300.896 129.753Z" fill="#838D94"/>
<path d="M300.503 130.22C300.59 130.131 300.678 130.02 300.765 129.887C300.7 129.953 300.765 130.087 300.503 130.22Z" fill="#838D94"/>
<path d="M289.941 127.883C289.941 127.75 289.875 127.616 289.875 127.55L290.006 127.683L289.941 127.883Z" fill="#838D94"/>
<path d="M290.269 127.483L290.4 127.349L290.465 127.883C290.269 127.883 290.4 127.483 290.269 127.483Z" fill="#838D94"/>
<path d="M290.662 127.416V127.817L290.531 127.483L290.662 127.416C290.597 127.282 290.662 127.282 290.662 127.216V127.416Z" fill="#838D94"/>
<path d="M291.187 126.748C291.121 126.882 291.187 127.149 291.187 127.283C291.056 127.416 291.056 126.815 290.924 127.015C291.056 127.349 290.859 127.216 290.728 127.483C290.793 127.082 290.859 126.882 291.056 126.748V127.015C291.187 127.015 291.121 126.815 291.187 126.748Z" fill="#838D94"/>
<path d="M291.843 127.416L291.778 127.015C291.712 127.216 291.581 127.149 291.515 127.55C291.45 127.483 291.45 127.349 291.45 127.216C291.384 127.416 291.318 127.55 291.318 127.282C291.581 127.015 291.515 126.949 291.778 126.882C291.778 126.837 291.756 126.815 291.712 126.815L291.909 126.615C291.843 127.082 292.04 127.149 291.843 127.416Z" fill="#838D94"/>
<path d="M292.106 127.149C291.975 127.082 291.975 126.748 292.04 126.548L292.237 126.882C292.171 126.815 292.106 126.815 292.106 127.149Z" fill="#838D94"/>
<path d="M292.303 127.149C292.368 126.949 292.5 126.548 292.565 126.949C292.368 126.882 292.368 127.483 292.303 127.149Z" fill="#838D94"/>
<path d="M293.155 126.949L292.892 127.149C292.761 127.616 292.958 127.349 293.024 127.55C292.827 127.616 292.892 127.483 292.761 127.149C292.696 127.149 292.63 126.882 292.564 126.748C292.892 127.216 293.024 126.014 293.155 126.949Z" fill="#838D94"/>
<path d="M292.631 127.349V127.149L292.762 127.349H292.631Z" fill="#838D94"/>
<path d="M293.811 126.481C294.008 125.947 294.008 126.882 294.205 126.615V126.481L294.336 126.548V126.414C294.271 126.748 294.402 126.949 294.402 127.216C294.205 127.549 294.402 126.748 294.205 127.149V127.683C294.139 127.483 294.139 127.282 294.139 127.082C294.074 127.015 294.074 127.216 294.008 127.349C293.943 127.149 294.008 126.615 293.811 126.748C293.68 127.015 293.811 127.216 293.68 127.082C293.811 126.548 293.483 127.149 293.483 126.815C293.352 126.882 293.221 127.216 293.221 127.416C293.286 127.015 293.221 126.615 293.155 126.481L293.352 126.882L293.483 126.414C293.615 126.548 293.68 126.548 293.811 126.481Z" fill="#838D94"/>
<path d="M293.221 127.55L293.286 127.616L293.221 127.75V127.55Z" fill="#838D94"/>
<path d="M294.467 127.75L294.598 127.483V127.683L294.467 127.75Z" fill="#838D94"/>
<path d="M297.354 128.017C297.223 128.15 297.288 127.817 297.354 127.55C297.485 127.55 297.288 127.883 297.354 128.017Z" fill="#838D94"/>
<path d="M298.929 128.885C298.798 129.085 298.798 128.751 298.667 128.685C298.798 128.618 298.929 128.751 298.929 128.885Z" fill="#838D94"/>
<path d="M299.322 130.287C299.322 130.154 299.322 130.087 299.388 130.087L299.519 129.486C299.65 129.286 299.388 130.02 299.322 130.287Z" fill="#838D94"/>
<path d="M300.044 130.621L299.979 130.354H300.044C300.11 130.087 300.11 130.02 300.11 129.753C300.175 129.953 300.175 130.22 300.044 130.621Z" fill="#838D94"/>
<path d="M300.044 129.619C300.088 129.664 300.088 129.664 300.044 129.619C300.044 129.82 300.044 129.753 300.044 129.619Z" fill="#838D94"/>
<path d="M300.175 129.753V129.82C300.132 129.775 300.132 129.753 300.175 129.753C300.175 129.619 300.11 129.619 300.175 129.753Z" fill="#838D94"/>
<path d="M300.24 130.354V130.421L300.175 130.487C300.24 130.287 300.24 130.354 300.175 130.421C300.175 130.487 300.109 130.554 300.24 130.354Z" fill="#838D94"/>
<path d="M300.831 130.487L301.094 130.287C301.225 130.354 300.765 131.022 301.29 130.688C301.093 130.754 301.028 131.022 300.831 130.955C301.093 130.688 300.962 130.554 300.831 130.487Z" fill="#838D94"/>
<path d="M301.619 130.554C301.685 130.487 301.75 130.421 301.882 130.421C301.947 130.421 301.882 130.621 301.75 130.688C302.013 130.287 301.422 130.821 301.619 130.554Z" fill="#838D94"/>
<path d="M302.013 131.155C302.013 131.088 302.013 131.022 302.078 131.022C302.144 131.155 301.816 131.355 301.619 131.556C301.422 131.622 301.816 131.222 302.013 131.155Z" fill="#838D94"/>
<path d="M304.834 130.421C304.571 130.621 304.506 130.487 304.637 130.354C304.571 130.487 304.703 130.487 304.834 130.421Z" fill="#838D94"/>
<path d="M302.734 131.956H302.603L302.996 131.689L302.734 131.956Z" fill="#838D94"/>
<path d="M302.93 132.824L302.733 133.025V132.891L302.93 132.824Z" fill="#838D94"/>
<path d="M303.128 132.891L303.194 133.025H303.063C302.931 133.025 303.128 132.891 303.128 132.891Z" fill="#838D94"/>
<path d="M303.259 133.292H303.193L303.325 133.092L303.259 133.292Z" fill="#838D94"/>
<path d="M306.08 134.16C306.342 133.959 306.211 134.227 306.342 134.227C306.277 134.227 305.883 134.36 306.08 134.16Z" fill="#838D94"/>
</g>
<path d="M192.971 123.209C192.971 123.209 182.473 128.351 180.308 141.037C180.112 142.105 180.046 143.24 180.112 144.375C180.112 145.11 180.636 145.778 181.358 145.911C182.08 146.045 182.998 146.178 183.72 146.312C184.507 146.445 185.295 146.112 185.754 145.444C187.066 143.507 190.215 139.435 195.464 137.231C195.464 137.231 201.041 136.83 202.615 132.758C204.19 128.685 197.957 122.208 196.382 122.208C194.873 122.275 192.971 123.209 192.971 123.209Z" fill="#ADBFC9"/>
<path fill-rule="evenodd" clip-rule="evenodd" d="M182.63 141.249C182.841 141.337 182.943 141.582 182.856 141.797C182.579 142.486 182.356 143.532 182.2 144.432C182.123 144.876 182.064 145.276 182.025 145.565C182.005 145.709 181.99 145.825 181.98 145.905C181.975 145.945 181.972 145.975 181.969 145.996L181.967 146.019L181.966 146.026C181.966 146.026 181.966 146.026 181.966 146.026M182.63 141.249C182.419 141.161 182.177 141.264 182.091 141.479ZM182.091 141.479C181.777 142.259 181.542 143.383 181.386 144.286ZM181.386 144.286C181.307 144.743 181.247 145.153 181.206 145.449ZM181.206 145.449C181.186 145.596 181.171 145.716 181.16 145.799ZM181.16 145.799C181.155 145.841 181.151 145.873 181.149 145.895ZM181.149 145.895L181.146 145.92ZM181.146 145.92L181.145 145.927ZM181.145 145.927L181.145 145.929ZM181.145 145.929L181.145 145.929ZM181.145 145.929C181.145 145.929 181.145 145.93 181.555 145.978Z" fill="#838D94"/>
<path fill-rule="evenodd" clip-rule="evenodd" d="M185.799 141.557C185.952 141.73 185.938 141.996 185.768 142.151C185.191 142.68 184.678 143.713 184.301 144.681C184.117 145.153 183.973 145.589 183.875 145.908C183.826 146.067 183.788 146.196 183.763 146.285C183.751 146.329 183.741 146.364 183.735 146.387L183.728 146.412L183.726 146.418L183.726 146.42C183.667 146.644 183.441 146.778 183.221 146.718C183 146.659 182.868 146.429 182.927 146.204L183.327 146.312C182.927 146.204 182.927 146.204 182.927 146.204L182.928 146.201L182.93 146.193L182.938 146.163C182.945 146.138 182.955 146.1 182.968 146.053C182.995 145.958 183.035 145.822 183.086 145.656C183.189 145.323 183.339 144.867 183.533 144.371C183.91 143.402 184.48 142.199 185.215 141.526C185.385 141.37 185.646 141.384 185.799 141.557Z" fill="#838D94"/>
<mask id="mask3_434_4844" style="mask-type:luminance" maskUnits="userSpaceOnUse" x="180" y="122" width="23" height="25">
<path d="M192.972 123.209C192.972 123.209 182.474 128.351 180.309 141.037C180.112 142.105 180.047 143.24 180.112 144.375C180.112 145.11 180.637 145.778 181.359 145.911C182.081 146.045 182.999 146.178 183.721 146.312C184.508 146.445 185.296 146.112 185.755 145.444C187.067 143.507 190.216 139.435 195.465 137.231C195.465 137.231 201.042 136.83 202.616 132.758C204.191 128.685 197.958 122.208 196.383 122.208C194.874 122.275 192.972 123.209 192.972 123.209Z" fill="white"/>
</mask>
<g mask="url(#mask3_434_4844)">
<path d="M194.546 130.755C194.481 130.755 194.481 130.82 194.415 130.82C194.415 130.755 194.481 130.755 194.546 130.755Z" fill="#838D94"/>
<path d="M194.415 126.481H194.612C194.481 126.547 194.415 126.547 194.415 126.481Z" fill="#838D94"/>
<path d="M193.497 131.088C193.453 131.133 193.387 131.177 193.3 131.222L193.497 131.088Z" fill="#838D94"/>
<path d="M194.809 134.827V134.893C194.744 134.893 194.809 134.827 194.809 134.827Z" fill="#838D94"/>
<path d="M194.612 134.694C194.568 134.738 194.568 134.738 194.612 134.694Z" fill="#838D94"/>
<path d="M195.268 134.427C195.202 134.427 195.202 134.493 195.137 134.493C195.137 134.493 195.202 134.427 195.268 134.427Z" fill="#838D94"/>
<path d="M194.612 130.754H194.547C194.591 130.71 194.612 130.71 194.612 130.754Z" fill="#838D94"/>
<path d="M194.547 124.946C194.547 124.879 194.612 124.879 194.612 124.812C194.612 124.879 194.612 124.946 194.547 124.946Z" fill="#838D94"/>
<path d="M194.677 133.492C194.153 133.492 194.677 133.626 194.218 133.626C194.349 133.559 194.415 133.492 194.153 133.425C193.89 133.492 194.153 133.559 193.759 133.626L193.89 133.492C193.693 133.425 193.365 133.559 193.365 133.492C193.956 133.359 193.168 133.158 193.234 133.025L193.168 133.092L192.906 132.891H193.037C192.775 132.824 192.578 132.691 192.644 132.557C192.972 132.491 192.775 132.09 193.037 132.023C192.972 132.09 192.972 132.157 193.037 132.224H193.431C193.431 132.09 193.103 132.224 193.3 132.09C193.825 132.09 193.3 132.29 193.365 132.357C193.496 132.29 193.562 132.29 193.628 132.224C193.628 132.424 193.825 132.624 193.3 132.758C193.431 132.824 193.628 132.758 193.693 132.758C193.365 132.891 194.021 132.824 193.693 132.958C194.153 132.891 193.956 132.691 194.218 132.557C193.825 132.357 194.218 132.157 194.284 131.956C193.956 131.956 193.628 132.09 193.431 132.023C193.168 131.823 193.628 131.823 193.825 131.689C193.693 131.556 193.234 131.689 193.234 131.489L192.972 131.623C192.447 131.489 193.168 131.489 193.037 131.422C193.168 131.422 193.3 131.422 193.3 131.556C193.496 131.556 193.562 131.489 193.562 131.422C193.825 131.356 194.087 131.356 193.956 131.222C193.628 131.289 193.759 131.088 193.562 131.088L193.496 131.155C193.628 131.022 193.562 130.955 193.628 130.888H193.562C193.693 130.821 194.087 130.755 193.956 130.688C193.825 130.688 193.431 130.821 193.496 130.688C193.3 130.688 193.234 130.821 193.365 130.955C193.3 130.821 192.906 130.755 192.906 130.955C192.644 130.888 193.037 130.821 192.906 130.755H193.168C192.775 130.755 193.168 130.488 193.431 130.488L193.234 130.621C193.562 130.621 193.759 130.488 193.89 130.554C193.431 130.488 194.153 130.22 193.693 130.154L193.956 130.22C193.825 129.953 194.349 129.753 194.481 129.486C194.349 129.553 193.825 129.553 193.956 129.753C193.825 129.486 193.431 129.686 193.168 129.553C192.972 129.352 193.693 129.486 193.825 129.419H193.693C194.284 129.286 193.562 128.885 193.956 128.618C193.825 128.618 193.89 128.685 193.825 128.685C193.496 128.551 193.89 128.551 194.021 128.484C193.956 128.351 193.825 128.217 193.431 128.284C193.365 128.151 193.693 128.284 193.759 128.217H193.693L194.153 128.084C194.021 127.95 193.825 127.817 193.431 127.75C193.496 127.483 194.284 127.683 194.481 127.483C194.284 127.349 194.153 127.483 194.021 127.483L194.087 127.283C193.628 127.349 193.89 127.483 193.365 127.483C193.89 127.349 193.496 127.283 193.89 127.082H193.956C194.284 127.016 194.087 126.815 194.153 126.682C193.956 126.748 193.89 126.882 193.825 126.949C193.693 126.815 193.825 126.481 194.284 126.348C194.218 126.281 194.021 126.081 193.825 126.214C193.759 125.947 194.481 126.147 194.349 125.88H194.021C193.562 125.613 194.481 125.413 194.087 125.146H194.481C194.284 125.079 194.218 124.946 194.087 124.946L193.956 125.079C193.628 124.946 194.284 125.012 194.087 124.812C194.218 124.812 194.481 124.946 194.612 124.946C194.349 125.48 194.874 126.014 194.415 126.481C194.349 126.481 194.284 126.415 194.218 126.415C194.284 126.481 194.218 126.548 194.415 126.548C194.284 126.682 194.809 126.815 194.809 126.949C194.546 127.016 194.94 127.216 194.415 127.149L194.743 127.283C194.546 127.283 194.349 127.283 194.218 127.349C194.284 127.416 194.415 127.483 194.546 127.416C194.743 127.817 194.677 128.217 194.481 128.551L194.743 128.484C194.874 128.551 194.349 128.818 194.94 128.752C194.677 128.952 195.071 129.219 194.481 129.219C195.071 129.352 194.743 129.686 194.612 129.887C194.087 129.82 194.481 130.087 194.218 130.154C194.612 130.22 194.612 129.953 194.874 129.953C194.218 130.22 195.334 130.688 194.284 130.755H194.415C194.415 130.821 194.612 130.888 194.612 130.955C194.415 130.955 194.349 130.888 194.284 131.022C194.349 131.088 194.612 131.088 194.743 131.088C194.481 131.289 194.415 131.556 194.021 131.623C194.153 131.689 194.349 131.756 194.415 131.689C194.087 131.956 194.481 131.956 194.284 132.29C194.284 132.157 194.743 132.224 194.546 132.09C195.137 132.224 194.415 132.557 194.743 132.758L194.349 132.891C194.284 133.025 194.612 133.025 194.743 132.958C195.005 133.225 194.743 133.292 194.743 133.492H194.874V133.759C194.809 133.759 194.612 133.893 194.349 133.893C194.677 133.692 194.809 133.626 194.677 133.492Z" fill="#838D94"/>
<path d="M192.841 131.289C192.906 131.289 192.972 131.354 192.972 131.354C192.906 131.354 192.841 131.354 192.841 131.289Z" fill="#838D94"/>
<path d="M193.956 136.229C193.366 136.229 194.022 136.029 193.891 135.962C193.825 136.096 193.497 136.096 193.3 136.096C194.022 135.896 193.169 135.962 193.3 135.695C193.038 135.695 193.038 135.829 192.775 135.896C192.972 135.762 193.038 135.495 193.431 135.495C193.431 135.228 193.3 135.094 193.3 134.961C193.169 135.161 192.907 135.028 192.578 135.161C193.038 134.961 193.628 134.56 194.153 134.293H193.235C192.907 134.026 193.628 134.226 193.497 133.959L193.563 134.093C193.694 133.959 194.087 133.959 194.416 133.893L194.35 134.226C194.678 134.226 194.612 134.026 194.678 133.959C195.072 133.826 194.94 134.093 195.268 134.093C195.006 134.16 195.137 134.293 195.006 134.36H195.203C195.4 134.493 194.94 134.627 195.006 134.761H195.137C194.94 134.827 194.744 134.894 194.678 134.961V134.894C194.284 135.028 194.022 135.295 193.628 135.161L193.759 135.495C194.219 135.428 194.875 135.361 194.875 135.161H195.072C195.334 135.295 194.744 135.562 194.35 135.495C193.3 135.695 194.35 135.962 193.891 136.229C194.153 136.229 194.284 136.096 194.481 136.029C194.481 135.962 194.481 135.896 194.284 135.896C194.416 135.562 195.203 135.896 195.072 135.562C194.94 135.428 194.612 135.762 194.547 135.562L195.334 135.361C195.334 135.495 195.203 135.629 195.137 135.762C194.678 136.497 195.137 136.897 195.137 136.897C195.137 137.365 195.137 137.899 195.203 138.366C195.203 138.833 195.268 139.301 195.334 139.635C195.268 139.835 195.268 139.768 194.809 140.369C194.612 140.436 194.547 140.236 194.416 140.436C194.612 140.236 194.744 140.102 194.678 139.969C194.416 140.035 194.612 140.169 194.547 140.169C194.416 140.236 194.35 140.302 194.35 140.369C193.825 140.369 193.825 139.902 194.284 139.635C193.956 139.568 193.891 139.835 193.694 140.035C193.3 139.501 193.3 139.101 193.169 138.566C193.694 138.5 193.497 138.433 193.825 138.366H193.628C193.694 138.366 194.022 138.233 194.153 138.366C193.759 138.099 194.744 137.899 194.94 137.698L194.678 137.765C194.678 137.632 194.722 137.498 194.809 137.365C194.284 137.164 194.744 137.632 194.087 137.632L194.153 137.565C193.891 137.632 193.497 137.698 193.3 137.832C193.694 137.498 193.103 137.431 193.366 137.164C193.103 137.231 192.907 137.498 192.841 137.565C192.775 137.498 192.972 137.298 192.71 137.298L193.038 137.231C193.038 137.031 192.71 137.298 192.447 137.231C192.578 136.363 193.759 136.63 193.956 136.229Z" fill="#838D94"/>
<path d="M193.563 132.09V132.223C193.519 132.179 193.519 132.134 193.563 132.09Z" fill="#838D94"/>
<path d="M192.382 133.025C192.579 133.025 192.579 132.958 192.775 132.958C192.644 133.025 192.644 133.158 192.382 133.025Z" fill="#838D94"/>
<path d="M193.825 122.074C193.891 121.941 194.219 121.941 194.416 122.008L194.088 122.275C194.153 122.208 194.153 122.141 193.825 122.074Z" fill="#838D94"/>
<path d="M193.825 122.275C194.022 122.341 194.35 122.475 194.022 122.542C194.087 122.408 193.563 122.408 193.825 122.275Z" fill="#838D94"/>
<path d="M194.022 123.343L193.825 123.076C193.366 122.942 193.694 123.209 193.497 123.209C193.431 122.942 193.562 123.076 193.891 122.942C193.891 122.876 194.087 122.809 194.219 122.742C193.759 123.009 194.809 123.143 194.022 123.343Z" fill="#838D94"/>
<path d="M193.628 122.742H193.825L193.628 122.808V122.742Z" fill="#838D94"/>
<path d="M194.416 124.011C194.941 124.211 194.088 124.278 194.285 124.478H194.416L194.35 124.612H194.482C194.154 124.545 194.022 124.745 193.76 124.745C193.432 124.545 194.154 124.678 193.825 124.545C193.694 124.545 193.497 124.545 193.366 124.612C193.563 124.545 193.694 124.545 193.891 124.478C193.957 124.411 193.76 124.411 193.629 124.345C193.825 124.278 194.285 124.278 194.219 124.078C193.957 123.944 193.76 124.078 193.891 123.944C194.35 124.078 193.825 123.744 194.154 123.677C194.088 123.543 193.76 123.41 193.629 123.41C194.022 123.477 194.35 123.343 194.482 123.276L194.154 123.477L194.613 123.61C194.285 123.744 194.35 123.877 194.416 124.011Z" fill="#838D94"/>
<path d="M193.365 124.545C193.365 124.545 193.3 124.545 193.3 124.611L193.365 124.545Z" fill="#838D94"/>
<path d="M193.497 123.41L193.366 123.476L193.234 123.41H193.497Z" fill="#838D94"/>
<path d="M193.038 124.678C193.038 124.612 193.169 124.678 193.169 124.678H193.038Z" fill="#838D94"/>
<path d="M193.3 124.812L193.562 124.946H193.365L193.3 124.812Z" fill="#838D94"/>
<path d="M193.366 128.149C193.235 128.018 193.497 128.083 193.76 128.083C193.825 128.215 193.497 128.018 193.366 128.149Z" fill="#838D94"/>
<path d="M192.972 130.22C192.775 130.087 193.103 130.02 193.038 129.887C193.169 129.953 193.103 130.087 192.972 130.22Z" fill="#838D94"/>
<path d="M191.856 131.088C191.988 131.088 191.988 131.022 192.053 131.088L192.578 130.955C192.841 131.088 192.119 131.088 191.856 131.088Z" fill="#838D94"/>
<path d="M191.791 132.09L191.988 131.956V132.023C192.185 131.956 192.316 131.956 192.513 131.89C192.447 131.956 192.185 132.09 191.791 132.09Z" fill="#838D94"/>
<path d="M192.644 131.689C192.644 131.733 192.644 131.733 192.644 131.689C192.513 131.755 192.447 131.755 192.644 131.689Z" fill="#838D94"/>
<path d="M192.579 131.822C192.71 131.822 192.645 131.757 192.579 131.822Z" fill="#838D94"/>
<path d="M192.12 132.223L192.054 132.491L191.923 132.357C192.251 132.357 191.726 132.223 192.12 132.223Z" fill="#838D94"/>
<path d="M192.381 133.692H192.709C192.775 133.893 192.053 134.093 192.644 134.226C192.447 134.16 192.25 134.36 192.185 134.16C192.447 134.093 192.513 133.826 192.381 133.692Z" fill="#838D94"/>
<path d="M192.906 134.293H193.168C193.234 134.36 193.037 134.427 192.906 134.427C193.365 134.36 192.644 134.427 192.906 134.293Z" fill="#838D94"/>
<path d="M192.906 135.161C192.906 135.094 192.906 135.028 193.037 135.094C193.037 135.228 192.644 135.228 192.447 135.295C192.25 135.228 192.775 135.028 192.906 135.161Z" fill="#838D94"/>
<path d="M195.464 136.163C195.202 136.163 195.202 136.029 195.333 136.029C195.268 136.096 195.333 136.163 195.464 136.163Z" fill="#838D94"/>
<path d="M193.104 136.43L193.038 136.363L193.432 136.296L193.104 136.43Z" fill="#838D94"/>
<path d="M192.972 137.365L192.71 137.498V137.365H192.972Z" fill="#838D94"/>
<path d="M193.037 137.565V137.699L192.906 137.632C192.84 137.565 193.037 137.565 193.037 137.565Z" fill="#838D94"/>
<path d="M193.037 138.032L192.972 137.966L193.169 137.765L193.037 138.032Z" fill="#838D94"/>
<path d="M195.269 139.635C195.465 139.435 195.4 139.568 195.465 139.501C195.4 139.568 195.137 139.835 195.269 139.635Z" fill="#838D94"/>
</g>
<path d="M194.218 46.2239C192.578 47.7596 190.544 50.6307 190.675 55.3713C190.675 55.3713 205.174 45.9568 198.81 44.8217C197.17 44.4879 195.464 45.0888 194.218 46.2239Z" fill="#838D94"/>
<path d="M214.426 78.2067C214.426 78.2067 212.917 90.8929 225.054 94.365C237.192 97.837 285.283 92.3619 301.095 91.3603C314.085 90.4923 321.893 97.9038 321.171 110.79C320.843 117.401 320.908 122.141 321.236 125.48C321.761 131.489 326.42 144.509 328.519 148.449C329.569 150.452 329.175 152.855 327.666 154.458L326.944 155.126C325.829 156.194 324.189 156.394 322.877 155.526C319.531 153.256 312.904 147.38 305.556 133.292C305.425 133.025 305.228 132.691 305.097 132.357C303.719 129.686 302.472 128.418 302.472 128.418C302.472 128.418 298.733 126.682 289.876 126.548C282.987 126.481 273.08 127.349 259.368 130.821C238.307 136.163 217.312 136.363 212.785 133.759C212.785 133.759 209.636 141.104 209.636 155.526C209.636 156.795 208.652 157.796 207.406 157.863L204.256 157.997C203.272 158.063 202.354 157.462 201.894 156.594C201.632 156.06 201.304 155.326 200.91 154.458C199.467 151.186 197.433 145.711 195.53 137.699C194.612 133.759 193.759 129.219 192.972 124.078C192.906 123.61 192.84 123.21 192.775 122.742C189.757 99.7065 192.512 78.5405 192.512 78.5405C192.512 78.5405 168.368 86.7532 162.66 69.5933C162.07 67.8573 163.251 65.9878 165.022 65.8542H165.941C170.205 65.9878 182.54 66.789 187.264 57.5748C190.741 50.8978 196.58 43.0857 203.928 44.0873C204.256 44.154 204.519 44.1541 204.847 44.2208C205.109 44.2876 214.229 56.1059 214.426 78.2067Z" fill="#ADBFC9"/>
<path fill-rule="evenodd" clip-rule="evenodd" d="M192.872 123.002C193.093 122.945 193.318 123.082 193.373 123.308C193.411 123.463 193.43 123.597 193.446 123.712C193.446 123.714 193.447 123.716 193.447 123.718C193.463 123.836 193.477 123.932 193.504 124.042C193.507 124.056 193.51 124.069 193.512 124.082C194.232 129.012 195.083 133.408 195.934 137.204C195.985 137.431 195.845 137.656 195.623 137.708C195.4 137.76 195.179 137.618 195.128 137.392C194.274 133.581 193.42 129.17 192.697 124.226C192.663 124.08 192.645 123.952 192.629 123.842L192.628 123.837C192.612 123.719 192.598 123.622 192.571 123.512C192.516 123.286 192.65 123.058 192.872 123.002Z" fill="#838D94"/>
<path d="M205.109 44.2876C205.109 44.2876 203.141 44.2876 204.059 48.828C204.781 52.6339 206.093 56.64 203.797 67.2564C201.172 79.3418 207.208 82.1461 213.9 79.1415C220.658 76.1368 219.477 69.4598 218.165 62.9832C216.853 56.5065 211.145 43.6867 205.109 44.2876Z" fill="#838D94"/>
<path d="M162.004 67.7239C161.938 66.6555 162.791 65.7208 163.841 65.654C165.35 65.5872 167.712 65.5205 168.958 65.3869C170.861 65.1866 171.779 67.9909 169.024 71.1291C166.268 74.2673 163.513 72.8651 162.397 69.4599C162.135 68.7922 162.069 68.258 162.004 67.7239Z" fill="#838D94"/>
<path fill-rule="evenodd" clip-rule="evenodd" d="M188.738 71.3105C188.966 71.3283 189.136 71.5305 189.119 71.7622C188.782 76.2201 186.984 78.5462 185.212 79.7423C184.335 80.3342 183.48 80.6389 182.844 80.7959C182.525 80.8744 182.26 80.9163 182.072 80.9387C181.978 80.9498 181.903 80.9561 181.85 80.9597C181.824 80.9614 181.803 80.9625 181.788 80.9632L181.77 80.9638L181.764 80.964L181.762 80.9641L181.761 80.9641C181.761 80.9641 181.761 80.9641 181.752 80.5435L181.761 80.9641C181.533 80.9689 181.344 80.7846 181.339 80.5523C181.334 80.3204 181.515 80.1284 181.743 80.123C181.743 80.123 181.743 80.123 181.743 80.123L181.743 80.123C181.743 80.123 181.743 80.123 181.744 80.123L181.744 80.123L181.753 80.1226C181.762 80.1222 181.776 80.1215 181.796 80.1202C181.836 80.1175 181.897 80.1125 181.976 80.103C182.135 80.0842 182.367 80.0478 182.649 79.9782C183.214 79.8389 183.975 79.5677 184.755 79.0412C186.296 78.0005 187.975 75.9198 188.295 71.6977C188.312 71.466 188.511 71.2927 188.738 71.3105Z" fill="#838D94"/>
<path fill-rule="evenodd" clip-rule="evenodd" d="M187.196 71.0738C187.335 70.8893 187.594 70.8541 187.776 70.9952L187.525 71.3293C187.776 70.9952 187.776 70.9951 187.776 70.995L187.775 70.9949L187.775 70.9947L187.775 70.9944C187.775 70.9944 187.775 70.9945 187.775 70.9949L187.781 70.9991C187.787 71.0034 187.797 71.0105 187.81 71.02C187.837 71.0389 187.878 71.067 187.932 71.1004C188.041 71.1675 188.197 71.2543 188.385 71.3316C188.767 71.4887 189.242 71.5907 189.71 71.4582C189.93 71.396 190.158 71.5271 190.219 71.7509C190.28 71.9748 190.152 72.2066 189.932 72.2688C189.219 72.4702 188.546 72.3051 188.075 72.1117C187.837 72.0137 187.64 71.9043 187.503 71.8191C187.434 71.7764 187.379 71.7392 187.34 71.712C187.32 71.6984 187.305 71.6872 187.294 71.6789L187.281 71.6688L187.276 71.6655L187.275 71.6644L187.274 71.6639L187.274 71.6637C187.274 71.6636 187.274 71.6635 187.525 71.3293L187.274 71.6635C187.092 71.5224 187.058 71.2584 187.196 71.0738Z" fill="#838D94"/>
<path d="M192.446 63.1167C192.315 64.0515 191.593 64.7859 190.937 64.6524C190.281 64.5189 189.953 63.7176 190.084 62.7161C190.215 61.7813 190.871 61.0468 191.528 61.1804C192.184 61.3139 192.577 62.1819 192.446 63.1167Z" fill="#838D94"/>
<path fill-rule="evenodd" clip-rule="evenodd" d="M216.803 127.249C216.803 127.249 216.803 127.249 216.803 127.249L216.801 127.251L216.797 127.257L216.78 127.284C216.765 127.307 216.742 127.343 216.712 127.389C216.652 127.483 216.565 127.621 216.456 127.798C216.236 128.152 215.927 128.663 215.569 129.289C214.852 130.541 213.942 132.245 213.163 134.061C213.072 134.274 212.828 134.371 212.619 134.278C212.41 134.185 212.314 133.937 212.406 133.724C213.202 131.868 214.128 130.134 214.855 128.865C215.219 128.23 215.533 127.711 215.756 127.349C215.868 127.169 215.957 127.028 216.019 126.931C216.049 126.883 216.073 126.846 216.089 126.821L216.108 126.792L216.113 126.785L216.115 126.782C216.115 126.782 216.115 126.782 216.459 127.015L216.115 126.782C216.241 126.589 216.498 126.537 216.688 126.665C216.878 126.794 216.929 127.055 216.803 127.249Z" fill="#838D94"/>
<path fill-rule="evenodd" clip-rule="evenodd" d="M298.464 120.342C298.68 120.265 298.916 120.38 298.992 120.599C299.768 122.837 300.739 124.749 301.517 126.102C301.906 126.778 302.246 127.312 302.488 127.677C302.608 127.86 302.705 128 302.77 128.093C302.803 128.14 302.828 128.175 302.845 128.199L302.864 128.224L302.868 128.23L302.869 128.232C302.869 128.232 302.869 128.232 302.869 128.232C302.869 128.232 302.869 128.232 302.538 128.484L302.208 128.737C302.345 128.922 302.604 128.96 302.786 128.821C302.969 128.681 303.006 128.418 302.869 128.232M302.538 128.484C302.208 128.737 302.208 128.737 302.208 128.737L302.205 128.733L302.2 128.725L302.178 128.696C302.159 128.67 302.132 128.632 302.097 128.582C302.028 128.483 301.927 128.337 301.802 128.148C301.552 127.77 301.203 127.22 300.804 126.527C300.007 125.142 299.01 123.181 298.212 120.879C298.136 120.66 298.249 120.42 298.464 120.342" fill="#838D94"/>
<path d="M215.737 86.486C211.931 88.4223 208.192 89.5574 204.977 90.2251C199.466 91.3602 195.529 91.0931 195.529 91.0931C196.12 90.3586 196.513 89.3571 196.579 88.222C196.579 87.6211 196.513 87.0869 196.317 86.5527C196.317 86.5527 207.404 85.7515 214.49 82.413C214.753 83.6149 215.146 85.017 215.737 86.486Z" fill="#C1D7E4"/>
<path fill-rule="evenodd" clip-rule="evenodd" d="M207.184 151.567C207.412 151.554 207.607 151.732 207.62 151.964C207.653 152.574 207.686 154.053 207.711 155.368C207.723 156.028 207.733 156.65 207.741 157.107C207.744 157.336 207.747 157.523 207.749 157.654L207.752 157.857L207.339 157.863L206.925 157.869L206.922 157.666C206.92 157.536 206.918 157.349 206.914 157.121C206.907 156.664 206.897 156.043 206.884 155.384C206.86 154.062 206.827 152.602 206.795 152.011C206.782 151.779 206.956 151.58 207.184 151.567ZM207.344 158.284C207.116 158.287 206.928 158.101 206.925 157.869L207.339 157.863L207.752 157.857C207.755 158.089 207.573 158.28 207.344 158.284Z" fill="#838D94"/>
<path fill-rule="evenodd" clip-rule="evenodd" d="M322.859 152.479C323.027 152.322 323.288 152.333 323.443 152.504C324.139 153.277 324.985 153.977 325.663 154.487C326.001 154.741 326.295 154.945 326.503 155.086C326.608 155.156 326.69 155.211 326.747 155.247C326.775 155.265 326.797 155.279 326.811 155.288L326.827 155.298L326.83 155.301L326.831 155.301C326.831 155.301 326.831 155.301 326.615 155.66L326.399 156.018C326.594 156.14 326.848 156.078 326.968 155.88C327.087 155.681 327.026 155.422 326.831 155.301M326.615 155.66C326.399 156.018 326.399 156.018 326.399 156.018L326.397 156.017L326.392 156.014L326.373 156.002C326.357 155.992 326.333 155.977 326.303 155.957C326.243 155.918 326.155 155.861 326.046 155.787C325.828 155.64 325.523 155.427 325.172 155.164C324.473 154.638 323.58 153.902 322.833 153.073C322.679 152.902 322.69 152.636 322.859 152.479" fill="#838D94"/>
<path fill-rule="evenodd" clip-rule="evenodd" d="M325.727 151.039C325.915 150.908 326.172 150.957 326.301 151.149C326.716 151.765 327.262 152.453 327.711 152.993C327.934 153.261 328.131 153.49 328.272 153.652C328.342 153.733 328.398 153.797 328.437 153.841L328.481 153.891L328.492 153.903L328.496 153.907C328.496 153.907 328.496 153.907 328.496 153.907" fill="#838D94"/>
<path fill-rule="evenodd" clip-rule="evenodd" d="M203.159 152.584C203.379 152.521 203.608 152.651 203.67 152.875C204.094 154.404 204.453 155.567 204.723 156.405C204.839 156.768 204.941 157.077 205.024 157.329C205.13 157.649 205.206 157.879 205.244 158.015C205.307 158.238 205.179 158.471 204.96 158.535C204.74 158.599 204.512 158.469 204.449 158.246C204.415 158.125 204.349 157.926 204.253 157.634C204.17 157.383 204.065 157.065 203.937 156.667C203.665 155.819 203.302 154.645 202.874 153.103C202.812 152.88 202.94 152.647 203.159 152.584Z" fill="#838D94"/>
<path d="M197.039 88.7562C196.973 91.3603 195.202 93.3634 193.168 93.2966C192.446 93.2966 191.79 92.9627 191.199 92.5621C190.15 91.6941 189.494 90.2252 189.559 88.5559C189.625 85.9519 191.396 83.9488 193.43 84.0156C194.677 84.0824 195.726 84.8168 196.382 86.0187C196.842 86.7531 197.104 87.7547 197.039 88.7562Z" fill="#D5F0FE"/>
<path fill-rule="evenodd" clip-rule="evenodd" d="M196.24 85.5886C196.437 85.4715 196.69 85.5393 196.805 85.74C197.311 86.6224 197.517 87.6357 197.517 88.7562L197.517 88.767C197.448 91.5236 195.557 93.7893 193.226 93.7172C192.383 93.7152 191.645 93.3256 191.036 92.9121C190.846 92.7833 190.794 92.5221 190.921 92.3288C191.048 92.1355 191.304 92.0833 191.494 92.2121C192.064 92.5988 192.636 92.8759 193.233 92.8759C193.238 92.8759 193.242 92.876 193.247 92.8762C194.98 92.9331 196.627 91.1969 196.691 88.7508C196.69 87.7371 196.503 86.8827 196.091 86.1639C195.976 85.9632 196.043 85.7056 196.24 85.5886Z" fill="#838D94"/>
<mask id="mask4_434_4844" style="mask-type:luminance" maskUnits="userSpaceOnUse" x="192" y="72" width="9" height="12">
<path d="M198.285 82.3463C195.005 85.2174 192.184 83.2143 192.184 83.2143C192.446 80.2764 192.643 78.6072 192.643 78.6072C192.643 78.6072 195.792 77.8059 198.744 74.601L200.385 72.3308C200.45 72.3308 201.566 79.4752 198.285 82.3463Z" fill="white"/>
</mask>
<g mask="url(#mask4_434_4844)">
<path d="M195.858 77.205C195.858 77.2495 195.88 77.294 195.924 77.3385C195.924 77.3385 195.924 77.2717 195.858 77.205Z" fill="#838D94"/>
<path d="M197.892 75.469L197.761 75.3354C197.761 75.4022 197.826 75.469 197.892 75.469Z" fill="#838D94"/>
<path d="M196.317 78.1399C196.317 78.2066 196.317 78.2734 196.383 78.3402L196.317 78.1399Z" fill="#838D94"/>
<path d="M193.365 80.6771L193.431 80.8106C193.431 80.8106 193.431 80.7438 193.365 80.6771Z" fill="#838D94"/>
<path d="M193.759 78.0062C193.759 78.0508 193.781 78.0953 193.824 78.1398C193.759 78.073 193.824 78.0062 193.759 78.0062Z" fill="#838D94"/>
<path d="M198.416 74.5999V74.5343C198.351 74.5343 198.351 74.5999 198.416 74.5999Z" fill="#838D94"/>
<path d="M194.479 78.1399C194.742 78.5405 194.414 78.2066 194.611 78.5405C194.611 78.407 194.611 78.3402 194.742 78.5405C194.807 78.7408 194.611 78.5405 194.807 78.8743V78.7408C194.939 78.8743 195.004 79.1414 195.07 79.1414C194.873 78.674 195.398 79.2082 195.398 79.0747V79.1414L195.595 79.275C195.595 79.275 195.595 79.2082 195.529 79.2082C195.726 79.4085 195.857 79.4753 195.923 79.4085C195.792 79.1414 196.12 79.1414 196.054 78.9411C196.054 79.0079 196.054 79.0746 195.923 79.0079L195.726 78.7408C195.792 78.674 195.923 79.0079 195.857 78.8076C195.595 78.4069 195.726 78.8743 195.66 78.8743C195.595 78.7408 195.595 78.674 195.595 78.6073C195.464 78.674 195.267 78.6073 195.464 79.0079C195.398 78.9411 195.267 78.7408 195.267 78.7408C195.332 79.0079 195.07 78.5405 195.135 78.8076C194.939 78.4069 195.136 78.5405 195.07 78.2734C195.332 78.4737 195.267 78.1399 195.332 78.0063C195.529 78.2734 195.595 78.5405 195.726 78.674C195.923 78.7408 195.726 78.4737 195.66 78.2734C195.792 78.3402 195.988 78.674 196.12 78.6073L196.185 78.8076C196.513 79.1414 196.12 78.6073 196.251 78.674C196.185 78.6073 196.12 78.4737 196.054 78.5405C195.923 78.407 195.923 78.3402 195.988 78.2734C195.857 78.0731 195.726 77.8728 195.857 77.9396C195.988 78.2066 196.054 78.0731 196.12 78.1399V78.2066C196.12 78.0731 196.185 78.0731 196.185 78.0063L196.251 78.0731C196.251 77.9396 196.054 77.6725 196.12 77.6725C196.185 77.806 196.382 78.1399 196.382 78.0063C196.513 78.1399 196.448 78.2734 196.316 78.2066C196.448 78.2066 196.644 78.4737 196.579 78.5405C196.776 78.7408 196.579 78.4069 196.71 78.4737C196.645 78.4069 196.579 78.3402 196.579 78.2734C196.776 78.5405 196.71 78.2066 196.579 78.0063L196.644 78.2066C196.448 78.0063 196.448 77.806 196.316 77.6725C196.644 78.0063 196.382 77.3386 196.644 77.6057L196.448 77.4722C196.644 77.4722 196.448 77.0048 196.448 76.8045C196.513 76.938 196.841 77.2719 196.644 77.2719C196.841 77.2051 197.038 77.6057 197.235 77.7393C197.432 77.7393 196.973 77.3386 196.907 77.2051V77.3386C196.579 76.8712 197.235 77.2051 197.104 76.8045C197.235 76.8712 197.169 76.8712 197.169 76.938C197.432 77.0715 197.169 76.8712 197.104 76.7377C197.169 76.7377 197.366 76.7377 197.563 77.0048C197.694 77.0048 197.432 76.8712 197.366 76.7377L197.432 76.8045L197.235 76.4706C197.366 76.4706 197.563 76.5374 197.825 76.7377C197.891 76.5374 197.301 76.2035 197.235 76.0032C197.432 76.07 197.432 76.2035 197.497 76.2703L197.563 76.1368C197.825 76.4039 197.629 76.4039 197.957 76.6709C197.694 76.2703 197.957 76.4706 197.825 76.2035H197.76C197.563 75.9365 197.825 76.0032 197.825 75.8697C197.957 76.0032 197.891 76.07 197.957 76.2035C198.153 76.2035 198.153 75.9365 197.891 75.6694C197.957 75.6694 198.153 75.6694 198.219 75.8029C198.35 75.6694 197.825 75.4023 197.957 75.3355L198.219 75.5358C198.678 75.6694 198.088 75.0017 198.482 75.1352L198.153 74.9349C198.285 75.0017 198.416 75.0017 198.547 75.0685L198.613 75.202C198.941 75.3355 198.416 75.0017 198.613 75.0017C198.547 74.9349 198.285 74.8681 198.153 74.8014C198.153 75.202 197.497 75.1352 197.629 75.6694C197.694 75.6694 197.694 75.7362 197.76 75.7362C197.694 75.7362 197.694 75.8029 197.563 75.6694C197.563 75.8029 197.169 75.5358 197.169 75.6026C197.366 75.8029 196.973 75.6694 197.366 75.9365L197.104 75.8029L197.432 76.1368C197.366 76.1368 197.235 76.07 197.169 75.9365C196.907 76.0032 196.776 76.2703 196.71 76.5374L196.579 76.3371C196.448 76.3371 196.71 76.7377 196.382 76.3371C196.448 76.5374 196.054 76.4706 196.448 76.8045C196.054 76.4706 196.12 76.8045 196.054 77.0048C196.382 77.3386 196.054 77.2051 196.185 77.4054C195.923 77.1383 196.054 77.0048 195.857 76.8712C196.12 77.4054 195.267 76.8712 195.792 77.6057C195.726 77.6057 195.726 77.5389 195.726 77.5389C195.726 77.5389 195.595 77.4722 195.529 77.4722C195.595 77.6057 195.726 77.6057 195.726 77.7393C195.66 77.7393 195.529 77.5389 195.464 77.4722C195.529 77.6725 195.398 77.8728 195.66 78.2066C195.595 78.1399 195.398 78.0063 195.398 77.9396C195.464 78.2734 195.201 78.0063 195.201 78.2734C195.267 78.2066 195.004 77.9396 195.135 78.0063C194.807 77.6057 194.939 78.2066 194.676 78.0731L194.807 78.407C194.742 78.4737 194.611 78.2066 194.545 78.0731C194.348 78.0063 194.348 78.2066 194.283 78.2734C194.283 78.2734 194.217 78.2066 194.283 78.2066L194.151 78.2734C194.151 78.3402 194.217 78.5405 194.348 78.7408C194.414 78.2066 194.348 78.0731 194.479 78.1399Z" fill="#838D94"/>
<path d="M196.579 78.6728C196.514 78.6072 196.448 78.6072 196.448 78.6072C196.514 78.6072 196.514 78.6728 196.579 78.6728Z" fill="#838D94"/>
<path d="M193.299 79.6088C193.496 80.0761 193.365 79.4752 193.496 79.6088C193.43 79.6755 193.561 80.0094 193.627 80.1429C193.496 79.4752 193.758 80.2097 193.889 80.0094C193.955 80.2097 193.889 80.2765 194.021 80.4768C194.021 80.2765 194.152 80.1429 194.021 79.8091C194.152 79.7423 194.349 79.8091 194.414 79.7423C194.349 79.9426 194.546 80.0761 194.611 80.41C194.546 79.9426 194.546 79.4084 194.414 78.8743C194.611 79.2081 194.677 79.2749 194.808 79.6088C195.136 79.7423 194.677 79.2749 194.874 79.2749H194.742C194.742 79.1414 194.546 78.8075 194.48 78.5404L194.349 78.674C194.217 78.4069 194.349 78.4069 194.349 78.3401C194.217 78.0063 194.152 78.2066 194.021 77.9395C194.086 78.1398 194.021 78.1398 194.021 78.2066L193.955 78.0731C193.824 78.0063 193.955 78.3401 193.889 78.3401C193.889 78.2734 193.824 78.2734 193.824 78.2734C193.889 78.4069 193.955 78.6072 193.889 78.674C193.955 79.0078 193.889 79.2749 194.217 79.6088H193.955C193.824 79.2749 193.627 78.674 193.693 78.6072L193.627 78.4737C193.496 78.2734 193.561 78.8743 193.758 79.1414C194.086 80.0094 193.496 79.2749 193.496 79.7423C193.365 79.4752 193.43 79.4084 193.365 79.2081C193.365 79.1414 193.43 79.1414 193.496 79.3417C193.627 79.1414 193.168 78.6072 193.365 78.6072C193.496 78.674 193.43 79.0078 193.561 79.0078L193.365 78.3401C193.299 78.4069 193.299 78.5404 193.233 78.674C193.168 79.0078 192.971 79.0746 192.84 79.0746C192.708 79.0746 192.643 79.0078 192.643 79.0078C192.118 79.2749 191.593 79.4752 191.003 79.6088C190.806 79.7423 190.806 79.6755 190.74 80.41C190.806 80.5435 190.937 80.4768 190.871 80.7438C190.871 80.4768 190.937 80.3432 191.068 80.3432C191.134 80.6103 191.003 80.4768 191.003 80.5435C191.003 80.6771 191.003 80.7438 190.937 80.7438C191.068 81.1445 191.331 81.0109 191.331 80.4768C191.462 80.7438 191.331 80.8774 191.265 81.0777C191.659 81.2112 191.921 81.1445 192.315 81.0777C192.184 80.6103 192.315 80.8106 192.249 80.4768L192.315 80.6103C192.249 80.5435 192.249 80.2097 192.184 80.1429C192.446 80.41 192.249 79.4752 192.315 79.2749L192.38 79.4752C192.446 79.4084 192.512 79.4084 192.577 79.2749C192.905 79.6755 192.446 79.4084 192.643 79.9426V79.8091C192.708 80.0094 192.774 80.41 192.774 80.6103C192.84 80.2097 193.102 80.6771 193.168 80.3432C193.233 80.6103 193.102 80.8774 193.102 80.8774C193.168 80.8774 193.233 80.6771 193.299 80.8774L193.233 80.5435C193.365 80.4768 193.299 80.8106 193.43 81.0109C193.758 80.7438 193.168 79.8758 193.299 79.6088Z" fill="#838D94"/>
<path d="M195.793 78.4737C195.748 78.4737 195.748 78.4737 195.793 78.4737C195.725 78.5414 195.725 78.4737 195.793 78.4737Z" fill="#838D94"/>
<path d="M195.859 79.6756C195.815 79.5865 195.771 79.4753 195.727 79.3417C195.727 79.4753 195.662 79.542 195.859 79.6756Z" fill="#838D94"/>
<path d="M200.581 72.5966L200.516 72.531C200.516 72.531 200.581 72.531 200.581 72.5966Z" fill="#838D94"/>
<path d="M200.779 72.6645L201.041 72.7981L200.91 72.5978L200.779 72.6645C200.713 72.5978 200.648 72.5978 200.582 72.5978L200.779 72.6645Z" fill="#838D94"/>
<path d="M200.057 72.7314C200.188 72.7314 200.319 72.8649 200.45 72.9317C200.582 72.8649 200.188 72.6646 200.319 72.6646C200.516 72.8649 200.516 72.6646 200.713 72.7314C200.45 72.6646 200.253 72.5978 200.122 72.6646L200.319 72.7314C200.253 72.8649 200.188 72.7314 200.057 72.7314Z" fill="#838D94"/>
<path d="M200.32 73.466L200.058 73.2656C200.189 73.3324 200.254 73.1989 200.517 73.3324C200.517 73.2656 200.386 73.1989 200.32 73.1321C200.451 73.1321 200.582 73.1989 200.386 73.0653C200.123 73.1321 200.058 73.0653 199.926 73.1989C199.861 73.1989 199.861 73.1321 199.926 73.1321H199.729C200.123 73.3324 200.058 73.466 200.32 73.466Z" fill="#838D94"/>
<path d="M200.057 73.5327C200.057 73.4659 199.86 73.2656 199.663 73.1988C199.729 73.2656 199.729 73.3991 199.794 73.4659C199.794 73.4659 199.794 73.3324 200.057 73.5327Z" fill="#838D94"/>
<path d="M199.991 73.6663C199.86 73.5995 199.532 73.5328 199.728 73.7331C199.728 73.5995 200.122 73.7998 199.991 73.6663Z" fill="#838D94"/>
<path d="M199.401 74.0668L199.663 74C199.991 74.1335 199.729 74.1335 199.86 74.2671C199.991 74.2003 199.86 74.1335 199.729 73.9332C199.795 73.9332 199.598 73.7329 199.532 73.6661C199.729 74 198.876 73.5994 199.401 74.0668Z" fill="#838D94"/>
<path d="M199.926 73.9334L199.795 73.8666L199.861 74.0001L199.926 73.9334Z" fill="#838D94"/>
<path d="M198.876 74.2003C198.416 74.0668 199.007 74.5342 198.81 74.5342L198.744 74.4674V74.6009L198.679 74.5342C198.941 74.6677 198.941 74.8012 199.138 75.0015C199.466 75.0683 198.876 74.8012 199.204 74.868C199.269 74.9348 199.466 75.0683 199.532 75.1351C199.466 75.0015 199.335 74.9348 199.204 74.8012C199.204 74.7345 199.335 74.8012 199.4 74.868C199.269 74.7345 198.941 74.4674 199.072 74.4674C199.335 74.5342 199.4 74.7345 199.335 74.5342C198.941 74.3339 199.466 74.4674 199.269 74.2671C199.4 74.2003 199.663 74.3339 199.794 74.4006C199.466 74.2003 199.269 74 199.204 73.9332L199.4 74.2003L199.007 74.0668C199.007 74.1335 198.941 74.2003 198.876 74.2003Z" fill="#838D94"/>
<path d="M199.795 74.4007V74.4663H199.926L199.795 74.4007Z" fill="#838D94"/>
<path d="M199.598 75.2676C199.598 75.2676 199.532 75.202 199.467 75.202L199.598 75.2676Z" fill="#838D94"/>
<path d="M199.27 75.202L199.073 75.1352L199.204 75.2687L199.27 75.202Z" fill="#838D94"/>
<path d="M197.826 76.8712C197.957 76.938 197.76 76.7377 197.629 76.6042C197.498 76.6042 197.76 76.7377 197.826 76.8712Z" fill="#838D94"/>
<path d="M197.105 78.073C197.301 78.1397 197.17 77.8727 197.236 77.8727C197.039 77.8059 197.039 77.9394 197.105 78.073Z" fill="#838D94"/>
<path d="M197.235 79.2081C197.169 79.1413 197.169 79.0746 197.104 79.0746L196.841 78.6072C196.644 78.6072 197.104 79.0746 197.235 79.2081Z" fill="#838D94"/>
<path d="M196.711 79.7422V79.5419H196.645C196.579 79.3415 196.514 79.2748 196.448 79.1412C196.448 79.2748 196.448 79.4751 196.711 79.7422Z" fill="#838D94"/>
<path d="M196.448 79.0078C196.514 79.139 196.514 79.0734 196.448 79.0078Z" fill="#838D94"/>
<path d="M196.383 79.0732C196.427 79.0732 196.427 79.0732 196.383 79.0732C196.383 79.0076 196.383 78.942 196.383 79.0732Z" fill="#838D94"/>
<path d="M196.449 79.6088L196.317 79.7424L196.449 79.8091C196.317 79.542 196.645 79.8759 196.449 79.6088Z" fill="#838D94"/>
<path d="M195.464 79.9425L195.267 79.6754C195.136 79.6754 195.333 80.3431 195.005 79.9425C195.136 80.076 195.07 80.2763 195.267 80.2763C195.202 80.0093 195.333 79.9425 195.464 79.9425Z" fill="#838D94"/>
<path d="M194.808 79.8091C194.808 79.7423 194.742 79.6756 194.677 79.6088C194.611 79.6088 194.677 79.7423 194.742 79.8759C194.611 79.4753 194.939 80.0094 194.808 79.8091Z" fill="#838D94"/>
<path d="M194.35 80.0761C194.35 80.0761 194.416 80.0093 194.35 79.9425C194.284 80.0093 194.416 80.2764 194.481 80.4767C194.612 80.6102 194.481 80.1428 194.35 80.0761Z" fill="#838D94"/>
<path d="M192.774 78.3401C192.84 78.6072 192.906 78.5404 192.906 78.4069C192.906 78.4736 192.84 78.4069 192.774 78.3401Z" fill="#838D94"/>
<path d="M193.495 80.3431H193.561L193.495 80.0093V80.3431Z" fill="#838D94"/>
<path d="M192.971 80.7438V81.0109L193.102 80.9441L192.971 80.7438Z" fill="#838D94"/>
<path d="M192.84 80.6771L192.709 80.7438L192.775 80.8106C192.906 80.8774 192.84 80.7438 192.84 80.6771Z" fill="#838D94"/>
</g>
<path fill-rule="evenodd" clip-rule="evenodd" d="M289.527 126.609C289.531 126.376 289.719 126.191 289.947 126.194C294.401 126.261 297.578 126.732 299.648 127.189C300.683 127.417 301.442 127.642 301.945 127.812C302.196 127.896 302.384 127.967 302.51 128.018C302.574 128.043 302.622 128.063 302.655 128.077C302.671 128.085 302.684 128.09 302.693 128.094L302.704 128.099L302.707 128.101L302.708 128.101C302.708 128.101 302.709 128.102 302.538 128.484C302.83 128.187 302.83 128.187 302.83 128.187L302.832 128.189L302.836 128.193L302.849 128.207C302.86 128.218 302.875 128.235 302.895 128.256C302.935 128.3 302.992 128.363 303.065 128.447C303.209 128.615 303.414 128.865 303.663 129.199C304.159 129.867 304.828 130.871 305.528 132.228C305.534 132.241 305.54 132.254 305.546 132.267C305.627 132.474 305.728 132.665 305.831 132.86C305.884 132.961 305.938 133.064 305.991 133.17C306.093 133.378 306.01 133.631 305.806 133.735C305.602 133.839 305.354 133.754 305.251 133.547C305.22 133.482 305.178 133.403 305.132 133.315C305.022 133.106 304.884 132.845 304.786 132.601C304.112 131.297 303.472 130.337 303.003 129.706C302.768 129.389 302.575 129.155 302.443 129.002C302.38 128.929 302.331 128.874 302.297 128.837C302.274 128.827 302.244 128.815 302.209 128.801C302.096 128.756 301.922 128.69 301.685 128.61C301.21 128.45 300.48 128.233 299.473 128.011C297.459 127.566 294.337 127.102 289.935 127.035C289.706 127.032 289.524 126.841 289.527 126.609ZM302.538 128.484L302.83 128.187C302.795 128.151 302.754 128.122 302.709 128.102L302.538 128.484Z" fill="#838D94"/>
</g>
<path d="M18.1484 51.2246L15.3242 59H14.1699L17.4219 50.4688H18.166L18.1484 51.2246ZM20.5156 59L17.6855 51.2246L17.668 50.4688H18.4121L21.6758 59H20.5156ZM20.3691 55.8418V56.7676H15.5762V55.8418H20.3691ZM26.6504 57.7695V50H27.7402V59H26.7441L26.6504 57.7695ZM22.3848 55.9004V55.7773C22.3848 55.293 22.4434 54.8535 22.5605 54.459C22.6816 54.0605 22.8516 53.7188 23.0703 53.4336C23.293 53.1484 23.5566 52.9297 23.8613 52.7773C24.1699 52.6211 24.5137 52.543 24.8926 52.543C25.291 52.543 25.6387 52.6133 25.9355 52.7539C26.2363 52.8906 26.4902 53.0918 26.6973 53.3574C26.9082 53.6191 27.0742 53.9355 27.1953 54.3066C27.3164 54.6777 27.4004 55.0977 27.4473 55.5664V56.1055C27.4043 56.5703 27.3203 56.9883 27.1953 57.3594C27.0742 57.7305 26.9082 58.0469 26.6973 58.3086C26.4902 58.5703 26.2363 58.7715 25.9355 58.9121C25.6348 59.0488 25.2832 59.1172 24.8809 59.1172C24.5098 59.1172 24.1699 59.0371 23.8613 58.877C23.5566 58.7168 23.293 58.4922 23.0703 58.2031C22.8516 57.9141 22.6816 57.5742 22.5605 57.1836C22.4434 56.7891 22.3848 56.3613 22.3848 55.9004ZM23.4746 55.7773V55.9004C23.4746 56.2168 23.5059 56.5137 23.5684 56.791C23.6348 57.0684 23.7363 57.3125 23.873 57.5234C24.0098 57.7344 24.1836 57.9004 24.3945 58.0215C24.6055 58.1387 24.8574 58.1973 25.1504 58.1973C25.5098 58.1973 25.8047 58.1211 26.0352 57.9688C26.2695 57.8164 26.457 57.6152 26.5977 57.3652C26.7383 57.1152 26.8477 56.8438 26.9258 56.5508V55.1387C26.8789 54.9238 26.8105 54.7168 26.7207 54.5176C26.6348 54.3145 26.5215 54.1348 26.3809 53.9785C26.2441 53.8184 26.0742 53.6914 25.8711 53.5977C25.6719 53.5039 25.4355 53.457 25.1621 53.457C24.8652 53.457 24.6094 53.5195 24.3945 53.6445C24.1836 53.7656 24.0098 53.9336 23.873 54.1484C23.7363 54.3594 23.6348 54.6055 23.5684 54.8867C23.5059 55.1641 23.4746 55.4609 23.4746 55.7773ZM33.4238 57.7695V50H34.5137V59H33.5176L33.4238 57.7695ZM29.1582 55.9004V55.7773C29.1582 55.293 29.2168 54.8535 29.334 54.459C29.4551 54.0605 29.625 53.7188 29.8438 53.4336C30.0664 53.1484 30.3301 52.9297 30.6348 52.7773C30.9434 52.6211 31.2871 52.543 31.666 52.543C32.0645 52.543 32.4121 52.6133 32.709 52.7539C33.0098 52.8906 33.2637 53.0918 33.4707 53.3574C33.6816 53.6191 33.8477 53.9355 33.9688 54.3066C34.0898 54.6777 34.1738 55.0977 34.2207 55.5664V56.1055C34.1777 56.5703 34.0938 56.9883 33.9688 57.3594C33.8477 57.7305 33.6816 58.0469 33.4707 58.3086C33.2637 58.5703 33.0098 58.7715 32.709 58.9121C32.4082 59.0488 32.0566 59.1172 31.6543 59.1172C31.2832 59.1172 30.9434 59.0371 30.6348 58.877C30.3301 58.7168 30.0664 58.4922 29.8438 58.2031C29.625 57.9141 29.4551 57.5742 29.334 57.1836C29.2168 56.7891 29.1582 56.3613 29.1582 55.9004ZM30.248 55.7773V55.9004C30.248 56.2168 30.2793 56.5137 30.3418 56.791C30.4082 57.0684 30.5098 57.3125 30.6465 57.5234C30.7832 57.7344 30.957 57.9004 31.168 58.0215C31.3789 58.1387 31.6309 58.1973 31.9238 58.1973C32.2832 58.1973 32.5781 58.1211 32.8086 57.9688C33.043 57.8164 33.2305 57.6152 33.3711 57.3652C33.5117 57.1152 33.6211 56.8438 33.6992 56.5508V55.1387C33.6523 54.9238 33.584 54.7168 33.4941 54.5176C33.4082 54.3145 33.2949 54.1348 33.1543 53.9785C33.0176 53.8184 32.8477 53.6914 32.6445 53.5977C32.4453 53.5039 32.209 53.457 31.9355 53.457C31.6387 53.457 31.3828 53.5195 31.168 53.6445C30.957 53.7656 30.7832 53.9336 30.6465 54.1484C30.5098 54.3594 30.4082 54.6055 30.3418 54.8867C30.2793 55.1641 30.248 55.4609 30.248 55.7773ZM40.959 58.3438L42.7227 52.6602H43.8828L41.3398 59.9785C41.2812 60.1348 41.2031 60.3027 41.1055 60.4824C41.0117 60.666 40.8906 60.8398 40.7422 61.0039C40.5938 61.168 40.4141 61.3008 40.2031 61.4023C39.9961 61.5078 39.748 61.5605 39.459 61.5605C39.373 61.5605 39.2637 61.5488 39.1309 61.5254C38.998 61.502 38.9043 61.4824 38.8496 61.4668L38.8438 60.5879C38.875 60.5918 38.9238 60.5957 38.9902 60.5996C39.0605 60.6074 39.1094 60.6113 39.1367 60.6113C39.3828 60.6113 39.5918 60.5781 39.7637 60.5117C39.9355 60.4492 40.0801 60.3418 40.1973 60.1895C40.3184 60.041 40.4219 59.8359 40.5078 59.5742L40.959 58.3438ZM39.6641 52.6602L41.3105 57.582L41.5918 58.7246L40.8125 59.123L38.4805 52.6602H39.6641ZM44.4805 55.9004V55.7656C44.4805 55.3086 44.5469 54.8848 44.6797 54.4941C44.8125 54.0996 45.0039 53.7578 45.2539 53.4688C45.5039 53.1758 45.8066 52.9492 46.1621 52.7891C46.5176 52.625 46.916 52.543 47.3574 52.543C47.8027 52.543 48.2031 52.625 48.5586 52.7891C48.918 52.9492 49.2227 53.1758 49.4727 53.4688C49.7266 53.7578 49.9199 54.0996 50.0527 54.4941C50.1855 54.8848 50.252 55.3086 50.252 55.7656V55.9004C50.252 56.3574 50.1855 56.7812 50.0527 57.1719C49.9199 57.5625 49.7266 57.9043 49.4727 58.1973C49.2227 58.4863 48.9199 58.7129 48.5645 58.877C48.2129 59.0371 47.8145 59.1172 47.3691 59.1172C46.9238 59.1172 46.5234 59.0371 46.168 58.877C45.8125 58.7129 45.5078 58.4863 45.2539 58.1973C45.0039 57.9043 44.8125 57.5625 44.6797 57.1719C44.5469 56.7812 44.4805 56.3574 44.4805 55.9004ZM45.5645 55.7656V55.9004C45.5645 56.2168 45.6016 56.5156 45.6758 56.7969C45.75 57.0742 45.8613 57.3203 46.0098 57.5352C46.1621 57.75 46.3516 57.9199 46.5781 58.0449C46.8047 58.166 47.0684 58.2266 47.3691 58.2266C47.666 58.2266 47.9258 58.166 48.1484 58.0449C48.375 57.9199 48.5625 57.75 48.7109 57.5352C48.8594 57.3203 48.9707 57.0742 49.0449 56.7969C49.123 56.5156 49.1621 56.2168 49.1621 55.9004V55.7656C49.1621 55.4531 49.123 55.1582 49.0449 54.8809C48.9707 54.5996 48.8574 54.3516 48.7051 54.1367C48.5566 53.918 48.3691 53.7461 48.1426 53.6211C47.9199 53.4961 47.6582 53.4336 47.3574 53.4336C47.0605 53.4336 46.7988 53.4961 46.5723 53.6211C46.3496 53.7461 46.1621 53.918 46.0098 54.1367C45.8613 54.3516 45.75 54.5996 45.6758 54.8809C45.6016 55.1582 45.5645 55.4531 45.5645 55.7656ZM55.4902 57.5352V52.6602H56.5801V59H55.543L55.4902 57.5352ZM55.6953 56.1992L56.1465 56.1875C56.1465 56.6094 56.1016 57 56.0117 57.3594C55.9258 57.7148 55.7852 58.0234 55.5898 58.2852C55.3945 58.5469 55.1387 58.752 54.8223 58.9004C54.5059 59.0449 54.1211 59.1172 53.668 59.1172C53.3594 59.1172 53.0762 59.0723 52.8184 58.9824C52.5645 58.8926 52.3457 58.7539 52.1621 58.5664C51.9785 58.3789 51.8359 58.1348 51.7344 57.834C51.6367 57.5332 51.5879 57.1719 51.5879 56.75V52.6602H52.6719V56.7617C52.6719 57.0469 52.7031 57.2832 52.7656 57.4707C52.832 57.6543 52.9199 57.8008 53.0293 57.9102C53.1426 58.0156 53.2676 58.0898 53.4043 58.1328C53.5449 58.1758 53.6895 58.1973 53.8379 58.1973C54.2988 58.1973 54.6641 58.1094 54.9336 57.9336C55.2031 57.7539 55.3965 57.5137 55.5137 57.2129C55.6348 56.9082 55.6953 56.5703 55.6953 56.1992ZM59.3164 53.6562V59H58.2324V52.6602H59.2871L59.3164 53.6562ZM61.2969 52.625L61.291 53.6328C61.2012 53.6133 61.1152 53.6016 61.0332 53.5977C60.9551 53.5898 60.8652 53.5859 60.7637 53.5859C60.5137 53.5859 60.293 53.625 60.1016 53.7031C59.9102 53.7812 59.748 53.8906 59.6152 54.0312C59.4824 54.1719 59.377 54.3398 59.2988 54.5352C59.2246 54.7266 59.1758 54.9375 59.1523 55.168L58.8477 55.3438C58.8477 54.9609 58.8848 54.6016 58.959 54.2656C59.0371 53.9297 59.1562 53.6328 59.3164 53.375C59.4766 53.1133 59.6797 52.9102 59.9258 52.7656C60.1758 52.6172 60.4727 52.543 60.8164 52.543C60.8945 52.543 60.9844 52.5527 61.0859 52.5723C61.1875 52.5879 61.2578 52.6055 61.2969 52.625ZM66.3594 53.8789V61.4375H65.2695V52.6602H66.2656L66.3594 53.8789ZM70.6309 55.7773V55.9004C70.6309 56.3613 70.5762 56.7891 70.4668 57.1836C70.3574 57.5742 70.1973 57.9141 69.9863 58.2031C69.7793 58.4922 69.5234 58.7168 69.2188 58.877C68.9141 59.0371 68.5645 59.1172 68.1699 59.1172C67.7676 59.1172 67.4121 59.0508 67.1035 58.918C66.7949 58.7852 66.5332 58.5918 66.3184 58.3379C66.1035 58.084 65.9316 57.7793 65.8027 57.4238C65.6777 57.0684 65.5918 56.668 65.5449 56.2227V55.5664C65.5918 55.0977 65.6797 54.6777 65.8086 54.3066C65.9375 53.9355 66.1074 53.6191 66.3184 53.3574C66.5332 53.0918 66.793 52.8906 67.0977 52.7539C67.4023 52.6133 67.7539 52.543 68.1523 52.543C68.5508 52.543 68.9043 52.6211 69.2129 52.7773C69.5215 52.9297 69.7812 53.1484 69.9922 53.4336C70.2031 53.7188 70.3613 54.0605 70.4668 54.459C70.5762 54.8535 70.6309 55.293 70.6309 55.7773ZM69.541 55.9004V55.7773C69.541 55.4609 69.5078 55.1641 69.4414 54.8867C69.375 54.6055 69.2715 54.3594 69.1309 54.1484C68.9941 53.9336 68.8184 53.7656 68.6035 53.6445C68.3887 53.5195 68.1328 53.457 67.8359 53.457C67.5625 53.457 67.3242 53.5039 67.1211 53.5977C66.9219 53.6914 66.752 53.8184 66.6113 53.9785C66.4707 54.1348 66.3555 54.3145 66.2656 54.5176C66.1797 54.7168 66.1152 54.9238 66.0723 55.1387V56.6562C66.1504 56.9297 66.2598 57.1875 66.4004 57.4297C66.541 57.668 66.7285 57.8613 66.9629 58.0098C67.1973 58.1543 67.4922 58.2266 67.8477 58.2266C68.1406 58.2266 68.3926 58.166 68.6035 58.0449C68.8184 57.9199 68.9941 57.75 69.1309 57.5352C69.2715 57.3203 69.375 57.0742 69.4414 56.7969C69.5078 56.5156 69.541 56.2168 69.541 55.9004ZM74.6445 59.1172C74.2031 59.1172 73.8027 59.043 73.4434 58.8945C73.0879 58.7422 72.7812 58.5293 72.5234 58.2559C72.2695 57.9824 72.0742 57.6582 71.9375 57.2832C71.8008 56.9082 71.7324 56.498 71.7324 56.0527V55.8066C71.7324 55.291 71.8086 54.832 71.9609 54.4297C72.1133 54.0234 72.3203 53.6797 72.582 53.3984C72.8438 53.1172 73.1406 52.9043 73.4727 52.7598C73.8047 52.6152 74.1484 52.543 74.5039 52.543C74.957 52.543 75.3477 52.6211 75.6758 52.7773C76.0078 52.9336 76.2793 53.1523 76.4902 53.4336C76.7012 53.7109 76.8574 54.0391 76.959 54.418C77.0605 54.793 77.1113 55.2031 77.1113 55.6484V56.1348H72.377V55.25H76.0273V55.168C76.0117 54.8867 75.9531 54.6133 75.8516 54.3477C75.7539 54.082 75.5977 53.8633 75.3828 53.6914C75.168 53.5195 74.875 53.4336 74.5039 53.4336C74.2578 53.4336 74.0312 53.4863 73.8242 53.5918C73.6172 53.6934 73.4395 53.8457 73.291 54.0488C73.1426 54.252 73.0273 54.5 72.9453 54.793C72.8633 55.0859 72.8223 55.4238 72.8223 55.8066V56.0527C72.8223 56.3535 72.8633 56.6367 72.9453 56.9023C73.0312 57.1641 73.1543 57.3945 73.3145 57.5938C73.4785 57.793 73.6758 57.9492 73.9062 58.0625C74.1406 58.1758 74.4062 58.2324 74.7031 58.2324C75.0859 58.2324 75.4102 58.1543 75.6758 57.998C75.9414 57.8418 76.1738 57.6328 76.373 57.3711L77.0293 57.8926C76.8926 58.0996 76.7188 58.2969 76.5078 58.4844C76.2969 58.6719 76.0371 58.8242 75.7285 58.9414C75.4238 59.0586 75.0625 59.1172 74.6445 59.1172ZM81.0312 52.6602V53.4922H77.6035V52.6602H81.0312ZM78.7637 51.1191H79.8477V57.4297C79.8477 57.6445 79.8809 57.8066 79.9473 57.916C80.0137 58.0254 80.0996 58.0977 80.2051 58.1328C80.3105 58.168 80.4238 58.1855 80.5449 58.1855C80.6348 58.1855 80.7285 58.1777 80.8262 58.1621C80.9277 58.1426 81.0039 58.127 81.0547 58.1152L81.0605 59C80.9746 59.0273 80.8613 59.0527 80.7207 59.0762C80.584 59.1035 80.418 59.1172 80.2227 59.1172C79.957 59.1172 79.7129 59.0645 79.4902 58.959C79.2676 58.8535 79.0898 58.6777 78.957 58.4316C78.8281 58.1816 78.7637 57.8457 78.7637 57.4238V51.1191ZM87.9336 52.6602V53.4922H84.5059V52.6602H87.9336ZM85.666 51.1191H86.75V57.4297C86.75 57.6445 86.7832 57.8066 86.8496 57.916C86.916 58.0254 87.002 58.0977 87.1074 58.1328C87.2129 58.168 87.3262 58.1855 87.4473 58.1855C87.5371 58.1855 87.6309 58.1777 87.7285 58.1621C87.8301 58.1426 87.9062 58.127 87.957 58.1152L87.9629 59C87.877 59.0273 87.7637 59.0527 87.623 59.0762C87.4863 59.1035 87.3203 59.1172 87.125 59.1172C86.8594 59.1172 86.6152 59.0645 86.3926 58.959C86.1699 58.8535 85.9922 58.6777 85.8594 58.4316C85.7305 58.1816 85.666 57.8457 85.666 57.4238V51.1191ZM88.8008 55.9004V55.7656C88.8008 55.3086 88.8672 54.8848 89 54.4941C89.1328 54.0996 89.3242 53.7578 89.5742 53.4688C89.8242 53.1758 90.127 52.9492 90.4824 52.7891C90.8379 52.625 91.2363 52.543 91.6777 52.543C92.123 52.543 92.5234 52.625 92.8789 52.7891C93.2383 52.9492 93.543 53.1758 93.793 53.4688C94.0469 53.7578 94.2402 54.0996 94.373 54.4941C94.5059 54.8848 94.5723 55.3086 94.5723 55.7656V55.9004C94.5723 56.3574 94.5059 56.7812 94.373 57.1719C94.2402 57.5625 94.0469 57.9043 93.793 58.1973C93.543 58.4863 93.2402 58.7129 92.8848 58.877C92.5332 59.0371 92.1348 59.1172 91.6895 59.1172C91.2441 59.1172 90.8438 59.0371 90.4883 58.877C90.1328 58.7129 89.8281 58.4863 89.5742 58.1973C89.3242 57.9043 89.1328 57.5625 89 57.1719C88.8672 56.7812 88.8008 56.3574 88.8008 55.9004ZM89.8848 55.7656V55.9004C89.8848 56.2168 89.9219 56.5156 89.9961 56.7969C90.0703 57.0742 90.1816 57.3203 90.3301 57.5352C90.4824 57.75 90.6719 57.9199 90.8984 58.0449C91.125 58.166 91.3887 58.2266 91.6895 58.2266C91.9863 58.2266 92.2461 58.166 92.4688 58.0449C92.6953 57.9199 92.8828 57.75 93.0312 57.5352C93.1797 57.3203 93.291 57.0742 93.3652 56.7969C93.4434 56.5156 93.4824 56.2168 93.4824 55.9004V55.7656C93.4824 55.4531 93.4434 55.1582 93.3652 54.8809C93.291 54.5996 93.1777 54.3516 93.0254 54.1367C92.877 53.918 92.6895 53.7461 92.4629 53.6211C92.2402 53.4961 91.9785 53.4336 91.6777 53.4336C91.3809 53.4336 91.1191 53.4961 90.8926 53.6211C90.6699 53.7461 90.4824 53.918 90.3301 54.1367C90.1816 54.3516 90.0703 54.5996 89.9961 54.8809C89.9219 55.1582 89.8848 55.4531 89.8848 55.7656ZM99.9922 53.8789V61.4375H98.9023V52.6602H99.8984L99.9922 53.8789ZM104.264 55.7773V55.9004C104.264 56.3613 104.209 56.7891 104.1 57.1836C103.99 57.5742 103.83 57.9141 103.619 58.2031C103.412 58.4922 103.156 58.7168 102.852 58.877C102.547 59.0371 102.197 59.1172 101.803 59.1172C101.4 59.1172 101.045 59.0508 100.736 58.918C100.428 58.7852 100.166 58.5918 99.9512 58.3379C99.7363 58.084 99.5645 57.7793 99.4355 57.4238C99.3105 57.0684 99.2246 56.668 99.1777 56.2227V55.5664C99.2246 55.0977 99.3125 54.6777 99.4414 54.3066C99.5703 53.9355 99.7402 53.6191 99.9512 53.3574C100.166 53.0918 100.426 52.8906 100.73 52.7539C101.035 52.6133 101.387 52.543 101.785 52.543C102.184 52.543 102.537 52.6211 102.846 52.7773C103.154 52.9297 103.414 53.1484 103.625 53.4336C103.836 53.7188 103.994 54.0605 104.1 54.459C104.209 54.8535 104.264 55.293 104.264 55.7773ZM103.174 55.9004V55.7773C103.174 55.4609 103.141 55.1641 103.074 54.8867C103.008 54.6055 102.904 54.3594 102.764 54.1484C102.627 53.9336 102.451 53.7656 102.236 53.6445C102.021 53.5195 101.766 53.457 101.469 53.457C101.195 53.457 100.957 53.5039 100.754 53.5977C100.555 53.6914 100.385 53.8184 100.244 53.9785C100.104 54.1348 99.9883 54.3145 99.8984 54.5176C99.8125 54.7168 99.748 54.9238 99.7051 55.1387V56.6562C99.7832 56.9297 99.8926 57.1875 100.033 57.4297C100.174 57.668 100.361 57.8613 100.596 58.0098C100.83 58.1543 101.125 58.2266 101.48 58.2266C101.773 58.2266 102.025 58.166 102.236 58.0449C102.451 57.9199 102.627 57.75 102.764 57.5352C102.904 57.3203 103.008 57.0742 103.074 56.7969C103.141 56.5156 103.174 56.2168 103.174 55.9004ZM108.277 59.1172C107.836 59.1172 107.436 59.043 107.076 58.8945C106.721 58.7422 106.414 58.5293 106.156 58.2559C105.902 57.9824 105.707 57.6582 105.57 57.2832C105.434 56.9082 105.365 56.498 105.365 56.0527V55.8066C105.365 55.291 105.441 54.832 105.594 54.4297C105.746 54.0234 105.953 53.6797 106.215 53.3984C106.477 53.1172 106.773 52.9043 107.105 52.7598C107.438 52.6152 107.781 52.543 108.137 52.543C108.59 52.543 108.98 52.6211 109.309 52.7773C109.641 52.9336 109.912 53.1523 110.123 53.4336C110.334 53.7109 110.49 54.0391 110.592 54.418C110.693 54.793 110.744 55.2031 110.744 55.6484V56.1348H106.01V55.25H109.66V55.168C109.645 54.8867 109.586 54.6133 109.484 54.3477C109.387 54.082 109.23 53.8633 109.016 53.6914C108.801 53.5195 108.508 53.4336 108.137 53.4336C107.891 53.4336 107.664 53.4863 107.457 53.5918C107.25 53.6934 107.072 53.8457 106.924 54.0488C106.775 54.252 106.66 54.5 106.578 54.793C106.496 55.0859 106.455 55.4238 106.455 55.8066V56.0527C106.455 56.3535 106.496 56.6367 106.578 56.9023C106.664 57.1641 106.787 57.3945 106.947 57.5938C107.111 57.793 107.309 57.9492 107.539 58.0625C107.773 58.1758 108.039 58.2324 108.336 58.2324C108.719 58.2324 109.043 58.1543 109.309 57.998C109.574 57.8418 109.807 57.6328 110.006 57.3711L110.662 57.8926C110.525 58.0996 110.352 58.2969 110.141 58.4844C109.93 58.6719 109.67 58.8242 109.361 58.9414C109.057 59.0586 108.695 59.1172 108.277 59.1172ZM114.664 52.6602V53.4922H111.236V52.6602H114.664ZM112.396 51.1191H113.48V57.4297C113.48 57.6445 113.514 57.8066 113.58 57.916C113.646 58.0254 113.732 58.0977 113.838 58.1328C113.943 58.168 114.057 58.1855 114.178 58.1855C114.268 58.1855 114.361 58.1777 114.459 58.1621C114.561 58.1426 114.637 58.127 114.688 58.1152L114.693 59C114.607 59.0273 114.494 59.0527 114.354 59.0762C114.217 59.1035 114.051 59.1172 113.855 59.1172C113.59 59.1172 113.346 59.0645 113.123 58.959C112.9 58.8535 112.723 58.6777 112.59 58.4316C112.461 58.1816 112.396 57.8457 112.396 57.4238V51.1191ZM117.025 50V59H115.936V50H117.025ZM120.898 52.6602L118.133 55.6191L116.586 57.2246L116.498 56.0703L117.605 54.7461L119.574 52.6602H120.898ZM119.908 59L117.646 55.9766L118.209 55.0098L121.186 59H119.908ZM123.195 52.6602V59H122.105V52.6602H123.195ZM122.023 50.9785C122.023 50.8027 122.076 50.6543 122.182 50.5332C122.291 50.4121 122.451 50.3516 122.662 50.3516C122.869 50.3516 123.027 50.4121 123.137 50.5332C123.25 50.6543 123.307 50.8027 123.307 50.9785C123.307 51.1465 123.25 51.291 123.137 51.4121C123.027 51.5293 122.869 51.5879 122.662 51.5879C122.451 51.5879 122.291 51.5293 122.182 51.4121C122.076 51.291 122.023 51.1465 122.023 50.9785ZM127.59 52.6602V53.4922H124.162V52.6602H127.59ZM125.322 51.1191H126.406V57.4297C126.406 57.6445 126.439 57.8066 126.506 57.916C126.572 58.0254 126.658 58.0977 126.764 58.1328C126.869 58.168 126.982 58.1855 127.104 58.1855C127.193 58.1855 127.287 58.1777 127.385 58.1621C127.486 58.1426 127.562 58.127 127.613 58.1152L127.619 59C127.533 59.0273 127.42 59.0527 127.279 59.0762C127.143 59.1035 126.977 59.1172 126.781 59.1172C126.516 59.1172 126.271 59.0645 126.049 58.959C125.826 58.8535 125.648 58.6777 125.516 58.4316C125.387 58.1816 125.322 57.8457 125.322 57.4238V51.1191Z" fill="#5E6073"/>
<path d="M15.8 18.696H17.474L23.216 28.002H23.09V18.696H24.494V30H22.928L16.988 20.388H17.204V30H15.8V18.696ZM31.2367 30.216C30.4627 30.216 29.7727 30.045 29.1667 29.703C28.5667 29.361 28.0927 28.854 27.7447 28.182C27.3967 27.51 27.2227 26.682 27.2227 25.698C27.2227 24.708 27.3967 23.88 27.7447 23.214C28.0927 22.542 28.5667 22.035 29.1667 21.693C29.7727 21.351 30.4627 21.18 31.2367 21.18C32.0047 21.18 32.6887 21.351 33.2887 21.693C33.8947 22.035 34.3687 22.542 34.7107 23.214C35.0587 23.88 35.2327 24.708 35.2327 25.698C35.2327 26.682 35.0587 27.51 34.7107 28.182C34.3687 28.854 33.8947 29.361 33.2887 29.703C32.6887 30.045 32.0047 30.216 31.2367 30.216ZM31.2007 28.992C31.7587 28.992 32.2327 28.86 32.6227 28.596C33.0127 28.326 33.3067 27.945 33.5047 27.453C33.7087 26.961 33.8107 26.376 33.8107 25.698C33.8107 24.672 33.5977 23.865 33.1717 23.277C32.7457 22.683 32.1127 22.386 31.2727 22.386C30.7087 22.386 30.2317 22.521 29.8417 22.791C29.4577 23.055 29.1637 23.436 28.9597 23.934C28.7617 24.426 28.6627 25.014 28.6627 25.698C28.6627 26.712 28.8757 27.516 29.3017 28.11C29.7337 28.698 30.3667 28.992 31.2007 28.992ZM46.1439 30.216C45.5139 30.216 44.9649 30.072 44.4969 29.784C44.0349 29.496 43.6779 29.076 43.4259 28.524C43.1739 27.966 43.0479 27.288 43.0479 26.49H43.6419C43.6419 27.024 43.7529 27.474 43.9749 27.84C44.1969 28.206 44.4849 28.485 44.8389 28.677C45.1989 28.863 45.5799 28.956 45.9819 28.956C46.4139 28.956 46.8279 28.833 47.2239 28.587C47.6199 28.335 47.9439 27.966 48.1959 27.48C48.4479 26.994 48.5739 26.394 48.5739 25.68C48.5739 24.996 48.4569 24.411 48.2229 23.925C47.9949 23.439 47.6859 23.067 47.2959 22.809C46.9059 22.551 46.4739 22.422 45.9999 22.422C45.5919 22.422 45.2079 22.521 44.8479 22.719C44.4879 22.917 44.1969 23.208 43.9749 23.592C43.7529 23.97 43.6419 24.438 43.6419 24.996H43.0479C43.0479 24.162 43.1859 23.463 43.4619 22.899C43.7379 22.329 44.1129 21.9 44.5869 21.612C45.0609 21.324 45.5919 21.18 46.1799 21.18C46.8519 21.18 47.4789 21.36 48.0609 21.72C48.6429 22.08 49.1139 22.596 49.4739 23.268C49.8339 23.94 50.0139 24.744 50.0139 25.68C50.0139 26.628 49.8309 27.441 49.4649 28.119C49.1049 28.797 48.6309 29.316 48.0429 29.676C47.4549 30.036 46.8219 30.216 46.1439 30.216ZM42.2379 34.23V21.396H43.4079L43.6419 23.412V34.23H42.2379ZM55.7552 30.216C55.0112 30.216 54.3452 30.027 53.7572 29.649C53.1752 29.265 52.7132 28.734 52.3712 28.056C52.0352 27.378 51.8672 26.598 51.8672 25.716C51.8672 24.774 52.0352 23.964 52.3712 23.286C52.7072 22.608 53.1662 22.089 53.7482 21.729C54.3362 21.363 55.0052 21.18 55.7552 21.18C56.4092 21.18 56.9672 21.312 57.4292 21.576C57.8912 21.84 58.2632 22.197 58.5452 22.647C58.8272 23.097 59.0222 23.607 59.1302 24.177C59.2442 24.741 59.2772 25.326 59.2292 25.932H53.0012V25.068H58.3022L57.8882 25.338C57.9062 24.984 57.8852 24.63 57.8252 24.276C57.7712 23.922 57.6662 23.598 57.5102 23.304C57.3542 23.004 57.1352 22.764 56.8532 22.584C56.5712 22.404 56.2112 22.314 55.7732 22.314C55.2212 22.314 54.7592 22.455 54.3872 22.737C54.0152 23.019 53.7362 23.391 53.5502 23.853C53.3642 24.309 53.2712 24.804 53.2712 25.338V25.914C53.2712 26.514 53.3612 27.051 53.5412 27.525C53.7272 27.999 54.0032 28.374 54.3692 28.65C54.7352 28.926 55.1972 29.064 55.7552 29.064C56.3132 29.064 56.7722 28.929 57.1322 28.659C57.4922 28.389 57.7112 27.99 57.7892 27.462H59.2472C59.1572 28.032 58.9532 28.524 58.6352 28.938C58.3172 29.346 57.9122 29.661 57.4202 29.883C56.9282 30.105 56.3732 30.216 55.7552 30.216ZM64.6593 30.216C64.1913 30.216 63.7713 30.126 63.3993 29.946C63.0273 29.766 62.7333 29.496 62.5173 29.136C62.3013 28.776 62.1933 28.326 62.1933 27.786V19.002H63.5793V27.75C63.5793 28.638 63.9933 29.082 64.8213 29.082C65.0673 29.082 65.3043 29.055 65.5323 29.001C65.7663 28.947 66.0273 28.866 66.3153 28.758L66.5133 29.766C66.2073 29.898 65.9013 30.006 65.5953 30.09C65.2953 30.174 64.9833 30.216 64.6593 30.216ZM60.8073 22.368V21.396H66.2973V22.368H60.8073ZM71.8769 30.216C71.0429 30.216 70.3469 30.099 69.7889 29.865C69.2309 29.625 68.8079 29.298 68.5199 28.884C68.2319 28.464 68.0789 27.984 68.0609 27.444H69.4109C69.4409 27.99 69.6599 28.401 70.0679 28.677C70.4819 28.947 71.0429 29.082 71.7509 29.082C72.1229 29.082 72.4649 29.022 72.7769 28.902C73.0889 28.782 73.3379 28.617 73.5239 28.407C73.7099 28.197 73.8029 27.96 73.8029 27.696C73.8029 27.36 73.6799 27.096 73.4339 26.904C73.1879 26.712 72.7949 26.544 72.2549 26.4L70.5809 25.86C69.8549 25.632 69.2969 25.32 68.9069 24.924C68.5229 24.522 68.3309 24.042 68.3309 23.484C68.3309 22.788 68.6369 22.23 69.2489 21.81C69.8609 21.39 70.6649 21.18 71.6609 21.18C72.7169 21.18 73.5359 21.396 74.1179 21.828C74.6999 22.26 75.0029 22.8 75.0269 23.448H73.6409C73.5869 23.07 73.3949 22.785 73.0649 22.593C72.7349 22.395 72.2669 22.296 71.6609 22.296C71.0789 22.296 70.6229 22.428 70.2929 22.692C69.9689 22.95 69.8069 23.238 69.8069 23.556C69.8069 24.15 70.3169 24.588 71.3369 24.87L73.0469 25.446C73.7849 25.668 74.3489 25.959 74.7389 26.319C75.1349 26.679 75.3329 27.138 75.3329 27.696C75.3329 28.128 75.1919 28.536 74.9099 28.92C74.6279 29.304 74.2289 29.616 73.7129 29.856C73.1969 30.096 72.5849 30.216 71.8769 30.216ZM87.8374 30L87.6574 28.11V24.42C87.6574 23.646 87.4924 23.091 87.1624 22.755C86.8324 22.413 86.3374 22.242 85.6774 22.242C85.3054 22.242 84.9664 22.296 84.6604 22.404C84.3604 22.512 84.1204 22.68 83.9404 22.908C83.7664 23.13 83.6794 23.418 83.6794 23.772H82.1134C82.1134 23.148 82.2664 22.647 82.5724 22.269C82.8784 21.885 83.2984 21.609 83.8324 21.441C84.3724 21.267 84.9874 21.18 85.6774 21.18C86.3374 21.18 86.9224 21.291 87.4324 21.513C87.9424 21.735 88.3414 22.089 88.6294 22.575C88.9174 23.055 89.0614 23.682 89.0614 24.456V30H87.8374ZM84.9034 30.216C84.1954 30.216 83.6104 30.09 83.1484 29.838C82.6864 29.586 82.3414 29.259 82.1134 28.857C81.8854 28.455 81.7714 28.032 81.7714 27.588C81.7714 27.006 81.9154 26.532 82.2034 26.166C82.4974 25.8 82.8964 25.533 83.4004 25.365C83.9044 25.191 84.4714 25.104 85.1014 25.104C85.5514 25.104 86.0014 25.149 86.4514 25.239C86.9074 25.329 87.3514 25.452 87.7834 25.608V26.49C87.4234 26.346 87.0154 26.232 86.5594 26.148C86.1094 26.064 85.6954 26.022 85.3174 26.022C84.7414 26.022 84.2554 26.142 83.8594 26.382C83.4634 26.616 83.2654 27.018 83.2654 27.588C83.2654 28.008 83.4154 28.368 83.7154 28.668C84.0214 28.968 84.5074 29.118 85.1734 29.118C85.6414 29.118 86.0614 29.01 86.4334 28.794C86.8114 28.572 87.1084 28.296 87.3244 27.966C87.5464 27.636 87.6574 27.306 87.6574 26.976H87.9994C87.9994 27.552 87.8734 28.086 87.6214 28.578C87.3754 29.07 87.0214 29.466 86.5594 29.766C86.0974 30.066 85.5454 30.216 84.9034 30.216ZM95.5015 30.216C94.8055 30.216 94.1665 30.03 93.5845 29.658C93.0025 29.28 92.5375 28.752 92.1895 28.074C91.8415 27.39 91.6675 26.586 91.6675 25.662C91.6675 24.744 91.8385 23.949 92.1805 23.277C92.5225 22.605 92.9755 22.089 93.5395 21.729C94.1095 21.363 94.7335 21.18 95.4115 21.18C96.0415 21.18 96.5935 21.333 97.0675 21.639C97.5475 21.945 97.9195 22.386 98.1835 22.962C98.4475 23.538 98.5795 24.234 98.5795 25.05H98.0395C98.0395 24.48 97.9255 24 97.6975 23.61C97.4755 23.22 97.1845 22.926 96.8245 22.728C96.4645 22.524 96.0775 22.422 95.6635 22.422C95.1955 22.422 94.7665 22.554 94.3765 22.818C93.9925 23.076 93.6835 23.448 93.4495 23.934C93.2215 24.414 93.1075 24.99 93.1075 25.662C93.1075 26.346 93.2215 26.934 93.4495 27.426C93.6835 27.918 93.9925 28.296 94.3765 28.56C94.7665 28.824 95.1955 28.956 95.6635 28.956C96.0535 28.956 96.4285 28.854 96.7885 28.65C97.1545 28.446 97.4545 28.149 97.6885 27.759C97.9225 27.363 98.0395 26.886 98.0395 26.328H98.5795C98.5795 27.162 98.4415 27.87 98.1655 28.452C97.8955 29.028 97.5265 29.466 97.0585 29.766C96.5965 30.066 96.0775 30.216 95.5015 30.216ZM98.2735 30L98.0395 27.984V17.724H99.4435V30H98.2735ZM106.171 30.216C105.475 30.216 104.836 30.03 104.254 29.658C103.672 29.28 103.207 28.752 102.859 28.074C102.511 27.39 102.337 26.586 102.337 25.662C102.337 24.744 102.508 23.949 102.85 23.277C103.192 22.605 103.645 22.089 104.209 21.729C104.779 21.363 105.403 21.18 106.081 21.18C106.711 21.18 107.263 21.333 107.737 21.639C108.217 21.945 108.589 22.386 108.853 22.962C109.117 23.538 109.249 24.234 109.249 25.05H108.709C108.709 24.48 108.595 24 108.367 23.61C108.145 23.22 107.854 22.926 107.494 22.728C107.134 22.524 106.747 22.422 106.333 22.422C105.865 22.422 105.436 22.554 105.046 22.818C104.662 23.076 104.353 23.448 104.119 23.934C103.891 24.414 103.777 24.99 103.777 25.662C103.777 26.346 103.891 26.934 104.119 27.426C104.353 27.918 104.662 28.296 105.046 28.56C105.436 28.824 105.865 28.956 106.333 28.956C106.723 28.956 107.098 28.854 107.458 28.65C107.824 28.446 108.124 28.149 108.358 27.759C108.592 27.363 108.709 26.886 108.709 26.328H109.249C109.249 27.162 109.111 27.87 108.835 28.452C108.565 29.028 108.196 29.466 107.728 29.766C107.266 30.066 106.747 30.216 106.171 30.216ZM108.943 30L108.709 27.984V17.724H110.113V30H108.943ZM116.751 30.216C116.007 30.216 115.341 30.027 114.753 29.649C114.171 29.265 113.709 28.734 113.367 28.056C113.031 27.378 112.863 26.598 112.863 25.716C112.863 24.774 113.031 23.964 113.367 23.286C113.703 22.608 114.162 22.089 114.744 21.729C115.332 21.363 116.001 21.18 116.751 21.18C117.405 21.18 117.963 21.312 118.425 21.576C118.887 21.84 119.259 22.197 119.541 22.647C119.823 23.097 120.018 23.607 120.126 24.177C120.24 24.741 120.273 25.326 120.225 25.932H113.997V25.068H119.298L118.884 25.338C118.902 24.984 118.881 24.63 118.821 24.276C118.767 23.922 118.662 23.598 118.506 23.304C118.35 23.004 118.131 22.764 117.849 22.584C117.567 22.404 117.207 22.314 116.769 22.314C116.217 22.314 115.755 22.455 115.383 22.737C115.011 23.019 114.732 23.391 114.546 23.853C114.36 24.309 114.267 24.804 114.267 25.338V25.914C114.267 26.514 114.357 27.051 114.537 27.525C114.723 27.999 114.999 28.374 115.365 28.65C115.731 28.926 116.193 29.064 116.751 29.064C117.309 29.064 117.768 28.929 118.128 28.659C118.488 28.389 118.707 27.99 118.785 27.462H120.243C120.153 28.032 119.949 28.524 119.631 28.938C119.313 29.346 118.908 29.661 118.416 29.883C117.924 30.105 117.369 30.216 116.751 30.216ZM126.087 30.216C125.391 30.216 124.752 30.03 124.17 29.658C123.588 29.28 123.123 28.752 122.775 28.074C122.427 27.39 122.253 26.586 122.253 25.662C122.253 24.744 122.424 23.949 122.766 23.277C123.108 22.605 123.561 22.089 124.125 21.729C124.695 21.363 125.319 21.18 125.997 21.18C126.627 21.18 127.179 21.333 127.653 21.639C128.133 21.945 128.505 22.386 128.769 22.962C129.033 23.538 129.165 24.234 129.165 25.05H128.625C128.625 24.48 128.511 24 128.283 23.61C128.061 23.22 127.77 22.926 127.41 22.728C127.05 22.524 126.663 22.422 126.249 22.422C125.781 22.422 125.352 22.554 124.962 22.818C124.578 23.076 124.269 23.448 124.035 23.934C123.807 24.414 123.693 24.99 123.693 25.662C123.693 26.346 123.807 26.934 124.035 27.426C124.269 27.918 124.578 28.296 124.962 28.56C125.352 28.824 125.781 28.956 126.249 28.956C126.639 28.956 127.014 28.854 127.374 28.65C127.74 28.446 128.04 28.149 128.274 27.759C128.508 27.363 128.625 26.886 128.625 26.328H129.165C129.165 27.162 129.027 27.87 128.751 28.452C128.481 29.028 128.112 29.466 127.644 29.766C127.182 30.066 126.663 30.216 126.087 30.216ZM128.859 30L128.625 27.984V17.724H130.029V30H128.859Z" fill="#1B1B1B"/>
<rect x="0.5" y="0.5" width="359" height="159" rx="13.5" stroke="#5E6073"/>
</svg>
