<svg width="37" height="37" viewBox="0 0 37 37" fill="none" xmlns="http://www.w3.org/2000/svg">
<circle cx="18.5" cy="18.5" r="18" stroke="#1B1B1B"/>
<path d="M22.2658 20.0287H21.617L21.3871 19.8071C21.9003 19.2113 22.2754 18.5094 22.4855 17.7518C22.6956 16.9942 22.7355 16.1995 22.6024 15.4247C22.2165 13.1432 20.3114 11.3212 18.0121 11.0422C17.2038 10.94 16.3827 11.024 15.6119 11.2877C14.841 11.5514 14.1407 11.9878 13.5645 12.5636C12.9884 13.1394 12.5517 13.8393 12.2878 14.6098C12.024 15.3802 11.94 16.2007 12.0422 17.0086C12.3214 19.3065 14.1444 21.2105 16.4273 21.5962C17.2026 21.7292 17.9977 21.6893 18.7558 21.4793C19.5138 21.2693 20.2161 20.8945 20.8123 20.3816L21.034 20.6114V21.2597L24.524 24.7476C24.8606 25.0841 25.4108 25.0841 25.7475 24.7476C26.0842 24.4112 26.0842 23.8613 25.7475 23.5248L22.2658 20.0287ZM17.3388 20.0287C15.2941 20.0287 13.6435 18.3791 13.6435 16.3356C13.6435 14.2921 15.2941 12.6425 17.3388 12.6425C19.3835 12.6425 21.034 14.2921 21.034 16.3356C21.034 18.3791 19.3835 20.0287 17.3388 20.0287Z" fill="#1B1B1B"/>
</svg>
