<svg width="24" height="23" viewBox="0 0 24 23" fill="none" xmlns="http://www.w3.org/2000/svg">
<path d="M12.8781 22.7477L12.8778 22.7478C12.6003 22.8491 12.3079 22.9 12 22.9C11.6921 22.9 11.3997 22.8491 11.1222 22.7478L11.1219 22.7477C10.8463 22.648 10.5936 22.4887 10.3635 22.2682L0.75747 13.0625C0.527282 12.8419 0.361217 12.6001 0.256943 12.3372C0.152402 12.0725 0.1 11.7936 0.1 11.5C0.1 11.2064 0.152402 10.9275 0.256943 10.6628C0.361217 10.3999 0.527282 10.1581 0.75747 9.93753L10.3635 0.7318C10.5936 0.511275 10.8464 0.351604 11.122 0.251165C11.3995 0.150511 11.692 0.1 12 0.1C12.308 0.1 12.6004 0.150497 12.8779 0.251125C13.1536 0.351562 13.4064 0.511245 13.6365 0.7318L23.2425 9.93753C23.4727 10.1581 23.6388 10.3999 23.7431 10.6628C23.8476 10.9275 23.9 11.2064 23.9 11.5C23.9 11.7936 23.8476 12.0725 23.7431 12.3372C23.6388 12.6001 23.4727 12.8419 23.2425 13.0625L13.6365 22.2682C13.4064 22.4887 13.1537 22.648 12.8781 22.7477ZM11.9308 20.7779L12 20.8442L12.0692 20.7779L21.6752 11.5722L21.7505 11.5L21.6752 11.4278L12.0692 2.22207L12 2.15576L11.9308 2.22207L2.32482 11.4278L2.24949 11.5L2.32482 11.5722L11.9308 20.7779ZM11.217 12.2447L11.2168 12.2444C11.0072 12.0443 10.903 11.7984 10.903 11.5V6.91147C10.903 6.61306 11.0072 6.36671 11.2169 6.16577C11.426 5.96543 11.6847 5.86434 12 5.86434C12.3153 5.86434 12.5745 5.96542 12.7843 6.16582C12.9931 6.36671 13.097 6.61304 13.097 6.91147V11.5C13.097 11.7985 12.9931 12.0445 12.7843 12.2446C12.5744 12.4457 12.3152 12.5471 12 12.5471C11.6848 12.5471 11.4261 12.4457 11.217 12.2447ZM11.217 15.6861L11.2168 15.6858C11.0072 15.4857 10.903 15.2398 10.903 14.9414C10.903 14.643 11.0072 14.3966 11.2169 14.1957C11.426 13.9954 11.6847 13.8943 12 13.8943C12.3153 13.8943 12.5744 13.9953 12.7843 14.1957C12.9931 14.3966 13.097 14.6429 13.097 14.9414C13.097 15.2399 12.9931 15.4858 12.7843 15.686C12.5744 15.8871 12.3152 15.9885 12 15.9885C11.6848 15.9885 11.4261 15.8871 11.217 15.6861Z" fill="#5E6073" stroke="white" stroke-width="0.2"/>
</svg>
