<svg width="125" height="128" viewBox="0 0 125 128" fill="none" xmlns="http://www.w3.org/2000/svg">
<path d="M64.5483 127.387C97.8708 127.387 124.884 100.386 124.884 67.0791C124.884 33.7721 97.8708 6.77142 64.5483 6.77142C31.2257 6.77142 4.21246 33.7721 4.21246 67.0791C4.21246 100.386 31.2257 127.387 64.5483 127.387Z" fill="black"/>
<path d="M61.3677 122.062C94.6902 122.062 121.703 95.0614 121.703 61.7544C121.703 28.4473 94.6902 1.44666 61.3677 1.44666C28.0451 1.44666 1.03186 28.4473 1.03186 61.7544C1.03186 95.0614 28.0451 122.062 61.3677 122.062Z" fill="#B2D3BE"/>
<path fill-rule="evenodd" clip-rule="evenodd" d="M61.3677 2.3011C28.5173 2.3011 1.88674 28.9192 1.88674 61.7543C1.88674 94.5895 28.5173 121.208 61.3677 121.208C94.2181 121.208 120.849 94.5895 120.849 61.7543C120.849 28.9192 94.2181 2.3011 61.3677 2.3011ZM0.177002 61.7543C0.177002 27.9754 27.573 0.592163 61.3677 0.592163C95.1623 0.592163 122.558 27.9754 122.558 61.7543C122.558 95.5333 95.1623 122.917 61.3677 122.917C27.573 122.917 0.177002 95.5333 0.177002 61.7543Z" fill="black"/>
<path d="M39.7834 21.9843C40.8952 21.9013 42.0931 23.8592 44.4879 27.7729C46.0771 30.3699 47.1629 32.5312 49.4612 35.8908C50.9487 38.0666 51.5726 38.7369 52.5598 39.2131C53.5003 39.6666 54.0328 39.5452 58.1352 39.7911C60.1718 39.9135 61.1901 39.9747 61.8722 40.065C64.3915 40.4001 65.0631 40.812 66.7801 40.7664C66.7801 40.7664 68.3558 40.7373 70.0281 40.1625C73.2586 39.0502 75.5641 35.5329 77.1751 33.0188C83.4969 23.1547 83.963 22.363 85.0218 22.2696C88.6882 21.948 92.2103 30.1552 93.7186 33.6684C97.9777 43.5927 98.2341 52.4442 98.2663 53.956C98.3649 58.513 98.4583 68.6677 92.5186 79.5787C88.7287 86.5408 83.9619 91.0937 80.8228 93.6669C77.635 95.9817 71.6589 99.6412 63.3296 101.011C60.4978 101.477 51.1387 102.706 40.8391 98.3131C37.0014 96.6769 32.6561 94.8227 29.1434 90.2201C24.5126 84.1513 24.4379 77.3781 24.4451 75.083C24.4451 75.083 24.4711 66.7461 31.4427 55.0008C32.133 53.8377 32.5918 53.1529 32.5918 53.1529C33.2613 52.1848 33.8686 51.4606 34.3004 50.9771C35.2212 49.9468 35.8056 49.4923 35.8907 48.6322C35.9146 48.3935 35.8938 48.0823 35.8534 47.4587C35.8056 46.7231 35.7298 46.1825 35.7163 46.085C35.57 45.0163 35.4018 41.9336 35.3914 39.3657C35.38 36.3806 35.3707 34.017 35.8409 31.2228C36.1191 29.5741 37.3616 22.1679 39.7834 21.9874V21.9843Z" fill="black"/>
<path d="M76.925 44.0087C78.536 44.6593 80.4502 45.5827 82.4723 46.9066C84.8204 48.4433 86.6339 50.0702 87.9699 51.4522C88.4411 48.4993 88.8647 44.0502 88.22 38.713C88.0996 37.72 87.1498 29.85 85.3716 29.7712C84.4519 29.7297 83.8914 31.7965 82.273 35.1665C80.4409 38.9796 78.4655 41.9388 76.925 44.0087Z" fill="#FDFDFD"/>
<path d="M46.1374 41.061C44.8159 39.6344 43.0502 37.4191 41.6893 34.3666C39.9319 30.4249 39.8592 27.3526 39.2405 27.3723C38.5108 27.3962 37.9025 31.6907 37.8911 35.6148C37.8786 39.7993 38.5886 43.2451 39.2405 45.6066C40.2339 44.9094 41.2585 44.209 42.3142 43.5086C43.6087 42.6495 44.8844 41.835 46.1374 41.061Z" fill="#FDFDFD"/>
<path d="M67.2296 63.3169C66.9576 63.9415 64.1808 62.3032 60.8746 63.5483C58.1746 64.5651 57.2206 66.7139 56.7753 66.4369C56.1286 66.0343 56.8978 60.7209 60.4417 59.6522C63.9711 58.5887 67.5649 62.546 67.2296 63.3169Z" fill="#FDFDFD"/>
<path d="M40.564 63.1986C40.0948 63.3127 39.8405 62.0988 38.1848 60.5569C36.2758 58.7785 34.7426 58.652 34.8111 58.1062C34.9118 57.3104 38.3571 56.112 40.235 57.7773C42.1149 59.4447 41.327 63.0129 40.564 63.1986Z" fill="#FDFDFD"/>
<path d="M43.3564 78.5194C42.2831 78.6729 42.1481 79.6379 40.3388 81.3851C38.8461 82.8273 37.3035 84.3173 35.5783 84.2893C33.3091 84.2519 31.1427 81.5916 30.6683 78.9873C30.0994 75.8725 32.461 73.2485 33.7523 71.7658C33.9392 71.551 34.0804 71.4016 34.2174 71.2709C34.2174 71.2709 34.644 70.8517 35.1724 70.4574C37.2828 68.8845 39.6931 68.1281 39.6931 68.1281C39.6931 68.1281 44.735 66.5458 49.2391 68.3034C49.4923 68.402 49.7301 68.5182 49.7301 68.5182C50.1972 68.7548 50.4577 69.01 52.9626 70.2769C55.6947 71.6589 57.0494 72.3967 58.0698 72.6363C59.1462 72.8895 60.8476 73.1894 63.0483 74.0869C63.449 74.2498 63.8642 74.4542 64.349 74.7343C65.5998 75.4585 66.7209 76.107 67.2732 77.432C68.1472 79.531 67.0178 81.9527 65.8676 83.2953C64.6344 84.7354 63.1396 85.2148 61.7632 85.6558C60.749 85.9805 56.52 87.3366 52.6169 85.4119C51.6505 84.9357 50.3166 83.7518 47.6498 81.3841C45.3194 79.3152 44.5035 78.3544 43.3574 78.5183L43.3564 78.5194Z" fill="#FDFDFD"/>
<path d="M40.7893 84.4585C41.0416 83.9335 42.1357 84.003 44.026 84.1213C45.6163 84.2209 47.3799 84.3319 47.9747 85.4701C48.2519 86.0013 48.1616 86.5378 48.1366 86.6695C47.9353 87.7662 46.7789 88.4656 46.0003 88.6554C43.4488 89.2759 40.2589 85.5614 40.7903 84.4595L40.7893 84.4585Z" fill="#FDFDFD"/>
<path d="M40.1924 69.3535C40.8537 68.207 42.636 68.1821 44.5907 68.1541C46.4467 68.1281 47.6944 68.1344 48.6391 69.0412C48.8643 69.258 49.5339 69.9086 49.4602 70.6826C49.3688 71.6414 48.2519 71.8011 46.374 73.455C44.9332 74.724 45.0183 75.1172 44.3747 75.2407C42.8457 75.5343 40.1478 73.3212 39.9765 70.7573C39.9474 70.3184 39.9142 69.8339 40.1924 69.3525V69.3535Z" fill="black"/>
<path d="M47.6654 61.7543C46.673 61.3445 48.8695 56.9016 46.728 54.0535C44.79 51.4751 40.7447 52.1288 40.7312 51.4523C40.7135 50.5631 47.6861 48.7214 55.6501 49.9696C61.3812 50.8681 65.9745 53.1072 65.8085 53.8283C65.6164 54.6594 59.4359 52.0748 54.1885 55.1398C50.0882 57.5345 48.6463 62.1579 47.6664 61.7533L47.6654 61.7543Z" fill="#FDFDFD"/>
</svg>
