<svg width="19" height="19" viewBox="0 0 19 19" fill="none" xmlns="http://www.w3.org/2000/svg">
<path d="M8.17 11.21L6.10375 9.14375C5.92958 8.96958 5.71203 8.88662 5.4511 8.89485C5.18953 8.90245 4.97167 8.99333 4.7975 9.1675C4.62333 9.34167 4.53625 9.56333 4.53625 9.8325C4.53625 10.1017 4.62333 10.3233 4.7975 10.4975L7.505 13.205C7.67917 13.3792 7.90083 13.4662 8.17 13.4662C8.43917 13.4662 8.66083 13.3792 8.835 13.205L14.2263 7.81375C14.4004 7.63958 14.4837 7.42172 14.4761 7.16015C14.4679 6.89922 14.3767 6.68167 14.2025 6.5075C14.0283 6.33333 13.8067 6.24625 13.5375 6.24625C13.2683 6.24625 13.0467 6.33333 12.8725 6.5075L8.17 11.21ZM9.5 19C8.18583 19 6.95083 18.7505 5.795 18.2514C4.63917 17.753 3.63375 17.0763 2.77875 16.2213C1.92375 15.3663 1.24703 14.3608 0.7486 13.205C0.249533 12.0492 0 10.8142 0 9.5C0 8.18583 0.249533 6.95083 0.7486 5.795C1.24703 4.63917 1.92375 3.63375 2.77875 2.77875C3.63375 1.92375 4.63917 1.24672 5.795 0.74765C6.95083 0.249217 8.18583 0 9.5 0C10.8142 0 12.0492 0.249217 13.205 0.74765C14.3608 1.24672 15.3663 1.92375 16.2213 2.77875C17.0763 3.63375 17.753 4.63917 18.2514 5.795C18.7505 6.95083 19 8.18583 19 9.5C19 10.8142 18.7505 12.0492 18.2514 13.205C17.753 14.3608 17.0763 15.3663 16.2213 16.2213C15.3663 17.0763 14.3608 17.753 13.205 18.2514C12.0492 18.7505 10.8142 19 9.5 19ZM9.5 17.1C11.6058 17.1 13.3991 16.36 14.8799 14.8799C16.36 13.3991 17.1 11.6058 17.1 9.5C17.1 7.39417 16.36 5.60088 14.8799 4.12015C13.3991 2.64005 11.6058 1.9 9.5 1.9C7.39417 1.9 5.6012 2.64005 4.1211 4.12015C2.64037 5.60088 1.9 7.39417 1.9 9.5C1.9 11.6058 2.64037 13.3991 4.1211 14.8799C5.6012 16.36 7.39417 17.1 9.5 17.1Z" fill="#1B1B1B"/>
<circle cx="9.49998" cy="9.5" r="8.02586" fill="#F2F4D1"/>
<path d="M8.17001 11.21L6.10376 9.14374C5.92959 8.96958 5.71204 8.88661 5.4511 8.89484C5.18954 8.90244 4.97167 8.99333 4.7975 9.16749C4.62334 9.34166 4.53625 9.56333 4.53625 9.83249C4.53625 10.1017 4.62334 10.3233 4.7975 10.4975L7.505 13.205C7.67917 13.3792 7.90084 13.4662 8.17001 13.4662C8.43917 13.4662 8.66084 13.3792 8.835 13.205L14.2263 7.81375C14.4004 7.63958 14.4837 7.42171 14.4761 7.16014C14.4679 6.89921 14.3767 6.68166 14.2025 6.5075C14.0283 6.33333 13.8067 6.24624 13.5375 6.24624C13.2683 6.24624 13.0467 6.33333 12.8725 6.5075L8.17001 11.21Z" fill="#1B1B1B"/>
</svg>
