<svg width="20" height="20" viewBox="0 0 20 20" fill="none" xmlns="http://www.w3.org/2000/svg">
<path d="M8.67 11.71L6.60375 9.64375C6.42958 9.46958 6.21203 9.38662 5.9511 9.39485C5.68953 9.40245 5.47167 9.49333 5.2975 9.6675C5.12333 9.84167 5.03625 10.0633 5.03625 10.3325C5.03625 10.6017 5.12333 10.8233 5.2975 10.9975L8.005 13.705C8.17917 13.8792 8.40083 13.9662 8.67 13.9662C8.93917 13.9662 9.16083 13.8792 9.335 13.705L14.7263 8.31375C14.9004 8.13958 14.9837 7.92172 14.9761 7.66015C14.9679 7.39922 14.8767 7.18167 14.7025 7.0075C14.5283 6.83333 14.3067 6.74625 14.0375 6.74625C13.7683 6.74625 13.5467 6.83333 13.3725 7.0075L8.67 11.71ZM10 19.5C8.68583 19.5 7.45083 19.2505 6.295 18.7514C5.13917 18.253 4.13375 17.5763 3.27875 16.7213C2.42375 15.8663 1.74703 14.8608 1.2486 13.705C0.749533 12.5492 0.5 11.3142 0.5 10C0.5 8.68583 0.749533 7.45083 1.2486 6.295C1.74703 5.13917 2.42375 4.13375 3.27875 3.27875C4.13375 2.42375 5.13917 1.74672 6.295 1.24765C7.45083 0.749217 8.68583 0.5 10 0.5C11.3142 0.5 12.5492 0.749217 13.705 1.24765C14.8608 1.74672 15.8663 2.42375 16.7213 3.27875C17.5763 4.13375 18.253 5.13917 18.7514 6.295C19.2505 7.45083 19.5 8.68583 19.5 10C19.5 11.3142 19.2505 12.5492 18.7514 13.705C18.253 14.8608 17.5763 15.8663 16.7213 16.7213C15.8663 17.5763 14.8608 18.253 13.705 18.7514C12.5492 19.2505 11.3142 19.5 10 19.5ZM10 17.6C12.1058 17.6 13.8991 16.86 15.3799 15.3799C16.86 13.8991 17.6 12.1058 17.6 10C17.6 7.89417 16.86 6.10088 15.3799 4.62015C13.8991 3.14005 12.1058 2.4 10 2.4C7.89417 2.4 6.1012 3.14005 4.6211 4.62015C3.14037 6.10088 2.4 7.89417 2.4 10C2.4 12.1058 3.14037 13.8991 4.6211 15.3799C6.1012 16.86 7.89417 17.6 10 17.6Z" fill="white"/>
</svg>
