<svg width="240" height="107" viewBox="0 0 240 107" fill="none" xmlns="http://www.w3.org/2000/svg">
<path d="M20.416 102.358L23.872 92.3098H25.392L28.768 102.358H27.456L26.608 99.7818H22.608L21.728 102.358H20.416ZM22.928 98.8058H26.288L24.608 93.8298L22.928 98.8058ZM38.0724 102.55C37.5124 102.55 37.0244 102.422 36.6084 102.166C36.1977 101.91 35.8804 101.536 35.6564 101.046C35.4324 100.55 35.3204 99.9471 35.3204 99.2378H35.8484C35.8484 99.7125 35.947 100.112 36.1444 100.438C36.3417 100.763 36.5977 101.011 36.9124 101.182C37.2324 101.347 37.571 101.43 37.9284 101.43C38.3124 101.43 38.6804 101.32 39.0324 101.102C39.3844 100.878 39.6724 100.55 39.8964 100.118C40.1204 99.6858 40.2324 99.1525 40.2324 98.5178C40.2324 97.9098 40.1284 97.3898 39.9204 96.9578C39.7177 96.5258 39.443 96.1951 39.0964 95.9658C38.7497 95.7365 38.3657 95.6218 37.9444 95.6218C37.5817 95.6218 37.2404 95.7098 36.9204 95.8858C36.6004 96.0618 36.3417 96.3205 36.1444 96.6618C35.947 96.9978 35.8484 97.4138 35.8484 97.9098H35.3204C35.3204 97.1685 35.443 96.5471 35.6884 96.0458C35.9337 95.5391 36.267 95.1578 36.6884 94.9018C37.1097 94.6458 37.5817 94.5178 38.1044 94.5178C38.7017 94.5178 39.259 94.6778 39.7764 94.9978C40.2937 95.3178 40.7124 95.7765 41.0324 96.3738C41.3524 96.9711 41.5124 97.6858 41.5124 98.5178C41.5124 99.3605 41.3497 100.083 41.0244 100.686C40.7044 101.288 40.283 101.75 39.7604 102.07C39.2377 102.39 38.675 102.55 38.0724 102.55ZM34.6004 106.118V94.7098H35.6404L35.8484 96.5018V106.118H34.6004ZM43.9598 102.358V91.4458H45.2078V102.358H43.9598ZM53.1801 102.358L53.0201 100.678V97.3978C53.0201 96.7098 52.8735 96.2165 52.5801 95.9178C52.2868 95.6138 51.8468 95.4618 51.2601 95.4618C50.9295 95.4618 50.6281 95.5098 50.3561 95.6058C50.0895 95.7018 49.8761 95.8511 49.7161 96.0538C49.5615 96.2511 49.4841 96.5071 49.4841 96.8218H48.0921C48.0921 96.2671 48.2281 95.8218 48.5001 95.4858C48.7721 95.1445 49.1455 94.8991 49.6201 94.7498C50.1001 94.5951 50.6468 94.5178 51.2601 94.5178C51.8468 94.5178 52.3668 94.6165 52.8201 94.8138C53.2735 95.0111 53.6281 95.3258 53.8841 95.7578C54.1401 96.1845 54.2681 96.7418 54.2681 97.4298V102.358H53.1801ZM50.5721 102.55C49.9428 102.55 49.4228 102.438 49.0121 102.214C48.6015 101.99 48.2948 101.699 48.0921 101.342C47.8895 100.984 47.7881 100.608 47.7881 100.214C47.7881 99.6965 47.9161 99.2751 48.1721 98.9498C48.4335 98.6245 48.7881 98.3871 49.2361 98.2378C49.6841 98.0831 50.1881 98.0058 50.7481 98.0058C51.1481 98.0058 51.5481 98.0458 51.9481 98.1258C52.3535 98.2058 52.7481 98.3151 53.1321 98.4538V99.2378C52.8121 99.1098 52.4495 99.0085 52.0441 98.9338C51.6441 98.8591 51.2761 98.8218 50.9401 98.8218C50.4281 98.8218 49.9961 98.9285 49.6441 99.1418C49.2921 99.3498 49.1161 99.7071 49.1161 100.214C49.1161 100.587 49.2495 100.907 49.5161 101.174C49.7881 101.44 50.2201 101.574 50.8121 101.574C51.2281 101.574 51.6015 101.478 51.9321 101.286C52.2681 101.088 52.5321 100.843 52.7241 100.55C52.9215 100.256 53.0201 99.9631 53.0201 99.6698H53.3241C53.3241 100.182 53.2121 100.656 52.9881 101.094C52.7695 101.531 52.4548 101.883 52.0441 102.15C51.6335 102.416 51.1428 102.55 50.5721 102.55ZM59.6086 102.55C59.1926 102.55 58.8193 102.47 58.4886 102.31C58.158 102.15 57.8966 101.91 57.7046 101.59C57.5126 101.27 57.4166 100.87 57.4166 100.39V92.5818H58.6486V100.358C58.6486 101.147 59.0166 101.542 59.7526 101.542C59.9713 101.542 60.182 101.518 60.3846 101.47C60.5926 101.422 60.8246 101.35 61.0806 101.254L61.2566 102.15C60.9846 102.267 60.7126 102.363 60.4406 102.438C60.174 102.512 59.8966 102.55 59.6086 102.55ZM56.1846 95.5738V94.7098H61.0646V95.5738H56.1846ZM63.6883 102.358V93.5258C63.6883 93.0191 63.7843 92.6058 63.9763 92.2858C64.1736 91.9605 64.4349 91.7205 64.7603 91.5658C65.0909 91.4111 65.4589 91.3338 65.8643 91.3338C66.0829 91.3338 66.3043 91.3498 66.5283 91.3818C66.7576 91.4138 66.9843 91.4618 67.2083 91.5258L66.9683 92.5178C66.8083 92.4538 66.6483 92.4058 66.4883 92.3738C66.3336 92.3418 66.1843 92.3258 66.0403 92.3258C65.8696 92.3258 65.6989 92.3578 65.5283 92.4218C65.3576 92.4858 65.2163 92.6058 65.1043 92.7818C64.9923 92.9578 64.9363 93.2111 64.9363 93.5418V102.358H63.6883ZM62.4403 95.5738V94.7098H66.5203V95.5738H62.4403ZM71.5246 102.55C70.8366 102.55 70.2233 102.398 69.6846 102.094C69.1513 101.79 68.73 101.339 68.4206 100.742C68.1113 100.144 67.9566 99.4085 67.9566 98.5338C67.9566 97.6538 68.1113 96.9178 68.4206 96.3258C68.73 95.7285 69.1513 95.2778 69.6846 94.9738C70.2233 94.6698 70.8366 94.5178 71.5246 94.5178C72.2073 94.5178 72.8153 94.6698 73.3486 94.9738C73.8873 95.2778 74.3086 95.7285 74.6126 96.3258C74.922 96.9178 75.0766 97.6538 75.0766 98.5338C75.0766 99.4085 74.922 100.144 74.6126 100.742C74.3086 101.339 73.8873 101.79 73.3486 102.094C72.8153 102.398 72.2073 102.55 71.5246 102.55ZM71.4926 101.462C71.9886 101.462 72.41 101.344 72.7566 101.11C73.1033 100.87 73.3646 100.531 73.5406 100.094C73.722 99.6565 73.8126 99.1365 73.8126 98.5338C73.8126 97.6218 73.6233 96.9045 73.2446 96.3818C72.866 95.8538 72.3033 95.5898 71.5566 95.5898C71.0553 95.5898 70.6313 95.7098 70.2846 95.9498C69.9433 96.1845 69.682 96.5231 69.5006 96.9658C69.3246 97.4031 69.2366 97.9258 69.2366 98.5338C69.2366 99.4351 69.426 100.15 69.8046 100.678C70.1886 101.2 70.7513 101.462 71.4926 101.462ZM77.5066 102.358V94.6938H78.7546V102.358H77.5066ZM78.3706 98.9018C78.3706 97.9311 78.464 97.1258 78.6506 96.4858C78.8373 95.8405 79.1093 95.3605 79.4666 95.0458C79.8293 94.7258 80.2693 94.5658 80.7866 94.5658C80.9573 94.5658 81.112 94.5791 81.2506 94.6058C81.3946 94.6271 81.5386 94.6618 81.6826 94.7098L81.6026 95.9418C81.4533 95.8938 81.2906 95.8538 81.1146 95.8218C80.9386 95.7845 80.7813 95.7658 80.6426 95.7658C80.1893 95.7658 79.824 95.8965 79.5466 96.1578C79.2693 96.4138 79.0666 96.7765 78.9386 97.2458C78.816 97.7151 78.7546 98.2671 78.7546 98.9018H78.3706ZM94.0399 102.358V97.8618C94.0399 97.1311 93.8639 96.5765 93.5119 96.1978C93.1652 95.8138 92.6959 95.6218 92.1039 95.6218C91.4105 95.6218 90.8799 95.8911 90.5119 96.4298C90.1439 96.9631 89.9599 97.7018 89.9599 98.6458H89.3839C89.3839 97.9578 89.4505 97.3551 89.5839 96.8378C89.7225 96.3205 89.9225 95.8911 90.1839 95.5498C90.4452 95.2031 90.7625 94.9445 91.1359 94.7738C91.5092 94.6031 91.9332 94.5178 92.4079 94.5178C93.0105 94.5178 93.5252 94.6538 93.9519 94.9258C94.3839 95.1925 94.7145 95.5765 94.9439 96.0778C95.1732 96.5791 95.2879 97.1738 95.2879 97.8618V102.358H94.0399ZM83.2879 102.358V94.7098H84.3599L84.5039 96.2458C84.7439 95.6911 85.0799 95.2645 85.5119 94.9658C85.9492 94.6671 86.4719 94.5178 87.0799 94.5178C87.6825 94.5178 88.1972 94.6538 88.6239 94.9258C89.0559 95.1925 89.3865 95.5765 89.6159 96.0778C89.8452 96.5791 89.9599 97.1738 89.9599 97.8618V102.358H88.7279V97.8618C88.7279 97.1311 88.5519 96.5765 88.1999 96.1978C87.8532 95.8138 87.3785 95.6218 86.7759 95.6218C86.3172 95.6218 85.9199 95.7471 85.5839 95.9978C85.2479 96.2485 84.9892 96.6085 84.8079 97.0778C84.6265 97.5418 84.5359 98.0965 84.5359 98.7418V102.358H83.2879ZM105.558 102.55C105.046 102.55 104.582 102.416 104.166 102.15C103.755 101.883 103.427 101.494 103.182 100.982C102.942 100.464 102.822 99.8351 102.822 99.0938H103.302C103.302 99.5898 103.403 100.014 103.606 100.366C103.814 100.712 104.08 100.976 104.406 101.158C104.731 101.339 105.072 101.43 105.43 101.43C105.84 101.43 106.216 101.312 106.558 101.078C106.899 100.843 107.171 100.507 107.374 100.07C107.582 99.6325 107.686 99.1098 107.686 98.5018C107.686 97.9045 107.584 97.3925 107.382 96.9658C107.179 96.5338 106.904 96.2031 106.558 95.9738C106.216 95.7391 105.835 95.6218 105.414 95.6218C105.051 95.6218 104.707 95.7125 104.382 95.8938C104.062 96.0698 103.8 96.3311 103.598 96.6778C103.4 97.0245 103.302 97.4511 103.302 97.9578H102.822C102.822 97.2325 102.939 96.6138 103.174 96.1018C103.414 95.5898 103.744 95.1978 104.166 94.9258C104.587 94.6538 105.078 94.5178 105.638 94.5178C106.24 94.5178 106.792 94.6805 107.294 95.0058C107.8 95.3258 108.206 95.7845 108.51 96.3818C108.814 96.9791 108.966 97.6858 108.966 98.5018C108.966 99.3231 108.811 100.038 108.502 100.646C108.192 101.248 107.779 101.718 107.262 102.054C106.744 102.384 106.176 102.55 105.558 102.55ZM102.054 102.358V91.4458H103.302V100.566L102.934 102.358H102.054ZM116.738 94.6938H117.986V102.358H116.738V94.6938ZM111.314 94.6938H112.562V99.4618C112.562 100.102 112.717 100.587 113.026 100.918C113.341 101.248 113.789 101.414 114.37 101.414C114.85 101.414 115.266 101.286 115.618 101.03C115.975 100.774 116.25 100.422 116.442 99.9738C116.639 99.5205 116.738 99.0031 116.738 98.4218H117.202C117.202 99.2805 117.077 100.014 116.826 100.622C116.581 101.23 116.231 101.696 115.778 102.022C115.33 102.342 114.802 102.502 114.194 102.502C113.618 102.502 113.114 102.395 112.682 102.182C112.25 101.968 111.914 101.646 111.674 101.214C111.434 100.776 111.314 100.224 111.314 99.5578V94.6938ZM121.929 92.9018C121.673 92.9018 121.471 92.8298 121.321 92.6858C121.172 92.5365 121.097 92.3418 121.097 92.1018C121.097 91.8671 121.172 91.6805 121.321 91.5418C121.471 91.4031 121.673 91.3338 121.929 91.3338C122.185 91.3338 122.388 91.4031 122.537 91.5418C122.687 91.6805 122.761 91.8671 122.761 92.1018C122.761 92.3418 122.687 92.5365 122.537 92.6858C122.388 92.8298 122.185 92.9018 121.929 92.9018ZM121.305 102.358V94.6938H122.553V102.358H121.305ZM125.991 102.358V91.4458H127.239V102.358H125.991ZM132.827 102.55C132.411 102.55 132.038 102.47 131.707 102.31C131.377 102.15 131.115 101.91 130.923 101.59C130.731 101.27 130.635 100.87 130.635 100.39V92.5818H131.867V100.358C131.867 101.147 132.235 101.542 132.971 101.542C133.19 101.542 133.401 101.518 133.603 101.47C133.811 101.422 134.043 101.35 134.299 101.254L134.475 102.15C134.203 102.267 133.931 102.363 133.659 102.438C133.393 102.512 133.115 102.55 132.827 102.55ZM129.403 95.5738V94.7098H134.283V95.5738H129.403ZM140.704 102.358V93.5258C140.704 93.0191 140.8 92.6058 140.992 92.2858C141.189 91.9605 141.451 91.7205 141.776 91.5658C142.107 91.4111 142.475 91.3338 142.88 91.3338C143.099 91.3338 143.32 91.3498 143.544 91.3818C143.773 91.4138 144 91.4618 144.224 91.5258L143.984 92.5178C143.824 92.4538 143.664 92.4058 143.504 92.3738C143.349 92.3418 143.2 92.3258 143.056 92.3258C142.885 92.3258 142.715 92.3578 142.544 92.4218C142.373 92.4858 142.232 92.6058 142.12 92.7818C142.008 92.9578 141.952 93.2111 141.952 93.5418V102.358H140.704ZM139.456 95.5738V94.7098H143.536V95.5738H139.456ZM148.54 102.55C147.852 102.55 147.239 102.398 146.7 102.094C146.167 101.79 145.746 101.339 145.436 100.742C145.127 100.144 144.972 99.4085 144.972 98.5338C144.972 97.6538 145.127 96.9178 145.436 96.3258C145.746 95.7285 146.167 95.2778 146.7 94.9738C147.239 94.6698 147.852 94.5178 148.54 94.5178C149.223 94.5178 149.831 94.6698 150.364 94.9738C150.903 95.2778 151.324 95.7285 151.628 96.3258C151.938 96.9178 152.092 97.6538 152.092 98.5338C152.092 99.4085 151.938 100.144 151.628 100.742C151.324 101.339 150.903 101.79 150.364 102.094C149.831 102.398 149.223 102.55 148.54 102.55ZM148.508 101.462C149.004 101.462 149.426 101.344 149.772 101.11C150.119 100.87 150.38 100.531 150.556 100.094C150.738 99.6565 150.828 99.1365 150.828 98.5338C150.828 97.6218 150.639 96.9045 150.26 96.3818C149.882 95.8538 149.319 95.5898 148.572 95.5898C148.071 95.5898 147.647 95.7098 147.3 95.9498C146.959 96.1845 146.698 96.5231 146.516 96.9658C146.34 97.4031 146.252 97.9258 146.252 98.5338C146.252 99.4351 146.442 100.15 146.82 100.678C147.204 101.2 147.767 101.462 148.508 101.462ZM154.522 102.358V94.6938H155.77V102.358H154.522ZM155.386 98.9018C155.386 97.9311 155.48 97.1258 155.666 96.4858C155.853 95.8405 156.125 95.3605 156.482 95.0458C156.845 94.7258 157.285 94.5658 157.802 94.5658C157.973 94.5658 158.128 94.5791 158.266 94.6058C158.41 94.6271 158.554 94.6618 158.698 94.7098L158.618 95.9418C158.469 95.8938 158.306 95.8538 158.13 95.8218C157.954 95.7845 157.797 95.7658 157.658 95.7658C157.205 95.7658 156.84 95.8965 156.562 96.1578C156.285 96.4138 156.082 96.7765 155.954 97.2458C155.832 97.7151 155.77 98.2671 155.77 98.9018H155.386ZM167.572 102.55C167.012 102.55 166.524 102.422 166.108 102.166C165.698 101.91 165.38 101.536 165.156 101.046C164.932 100.55 164.82 99.9471 164.82 99.2378H165.348C165.348 99.7125 165.447 100.112 165.644 100.438C165.842 100.763 166.098 101.011 166.412 101.182C166.732 101.347 167.071 101.43 167.428 101.43C167.812 101.43 168.18 101.32 168.532 101.102C168.884 100.878 169.172 100.55 169.396 100.118C169.62 99.6858 169.732 99.1525 169.732 98.5178C169.732 97.9098 169.628 97.3898 169.42 96.9578C169.218 96.5258 168.943 96.1951 168.596 95.9658C168.25 95.7365 167.866 95.6218 167.444 95.6218C167.082 95.6218 166.74 95.7098 166.42 95.8858C166.1 96.0618 165.842 96.3205 165.644 96.6618C165.447 96.9978 165.348 97.4138 165.348 97.9098H164.82C164.82 97.1685 164.943 96.5471 165.188 96.0458C165.434 95.5391 165.767 95.1578 166.188 94.9018C166.61 94.6458 167.082 94.5178 167.604 94.5178C168.202 94.5178 168.759 94.6778 169.276 94.9978C169.794 95.3178 170.212 95.7765 170.532 96.3738C170.852 96.9711 171.012 97.6858 171.012 98.5178C171.012 99.3605 170.85 100.083 170.524 100.686C170.204 101.288 169.783 101.75 169.26 102.07C168.738 102.39 168.175 102.55 167.572 102.55ZM164.1 106.118V94.7098H165.14L165.348 96.5018V106.118H164.1ZM176.116 102.55C175.454 102.55 174.862 102.382 174.34 102.046C173.822 101.704 173.412 101.232 173.108 100.63C172.809 100.027 172.66 99.3338 172.66 98.5498C172.66 97.7125 172.809 96.9925 173.108 96.3898C173.406 95.7871 173.814 95.3258 174.332 95.0058C174.854 94.6805 175.449 94.5178 176.116 94.5178C176.697 94.5178 177.193 94.6351 177.604 94.8698C178.014 95.1045 178.345 95.4218 178.596 95.8218C178.846 96.2218 179.02 96.6751 179.116 97.1818C179.217 97.6831 179.246 98.2031 179.204 98.7418H173.668V97.9738H178.38L178.012 98.2138C178.028 97.8991 178.009 97.5845 177.956 97.2698C177.908 96.9551 177.814 96.6671 177.676 96.4058C177.537 96.1391 177.342 95.9258 177.092 95.7658C176.841 95.6058 176.521 95.5258 176.132 95.5258C175.641 95.5258 175.23 95.6511 174.9 95.9018C174.569 96.1525 174.321 96.4831 174.156 96.8938C173.99 97.2991 173.908 97.7391 173.908 98.2138V98.7258C173.908 99.2591 173.988 99.7365 174.148 100.158C174.313 100.579 174.558 100.912 174.884 101.158C175.209 101.403 175.62 101.526 176.116 101.526C176.612 101.526 177.02 101.406 177.34 101.166C177.66 100.926 177.854 100.571 177.924 100.102H179.22C179.14 100.608 178.958 101.046 178.676 101.414C178.393 101.776 178.033 102.056 177.596 102.254C177.158 102.451 176.665 102.55 176.116 102.55ZM184.031 102.55C183.615 102.55 183.241 102.47 182.911 102.31C182.58 102.15 182.319 101.91 182.127 101.59C181.935 101.27 181.839 100.87 181.839 100.39V92.5818H183.071V100.358C183.071 101.147 183.439 101.542 184.174 101.542C184.393 101.542 184.604 101.518 184.807 101.47C185.015 101.422 185.247 101.35 185.503 101.254L185.679 102.15C185.407 102.267 185.135 102.363 184.863 102.438C184.596 102.512 184.319 102.55 184.031 102.55ZM180.607 95.5738V94.7098H185.487V95.5738H180.607ZM194.179 102.55C193.566 102.55 192.992 102.384 192.459 102.054C191.931 101.723 191.504 101.256 191.179 100.654C190.854 100.051 190.691 99.3391 190.691 98.5178C190.691 97.6751 190.854 96.9551 191.179 96.3578C191.504 95.7605 191.931 95.3045 192.459 94.9898C192.992 94.6751 193.566 94.5178 194.179 94.5178C194.611 94.5178 194.998 94.5845 195.339 94.7178C195.686 94.8458 195.987 95.0245 196.243 95.2538C196.499 95.4831 196.71 95.7445 196.875 96.0378C197.046 96.3258 197.171 96.6298 197.251 96.9498L195.971 97.0618C195.838 96.6191 195.614 96.2698 195.299 96.0138C194.99 95.7525 194.611 95.6218 194.163 95.6218C193.784 95.6218 193.427 95.7311 193.091 95.9498C192.76 96.1631 192.491 96.4858 192.283 96.9178C192.075 97.3445 191.971 97.8778 191.971 98.5178C191.971 99.1098 192.064 99.6245 192.251 100.062C192.443 100.494 192.704 100.83 193.035 101.07C193.366 101.31 193.742 101.43 194.163 101.43C194.755 101.43 195.203 101.286 195.507 100.998C195.816 100.704 195.971 100.299 195.971 99.7818H197.251C197.251 100.315 197.126 100.79 196.875 101.206C196.624 101.622 196.267 101.95 195.803 102.19C195.344 102.43 194.803 102.55 194.179 102.55ZM204.477 102.358L204.317 100.678V97.3978C204.317 96.7098 204.17 96.2165 203.877 95.9178C203.584 95.6138 203.144 95.4618 202.557 95.4618C202.226 95.4618 201.925 95.5098 201.653 95.6058C201.386 95.7018 201.173 95.8511 201.013 96.0538C200.858 96.2511 200.781 96.5071 200.781 96.8218H199.389C199.389 96.2671 199.525 95.8218 199.797 95.4858C200.069 95.1445 200.442 94.8991 200.917 94.7498C201.397 94.5951 201.944 94.5178 202.557 94.5178C203.144 94.5178 203.664 94.6165 204.117 94.8138C204.57 95.0111 204.925 95.3258 205.181 95.7578C205.437 96.1845 205.565 96.7418 205.565 97.4298V102.358H204.477ZM201.869 102.55C201.24 102.55 200.72 102.438 200.309 102.214C199.898 101.99 199.592 101.699 199.389 101.342C199.186 100.984 199.085 100.608 199.085 100.214C199.085 99.6965 199.213 99.2751 199.469 98.9498C199.73 98.6245 200.085 98.3871 200.533 98.2378C200.981 98.0831 201.485 98.0058 202.045 98.0058C202.445 98.0058 202.845 98.0458 203.245 98.1258C203.65 98.2058 204.045 98.3151 204.429 98.4538V99.2378C204.109 99.1098 203.746 99.0085 203.341 98.9338C202.941 98.8591 202.573 98.8218 202.237 98.8218C201.725 98.8218 201.293 98.9285 200.941 99.1418C200.589 99.3498 200.413 99.7071 200.413 100.214C200.413 100.587 200.546 100.907 200.813 101.174C201.085 101.44 201.517 101.574 202.109 101.574C202.525 101.574 202.898 101.478 203.229 101.286C203.565 101.088 203.829 100.843 204.021 100.55C204.218 100.256 204.317 99.9631 204.317 99.6698H204.621C204.621 100.182 204.509 100.656 204.285 101.094C204.066 101.531 203.752 101.883 203.341 102.15C202.93 102.416 202.44 102.55 201.869 102.55ZM208.554 102.358V94.6938H209.802V102.358H208.554ZM209.418 98.9018C209.418 97.9311 209.511 97.1258 209.698 96.4858C209.884 95.8405 210.156 95.3605 210.514 95.0458C210.876 94.7258 211.316 94.5658 211.834 94.5658C212.004 94.5658 212.159 94.5791 212.298 94.6058C212.442 94.6271 212.586 94.6618 212.73 94.7098L212.65 95.9418C212.5 95.8938 212.338 95.8538 212.162 95.8218C211.986 95.7845 211.828 95.7658 211.69 95.7658C211.236 95.7658 210.871 95.8965 210.594 96.1578C210.316 96.4138 210.114 96.7765 209.986 97.2458C209.863 97.7151 209.802 98.2671 209.802 98.9018H209.418ZM216.991 102.55C216.329 102.55 215.737 102.382 215.215 102.046C214.697 101.704 214.287 101.232 213.983 100.63C213.684 100.027 213.535 99.3338 213.535 98.5498C213.535 97.7125 213.684 96.9925 213.983 96.3898C214.281 95.7871 214.689 95.3258 215.207 95.0058C215.729 94.6805 216.324 94.5178 216.991 94.5178C217.572 94.5178 218.068 94.6351 218.479 94.8698C218.889 95.1045 219.22 95.4218 219.471 95.8218C219.721 96.2218 219.895 96.6751 219.991 97.1818C220.092 97.6831 220.121 98.2031 220.079 98.7418H214.543V97.9738H219.255L218.887 98.2138C218.903 97.8991 218.884 97.5845 218.831 97.2698C218.783 96.9551 218.689 96.6671 218.551 96.4058C218.412 96.1391 218.217 95.9258 217.967 95.7658C217.716 95.6058 217.396 95.5258 217.007 95.5258C216.516 95.5258 216.105 95.6511 215.775 95.9018C215.444 96.1525 215.196 96.4831 215.031 96.8938C214.865 97.2991 214.783 97.7391 214.783 98.2138V98.7258C214.783 99.2591 214.863 99.7365 215.023 100.158C215.188 100.579 215.433 100.912 215.759 101.158C216.084 101.403 216.495 101.526 216.991 101.526C217.487 101.526 217.895 101.406 218.215 101.166C218.535 100.926 218.729 100.571 218.799 100.102H220.095C220.015 100.608 219.833 101.046 219.551 101.414C219.268 101.776 218.908 102.056 218.471 102.254C218.033 102.451 217.54 102.55 216.991 102.55Z" fill="white"/>
<path d="M35.5638 16.9492C32.5184 15.2849 28.9855 14.4534 24.9666 14.4534C22.2047 14.4534 19.6085 15.088 17.181 16.3571C14.7521 17.6263 12.6987 19.3827 11.0223 21.6249C9.34583 23.8686 8.22348 26.3941 7.65664 29.2043H7.36046L8.13704 15.673H0V67.3578H7.80402V51.3859C7.80402 49.7839 7.65664 47.553 7.36046 44.6946L7.21308 43.1054H7.50926C8.14979 45.2994 9.33449 47.2768 11.0605 49.0389C12.7866 50.8009 14.8768 52.1876 17.3298 53.1976C19.7828 54.2075 22.3662 54.7132 25.0786 54.7132C29.1712 54.7132 32.7281 53.9058 35.7494 52.291C38.7693 50.6763 41.0947 48.3604 42.7216 45.3405C44.3484 42.3221 45.1632 38.754 45.1632 34.6378C45.1632 30.5216 44.3243 27.0527 42.6479 24.0088C40.9714 20.9648 38.6105 18.6107 35.5652 16.9478L35.5638 16.9492ZM35.5638 41.1648C34.3436 43.0005 32.6105 44.4127 30.3672 45.3986C28.1225 46.3844 25.5335 46.8774 22.6 46.8774C19.6666 46.8774 16.9033 46.3788 14.6841 45.3802C12.4649 44.3816 10.7686 42.958 9.59807 41.1096C8.42613 39.2611 7.84086 37.067 7.84086 34.5288C7.84086 31.9905 8.43321 29.8403 9.6165 28.0032C10.7998 26.1675 12.5017 24.7567 14.7209 23.7694C16.9401 22.7836 19.5901 22.2906 22.6737 22.2906C25.7574 22.2906 28.1849 22.7892 30.4041 23.7878C32.6233 24.7864 34.3436 26.2156 35.5638 28.0768C36.7839 29.938 37.3947 32.1378 37.3947 34.6761C37.3947 37.2143 36.7839 39.3291 35.5638 41.1648Z" fill="white"/>
<path d="M89.5385 29.2794C89.5385 26.3715 88.6996 23.7893 87.0232 21.5343C85.3467 19.2793 83.0652 17.5286 80.1799 16.2849C77.2947 15.0399 74.1133 14.418 70.6371 14.418C66.519 14.418 62.826 15.2127 59.5596 16.8033C56.2917 18.3926 53.7282 20.6858 51.8661 23.6802C50.004 26.6746 49.073 30.2185 49.073 34.3092C49.073 38.3999 49.9233 42.0176 51.6252 45.0856C53.3272 48.1536 55.7802 50.5262 58.9857 52.2018C62.1912 53.8775 66.0004 54.716 70.4146 54.716C73.8922 54.716 76.9674 54.1551 79.6429 53.0333C82.3184 51.9114 84.427 50.3661 85.9674 48.393C87.5078 46.4213 88.402 44.2031 88.6486 41.7385L83.1375 39.594C82.7676 42.1819 81.4667 44.1536 79.2347 45.5091C77.0028 46.8646 74.1615 47.5431 70.7094 47.5431C67.7746 47.5431 65.2408 47.019 63.108 45.9723C60.9753 44.9255 59.3286 43.4467 58.1708 41.5359C57.0116 39.6266 56.3711 37.39 56.2478 34.8262H88.5381C89.2041 32.9778 89.5371 31.1293 89.5371 29.2808L89.5385 29.2794ZM82.0293 32.6067H56.2492C56.4462 30.2908 57.1491 28.2752 58.3579 26.5613C59.5653 24.8488 61.2176 23.5357 63.3149 22.6235C65.4108 21.7113 67.8525 21.2552 70.6386 21.2552C72.9555 21.2552 75.0089 21.6306 76.7973 22.3827C78.5843 23.1349 79.9716 24.176 80.9579 25.5074C81.9442 26.8389 82.4374 28.3304 82.4374 29.9806C82.4374 30.7936 82.3014 31.669 82.0307 32.6052L82.0293 32.6067Z" fill="white"/>
<path d="M122.209 40.3702C122.579 45.1522 120.26 47.5431 115.255 47.5431C112.863 47.5431 111.057 46.8037 109.836 45.325C108.616 43.8462 108.005 41.468 108.005 38.1889V22.9932H122.542V15.673H106.268V15.1929C106.81 14.7991 107.199 14.2679 107.432 13.6036C107.666 12.9379 107.821 11.884 107.894 10.4421C107.968 9.00015 108.005 6.71401 108.005 3.58365H101.532V11.1631C101.532 12.741 101.217 13.8869 100.588 14.6008C99.9587 15.3161 98.8434 15.673 97.2406 15.673H92.0994V22.9932H100.236V38.5954C100.236 43.8448 101.333 47.8378 103.528 50.5743C105.723 53.3095 109.273 54.6778 114.181 54.6778C117.213 54.6778 119.76 54.1537 121.819 53.107C123.878 52.0602 125.413 50.648 126.425 48.8732C127.435 47.0984 127.941 45.0898 127.941 42.8476C127.941 42.0346 127.891 41.2952 127.793 40.6294L122.209 40.3702Z" fill="white"/>
<path d="M170.243 15.6744H159.517C154.659 20.2595 150.942 23.8757 148.366 26.5258C145.789 29.176 143.951 31.2398 142.854 32.7185C141.758 34.1973 141.036 35.5047 140.69 36.6379H140.321V0H132.517V53.4596H140.321V39.8546L148.791 33.6435L162.291 53.4596H171.242L153.192 30.2043L170.244 15.6744H170.243Z" fill="white"/>
<path d="M175.423 15.6745V53.4582H183.263V15.6745C181.957 15.9705 180.649 16.1178 179.342 16.1178C178.036 16.1178 176.753 15.9705 175.421 15.6745H175.423Z" fill="white"/>
<path d="M179.343 2.03113C177.469 2.03113 176.026 2.44473 175.016 3.2691C174.004 4.09489 173.499 5.27196 173.499 6.80031C173.499 8.32866 174.004 9.54822 175.016 10.3868C176.026 11.2253 177.469 11.6431 179.343 11.6431C181.218 11.6431 182.659 11.2239 183.671 10.3868C184.682 9.54964 185.188 8.35274 185.188 6.80031C185.188 5.24788 184.682 4.09489 183.671 3.2691C182.659 2.44331 181.217 2.03113 179.343 2.03113Z" fill="white"/>
<path d="M217.618 40.3702C217.988 45.1522 215.67 47.5431 210.665 47.5431C208.273 47.5431 206.467 46.8037 205.246 45.325C204.025 43.8462 203.415 41.468 203.415 38.1889V22.9932H217.951V15.673H201.677V15.1929C202.22 14.7991 202.608 14.2679 202.842 13.6036C203.076 12.9379 203.23 11.884 203.304 10.4421C203.378 9.00015 203.415 6.71401 203.415 3.58365H196.941V11.1631C196.941 12.741 196.627 13.8869 195.998 14.6008C195.368 15.3161 194.253 15.673 192.65 15.673H187.509V22.9932H195.646V38.5954C195.646 43.8448 196.743 47.8378 198.938 50.5743C201.133 53.3095 204.683 54.6778 209.59 54.6778C212.623 54.6778 215.17 54.1537 217.229 53.107C219.288 52.0602 220.822 50.648 221.834 48.8732C222.845 47.0984 223.351 45.0898 223.351 42.8476C223.351 42.0346 223.301 41.2952 223.203 40.6294L217.618 40.3702Z" fill="white"/>
<path d="M238.484 46.23C237.472 45.4042 236.029 44.9921 234.156 44.9921C232.282 44.9921 230.845 45.4057 229.846 46.23C228.847 47.0558 228.348 48.2329 228.348 49.7612C228.348 51.2896 228.847 52.5403 229.846 53.3661C230.845 54.1919 232.281 54.6041 234.156 54.6041C236.031 54.6041 237.503 54.1905 238.502 53.3661C239.501 52.5403 240 51.3392 240 49.7612C240 48.1833 239.494 47.0558 238.484 46.23Z" fill="white"/>
</svg>
