<svg width="14" height="12" viewBox="0 0 14 12" fill="none" xmlns="http://www.w3.org/2000/svg">
<path d="M7 8.91814C6.76979 8.91814 6.57696 8.84417 6.4215 8.69624C6.2655 8.54883 6.1875 8.36597 6.1875 8.14767V2.63884L4.66406 4.08347C4.50156 4.23756 4.31198 4.31461 4.09531 4.31461C3.87865 4.31461 3.68229 4.23114 3.50625 4.06421C3.34375 3.91011 3.26602 3.727 3.27306 3.51486C3.27956 3.30324 3.35729 3.12681 3.50625 2.98555L6.43125 0.211878C6.5125 0.134831 6.60052 0.0801283 6.69531 0.0477687C6.7901 0.0159228 6.89167 0 7 0C7.10833 0 7.2099 0.0159228 7.30469 0.0477687C7.39948 0.0801283 7.4875 0.134831 7.56875 0.211878L10.4937 2.98555C10.6562 3.13965 10.734 3.3225 10.7269 3.53413C10.7204 3.74626 10.6427 3.92295 10.4937 4.06421C10.3312 4.2183 10.1384 4.29843 9.91525 4.30459C9.69154 4.31127 9.49844 4.23756 9.33594 4.08347L7.8125 2.63884V8.14767C7.8125 8.36597 7.73477 8.54883 7.57931 8.69624C7.42331 8.84417 7.23021 8.91814 7 8.91814ZM2.125 12C1.67813 12 1.29571 11.8492 0.97775 11.5477C0.65925 11.2457 0.5 10.8828 0.5 10.4591V8.91814C0.5 8.69984 0.577729 8.51673 0.733188 8.3688C0.889188 8.22138 1.08229 8.14767 1.3125 8.14767C1.54271 8.14767 1.73581 8.22138 1.89181 8.3688C2.04727 8.51673 2.125 8.69984 2.125 8.91814V10.4591H11.875V8.91814C11.875 8.69984 11.953 8.51673 12.109 8.3688C12.2645 8.22138 12.4573 8.14767 12.6875 8.14767C12.9177 8.14767 13.1105 8.22138 13.266 8.3688C13.422 8.51673 13.5 8.69984 13.5 8.91814V10.4591C13.5 10.8828 13.341 11.2457 13.0231 11.5477C12.7046 11.8492 12.3219 12 11.875 12H2.125Z" fill="#5E6073"/>
</svg>
