<svg width="24" height="23" viewBox="0 0 24 23" fill="none" xmlns="http://www.w3.org/2000/svg">
<path d="M22 4L19.5 2L16.5 5L15.5 4L11.5 7.5L6 13.5L5.5 18H9L14 14.5L20 8.5L19 7.5L22 4Z" fill="#B2D3BE"/>
<path d="M17.679 0.252366C17.848 0.0907679 18.077 0 18.3158 0C18.5546 0 18.7836 0.0907679 18.9525 0.252366L23.7582 4.85464C23.9173 5.01822 24.004 5.23458 23.9999 5.45814C23.9957 5.68169 23.9012 5.89499 23.7361 6.0531C23.571 6.2112 23.3483 6.30176 23.1148 6.30571C22.8814 6.30965 22.6555 6.22667 22.4847 6.07424L21.92 5.53347L19.8836 7.47793L22.8511 10.3198C22.9371 10.3995 23.0057 10.4947 23.0529 10.6C23.1001 10.7053 23.1249 10.8186 23.1258 10.9332C23.1268 11.0477 23.104 11.1614 23.0586 11.2674C23.0133 11.3734 22.9463 11.4697 22.8617 11.5507C22.777 11.6317 22.6764 11.6957 22.5656 11.7391C22.4549 11.7824 22.3362 11.8042 22.2166 11.8031C22.0969 11.8021 21.9787 11.7782 21.8688 11.733C21.7589 11.6877 21.6595 11.6219 21.5764 11.5394L19.8103 9.84811L11.5915 17.7203C10.7467 18.5291 9.60113 18.9835 8.40659 18.9836H5.46795L1.52734 22.7575C1.35747 22.9147 1.12991 23.0018 0.893653 23C0.657397 22.9981 0.431356 22.9075 0.264213 22.7475C0.0970709 22.5876 0.00220145 22.3712 3.78322e-05 22.145C-0.00212579 21.9187 0.0885897 21.7007 0.252646 21.5379L4.19326 17.764V14.9486C4.19315 14.3819 4.30959 13.8208 4.53593 13.2973C4.76227 12.7737 5.09408 12.298 5.5124 11.8973L6.55883 10.8963L6.56003 10.894L8.96284 8.59399L11.3645 6.29285L11.3669 6.2917L13.73 4.02623L11.964 2.33489C11.7999 2.17207 11.7092 1.95405 11.7113 1.7278C11.7135 1.50154 11.8084 1.28515 11.9755 1.12523C12.1427 0.965311 12.3687 0.874659 12.605 0.872801C12.8412 0.870942 13.0688 0.958025 13.2387 1.11529L16.2061 3.9572L18.2413 2.01274L17.6766 1.47197C17.5079 1.31017 17.4131 1.09084 17.4131 0.862167C17.4131 0.633491 17.5079 0.414165 17.6766 0.252366H17.679ZM12.0024 8.12225L10.8731 9.20379L11.7381 10.0322C11.8266 10.1112 11.8976 10.2065 11.9469 10.3123C11.9961 10.4182 12.0226 10.5324 12.0247 10.6483C12.0269 10.7642 12.0046 10.8793 11.9593 10.9867C11.914 11.0942 11.8465 11.1918 11.761 11.2737C11.6754 11.3556 11.5735 11.4202 11.4613 11.4636C11.3491 11.507 11.2289 11.5284 11.1079 11.5263C10.9869 11.5243 10.8676 11.4989 10.7571 11.4517C10.6466 11.4046 10.5471 11.3366 10.4646 11.2518L9.59959 10.4234L8.47027 11.5049L9.33528 12.3333C9.42381 12.4123 9.49481 12.5076 9.54406 12.6135C9.59331 12.7193 9.61979 12.8336 9.62193 12.9494C9.62406 13.0653 9.6018 13.1804 9.55649 13.2878C9.51117 13.3953 9.44371 13.4929 9.35815 13.5748C9.27259 13.6568 9.17067 13.7214 9.05847 13.7648C8.94628 13.8082 8.8261 13.8295 8.70512 13.8275C8.58413 13.8254 8.46481 13.8 8.35429 13.7529C8.24376 13.7057 8.14428 13.6377 8.06179 13.5529L7.19678 12.7245L6.7871 13.118C6.28045 13.6032 5.99568 14.2612 5.99537 14.9474V17.2578H8.40659C8.76158 17.2578 9.11309 17.1908 9.44105 17.0607C9.76902 16.9306 10.067 16.7399 10.318 16.4995L18.5381 8.6285L15.0059 5.24583L13.2759 6.90265L14.1409 7.73106C14.3001 7.89464 14.3867 8.111 14.3826 8.33456C14.3785 8.55811 14.2839 8.77141 14.1188 8.92952C13.9537 9.08762 13.731 9.17818 13.4976 9.18213C13.2641 9.18607 13.0382 9.10309 12.8674 8.95066L12.0024 8.12225ZM20.6453 4.31387L19.516 3.23234L17.482 5.1768L18.6101 6.25833L20.6453 4.31387Z" fill="#1B1B1B"/>
</svg>
