<svg width="19" height="19" viewBox="0 0 19 19" fill="none" xmlns="http://www.w3.org/2000/svg">
<circle cx="9.5" cy="9.5" r="8.5" fill="#B2D3BE"/>
<path d="M9.5 0C7.62108 0 5.78435 0.557165 4.22209 1.60104C2.65982 2.64491 1.44218 4.12861 0.723149 5.86451C0.0041162 7.6004 -0.184015 9.51054 0.182544 11.3534C0.549104 13.1962 1.45389 14.8889 2.78249 16.2175C4.11109 17.5461 5.80383 18.4509 7.64665 18.8175C9.48946 19.184 11.3996 18.9959 13.1355 18.2769C14.8714 17.5578 16.3551 16.3402 17.399 14.7779C18.4428 13.2156 19 11.3789 19 9.5C18.9973 6.98126 17.9956 4.56644 16.2146 2.78542C14.4336 1.0044 12.0187 0.00265983 9.5 0ZM9.5 17.5385C7.91015 17.5385 6.35599 17.067 5.03407 16.1837C3.71216 15.3005 2.68185 14.045 2.07343 12.5762C1.46502 11.1073 1.30583 9.49108 1.616 7.93177C1.92616 6.37246 2.69175 4.94015 3.81595 3.81595C4.94015 2.69175 6.37247 1.92616 7.93178 1.61599C9.49109 1.30583 11.1074 1.46502 12.5762 2.07343C14.045 2.68184 15.3005 3.71215 16.1837 5.03407C17.067 6.35599 17.5385 7.91014 17.5385 9.5C17.536 11.6312 16.6884 13.6744 15.1814 15.1814C13.6744 16.6884 11.6312 17.536 9.5 17.5385ZM13.6709 8.98298C13.7388 9.05085 13.7927 9.13144 13.8295 9.22016C13.8663 9.30887 13.8852 9.40396 13.8852 9.5C13.8852 9.59603 13.8663 9.69112 13.8295 9.77984C13.7927 9.86855 13.7388 9.94915 13.6709 10.017L10.7478 12.9401C10.6107 13.0772 10.4247 13.1543 10.2308 13.1543C10.0369 13.1543 9.85087 13.0772 9.71375 12.9401C9.57663 12.803 9.4996 12.617 9.4996 12.4231C9.4996 12.2292 9.57663 12.0432 9.71375 11.9061L11.39 10.2308H5.84616C5.65234 10.2308 5.46647 10.1538 5.32943 10.0167C5.19238 9.87968 5.11539 9.69381 5.11539 9.5C5.11539 9.30619 5.19238 9.12031 5.32943 8.98327C5.46647 8.84622 5.65234 8.76923 5.84616 8.76923H11.39L9.71375 7.09394C9.57663 6.95682 9.4996 6.77084 9.4996 6.57692C9.4996 6.383 9.57663 6.19702 9.71375 6.0599C9.85087 5.92278 10.0369 5.84575 10.2308 5.84575C10.4247 5.84575 10.6107 5.92278 10.7478 6.0599L13.6709 8.98298Z" fill="#1B1B1B"/>
</svg>
